<?xml version="1.0" encoding="iso-8859-1"?>
<!-- Generator: Adobe Illustrator 19.1.0, SVG Export Plug-In . SVG Version: 6.00 Build 0)  -->
<svg version="1.1" id="Capa_1" xmlns="http://www.w3.org/2000/svg" xmlns:xlink="http://www.w3.org/1999/xlink" x="0px" y="0px"
	 viewBox="0 0 218.333 218.333" style="enable-background:new 0 0 218.333 218.333;" xml:space="preserve">
<g>
	<g id="group-118svg">
		<path id="path-1_21_" style="fill:#2476FF;" d="M155.763,190.93h18.125c3.494,0,6.328,1.261,6.328,2.817
			c0,1.555-2.834,2.815-6.328,2.815h-0.844c-3.494,0-6.328,1.261-6.328,2.817s2.834,2.814,6.328,2.814h38.961
			c3.495,0,6.328,1.261,6.328,2.816c0,1.555-2.833,2.817-6.328,2.817h-46.822h-51.461c-3.495,0-6.327-1.262-6.327-2.817
			c0-1.555,2.832-2.816,6.327-2.816h10.813c3.494,0,6.328-1.258,6.328-2.814s-2.834-2.817-6.328-2.817H73.073
			c-3.494,0-6.327-1.26-6.327-2.815c0-1.556,2.833-2.817,6.327-2.817h12.164H155.763z"/>
		<path id="path-2_21_" style="fill:#2476FF;" d="M59.103,210.262c3.99,0,7.225-1.44,7.225-3.215c0-1.777-3.235-3.216-7.225-3.216
			H36.965c-3.99,0-7.225,1.439-7.225,3.216c0,1.775,3.235,3.215,7.225,3.215H59.103z"/>
		<path id="path-3_21_" style="fill:#2476FF;" d="M54.7,148.512h7.44c1.434,0,2.597,0.639,2.597,1.428s-1.163,1.428-2.597,1.428
			h-0.346c-1.435,0-2.598,0.639-2.598,1.428c0,0.788,1.163,1.428,2.598,1.428h15.993c1.433,0,2.596,0.639,2.596,1.428
			c0,0.788-1.163,1.428-2.596,1.428h-19.22H19.283c-1.434,0-2.597-0.64-2.597-1.428c0-0.789,1.163-1.428,2.597-1.428h4.439
			c1.434,0,2.597-0.64,2.597-1.428c0-0.789-1.163-1.428-2.597-1.428H2.597c-1.434,0-2.597-0.639-2.597-1.428
			s1.163-1.428,2.597-1.428h4.992H54.7z"/>
		<path id="path-4_21_" style="fill:#FBB713;" d="M190.78,147.183c8.524-20.219,10.543-43.069,10.925-55.344
			C201.881,86.164,197.289,80,191.56,80H96.955c-5.727,0-10.32,5.678-10.143,11.354c0.745,23.933,7.711,81.641,56.987,100.642h0.919
			C180.835,177.997,190.78,147.183,190.78,147.183z"/>
		<path id="path-5_21_" style="opacity:0.25;fill:#020403;enable-background:new    ;" d="M194.065,80.735
			c-0.68,12.736-3.073,32.589-10.752,50.809c0,0-9.945,32.052-46.064,45.004h-0.918c-17.96-5.394-30.281-16.995-38.748-30.705
			c8.07,19.767,22.046,38.247,46.216,45.508h0.919c36.117-12.953,46.062-45.006,46.062-45.006
			c8.524-20.219,10.543-42.484,10.925-54.759C201.854,86.772,198.559,82.065,194.065,80.735z"/>
		<path id="path-6_21_" style="opacity:0.35;enable-background:new    ;" d="M86.812,92.619c0.126,4.039-0.257,0.581,0.396,6.268
			l113.458,8.567c0.598-5.377,0.918-10.235,1.039-14.103c0.067-2.171-0.571-4.214-1.696-5.916h-111.8
			C87.286,88.915,86.75,90.664,86.812,92.619z"/>
		<path id="path-7_21_" style="fill:#142A3B;" d="M86.807,90.929c-7.604,0.209-7.887-5.507-7.887-5.507
			c-4.185-28.73,37.283-45.165,37.283-45.165c8.5-3.097,18.013-4.831,28.055-4.831c36.085,0,65.339,22.383,65.339,49.996
			c0,0-0.228,4.251-6.778,5.507l0,0"/>
		<path id="path-8_21_" style="opacity:0.35;enable-background:new    ;" d="M158.567,36.667
			c17.275,8.997,28.626,24.158,28.626,41.354c0,0-0.226,4.25-6.777,5.507H78.733c0.049,0.627,0.094,1.253,0.187,1.893
			c0,0,0.283,5.717,7.887,5.508h116.011c6.551-1.257,6.779-5.508,6.779-5.508C209.597,61.575,187.76,41.664,158.567,36.667z"/>
		<path id="path-9_19_" style="fill:#142A3B;" d="M143.008,40.514c-2.011,0-3.499-1.614-3.499-3.604V11.676
			c0-1.991,1.488-3.605,3.499-3.605c2.012,0,3.5,1.614,3.5,3.605V36.91C146.508,38.9,145.02,40.514,143.008,40.514z"/>
		<path id="path-10_17_" style="fill:#FFFFFF;" d="M94.647,76.174c-0.405,0-0.817-0.067-1.219-0.209
			c-1.89-0.665-2.878-2.717-2.214-4.589c0.093-0.261,9.58-25.96,38.84-26.459c2.101-0.072,3.668,1.552,3.703,3.541
			c0.036,1.992-1.566,3.633-3.574,3.667c-24.116,0.412-31.794,20.792-32.107,21.659C97.54,75.255,96.139,76.174,94.647,76.174z"/>
	</g>
</g>
<g>
</g>
<g>
</g>
<g>
</g>
<g>
</g>
<g>
</g>
<g>
</g>
<g>
</g>
<g>
</g>
<g>
</g>
<g>
</g>
<g>
</g>
<g>
</g>
<g>
</g>
<g>
</g>
<g>
</g>
</svg>
