<?xml version="1.0" encoding="iso-8859-1"?>
<!-- Generator: Adobe Illustrator 19.1.0, SVG Export Plug-In . SVG Version: 6.00 Build 0)  -->
<svg version="1.1" id="Capa_1" xmlns="http://www.w3.org/2000/svg" xmlns:xlink="http://www.w3.org/1999/xlink" x="0px" y="0px"
	 viewBox="0 0 225.61 225.61" style="enable-background:new 0 0 225.61 225.61;" xml:space="preserve">
<g>
	<g id="group-55svg">
		<path id="path-1_119_" style="fill:#2476FF;" d="M176.923,170.277h14.103c2.719,0,4.923,0.901,4.923,2.012
			c0,1.111-2.204,2.012-4.923,2.012h-0.657c-2.719,0-4.923,0.901-4.923,2.012c0,1.112,2.204,2.012,4.923,2.012h30.317
			c2.719,0,4.924,0.901,4.924,2.013c0,1.111-2.205,2.012-4.924,2.012h-36.433h-40.044c-2.719,0-4.923-0.901-4.923-2.012
			c0-1.112,2.204-2.013,4.923-2.013h8.414c2.719,0,4.924-0.9,4.924-2.012c0-1.111-2.205-2.012-4.924-2.012H112.58
			c-2.72,0-4.924-0.901-4.924-2.012c0-1.111,2.204-2.012,4.924-2.012h9.464H176.923z"/>
		<path id="path-2_119_" style="fill:#2476FF;" d="M195.554,83.617h5.779c1.114,0,2.018,0.901,2.018,2.012s-0.904,2.013-2.018,2.013
			h-0.269c-1.115,0-2.017,0.9-2.017,2.011s0.902,2.013,2.017,2.013h12.423c1.114,0,2.018,0.9,2.018,2.012
			c0,1.111-0.904,2.012-2.018,2.012h-14.929h-16.409c-1.115,0-2.018-0.901-2.018-2.012c0-1.112,0.903-2.012,2.018-2.012h3.447
			c1.115,0,2.018-0.902,2.018-2.013s-0.903-2.011-2.018-2.011h-16.409c-1.114,0-2.017-0.902-2.017-2.013s0.903-2.012,2.017-2.012
			h3.878H195.554z"/>
		<path id="path-3_119_" style="fill:#2476FF;" d="M53.155,95.69h5.779c1.115,0,2.018,0.901,2.018,2.012s-0.903,2.013-2.018,2.013
			h-0.268c-1.115,0-2.018,0.9-2.018,2.012c0,1.111,0.903,2.012,2.018,2.012h12.423c1.114,0,2.017,0.901,2.017,2.012
			s-0.903,2.012-2.017,2.012h-14.93H39.75c-1.114,0-2.017-0.901-2.017-2.012s0.903-2.012,2.017-2.012h3.448
			c1.114,0,2.017-0.901,2.017-2.012c0-1.112-0.903-2.012-2.017-2.012H26.789c-1.115,0-2.017-0.902-2.017-2.013
			s0.902-2.012,2.017-2.012h3.878H53.155z"/>
		<path id="path-4_118_" style="fill:#2476FF;" d="M42.231,43.261h3.555c0.685,0,1.241,0.554,1.241,1.237
			c0,0.685-0.556,1.238-1.241,1.238H45.62c-0.685,0-1.241,0.554-1.241,1.238c0,0.685,0.556,1.238,1.241,1.238h7.642
			c0.686,0,1.241,0.553,1.241,1.238c0,0.684-0.555,1.238-1.241,1.238h-9.183H33.985c-0.685,0-1.241-0.554-1.241-1.238
			c0-0.685,0.556-1.238,1.241-1.238h2.121c0.685,0,1.241-0.553,1.241-1.238c0-0.684-0.556-1.238-1.241-1.238H26.012
			c-0.685,0-1.24-0.553-1.24-1.238c0-0.683,0.555-1.237,1.24-1.237h2.386H42.231z"/>
		<path id="path-5_118_" style="fill:#142A3B;" d="M65.814,145.852H0v-8.359h65.814V145.852z"/>
		<path id="path-6_117_" style="fill:#FBB713;" d="M93.213,93.536v-25.62h9.023v25.62H93.213z"/>
		<path id="path-7_117_" style="fill:#142A3B;" d="M197.903,145.852h-65.814v-8.359h65.814V145.852z"/>
		<path id="path-8_114_" style="fill:#FF3A2F;" d="M140.006,127.462c0,23.083-18.889,41.795-42.19,41.795
			c-23.3,0-42.188-18.712-42.188-41.795c0-23.082,42.188-45.715,42.188-45.715S140.006,104.38,140.006,127.462z"/>
		<path id="path-9_108_" style="opacity:0.25;fill:#020403;enable-background:new    ;" d="M139.797,124.77
			c-0.035-0.254-0.08-0.507-0.124-0.76c-0.123-0.702-0.279-1.404-0.47-2.102c-0.057-0.211-0.104-0.423-0.168-0.633
			c-0.265-0.878-0.578-1.75-0.94-2.62c-0.08-0.192-0.176-0.382-0.26-0.574c-0.309-0.7-0.647-1.397-1.012-2.09
			c-0.134-0.253-0.269-0.507-0.41-0.759c-0.429-0.769-0.885-1.532-1.375-2.289c-0.061-0.094-0.114-0.189-0.175-0.282
			c-0.554-0.841-1.151-1.67-1.771-2.494c-0.179-0.24-0.367-0.477-0.552-0.715c-0.49-0.629-0.995-1.252-1.517-1.87
			c-0.184-0.216-0.363-0.436-0.551-0.652c-0.687-0.791-1.392-1.572-2.122-2.341c-0.14-0.148-0.286-0.291-0.428-0.438
			c-0.62-0.644-1.253-1.279-1.896-1.904c-0.224-0.218-0.448-0.434-0.674-0.65c-0.673-0.641-1.354-1.273-2.044-1.893
			c-0.117-0.105-0.232-0.213-0.348-0.317c-0.815-0.726-1.638-1.434-2.464-2.126c-0.184-0.154-0.368-0.305-0.553-0.458
			c-0.684-0.565-1.368-1.121-2.052-1.663c-0.178-0.141-0.356-0.284-0.534-0.424c-1.69-1.326-3.365-2.573-4.985-3.731
			c-0.144-0.104-0.288-0.206-0.432-0.308c-0.775-0.551-1.541-1.085-2.284-1.593c-0.018-0.013-0.038-0.027-0.057-0.04
			c-0.82-0.559-1.616-1.091-2.383-1.594c-2.627-1.726-4.904-3.114-6.556-4.086l0,0c-0.434-0.254-0.822-0.479-1.166-0.676
			c-0.043-0.026-0.078-0.045-0.121-0.069c-0.288-0.166-0.547-0.312-0.758-0.431c-0.04-0.022-0.079-0.044-0.116-0.063
			c-0.178-0.101-0.326-0.183-0.434-0.242c-0.026-0.016-0.066-0.036-0.088-0.049c-0.088-0.048-0.16-0.087-0.16-0.087
			s-0.135,0.073-0.342,0.187c-0.174,0.097-0.393,0.216-0.701,0.391c-0.005,0.003-0.013,0.008-0.02,0.012
			c-0.218,0.123-0.468,0.265-0.748,0.426c0.274,0.193,0.557,0.403,0.833,0.601h-1.866c-2.284,1.344-5.761,3.483-9.717,6.218h19.589
			c9.927,8.359,19.328,19.141,19.328,30.039c0,23.082-18.889,41.794-42.189,41.794c-3.654,0-7.18-0.509-10.56-1.374
			c1.63,1.298,3.373,2.462,5.19,3.513c0.217,0.125,0.424,0.267,0.643,0.388c0.66,0.367,1.346,0.691,2.028,1.023
			c0.472,0.23,0.939,0.467,1.421,0.679c0.62,0.273,1.255,0.519,1.89,0.764c0.583,0.224,1.169,0.441,1.764,0.64
			c0.591,0.197,1.188,0.381,1.791,0.554c0.687,0.196,1.383,0.37,2.085,0.531c0.549,0.128,1.099,0.257,1.657,0.363
			c0.832,0.156,1.677,0.274,2.525,0.381c0.456,0.059,0.907,0.135,1.368,0.178c1.328,0.125,2.67,0.202,4.031,0.202
			c13.106,0,24.816-5.921,32.554-15.209c0.86-1.033,1.671-2.106,2.429-3.218c4.549-6.671,7.205-14.711,7.205-23.368
			C140.005,126.563,139.92,125.666,139.797,124.77z"/>
		<path id="path-10_100_" style="fill:#FFFFFF;" d="M65.744,144.424c-1.52,0-2.938-0.949-3.449-2.454
			c-1.585-4.663-2.39-9.544-2.39-14.508c0-5.691,2.177-11.701,6.47-17.858c1.138-1.638,3.4-2.05,5.062-0.919
			c1.652,1.132,2.067,3.377,0.926,5.015c-3.438,4.932-5.18,9.563-5.18,13.762c0,4.181,0.675,8.287,2.01,12.206
			c0.641,1.887-0.382,3.931-2.287,4.568C66.52,144.363,66.13,144.424,65.744,144.424z"/>
		<path id="path-11_88_" style="fill:#142A3B;" d="M131.568,86.823H65.753v-8.359h65.815V86.823z"/>
		<path id="path-12_76_" style="fill:#FBB713;" d="M48.939,160.898c0,8.31-6.8,15.046-15.188,15.046s-15.188-6.736-15.188-15.046
			s6.8-15.046,15.188-15.046S48.939,152.588,48.939,160.898z"/>
		<path id="path-13_64_" style="opacity:0.25;fill:#020403;enable-background:new    ;" d="M33.751,145.852
			c-5.206,0-9.792,2.6-12.529,6.556c2.441-1.658,5.388-2.635,8.571-2.635c8.388,0,15.188,6.736,15.188,15.046
			c0,3.154-0.987,6.073-2.66,8.491c3.993-2.711,6.617-7.255,6.617-12.412C48.938,152.588,42.139,145.852,33.751,145.852z"/>
		<path id="path-14_52_" style="fill:#FBB713;" d="M181.028,160.898c0,8.31-6.8,15.046-15.188,15.046s-15.188-6.736-15.188-15.046
			s6.8-15.046,15.188-15.046S181.028,152.588,181.028,160.898z"/>
		<path id="path-15_44_" style="opacity:0.25;fill:#020403;enable-background:new    ;" d="M165.84,145.852
			c-5.206,0-9.792,2.6-12.528,6.556c2.44-1.658,5.388-2.635,8.57-2.635c8.388,0,15.188,6.736,15.188,15.046
			c0,3.153-0.986,6.073-2.659,8.491c3.992-2.712,6.617-7.255,6.617-12.412C181.028,152.588,174.228,145.852,165.84,145.852z"/>
		<path id="path-16_35_" style="fill:#142A3B;" d="M118.86,127.724H76.244v-7.209h42.616V127.724z"/>
	</g>
</g>
<g>
</g>
<g>
</g>
<g>
</g>
<g>
</g>
<g>
</g>
<g>
</g>
<g>
</g>
<g>
</g>
<g>
</g>
<g>
</g>
<g>
</g>
<g>
</g>
<g>
</g>
<g>
</g>
<g>
</g>
</svg>
