<?xml version="1.0" encoding="iso-8859-1"?>
<!-- Generator: Adobe Illustrator 19.1.0, SVG Export Plug-In . SVG Version: 6.00 Build 0)  -->
<svg version="1.1" id="Capa_1" xmlns="http://www.w3.org/2000/svg" xmlns:xlink="http://www.w3.org/1999/xlink" x="0px" y="0px"
	 viewBox="0 0 217.229 217.229" style="enable-background:new 0 0 217.229 217.229;" xml:space="preserve">
<g>
	<g id="group-35svg">
		<path id="path-1_89_" style="fill:#FBB713;" d="M146.229,213.765h15.361c2.962,0,5.363-1.645,5.363-3.675
			c0-2.031-2.401-3.677-5.363-3.677h-0.715c-2.962,0-5.363-1.646-5.363-3.677c0-2.031,2.401-3.676,5.363-3.676h33.022
			c2.962,0,5.362-1.647,5.362-3.677c0-2.031-2.4-3.676-5.362-3.676h-39.684H73.1c-2.962,0-5.363,1.645-5.363,3.676
			c0,2.03,2.401,3.677,5.363,3.677h9.165c2.961,0,5.362,1.645,5.362,3.676c0,2.031-2.401,3.677-5.362,3.677H38.648
			c-2.962,0-5.363,1.646-5.363,3.677c0,2.03,2.401,3.675,5.363,3.675h10.309H146.229z"/>
		<path id="path-2_89_" style="fill:#FBB713;" d="M210.946,207.586c3.47,0,6.283,1.888,6.283,4.216c0,2.328-2.813,4.216-6.283,4.216
			h-19.254c-3.47,0-6.283-1.888-6.283-4.216c0-2.328,2.813-4.216,6.283-4.216H210.946z"/>
		<path id="path-3_89_" style="fill:#FBB713;" d="M25.536,187.49c3.47,0,6.283,1.888,6.283,4.217c0,2.328-2.813,4.215-6.283,4.215
			H6.283c-3.47,0-6.283-1.887-6.283-4.215c0-2.329,2.813-4.217,6.283-4.217H25.536z"/>
		<path id="path-4_89_" style="fill:#142A3B;" d="M172.618,190.461l-6.495,6.496c-0.498,0.498-1.314,0.498-1.812,0l-22.3-22.3
			c-0.498-0.497-0.498-1.312,0-1.812l6.496-6.494c0.498-0.499,1.313-0.499,1.812,0l22.299,22.298
			C173.117,189.148,173.117,189.963,172.618,190.461z"/>
		<path id="path-5_88_" style="fill:#142A3B;" d="M41.146,190.461l6.496,6.496c0.498,0.498,1.314,0.498,1.812,0l22.3-22.3
			c0.498-0.497,0.498-1.312,0-1.812l-6.495-6.494c-0.498-0.499-1.314-0.499-1.813,0l-22.3,22.298
			C40.648,189.148,40.648,189.963,41.146,190.461z"/>
		<path id="path-6_85_" style="fill:#FF3A2F;" d="M201.282,11.866C188.595-0.82,167.545-2.154,153,7.734l-0.091-0.03
			c-1.06,0.848-2.374,1.869-3.838,3.192c-0.373,0.354-0.829,0.606-1.202,0.97c-0.172,0.172-0.242,0.403-0.384,0.586
			c-1.354,1.362-2.788,3.151-4.243,5.161c22.798,11.837,40.546,31.988,49.313,56.41c5.01-4.069,9.636-8.554,11.928-12.423
			c0.112-0.181,0.163-0.374,0.253-0.565c4.859-6.474,7.596-14.243,7.596-22.484C212.332,28.47,208.413,18.997,201.282,11.866z"/>
		<path id="path-7_84_" style="opacity:0.35;fill:#060606;enable-background:new    ;" d="M154.089,7.064
			c-0.361,0.227-0.735,0.431-1.089,0.671l-0.091-0.032c-1.06,0.849-2.374,1.87-3.838,3.193c-0.373,0.353-0.829,0.606-1.202,0.97
			c-0.172,0.171-0.242,0.404-0.384,0.586c-1.354,1.362-2.788,3.152-4.243,5.161c22.798,11.837,40.546,31.988,49.312,56.41
			c4.614-3.747,8.816-7.826,11.256-11.474C194.651,38.5,176.79,18.725,154.089,7.064z"/>
		<path id="path-8_65_" style="fill:#FF3A2F;" d="M69.785,16.541c-1.191-1.565-2.383-2.958-3.495-4.089
			c-0.14-0.183-0.221-0.414-0.392-0.586c-0.375-0.364-0.819-0.616-1.204-0.97c-1.454-1.323-2.766-2.344-3.837-3.192l-0.081,0.03
			C46.221-2.154,25.18-0.82,12.494,11.866C5.363,18.997,1.433,28.47,1.433,38.551c0,8.241,2.738,16.01,7.596,22.484
			c0.091,0.191,0.153,0.384,0.253,0.565c1.939,3.274,5.576,6.989,9.677,10.514C28.252,47.772,46.554,27.904,69.785,16.541z"/>
		<path id="path-9_56_" style="opacity:0.35;fill:#060606;enable-background:new    ;" d="M9.95,62.565
			c2.038,3.031,5.298,6.361,9.009,9.549c9.293-24.343,27.595-44.21,50.826-55.572c-1.191-1.565-2.383-2.959-3.495-4.09
			c-0.14-0.182-0.221-0.415-0.392-0.586c-0.375-0.364-0.819-0.617-1.204-0.97c-1.454-1.323-2.766-2.344-3.837-3.193l-0.081,0.032
			c-0.355-0.242-0.731-0.444-1.093-0.671C36.977,18.725,19.11,38.507,9.95,62.565z"/>
		<path id="path-10_50_" style="fill:#0CB04A;" d="M106.882,7.262c-50.766,0-92.078,41.31-92.078,92.076
			c0,31.696,16.1,59.693,40.544,76.259c0,0,7.39,4.497,8.929,5.28c12.748,6.699,27.232,10.536,42.605,10.536
			c15.384,0,29.857-3.837,42.625-10.536c0,0,7.113-4.022,8.919-5.28c24.445-16.566,40.535-44.563,40.535-76.259
			C198.961,48.572,157.659,7.262,106.882,7.262z M146.161,157.449c-1.377,0.959-6.797,4.025-6.797,4.025
			c-9.73,5.104-20.759,8.028-32.482,8.028c-11.715,0-22.752-2.924-32.466-8.028c-1.173-0.598-6.804-4.025-6.804-4.025
			c-18.628-12.624-30.896-33.958-30.896-58.111c0-38.685,31.48-70.165,70.166-70.165c38.694,0,70.167,31.48,70.167,70.165
			C177.049,123.491,164.788,144.825,146.161,157.449z"/>
		<path id="path-11_42_" style="opacity:0.35;fill:#060606;enable-background:new    ;" d="M102.298,29.406
			c-1.524-0.099-3.038-0.233-4.586-0.233c-38.685,0-70.166,31.479-70.166,70.165c0,24.152,12.269,45.487,30.896,58.111
			c0,0,5.632,3.427,6.804,4.025c9.714,5.103,20.751,8.028,32.466,8.028c1.542,0,3.07-0.059,4.586-0.157
			c-10.009-0.657-19.446-3.44-27.882-7.871c-1.173-0.598-6.804-4.025-6.804-4.025c-18.628-12.624-30.896-33.959-30.896-58.111
			C36.716,62.201,65.751,31.786,102.298,29.406z"/>
		<path id="path-12_37_" style="opacity:0.35;fill:#060606;enable-background:new    ;" d="M106.882,7.262
			c-1.548,0-3.055,0.157-4.584,0.234c48.64,2.412,87.494,42.624,87.494,91.842c0,31.696-16.091,59.693-40.535,76.258
			c-1.806,1.259-8.92,5.281-8.92,5.281c-11.488,6.027-24.367,9.71-38.039,10.393c1.521,0.076,3.045,0.142,4.584,0.142
			c15.384,0,29.857-3.836,42.625-10.535c0,0,7.113-4.022,8.919-5.281c24.444-16.565,40.535-44.562,40.535-76.258
			C198.961,48.572,157.659,7.262,106.882,7.262z"/>
		<path id="path-13_30_" style="fill:#EDEDED;" d="M74.416,161.475c9.714,5.103,20.752,8.027,32.466,8.027
			c11.723,0,22.753-2.924,32.482-8.027c0,0,5.42-3.067,6.797-4.026c18.627-12.623,30.888-33.958,30.888-58.111
			c0-38.685-31.473-70.165-70.167-70.165c-38.686,0-70.166,31.48-70.166,70.165c0,24.153,12.269,45.488,30.896,58.111
			C67.612,157.449,73.243,160.876,74.416,161.475z"/>
		<path id="path-14_26_" style="opacity:0.35;fill:#060606;enable-background:new    ;" d="M41.301,108.506
			c0-38.683,31.48-70.163,70.166-70.163c25.714,0,48.176,13.944,60.395,34.625c-10.449-25.649-35.617-43.795-64.98-43.795
			c-38.686,0-70.166,31.481-70.166,70.165c0,13.042,3.602,25.246,9.825,35.718C43.177,126.86,41.301,117.902,41.301,108.506z"/>
		<path id="path-15_24_" style="fill:#142A3B;" d="M142.797,77.473l-25.413,25.423c0.99,2.091,1.596,4.394,1.596,6.859
			c0,8.848-7.192,16.04-16.04,16.04c-8.838,0-16.03-7.192-16.03-16.04c0-7.03,4.576-12.96,10.899-15.111l-0.041-0.09V42.789
			c0-2.859,2.323-5.172,5.172-5.172c2.869,0,5.171,2.313,5.171,5.172v51.713c0,0-0.019,0.093-0.019,0.142
			c0.706,0.243,1.393,0.525,2.06,0.859l25.333-25.342c2.02-2.021,5.292-2.021,7.312,0C144.817,72.181,144.817,75.454,142.797,77.473
			z"/>
		<path id="path-16_19_" style="opacity:0.35;fill:#060606;enable-background:new    ;" d="M103.527,42.789v51.714
			c0,0-0.02,0.091-0.02,0.142c0.707,0.242,1.393,0.524,2.06,0.858l7.13-7.131V42.789c0-2.859-2.303-5.171-5.172-5.171
			c-2.021,0-3.733,1.192-4.583,2.889C103.289,41.2,103.527,41.956,103.527,42.789z"/>
		<path id="path-17_17_" style="opacity:0.35;fill:#060606;enable-background:new    ;" d="M147.382,70.161
			c-2.02-2.021-5.292-2.021-7.313,0l-1.115,1.116c1.139,1.977,0.949,4.506-0.741,6.196l-25.414,25.423
			c0.99,2.091,1.597,4.394,1.597,6.859c0,7.242-4.851,13.304-11.454,15.291c1.462,0.44,2.979,0.749,4.583,0.749
			c8.848,0,16.04-7.192,16.04-16.04c0-2.465-0.606-4.768-1.596-6.859l25.413-25.423C149.402,75.454,149.402,72.181,147.382,70.161z"
			/>
	</g>
</g>
<g>
</g>
<g>
</g>
<g>
</g>
<g>
</g>
<g>
</g>
<g>
</g>
<g>
</g>
<g>
</g>
<g>
</g>
<g>
</g>
<g>
</g>
<g>
</g>
<g>
</g>
<g>
</g>
<g>
</g>
</svg>
