<?xml version="1.0" encoding="iso-8859-1"?>
<!-- Generator: Adobe Illustrator 19.1.0, SVG Export Plug-In . SVG Version: 6.00 Build 0)  -->
<svg version="1.1" id="Capa_1" xmlns="http://www.w3.org/2000/svg" xmlns:xlink="http://www.w3.org/1999/xlink" x="0px" y="0px"
	 viewBox="0 0 218.333 218.333" style="enable-background:new 0 0 218.333 218.333;" xml:space="preserve">
<g>
	<g id="group-104svg">
		<path id="path-1_6_" style="fill:#0CB04A;" d="M159.683,154.194h-2.198c0.563-1.549,0.897-3.283,0.897-5.175
			c0-6.55-3.674-11.491-8.547-11.491h-32.47c-4.785,0-8.543,5.042-8.543,11.491c0,1.876,0.351,3.618,0.93,5.175h-2.24
			c-4.388,0-7.697,4.691-7.697,10.912c0,6.223,3.309,10.913,7.697,10.913h52.171c4.393,0,7.701-4.69,7.701-10.913
			C167.384,158.885,164.076,154.194,159.683,154.194z"/>
		<path id="path-2_6_" style="opacity:0.35;fill:#020403;enable-background:new    ;" d="M159.683,154.194h-2.198
			c0.563-1.549,0.897-3.283,0.897-5.175c0-6.55-3.674-11.49-8.547-11.49h-32.47c-2.218,0-4.194,1.115-5.697,2.919h29.325
			c4.874,0,8.548,4.942,8.548,11.49c0,1.893-0.335,3.626-0.897,5.177h2.198c4.392,0,7.701,4.689,7.701,10.91
			c0,3.232-0.905,6.03-2.379,7.994h3.519c4.393,0,7.701-4.691,7.701-10.913C167.384,158.885,164.076,154.194,159.683,154.194z"/>
		<path id="path-3_6_" style="fill:#142A3B;" d="M106.366,110.722l10.093,9.647c-0.011,0.198-0.054,0.386-0.054,0.583
			c0,2.938,1.166,5.715,3.285,7.809c2.121,2.102,4.923,3.257,7.891,3.257c2.886,0,5.589-1.104,7.612-3.107l22.174-21.966
			c2.03-2.002,3.146-4.686,3.146-7.541c0-2.945-1.167-5.721-3.289-7.823c-2.122-2.111-5.034-3.149-7.926-3.14l-13.115-12.544
			c-0.161-0.294-0.314-0.595-0.571-0.851L97.291,37.084c-0.084-0.089-0.199-0.117-0.287-0.192L85.157,25.555
			c-0.175-0.167-0.398-0.26-0.597-0.385c0.056-0.464,0.14-0.92,0.14-1.399c0-2.864-1.125-5.547-3.144-7.544
			c-4.118-4.087-11.371-4.003-15.564,0.171L42.977,39.203c-2.143,2.11-3.323,4.907-3.323,7.863c0,2.864,1.114,5.548,3.139,7.557
			c2.018,1.999,4.723,3.104,7.618,3.104c0.629,0,1.242-0.08,1.845-0.179c0.184,0.372,0.403,0.727,0.717,1.03L65.02,70.109
			c0.16,0.146,0.362,0.226,0.541,0.344l12.317,12.204L1.067,158.743C0.383,159.42,0,160.334,0,161.297
			c0,0.953,0.383,1.867,1.067,2.546l11.228,11.12c0.711,0.703,1.641,1.056,2.571,1.056c0.934,0,1.867-0.353,2.579-1.056
			L94.253,98.88l11.67,11.543C106.054,110.559,106.223,110.615,106.366,110.722z"/>
		<path id="path-4_6_" style="opacity:0.35;fill:#020403;enable-background:new    ;" d="M50.411,57.727
			c0.629,0,1.242-0.08,1.845-0.181c0.184,0.374,0.403,0.729,0.717,1.031L65.02,70.109c0.16,0.146,0.362,0.226,0.541,0.344
			l12.317,12.202l7.367-7.297L65.561,55.854c-0.179-0.117-0.381-0.197-0.541-0.344L52.973,43.979
			c-0.314-0.301-0.533-0.657-0.717-1.03c-0.603,0.1-1.216,0.18-1.845,0.18c-2.895,0-5.6-1.106-7.618-3.103
			c-0.095-0.094-0.16-0.207-0.251-0.304c-1.842,2.045-2.888,4.615-2.888,7.344c0,2.864,1.114,5.548,3.139,7.557
			C44.811,56.62,47.516,57.727,50.411,57.727z"/>
		<path id="path-5_6_" style="opacity:0.35;fill:#020403;enable-background:new    ;" d="M157.367,92.346l-22.174,21.967
			c-2.023,2.001-4.726,3.108-7.612,3.108c-2.968,0-5.77-1.157-7.891-3.259c-2.119-2.094-3.285-4.87-3.285-7.809
			c0-0.196,0.043-0.384,0.054-0.582l-10.093-9.648c-0.143-0.105-0.312-0.162-0.443-0.297l-11.67-11.545l-76.808,76.084
			c-0.712,0.704-1.645,1.056-2.579,1.056c-0.93,0-1.86-0.352-2.571-1.056l-6.433-6.372l-4.795,4.75
			C0.383,159.42,0,160.334,0,161.297c0,0.953,0.383,1.867,1.067,2.546l11.228,11.12c0.711,0.703,1.641,1.056,2.571,1.056
			c0.934,0,1.867-0.353,2.579-1.056L94.253,98.88l11.67,11.543c0.131,0.136,0.3,0.192,0.443,0.299l10.093,9.647
			c-0.011,0.198-0.054,0.386-0.054,0.583c0,2.938,1.166,5.715,3.285,7.809c2.121,2.102,4.923,3.257,7.891,3.257
			c2.886,0,5.589-1.104,7.612-3.107l22.174-21.966c2.03-2.002,3.145-4.686,3.145-7.543c0-2.738-1.047-5.311-2.899-7.352
			C157.524,92.144,157.46,92.256,157.367,92.346z"/>
		<path id="path-6_6_" style="fill:#FF3A2F;" d="M176.243,102.521l-0.798,1.988c-0.153,0.383,0.198,0.88,0.785,1.11
			c0.585,0.232,1.185,0.108,1.337-0.275l0.037-0.092c0.155-0.385,0.754-0.508,1.34-0.277c0.586,0.229,0.936,0.729,0.783,1.112
			l-1.713,4.271c-0.154,0.384,0.197,0.881,0.783,1.111c0.585,0.231,1.186,0.108,1.339-0.276l2.059-5.135l4.207-10.494
			c0.153-0.384-0.197-0.881-0.783-1.113c-0.586-0.23-1.186-0.105-1.339,0.277l-0.476,1.187c-0.153,0.383-0.753,0.507-1.339,0.276
			c-0.586-0.23-0.936-0.729-0.783-1.111l2.263-5.643c0.153-0.385-0.197-0.882-0.783-1.112c-0.586-0.231-1.186-0.107-1.339,0.276
			l-0.535,1.334L176.243,102.521z"/>
		<path id="path-7_6_" style="fill:#FF3A2F;" d="M171.105,125.097c-0.712,1.777-2.223,2.85-3.375,2.397
			c-1.153-0.455-1.51-2.262-0.798-4.038l3.952-9.86c0.713-1.778,2.224-2.85,3.377-2.397c1.152,0.453,1.509,2.261,0.798,4.038
			L171.105,125.097z"/>
		<path id="path-8_6_" style="fill:#FF3A2F;" d="M203.172,124.193l-1.981,0.848c-0.383,0.163-0.49,0.76-0.24,1.333
			c0.25,0.575,0.762,0.908,1.144,0.744l0.092-0.039c0.383-0.165,0.894,0.168,1.145,0.742c0.249,0.573,0.142,1.171-0.24,1.334
			l-4.261,1.822c-0.382,0.163-0.49,0.759-0.24,1.333c0.251,0.574,0.762,0.906,1.145,0.743l5.12-2.189l10.466-4.473
			c0.382-0.165,0.489-0.762,0.239-1.334c-0.249-0.575-0.762-0.907-1.144-0.744l-1.182,0.506c-0.382,0.163-0.894-0.17-1.145-0.743
			c-0.25-0.573-0.142-1.171,0.24-1.333l5.629-2.406c0.381-0.165,0.489-0.761,0.239-1.335c-0.25-0.574-0.762-0.907-1.145-0.742
			l-1.33,0.568L203.172,124.193z"/>
		<path id="path-9_5_" style="fill:#FF3A2F;" d="M183.426,136.56c-1.772,0.757-3.607,0.456-4.098-0.672
			c-0.492-1.127,0.547-2.656,2.319-3.414l9.832-4.203c1.772-0.758,3.606-0.457,4.098,0.671c0.491,1.128-0.547,2.657-2.319,3.413
			L183.426,136.56z"/>
		<path id="path-10_4_" style="fill:#FF3A2F;" d="M94.565,189.088h15.038c2.9,0,5.25,1.046,5.25,2.336
			c0,1.289-2.35,2.336-5.25,2.336h-0.7c-2.899,0-5.249,1.044-5.249,2.334c0,1.29,2.35,2.334,5.249,2.334h32.328
			c2.9,0,5.25,1.047,5.25,2.336c0,1.29-2.35,2.336-5.25,2.336h-38.85h-42.7c-2.899,0-5.249-1.046-5.249-2.336
			c0-1.289,2.35-2.336,5.249-2.336h8.973c2.9,0,5.249-1.044,5.249-2.334c0-1.29-2.349-2.334-5.249-2.334h-42.7
			c-2.899,0-5.25-1.047-5.25-2.336c0-1.29,2.351-2.336,5.25-2.336h10.091H94.565z"/>
		<path id="path-11_4_" style="fill:#FF3A2F;" d="M187.643,205.119c3.31,0,5.994-1.193,5.994-2.666c0-1.472-2.684-2.666-5.994-2.666
			h-18.37c-3.31,0-5.995,1.194-5.995,2.666c0,1.473,2.685,2.666,5.995,2.666H187.643z"/>
		<path id="path-12_4_" style="fill:#FF3A2F;" d="M185.383,174.734h6.906c1.331,0,2.411,0.594,2.411,1.325
			c0,0.732-1.08,1.326-2.411,1.326h-0.321c-1.332,0-2.411,0.593-2.411,1.324c0,0.732,1.079,1.325,2.411,1.325h14.844
			c1.332,0,2.411,0.594,2.411,1.325c0,0.732-1.079,1.324-2.411,1.324h-17.839H152.51c-1.332,0-2.411-0.592-2.411-1.324
			c0-0.731,1.079-1.325,2.411-1.325h4.12c1.331,0,2.411-0.593,2.411-1.325c0-0.731-1.08-1.324-2.411-1.324h-19.607
			c-1.331,0-2.41-0.594-2.41-1.326c0-0.731,1.079-1.325,2.41-1.325h4.634H185.383z"/>
	</g>
</g>
<g>
</g>
<g>
</g>
<g>
</g>
<g>
</g>
<g>
</g>
<g>
</g>
<g>
</g>
<g>
</g>
<g>
</g>
<g>
</g>
<g>
</g>
<g>
</g>
<g>
</g>
<g>
</g>
<g>
</g>
</svg>
