<?xml version="1.0" encoding="iso-8859-1"?>
<!-- Generator: Adobe Illustrator 19.1.0, SVG Export Plug-In . SVG Version: 6.00 Build 0)  -->
<svg version="1.1" id="Capa_1" xmlns="http://www.w3.org/2000/svg" xmlns:xlink="http://www.w3.org/1999/xlink" x="0px" y="0px"
	 viewBox="0 0 218.333 218.333" style="enable-background:new 0 0 218.333 218.333;" xml:space="preserve">
<g>
	<g id="group-124svg">
		<path id="path-1_28_" style="fill:#020403;" d="M22.113,200.248l-10.121,5.272l-0.73,4.221l14.536-7.573L22.113,200.248z"/>
		<path id="path-2_28_" style="fill:#2476FF;" d="M113.422,216.695c1.739,0,3.149-0.952,3.149-2.127c0-1.176-1.41-2.127-3.149-2.127
			h-9.65c-1.74,0-3.149,0.951-3.149,2.127c0,1.175,1.409,2.127,3.149,2.127H113.422z"/>
		<path id="path-3_28_" style="fill:#2476FF;" d="M81.974,88.488h2.628c0.506,0,0.917,0.532,0.917,1.189
			c0,0.656-0.411,1.188-0.917,1.188H84.48c-0.507,0-0.918,0.531-0.918,1.188c0,0.655,0.411,1.188,0.918,1.188h5.648
			c0.507,0,0.918,0.532,0.918,1.188s-0.411,1.188-0.918,1.188H83.34H69.464c-0.506,0-0.917-0.532-0.917-1.188
			s0.411-1.188,0.917-1.188h1.568c0.507,0,0.918-0.533,0.918-1.188c0-0.657-0.411-1.188-0.918-1.188h-7.461
			c-0.506,0-0.917-0.532-0.917-1.188c0-0.657,0.411-1.189,0.917-1.189h1.763H81.974z"/>
		<path id="path-4_28_" style="fill:#2476FF;" d="M205.986,102.311h3.577c0.689,0,1.248,0.724,1.248,1.617s-0.559,1.617-1.248,1.617
			h-0.167c-0.69,0-1.249,0.724-1.249,1.617c0,0.892,0.559,1.616,1.249,1.616h7.689c0.688,0,1.248,0.724,1.248,1.617
			c0,0.894-0.56,1.617-1.248,1.617h-9.241H188.96c-0.69,0-1.249-0.723-1.249-1.617c0-0.893,0.559-1.617,1.249-1.617h2.134
			c0.689,0,1.248-0.724,1.248-1.616c0-0.893-0.559-1.617-1.248-1.617h-10.156c-0.689,0-1.248-0.724-1.248-1.617
			s0.559-1.617,1.248-1.617h2.401H205.986z"/>
		<path id="path-5_28_" style="fill:#2476FF;" d="M53.81,98.334c1.085,0,1.965-0.641,1.965-1.434c0-0.791-0.88-1.434-1.965-1.434
			h-6.023c-1.085,0-1.965,0.643-1.965,1.434c0,0.793,0.88,1.434,1.965,1.434H53.81z"/>
		<path id="path-6_28_" style="fill:#2476FF;" d="M173.844,198.22h7.29c1.405,0,2.545,1.367,2.545,3.051
			c0,1.686-1.14,3.052-2.545,3.052h-0.339c-1.406,0-2.546,1.366-2.546,3.052c0,1.685,1.14,3.052,2.546,3.052h15.671
			c1.406,0,2.546,1.367,2.546,3.052c0,1.686-1.14,3.051-2.546,3.051h-18.833h-38.495c-1.406,0-2.545-1.365-2.545-3.051
			c0-1.685,1.139-3.052,2.545-3.052h4.349c1.406,0,2.545-1.367,2.545-3.052c0-1.686-1.139-3.052-2.545-3.052h-20.7
			c-1.405,0-2.544-1.366-2.544-3.052c0-1.684,1.139-3.051,2.544-3.051h4.893H173.844z"/>
		<path id="path-7_28_" style="fill:#142A3B;" d="M103.192,59.973c-2.01,0-3.639-1.614-3.639-3.606V5.243
			c0-1.991,1.629-3.605,3.639-3.605s3.639,1.614,3.639,3.605v51.124C106.831,58.359,105.202,59.973,103.192,59.973z"/>
		<path id="path-8_28_" style="fill:#142A3B;" d="M103.192,116.209c-2.01,0-3.639-1.614-3.639-3.605v-5.486
			c0-1.991,1.629-3.605,3.639-3.605s3.639,1.614,3.639,3.605v5.486C106.831,114.595,105.202,116.209,103.192,116.209z
			 M103.192,99.908c-2.01,0-3.639-1.614-3.639-3.605V78.279c0-1.992,1.629-3.606,3.639-3.606s3.639,1.614,3.639,3.606v18.024
			C106.831,98.294,105.202,99.908,103.192,99.908z"/>
		<path id="path-9_26_" style="fill:#142A3B;" d="M176.899,157.584c-2.01,0-3.639-1.614-3.639-3.603v-18.025
			c0-1.991,1.629-3.605,3.639-3.605c2.009,0,3.638,1.614,3.638,3.605v18.025C180.537,155.97,178.908,157.584,176.899,157.584z
			 M176.899,128.746c-2.01,0-3.639-1.614-3.639-3.604v-18.024c0-1.991,1.629-3.605,3.639-3.605c2.009,0,3.638,1.614,3.638,3.605
			v18.024C180.537,127.132,178.908,128.746,176.899,128.746z M176.899,99.908c-2.01,0-3.639-1.614-3.639-3.605V78.279
			c0-1.992,1.629-3.606,3.639-3.606c2.009,0,3.638,1.614,3.638,3.606v18.024C180.537,98.294,178.908,99.908,176.899,99.908z"/>
		<path id="path-10_24_" style="fill:#142A3B;" d="M29.483,157.584c-2.009,0-3.638-1.614-3.638-3.603v-18.025
			c0-1.991,1.629-3.605,3.638-3.605c2.01,0,3.639,1.614,3.639,3.605v18.025C33.122,155.97,31.493,157.584,29.483,157.584z
			 M29.483,128.746c-2.009,0-3.638-1.614-3.638-3.604v-18.024c0-1.991,1.629-3.605,3.638-3.605c2.01,0,3.639,1.614,3.639,3.605
			v18.024C33.122,127.132,31.493,128.746,29.483,128.746z M29.483,99.908c-2.009,0-3.638-1.614-3.638-3.605V78.279
			c0-1.992,1.629-3.606,3.638-3.606c2.01,0,3.639,1.614,3.639,3.606v18.024C33.122,98.294,31.493,99.908,29.483,99.908z"/>
		<path id="path-11_21_" style="fill:#0CB04A;" d="M183.732,167.177l-6.833-13.719l-6.833,13.719l-15.28,2.201l11.058,10.678
			l-2.61,15.078l13.665-7.119l13.666,7.119l-2.61-15.078l11.057-10.678L183.732,167.177z"/>
		<path id="path-12_17_" style="opacity:0.35;fill:#020403;enable-background:new    ;" d="M180.046,170.83l15.197,2.187
			l3.769-3.639l-15.28-2.201l-6.833-13.719l-2.752,5.525L180.046,170.83z"/>
		<path id="path-13_13_" style="opacity:0.35;fill:#020403;enable-background:new    ;" d="M184.269,183.708l1.55,8.954l4.746,2.472
			l-2.597-14.999L184.269,183.708z"/>
		<path id="path-14_11_" style="opacity:0.35;fill:#020403;enable-background:new    ;" d="M166.38,170.83l1.675-3.364
			l-13.269,1.912l2.813,2.715L166.38,170.83z"/>
		<path id="path-15_10_" style="fill:#FBB713;" d="M38.595,172.464l-9.111-18.292l-9.111,18.292L0,175.397l14.741,14.239
			l-3.479,20.103l18.222-9.491l18.222,9.491l-3.481-20.103l14.741-14.239L38.595,172.464z"/>
		<path id="path-16_9_" style="opacity:0.35;fill:#020403;enable-background:new    ;" d="M58.966,175.397l-20.371-2.933
			l-9.111-18.292l-3.686,7.399l5.426,10.893l20.372,2.933l-14.742,14.237l2.75,15.886l8.102,4.221l-3.481-20.107L58.966,175.397z"/>
		<path id="path-17_7_" style="fill:#142A3B;" d="M167.433,65.241c-0.584,0-1.177-0.14-1.73-0.436l-62.511-33.551L41.004,64.631
			c-1.773,0.949-3.978,0.296-4.934-1.453c-0.958-1.75-0.3-3.938,1.466-4.886l65.656-35.237l65.979,35.412
			c1.767,0.947,2.424,3.136,1.466,4.885C169.978,64.558,168.725,65.241,167.433,65.241z"/>
		<path id="path-18_5_" style="fill:#FF3A2F;" d="M40.539,67.323c0,6.051-4.949,10.955-11.056,10.955
			c-6.106,0-11.056-4.904-11.056-10.955s4.95-10.956,11.056-10.956C35.59,56.367,40.539,61.272,40.539,67.323z"/>
		<path id="path-19_4_" style="fill:#FF3A2F;" d="M114.247,67.323c0,6.051-4.949,10.955-11.056,10.955
			c-6.106,0-11.056-4.904-11.056-10.955s4.95-10.956,11.056-10.956C109.298,56.367,114.247,61.272,114.247,67.323z"/>
		<path id="path-20_4_" style="opacity:0.35;fill:#020403;enable-background:new    ;" d="M108.92,57.994
			c1.022,1.66,1.642,3.59,1.642,5.678c0,6.05-4.95,10.955-11.056,10.955c-2.106,0-4.054-0.615-5.729-1.628
			c1.941,3.154,5.414,5.28,9.414,5.28c6.107,0,11.056-4.905,11.056-10.956C114.247,63.358,112.103,59.918,108.92,57.994z"/>
		<path id="path-21_3_" style="opacity:0.35;fill:#020403;enable-background:new    ;" d="M35.212,57.994
			c1.022,1.66,1.642,3.59,1.642,5.678c0,6.05-4.949,10.955-11.056,10.955c-2.106,0-4.053-0.615-5.729-1.628
			c1.942,3.154,5.414,5.28,9.414,5.28c6.107,0,11.056-4.905,11.056-10.956C40.539,63.358,38.395,59.918,35.212,57.994z"/>
		<path id="path-22_2_" style="fill:#FF3A2F;" d="M187.956,67.323c0,6.051-4.951,10.955-11.057,10.955s-11.056-4.904-11.056-10.955
			s4.95-10.956,11.056-10.956S187.956,61.272,187.956,67.323z"/>
		<path id="path-23_2_" style="opacity:0.35;fill:#020403;enable-background:new    ;" d="M182.628,57.994
			c1.021,1.66,1.642,3.59,1.642,5.678c0,6.05-4.95,10.955-11.056,10.955c-2.106,0-4.054-0.615-5.729-1.628
			c1.941,3.154,5.414,5.28,9.414,5.28c6.106,0,11.057-4.905,11.057-10.956C187.956,63.358,185.811,59.918,182.628,57.994z"/>
		<path id="path-24_2_" style="fill:#FF3A2F;" d="M128.218,121.289c0-7.503-6.138-13.584-13.71-13.584
			c-4.605,0-8.669,2.256-11.154,5.704c-2.487-3.448-6.551-5.704-11.155-5.704c-7.572,0-13.71,6.081-13.71,13.584
			c0,3.091,12.986,20.57,24.591,30.862C113.524,140.073,128.218,125.193,128.218,121.289z"/>
		<path id="path-25_2_" style="opacity:0.35;fill:#020403;enable-background:new    ;" d="M99.86,116.727
			c0.977-1.356,2.206-2.518,3.608-3.44c-3.024-2.841-5.897-5.582-11.269-5.582c-1.532,0-2.98,0.305-4.356,0.766
			C91.593,109.028,97.748,113.8,99.86,116.727z"/>
		<path id="path-26_1_" style="opacity:0.35;fill:#020403;enable-background:new    ;" d="M114.508,107.705
			c-1.597,0-3.12,0.286-4.543,0.784c6.688,0.904,11.858,6.526,11.858,13.399c0,3.524-11.954,15.976-21.963,27.247
			c1.078,1.051,2.154,2.071,3.22,3.016c10.444-12.078,25.138-26.958,25.138-30.861C128.218,113.786,122.08,107.705,114.508,107.705z
			"/>
	</g>
</g>
<g>
</g>
<g>
</g>
<g>
</g>
<g>
</g>
<g>
</g>
<g>
</g>
<g>
</g>
<g>
</g>
<g>
</g>
<g>
</g>
<g>
</g>
<g>
</g>
<g>
</g>
<g>
</g>
<g>
</g>
</svg>
