<?xml version="1.0" encoding="iso-8859-1"?>
<!-- Generator: Adobe Illustrator 19.1.0, SVG Export Plug-In . SVG Version: 6.00 Build 0)  -->
<svg version="1.1" id="Capa_1" xmlns="http://www.w3.org/2000/svg" xmlns:xlink="http://www.w3.org/1999/xlink" x="0px" y="0px"
	 viewBox="0 0 216.29 216.29" style="enable-background:new 0 0 216.29 216.29;" xml:space="preserve">
<g>
	<g id="group-147svg">
		<path id="path-1_53_" style="fill:#0CB04A;" d="M83.478,186.128h12.807c2.469,0,4.471,1.257,4.471,2.807
			c0,1.55-2.002,2.806-4.471,2.806h-0.596c-2.469,0-4.471,1.256-4.471,2.806c0,1.55,2.002,2.806,4.471,2.806h27.53
			c2.469,0,4.47,1.256,4.47,2.805c0,1.551-2.001,2.807-4.47,2.807H90.135H53.773c-2.47,0-4.471-1.256-4.471-2.807
			c0-1.549,2.001-2.805,4.471-2.805h7.64c2.469,0,4.471-1.256,4.471-2.806c0-1.55-2.002-2.806-4.471-2.806H25.051
			c-2.47,0-4.471-1.256-4.471-2.806c0-1.55,2.001-2.807,4.471-2.807h8.594H83.478z"/>
		<path id="path-2_53_" style="fill:#0CB04A;" d="M161.895,205.056c2.972,0,5.382-1.886,5.382-4.21c0-2.325-2.41-4.209-5.382-4.209
			h-16.493c-2.973,0-5.382,1.884-5.382,4.209c0,2.324,2.409,4.21,5.382,4.21H161.895z"/>
		<path id="path-3_53_" style="fill:#0CB04A;" d="M32.6,216.29c3.703,0,6.705-1.884,6.705-4.209c0-2.325-3.002-4.21-6.705-4.21
			H12.049c-3.703,0-6.706,1.885-6.706,4.21c0,2.325,3.003,4.209,6.706,4.209H32.6z"/>
		<path id="path-4_53_" style="fill:#0CB04A;" d="M67.142,117.105h9.916v51.339h-9.916c-5.701,0-10.365-6.835-10.365-15.188v-20.961
			C56.777,123.939,61.441,117.105,67.142,117.105z"/>
		<path id="path-5_53_" style="fill:#0CB04A;" d="M200.58,117.105h-9.915v51.339h9.915c5.702,0,10.367-6.835,10.367-15.188v-20.961
			C210.947,123.939,206.282,117.105,200.58,117.105z"/>
		<path id="path-6_53_" style="opacity:0.35;fill:#020403;enable-background:new    ;" d="M208.133,160.962h-6.141v-43.857h-11.327
			v51.338h9.915c3.834,0,7.161-3.124,8.954-7.689C209.071,160.848,208.612,160.962,208.133,160.962z"/>
		<path id="path-7_53_" style="opacity:0.35;fill:#020403;enable-background:new    ;" d="M59.905,160.962h6.14v-43.857h11.328
			v51.338h-9.916c-3.834,0-7.159-3.124-8.953-7.689C58.967,160.848,59.426,160.962,59.905,160.962z"/>
		<path id="path-8_53_" style="fill:#142A3B;" d="M196.113,186.899H70.873V26.741h125.24V186.899z"/>
		<path id="path-9_50_" style="opacity:0.35;fill:#020403;enable-background:new    ;" d="M168.347,115.127
			c2.979,3.72,4.777,8.406,4.777,13.497v18.015c0,11.993-9.905,21.804-22.01,21.804H108.32c-2.047,0-4.022-0.302-5.906-0.825
			c4.041,5.046,10.266,8.307,17.233,8.307h42.795c12.105,0,22.01-9.811,22.01-21.804v-18.015
			C184.452,126.14,177.605,117.701,168.347,115.127z"/>
		<path id="path-10_45_" style="fill:#FBB713;" d="M171.071,168.444H95.915c-3.206,0-5.829-2.622-5.829-5.828v-49.969
			c0-3.205,2.623-5.827,5.829-5.827h75.156c3.206,0,5.829,2.622,5.829,5.827v49.969C176.9,165.822,174.277,168.444,171.071,168.444z
			"/>
		<path id="path-11_39_" style="fill:#142A3B;" d="M163.668,152.811h-61.001v-10.037h61.001V152.811z"/>
		<path id="path-12_33_" style="fill:#142A3B;" d="M167.532,33.996H98.806l0.455-4.009C101.212,12.892,115.789,0,133.169,0
			c17.381,0,31.958,12.892,33.908,29.987L167.532,33.996z M107.267,26.787h51.805c-3.128-11.402-13.629-19.576-25.903-19.576
			S110.394,15.385,107.267,26.787z"/>
		<path id="path-13_27_" style="opacity:0.35;fill:#020403;enable-background:new    ;" d="M168.161,82.807h-9.381V53.879h9.381
			V82.807z"/>
		<path id="path-14_22_" style="opacity:0.35;fill:#020403;enable-background:new    ;" d="M115.297,82.807h-9.38V53.879h9.38
			V82.807z"/>
		<path id="path-15_20_" style="fill:#0CB04A;" d="M70.873,44.785c0,14.117,11.66,25.67,25.912,25.67h73.416
			c14.251,0,25.912-11.553,25.912-25.67V26.739H70.873V44.785z"/>
		<path id="path-16_17_" style="opacity:0.35;fill:#020403;enable-background:new    ;" d="M196.113,44.785
			c0,14.117-11.661,25.67-25.912,25.67H96.785c-5.204,0-10.054-1.554-14.125-4.195c4.639,7.011,12.629,11.675,21.677,11.675h73.416
			c7.158,0,13.658-2.915,18.36-7.604V44.785z"/>
		<path id="path-17_15_" style="fill:#FBB713;" d="M109.685,86.548h-7.018V57.619h7.018V86.548z"/>
		<path id="path-18_13_" style="fill:#FBB713;" d="M161.508,86.548h-7.017V57.619h7.017V86.548z"/>
	</g>
</g>
<g>
</g>
<g>
</g>
<g>
</g>
<g>
</g>
<g>
</g>
<g>
</g>
<g>
</g>
<g>
</g>
<g>
</g>
<g>
</g>
<g>
</g>
<g>
</g>
<g>
</g>
<g>
</g>
<g>
</g>
</svg>
