<?xml version="1.0" encoding="iso-8859-1"?>
<!-- Generator: Adobe Illustrator 19.1.0, SVG Export Plug-In . SVG Version: 6.00 Build 0)  -->
<svg version="1.1" id="Capa_1" xmlns="http://www.w3.org/2000/svg" xmlns:xlink="http://www.w3.org/1999/xlink" x="0px" y="0px"
	 viewBox="0 0 218.332 218.332" style="enable-background:new 0 0 218.332 218.332;" xml:space="preserve">
<g>
	<g id="group-137svg">
		<path id="path-1_42_" style="fill:#FBB713;" d="M25.61,100.439c0,52.406,42.886,94.892,95.793,94.892
			c52.904,0,95.791-42.486,95.791-94.892c0-52.417-42.887-94.899-95.791-94.899C68.496,5.54,25.61,48.022,25.61,100.439
			L25.61,100.439z"/>
		<path id="path-2_42_" style="fill:#FF3A2F;" d="M118.064,46.662c0,0,89.684,36.242,95.767,78.797c0,0-12.395,57.069-76.996,68.648
			c0,0-29.38-46.006-34.086-135.549C102.749,58.558,106.533,45.609,118.064,46.662L118.064,46.662z"/>
		<path id="path-3_42_" style="fill:#142A3B;" d="M85.104,55.293c0,0-55.995,36.842-48.769,88.806c0,0-16.979-24.082-8.234-67.761
			c0,0,7.491-41.934,49.027-36.902C77.128,39.436,89.649,42.54,85.104,55.293L85.104,55.293z"/>
		<path id="path-4_42_" style="fill:#0CB04A;" d="M99.562,26.251c0,0,0.383-25.323,38.391-19.674c0,0,22.43,3.859,43.718,19.674
			c0,0-53.977-11.297-66.522,7.72C115.149,33.971,99.945,40.56,99.562,26.251L99.562,26.251z"/>
		<path id="path-5_42_" style="fill:#FFFFFF;" d="M80.238,52.559c5.065,8.144,17.141,9.882,26.972,3.881
			c9.836-6.004,13.699-17.47,8.628-25.614c-5.062-8.147-17.137-9.884-26.97-3.884C79.036,32.946,75.17,44.415,80.238,52.559
			L80.238,52.559z"/>
		<path id="path-6_42_" style="opacity:0.25;fill:#010101;enable-background:new    ;" d="M164.165,15.522
			c17.675,17.216,28.646,41.164,28.646,67.663c0,52.405-42.887,94.892-95.791,94.892c-15.373,0-29.887-3.606-42.762-9.982
			c17.286,16.838,40.986,27.236,67.145,27.236c52.904,0,95.791-42.486,95.791-94.892C217.194,63.252,195.598,31.087,164.165,15.522z
			"/>
		<path id="path-7_42_" style="fill:#2476FF;" d="M161.015,187.908h16.603c3.201,0,5.796,1.858,5.796,4.148
			c0,2.29-2.595,4.147-5.796,4.147h-0.773c-3.201,0-5.797,1.857-5.797,4.147c0,2.291,2.596,4.147,5.797,4.147h35.691
			c3.201,0,5.796,1.857,5.796,4.148c0,2.29-2.595,4.147-5.796,4.147h-42.892H92.512c-3.201,0-5.796-1.857-5.796-4.147
			c0-2.291,2.595-4.148,5.796-4.148h9.906c3.201,0,5.795-1.856,5.795-4.147c0-2.29-2.594-4.147-5.795-4.147H55.276
			c-3.202,0-5.796-1.857-5.796-4.147c0-2.29,2.594-4.148,5.796-4.148h41.132H161.015z"/>
		<path id="path-8_42_" style="fill:#2476FF;" d="M37.375,151.697h5.563c1.073,0,1.942,0.731,1.942,1.633
			c0,0.902-0.869,1.632-1.942,1.632h-0.259c-1.072,0-1.942,0.733-1.942,1.634c0,0.902,0.87,1.633,1.942,1.633h11.96
			c1.072,0,1.943,0.731,1.943,1.634c0,0.901-0.871,1.632-1.943,1.632H40.267H14.42c-1.073,0-1.942-0.731-1.942-1.632
			c0-0.903,0.869-1.634,1.942-1.634h3.319c1.072,0,1.942-0.731,1.942-1.633c0-0.901-0.87-1.634-1.942-1.634H1.942
			c-1.073,0-1.942-0.73-1.942-1.632c0-0.902,0.869-1.633,1.942-1.633h13.783H37.375z"/>
		<path id="path-9_39_" style="fill:#2476FF;" d="M29.472,194.836c3.059,0,5.54-1.557,5.54-3.476c0-1.921-2.481-3.477-5.54-3.477
			H12.496c-3.06,0-5.539,1.556-5.539,3.477c0,1.919,2.479,3.476,5.539,3.476H29.472z"/>
	</g>
</g>
<g>
</g>
<g>
</g>
<g>
</g>
<g>
</g>
<g>
</g>
<g>
</g>
<g>
</g>
<g>
</g>
<g>
</g>
<g>
</g>
<g>
</g>
<g>
</g>
<g>
</g>
<g>
</g>
<g>
</g>
</svg>
