<?xml version="1.0" encoding="iso-8859-1"?>
<!-- Generator: Adobe Illustrator 19.1.0, SVG Export Plug-In . SVG Version: 6.00 Build 0)  -->
<svg version="1.1" id="Capa_1" xmlns="http://www.w3.org/2000/svg" xmlns:xlink="http://www.w3.org/1999/xlink" x="0px" y="0px"
	 viewBox="0 0 218.333 218.333" style="enable-background:new 0 0 218.333 218.333;" xml:space="preserve">
<g>
	<g id="group-134svg">
		<path id="path-1_39_" style="fill:#142A3B;" d="M99.409,203.225c-0.284,0-0.558-0.007-0.822-0.019
			c-2.007-0.099-3.553-1.788-3.456-3.778c0.098-1.982,1.851-3.462,3.79-3.424c1.376,0.049,13.459,0.067,15.587-14.406
			c0.288-1.97,2.108-3.336,4.122-3.048c1.99,0.286,3.369,2.117,3.077,4.086C119.302,199.02,106.523,203.225,99.409,203.225z"/>
		<path id="path-2_39_" style="fill:#0CB04A;" d="M109.511,179.625h8.598h6.401v-20.999h-6.536h-8.463V179.625z"/>
		<path id="path-3_39_" style="opacity:0.25;fill:#020403;enable-background:new    ;" d="M117.008,161.783h-6.779v3.422
			l6.914,3.421v11.802h7.642v-18.645H117.008z"/>
		<path id="path-4_39_" style="fill:#0CB04A;" d="M178.983,88.907c0-40.758-27.314-73.799-61.009-73.799
			c-33.694,0-61.01,33.041-61.01,73.799s27.316,73.798,61.01,73.798C151.669,162.705,178.983,129.665,178.983,88.907z"/>
		<path id="path-5_39_" style="fill:#FFFFFF;" d="M70.955,84.992c-3.013,0-5.458-2.42-5.458-5.408
			c0-29.62,20.366-53.718,45.396-53.718c3.014,0,5.459,2.42,5.459,5.407s-2.445,5.407-5.459,5.407
			c-19.011,0-34.479,19.247-34.479,42.904C76.414,82.572,73.969,84.992,70.955,84.992z"/>
		<path id="path-6_39_" style="opacity:0.25;fill:#010101;enable-background:new    ;" d="M135.72,18.499
			c11.718,13.446,19.063,32.414,19.063,53.496c0,40.758-27.314,73.798-61.01,73.798c-6.176,0-12.128-1.131-17.745-3.195
			c10.937,12.554,25.679,20.304,41.946,20.304c33.695,0,61.01-33.041,61.01-73.8C178.984,55.814,160.756,27.694,135.72,18.499z"/>
		<path id="path-7_39_" style="fill:#FBB713;" d="M77.421,97.521h15.762c3.039,0,5.503,1.309,5.503,2.922
			c0,1.614-2.464,2.922-5.503,2.922H92.45c-3.04,0-5.503,1.308-5.503,2.921c0,1.614,2.463,2.921,5.503,2.921h33.885
			c3.039,0,5.503,1.308,5.503,2.92c0,1.615-2.464,2.922-5.503,2.922H85.614H40.856c-3.039,0-5.503-1.307-5.503-2.922
			c0-1.612,2.464-2.92,5.503-2.92h9.404c3.039,0,5.504-1.307,5.504-2.921c0-1.613-2.465-2.921-5.504-2.921H5.503
			c-3.039,0-5.503-1.308-5.503-2.922c0-1.613,2.464-2.922,5.503-2.922h10.579H77.421z"/>
		<path id="path-8_39_" style="fill:#FBB713;" d="M185.354,100.469c3.47,0,6.283-1.493,6.283-3.335s-2.813-3.336-6.283-3.336
			h-19.255c-3.47,0-6.283,1.494-6.283,3.336s2.813,3.335,6.283,3.335H185.354z"/>
		<path id="path-9_36_" style="fill:#FBB713;" d="M193.346,43.908h7.238c1.395,0,2.527,0.741,2.527,1.657
			c0,0.916-1.132,1.657-2.527,1.657h-0.337c-1.396,0-2.528,0.743-2.528,1.658c0,0.913,1.132,1.656,2.528,1.656h15.558
			c1.397,0,2.528,0.742,2.528,1.657c0,0.916-1.131,1.657-2.528,1.657h-18.698h-38.219c-1.396,0-2.526-0.741-2.526-1.657
			c0-0.915,1.13-1.657,2.526-1.657h4.317c1.396,0,2.528-0.743,2.528-1.656c0-0.915-1.132-1.658-2.528-1.658h-20.551
			c-1.395,0-2.526-0.741-2.526-1.657c0-0.916,1.131-1.657,2.526-1.657h4.858H193.346z"/>
		<path id="path-10_34_" style="fill:#FBB713;" d="M138.452,55.643c2.604,0,4.715-0.614,4.715-1.37c0-0.759-2.111-1.373-4.715-1.373
			h-14.446c-2.603,0-4.715,0.614-4.715,1.373c0,0.756,2.112,1.37,4.715,1.37H138.452z"/>
	</g>
</g>
<g>
</g>
<g>
</g>
<g>
</g>
<g>
</g>
<g>
</g>
<g>
</g>
<g>
</g>
<g>
</g>
<g>
</g>
<g>
</g>
<g>
</g>
<g>
</g>
<g>
</g>
<g>
</g>
<g>
</g>
</svg>
