<?xml version="1.0" encoding="iso-8859-1"?>
<!-- Generator: Adobe Illustrator 19.1.0, SVG Export Plug-In . SVG Version: 6.00 Build 0)  -->
<svg version="1.1" id="Capa_1" xmlns="http://www.w3.org/2000/svg" xmlns:xlink="http://www.w3.org/1999/xlink" x="0px" y="0px"
	 viewBox="0 0 217.228 217.228" style="enable-background:new 0 0 217.228 217.228;" xml:space="preserve">
<g>
	<g id="group-17svg">
		<path id="path-1_69_" style="fill:#FF3A2F;" d="M162.394,169.551h11.864c2.287,0,4.141-1.521,4.141-3.395
			s-1.854-3.394-4.141-3.394h-0.552c-2.288,0-4.142-1.519-4.142-3.394c0-1.874,1.854-3.392,4.142-3.392h25.502
			c2.288,0,4.142-1.521,4.142-3.396c0-1.874-1.854-3.394-4.142-3.394h-30.647h-62.644c-2.288,0-4.142,1.52-4.142,3.394
			c0,1.875,1.854,3.396,4.142,3.396h7.077c2.288,0,4.143,1.518,4.143,3.392c0,1.875-1.855,3.394-4.143,3.394H79.309
			c-2.287,0-4.141,1.52-4.141,3.394s1.854,3.395,4.141,3.395h7.962H162.394z"/>
		<path id="path-2_69_" style="fill:#FF3A2F;" d="M94.417,129.982h6.27c1.209,0,2.189-0.747,2.189-1.668
			c0-0.92-0.98-1.666-2.189-1.666h-0.292c-1.209,0-2.189-0.746-2.189-1.667c0-0.92,0.98-1.666,2.189-1.666h13.478
			c1.21,0,2.189-0.746,2.189-1.666c0-0.921-0.979-1.667-2.189-1.667H97.675H64.567c-1.209,0-2.189,0.746-2.189,1.667
			c0,0.92,0.98,1.666,2.189,1.666h3.741c1.209,0,2.189,0.746,2.189,1.666c0,0.921-0.98,1.667-2.189,1.667H50.505
			c-1.209,0-2.189,0.746-2.189,1.666c0,0.921,0.98,1.668,2.189,1.668h4.208H94.417z"/>
		<path id="path-3_69_" style="fill:#FF3A2F;" d="M84.69,148.951c2.576,0,4.664,1.675,4.664,3.741c0,2.065-2.088,3.741-4.664,3.741
			H70.398c-2.576,0-4.664-1.676-4.664-3.741c0-2.066,2.088-3.741,4.664-3.741H84.69z"/>
		<path id="path-4_69_" style="fill:#FF3A2F;" d="M212.375,163.846c2.681,0,4.853,1.743,4.853,3.892s-2.172,3.892-4.853,3.892
			h-14.869c-2.68,0-4.852-1.743-4.852-3.892s2.172-3.892,4.852-3.892H212.375z"/>
		<path id="path-5_68_" style="fill:#142A3B;" d="M152.218,163.029h-9.104V93.84h9.104V163.029z"/>
		<path id="path-6_65_" style="fill:#142A3B;" d="M42.287,163.029h-9.104V93.84h9.104V163.029z"/>
		<path id="path-7_64_" style="opacity:0.35;fill:#090908;enable-background:new    ;" d="M143.114,110.509h9.104V99.672h-9.104
			V110.509z"/>
		<path id="path-8_49_" style="opacity:0.35;fill:#090908;enable-background:new    ;" d="M33.183,110.509h9.104V99.672h-9.104
			V110.509z"/>
		<path id="path-9_42_" style="fill:#FBB713;" d="M179.256,99.672H0V45.599h179.256V99.672z"/>
		<path id="path-10_38_" style="opacity:0.25;fill:#090908;enable-background:new    ;" d="M159.7,45.599V65.37
			c0,11.743-9.52,21.264-21.264,21.264H0v13.036h179.256V45.599H159.7z"/>
		<path id="path-11_31_" style="fill:#142A3B;" d="M166.329,163.029h-37.327v-5.463h37.327V163.029z"/>
		<path id="path-12_27_" style="fill:#142A3B;" d="M57.081,163.029H19.754v-5.463h37.327V163.029z"/>
		<path id="path-13_22_" style="fill:#142A3B;" d="M0,94.38v5.292h13.199l50.84-54.073H45.865L0,94.38z"/>
		<path id="path-14_19_" style="fill:#142A3B;" d="M47.993,99.672h19.331l49.778-54.073h-15.035L47.993,99.672z"/>
		<path id="path-15_18_" style="fill:#142A3B;" d="M106.865,99.672h19.331l49.778-54.073H160.94L106.865,99.672z"/>
	</g>
</g>
<g>
</g>
<g>
</g>
<g>
</g>
<g>
</g>
<g>
</g>
<g>
</g>
<g>
</g>
<g>
</g>
<g>
</g>
<g>
</g>
<g>
</g>
<g>
</g>
<g>
</g>
<g>
</g>
<g>
</g>
</svg>
