<?xml version="1.0" encoding="iso-8859-1"?>
<!-- Generator: Adobe Illustrator 19.1.0, SVG Export Plug-In . SVG Version: 6.00 Build 0)  -->
<svg version="1.1" id="Capa_1" xmlns="http://www.w3.org/2000/svg" xmlns:xlink="http://www.w3.org/1999/xlink" x="0px" y="0px"
	 viewBox="0 0 217.228 217.228" style="enable-background:new 0 0 217.228 217.228;" xml:space="preserve">
<g>
	<g id="group-54svg">
		<path id="path-1_110_" style="fill:#0CB04A;" d="M95.709,142.341H77.986c-3.417,0-6.187,1.545-6.187,3.45s2.77,3.448,6.187,3.448
			h0.825c3.417,0,6.188,1.545,6.188,3.45s-2.771,3.45-6.188,3.45h-38.1c-3.418,0-6.188,1.543-6.188,3.448
			c0,1.906,2.77,3.449,6.188,3.449h45.786h93.588c3.417,0,6.187-1.543,6.187-3.449c0-1.905-2.77-3.448-6.187-3.448H169.51
			c-3.417,0-6.187-1.545-6.187-3.45s2.77-3.45,6.187-3.45h41.531c3.417,0,6.187-1.543,6.187-3.448s-2.77-3.45-6.187-3.45h-3.1
			H95.709z"/>
		<path id="path-2_110_" style="fill:#0CB04A;" d="M4.522,167.16c-2.498,0-4.522-1.482-4.522-3.309c0-1.829,2.024-3.31,4.522-3.31
			h13.855c2.498,0,4.522,1.481,4.522,3.31c0,1.827-2.024,3.309-4.522,3.309H4.522z"/>
		<path id="path-3_110_" style="fill:#142A3B;" d="M199.527,76.089h-12.806v43.371h12.806c7.08,0,12.807-1.939,12.807-4.336V80.426
			C212.334,78.029,206.607,76.089,199.527,76.089z"/>
		<path id="path-4_110_" style="fill:#FF3A2F;" d="M194.984,119.46V76.089v-7.86c0-10.014-8.148-18.161-18.161-18.161H30.984
			c-10.013,0-18.163,8.147-18.163,18.161v59.092c0,10.013,8.15,18.162,18.163,18.162h145.839c10.013,0,18.161-8.149,18.161-18.162
			V119.46z"/>
		<path id="path-5_109_" style="opacity:0.35;enable-background:new    ;" d="M180.067,50.395c1.848,2.843,2.947,6.218,2.947,9.854
			v7.861v43.369v7.861c0,10.012-8.149,18.163-18.162,18.163H19.014c-1.112,0-2.189-0.136-3.245-0.328
			c3.242,4.987,8.838,8.308,15.215,8.308h145.839c10.013,0,18.161-8.15,18.161-18.162v-7.861V76.09v-7.861
			C194.984,59.327,188.532,51.935,180.067,50.395z"/>
		<path id="path-6_106_" style="fill:#142A3B;" d="M64.868,123.797c0,2.398-1.94,4.337-4.337,4.337H43.182
			c-2.397,0-4.337-1.939-4.337-4.337V71.753c0-2.398,1.94-4.338,4.337-4.338h17.349c2.397,0,4.337,1.94,4.337,4.338V123.797z"/>
		<path id="path-7_103_" style="fill:#142A3B;" d="M99.566,123.797c0,2.398-1.939,4.337-4.338,4.337H77.88
			c-2.397,0-4.338-1.939-4.338-4.337V71.753c0-2.398,1.941-4.338,4.338-4.338h17.348c2.399,0,4.338,1.94,4.338,4.338V123.797z"/>
	</g>
</g>
<g>
</g>
<g>
</g>
<g>
</g>
<g>
</g>
<g>
</g>
<g>
</g>
<g>
</g>
<g>
</g>
<g>
</g>
<g>
</g>
<g>
</g>
<g>
</g>
<g>
</g>
<g>
</g>
<g>
</g>
</svg>
