<?xml version="1.0" encoding="iso-8859-1"?>
<!-- Generator: Adobe Illustrator 19.1.0, SVG Export Plug-In . SVG Version: 6.00 Build 0)  -->
<svg version="1.1" id="Capa_1" xmlns="http://www.w3.org/2000/svg" xmlns:xlink="http://www.w3.org/1999/xlink" x="0px" y="0px"
	 viewBox="0 0 218.333 218.333" style="enable-background:new 0 0 218.333 218.333;" xml:space="preserve">
<g>
	<g id="group-29svg">
		<path id="path-1_90_" style="fill:#2476FF;" d="M99.424,30.513h10.775c2.078,0,3.761,0.78,3.761,1.743
			c0,0.963-1.683,1.743-3.761,1.743h-0.502c-2.077,0-3.761,0.78-3.761,1.742c0,0.962,1.684,1.744,3.761,1.744h23.162
			c2.077,0,3.761,0.78,3.761,1.742c0,0.963-1.684,1.743-3.761,1.743h-27.835H74.432c-2.078,0-3.762-0.78-3.762-1.743
			c0-0.962,1.684-1.742,3.762-1.742h6.428c2.077,0,3.761-0.782,3.761-1.744c0-0.962-1.684-1.742-3.761-1.742H50.267
			c-2.078,0-3.762-0.78-3.762-1.743c0-0.963,1.684-1.743,3.762-1.743h7.23H99.424z"/>
		<path id="path-2_90_" style="fill:#2476FF;" d="M201.048,68.377h5.006c0.966,0,1.748,0.78,1.748,1.743
			c0,0.962-0.782,1.742-1.748,1.742h-0.233c-0.965,0-1.748,0.781-1.748,1.743c0,0.963,0.783,1.744,1.748,1.744h10.764
			c0.965,0,1.748,0.779,1.748,1.742c0,0.962-0.783,1.743-1.748,1.743H203.65h-14.217c-0.965,0-1.748-0.781-1.748-1.743
			c0-0.963,0.783-1.742,1.748-1.742h2.988c0.964,0,1.747-0.781,1.747-1.744c0-0.962-0.783-1.743-1.747-1.743h-14.218
			c-0.965,0-1.747-0.78-1.747-1.742c0-0.963,0.782-1.743,1.747-1.743h3.36H201.048z"/>
		<path id="path-3_90_" style="fill:#2476FF;" d="M185.925,29.635h3.08c0.593,0,1.074,0.48,1.074,1.071
			c0,0.593-0.481,1.073-1.074,1.073h-0.144c-0.594,0-1.075,0.48-1.075,1.071c0,0.593,0.481,1.073,1.075,1.073h6.621
			c0.594,0,1.075,0.48,1.075,1.072s-0.481,1.072-1.075,1.072h-7.957h-8.745c-0.594,0-1.075-0.48-1.075-1.072
			s0.481-1.072,1.075-1.072h1.838c0.593,0,1.075-0.48,1.075-1.073c0-0.591-0.482-1.071-1.075-1.071h-8.746
			c-0.593,0-1.074-0.48-1.074-1.073c0-0.591,0.481-1.071,1.074-1.071h2.067H185.925z"/>
		<path id="path-4_89_" style="fill:#020403;" d="M155.404,61.814c-5.244-1.391-10.508-1.952-15.674-1.83
			c25.943,9.481,40.987,36.715,34.727,63.714l20.153,5.345C202.529,99.755,184.975,69.656,155.404,61.814z"/>
		<path id="path-5_89_" style="fill:#142A3B;" d="M116.042,193.355l9.142,2.424l21.446-79.32l-9.142-2.423L116.042,193.355z"/>
		<path id="path-6_88_" style="fill:#FF3A2F;" d="M155.404,61.814c29.571,7.842,47.125,37.941,39.206,67.229l-107.09-28.4
			C95.439,71.355,125.831,53.972,155.404,61.814z"/>
		<path id="path-7_88_" style="fill:#FFFFFF;" d="M103.85,100.265c-0.311,0-0.627-0.039-0.944-0.123
			c-1.94-0.515-3.093-2.491-2.572-4.415c5.419-20.047,26.291-31.988,46.541-26.62c1.941,0.513,3.093,2.491,2.573,4.413
			c-0.521,1.922-2.511,3.067-4.456,2.551c-16.359-4.338-33.246,5.315-37.63,21.521C106.928,99.203,105.458,100.265,103.85,100.265z"
			/>
		<path id="path-8_85_" style="fill:#FBB713;" d="M15.386,199.125c17.08-7.111,39.098-11.394,63.131-11.394
			c36.377,0,68.138,9.811,85.141,24.395L15.386,199.125z"/>
		<path id="path-9_81_" style="fill:#FBB713;" d="M37.19,28.929c-2.01,0-3.639-1.614-3.639-3.604V9.812
			c0-1.991,1.629-3.605,3.639-3.605c2.009,0,3.639,1.614,3.639,3.605v15.513C40.829,27.315,39.199,28.929,37.19,28.929z"/>
		<path id="path-10_74_" style="fill:#FBB713;" d="M37.19,79.872c-2.01,0-3.639-1.614-3.639-3.604V60.754
			c0-1.99,1.629-3.604,3.639-3.604c2.009,0,3.639,1.614,3.639,3.604v15.514C40.829,78.258,39.199,79.872,37.19,79.872z"/>
		<path id="path-11_65_" style="fill:#FBB713;" d="M70.741,46.645H55.079c-2.01,0-3.639-1.615-3.639-3.606
			c0-1.99,1.629-3.604,3.639-3.604h15.662c2.01,0,3.639,1.614,3.639,3.604C74.38,45.03,72.751,46.645,70.741,46.645z"/>
		<path id="path-12_55_" style="fill:#FBB713;" d="M19.303,46.645H3.639C1.629,46.645,0,45.03,0,43.039
			c0-1.99,1.629-3.604,3.639-3.604h15.664c2.01,0,3.639,1.614,3.639,3.604C22.942,45.03,21.313,46.645,19.303,46.645z"/>
		<path id="path-13_44_" style="fill:#FBB713;" d="M60.916,70.141c-0.932,0-1.862-0.352-2.573-1.056l-11.077-10.97
			c-1.421-1.407-1.421-3.689,0-5.098c1.419-1.407,3.724-1.407,5.146-0.001l11.076,10.969c1.422,1.408,1.422,3.691,0,5.1
			C62.779,69.788,61.847,70.141,60.916,70.141z"/>
		<path id="path-14_37_" style="fill:#FBB713;" d="M24.543,34.118c-0.931,0-1.862-0.351-2.573-1.056L10.894,22.094
			c-1.422-1.408-1.422-3.691,0-5.099c1.418-1.408,3.723-1.408,5.145-0.001l11.077,10.969c1.421,1.409,1.421,3.691,0,5.099
			C26.407,33.766,25.474,34.118,24.543,34.118z"/>
		<path id="path-15_31_" style="fill:#FBB713;" d="M49.839,34.118c-0.931,0-1.862-0.352-2.573-1.056
			c-1.421-1.408-1.421-3.69,0-5.099l11.077-10.969c1.421-1.407,3.724-1.407,5.145,0.001c1.422,1.408,1.422,3.691,0,5.099
			L52.412,33.062C51.701,33.766,50.77,34.118,49.839,34.118z"/>
		<path id="path-16_26_" style="fill:#FBB713;" d="M13.466,70.141c-0.93,0-1.862-0.353-2.572-1.056c-1.422-1.409-1.422-3.692,0-5.1
			L21.97,53.016c1.422-1.406,3.725-1.406,5.146,0.001c1.421,1.409,1.421,3.691,0,5.098l-11.077,10.97
			C15.329,69.788,14.397,70.141,13.466,70.141z"/>
		<path id="path-17_23_" style="fill:#FBB713;" d="M54.633,44.018c0,9.54-7.809,17.274-17.443,17.274
			c-9.632,0-17.441-7.734-17.441-17.274c0-9.541,7.809-17.275,17.441-17.275C46.824,26.743,54.633,34.477,54.633,44.018z"/>
	</g>
</g>
<g>
</g>
<g>
</g>
<g>
</g>
<g>
</g>
<g>
</g>
<g>
</g>
<g>
</g>
<g>
</g>
<g>
</g>
<g>
</g>
<g>
</g>
<g>
</g>
<g>
</g>
<g>
</g>
<g>
</g>
</svg>
