<?xml version="1.0" encoding="iso-8859-1"?>
<!-- Generator: Adobe Illustrator 19.1.0, SVG Export Plug-In . SVG Version: 6.00 Build 0)  -->
<svg version="1.1" id="Capa_1" xmlns="http://www.w3.org/2000/svg" xmlns:xlink="http://www.w3.org/1999/xlink" x="0px" y="0px"
	 viewBox="0 0 225.61 225.61" style="enable-background:new 0 0 225.61 225.61;" xml:space="preserve">
<g>
	<g id="group-86svg">
		<path id="path-1_153_" style="fill:#FBB713;" d="M182.865,139.233h12.382c2.387,0,4.322,1.214,4.322,2.713
			c0,1.499-1.935,2.713-4.322,2.713h-0.577c-2.387,0-4.322,1.215-4.322,2.714c0,1.498,1.935,2.712,4.322,2.712h26.617
			c2.388,0,4.323,1.215,4.323,2.714c0,1.498-1.935,2.712-4.323,2.712h-31.986h-35.157c-2.387,0-4.322-1.214-4.322-2.712
			c0-1.499,1.935-2.714,4.322-2.714h7.387c2.388,0,4.322-1.214,4.322-2.712c0-1.499-1.934-2.714-4.322-2.714h-35.156
			c-2.387,0-4.323-1.214-4.323-2.713c0-1.499,1.936-2.713,4.323-2.713h8.309H182.865z"/>
		<path id="path-2_153_" style="fill:#FBB713;" d="M206.315,118.093c3.582,0,6.484-1.823,6.484-4.07c0-2.248-2.902-4.07-6.484-4.07
			h-19.869c-3.581,0-6.484,1.822-6.484,4.07c0,2.247,2.903,4.07,6.484,4.07H206.315z"/>
		<path id="path-3_153_" style="fill:#FBB713;" d="M25.54,84.241h5.2c1.003,0,1.815,0.81,1.815,1.81s-0.812,1.811-1.815,1.811
			h-0.242c-1.003,0-1.815,0.811-1.815,1.81c0,1,0.812,1.811,1.815,1.811h11.179c1.003,0,1.816,0.811,1.816,1.811
			c0,1.001-0.813,1.811-1.816,1.811H28.243H13.478c-1.003,0-1.815-0.81-1.815-1.811c0-1,0.812-1.811,1.815-1.811h3.102
			c1.003,0,1.816-0.811,1.816-1.811c0-0.999-0.813-1.81-1.816-1.81H1.815C0.812,87.861,0,87.05,0,86.05s0.812-1.81,1.815-1.81h3.49
			H25.54z"/>
		<path id="path-4_152_" style="fill:#FBB713;" d="M164.771,70.099h3.372c0.65,0,1.177,0.438,1.177,0.979
			c0,0.54-0.527,0.98-1.177,0.98h-0.157c-0.65,0-1.178,0.438-1.178,0.979s0.528,0.98,1.178,0.98h7.249
			c0.65,0,1.176,0.439,1.176,0.98s-0.526,0.979-1.176,0.979h-8.712h-9.574c-0.651,0-1.178-0.438-1.178-0.979s0.527-0.98,1.178-0.98
			h2.011c0.65,0,1.178-0.439,1.178-0.98s-0.528-0.979-1.178-0.979h-9.575c-0.649,0-1.177-0.44-1.177-0.98
			c0-0.541,0.528-0.979,1.177-0.979h2.264H164.771z"/>
		<path id="path-5_152_" style="fill:#FF3A2F;" d="M217.268,99.569c-5.218-3.906-12.646-2.886-16.594,2.284l-45.407,59.479H25.356
			c-6.545,0-11.846,5.259-11.846,11.734c0,6.476,5.301,11.742,11.846,11.742h14.999v13.287h14.213v-13.287h90.02v13.287h14.213
			v-13.287h8.263l52.503-68.814C223.523,110.824,222.487,103.473,217.268,99.569z"/>
		<path id="path-6_150_" style="fill:#142A3B;" d="M189.995,102.294L96.82,27.516L3.639,102.294h79.314v59.774h27.735v-59.774
			H189.995z"/>
		<path id="path-7_150_" style="opacity:0.35;fill:#020403;enable-background:new    ;" d="M96.82,27.515L81.495,39.814
			l77.852,62.479h30.649L96.82,27.515z"/>
		<path id="path-8_147_" style="opacity:0.35;fill:#020403;enable-background:new    ;" d="M110.688,122.438l-27.735-9.345v-10.8
			h27.735V122.438z"/>
		<path id="path-9_141_" style="fill:#FFFFFF;" d="M38.133,90.958c-1.084,0-2.157-0.479-2.875-1.393
			c-1.233-1.572-0.946-3.836,0.64-5.058l37.362-28.78c1.583-1.222,3.87-0.941,5.106,0.634c1.234,1.572,0.948,3.836-0.639,5.058
			L40.364,90.2C39.7,90.711,38.914,90.958,38.133,90.958z"/>
	</g>
</g>
<g>
</g>
<g>
</g>
<g>
</g>
<g>
</g>
<g>
</g>
<g>
</g>
<g>
</g>
<g>
</g>
<g>
</g>
<g>
</g>
<g>
</g>
<g>
</g>
<g>
</g>
<g>
</g>
<g>
</g>
</svg>
