<?xml version="1.0" encoding="iso-8859-1"?>
<!-- Generator: Adobe Illustrator 19.1.0, SVG Export Plug-In . SVG Version: 6.00 Build 0)  -->
<svg version="1.1" id="Capa_1" xmlns="http://www.w3.org/2000/svg" xmlns:xlink="http://www.w3.org/1999/xlink" x="0px" y="0px"
	 viewBox="0 0 218.332 218.332" style="enable-background:new 0 0 218.332 218.332;" xml:space="preserve">
<g>
	<g id="group-47svg">
		<path id="path-1_110_" style="fill:#0CB04A;" d="M210.971,78.211c0,4.914-4.021,8.898-8.981,8.898
			c-4.961,0-8.982-3.984-8.982-8.898c0-4.914,4.021-8.898,8.982-8.898C206.95,69.313,210.971,73.297,210.971,78.211z"/>
		<path id="path-2_110_" style="fill:#0CB04A;" d="M67.335,22.463c0,4.914-4.021,8.898-8.982,8.898s-8.982-3.984-8.982-8.898
			s4.021-8.898,8.982-8.898S67.335,17.549,67.335,22.463z"/>
		<path id="path-3_110_" style="fill:#0CB04A;" d="M159.89,158.069h19.956v-50.322H159.89h-7.445v11.994h16.704v27.557h-16.704
			v10.771H159.89z"/>
		<path id="path-4_109_" style="fill:#0CB04A;" d="M154.447,84.384v88.525c0,9.269-6.277,17.51-15.633,17.51H79.518
			c-9.357,0-15.78-8.241-15.78-17.51V84.384H154.447z"/>
		<path id="path-5_109_" style="opacity:0.25;fill:#020403;enable-background:new    ;" d="M154.447,84.384h-18.141v8.292
			c-1.665-1.17-3.201-2.506-4.551-4.016c-4.841,5.413-11.89,8.845-19.766,8.845c-9.588,0-17.956-5.076-22.588-12.647
			c-4.63,7.571-13,12.647-22.589,12.647c-1.041,0-2.063-0.077-3.074-0.193v14.534c9.353-0.194,17.494-5.188,22.034-12.61
			c4.632,7.57,13.001,12.647,22.59,12.647c7.874,0,14.924-3.432,19.764-8.845c2.282,2.549,5.064,4.638,8.18,6.156v63.715
			c0,9.268-6.277,17.51-15.633,17.51h18.141c9.356,0,15.633-8.242,15.633-17.51v-61.871V97.31V84.384z"/>
		<path id="path-6_108_" style="fill:#FF3A2F;" d="M151.52,48.747c-7.875,0-17.821,5.082-18.292,4.627
			c5.796-2.948,6.945-6.119,6.945-13.018c0-9.822-8.037-17.785-17.952-17.785c-9.915,0-17.953,7.963-17.953,17.785
			c0,1.174-8.163-3.798-14.082-3.798c-8.211,0-15.12,5.467-17.257,12.923c-1.966-0.463-4.007-0.734-6.117-0.734
			c-14.594,0-26.423,11.72-26.423,26.177c0,14.456,11.829,26.176,26.423,26.176c9.589,0,17.959-5.076,22.589-12.647
			c4.632,7.571,13,12.647,22.588,12.647c7.876,0,14.925-3.432,19.766-8.846c4.841,5.414,11.89,8.846,19.765,8.846
			c14.593,0,26.423-11.72,26.423-26.176C177.943,60.467,166.113,48.747,151.52,48.747z"/>
		<path id="path-7_108_" style="fill:#FFFFFF;" d="M50.048,83.737c-0.132,0-0.267-0.007-0.401-0.022c-2.001-0.219-3.44-2-3.22-3.98
			c0.927-8.311,5.386-15.902,12.231-20.828c1.635-1.173,3.902-0.811,5.086,0.798c1.179,1.611,0.817,3.865-0.807,5.035
			c-5.192,3.736-8.576,9.49-9.275,15.788C53.456,82.371,51.878,83.737,50.048,83.737z"/>
		<path id="path-8_105_" style="fill:#FFFFFF;" d="M80.192,53.568c-0.838,0-1.68-0.284-2.366-0.865
			c-1.528-1.296-1.706-3.571-0.398-5.083c4.105-4.753,10.078-7.478,16.386-7.478c2.012,0,3.638,1.613,3.638,3.605
			c0,1.99-1.626,3.604-3.638,3.604c-4.179,0-8.134,1.807-10.857,4.956C82.236,53.14,81.216,53.568,80.192,53.568z"/>
		<path id="path-9_100_" style="opacity:0.25;fill:#020403;enable-background:new    ;" d="M82.144,84.858
			c-4.63,7.571-13.001,12.647-22.589,12.647c-2.784,0-5.465-0.432-7.985-1.223c4.31,3.023,9.559,4.817,15.242,4.817
			c8.417,0,15.892-3.914,20.726-9.992C85.438,89.308,83.591,87.224,82.144,84.858z"/>
		<path id="path-10_92_" style="opacity:0.25;fill:#020403;enable-background:new    ;" d="M132.916,36.762
			c0,6.898-1.149,10.069-6.945,13.018c0.384,0.37,7.058-2.932,13.775-4.169c0.3-1.491,0.427-3.191,0.427-5.255
			c0-8.427-5.933-15.447-13.876-17.283C130.306,26.335,132.916,31.222,132.916,36.762z"/>
		<path id="path-11_80_" style="opacity:0.25;fill:#020403;enable-background:new    ;" d="M124.499,88.66
			c-4.842,5.413-11.891,8.845-19.766,8.845c-2.799,0-5.474-0.478-8.002-1.279c4.309,3.048,9.557,4.873,15.258,4.873
			c7.195,0,13.68-2.885,18.442-7.508C128.22,92.235,126.216,90.579,124.499,88.66z"/>
		<path id="path-12_68_" style="opacity:0.25;fill:#020403;enable-background:new    ;" d="M159.505,49.971
			c6.758,4.741,11.181,12.532,11.181,21.358c0,14.457-11.829,26.176-26.422,26.176c-2.781,0-5.451-0.447-7.965-1.241
			c4.302,3.03,9.539,4.835,15.221,4.835c14.593,0,26.424-11.719,26.424-26.175C177.944,63.224,170.194,53.325,159.505,49.971z"/>
		<path id="path-13_56_" style="opacity:0.35;fill:#020403;enable-background:new    ;" d="M96.394,177.849
			c-2.012,0-3.64-1.614-3.64-3.604v-57.512c0-1.991,1.628-3.605,3.64-3.605s3.638,1.614,3.638,3.605v57.512
			C100.032,176.235,98.406,177.849,96.394,177.849z"/>
		<path id="path-14_45_" style="opacity:0.35;fill:#020403;enable-background:new    ;" d="M121.791,177.849
			c-2.012,0-3.639-1.614-3.639-3.604v-57.512c0-1.991,1.627-3.605,3.639-3.605c2.011,0,3.638,1.614,3.638,3.605v57.512
			C125.429,176.235,123.802,177.849,121.791,177.849z"/>
		<path id="path-15_38_" style="fill:#FF3A2F;" d="M25.564,123.603h5.205c1.004,0,1.816,0.871,1.816,1.945
			c0,1.075-0.812,1.947-1.816,1.947h-0.242c-1.004,0-1.817,0.871-1.817,1.945c0,1.075,0.813,1.947,1.817,1.947h11.188
			c1.004,0,1.818,0.87,1.818,1.945c0,1.076-0.814,1.947-1.818,1.947H28.269H13.491c-1.004,0-1.818-0.871-1.818-1.947
			c0-1.075,0.814-1.945,1.818-1.945h3.105c1.003,0,1.817-0.872,1.817-1.947c0-1.074-0.814-1.945-1.817-1.945H1.817
			c-1.003,0-1.817-0.872-1.817-1.947c0-1.074,0.814-1.945,1.817-1.945H5.31H25.564z"/>
		<path id="path-16_31_" style="fill:#FF3A2F;" d="M161.38,189.194h15.293c2.948,0,5.339,1.163,5.339,2.597
			c0,1.433-2.391,2.595-5.339,2.595h-0.712c-2.948,0-5.339,1.162-5.339,2.596s2.391,2.595,5.339,2.595h32.874
			c2.949,0,5.339,1.163,5.339,2.596c0,1.433-2.39,2.594-5.339,2.594h-39.506h-43.421c-2.948,0-5.339-1.161-5.339-2.594
			c0-1.433,2.391-2.596,5.339-2.596h9.124c2.948,0,5.338-1.161,5.338-2.595s-2.39-2.596-5.338-2.596H91.611
			c-2.949,0-5.34-1.162-5.34-2.595c0-1.434,2.391-2.597,5.34-2.597h10.262H161.38z"/>
		<path id="path-17_27_" style="fill:#FF3A2F;" d="M200.956,142.92h5.033c0.971,0,1.758,0.785,1.758,1.753
			c0,0.968-0.787,1.752-1.758,1.752h-0.234c-0.971,0-1.757,0.784-1.757,1.753c0,0.968,0.786,1.752,1.757,1.752h10.82
			c0.971,0,1.757,0.785,1.757,1.753c0,0.967-0.786,1.752-1.757,1.752h-13.003h-14.291c-0.971,0-1.758-0.785-1.758-1.752
			c0-0.968,0.787-1.753,1.758-1.753h3.002c0.97,0,1.758-0.784,1.758-1.752c0-0.969-0.788-1.753-1.758-1.753h-14.291
			c-0.971,0-1.757-0.784-1.757-1.752c0-0.968,0.786-1.753,1.757-1.753h3.377H200.956z"/>
	</g>
</g>
<g>
</g>
<g>
</g>
<g>
</g>
<g>
</g>
<g>
</g>
<g>
</g>
<g>
</g>
<g>
</g>
<g>
</g>
<g>
</g>
<g>
</g>
<g>
</g>
<g>
</g>
<g>
</g>
<g>
</g>
</svg>
