<?xml version="1.0" encoding="iso-8859-1"?>
<!-- Generator: Adobe Illustrator 19.1.0, SVG Export Plug-In . SVG Version: 6.00 Build 0)  -->
<svg version="1.1" id="Capa_1" xmlns="http://www.w3.org/2000/svg" xmlns:xlink="http://www.w3.org/1999/xlink" x="0px" y="0px"
	 viewBox="0 0 217.228 217.228" style="enable-background:new 0 0 217.228 217.228;" xml:space="preserve">
<g>
	<g id="group-61svg">
		<path id="path-1_118_" style="fill:#FBB713;" d="M89.316,169.396H72.011c-3.337,0-6.041,1.442-6.041,3.218
			c0,1.777,2.704,3.218,6.041,3.218h0.806c3.336,0,6.04,1.441,6.04,3.218c0,1.778-2.704,3.219-6.04,3.219H35.616
			c-3.337,0-6.041,1.44-6.041,3.217c0,1.777,2.704,3.218,6.041,3.218h44.706h91.377c3.337,0,6.041-1.441,6.041-3.218
			c0-1.777-2.704-3.217-6.041-3.217h-10.324c-3.337,0-6.042-1.441-6.042-3.219c0-1.777,2.705-3.218,6.042-3.218h40.549
			c3.337,0,6.041-1.441,6.041-3.218c0-1.776-2.704-3.218-6.041-3.218h-3.026H89.316z"/>
		<path id="path-2_118_" style="fill:#FBB713;" d="M196.641,189.566c-2.797,0-5.065-1.543-5.065-3.448s2.268-3.449,5.065-3.449
			h15.522c2.797,0,5.065,1.544,5.065,3.449s-2.268,3.448-5.065,3.448H196.641z"/>
		<path id="path-3_118_" style="fill:#0CB04A;" d="M154.002,125.146c-1.287-37.989-32.468-68.393-70.769-68.393
			c-38.302,0-69.482,30.404-70.77,68.393H154.002z"/>
		<path id="path-4_118_" style="fill:#EDEDED;" d="M34.826,98.759c-0.519,0-1.046-0.112-1.546-0.349
			c-1.809-0.855-2.58-3.013-1.724-4.82c8.297-17.522,26.176-28.842,45.551-28.842c2,0,3.621,1.62,3.621,3.62
			c0,1.999-1.621,3.62-3.621,3.62c-16.591,0-31.902,9.695-39.007,24.699C37.482,97.995,36.182,98.759,34.826,98.759z"/>
		<path id="path-5_117_" style="opacity:0.35;enable-background:new    ;" d="M91.399,57.238
			c8.754,5.128,16.308,12.08,22.141,20.336c11.39,16.121-0.017,38.384-19.756,38.384H13.392c-0.496,3.005-0.823,6.068-0.929,9.188
			h141.539C152.807,89.9,125.873,61.2,91.399,57.238z"/>
		<path id="path-6_114_" style="fill:#FF3A2F;" d="M166.466,170.458H0v-49.013h166.466V170.458z"/>
		<path id="path-7_111_" style="opacity:0.35;enable-background:new    ;" d="M145.029,121.445v5.791
			c0,18.797-15.238,34.035-34.036,34.035H0v9.187h166.466v-49.013H145.029z"/>
		<path id="path-8_88_" style="fill:#142A3B;" d="M98.032,42.461c0,8.174-6.626,14.8-14.799,14.8c-8.174,0-14.801-6.626-14.801-14.8
			c0-8.173,6.627-14.799,14.801-14.799C91.406,27.662,98.032,34.288,98.032,42.461z"/>
		<path id="path-9_76_" style="fill:#EDEDED;" d="M80.859,39.399c0,2.071-1.68,3.752-3.751,3.752c-2.072,0-3.752-1.681-3.752-3.752
			c0-2.072,1.68-3.751,3.752-3.751C79.179,35.648,80.859,37.327,80.859,39.399z"/>
		<path id="path-10_70_" style="opacity:0.35;enable-background:new    ;" d="M86.504,28.052c3.274,2.714,5.404,6.761,5.404,11.347
			c0,8.174-6.627,14.799-14.8,14.799c-1.129,0-2.216-0.151-3.272-0.39c2.563,2.125,5.808,3.453,9.397,3.453
			c8.173,0,14.799-6.626,14.799-14.8C98.032,35.415,93.098,29.545,86.504,28.052z"/>
	</g>
</g>
<g>
</g>
<g>
</g>
<g>
</g>
<g>
</g>
<g>
</g>
<g>
</g>
<g>
</g>
<g>
</g>
<g>
</g>
<g>
</g>
<g>
</g>
<g>
</g>
<g>
</g>
<g>
</g>
<g>
</g>
</svg>
