<?xml version="1.0" encoding="iso-8859-1"?>
<!-- Generator: Adobe Illustrator 19.1.0, SVG Export Plug-In . SVG Version: 6.00 Build 0)  -->
<svg version="1.1" id="Capa_1" xmlns="http://www.w3.org/2000/svg" xmlns:xlink="http://www.w3.org/1999/xlink" x="0px" y="0px"
	 viewBox="0 0 218.332 218.332" style="enable-background:new 0 0 218.332 218.332;" xml:space="preserve">
<g>
	<g id="group-80svg">
		<path id="path-1_147_" style="fill:#FBB713;" d="M111.055,65.708c-50.714,0-91.828,41.074-91.828,90.969h183.656
			C202.883,106.782,161.77,65.708,111.055,65.708z"/>
		<path id="path-2_147_" style="fill:#FFFFFF;" d="M40.589,142.447c-2.012,0-3.64-1.614-3.64-3.605
			c0-32.479,26.673-58.904,59.463-58.904c2.011,0,3.638,1.614,3.638,3.604c0,1.992-1.627,3.606-3.638,3.606
			c-28.774,0-52.185,23.191-52.185,51.694C44.227,140.833,42.599,142.447,40.589,142.447z"/>
		<path id="path-3_147_" style="fill:#FF3A2F;" d="M130.256,41.656c0,10.505-8.596,19.021-19.201,19.021
			c-10.604,0-19.2-8.516-19.2-19.021s8.596-19.02,19.2-19.02C121.66,22.635,130.256,31.15,130.256,41.656z"/>
		<path id="path-4_146_" style="opacity:0.25;fill:#020403;enable-background:new    ;" d="M151.205,74.91
			c4.041,3.5,7.77,7.344,11.143,11.481c18.64,22.867,1.894,56.98-27.776,56.98H20.225c-0.65,4.349-0.997,8.789-0.997,13.306h183.655
			C202.883,120.949,181.797,89.75,151.205,74.91z"/>
		<path id="path-5_146_" style="opacity:0.35;fill:#020403;enable-background:new    ;" d="M120.839,25.309
			c1.705,2.842,2.702,6.148,2.702,9.692c0,10.506-8.597,19.021-19.201,19.021c-3.578,0-6.916-0.986-9.784-2.675
			c3.347,5.579,9.474,9.329,16.499,9.329c10.605,0,19.201-8.516,19.201-19.021C130.256,34.695,126.47,28.627,120.839,25.309z"/>
		<path id="path-6_144_" style="fill:#FFFFFF;" d="M108.404,39.47c-2.096,2.077-5.495,2.077-7.591,0s-2.096-5.443,0-7.519
			c2.096-2.077,5.495-2.077,7.591,0C110.501,34.027,110.501,37.393,108.404,39.47z"/>
		<path id="path-7_144_" style="fill:#142A3B;" d="M218.332,169.389H5.042V156.77h213.29V169.389z"/>
		<path id="path-8_141_" style="fill:#0CB04A;" d="M41.294,166.833H29.333c-2.306,0-4.176,2.153-4.176,4.811
			c0,2.657,1.87,4.81,4.176,4.81h0.557c2.306,0,4.176,2.154,4.176,4.81c0,2.657-1.87,4.811-4.176,4.811H4.176
			c-2.306,0-4.176,2.154-4.176,4.81c0,2.658,1.87,4.811,4.176,4.811h30.901H98.24c2.306,0,4.175-2.153,4.175-4.811
			c0-2.656-1.869-4.81-4.175-4.81h-7.137c-2.306,0-4.176-2.154-4.176-4.811c0-2.656,1.87-4.81,4.176-4.81h33.964
			c2.306,0,4.175-2.153,4.175-4.81c0-2.658-1.869-4.811-4.175-4.811h-8.027H41.294z"/>
		<path id="path-9_135_" style="fill:#0CB04A;" d="M143.733,195.208c-3.789,0-6.862-1.501-6.862-3.354
			c0-1.851,3.073-3.353,6.862-3.353h21.03c3.791,0,6.864,1.502,6.864,3.353c0,1.853-3.073,3.354-6.864,3.354H143.733z"/>
		<path id="path-10_123_" style="fill:#0CB04A;" d="M186.102,49.193h-4.286c-0.825,0-1.495,0.501-1.495,1.119
			c0,0.619,0.67,1.12,1.495,1.12h0.201c0.825,0,1.496,0.501,1.496,1.12c0,0.618-0.671,1.119-1.496,1.119h-9.211
			c-0.826,0-1.495,0.502-1.495,1.12c0,0.619,0.669,1.12,1.495,1.12h11.068h22.625c0.826,0,1.496-0.501,1.496-1.12
			c0-0.618-0.67-1.12-1.496-1.12h-2.557c-0.826,0-1.496-0.501-1.496-1.119c0-0.619,0.67-1.12,1.496-1.12h12.166
			c0.826,0,1.496-0.501,1.496-1.12c0-0.618-0.67-1.119-1.496-1.119h-2.875H186.102z"/>
	</g>
</g>
<g>
</g>
<g>
</g>
<g>
</g>
<g>
</g>
<g>
</g>
<g>
</g>
<g>
</g>
<g>
</g>
<g>
</g>
<g>
</g>
<g>
</g>
<g>
</g>
<g>
</g>
<g>
</g>
<g>
</g>
</svg>
