<?xml version="1.0" encoding="iso-8859-1"?>
<!-- Generator: Adobe Illustrator 19.1.0, SVG Export Plug-In . SVG Version: 6.00 Build 0)  -->
<svg version="1.1" id="Capa_1" xmlns="http://www.w3.org/2000/svg" xmlns:xlink="http://www.w3.org/1999/xlink" x="0px" y="0px"
	 viewBox="0 0 217.228 217.228" style="enable-background:new 0 0 217.228 217.228;" xml:space="preserve">
<g>
	<g id="group-3svg">
		<path id="path-1_83_" style="fill:#142A3B;" d="M65.811,185.298H46.747c-3.676,0-6.654,1.706-6.654,3.81
			c0,2.105,2.978,3.811,6.654,3.811h0.888c3.675,0,6.655,1.707,6.655,3.811s-2.98,3.811-6.655,3.811H6.655
			c-3.676,0-6.655,1.705-6.655,3.811c0,2.104,2.979,3.81,6.655,3.81h49.248h100.66c3.676,0,6.655-1.706,6.655-3.81
			c0-2.106-2.979-3.811-6.655-3.811H145.19c-3.675,0-6.655-1.707-6.655-3.811s2.98-3.811,6.655-3.811h44.669
			c3.675,0,6.655-1.706,6.655-3.811c0-2.104-2.98-3.81-6.655-3.81h-3.334H65.811z"/>
		<path id="path-2_83_" style="fill:#142A3B;" d="M194.55,209.184c-3.081,0-5.579-1.829-5.579-4.085
			c0-2.254,2.498-4.083,5.579-4.083h17.099c3.081,0,5.579,1.829,5.579,4.083c0,2.256-2.498,4.085-5.579,4.085H194.55z"/>
		<path id="path-3_83_" style="fill:#FF3A2F;" d="M134.806,167.538c0,16.648-13.497,30.143-30.145,30.143
			s-30.144-13.495-30.144-30.143H134.806z"/>
		<path id="path-4_83_" style="opacity:0.35;fill:#010101;enable-background:new    ;" d="M74.517,167.538
			c0,3.045-0.309,2.833,0.531,5.605l48.087,6.065c0,7.222-2.546,10.928-6.781,16.12c10.841-4.568,18.452-15.289,18.452-27.79H74.517
			z"/>
		<path id="path-5_82_" style="fill:#FBB713;" d="M158.079,137.857c-0.084-0.468-0.118-0.926-0.118-1.402V78.711
			c0-25.524-22.992-46.49-52.567-49.329h-1.466c-29.575,2.839-52.567,23.805-52.567,49.329v57.745c0,0.476-0.034,0.934-0.118,1.402
			c-0.454,2.517-2.441,10.847-9.771,18.523c-4.975,5.211-1.169,13.866,6.036,13.866h114.305c7.206,0,11.013-8.655,6.037-13.866
			C160.52,148.704,158.533,140.374,158.079,137.857z"/>
		<path id="path-6_79_" style="fill:#EDEDED;" d="M60.928,107.24c-1.999,0-3.62-1.62-3.62-3.62V82.498
			c0-14.912,8.749-28.736,23.402-36.977c1.74-0.983,3.949-0.361,4.931,1.38c0.981,1.743,0.362,3.95-1.381,4.929
			c-12.343,6.943-19.711,18.407-19.711,30.668v21.121C64.549,105.619,62.928,107.24,60.928,107.24z"/>
		<path id="path-7_78_" style="opacity:0.25;fill:#010101;enable-background:new    ;" d="M167.85,156.38
			c-7.329-7.675-9.317-16.005-9.771-18.522c-0.084-0.468-0.118-0.926-0.118-1.402V78.711c0-25.524-22.992-46.49-52.567-49.329
			h-1.466c-3.855,0.37-7.59,1.063-11.185,2.019h0.929c27.503,2.639,48.882,22.137,48.882,45.872v53.696
			c0,0.444,0.033,0.87,0.111,1.305c0.422,2.341,2.27,10.087,9.086,17.225c4.627,4.846,1.087,12.894-5.614,12.894H39.844
			c-0.205,0-0.398-0.031-0.597-0.044c0.215,4.086,3.481,7.898,8.261,7.898h114.306C169.019,170.247,172.826,161.592,167.85,156.38z"
			/>
		<path id="path-8_59_" style="fill:#142A3B;" d="M115.33,18.713c0,5.893-4.776,10.669-10.669,10.669
			c-5.892,0-10.669-4.776-10.669-10.669c0-5.892,4.777-10.668,10.669-10.668C110.554,8.045,115.33,12.821,115.33,18.713z"/>
		<path id="path-9_52_" style="opacity:0.35;fill:#090908;enable-background:new    ;" d="M110.603,9.855
			c1.141,1.698,1.81,3.741,1.81,5.941c0,5.892-4.777,10.669-10.669,10.669c-2.201,0-4.244-0.668-5.943-1.809
			c1.915,2.85,5.168,4.726,8.86,4.726c5.893,0,10.669-4.776,10.669-10.669C115.33,15.022,113.453,11.769,110.603,9.855z"/>
	</g>
</g>
<g>
</g>
<g>
</g>
<g>
</g>
<g>
</g>
<g>
</g>
<g>
</g>
<g>
</g>
<g>
</g>
<g>
</g>
<g>
</g>
<g>
</g>
<g>
</g>
<g>
</g>
<g>
</g>
<g>
</g>
</svg>
