<?xml version="1.0" encoding="iso-8859-1"?>
<!-- Generator: Adobe Illustrator 19.1.0, SVG Export Plug-In . SVG Version: 6.00 Build 0)  -->
<svg version="1.1" id="Capa_1" xmlns="http://www.w3.org/2000/svg" xmlns:xlink="http://www.w3.org/1999/xlink" x="0px" y="0px"
	 viewBox="0 0 218.333 218.333" style="enable-background:new 0 0 218.333 218.333;" xml:space="preserve">
<g>
	<g id="group-39svg">
		<path id="path-1_101_" style="fill:#2476FF;" d="M25.396,154.954h5.171c0.997,0,1.805,1.472,1.805,3.285
			c0,1.815-0.808,3.286-1.805,3.286h-0.241c-0.997,0-1.805,1.472-1.805,3.286c0,1.815,0.808,3.285,1.805,3.285h11.116
			c0.997,0,1.805,1.472,1.805,3.287c0,1.814-0.808,3.286-1.805,3.286H28.083H13.402c-0.997,0-1.805-1.472-1.805-3.286
			c0-1.815,0.808-3.287,1.805-3.287h3.084c0.998,0,1.807-1.47,1.807-3.285c0-1.814-0.809-3.286-1.807-3.286H1.805
			c-0.997,0-1.805-1.471-1.805-3.286c0-1.813,0.808-3.285,1.805-3.285h3.47H25.396z"/>
		<path id="path-2_101_" style="fill:#2476FF;" d="M163.062,122.951h16.01c3.087,0,5.59,1.471,5.59,3.286s-2.503,3.286-5.59,3.286
			h-0.745c-3.087,0-5.59,1.471-5.59,3.285c0,1.816,2.503,3.287,5.59,3.287h34.416c3.087,0,5.59,1.47,5.59,3.285
			c0,1.814-2.503,3.286-5.59,3.286h-41.359h-45.459c-3.087,0-5.589-1.472-5.589-3.286c0-1.815,2.502-3.285,5.589-3.285h9.551
			c3.088,0,5.589-1.471,5.589-3.287c0-1.814-2.501-3.285-5.589-3.285H90.018c-3.086,0-5.589-1.471-5.589-3.286
			s2.503-3.286,5.589-3.286h10.744H163.062z"/>
		<path id="path-3_101_" style="fill:#2476FF;" d="M72.695,142.397c3.17,0,5.74-1.57,5.74-3.506c0-1.936-2.57-3.507-5.74-3.507
			H55.107c-3.169,0-5.739,1.571-5.739,3.507c0,1.936,2.57,3.506,5.739,3.506H72.695z"/>
		<path id="path-4_100_" style="fill:#FF3A2F;" d="M151.548,108.233H22.098c-8.873,0-16.066,7.126-16.066,15.916h161.583
			C167.615,115.359,160.421,108.233,151.548,108.233z"/>
		<path id="path-5_100_" style="fill:#142A3B;" d="M90.464,110.222h-7.278V52.617h7.278V110.222z"/>
		<path id="path-6_99_" style="fill:#142A3B;" d="M109.479,55.601H64.167c-3.326,0-6.024-2.672-6.024-5.969l0,0
			c0-3.296,2.698-5.968,6.024-5.968h45.312c3.328,0,6.025,2.672,6.025,5.968l0,0C115.504,52.929,112.807,55.601,109.479,55.601z"/>
		<path id="path-7_99_" style="fill:#FBB713;" d="M152.024,100.463V85.141c0-12.639-10.439-22.98-23.199-22.98H44.822
			c-12.759,0-23.199,10.341-23.199,22.98v15.322H152.024z"/>
		<path id="path-8_96_" style="opacity:0.35;fill:#020403;enable-background:new    ;" d="M9.173,117.837h129.449
			c5.213,0,9.799,2.5,12.735,6.312h16.258c0-8.79-7.194-15.916-16.067-15.916H22.098c-6.682,0-12.404,4.045-14.826,9.794
			C7.902,117.952,8.521,117.837,9.173,117.837z"/>
		<path id="path-9_91_" style="opacity:0.2;fill:#020403;enable-background:new    ;" d="M128.825,62.161h-0.161
			c4.424,4.19,7.201,10.073,7.201,16.577l0,0c0,8.462-6.924,15.32-15.466,15.32H21.624v6.405h130.4V85.141
			C152.024,72.501,141.585,62.161,128.825,62.161z"/>
	</g>
</g>
<g>
</g>
<g>
</g>
<g>
</g>
<g>
</g>
<g>
</g>
<g>
</g>
<g>
</g>
<g>
</g>
<g>
</g>
<g>
</g>
<g>
</g>
<g>
</g>
<g>
</g>
<g>
</g>
<g>
</g>
</svg>
