<?xml version="1.0" encoding="iso-8859-1"?>
<!-- Generator: Adobe Illustrator 19.1.0, SVG Export Plug-In . SVG Version: 6.00 Build 0)  -->
<svg version="1.1" id="Capa_1" xmlns="http://www.w3.org/2000/svg" xmlns:xlink="http://www.w3.org/1999/xlink" x="0px" y="0px"
	 viewBox="0 0 213.601 213.601" style="enable-background:new 0 0 213.601 213.601;" xml:space="preserve">
<g>
	<g id="group-95svg">
		<path id="path-1_155_" style="fill:#FF3A2F;" d="M181.824,139.661l-4.154-4.153c-0.801-0.8-2.149-0.752-3.011,0.11
			s-0.911,2.209-0.111,3.01l0.194,0.194c0.801,0.801,0.751,2.148-0.11,3.011c-0.862,0.861-2.21,0.91-3.011,0.11l-8.93-8.929
			c-0.801-0.801-2.148-0.751-3.01,0.111c-0.862,0.861-0.912,2.21-0.111,3.01l10.731,10.731l21.933,21.932
			c0.802,0.801,2.149,0.752,3.011-0.11s0.911-2.21,0.111-3.01l-2.479-2.479c-0.8-0.8-0.751-2.148,0.111-3.01
			c0.862-0.863,2.21-0.912,3.011-0.111l9.733,9.733c0.801,0.801,2.148,0.751,3.011-0.111c0.861-0.862,0.911-2.21,0.11-3.01
			l-0.726-0.727L181.824,139.661z"/>
		<path id="path-2_155_" style="fill:#FF3A2F;" d="M197.853,174.697c-0.564-0.564-0.527-1.515,0.083-2.125
			c0.609-0.61,1.561-0.647,2.125-0.083l3.13,3.13c0.564,0.565,0.528,1.516-0.082,2.127c-0.61,0.609-1.562,0.646-2.126,0.081
			L197.853,174.697z"/>
		<path id="path-3_155_" style="fill:#FF3A2F;" d="M113.697,171.62v-5.873c0-1.133-0.987-2.051-2.207-2.051
			c-1.218,0-2.207,0.918-2.207,2.051v0.273c0,1.132-0.987,2.05-2.207,2.05c-1.218,0-2.207-0.918-2.207-2.05v-12.628
			c0-1.132-0.988-2.05-2.206-2.05c-1.219,0-2.207,0.918-2.207,2.05v15.175v31.017c0,1.134,0.988,2.052,2.207,2.052
			c1.218,0,2.206-0.918,2.206-2.052v-3.503c0-1.133,0.989-2.051,2.207-2.051c1.22,0,2.207,0.918,2.207,2.051v13.765
			c0,1.131,0.989,2.049,2.207,2.049c1.22,0,2.207-0.918,2.207-2.049v-1.029V171.62z"/>
		<path id="path-4_155_" style="fill:#FF3A2F;" d="M100.257,207.728c0-0.797,0.699-1.443,1.561-1.443s1.561,0.646,1.561,1.443v4.427
			c0,0.799-0.699,1.446-1.561,1.446s-1.561-0.647-1.561-1.446V207.728z"/>
		<path id="path-5_154_" style="fill:#FF3A2F;" d="M31.777,139.661l4.154-4.153c0.801-0.8,2.149-0.752,3.011,0.11
			c0.862,0.862,0.911,2.209,0.11,3.01l-0.193,0.194c-0.801,0.801-0.751,2.148,0.11,3.011c0.862,0.861,2.21,0.91,3.011,0.11
			l8.929-8.929c0.801-0.801,2.149-0.751,3.011,0.111c0.862,0.861,0.912,2.21,0.111,3.01L43.3,146.866l-21.934,21.932
			c-0.8,0.801-2.148,0.752-3.01-0.11c-0.862-0.862-0.912-2.21-0.111-3.01l2.478-2.479c0.801-0.8,0.752-2.148-0.11-3.01
			c-0.862-0.863-2.21-0.912-3.011-0.111l-9.733,9.733c-0.801,0.801-2.149,0.751-3.011-0.111c-0.861-0.862-0.911-2.21-0.11-3.01
			l0.726-0.727L31.777,139.661z"/>
		<path id="path-6_151_" style="fill:#FF3A2F;" d="M15.748,174.697c0.564-0.564,0.527-1.515-0.082-2.125
			c-0.61-0.61-1.562-0.647-2.126-0.083l-3.13,3.13c-0.564,0.565-0.527,1.516,0.082,2.127c0.61,0.609,1.562,0.646,2.126,0.081
			L15.748,174.697z"/>
		<path id="path-7_147_" style="fill:#142A3B;" d="M108.656,37.422c-1.999,0-3.5-1.621-3.5-3.62V22.941c0-1.999,1.501-3.62,3.5-3.62
			s3.5,1.621,3.5,3.62v10.861C112.156,35.801,110.655,37.422,108.656,37.422z"/>
		<path id="path-8_123_" style="fill:#2476FF;" d="M165.441,88.545c-1.868-32.999-26.996-54.846-57.736-54.846
			S51.836,55.546,49.968,88.545H165.441z"/>
		<path id="path-9_108_" style="fill:#EDEDED;" d="M67.482,70.73c-0.41,0-0.827-0.07-1.235-0.219
			c-1.88-0.682-2.85-2.758-2.168-4.639c3.734-10.289,10.989-18.938,20.425-24.352c1.736-1.002,3.948-0.396,4.942,1.339
			c0.995,1.734,0.396,3.947-1.339,4.94c-7.953,4.564-14.07,11.861-17.222,20.546C70.352,69.815,68.962,70.73,67.482,70.73z"/>
		<path id="path-10_97_" style="fill:#142A3B;" d="M189.372,119.545H24.228l18.383-31h128.378L189.372,119.545z"/>
		<path id="path-11_84_" style="fill:#FF3A2F;" d="M118.554,11.752c0,6.491-5.263,11.752-11.753,11.752
			c-6.491,0-11.753-5.261-11.753-11.752S100.31,0,106.801,0C113.291,0,118.554,5.261,118.554,11.752z"/>
		<path id="path-12_74_" style="opacity:0.35;fill:#010101;enable-background:new    ;" d="M124.953,35.726
			c11.092,6.104,17.605,14.579,22.764,26.376c4.16,9.508-3.081,20.138-13.459,20.138H50.526c-0.25,1.698-0.452,4.122-0.558,5.868
			h115.473C164.125,61.324,145.57,41.608,124.953,35.726z"/>
		<path id="path-13_58_" style="opacity:0.35;fill:#010101;enable-background:new    ;" d="M170.989,88.108h-15.482l18.384,32.837
			h15.481L170.989,88.108z"/>
		<path id="path-14_47_" style="opacity:0.35;fill:#010101;enable-background:new    ;" d="M113.697,2.275
			c1.416,1.94,2.276,4.31,2.276,6.896c0,6.492-5.262,11.754-11.752,11.754c-2.587,0-4.956-0.861-6.897-2.276
			c2.137,2.93,5.572,4.855,9.477,4.855c6.49,0,11.753-5.261,11.753-11.752C118.554,7.848,116.628,4.411,113.697,2.275z"/>
	</g>
</g>
<g>
</g>
<g>
</g>
<g>
</g>
<g>
</g>
<g>
</g>
<g>
</g>
<g>
</g>
<g>
</g>
<g>
</g>
<g>
</g>
<g>
</g>
<g>
</g>
<g>
</g>
<g>
</g>
<g>
</g>
</svg>
