<?xml version="1.0" encoding="iso-8859-1"?>
<!-- Generator: Adobe Illustrator 19.1.0, SVG Export Plug-In . SVG Version: 6.00 Build 0)  -->
<svg version="1.1" id="Capa_1" xmlns="http://www.w3.org/2000/svg" xmlns:xlink="http://www.w3.org/1999/xlink" x="0px" y="0px"
	 viewBox="0 0 217.221 217.221" style="enable-background:new 0 0 217.221 217.221;" xml:space="preserve">
<g>
	<g id="group-98svg">
		<path id="path-1_158_" style="fill:#FF3A2F;" d="M75.04,188.994H57.996c-3.286,0-5.95,2.017-5.95,4.504s2.664,4.503,5.95,4.503
			h0.794c3.285,0,5.95,2.016,5.95,4.504c0,2.487-2.665,4.504-5.95,4.504H22.15c-3.286,0-5.95,2.015-5.95,4.503
			c0,2.487,2.664,4.502,5.95,4.502h44.031h89.999c3.286,0,5.95-2.015,5.95-4.502c0-2.488-2.664-4.503-5.95-4.503h-10.169
			c-3.286,0-5.95-2.017-5.95-4.504c0-2.488,2.664-4.504,5.95-4.504h39.938c3.286,0,5.95-2.016,5.95-4.503s-2.664-4.504-5.95-4.504
			h-2.981H75.04z"/>
		<path id="path-2_158_" style="fill:#FF3A2F;" d="M180.746,217.221c-2.755,0-4.989-2.162-4.989-4.826
			c0-2.666,2.234-4.828,4.989-4.828h15.287c2.755,0,4.988,2.162,4.988,4.828c0,2.664-2.233,4.826-4.988,4.826H180.746z"/>
		<path id="path-3_158_" style="fill:#142A3B;" d="M180.473,120.164H158.42c-2.999,0-5.431-2.5-5.431-5.5s2.432-5.5,5.431-5.5
			h11.053V65.167h-7.433c-2.998,0-5.431-1.501-5.431-4.501s2.433-4.5,5.431-4.5h18.433V120.164z"/>
		<path id="path-4_158_" style="fill:#FBB713;" d="M152.905,145.164H78.7L67,192.162h97.605L152.905,145.164z M116.711,181.633
			c-6.594,0-11.939-5.295-11.939-11.826c0-6.531,5.345-11.826,11.939-11.826c6.594,0,11.939,5.295,11.939,11.826
			C128.65,176.338,123.305,181.633,116.711,181.633z"/>
		<path id="path-5_157_" style="fill:#EDEDED;" d="M164.605,40.167H67l11.7,90.997h74.205L164.605,40.167z"/>
		<path id="path-6_154_" style="fill:#FF3A2F;" d="M156.779,102.276c-4.145-7.429-8.566-14.28-17.867-16.449
			c-9.729-0.987-21.873,1.352-34.141,3.706C90.856,89.234,79.732,83.497,70.59,74.79l8.11,56.374h74.205L156.779,102.276z"/>
		<path id="path-7_150_" style="fill:#142A3B;" d="M128.65,169.807c0,6.531-5.345,11.826-11.939,11.826
			c-6.594,0-11.939-5.295-11.939-11.826c0-6.531,5.345-11.826,11.939-11.826C123.305,157.981,128.65,163.276,128.65,169.807z"/>
		<path id="path-8_126_" style="fill:#FBB713;" d="M162.565,18.204L65.848,31.216l-1.772-12.918l96.717-13.012L162.565,18.204z"/>
		<path id="path-9_110_" style="opacity:0.35;enable-background:new    ;" d="M113.681,158.412c-0.973-0.254-1.976-0.431-3.03-0.431
			c-6.594,0-11.94,5.295-11.94,11.826c0,6.531,5.346,11.826,11.94,11.826c1.054,0,2.057-0.179,3.03-0.434
			c-5.117-1.334-8.909-5.907-8.909-11.392C104.772,164.32,108.564,159.746,113.681,158.412z"/>
		<path id="path-10_99_" style="opacity:0.25;enable-background:new    ;" d="M152.905,146.033h-6.06l11.497,47.065h6.263
			L152.905,146.033z"/>
		<path id="path-11_86_" style="opacity:0.25;enable-background:new    ;" d="M151.314,40.844l-7.558,58.724
			c-1.699,13.203-12.941,23.09-26.255,23.09H77.529l1.171,9.091h74.205l11.7-90.905H151.314z"/>
		<path id="path-12_76_" style="opacity:0.35;enable-background:new    ;" d="M138.912,85.633
			c-9.728-0.989-21.872,1.448-34.14,3.802c-13.916-0.299-25.04-6.377-34.182-15.083l1.63,11.263
			c6.825,4.09,14.567,6.659,23.461,6.851c12.268-2.356,24.411-4.791,34.141-3.803c9.3,2.168,13.722,8.823,17.866,16.253
			l-3.378,26.636h8.679l3.79-29.666C152.634,94.457,148.213,87.801,138.912,85.633z"/>
		<path id="path-13_60_" style="opacity:0.25;enable-background:new    ;" d="M160.793,5.286l-5.543,0.745l1.254,9.142L65.33,27.441
			l0.517,3.775l96.718-13.012L160.793,5.286z"/>
		<path id="path-14_48_" style="fill:#142A3B;" d="M97.995,10.775c-1.785,0-3.341-1.321-3.584-3.138
			c-0.266-1.981,1.124-3.804,3.104-4.071l26.28-3.535c2.019-0.256,3.808,1.126,4.073,3.105c0.265,1.982-1.124,3.805-3.105,4.072
			l-26.28,3.536C98.317,10.764,98.155,10.775,97.995,10.775z"/>
		<path id="path-15_39_" style="fill:#FFFFFF;" d="M89.072,110.861c-1.711,0-3.235-1.217-3.557-2.96l-8.333-45.037
			c-0.364-1.968,0.936-3.856,2.902-4.22c1.963-0.361,3.854,0.933,4.218,2.901l8.334,45.037c0.364,1.967-0.937,3.856-2.903,4.219
			C89.51,110.842,89.292,110.861,89.072,110.861z"/>
	</g>
</g>
<g>
</g>
<g>
</g>
<g>
</g>
<g>
</g>
<g>
</g>
<g>
</g>
<g>
</g>
<g>
</g>
<g>
</g>
<g>
</g>
<g>
</g>
<g>
</g>
<g>
</g>
<g>
</g>
<g>
</g>
</svg>
