<?xml version="1.0" encoding="iso-8859-1"?>
<!-- Generator: Adobe Illustrator 19.1.0, SVG Export Plug-In . SVG Version: 6.00 Build 0)  -->
<svg version="1.1" id="Capa_1" xmlns="http://www.w3.org/2000/svg" xmlns:xlink="http://www.w3.org/1999/xlink" x="0px" y="0px"
	 viewBox="0 0 217.222 217.222" style="enable-background:new 0 0 217.222 217.222;" xml:space="preserve">
<g>
	<g id="group-130svg">
		<path id="path-1_35_" style="fill:#2476FF;" d="M74.987,187.47H57.023c-3.463,0-6.272,2.125-6.272,4.746
			c0,2.622,2.809,4.747,6.272,4.747h0.836c3.464,0,6.272,2.126,6.272,4.746c0,2.623-2.808,4.748-6.272,4.748H19.241
			c-3.464,0-6.271,2.124-6.271,4.747c0,2.621,2.807,4.746,6.271,4.746h46.41h94.86c3.463,0,6.27-2.125,6.27-4.746
			c0-2.623-2.807-4.747-6.27-4.747h-10.719c-3.463,0-6.271-2.125-6.271-4.748c0-2.62,2.808-4.746,6.271-4.746h42.095
			c3.464,0,6.272-2.125,6.272-4.747c0-2.621-2.808-4.746-6.272-4.746h-3.142H74.987z"/>
		<path id="path-2_35_" style="fill:#2476FF;" d="M186.403,217.222c-2.904,0-5.258-2.278-5.258-5.089
			c0-2.808,2.354-5.087,5.258-5.087h16.113c2.904,0,5.258,2.279,5.258,5.087c0,2.811-2.354,5.089-5.258,5.089H186.403z"/>
		<path id="path-3_35_" style="fill:#2476FF;" d="M12.022,197.119c-2.903,0-5.258-2.277-5.258-5.086
			c0-2.809,2.355-5.086,5.258-5.086h16.113c2.904,0,5.258,2.277,5.258,5.086c0,2.809-2.354,5.086-5.258,5.086H12.022z"/>
		<path id="path-4_35_" style="fill:#FBB713;" d="M113.304,201.002c-12.112,0-19.941-4.479-19.941-11.407
			c0-15.613-12.013-32.203-34.276-32.203c-2.362,0-4.273-1.912-4.273-4.274V70.553l-13.799,1.069
			c-1.293,0.072-2.546-0.389-3.431-1.315L18.16,49.835c-1.46-1.533-1.578-3.891-0.275-5.568C19.011,42.811,46.04,8.454,81.976,0.111
			c2.287-0.527,4.549,0.877,5.117,3.138c2.388,9.534,12.162,36.766,25.267,36.766c13.657,0,24.776-27.362,27.622-36.948
			c0.651-2.163,2.847-3.469,5.067-2.956c35.911,8.335,63.332,42.366,64.485,43.806c1.301,1.652,1.226,4.006-0.202,5.554
			l-18.907,20.627c-0.884,0.964-2.286,1.456-3.463,1.374l-12.479-0.94v82.586c0,2.362-1.912,4.274-4.275,4.274
			c-14.591,0-36.962,17.278-36.962,32.203C133.246,196.523,125.417,201.002,113.304,201.002z"/>
		<path id="path-5_35_" style="opacity:0.25;enable-background:new    ;" d="M79.053,3.249c2.388,9.534,12.161,36.766,25.267,36.766
			c1.403,0,2.769-0.351,4.113-0.878C97.33,34.533,89.235,11.8,87.093,3.249c-0.567-2.261-2.83-3.665-5.117-3.138
			c-1.403,0.325-2.768,0.757-4.144,1.159C78.387,1.808,78.852,2.446,79.053,3.249z"/>
		<path id="path-6_34_" style="opacity:0.25;enable-background:new    ;" d="M209.534,43.917
			c-1.153-1.44-28.574-35.472-64.485-43.806c-1.475-0.341-2.896,0.172-3.904,1.155c33.848,9.85,59.24,41.268,60.348,42.651
			c1.302,1.652,1.226,4.006-0.201,5.554l-18.907,20.627c-0.378,0.413-0.879,0.693-1.389,0.925l5.966,0.449
			c1.177,0.082,2.579-0.41,3.464-1.374l18.906-20.627C210.76,47.923,210.835,45.569,209.534,43.917z"/>
		<path id="path-7_33_" style="opacity:0.25;enable-background:new    ;" d="M166.442,70.532v82.586
			c0,2.362-1.912,4.274-4.274,4.274c-14.591,0-36.963,17.278-36.963,32.203c0,6.124-6.133,10.322-15.921,11.216
			c1.283,0.118,2.616,0.191,4.02,0.191c12.113,0,19.942-4.479,19.942-11.407c0-14.925,22.371-32.203,36.962-32.203
			c2.363,0,4.275-1.912,4.275-4.274V71.137L166.442,70.532z"/>
		<path id="path-8_25_" style="fill:#FF3A2F;" d="M112.979,126.166c-0.535,0-1.078-0.1-1.587-0.301
			c-19.557-7.801-34.173-31.307-28.949-46.577c2.338-6.837,8.039-11.081,14.884-11.081c5.818,0,11.369,2.972,15.652,8.192
			c4.282-5.22,9.833-8.192,15.659-8.192c6.845,0,12.546,4.244,14.883,11.085c5.218,15.266-9.399,38.772-28.957,46.573
			C114.056,126.066,113.513,126.166,112.979,126.166z"/>
		<path id="path-9_22_" style="opacity:0.25;enable-background:new    ;" d="M108.958,76.399c0.64-0.78,1.317-1.493,2.01-2.169
			c-3.945-3.855-8.693-6.023-13.642-6.023c-0.623,0-1.224,0.074-1.827,0.142C100.509,68.997,105.218,71.84,108.958,76.399z"/>
		<path id="path-10_20_" style="opacity:0.25;enable-background:new    ;" d="M143.521,79.292
			c-2.337-6.841-8.038-11.085-14.883-11.085c-0.736,0-1.468,0.049-2.194,0.142c6.016,0.69,10.933,4.723,13.057,10.943
			c5.179,15.155-9.192,38.409-28.533,46.38c0.143,0.059,0.28,0.136,0.424,0.193c0.509,0.201,1.052,0.301,1.586,0.301
			c0.535,0,1.078-0.1,1.586-0.301C134.122,118.064,148.739,94.558,143.521,79.292z"/>
	</g>
</g>
<g>
</g>
<g>
</g>
<g>
</g>
<g>
</g>
<g>
</g>
<g>
</g>
<g>
</g>
<g>
</g>
<g>
</g>
<g>
</g>
<g>
</g>
<g>
</g>
<g>
</g>
<g>
</g>
<g>
</g>
</svg>
