<?xml version="1.0" encoding="iso-8859-1"?>
<!-- Generator: Adobe Illustrator 19.1.0, SVG Export Plug-In . SVG Version: 6.00 Build 0)  -->
<svg version="1.1" id="Capa_1" xmlns="http://www.w3.org/2000/svg" xmlns:xlink="http://www.w3.org/1999/xlink" x="0px" y="0px"
	 viewBox="0 0 218.333 218.333" style="enable-background:new 0 0 218.333 218.333;" xml:space="preserve">
<g>
	<g id="group-165svg">
		<path id="path-1_73_" style="fill:#2476FF;" d="M193.993,179.698h7.05c1.36,0,2.461,0.606,2.461,1.353
			c0,0.746-1.101,1.352-2.461,1.352h-0.328c-1.36,0-2.462,0.607-2.462,1.353c0,0.747,1.102,1.353,2.462,1.353h15.157
			c1.359,0,2.461,0.605,2.461,1.352c0,0.747-1.102,1.353-2.461,1.353h-18.215h-37.229c-1.36,0-2.461-0.606-2.461-1.353
			c0-0.747,1.101-1.352,2.461-1.352h4.206c1.36,0,2.461-0.606,2.461-1.353c0-0.746-1.101-1.353-2.461-1.353h-20.019
			c-1.359,0-2.462-0.606-2.462-1.352c0-0.747,1.103-1.353,2.462-1.353h4.731H193.993z"/>
		<path id="path-2_73_" style="fill:#2476FF;" d="M84.439,201.116h15.355c2.959,0,5.359,1.067,5.359,2.384s-2.4,2.385-5.359,2.385
			h-0.716c-2.96,0-5.359,1.067-5.359,2.384s2.399,2.385,5.359,2.385h33.008c2.96,0,5.361,1.067,5.361,2.384
			c0,1.316-2.401,2.385-5.361,2.385H92.419H48.822c-2.961,0-5.36-1.069-5.36-2.385c0-1.317,2.399-2.384,5.36-2.384h9.16
			c2.961,0,5.36-1.068,5.36-2.385s-2.399-2.384-5.36-2.384H14.384c-2.96,0-5.36-1.068-5.36-2.385s2.4-2.384,5.36-2.384h10.304
			H84.439z"/>
		<path id="path-3_73_" style="fill:#2476FF;" d="M179.473,217.485c3.38,0,6.12-1.219,6.12-2.722s-2.74-2.722-6.12-2.722h-18.756
			c-3.38,0-6.12,1.219-6.12,2.722s2.74,2.722,6.12,2.722H179.473z"/>
		<path id="path-4_73_" style="fill:#2476FF;" d="M140.521,189.277c2.536,0,4.593-0.501,4.593-1.119c0-0.62-2.057-1.121-4.593-1.121
			h-14.072c-2.536,0-4.592,0.501-4.592,1.121c0,0.618,2.056,1.119,4.592,1.119H140.521z"/>
		<path id="path-5_73_" style="fill:#FBB713;" d="M155.693,162.644V79.742h38.923V29.616L143.053,1.573
			c-2.753-1.498-6.219-0.48-7.67,2.28c-5.681,10.806-20.372,23.511-37.631,23.511c-17.276,0-31.98-12.754-37.649-23.543
			c-1.443-2.748-4.888-3.772-7.639-2.299L0,29.616v50.126h38.923v82.902c22.572,0,40.869,10.415,40.869,32.776h35.032
			C114.824,173.059,133.122,162.644,155.693,162.644z"/>
		<path id="path-6_72_" style="opacity:0.25;fill:#020403;enable-background:new    ;" d="M84.777,27.364
			c2.211,0,4.377-0.214,6.489-0.601C76.865,24.129,65.047,13.231,60.103,3.821c-1.443-2.748-4.888-3.772-7.639-2.299l-5.09,2.726
			C53.2,14.945,67.728,27.364,84.777,27.364z"/>
		<path id="path-7_72_" style="opacity:0.25;fill:#020403;enable-background:new    ;" d="M142.719,162.644
			c-22.572,0-40.87,10.415-40.87,32.776h12.975c0-22.361,18.298-32.776,40.869-32.776V79.742h-12.974V162.644z"/>
		<path id="path-8_69_" style="opacity:0.25;fill:#020403;enable-background:new    ;" d="M143.053,1.573
			c-2.753-1.497-6.219-0.48-7.67,2.28c-0.08,0.153-0.18,0.307-0.263,0.462l46.521,25.301v50.126h12.975V29.616L143.053,1.573z"/>
		<path id="path-9_66_" style="fill:#0CB04A;" d="M119.162,82.753c0,11.244-9.2,20.358-20.551,20.358
			c-11.35,0-20.551-9.114-20.551-20.358c0-11.245,9.201-20.359,20.551-20.359C109.962,62.394,119.162,71.508,119.162,82.753z"/>
	</g>
</g>
<g>
</g>
<g>
</g>
<g>
</g>
<g>
</g>
<g>
</g>
<g>
</g>
<g>
</g>
<g>
</g>
<g>
</g>
<g>
</g>
<g>
</g>
<g>
</g>
<g>
</g>
<g>
</g>
<g>
</g>
</svg>
