<?xml version="1.0" encoding="iso-8859-1"?>
<!-- Generator: Adobe Illustrator 19.1.0, SVG Export Plug-In . SVG Version: 6.00 Build 0)  -->
<svg version="1.1" id="Capa_1" xmlns="http://www.w3.org/2000/svg" xmlns:xlink="http://www.w3.org/1999/xlink" x="0px" y="0px"
	 viewBox="0 0 217.221 217.221" style="enable-background:new 0 0 217.221 217.221;" xml:space="preserve">
<g>
	<g id="group-52svg">
		<path id="path-1_108_" style="fill:#2476FF;" d="M71.088,185.741H50.776c-3.917,0-7.092,2.314-7.092,5.169s3.175,5.17,7.092,5.17
			h0.945c3.917,0,7.092,2.313,7.092,5.169c0,2.854-3.175,5.169-7.092,5.169H8.054c-3.916,0-7.091,2.314-7.091,5.169
			s3.175,5.169,7.091,5.169h52.477h107.261c3.916,0,7.091-2.314,7.091-5.169s-3.175-5.169-7.091-5.169h-12.119
			c-3.917,0-7.092-2.315-7.092-5.169c0-2.856,3.175-5.169,7.092-5.169h47.598c3.917,0,7.091-2.315,7.091-5.17
			s-3.174-5.169-7.091-5.169h-3.553H71.088z"/>
		<path id="path-2_108_" style="fill:#2476FF;" d="M195.954,217.221c-2.759,0-4.995-1.638-4.995-3.657
			c0-2.019,2.236-3.656,4.995-3.656h15.309c2.759,0,4.995,1.637,4.995,3.656c0,2.019-2.236,3.657-4.995,3.657H195.954z"/>
		<path id="path-3_108_" style="fill:#142A3B;" d="M122.681,5.617c0-3.105-2.179-5.617-4.873-5.617H88.572
			c-2.694,0-4.873,2.512-4.873,5.617v28.085h38.982V5.617z"/>
		<path id="path-4_108_" style="opacity:0.35;enable-background:new    ;" d="M117.808,0h-15.279c2.694,0,4.873,2.512,4.873,5.616
			v28.086h15.279V5.616C122.681,2.512,120.502,0,117.808,0z"/>
		<path id="path-5_107_" style="fill:#FBB713;" d="M147.045,33.7h-24.364H83.699H59.335c-2.694,0-4.873,2.517-4.873,5.616v146.048
			c0,3.11,2.179,5.617,4.873,5.617h87.71c2.693,0,4.873-2.507,4.873-5.617V39.316C151.918,36.217,149.738,33.7,147.045,33.7z"/>
		<path id="path-6_104_" style="opacity:0.35;enable-background:new    ;" d="M147.045,33.699h-22.918
			c2.693,0,4.872,2.518,4.872,5.618v146.047c0,3.109-2.179,5.617-4.872,5.617h22.918c2.693,0,4.873-2.508,4.873-5.617V39.317
			C151.918,36.217,149.738,33.699,147.045,33.699z"/>
		<path id="path-7_101_" style="fill:#EDEDED;" d="M73.971,166.577c-2.001,0-3.62-1.622-3.62-3.621V70.455c0-2,1.619-3.62,3.62-3.62
			c2.002,0,3.621,1.62,3.621,3.62v92.501C77.592,164.955,75.973,166.577,73.971,166.577z"/>
	</g>
</g>
<g>
</g>
<g>
</g>
<g>
</g>
<g>
</g>
<g>
</g>
<g>
</g>
<g>
</g>
<g>
</g>
<g>
</g>
<g>
</g>
<g>
</g>
<g>
</g>
<g>
</g>
<g>
</g>
<g>
</g>
</svg>
