<?xml version="1.0" encoding="iso-8859-1"?>
<!-- Generator: Adobe Illustrator 19.1.0, SVG Export Plug-In . SVG Version: 6.00 Build 0)  -->
<svg version="1.1" id="Capa_1" xmlns="http://www.w3.org/2000/svg" xmlns:xlink="http://www.w3.org/1999/xlink" x="0px" y="0px"
	 viewBox="0 0 217.229 217.229" style="enable-background:new 0 0 217.229 217.229;" xml:space="preserve">
<g>
	<g id="group-46svg">
		<path id="path-1_101_" style="fill:#FF3A2F;" d="M167.406,177.488h9.689c1.868,0,3.382-1.788,3.382-3.993
			c0-2.204-1.514-3.992-3.382-3.992h-0.451c-1.868,0-3.382-1.788-3.382-3.992c0-2.206,1.514-3.993,3.382-3.993h20.828
			c1.868,0,3.382-1.788,3.382-3.993s-1.514-3.992-3.382-3.992h-25.03h-51.161c-1.868,0-3.382,1.787-3.382,3.992
			s1.514,3.993,3.382,3.993h5.781c1.868,0,3.382,1.787,3.382,3.993c0,2.204-1.514,3.992-3.382,3.992H99.551
			c-1.868,0-3.382,1.788-3.382,3.992c0,2.205,1.514,3.993,3.382,3.993h6.502H167.406z"/>
		<path id="path-2_101_" style="fill:#FF3A2F;" d="M45.261,183.51h5.12c0.987,0,1.788-0.877,1.788-1.96
			c0-1.082-0.801-1.959-1.788-1.959h-0.238c-0.987,0-1.788-0.878-1.788-1.961c0-1.083,0.801-1.961,1.788-1.961h11.008
			c0.987,0,1.787-0.877,1.787-1.96c0-1.082-0.8-1.961-1.787-1.961H47.922H20.883c-0.988,0-1.788,0.879-1.788,1.961
			c0,1.083,0.8,1.96,1.788,1.96h3.054c0.988,0,1.788,0.878,1.788,1.961c0,1.083-0.8,1.961-1.788,1.961H9.398
			c-0.987,0-1.788,0.877-1.788,1.959c0,1.083,0.801,1.96,1.788,1.96h3.436H45.261z"/>
		<path id="path-3_101_" style="fill:#FF3A2F;" d="M213.42,173.087c2.104,0,3.809,1.971,3.809,4.401c0,2.43-1.705,4.399-3.809,4.399
			h-11.673c-2.104,0-3.809-1.969-3.809-4.399c0-2.43,1.705-4.401,3.809-4.401H213.42z"/>
		<path id="path-4_101_" style="fill:#142A3B;" d="M0,73.276v80.701c0,1.785,1.444,3.228,3.228,3.228h148.495
			c1.785,0,3.228-1.443,3.228-3.228V73.276H0z"/>
		<path id="path-5_100_" d="M106.119,91.823H54.468c-7.125,0-12.912,5.794-12.912,12.913c0,7.117,5.787,12.91,12.912,12.91h51.651
			c7.118,0,12.911-5.793,12.911-12.91C119.03,97.617,113.237,91.823,106.119,91.823z M106.119,111.191H54.468
			c-3.56,0-6.457-2.895-6.457-6.455c0-3.564,2.897-6.457,6.457-6.457h51.651c3.559,0,6.455,2.893,6.455,6.457
			C112.574,108.296,109.678,111.191,106.119,111.191z"/>
		<path id="path-6_97_" style="fill:#FBB713;" d="M103.301,86.189H51.65c-7.124,0-12.912,5.794-12.912,12.913
			c0,7.117,5.788,12.911,12.912,12.911h51.651c7.118,0,12.912-5.794,12.912-12.911C116.213,91.983,110.419,86.189,103.301,86.189z
			 M103.301,105.557H51.65c-3.559,0-6.456-2.894-6.456-6.455c0-3.563,2.897-6.458,6.456-6.458h51.651
			c3.559,0,6.456,2.895,6.456,6.458C109.757,102.663,106.86,105.557,103.301,105.557z"/>
		<path id="path-7_94_" style="fill:#2476FF;" d="M153.975,73.276l-18.316-39.557H19.446L0.976,73.276H153.975z"/>
		<path id="path-8_73_" style="opacity:0.35;enable-background:new    ;" d="M135.659,33.719H122.46l0,0
			c5.504,11.887-3.178,25.472-16.277,25.472L3.872,67.075l-2.896,6.201h152.999L135.659,33.719z"/>
		<path id="path-9_64_" style="fill:#FBB713;" d="M129.126,73.276V37.513H25.825v35.763H129.126z"/>
		<path id="path-10_58_" style="opacity:0.35;enable-background:new    ;" d="M25.825,73.276h103.301v-8.452H25.825V73.276z"/>
	</g>
</g>
<g>
</g>
<g>
</g>
<g>
</g>
<g>
</g>
<g>
</g>
<g>
</g>
<g>
</g>
<g>
</g>
<g>
</g>
<g>
</g>
<g>
</g>
<g>
</g>
<g>
</g>
<g>
</g>
<g>
</g>
</svg>
