<?xml version="1.0" encoding="iso-8859-1"?>
<!-- Generator: Adobe Illustrator 19.1.0, SVG Export Plug-In . SVG Version: 6.00 Build 0)  -->
<svg version="1.1" id="Capa_1" xmlns="http://www.w3.org/2000/svg" xmlns:xlink="http://www.w3.org/1999/xlink" x="0px" y="0px"
	 viewBox="0 0 217.229 217.229" style="enable-background:new 0 0 217.229 217.229;" xml:space="preserve">
<g>
	<g id="group-118svg">
		<path id="path-1_21_" style="fill:#FF3A2F;" d="M51.045,168.279H36.259c-2.851,0-5.162,1.75-5.162,3.906
			c0,2.159,2.311,3.907,5.162,3.907h0.688c2.851,0,5.163,1.75,5.163,3.908c0,2.157-2.312,3.907-5.163,3.907H5.162
			c-2.851,0-5.162,1.748-5.162,3.907c0,2.157,2.311,3.907,5.162,3.907H43.36h78.075c2.851,0,5.162-1.75,5.162-3.907
			c0-2.159-2.311-3.907-5.162-3.907h-8.821c-2.851,0-5.162-1.75-5.162-3.907c0-2.158,2.311-3.908,5.162-3.908h34.646
			c2.851,0,5.162-1.748,5.162-3.907c0-2.156-2.311-3.906-5.162-3.906h-2.585H51.045z"/>
		<path id="path-2_21_" style="fill:#FF3A2F;" d="M142.746,192.766c-2.389,0-4.327-1.874-4.327-4.186s1.938-4.187,4.327-4.187
			h13.262c2.39,0,4.328,1.875,4.328,4.187s-1.938,4.186-4.328,4.186H142.746z"/>
		<path id="path-3_21_" style="fill:#142A3B;" d="M63.004,66.523h-7.01v105.148h154.224V66.523h-7.01H63.004z"/>
		<path id="path-4_21_" style="opacity:0.35;enable-background:new    ;" d="M63.004,69.151h-7.01v10.695l154.224,7.886V69.151
			h-7.01H63.004z"/>
		<path id="path-5_21_" style="fill:#FF3A2F;" d="M48.984,24.462v49.07h7.01h7.01h140.204h7.01h7.011v-49.07H48.984z"/>
		<path id="path-6_21_" style="fill:#2476FF;" d="M112.075,87.545h42.062c3.867,0,7.01,3.142,7.01,7.01
			c0,3.868-3.143,7.01-7.01,7.01h-42.062c-3.868,0-7.01-3.142-7.01-7.01C105.065,90.687,108.207,87.545,112.075,87.545z"/>
		<path id="path-7_21_" style="opacity:0.35;enable-background:new    ;" d="M154.137,87.545h-42.062
			c-3.259,0-5.978,2.241-6.761,5.258h40.936c3.868,0,7.011,3.141,7.011,7.009c0,0.61-0.103,1.19-0.249,1.753h1.125
			c3.867,0,7.01-3.142,7.01-7.01C161.147,90.687,158.004,87.545,154.137,87.545z"/>
	</g>
</g>
<g>
</g>
<g>
</g>
<g>
</g>
<g>
</g>
<g>
</g>
<g>
</g>
<g>
</g>
<g>
</g>
<g>
</g>
<g>
</g>
<g>
</g>
<g>
</g>
<g>
</g>
<g>
</g>
<g>
</g>
</svg>
