<?xml version="1.0" encoding="iso-8859-1"?>
<!-- Generator: Adobe Illustrator 19.1.0, SVG Export Plug-In . SVG Version: 6.00 Build 0)  -->
<svg version="1.1" id="Capa_1" xmlns="http://www.w3.org/2000/svg" xmlns:xlink="http://www.w3.org/1999/xlink" x="0px" y="0px"
	 viewBox="0 0 218.332 218.332" style="enable-background:new 0 0 218.332 218.332;" xml:space="preserve">
<g>
	<g id="group-107svg">
		<path id="path-1_9_" style="fill:#FF3A2F;" d="M91.583,211.577c2.576,0,4.663-0.889,4.663-1.985c0-1.097-2.087-1.985-4.663-1.985
			H77.292c-2.576,0-4.663,0.888-4.663,1.985c0,1.096,2.087,1.985,4.663,1.985H91.583z"/>
		<path id="path-2_9_" style="fill:#FF3A2F;" d="M37.237,179.835h4.246c0.819,0,1.483,0.857,1.483,1.918
			c0,1.06-0.664,1.92-1.483,1.92h-0.197c-0.819,0-1.483,0.86-1.483,1.919c0,1.06,0.664,1.919,1.483,1.919h9.128
			c0.819,0,1.482,0.86,1.482,1.92c0,1.06-0.663,1.919-1.482,1.919h-10.97H17.022c-0.818,0-1.483-0.859-1.483-1.919
			c0-1.06,0.665-1.92,1.483-1.92h2.533c0.819,0,1.483-0.859,1.483-1.919c0-1.059-0.664-1.919-1.483-1.919H7.499
			c-0.819,0-1.483-0.86-1.483-1.92c0-1.061,0.664-1.918,1.483-1.918h2.849H37.237z"/>
		<path id="path-3_9_" style="fill:#FF3A2F;" d="M7.454,191.454c1.014,0,1.835-0.6,1.835-1.339c0-0.74-0.821-1.338-1.835-1.338
			H1.833c-1.013,0-1.833,0.598-1.833,1.338c0,0.739,0.82,1.339,1.833,1.339H7.454z"/>
		<path id="path-4_9_" style="fill:#FF3A2F;" d="M181.061,194.34h10.796c2.082,0,3.769,1.274,3.769,2.847
			c0,1.572-1.687,2.847-3.769,2.847h-0.502c-2.082,0-3.769,1.275-3.769,2.848c0,1.574,1.687,2.848,3.769,2.848h23.208
			c2.081,0,3.769,1.274,3.769,2.847s-1.688,2.847-3.769,2.847h-27.89h-57.008c-2.081,0-3.769-1.274-3.769-2.847
			s1.688-2.847,3.769-2.847h6.441c2.081,0,3.77-1.274,3.77-2.848c0-1.573-1.689-2.848-3.77-2.848h-30.654
			c-2.082,0-3.768-1.275-3.768-2.847c0-1.573,1.686-2.847,3.768-2.847h7.245H181.061z"/>
		<path id="path-5_9_" style="fill:#D99A02;" d="M60.373,108.201c0-9.881-13.927-20.431-13.927-28.646
			c0-20.422,31.808-36.975,71.042-36.975c15.464,0,29.762,2.58,41.425,6.944c1.081-2.014,1.801-3.954,1.801-5.796
			c0-20.421-31.806-36.974-71.044-36.974c-39.235,0-71.042,16.553-71.042,36.974c0,8.217,13.927,18.767,13.927,28.646l-5.585,69.801
			c0,9.365,7.304,16.149,17.312,16.149h2.377h9.704L60.373,108.201z"/>
		<path id="path-6_9_" style="opacity:0.35;fill:#020403;enable-background:new    ;" d="M117.488,42.581
			c15.464,0,29.762,2.58,41.425,6.944c0.781-1.456,1.363-2.872,1.632-4.239c-12.993-7.419-31.709-12.075-52.515-12.075
			c-39.235,0-71.043,16.553-71.043,36.976c0,8.215,13.927,18.764,13.927,28.644l-4.759,59.493h0.504h9.704l4.01-50.124
			c0-9.879-13.927-20.429-13.927-28.644C46.446,59.134,78.254,42.581,117.488,42.581z"/>
		<path id="path-7_9_" style="fill:#FBB713;" d="M163.414,194.15c10.008,0,17.12-7.593,17.12-16.954l-5.422-69.35
			c0-10.363,13.42-20.234,13.42-28.291c0-20.421-31.806-36.975-71.044-36.975c-39.234,0-71.042,16.554-71.042,36.975
			c0,8.215,13.927,18.765,13.927,28.646l-5.584,69.801c0,9.365,7.303,16.148,17.312,16.148h2.376H163.414z"/>
		<path id="path-8_9_" style="opacity:0.25;fill:#020403;enable-background:new    ;" d="M188.532,79.556
			c0-20.422-31.806-36.975-71.044-36.975c-2.665,0-5.292,0.083-7.881,0.231c35.526,2.043,63.162,17.71,63.162,36.744
			c0,8.057-13.421,17.928-13.421,28.291l5.423,69.35c0,9.361-7.112,16.954-17.12,16.954h15.763c10.008,0,17.12-7.593,17.12-16.954
			l-5.422-69.35C175.112,97.484,188.532,87.613,188.532,79.556z"/>
		<path id="path-9_8_" style="fill:#B17D0A;" d="M153.144,106.376c0,2.682-2.196,4.857-4.904,4.857
			c-2.709,0-4.904-2.175-4.904-4.857c0-2.684,2.195-4.86,4.904-4.86C150.948,101.516,153.144,103.692,153.144,106.376z"/>
		<path id="path-10_7_" style="fill:#B17D0A;" d="M121.616,93.882c0,2.683-2.195,4.858-4.904,4.858
			c-2.708,0-4.904-2.175-4.904-4.858c0-2.684,2.196-4.858,4.904-4.858C119.421,89.024,121.616,91.198,121.616,93.882z"/>
		<path id="path-11_7_" style="fill:#B17D0A;" d="M90.088,106.376c0,2.682-2.195,4.857-4.903,4.857
			c-2.709,0-4.904-2.175-4.904-4.857c0-2.684,2.195-4.86,4.904-4.86C87.893,101.516,90.088,103.692,90.088,106.376z"/>
		<path id="path-12_7_" style="fill:#B17D0A;" d="M90.088,134.485c0,2.684-2.195,4.857-4.903,4.857
			c-2.709,0-4.904-2.173-4.904-4.857c0-2.683,2.195-4.859,4.904-4.859C87.893,129.626,90.088,131.802,90.088,134.485z"/>
		<path id="path-13_6_" style="fill:#B17D0A;" d="M121.616,143.853c0,2.684-2.195,4.859-4.904,4.859
			c-2.708,0-4.904-2.175-4.904-4.859c0-2.682,2.196-4.857,4.904-4.857C119.421,138.995,121.616,141.171,121.616,143.853z"/>
		<path id="path-14_4_" style="fill:#B17D0A;" d="M121.616,118.867c0,2.684-2.195,4.859-4.904,4.859
			c-2.708,0-4.904-2.175-4.904-4.859c0-2.683,2.196-4.857,4.904-4.857C119.421,114.01,121.616,116.184,121.616,118.867z"/>
		<path id="path-15_4_" style="fill:#B17D0A;" d="M153.144,131.36c0,2.685-2.196,4.859-4.904,4.859
			c-2.709,0-4.904-2.174-4.904-4.859c0-2.682,2.195-4.857,4.904-4.857C150.948,126.503,153.144,128.678,153.144,131.36z"/>
		<path id="path-16_4_" style="fill:#B17D0A;" d="M90.088,165.717c0,2.683-2.195,4.857-4.903,4.857
			c-2.709,0-4.904-2.174-4.904-4.857c0-2.682,2.195-4.857,4.904-4.857C87.893,160.859,90.088,163.035,90.088,165.717z"/>
		<path id="path-17_3_" style="fill:#B17D0A;" d="M121.616,175.086c0,2.683-2.195,4.859-4.904,4.859
			c-2.708,0-4.904-2.176-4.904-4.859c0-2.682,2.196-4.859,4.904-4.859C119.421,170.227,121.616,172.404,121.616,175.086z"/>
		<path id="path-18_2_" style="fill:#B17D0A;" d="M153.144,159.471c0,2.682-2.196,4.859-4.904,4.859
			c-2.709,0-4.904-2.177-4.904-4.859c0-2.683,2.195-4.859,4.904-4.859C150.948,154.611,153.144,156.788,153.144,159.471z"/>
	</g>
</g>
<g>
</g>
<g>
</g>
<g>
</g>
<g>
</g>
<g>
</g>
<g>
</g>
<g>
</g>
<g>
</g>
<g>
</g>
<g>
</g>
<g>
</g>
<g>
</g>
<g>
</g>
<g>
</g>
<g>
</g>
</svg>
