<?xml version="1.0" encoding="iso-8859-1"?>
<!-- Generator: Adobe Illustrator 19.1.0, SVG Export Plug-In . SVG Version: 6.00 Build 0)  -->
<svg version="1.1" id="Capa_1" xmlns="http://www.w3.org/2000/svg" xmlns:xlink="http://www.w3.org/1999/xlink" x="0px" y="0px"
	 viewBox="0 0 216.29 216.29" style="enable-background:new 0 0 216.29 216.29;" xml:space="preserve">
<g>
	<g id="group-168svg">
		<path id="path-1_76_" style="fill:#142A3B;" d="M158.126,131.125L172.929,6.031c0.35-2.966-0.896-5.56-2.771-5.759l-2.437-0.26
			c-1.874-0.199-3.648,2.072-3.942,5.045l-12.372,125.352L158.126,131.125z"/>
		<path id="path-2_76_" style="fill:#0CB04A;" d="M155.29,127.18c-10.288-1.096-19.29,4.115-20.106,11.637l37.257,3.968
			C173.257,135.263,165.579,128.275,155.29,127.18z"/>
		<path id="path-3_76_" style="fill:#FF3A2F;" d="M170.6,212.693c-3.908-4.936-4.217-12.088-3.969-16.413
			c0.097-1.68-1.909-2.857-3.574-2.097c-9.084,4.151-14.474,9.523-16.765,15.922l-39.644-4.222l5.305-48.894
			c1.218-11.226,12.532-19.31,25.142-17.968l33.435,3.561c12.61,1.342,21.931,11.625,20.713,22.85l-3,27.636
			c0,0-5.442,14.044,10.06,22.575L170.6,212.693z"/>
		<path id="path-4_76_" style="opacity:0.35;fill:#020403;enable-background:new    ;" d="M156.775,127.393
			c3.646,2.915,5.733,6.846,5.289,10.944l-25.905-2.758c-0.48,1.024-0.85,2.093-0.975,3.238l37.257,3.968
			C173.217,135.63,166.303,128.972,156.775,127.393z"/>
		<path id="path-5_76_" style="opacity:0.35;fill:#020403;enable-background:new    ;" d="M164.356,188.26
			c0.096-1.681-1.91-2.857-3.574-2.097c-9.085,4.151-22.575,14.117-24.866,20.516l-29.019-3.091l-0.249,2.295l39.644,4.222
			c4.228-12.09,13.041-13.271,18.13-16.742C164.268,191.477,164.273,189.704,164.356,188.26z"/>
		<path id="path-6_75_" style="opacity:0.35;fill:#020403;enable-background:new    ;" d="M188.243,193.067l3-27.635
			c1.218-11.225-8.103-21.508-20.713-22.85l-0.132-0.015c6.996,4.19,11.321,11.576,10.468,19.438l-2.998,27.635
			c0,0-5.443,14.044,10.059,22.578l-18.89-2.013c0.45,0.869,0.947,1.712,1.563,2.487l27.703,2.951
			C182.801,207.112,188.243,193.067,188.243,193.067z"/>
		<path id="path-7_75_" style="fill:#142A3B;" d="M180.435,211.139c-0.54,0-1.073-0.237-1.431-0.69
			c-6.547-8.27-2.475-17.706-2.3-18.102c0.408-0.914,1.478-1.321,2.391-0.925c0.921,0.397,1.34,1.459,0.942,2.37
			c-0.139,0.319-3.348,7.89,1.83,14.432c0.619,0.783,0.48,1.917-0.309,2.531C181.224,211.014,180.83,211.139,180.435,211.139z"/>
		<path id="path-8_72_" style="fill:#142A3B;" d="M134.946,208.46c-0.068,0-0.132-0.003-0.2-0.011
			c-0.998-0.106-1.719-0.995-1.613-1.984l1.063-9.78c0.107-0.991,1.027-1.703,2.003-1.6c0.999,0.108,1.721,0.996,1.613,1.986
			l-1.062,9.779C136.651,207.775,135.862,208.46,134.946,208.46z"/>
		<path id="path-9_69_" style="fill:#142A3B;" d="M124.917,207.391c-0.068,0-0.131-0.003-0.199-0.01
			c-0.998-0.106-1.719-0.994-1.614-1.984l3.458-31.889c0.107-0.992,1.021-1.7,2.005-1.599c0.998,0.106,1.72,0.994,1.613,1.984
			l-3.458,31.889C126.623,206.706,125.834,207.391,124.917,207.391z"/>
		<path id="path-10_63_" style="fill:#142A3B;" d="M114.886,206.323c-0.068,0-0.132-0.004-0.199-0.01
			c-0.999-0.107-1.721-0.995-1.614-1.986l1.731-15.942c0.107-0.993,1.02-1.706,2.004-1.6c0.998,0.106,1.72,0.995,1.613,1.985
			l-1.73,15.943C116.591,205.638,115.802,206.323,114.886,206.323z"/>
		<path id="path-11_55_" style="fill:#142A3B;" d="M188.964,161.539c-0.069,0-0.132-0.004-0.199-0.011l-72.142-7.683
			c-0.998-0.105-1.72-0.993-1.614-1.983c0.108-0.993,1.021-1.698,2.005-1.6l72.141,7.683c0.999,0.105,1.721,0.994,1.614,1.983
			C190.669,160.853,189.88,161.539,188.964,161.539z"/>
		<path id="path-12_46_" style="fill:#2476FF;" d="M42.605,216.29c3.346,0,6.057-0.489,6.057-1.094c0-0.604-2.711-1.095-6.057-1.095
			H24.044c-3.345,0-6.057,0.491-6.057,1.095c0,0.605,2.712,1.094,6.057,1.094H42.605z"/>
		<path id="path-13_37_" style="fill:#DDC100;" d="M62.898,186.609l2.111,0.83c0.408,0.161,0.935-0.204,1.181-0.816
			c0.244-0.61,0.113-1.236-0.294-1.395l-0.099-0.039c-0.406-0.161-0.538-0.786-0.293-1.397c0.244-0.61,0.774-0.975,1.18-0.816
			l4.539,1.785c0.407,0.161,0.935-0.204,1.18-0.815c0.245-0.611,0.114-1.236-0.294-1.396l-5.454-2.146l-11.148-4.385
			c-0.406-0.161-0.936,0.205-1.18,0.816c-0.245,0.611-0.114,1.236,0.293,1.396l1.26,0.494c0.407,0.162,0.539,0.786,0.294,1.398
			c-0.246,0.611-0.774,0.975-1.181,0.816l-5.995-2.359c-0.407-0.16-0.935,0.205-1.18,0.817c-0.245,0.611-0.114,1.235,0.293,1.395
			l1.418,0.558L62.898,186.609z"/>
		<path id="path-14_31_" style="fill:#2476FF;" d="M109.676,206.928h9.301c1.793,0,3.246,0.592,3.246,1.322
			s-1.453,1.322-3.246,1.322h-0.434c-1.793,0-3.246,0.592-3.246,1.323c0,0.729,1.453,1.322,3.246,1.322h19.992
			c1.793,0,3.246,0.591,3.246,1.322c0,0.73-1.453,1.321-3.246,1.321H114.51H65.404c-1.793,0-3.247-0.591-3.247-1.321
			c0-0.731,1.454-1.322,3.247-1.322h5.548c1.793,0,3.247-0.593,3.247-1.322c0-0.731-1.454-1.323-3.247-1.323H44.546
			c-1.792,0-3.247-0.592-3.247-1.322s1.455-1.322,3.247-1.322h6.241H109.676z"/>
		<path id="path-15_28_" style="fill:#DDC100;" d="M86.879,191.963c1.887,0.743,3.027,2.319,2.545,3.52
			c-0.481,1.202-2.401,1.574-4.289,0.832l-10.473-4.12c-1.888-0.743-3.027-2.319-2.547-3.52c0.483-1.203,2.403-1.574,4.291-0.831
			L86.879,191.963z"/>
		<path id="path-16_24_" style="fill:#DDC100;" d="M85.919,158.535l0.899,2.067c0.174,0.398,0.809,0.51,1.417,0.251
			c0.61-0.261,0.963-0.796,0.789-1.194l-0.041-0.096c-0.173-0.398,0.18-0.933,0.788-1.193c0.61-0.26,1.245-0.149,1.418,0.25
			l1.935,4.441c0.173,0.399,0.809,0.511,1.418,0.251c0.608-0.261,0.961-0.795,0.788-1.194l-2.325-5.337l-4.753-10.911
			c-0.174-0.398-0.808-0.51-1.417-0.25c-0.609,0.26-0.963,0.795-0.789,1.192l0.537,1.234c0.174,0.398-0.179,0.932-0.789,1.193
			c-0.609,0.26-1.244,0.148-1.417-0.25l-2.555-5.867c-0.174-0.399-0.809-0.51-1.418-0.251c-0.609,0.261-0.962,0.795-0.788,1.194
			l0.603,1.387L85.919,158.535z"/>
		<path id="path-17_21_" style="fill:#DDC100;" d="M99.054,179.121c0.805,1.847,0.485,3.76-0.713,4.271
			c-1.198,0.513-2.822-0.569-3.627-2.416l-4.464-10.251c-0.805-1.846-0.485-3.759,0.713-4.271c1.198-0.512,2.822,0.57,3.625,2.417
			L99.054,179.121z"/>
	</g>
</g>
<g>
</g>
<g>
</g>
<g>
</g>
<g>
</g>
<g>
</g>
<g>
</g>
<g>
</g>
<g>
</g>
<g>
</g>
<g>
</g>
<g>
</g>
<g>
</g>
<g>
</g>
<g>
</g>
<g>
</g>
</svg>
