<?xml version="1.0" encoding="iso-8859-1"?>
<!-- Generator: Adobe Illustrator 19.1.0, SVG Export Plug-In . SVG Version: 6.00 Build 0)  -->
<svg version="1.1" id="Capa_1" xmlns="http://www.w3.org/2000/svg" xmlns:xlink="http://www.w3.org/1999/xlink" x="0px" y="0px"
	 viewBox="0 0 219.404 219.404" style="enable-background:new 0 0 219.404 219.404;" xml:space="preserve">
<g>
	<g id="group-81svg">
		<path id="path-1_148_" style="fill:#142A3B;" d="M7.838,219.404l-7.408-7.339L129.152,84.546l7.408,7.34L7.838,219.404z"/>
		<path id="path-2_148_" style="fill:#FF3A2F;" d="M101.37,126.747l-7.408-7.338l35.19-34.863l7.408,7.34L101.37,126.747z"/>
		<path id="path-3_148_" style="opacity:0.25;fill:#020403;enable-background:new    ;" d="M124.281,104.052l-1.796-12.901
			l6.667-6.605l7.408,7.34L124.281,104.052z"/>
		<path id="path-4_147_" style="fill:#0CB04A;" d="M177.306,132.252L88.405,44.181l16.67-16.513l88.9,88.07L177.306,132.252z"/>
		<path id="path-5_147_" style="opacity:0.35;fill:#020403;enable-background:new    ;" d="M185.641,123.994l-86.095-90.85
			l5.529-5.476l88.9,88.07L185.641,123.994z"/>
		<path id="path-6_145_" style="fill:#FF3A2F;" d="M212.251,135.247L85.381,9.564l6.511-6.451l126.87,125.684L212.251,135.247z"/>
		<path id="path-7_145_" style="fill:#0CB04A;" d="M203.982,53.787l8.295,8.217c1.599,1.585,1.561,4.191-0.085,5.822
			c-1.646,1.63-4.277,1.668-5.877,0.083l-0.385-0.382c-1.599-1.584-4.231-1.547-5.877,0.084c-1.646,1.631-1.684,4.237-0.084,5.821
			L217.8,91.097c1.599,1.585,1.562,4.191-0.085,5.822c-1.645,1.63-4.276,1.668-5.875,0.084l-21.43-21.229l-23.552-23.333
			c-1.599-1.584-1.561-4.19,0.085-5.821c1.646-1.63,4.277-1.668,5.876-0.084l4.949,4.903c1.599,1.584,4.23,1.546,5.876-0.085
			c1.646-1.63,1.684-4.235,0.085-5.82l-23.553-23.333c-1.599-1.584-1.561-4.19,0.085-5.821s4.277-1.668,5.876-0.083l5.567,5.513
			L203.982,53.787z"/>
		<path id="path-8_142_" style="fill:#FBB713;" d="M145.524,11.384l2.472,2.45c0.477,0.473,0.113,1.598-0.812,2.516
			c-0.926,0.917-2.062,1.277-2.539,0.805l-0.115-0.115c-0.477-0.472-1.614-0.111-2.54,0.806c-0.925,0.917-1.288,2.042-0.812,2.514
			l5.316,5.267c0.476,0.473,0.113,1.598-0.812,2.515c-0.926,0.917-2.063,1.278-2.54,0.805l-6.388-6.329l-7.021-6.956
			c-0.477-0.471-0.113-1.598,0.812-2.514c0.926-0.917,2.063-1.278,2.54-0.806l1.475,1.462c0.476,0.472,1.613,0.111,2.539-0.805
			c0.925-0.917,1.289-2.044,0.812-2.515l-7.021-6.956c-0.477-0.472-0.113-1.598,0.813-2.516c0.925-0.916,2.062-1.277,2.539-0.805
			l1.659,1.644L145.524,11.384z"/>
		<path id="path-9_136_" style="fill:#0CB04A;" d="M164.936,197.038h10.695c2.062,0,3.734,1.406,3.734,3.139
			c0,1.735-1.672,3.14-3.734,3.14h-0.498c-2.062,0-3.734,1.406-3.734,3.139c0,1.734,1.672,3.14,3.734,3.14h22.991
			c2.062,0,3.734,1.405,3.734,3.138c0,1.734-1.672,3.14-3.734,3.14h-27.63h-49.687c-2.062,0-3.734-1.406-3.734-3.14
			c0-1.733,1.672-3.138,3.734-3.138h6.381c2.062,0,3.734-1.406,3.734-3.14c0-1.733-1.672-3.139-3.734-3.139H96.82
			c-2.062,0-3.733-1.405-3.733-3.14c0-1.733,1.671-3.139,3.733-3.139h26.497H164.936z"/>
		<path id="path-10_124_" style="fill:#FBB713;" d="M191.7,178.074h3.56c0.687,0,1.244,0.473,1.244,1.058
			c0,0.583-0.557,1.056-1.244,1.056h-0.166c-0.685,0-1.243,0.474-1.243,1.057c0,0.584,0.558,1.057,1.243,1.057h7.655
			c0.686,0,1.243,0.473,1.243,1.057s-0.557,1.057-1.243,1.057h-9.198H177.01c-0.687,0-1.244-0.473-1.244-1.057
			s0.557-1.057,1.244-1.057h2.123c0.687,0,1.244-0.473,1.244-1.057c0-0.583-0.557-1.057-1.244-1.057h-10.109
			c-0.686,0-1.243-0.473-1.243-1.056c0-0.585,0.557-1.058,1.243-1.058h8.821H191.7z"/>
		<path id="path-11_108_" style="fill:#FBB713;" d="M105.247,215.956c1.845,0,3.341-0.938,3.341-2.097
			c0-1.158-1.496-2.097-3.341-2.097h-10.24c-1.846,0-3.343,0.939-3.343,2.097c0,1.159,1.497,2.097,3.343,2.097H105.247z"/>
		<path id="path-12_92_" style="fill:#0CB04A;" d="M68.858,215.956c1.845,0,3.341-0.938,3.341-2.097
			c0-1.158-1.496-2.097-3.341-2.097H58.617c-1.845,0-3.342,0.939-3.342,2.097c0,1.159,1.497,2.097,3.342,2.097H68.858z"/>
	</g>
</g>
<g>
</g>
<g>
</g>
<g>
</g>
<g>
</g>
<g>
</g>
<g>
</g>
<g>
</g>
<g>
</g>
<g>
</g>
<g>
</g>
<g>
</g>
<g>
</g>
<g>
</g>
<g>
</g>
<g>
</g>
</svg>
