<?xml version="1.0" encoding="iso-8859-1"?>
<!-- Generator: Adobe Illustrator 19.1.0, SVG Export Plug-In . SVG Version: 6.00 Build 0)  -->
<svg version="1.1" id="Capa_1" xmlns="http://www.w3.org/2000/svg" xmlns:xlink="http://www.w3.org/1999/xlink" x="0px" y="0px"
	 viewBox="0 0 216.291 216.291" style="enable-background:new 0 0 216.291 216.291;" xml:space="preserve">
<g>
	<g id="group-155svg">
		<path id="path-1_62_" style="fill:#2476FF;" d="M151.221,150.16h26.146c4.607,0,8.341,2.961,8.341,6.613
			c0,3.652-3.734,6.612-8.341,6.612h-1.15h-10.611c-4.607,0-8.341,2.961-8.341,6.614c0,3.652,3.734,6.613,8.341,6.613h25.247
			c4.606,0,8.34,2.961,8.34,6.614c0,3.652-3.734,6.612-8.34,6.612h-28.698l-4.813-0.243c-4.607,0-8.341,2.961-8.341,6.613
			c0,3.653,3.734,6.614,8.341,6.614h25.247c4.606,0,8.34,2.961,8.34,6.613c0,3.653-3.734,6.614-8.34,6.614l-91.803,0.242
			c-4.607,0-8.341-2.961-8.341-6.613c0-3.652,3.734-6.613,8.341-6.613h25.247c4.606,0,8.34-2.961,8.34-6.614
			c0-3.652-3.734-6.613-8.34-6.613H53.295H24.598c-4.607,0-8.341-2.96-8.341-6.612c0-3.653,3.734-6.614,8.341-6.614h25.246
			c4.606,0,8.341-2.961,8.341-6.613c0-3.653-3.735-6.614-8.341-6.614H39.233H10.536c-4.607,0-8.341-2.96-8.341-6.612
			c0-3.652,3.734-6.613,8.341-6.613h53.693H151.221z"/>
		<path id="path-2_62_" style="fill:#FBB713;" d="M145.688,172.974H68.557L41.01,42.439h132.226L145.688,172.974z"/>
		<path id="path-3_62_" style="opacity:0.35;enable-background:new    ;" d="M160.889,102.087
			c-7.139,8.511-14.869,15.337-25.236,19.817v-2.976H86.298v5.8c-13.568-4.086-23.339-10.532-32.204-21.066l0.811,3.841
			c8.324,11.364,17.861,18.676,31.393,23.591v4.662h49.355v-4.73c8.73-3.191,15.317-7.968,22.092-14.041L160.889,102.087z"/>
		<path id="path-4_62_" style="fill:#142A3B;" d="M107.122,119.951c-41.625,0-75.491-33.548-75.491-74.783
			c0-1.283,0.034-2.557,0.1-3.825l0.176-3.42h18.395v7.21H38.909c0,0.012,0,0.023,0,0.035c0,37.259,30.6,67.574,68.213,67.574
			s68.213-30.315,68.213-67.574c0-0.012,0-0.023,0-0.035h-5.887v-7.21h12.896l0.171,3.426c0.064,1.266,0.098,2.537,0.098,3.819
			C182.613,86.403,148.747,119.951,107.122,119.951z"/>
		<path id="path-5_62_" style="fill:#FF3A2F;" d="M131.8,120.49H82.445v-16.828H131.8V120.49z"/>
		<path id="path-6_61_" style="fill:#2476FF;" d="M155.176,26.233c-4.425,0-8.474,1.674-11.614,4.443
			c-3.963-8.243-12.088-13.912-21.494-13.912c-12.172,0-22.207,9.478-23.825,21.774c-2.306-4.689-6.917-7.928-12.294-7.928
			c-2.71,0-5.22,0.848-7.356,2.255c-3.313-4.054-8.222-6.632-13.713-6.632c-9.974,0-18.059,8.477-18.059,18.933h126.415
			C173.236,34.71,165.15,26.233,155.176,26.233z"/>
		<path id="path-7_61_" style="fill:#EFEFEF;" d="M107.124,39.832c-0.078,0-0.159-0.005-0.236-0.016
			c-0.997-0.128-1.701-1.033-1.569-2.018c1.332-10.131,9.727-17.768,19.527-17.768c7.503,0,14.258,4.359,17.632,11.377
			c0.432,0.9,0.047,1.975-0.861,2.402c-0.912,0.429-1.994,0.047-2.425-0.852c-2.763-5.75-8.261-9.322-14.346-9.322
			c-7.978,0-14.821,6.288-15.92,14.628C108.807,39.17,108.025,39.832,107.124,39.832z"/>
		<path id="path-8_60_" style="fill:#EFEFEF;" d="M51.883,45.173c-0.918,0-1.705-0.684-1.807-1.608
			c-0.639-5.875,3.049-11.306,8.58-12.63c0.981-0.234,1.962,0.36,2.197,1.328c0.236,0.969-0.364,1.942-1.34,2.177
			c-3.761,0.9-6.263,4.657-5.819,8.739c0.108,0.989-0.615,1.876-1.613,1.983C52.013,45.17,51.947,45.173,51.883,45.173z"/>
		<path id="path-9_57_" style="fill:#2476FF;" d="M214.096,41.529c0,6.406-5.242,11.598-11.707,11.598
			c-6.466,0-11.708-5.192-11.708-11.598c0-6.405,5.242-11.598,11.708-11.598C208.854,29.931,214.096,35.124,214.096,41.529z"/>
		<path id="path-10_52_" style="fill:#2476FF;" d="M27.584,26.372c0,4.69-3.839,8.493-8.574,8.493c-4.734,0-8.573-3.803-8.573-8.493
			c0-4.691,3.839-8.494,8.573-8.494C23.745,17.878,27.584,21.681,27.584,26.372z"/>
		<path id="path-11_44_" style="fill:#FFFFFF;" d="M21.147,24.215c0,2.23-1.824,4.038-4.074,4.038c-2.251,0-4.075-1.808-4.075-4.038
			c0-2.229,1.824-4.035,4.075-4.035C19.323,20.18,21.147,21.986,21.147,24.215z"/>
		<path id="path-12_37_" style="fill:#FFFFFF;" d="M210.539,38.03c0,2.23-1.825,4.036-4.076,4.036c-2.25,0-4.074-1.806-4.074-4.036
			c0-2.229,1.824-4.036,4.074-4.036C208.714,33.994,210.539,35.801,210.539,38.03z"/>
		<path id="path-13_31_" style="fill:#2476FF;" d="M69.361,7.234c0,3.995-3.269,7.233-7.302,7.233s-7.303-3.238-7.303-7.233
			c0-3.996,3.27-7.234,7.303-7.234S69.361,3.238,69.361,7.234z"/>
		<path id="path-14_26_" style="fill:#2476FF;" d="M177.023,11.057c0,2.071-1.696,3.751-3.787,3.751
			c-2.093,0-3.789-1.68-3.789-3.751c0-2.073,1.696-3.752,3.789-3.752C175.327,7.305,177.023,8.984,177.023,11.057z"/>
		<path id="path-15_24_" style="opacity:0.35;fill:#010101;enable-background:new    ;" d="M150.503,150.16l-4.815,22.814H68.557
			v4.895l75.593,2.583c3.038,0.104,5.751-2.145,6.592-5.464l10.147-24.828H150.503z"/>
	</g>
</g>
<g>
</g>
<g>
</g>
<g>
</g>
<g>
</g>
<g>
</g>
<g>
</g>
<g>
</g>
<g>
</g>
<g>
</g>
<g>
</g>
<g>
</g>
<g>
</g>
<g>
</g>
<g>
</g>
<g>
</g>
</svg>
