<?xml version="1.0" encoding="iso-8859-1"?>
<!-- Generator: Adobe Illustrator 19.1.0, SVG Export Plug-In . SVG Version: 6.00 Build 0)  -->
<svg version="1.1" id="Capa_1" xmlns="http://www.w3.org/2000/svg" xmlns:xlink="http://www.w3.org/1999/xlink" x="0px" y="0px"
	 viewBox="0 0 217.229 217.229" style="enable-background:new 0 0 217.229 217.229;" xml:space="preserve">
<g>
	<g id="group-157svg">
		<path id="path-1_64_" style="fill:#142A3B;" d="M65.811,189.678H46.748c-3.676,0-6.656,1.705-6.656,3.81
			c0,2.104,2.98,3.811,6.656,3.811h0.887c3.676,0,6.655,1.706,6.655,3.81c0,2.105-2.979,3.811-6.655,3.811H6.655
			C2.979,204.92,0,206.626,0,208.73c0,2.105,2.979,3.81,6.655,3.81h49.248h100.661c3.675,0,6.655-1.705,6.655-3.81
			c0-2.105-2.98-3.811-6.655-3.811H145.19c-3.675,0-6.655-1.706-6.655-3.811c0-2.104,2.98-3.81,6.655-3.81h44.669
			c3.676,0,6.656-1.707,6.656-3.811c0-2.105-2.98-3.81-6.656-3.81h-3.333H65.811z"/>
		<path id="path-2_64_" style="fill:#142A3B;" d="M194.551,213.562c-3.081,0-5.58-1.829-5.58-4.085c0-2.255,2.499-4.082,5.58-4.082
			h17.098c3.082,0,5.58,1.827,5.58,4.082c0,2.256-2.498,4.085-5.58,4.085H194.551z"/>
		<path id="path-3_64_" style="fill:#142A3B;" d="M43.574,92.47c-0.947,0-1.912-0.187-2.839-0.582l-21.226-9.062
			c-3.678-1.57-5.386-5.825-3.817-9.502c1.57-3.677,5.833-5.387,9.503-3.817l21.226,9.062c3.679,1.57,5.386,5.825,3.816,9.501
			C49.063,90.822,46.387,92.47,43.574,92.47z"/>
		<path id="path-4_64_" style="fill:#142A3B;" d="M28.079,181.188c-2.812,0-5.488-1.649-6.662-4.4
			c-1.57-3.677,0.138-7.932,3.817-9.502l21.226-9.061c3.675-1.571,7.932,0.139,9.502,3.817c1.57,3.676-0.138,7.932-3.817,9.501
			l-21.226,9.062C29.992,181.001,29.027,181.188,28.079,181.188z"/>
		<path id="path-5_63_" style="fill:#142A3B;" d="M16.536,132.549c-3.926,0-7.149-3.14-7.236-7.085
			c-0.086-3.998,3.083-7.309,7.082-7.395l23.076-0.502c4.021-0.112,7.309,3.084,7.396,7.08c0.086,4-3.083,7.311-7.082,7.397
			l-23.075,0.503C16.643,132.549,16.589,132.549,16.536,132.549z"/>
		<path id="path-6_61_" style="fill:#142A3B;" d="M159.638,92.47c-2.812,0-5.489-1.648-6.662-4.4
			c-1.57-3.676,0.138-7.931,3.817-9.501l21.226-9.062c3.671-1.573,7.931,0.139,9.502,3.817c1.569,3.677-0.139,7.932-3.818,9.502
			l-21.225,9.062C161.551,92.284,160.586,92.47,159.638,92.47z"/>
		<path id="path-7_60_" style="fill:#142A3B;" d="M175.133,181.188c-0.947,0-1.913-0.187-2.839-0.583l-21.224-9.062
			c-3.679-1.569-5.387-5.825-3.817-9.501c1.57-3.676,5.827-5.388,9.502-3.817l21.224,9.061c3.679,1.57,5.387,5.825,3.817,9.502
			C180.622,179.538,177.946,181.188,175.133,181.188z"/>
		<path id="path-8_46_" style="fill:#142A3B;" d="M186.679,132.549c-0.053,0-0.108,0-0.161-0.002l-23.075-0.503
			c-3.999-0.086-7.169-3.397-7.082-7.397c0.087-3.996,3.357-7.224,7.396-7.08l23.075,0.502c3.999,0.086,7.169,3.397,7.082,7.395
			C193.828,129.409,190.604,132.549,186.679,132.549z"/>
		<path id="path-9_39_" style="fill:#FF3A2F;" d="M167.357,112.655c0,46.23-29.631,83.708-66.182,83.708
			c-36.552,0-66.182-37.478-66.182-83.708c0-46.231,29.63-83.709,66.182-83.709C137.726,28.946,167.357,66.424,167.357,112.655z"/>
		<path id="path-10_35_" style="fill:#EDEDED;" d="M58.24,157.592c-1.228,0-2.425-0.624-3.104-1.752
			c-7.543-12.522-11.53-27.457-11.53-43.184c0-11.171,1.993-21.875,5.924-31.813c0.734-1.86,2.834-2.77,4.697-2.036
			c1.86,0.735,2.77,2.839,2.035,4.698c-3.592,9.089-5.415,18.895-5.415,29.151c0,14.412,3.627,28.052,10.49,39.447
			c1.033,1.713,0.481,3.939-1.232,4.969C59.521,157.424,58.877,157.592,58.24,157.592z"/>
		<path id="path-11_28_" style="opacity:0.35;fill:#090908;enable-background:new    ;" d="M59.692,61.861
			c8.983,14.557,24.63,21.391,31.954,23.754v96.131l3.504-0.657V86.635l-0.304-6.446C71.92,76.985,59.692,61.861,59.692,61.861z"/>
		<path id="path-12_24_" style="fill:#EDEDED;" d="M149.446,53.812c-12.074-16.469-29.228-26.774-48.271-26.774
			c-19.044,0-36.197,10.305-48.271,26.774C63.637,68.451,78.386,78.2,94.905,80.189h-0.059v116.174h14.319V80.189h1.784
			C127.468,78.2,138.713,68.451,149.446,53.812z"/>
		<path id="path-13_19_" style="opacity:0.35;fill:#090908;enable-background:new    ;" d="M124.14,52.531
			c-0.735,0-1.475-0.223-2.117-0.686c-1.622-1.172-1.983-3.436-0.813-5.056l5.006-6.922c1.174-1.622,3.437-1.983,5.056-0.813
			c1.621,1.172,1.983,3.436,0.813,5.055l-5.006,6.923C126.37,52.012,125.263,52.531,124.14,52.531z"/>
		<path id="path-14_16_" style="opacity:0.35;fill:#090908;enable-background:new    ;" d="M88.665,47.227
			c-1.362,0-2.666-0.77-3.282-2.087l-3.619-7.739c-0.846-1.811-0.065-3.965,1.747-4.812c1.805-0.842,3.967-0.069,4.812,1.747
			l3.619,7.738c0.846,1.81,0.065,3.965-1.747,4.813C89.7,47.117,89.179,47.227,88.665,47.227z"/>
		<path id="path-15_15_" style="opacity:0.35;fill:#090908;enable-background:new    ;" d="M146.716,5.541
			c1.174,1.822,1.873,3.979,1.873,6.308c0,6.454-5.232,11.686-11.686,11.686c-2.328,0-4.487-0.7-6.308-1.874
			c2.079,3.228,5.687,5.377,9.812,5.377c6.454,0,11.686-5.232,11.686-11.685C152.093,11.228,149.943,7.62,146.716,5.541z"/>
		<path id="path-16_12_" style="opacity:0.35;fill:#090908;enable-background:new    ;" d="M127.285,35.725
			c6.781,7.529,11.825,15.702,15.726,26.136c-14.29,14.899-25.005,17.974-33.846,18.329v6.446h2.382
			c12.449,0,34.633-12.257,33.425-19.22c3.084,9.662,4.867,20.164,4.867,31.226c0,46.23-29.631,83.708-66.182,83.708
			c-9.274,0-18.099-2.422-26.111-6.779c11.65,12.934,26.909,20.793,43.629,20.793c36.551,0,66.182-37.478,66.182-83.708
			C167.357,78.153,150.851,48.537,127.285,35.725z"/>
		<path id="path-17_10_" style="fill:#142A3B;" d="M122.991,48.686c-0.975,0-1.965-0.263-2.856-0.815
			c-2.549-1.581-3.334-4.928-1.754-7.477l16.218-26.161c1.577-2.548,4.927-3.33,7.478-1.754c2.549,1.58,3.334,4.928,1.753,7.478
			l-16.217,26.16C126.585,47.775,124.809,48.686,122.991,48.686z"/>
		<path id="path-18_9_" style="fill:#142A3B;" d="M81.982,48.686c-1.817,0-3.594-0.911-4.621-2.569l-16.218-26.16
			c-1.581-2.55-0.795-5.898,1.754-7.478c2.549-1.576,5.899-0.794,7.477,1.754l16.218,26.161c1.581,2.549,0.796,5.896-1.753,7.477
			C83.948,48.423,82.958,48.686,81.982,48.686z"/>
		<path id="path-19_7_" style="fill:#142A3B;" d="M152.093,15.353c0,6.453-5.232,11.685-11.686,11.685
			c-6.454,0-11.686-5.232-11.686-11.685c0-6.454,5.232-11.686,11.686-11.686C146.861,3.667,152.093,8.899,152.093,15.353z"/>
		<path id="path-20_6_" style="fill:#142A3B;" d="M74.821,15.353c0,6.453-5.232,11.685-11.686,11.685s-11.686-5.232-11.686-11.685
			c0-6.454,5.232-11.686,11.686-11.686S74.821,8.899,74.821,15.353z"/>
		<path id="path-21_4_" style="fill:#EDEDED;" d="M59.639,15.353c0,1.938-1.572,3.51-3.511,3.51s-3.511-1.572-3.511-3.51
			c0-1.94,1.572-3.511,3.511-3.511S59.639,13.413,59.639,15.353z"/>
		<path id="path-22_4_" style="fill:#EDEDED;" d="M140.407,11.842c0,1.939-1.572,3.511-3.511,3.511
			c-1.939,0-3.511-1.572-3.511-3.511c0-1.94,1.572-3.511,3.511-3.511C138.835,8.331,140.407,9.902,140.407,11.842z"/>
		<path id="path-23_4_" style="opacity:0.35;fill:#090908;enable-background:new    ;" d="M63.135,3.668
			c-0.6,0-1.176,0.088-1.752,0.175c5.617,0.851,9.934,5.656,9.934,11.51c0,5.852-4.317,10.658-9.934,11.508
			c0.576,0.088,1.152,0.177,1.752,0.177c6.454,0,11.686-5.232,11.686-11.685C74.821,8.899,69.589,3.668,63.135,3.668z"/>
	</g>
</g>
<g>
</g>
<g>
</g>
<g>
</g>
<g>
</g>
<g>
</g>
<g>
</g>
<g>
</g>
<g>
</g>
<g>
</g>
<g>
</g>
<g>
</g>
<g>
</g>
<g>
</g>
<g>
</g>
<g>
</g>
</svg>
