<?xml version="1.0" encoding="iso-8859-1"?>
<!-- Generator: Adobe Illustrator 19.1.0, SVG Export Plug-In . SVG Version: 6.00 Build 0)  -->
<svg version="1.1" id="Capa_1" xmlns="http://www.w3.org/2000/svg" xmlns:xlink="http://www.w3.org/1999/xlink" x="0px" y="0px"
	 viewBox="0 0 217.228 217.228" style="enable-background:new 0 0 217.228 217.228;" xml:space="preserve">
<g>
	<g id="group-76svg">
		<path id="path-1_134_" style="fill:#FF3A2F;" d="M83.337,192.095H67.923c-2.972,0-5.381,1.646-5.381,3.678
			s2.409,3.677,5.381,3.677h0.718c2.972,0,5.381,1.648,5.381,3.681c0,2.03-2.409,3.677-5.381,3.677H35.505
			c-2.972,0-5.381,1.648-5.381,3.678c0,2.032,2.409,3.679,5.381,3.679h39.821h81.392c2.972,0,5.381-1.647,5.381-3.679
			c0-2.03-2.409-3.678-5.381-3.678h-9.196c-2.972,0-5.381-1.647-5.381-3.677c0-2.033,2.409-3.681,5.381-3.681h36.118
			c2.973,0,5.382-1.645,5.382-3.677s-2.409-3.678-5.382-3.678h-2.695H83.337z"/>
		<path id="path-2_134_" style="fill:#FF3A2F;" d="M178.935,215.15c-2.492,0-4.511-1.765-4.511-3.942s2.019-3.943,4.511-3.943
			h13.825c2.492,0,4.512,1.766,4.512,3.943s-2.02,3.942-4.512,3.942H178.935z"/>
		<path id="path-3_134_" style="fill:#142A3B;" d="M83.98,60.861H43.669V6.203c0-2.279,1.847-4.125,4.125-4.125h32.061
			c2.278,0,4.125,1.846,4.125,4.125V60.861z"/>
		<path id="path-4_134_" style="fill:#FBB713;" d="M111.249,200.264H16.4c-9.058,0-16.4-7.343-16.4-16.4V72.223
			c0-9.058,7.342-16.4,16.4-16.4h94.849c9.058,0,16.401,7.342,16.401,16.4v111.642C127.65,192.921,120.307,200.264,111.249,200.264z
			"/>
		<path id="path-5_133_" style="opacity:0.35;enable-background:new    ;" d="M75.942,3.396c0.825,1.775,1.32,3.733,1.32,5.819
			V49.53l-33.593,3.358v3.359H83.98V15.934C83.98,10.367,80.677,5.6,75.942,3.396z"/>
		<path id="path-6_130_" style="opacity:0.25;enable-background:new    ;" d="M119.612,57.142c0.825,1.775,1.319,3.734,1.319,5.819
			v116.728c0,7.654-6.204,13.857-13.856,13.857H7.138c-2.086,0-4.045-0.494-5.818-1.319c2.203,4.734,6.97,8.037,12.537,8.037h99.936
			c7.653,0,13.857-6.203,13.857-13.856V69.679C127.65,64.112,124.347,59.346,119.612,57.142z"/>
		<path id="path-7_127_" style="fill:#FFFFFF;" d="M72.222,23.912c0,4.638-3.759,8.398-8.397,8.398s-8.398-3.76-8.398-8.398
			c0-4.639,3.76-8.398,8.398-8.398S72.222,19.273,72.222,23.912z"/>
		<path id="path-8_104_" style="opacity:0.35;enable-background:new    ;" d="M71.172,19.924c0.649,1.191,1.05,2.536,1.05,3.988
			c0,4.638-3.759,8.398-8.397,8.398c-1.452,0-2.797-0.402-3.988-1.051c1.423,2.614,4.161,4.409,7.347,4.409
			c4.638,0,8.398-3.76,8.398-8.397C75.582,24.084,73.786,21.346,71.172,19.924z"/>
		<path id="path-9_90_" style="fill:#142A3B;" d="M171.879,180.108h-21.835v-70.54h21.835V180.108z"/>
		<path id="path-10_82_" style="opacity:0.35;enable-background:new    ;" d="M171.879,118.282l-21.835,9.237v-17.95h21.835V118.282
			z"/>
		<path id="path-11_71_" style="fill:#FBB713;" d="M217.228,109.569h-67.184V38.414c0-20.068,16.269-36.336,36.338-36.336h30.846
			V109.569z"/>
		<path id="path-12_61_" style="opacity:0.25;enable-background:new    ;" d="M193.713,2.078h-6.717
			c-20.408,0-36.952,16.543-36.952,36.949v70.542h6.719V39.027C156.763,18.621,173.306,2.078,193.713,2.078z"/>
		<path id="path-13_48_" style="fill:#FFFFFF;" d="M180.277,31.469c0,4.638-3.76,8.398-8.398,8.398s-8.398-3.76-8.398-8.398
			c0-4.637,3.76-8.397,8.398-8.397S180.277,26.832,180.277,31.469z"/>
		<path id="path-14_40_" style="opacity:0.35;enable-background:new    ;" d="M166.841,34.829c0-4.638,3.76-8.398,8.398-8.398
			c1.451,0,2.796,0.402,3.988,1.051c-1.423-2.615-4.162-4.41-7.348-4.41c-4.638,0-8.398,3.76-8.398,8.397
			c0,3.187,1.795,5.925,4.41,7.348C167.242,37.626,166.841,36.28,166.841,34.829z"/>
		<path id="path-15_33_" style="fill:#FF3A2F;" d="M64.706,97.887v-5.3c0-1.021-1.565-1.85-3.498-1.85
			c-1.932,0-3.498,0.829-3.498,1.85v0.247c0,1.022-1.566,1.85-3.498,1.85s-3.499-0.828-3.499-1.85V81.44
			c0-1.021-1.566-1.848-3.498-1.848c-1.933,0-3.498,0.827-3.498,1.848v13.692v27.986c0,1.022,1.565,1.85,3.498,1.85
			c1.932,0,3.498-0.828,3.498-1.85v-3.162c0-1.021,1.567-1.849,3.499-1.849s3.498,0.828,3.498,1.849v15.048
			c0,1.022,1.566,1.851,3.498,1.851c1.933,0,3.498-0.829,3.498-1.851v-3.556V97.887z"/>
		<path id="path-16_25_" style="fill:#FF3A2F;" d="M29.882,100.134v-2.602c0-0.501-0.769-0.909-1.717-0.909
			c-0.949,0-1.718,0.408-1.718,0.909v0.121c0,0.501-0.769,0.908-1.718,0.908c-0.949,0-1.718-0.407-1.718-0.908v-5.594
			c0-0.502-0.769-0.908-1.717-0.908c-0.949,0-1.718,0.406-1.718,0.908v6.723v13.741c0,0.502,0.769,0.908,1.718,0.908
			c0.948,0,1.717-0.406,1.717-0.908v-1.554c0-0.501,0.769-0.908,1.718-0.908c0.949,0,1.718,0.407,1.718,0.908v7.39
			c0,0.501,0.769,0.908,1.718,0.908c0.948,0,1.717-0.407,1.717-0.908v-1.747V100.134z"/>
		<path id="path-17_22_" style="fill:#FF3A2F;" d="M43.942,143.395c0-2.654,1.727-4.807,3.856-4.807
			c2.129,0,3.855,2.153,3.855,4.807v14.731c0,2.655-1.726,4.807-3.855,4.807c-2.129,0-3.856-2.152-3.856-4.807V143.395z"/>
		<path id="path-18_14_" style="fill:#FF3A2F;" d="M82.248,100.56c0-2.762,1.796-5.001,4.011-5.001c2.216,0,4.011,2.239,4.011,5.001
			v15.325c0,2.763-1.795,5.002-4.011,5.002c-2.215,0-4.011-2.239-4.011-5.002V100.56z"/>
		<path id="path-19_12_" style="fill:#EDEDED;" d="M208.056,83.005c-1.999,0-3.62-1.621-3.62-3.621V25.592
			c0-2,1.621-3.622,3.62-3.622c2,0,3.621,1.622,3.621,3.622v53.792C211.677,81.384,210.056,83.005,208.056,83.005z"/>
	</g>
</g>
<g>
</g>
<g>
</g>
<g>
</g>
<g>
</g>
<g>
</g>
<g>
</g>
<g>
</g>
<g>
</g>
<g>
</g>
<g>
</g>
<g>
</g>
<g>
</g>
<g>
</g>
<g>
</g>
<g>
</g>
</svg>
