<?xml version="1.0" encoding="iso-8859-1"?>
<!-- Generator: Adobe Illustrator 19.1.0, SVG Export Plug-In . SVG Version: 6.00 Build 0)  -->
<svg version="1.1" id="Capa_1" xmlns="http://www.w3.org/2000/svg" xmlns:xlink="http://www.w3.org/1999/xlink" x="0px" y="0px"
	 viewBox="0 0 218.332 218.332" style="enable-background:new 0 0 218.332 218.332;" xml:space="preserve">
<g>
	<g id="group-149svg">
		<path id="path-1_55_" style="fill:#FBB713;" d="M70.78,189.672h14.411c2.779,0,5.031,1.002,5.031,2.239
			c0,1.235-2.252,2.238-5.031,2.238H84.52c-2.778,0-5.031,1.002-5.031,2.237c0,1.237,2.253,2.239,5.031,2.239h30.98
			c2.778,0,5.03,1.002,5.03,2.237c0,1.236-2.252,2.238-5.03,2.238H78.27H37.351c-2.778,0-5.03-1.002-5.03-2.238
			c0-1.235,2.252-2.237,5.03-2.237h8.598c2.779,0,5.031-1.002,5.031-2.239c0-1.235-2.252-2.237-5.031-2.237H5.031
			c-2.779,0-5.031-1.003-5.031-2.238c0-1.237,2.252-2.239,5.031-2.239h9.671H70.78z"/>
		<path id="path-2_55_" style="fill:#FBB713;" d="M159.975,205.036c3.172,0,5.744-1.145,5.744-2.556
			c0-1.411-2.572-2.554-5.744-2.554h-17.604c-3.172,0-5.744,1.143-5.744,2.554c0,1.411,2.572,2.556,5.744,2.556H159.975z"/>
		<path id="path-3_55_" style="fill:#FBB713;" d="M171.481,13.295h6.617c1.276,0,2.309,0.569,2.309,1.27s-1.033,1.269-2.309,1.269
			h-0.309c-1.275,0-2.309,0.569-2.309,1.27s1.034,1.27,2.309,1.27h14.226c1.276,0,2.31,0.568,2.31,1.269
			c0,0.702-1.034,1.269-2.31,1.269H174.92h-34.942c-1.276,0-2.31-0.567-2.31-1.269c0-0.701,1.034-1.269,2.31-1.269h3.948
			c1.276,0,2.31-0.569,2.31-1.27s-1.034-1.27-2.31-1.27h-18.789c-1.276,0-2.31-0.568-2.31-1.269s1.034-1.27,2.31-1.27h4.44H171.481z
			"/>
		<path id="path-4_55_" style="fill:#FBB713;" d="M195.488,113.921h6.617c1.276,0,2.31,0.567,2.31,1.269
			c0,0.701-1.034,1.269-2.31,1.269h-0.308c-1.276,0-2.31,0.569-2.31,1.27c0,0.701,1.034,1.27,2.31,1.27h14.225
			c1.276,0,2.31,0.568,2.31,1.269c0,0.702-1.034,1.27-2.31,1.27h-17.095h-34.941c-1.277,0-2.311-0.568-2.311-1.27
			c0-0.701,1.034-1.269,2.311-1.269h3.948c1.276,0,2.309-0.569,2.309-1.27c0-0.701-1.033-1.27-2.309-1.27h-18.79
			c-1.275,0-2.31-0.568-2.31-1.269c0-0.702,1.035-1.269,2.31-1.269h4.441H195.488z"/>
		<path id="path-5_55_" style="fill:#FF3A2F;" d="M150.854,32.613c-18.093-17.924-47.429-17.924-65.521,0
			C71.948,45.873,68.494,65.218,74.912,81.651c-16.586-6.358-36.116-2.935-49.499,10.324c-18.094,17.923-18.094,46.983,0,64.907
			c13.815,13.687,34.171,16.889,51.086,9.673c1.422,5.721,4.352,11.151,8.864,15.62c13.18,13.058,34.55,13.058,47.731,0
			c9.72-9.629,12.248-23.666,7.629-35.61c12.06,4.573,26.228,2.069,35.949-7.56c13.181-13.059,13.181-34.228,0-47.285
			c-4.548-4.506-10.079-7.419-15.905-8.814C167.868,66.212,164.581,46.212,150.854,32.613z"/>
		<path id="path-6_54_" style="opacity:0.3;fill:#020403;enable-background:new    ;" d="M133.094,165.725
			c-13.181,13.059-34.551,13.058-47.731,0c-4.512-4.47-7.442-9.899-8.864-15.619c-16.915,7.213-37.272,4.013-51.086-9.674
			c-6.926-6.859-11.177-15.355-12.801-24.228c-2.62,14.311,1.632,29.615,12.801,40.678c13.814,13.687,34.171,16.889,51.086,9.674
			c1.422,5.72,4.352,11.15,8.864,15.619c13.18,13.058,34.55,13.058,47.731,0c8.728-8.646,11.606-20.835,8.77-31.884
			C140.429,155.939,137.557,161.303,133.094,165.725z"/>
		<path id="path-7_54_" style="opacity:0.3;fill:#020403;enable-background:new    ;" d="M176.672,122.554
			c-9.72,9.63-23.889,12.134-35.948,7.559c2.101,5.436,2.645,11.297,1.783,16.986c11.656,3.701,24.915,1.07,34.165-8.094
			c8.721-8.641,11.635-20.824,8.814-31.868C184.045,112.784,181.132,118.138,176.672,122.554z"/>
		<path id="path-8_54_" style="fill:#142A3B;" d="M74.91,85.256c-0.801,0-1.606-0.26-2.277-0.795
			c-23.459-18.687-18.07-58.388-17.83-60.068c0.282-1.972,2.141-3.344,4.112-3.061c1.989,0.278,3.374,2.101,3.095,4.071
			c-0.054,0.372-5.034,37.333,15.182,53.439c1.567,1.249,1.816,3.517,0.556,5.067C77.028,84.797,75.975,85.256,74.91,85.256z"/>
		<path id="path-9_51_" style="fill:#142A3B;" d="M76.092,84.087c-1.064,0-2.118-0.459-2.838-1.345
			C56.96,62.666,19.688,67.651,19.315,67.701c-1.992,0.278-3.832-1.091-4.115-3.063c-0.282-1.971,1.101-3.796,3.091-4.076
			c1.699-0.237,41.777-5.576,60.636,17.661c1.259,1.551,1.01,3.82-0.556,5.069C77.698,83.826,76.894,84.087,76.092,84.087z"/>
		<path id="path-10_46_" style="fill:#EDEDED;" d="M121.812,60.099c-3.195-3.164-8.374-3.164-11.569,0
			c-3.195,3.164-3.195,8.295,0,11.46s8.374,3.165,11.569,0S125.007,63.264,121.812,60.099z"/>
		<path id="path-11_40_" style="fill:#EDEDED;" d="M63.104,118.26c-3.194-3.166-8.374-3.166-11.569,0
			c-3.195,3.164-3.195,8.294,0,11.46c3.195,3.164,8.375,3.164,11.569,0C66.299,126.554,66.299,121.424,63.104,118.26z"/>
	</g>
</g>
<g>
</g>
<g>
</g>
<g>
</g>
<g>
</g>
<g>
</g>
<g>
</g>
<g>
</g>
<g>
</g>
<g>
</g>
<g>
</g>
<g>
</g>
<g>
</g>
<g>
</g>
<g>
</g>
<g>
</g>
</svg>
