<?xml version="1.0" encoding="iso-8859-1"?>
<!-- Generator: Adobe Illustrator 19.1.0, SVG Export Plug-In . SVG Version: 6.00 Build 0)  -->
<svg version="1.1" id="Capa_1" xmlns="http://www.w3.org/2000/svg" xmlns:xlink="http://www.w3.org/1999/xlink" x="0px" y="0px"
	 viewBox="0 0 217.229 217.229" style="enable-background:new 0 0 217.229 217.229;" xml:space="preserve">
<g>
	<g id="group-93svg">
		<path id="path-1_153_" style="fill:#FF3A2F;" d="M119.857,166.269h-13.173c-2.54,0-4.598,1.558-4.598,3.481
			c0,1.922,2.058,3.481,4.598,3.481h0.614c2.539,0,4.598,1.557,4.598,3.48c0,1.922-2.059,3.481-4.598,3.481H78.979
			c-2.54,0-4.599,1.558-4.599,3.48c0,1.922,2.059,3.481,4.599,3.481h34.031h69.561c2.539,0,4.599-1.559,4.599-3.481
			c0-1.922-2.06-3.48-4.599-3.48h-7.859c-2.54,0-4.6-1.559-4.6-3.481c0-1.923,2.06-3.48,4.6-3.48h30.867
			c2.54,0,4.599-1.559,4.599-3.481c0-1.923-2.059-3.481-4.599-3.481h-2.303H119.857z"/>
		<path id="path-2_153_" style="fill:#FF3A2F;" d="M201.557,188.085c-2.128,0-3.855-1.67-3.855-3.73s1.727-3.731,3.855-3.731h11.816
			c2.129,0,3.856,1.671,3.856,3.731s-1.727,3.73-3.856,3.73H201.557z"/>
		<path id="path-3_153_" style="fill:#FF3A2F;" d="M38.31,188.085c-2.13,0-3.856-1.67-3.856-3.73s1.726-3.731,3.856-3.731h11.815
			c2.129,0,3.856,1.671,3.856,3.731s-1.727,3.73-3.856,3.73H38.31z"/>
		<path id="path-4_153_" style="fill:#0CB04A;" d="M87.47,96.787h-4.697V49.946h4.697V96.787z"/>
		<path id="path-5_152_" style="fill:#0CB04A;" d="M52.338,96.787h-4.697V49.946h4.697V96.787z"/>
		<path id="path-6_149_" style="fill:#0CB04A;" d="M122.601,96.787h-4.696V49.946h4.696V96.787z"/>
		<path id="path-7_145_" style="fill:#FBB713;" d="M59.183,46.332c0,5.078-4.115,9.194-9.194,9.194
			c-5.077,0-9.193-4.116-9.193-9.194s9.193-17.188,9.193-17.188S59.183,41.254,59.183,46.332z"/>
		<path id="path-8_121_" style="fill:#FBB713;" d="M129.447,46.332c0,5.078-4.117,9.194-9.194,9.194
			c-5.078,0-9.194-4.116-9.194-9.194s9.194-17.188,9.194-17.188S129.447,41.254,129.447,46.332z"/>
		<path id="path-9_106_" style="fill:#FBB713;" d="M94.315,46.332c0,5.078-4.116,9.194-9.193,9.194
			c-5.078,0-9.195-4.116-9.195-9.194s9.195-17.188,9.195-17.188S94.315,41.254,94.315,46.332z"/>
		<path id="path-10_95_" style="fill:#FF3A2F;" d="M159.264,163.926v-35.673c0-20.827-12.933-37.709-28.886-37.709H44.5
			c-15.953,0-28.886,16.882-28.886,37.709v35.673H159.264z"/>
		<path id="path-11_82_" style="fill:#EDEDED;" d="M25.27,131.617c-1.999,0-3.62-1.62-3.62-3.621
			c0-17.546,11.315-31.821,25.223-31.821c1.999,0,3.62,1.621,3.62,3.621c0,1.999-1.621,3.62-3.62,3.62
			c-9.916,0-17.982,11.027-17.982,24.58C28.891,129.997,27.27,131.617,25.27,131.617z"/>
		<path id="path-12_72_" style="opacity:0.35;fill:#010101;enable-background:new    ;" d="M130.378,90.543h-14.053
			c15.954,0,28.886,16.882,28.886,37.709v16.022l-129.597,8.722l143.65,10.929v-35.673
			C159.264,107.425,146.331,90.543,130.378,90.543z"/>
		<path id="path-13_56_" style="fill:#142A3B;" d="M174.878,170.172H0v-17.175h174.878V170.172z"/>
		<path id="path-14_46_" style="opacity:0.35;fill:#010101;enable-background:new    ;" d="M160.825,152.997v17.175h14.053v-17.175
			H160.825z"/>
	</g>
</g>
<g>
</g>
<g>
</g>
<g>
</g>
<g>
</g>
<g>
</g>
<g>
</g>
<g>
</g>
<g>
</g>
<g>
</g>
<g>
</g>
<g>
</g>
<g>
</g>
<g>
</g>
<g>
</g>
<g>
</g>
</svg>
