<?xml version="1.0" encoding="iso-8859-1"?>
<!-- Generator: Adobe Illustrator 19.1.0, SVG Export Plug-In . SVG Version: 6.00 Build 0)  -->
<svg version="1.1" id="Capa_1" xmlns="http://www.w3.org/2000/svg" xmlns:xlink="http://www.w3.org/1999/xlink" x="0px" y="0px"
	 viewBox="0 0 217.229 217.229" style="enable-background:new 0 0 217.229 217.229;" xml:space="preserve">
<g>
	<g id="group-88svg">
		<path id="path-1_147_" style="fill:#FF3A2F;" d="M93.951,144.997h-17.25c-3.326,0-6.022,1.967-6.022,4.391
			c0,2.425,2.696,4.39,6.022,4.39h0.803c3.326,0,6.022,1.965,6.022,4.389c0,2.425-2.696,4.39-6.022,4.39H40.422
			c-3.326,0-6.022,1.965-6.022,4.389c0,2.426,2.696,4.391,6.022,4.391h44.563h91.086c3.326,0,6.021-1.965,6.021-4.391
			c0-2.424-2.695-4.389-6.021-4.389h-10.292c-3.326,0-6.022-1.965-6.022-4.39c0-2.424,2.696-4.389,6.022-4.389H206.2
			c3.325,0,6.022-1.965,6.022-4.39c0-2.424-2.697-4.391-6.022-4.391h-3.017H93.951z"/>
		<path id="path-2_147_" style="fill:#FF3A2F;" d="M199.987,171.731c-2.343,0-4.242-1.389-4.242-3.104
			c0-1.716,1.899-3.106,4.242-3.106h12.999c2.344,0,4.243,1.39,4.243,3.106c0,1.715-1.899,3.104-4.243,3.104H199.987z"/>
		<path id="path-3_147_" style="fill:#FF3A2F;" d="M4.242,168.627c-2.343,0-4.242-1.391-4.242-3.106s1.899-3.104,4.242-3.104h13
			c2.343,0,4.242,1.389,4.242,3.104s-1.899,3.106-4.242,3.106H4.242z"/>
		<path id="path-4_147_" style="fill:#FBB713;" d="M97.761,100.294c-51.572,0-93.38,8.391-93.38,18.741v16.951
			c1.763,21.694,188.648,22.256,186.761,0v-16.951C191.142,108.685,149.334,100.294,97.761,100.294z M97.761,136.881
			c-49.106,0-88.915-7.99-88.915-17.846c0-9.856,39.809-17.844,88.915-17.844c49.107,0,88.916,7.988,88.916,17.844
			C186.677,128.891,146.868,136.881,97.761,136.881z"/>
		<path id="path-5_146_" style="fill:#142A3B;" d="M191.15,118.587c0,10.103-41.808,18.294-93.381,18.294
			S4.388,128.69,4.388,118.587s41.808-18.293,93.381-18.293S191.15,108.484,191.15,118.587z"/>
		<path id="path-6_143_" style="opacity:0.35;enable-background:new    ;" d="M157.004,124.485c0,6.408-26.521,11.603-59.235,11.603
			c-32.715,0-59.235-5.195-59.235-11.603c0-6.41,26.52-11.605,59.235-11.605C130.483,112.88,157.004,118.075,157.004,124.485z"/>
		<path id="path-7_139_" style="fill:#FBB713;" d="M86.835,45.498c28.761,0,61.627,20.342,61.627,49.102L47.075,90.902
			L86.835,45.498z"/>
		<path id="path-8_115_" style="opacity:0.1;enable-background:new    ;" d="M136.652,94.169l11.81,0.431
			c0-28.76-32.866-49.102-61.627-49.102L86.01,46.44C111.399,50.723,136.365,69.245,136.652,94.169z"/>
		<path id="path-9_100_" style="fill:#FBB713;" d="M148.462,126.38H47.075V90.902h101.387V126.38z"/>
		<path id="path-10_91_" style="opacity:0.3;enable-background:new    ;" d="M148.462,126.38H47.075V90.902h101.387V126.38z"/>
	</g>
</g>
<g>
</g>
<g>
</g>
<g>
</g>
<g>
</g>
<g>
</g>
<g>
</g>
<g>
</g>
<g>
</g>
<g>
</g>
<g>
</g>
<g>
</g>
<g>
</g>
<g>
</g>
<g>
</g>
<g>
</g>
</svg>
