<?xml version="1.0" encoding="iso-8859-1"?>
<!-- Generator: Adobe Illustrator 19.1.0, SVG Export Plug-In . SVG Version: 6.00 Build 0)  -->
<svg version="1.1" id="Capa_1" xmlns="http://www.w3.org/2000/svg" xmlns:xlink="http://www.w3.org/1999/xlink" x="0px" y="0px"
	 viewBox="0 0 217.229 217.229" style="enable-background:new 0 0 217.229 217.229;" xml:space="preserve">
<g>
	<g id="group-42svg">
		<path id="path-1_97_" style="fill:#FBB713;" d="M153.258,184.64h13.84c2.669,0,4.832-1.484,4.832-3.313
			c0-1.829-2.163-3.312-4.832-3.312h-0.644c-2.669,0-4.832-1.484-4.832-3.313c0-1.829,2.163-3.312,4.832-3.312h29.753
			c2.669,0,4.831-1.484,4.831-3.313c0-1.83-2.162-3.312-4.831-3.312h-35.755H87.368c-2.668,0-4.831,1.482-4.831,3.312
			c0,1.829,2.163,3.313,4.831,3.313h8.258c2.669,0,4.832,1.483,4.832,3.312c0,1.829-2.163,3.313-4.832,3.313H56.327
			c-2.668,0-4.831,1.483-4.831,3.312c0,1.829,2.163,3.313,4.831,3.313h9.288H153.258z"/>
		<path id="path-2_97_" style="fill:#FBB713;" d="M211.568,179.073c3.126,0,5.661,1.7,5.661,3.798c0,2.097-2.535,3.798-5.661,3.798
			H194.22c-3.126,0-5.66-1.701-5.66-3.798c0-2.098,2.534-3.798,5.66-3.798H211.568z"/>
		<path id="path-3_97_" style="fill:#FBB713;" d="M30.179,179.073c3.127,0,5.661,1.7,5.661,3.798c0,2.097-2.534,3.798-5.661,3.798
			H12.832c-3.126,0-5.661-1.701-5.661-3.798c0-2.098,2.535-3.798,5.661-3.798H30.179z"/>
		<path id="path-4_97_" style="fill:#142A3B;" d="M155.539,48.644H18.086C8.114,48.644,0,56.758,0,66.729v79.576
			c0,9.971,8.114,18.086,18.086,18.086h137.453c9.973,0,18.086-8.115,18.086-18.086V66.729
			C173.625,56.758,165.512,48.644,155.539,48.644z"/>
		<path id="path-5_96_" style="opacity:0.35;fill:#060606;enable-background:new    ;" d="M158.903,48.97
			c1.266,2.469,1.994,5.256,1.994,8.213v79.577c0,9.971-8.113,18.085-18.086,18.085H5.358c-1.151,0-2.273-0.12-3.365-0.327
			c3,5.851,9.08,9.873,16.093,9.873h137.453c9.973,0,18.086-8.115,18.086-18.085V66.729
			C173.625,57.909,167.272,50.553,158.903,48.97z"/>
		<path id="path-6_93_" style="opacity:0.5;fill:#EDEDED;enable-background:new    ;" d="M50.64,135.454H28.938
			c-1.996,0-3.618-1.617-3.618-3.618c0-1.999,1.622-3.616,3.618-3.616H50.64c1.996,0,3.618,1.617,3.618,3.616
			C54.258,133.837,52.636,135.454,50.64,135.454z"/>
		<path id="path-7_91_" style="opacity:0.5;fill:#EDEDED;enable-background:new    ;" d="M50.64,113.751H28.938
			c-1.996,0-3.618-1.617-3.618-3.617s1.622-3.617,3.618-3.617H50.64c1.996,0,3.618,1.617,3.618,3.617S52.636,113.751,50.64,113.751z
			"/>
		<path id="path-8_70_" style="opacity:0.5;fill:#EDEDED;enable-background:new    ;" d="M101.281,135.454H72.344
			c-1.996,0-3.618-1.617-3.618-3.618c0-1.999,1.622-3.616,3.618-3.616h28.937c1.996,0,3.617,1.617,3.617,3.616
			C104.898,133.837,103.277,135.454,101.281,135.454z"/>
		<path id="path-9_61_" style="opacity:0.5;fill:#EDEDED;enable-background:new    ;" d="M101.281,113.751H72.344
			c-1.996,0-3.618-1.617-3.618-3.617s1.622-3.617,3.618-3.617h28.937c1.996,0,3.617,1.617,3.617,3.617
			S103.277,113.751,101.281,113.751z"/>
		<path id="path-10_55_" style="opacity:0.5;fill:#EDEDED;enable-background:new    ;" d="M144.687,135.454h-21.703
			c-1.995,0-3.617-1.617-3.617-3.618c0-1.999,1.622-3.616,3.617-3.616h21.703c1.996,0,3.617,1.617,3.617,3.616
			C148.304,133.837,146.683,135.454,144.687,135.454z"/>
		<path id="path-11_46_" style="opacity:0.5;fill:#EDEDED;enable-background:new    ;" d="M144.687,113.751h-21.703
			c-1.995,0-3.617-1.617-3.617-3.617s1.622-3.617,3.617-3.617h21.703c1.996,0,3.617,1.617,3.617,3.617
			S146.683,113.751,144.687,113.751z"/>
		<path id="path-12_40_" style="opacity:0.5;fill:#EDEDED;enable-background:new    ;" d="M144.687,92.049H28.938
			c-1.996,0-3.618-1.617-3.618-3.617s1.622-3.617,3.618-3.617h115.749c1.996,0,3.617,1.617,3.617,3.617
			S146.683,92.049,144.687,92.049z"/>
		<path id="path-13_32_" style="opacity:0.35;fill:#060606;enable-background:new    ;" d="M136.583,48.644v16.21
			c0,1.999-1.622,3.616-3.618,3.616c-1.995,0-3.617-1.617-3.617-3.616v-16.21H136.583z"/>
		<path id="path-14_28_" style="opacity:0.35;fill:#060606;enable-background:new    ;" d="M57.033,48.644v16.21
			c0,1.999-1.62,3.616-3.616,3.616c-1.996,0-3.618-1.617-3.618-3.616v-16.21H57.033z"/>
		<path id="path-15_26_" style="fill:#FF3A2F;" d="M47.023,66.729c1.996,0,3.617-1.617,3.617-3.617V34.176
			c0-2-1.621-3.617-3.617-3.617c-1.995,0-3.617,1.617-3.617,3.617v28.936C43.406,65.112,45.028,66.729,47.023,66.729z"/>
		<path id="path-16_21_" style="fill:#FF3A2F;" d="M126.602,66.729c1.996,0,3.617-1.617,3.617-3.617V34.176
			c0-2-1.621-3.617-3.617-3.617c-1.996,0-3.618,1.617-3.618,3.617v28.936C122.984,65.112,124.606,66.729,126.602,66.729z"/>
	</g>
</g>
<g>
</g>
<g>
</g>
<g>
</g>
<g>
</g>
<g>
</g>
<g>
</g>
<g>
</g>
<g>
</g>
<g>
</g>
<g>
</g>
<g>
</g>
<g>
</g>
<g>
</g>
<g>
</g>
<g>
</g>
</svg>
