<?xml version="1.0" encoding="iso-8859-1"?>
<!-- Generator: Adobe Illustrator 19.1.0, SVG Export Plug-In . SVG Version: 6.00 Build 0)  -->
<svg version="1.1" id="Capa_1" xmlns="http://www.w3.org/2000/svg" xmlns:xlink="http://www.w3.org/1999/xlink" x="0px" y="0px"
	 viewBox="0 0 217.228 217.228" style="enable-background:new 0 0 217.228 217.228;" xml:space="preserve">
<g>
	<g id="group-158svg">
		<path id="path-1_65_" style="fill:#142A3B;" d="M50.565,178.356H35.918c-2.824,0-5.113,1.733-5.113,3.871
			c0,2.136,2.289,3.869,5.113,3.869H36.6c2.824,0,5.113,1.733,5.113,3.869c0,2.138-2.289,3.871-5.113,3.871H5.113
			c-2.824,0-5.113,1.733-5.113,3.87c0,2.139,2.289,3.871,5.113,3.871h37.839h77.341c2.825,0,5.115-1.732,5.115-3.871
			c0-2.137-2.29-3.87-5.115-3.87h-8.738c-2.824,0-5.113-1.733-5.113-3.871c0-2.136,2.289-3.869,5.113-3.869h34.321
			c2.825,0,5.114-1.733,5.114-3.869c0-2.138-2.289-3.871-5.114-3.871h-2.561H50.565z"/>
		<path id="path-2_65_" style="fill:#142A3B;" d="M141.405,202.613c-2.368,0-4.287-1.856-4.287-4.149
			c0-2.289,1.919-4.147,4.287-4.147h13.137c2.368,0,4.287,1.858,4.287,4.147c0,2.293-1.919,4.149-4.287,4.149H141.405z"/>
		<path id="path-3_65_" style="fill:#FBB713;" d="M205.018,31.015h-18.405v6.418c0,4.448-3.645,8.054-8.14,8.054h-0.679
			c-4.496,0-8.14-3.606-8.14-8.054v-6.418H144.98v6.418c0,4.448-3.644,8.054-8.14,8.054h-0.678c-4.497,0-8.141-3.606-8.141-8.054
			v-6.418h-27.052v6.418c0,4.448-3.645,8.054-8.141,8.054h-0.679c-4.496,0-8.139-3.606-8.139-8.054v-6.418H67.984
			c-6.745,0-12.211,5.406-12.211,12.08v126.096c0,6.676,5.466,12.082,12.211,12.082h137.034c6.744,0,12.21-5.406,12.21-12.082
			V43.095C217.228,36.421,211.762,31.015,205.018,31.015z"/>
		<path id="path-4_65_" style="fill:#FF3A2F;" d="M217.228,73.008V43.095c0-6.674-5.466-12.08-12.21-12.08h-18.405v6.418
			c0,4.448-3.645,8.054-8.14,8.054h-0.679c-4.496,0-8.14-3.606-8.14-8.054v-6.418H144.98v6.418c0,4.448-3.644,8.054-8.14,8.054
			h-0.678c-4.497,0-8.141-3.606-8.141-8.054v-6.418h-27.052v6.418c0,4.448-3.645,8.054-8.141,8.054h-0.679
			c-4.496,0-8.139-3.606-8.139-8.054v-6.418H67.984c-6.745,0-12.211,5.406-12.211,12.08v29.913H217.228z"/>
		<path id="path-5_64_" style="opacity:0.35;enable-background:new    ;" d="M205.018,31.015h-7.813
			c6.745,0,12.211,5.406,12.211,12.08v126.096c0,6.676-5.466,12.082-12.211,12.082h7.813c6.744,0,12.21-5.406,12.21-12.082V43.095
			C217.228,36.421,211.762,31.015,205.018,31.015z"/>
		<path id="path-6_62_" style="opacity:0.35;enable-background:new    ;" d="M143.973,45.487h0.68c4.496,0,8.14-3.606,8.14-8.054
			v-6.418h-7.813v6.418c0,3.177-1.874,5.896-4.573,7.207C141.488,45.165,142.688,45.487,143.973,45.487z"/>
		<path id="path-7_61_" style="opacity:0.35;enable-background:new    ;" d="M185.606,45.487h0.679c4.496,0,8.141-3.606,8.141-8.054
			v-6.418h-7.813v6.418c0,3.177-1.874,5.896-4.574,7.207C183.12,45.165,184.321,45.487,185.606,45.487z"/>
		<path id="path-8_47_" style="opacity:0.35;enable-background:new    ;" d="M99.962,45.487h0.679c4.496,0,8.14-3.606,8.14-8.054
			v-6.418h-7.812v6.418c0,3.177-1.875,5.896-4.574,7.207C97.476,45.165,98.676,45.487,99.962,45.487z"/>
		<path id="path-9_40_" style="fill:#142A3B;" d="M92.828,14.615h-0.679c-4.496,0-8.139,3.605-8.139,8.054v8.346v6.418
			c0,4.448,3.643,8.054,8.139,8.054h0.679c4.496,0,8.141-3.606,8.141-8.054v-6.418v-8.346
			C100.969,18.22,97.324,14.615,92.828,14.615z"/>
		<path id="path-10_36_" style="fill:#142A3B;" d="M136.84,14.615h-0.678c-4.497,0-8.141,3.605-8.141,8.054v8.346v6.418
			c0,4.448,3.644,8.054,8.141,8.054h0.678c4.496,0,8.141-3.606,8.141-8.054v-6.418v-8.346
			C144.981,18.22,141.336,14.615,136.84,14.615z"/>
		<path id="path-11_29_" style="fill:#142A3B;" d="M178.473,14.615h-0.679c-4.496,0-8.141,3.605-8.141,8.054v8.346v6.418
			c0,4.448,3.645,8.054,8.141,8.054h0.679c4.495,0,8.14-3.606,8.14-8.054v-6.418v-8.346
			C186.613,18.22,182.968,14.615,178.473,14.615z"/>
		<path id="path-12_25_" style="fill:#EDEDED;" d="M101.484,103.314c0,5.075-4.158,9.189-9.285,9.189
			c-5.128,0-9.286-4.114-9.286-9.189c0-5.07,4.158-9.185,9.286-9.185C97.326,94.129,101.484,98.244,101.484,103.314z"/>
		<path id="path-13_20_" style="fill:#EDEDED;" d="M145.785,102.442c0,5.074-4.156,9.188-9.284,9.188
			c-5.128,0-9.286-4.114-9.286-9.188c0-5.073,4.158-9.184,9.286-9.184C141.629,93.258,145.785,97.369,145.785,102.442z"/>
		<path id="path-14_17_" style="fill:#EDEDED;" d="M190.09,104.185c0,5.073-4.158,9.189-9.285,9.189
			c-5.129,0-9.286-4.116-9.286-9.189c0-5.074,4.157-9.186,9.286-9.186C185.932,94.999,190.09,99.111,190.09,104.185z"/>
		<path id="path-15_16_" style="fill:#EDEDED;" d="M101.483,143.26c0,5.073-4.159,9.186-9.287,9.186
			c-5.126,0-9.285-4.113-9.285-9.186c0-5.074,4.159-9.188,9.285-9.188C97.324,134.072,101.483,138.186,101.483,143.26z"/>
		<path id="path-16_13_" style="fill:#EDEDED;" d="M145.784,142.388c0,5.074-4.158,9.185-9.286,9.185
			c-5.126,0-9.284-4.111-9.284-9.185c0-5.074,4.158-9.188,9.284-9.188C141.626,133.2,145.784,137.314,145.784,142.388z"/>
		<path id="path-17_11_" style="fill:#EDEDED;" d="M190.089,144.131c0,5.072-4.158,9.184-9.286,9.184
			c-5.129,0-9.285-4.112-9.285-9.184c0-5.075,4.156-9.189,9.285-9.189C185.931,134.942,190.089,139.056,190.089,144.131z"/>
		<path id="path-18_10_" style="opacity:0.35;enable-background:new    ;" d="M99.953,98.28c0.962,1.449,1.531,3.175,1.531,5.034
			c0,5.075-4.158,9.189-9.285,9.189c-1.907,0-3.676-0.572-5.15-1.548c1.659,2.497,4.508,4.152,7.754,4.152
			c5.127,0,9.285-4.115,9.285-9.188C104.088,102.733,102.445,99.929,99.953,98.28z"/>
		<path id="path-19_8_" style="opacity:0.35;enable-background:new    ;" d="M144.256,97.407c0.961,1.447,1.529,3.174,1.529,5.035
			c0,5.074-4.156,9.188-9.284,9.188c-1.907,0-3.677-0.572-5.15-1.547c1.66,2.497,4.508,4.151,7.754,4.151
			c5.128,0,9.285-4.114,9.285-9.188C148.39,101.859,146.747,99.055,144.256,97.407z"/>
		<path id="path-20_7_" style="opacity:0.35;enable-background:new    ;" d="M188.56,99.151c0.962,1.445,1.53,3.173,1.53,5.034
			c0,5.073-4.158,9.189-9.285,9.189c-1.907,0-3.677-0.573-5.152-1.549c1.661,2.497,4.509,4.151,7.756,4.151
			c5.127,0,9.285-4.114,9.285-9.188C192.694,103.601,191.051,100.797,188.56,99.151z"/>
		<path id="path-21_5_" style="opacity:0.35;enable-background:new    ;" d="M99.951,138.223c0.963,1.448,1.532,3.175,1.532,5.037
			c0,5.073-4.159,9.186-9.286,9.186c-1.907,0-3.676-0.573-5.151-1.547c1.66,2.497,4.509,4.15,7.755,4.15
			c5.127,0,9.286-4.112,9.286-9.185C104.087,142.677,102.443,139.871,99.951,138.223z"/>
		<path id="path-22_5_" style="opacity:0.35;enable-background:new    ;" d="M144.253,137.352c0.962,1.447,1.531,3.174,1.531,5.036
			c0,5.074-4.158,9.185-9.286,9.185c-1.906,0-3.676-0.571-5.15-1.547c1.66,2.498,4.508,4.151,7.754,4.151
			c5.128,0,9.286-4.112,9.286-9.185C148.388,141.804,146.745,138.999,144.253,137.352z"/>
		<path id="path-23_5_" style="opacity:0.35;enable-background:new    ;" d="M188.557,139.094c0.963,1.448,1.532,3.174,1.532,5.037
			c0,5.072-4.158,9.184-9.286,9.184c-1.907,0-3.677-0.572-5.151-1.546c1.66,2.497,4.508,4.15,7.755,4.15
			c5.128,0,9.286-4.112,9.286-9.184C192.693,143.547,191.049,140.741,188.557,139.094z"/>
	</g>
</g>
<g>
</g>
<g>
</g>
<g>
</g>
<g>
</g>
<g>
</g>
<g>
</g>
<g>
</g>
<g>
</g>
<g>
</g>
<g>
</g>
<g>
</g>
<g>
</g>
<g>
</g>
<g>
</g>
<g>
</g>
</svg>
