<?xml version="1.0" encoding="iso-8859-1"?>
<!-- Generator: Adobe Illustrator 19.1.0, SVG Export Plug-In . SVG Version: 6.00 Build 0)  -->
<svg version="1.1" id="Capa_1" xmlns="http://www.w3.org/2000/svg" xmlns:xlink="http://www.w3.org/1999/xlink" x="0px" y="0px"
	 viewBox="0 0 216.291 216.291" style="enable-background:new 0 0 216.291 216.291;" xml:space="preserve">
<g>
	<g id="group-133svg">
		<path id="path-1_38_" style="fill:#2476FF;" d="M80.824,200.997h14.347c2.767,0,5.009,0.997,5.009,2.227
			c0,1.231-2.242,2.229-5.009,2.229h-0.667c-2.766,0-5.009,0.997-5.009,2.228c0,1.23,2.243,2.226,5.009,2.226h30.841
			c2.766,0,5.009,0.998,5.009,2.228c0,1.23-2.243,2.229-5.009,2.229H88.282H47.545c-2.767,0-5.009-0.999-5.009-2.229
			c0-1.23,2.242-2.228,5.009-2.228h8.559c2.768,0,5.009-0.996,5.009-2.226c0-1.231-2.241-2.228-5.009-2.228H15.368
			c-2.765,0-5.009-0.998-5.009-2.229c0-1.23,2.244-2.227,5.009-2.227h9.628H80.824z"/>
		<path id="path-2_38_" style="fill:#2476FF;" d="M169.622,216.291c3.158,0,5.718-1.139,5.718-2.543c0-1.406-2.56-2.545-5.718-2.545
			h-17.525c-3.159,0-5.719,1.139-5.719,2.545c0,1.404,2.56,2.543,5.719,2.543H169.622z"/>
		<path id="path-3_38_" style="fill:#2476FF;" d="M183.189,180.983h6.587c1.27,0,2.301,0.566,2.301,1.265
			c0,0.698-1.031,1.264-2.301,1.264h-0.307c-1.269,0-2.299,0.564-2.299,1.262c0,0.699,1.03,1.266,2.299,1.266h14.162
			c1.271,0,2.3,0.565,2.3,1.263c0,0.699-1.029,1.264-2.3,1.264h-17.018h-34.786c-1.27,0-2.301-0.565-2.301-1.264
			c0-0.698,1.031-1.263,2.301-1.263h3.93c1.271,0,2.3-0.567,2.3-1.266c0-0.698-1.029-1.262-2.3-1.262h-18.706
			c-1.269,0-2.299-0.566-2.299-1.264c0-0.699,1.03-1.265,2.299-1.265h4.421H183.189z"/>
		<path id="path-4_38_" style="fill:#2476FF;" d="M133.227,189.934c2.37,0,4.291-0.468,4.291-1.046s-1.921-1.047-4.291-1.047
			h-13.148c-2.37,0-4.29,0.469-4.29,1.047s1.92,1.046,4.29,1.046H133.227z"/>
		<path id="path-5_38_" style="fill:#FF3A2F;" d="M81.025,63.035V48.203c0,0,7.486,3.708,11.229-7.416
			C95.997,29.665,73.54,14.832,77.283,0.001c0,0-18.714,18.539-14.971,40.786c0,0-1.107,3.7,8.803,5.559v13.032L81.025,63.035z"/>
		<path id="path-6_38_" style="fill:#FFFFFF;" d="M71.181,41.663c-0.113,0-0.228-0.011-0.34-0.031
			c-3.103-0.58-5.043-1.568-5.939-3.021c-0.44-0.713-0.515-1.365-0.494-1.818c-2.09-13.114,5.884-20.567,6.226-20.88
			c0.736-0.67,1.88-0.627,2.563,0.1c0.681,0.729,0.639,1.867-0.093,2.545c-0.284,0.266-6.962,6.609-5.064,17.893l0.064,0.388
			c0.256,0.237,1.085,0.814,3.411,1.251c0.988,0.185,1.639,1.129,1.451,2.106C72.802,41.062,72.039,41.663,71.181,41.663z"/>
		<path id="path-7_38_" style="fill:#010101;" d="M63.63,42.637c-0.338-0.064-0.632-0.133-0.944-0.2
			c0.201,0.327,0.511,0.683,0.944,1.05V42.637z"/>
		<path id="path-8_38_" style="opacity:0.3;fill:#010101;enable-background:new    ;" d="M77.283,0c0,0-2.844,2.839-6.09,7.588
			c4.632,10.866,16.363,21.208,13.575,29.491c-3.741,11.123-11.228,7.415-11.228,7.415v14.834l-2.425-0.895v0.945l9.912,3.657
			V48.202c0,0,7.484,3.709,11.227-7.416C95.997,29.663,73.54,14.832,77.283,0z"/>
		<path id="path-9_35_" style="fill:#FBB713;" d="M28.128,81.575v111.237c0,2.048,1.675,3.707,3.743,3.707h89.83
			c2.068,0,3.743-1.659,3.743-3.707V70.451c0-2.05-1.675-3.709-3.743-3.709c0,0-29.944-3.245-48.658-11.123
			C54.329,47.74,31.871,33.371,31.871,33.371c-2.068,0-3.743,1.658-3.743,3.709v11.123V81.575z"/>
		<path id="path-10_33_" style="fill:#FFFFFF;" d="M43.101,179.68c-3.014,0-5.459-2.42-5.459-5.408V85.283
			c0-2.987,2.445-5.407,5.459-5.407c3.013,0,5.458,2.42,5.458,5.407v88.989C48.559,177.26,46.114,179.68,43.101,179.68z"/>
		<path id="path-11_29_" style="opacity:0.2;fill:#010101;enable-background:new    ;" d="M121.701,66.741
			c0,0-29.944-3.244-48.658-11.122C54.329,47.74,31.871,33.371,31.871,33.371c-2.068,0-3.743,1.658-3.743,3.708v11.123v8.969
			c7.742,4.415,17.375,9.564,26.201,13.279c18.714,7.879,48.657,11.125,48.657,11.125c2.068,0,3.743,1.657,3.743,3.708v111.236
			h14.972c2.068,0,3.743-1.659,3.743-3.708V70.45C125.444,68.401,123.769,66.741,121.701,66.741z"/>
		<path id="path-12_25_" style="fill:#2476FF;" d="M98.515,87.982v3.28c0,0.632-0.676,1.145-1.51,1.145
			c-0.835,0-1.511-0.513-1.511-1.145v-0.151c0-0.633-0.677-1.146-1.51-1.146c-0.835,0-1.511,0.513-1.511,1.146v7.049
			c0,0.632-0.676,1.145-1.511,1.145c-0.834,0-1.51-0.513-1.51-1.145v-8.472V72.369c0-0.632,0.676-1.145,1.51-1.145
			c0.835,0,1.511,0.513,1.511,1.145v1.958c0,0.632,0.676,1.144,1.511,1.144c0.833,0,1.51-0.512,1.51-1.144v-9.314
			c0-0.632,0.676-1.145,1.511-1.145c0.834,0,1.51,0.513,1.51,1.145v2.202V87.982z"/>
	</g>
</g>
<g>
</g>
<g>
</g>
<g>
</g>
<g>
</g>
<g>
</g>
<g>
</g>
<g>
</g>
<g>
</g>
<g>
</g>
<g>
</g>
<g>
</g>
<g>
</g>
<g>
</g>
<g>
</g>
<g>
</g>
</svg>
