<?xml version="1.0" encoding="iso-8859-1"?>
<!-- Generator: Adobe Illustrator 19.1.0, SVG Export Plug-In . SVG Version: 6.00 Build 0)  -->
<svg version="1.1" id="Capa_1" xmlns="http://www.w3.org/2000/svg" xmlns:xlink="http://www.w3.org/1999/xlink" x="0px" y="0px"
	 viewBox="0 0 217.221 217.221" style="enable-background:new 0 0 217.221 217.221;" xml:space="preserve">
<g>
	<g id="group-58svg">
		<path id="path-1_114_" style="fill:#FF3A2F;" d="M86.635,184.143H74.739c-2.294,0-4.153,2.431-4.153,5.431
			s1.859,5.432,4.153,5.432h0.554c2.293,0,4.153,2.432,4.153,5.431c0,3.001-1.86,5.432-4.153,5.432H49.719
			c-2.295,0-4.154,2.432-4.154,5.432c0,3.001,1.859,5.432,4.154,5.432h30.733h62.819c2.294,0,4.153-2.431,4.153-5.432
			c0-3-1.859-5.432-4.153-5.432h-7.097c-2.294,0-4.154-2.431-4.154-5.432c0-2.999,1.86-5.431,4.154-5.431h27.876
			c2.294,0,4.153-2.432,4.153-5.432s-1.859-5.431-4.153-5.431h-2.081H86.635z"/>
		<path id="path-2_114_" style="fill:#FF3A2F;" d="M159.765,217.221c-1.615,0-2.925-1.72-2.925-3.842
			c0-2.122,1.31-3.842,2.925-3.842h8.966c1.616,0,2.925,1.72,2.925,3.842c0,2.122-1.309,3.842-2.925,3.842H159.765z"/>
		<path id="path-3_114_" style="fill:#FBB713;" d="M158.902,61.992l-34.5,129.038c-3.441,12.869-21.703,12.869-25.143,0
			l-34.5-129.038c-2.209-8.264,4.018-16.373,12.572-16.373h68.999C154.883,45.619,161.111,53.728,158.902,61.992z"/>
		<path id="path-4_114_" style="opacity:0.35;enable-background:new    ;" d="M146.33,45.619h-7.698
			c8.554,0,14.781,8.109,12.572,16.373l-34.5,129.038c-1.307,4.892-4.759,7.913-8.722,9.086c6.462,1.912,14.287-1.109,16.42-9.086
			l34.5-129.038C161.111,53.728,154.883,45.619,146.33,45.619z"/>
		<path id="path-5_113_" style="opacity:0.2;fill:#FBFBFB;enable-background:new    ;" d="M146.33,45.619H79.669
			c-3.088,0.48-5.96,1.018-8.588,1.61c-5.026,2.763-7.939,8.715-6.322,14.763l0.615,2.3c11.397,3.42,30.08,5.653,51.213,5.653
			c15.701,0,30.045-1.234,41.062-3.27l1.253-4.683C161.111,53.728,154.883,45.619,146.33,45.619z"/>
		<path id="path-6_110_" style="opacity:0.35;enable-background:new    ;" d="M125.301,45.88v9.742c0,4.997-3.733,9.046-8.339,9.046
			l0,0c-4.605,0-8.339-4.049-8.339-9.046V45.88H125.301z"/>
		<path id="path-7_107_" style="fill:#0CB04A;" d="M117.884,59.537h-12.107c-1.262,0-2.286-1.023-2.286-2.285V20.77
			c0-1.263,1.024-2.285,2.286-2.285h12.107c1.262,0,2.285,1.022,2.285,2.285v36.482C120.169,58.514,119.146,59.537,117.884,59.537z"
			/>
		<path id="path-8_84_" style="opacity:0.45;enable-background:new    ;" d="M111.83,18.485c-4.605,0-8.339,3.733-8.339,8.339
			v14.848c2.532,1.157,5.356,1.807,8.339,1.807s5.808-0.65,8.339-1.807V26.824C120.169,22.218,116.436,18.485,111.83,18.485z"/>
		<path id="path-9_72_" style="fill:#0CB04A;" d="M132.029,5.782c-1.836,0-3.584,0.356-5.186,0.991
			C123.229,2.634,117.849,0,111.83,0c-6.018,0-11.399,2.634-15.013,6.773c-1.601-0.635-3.349-0.991-5.185-0.991
			c-7.601,0-13.762,5.995-13.762,13.392c0,7.396,6.161,13.392,13.762,13.392c1.836,0,3.584-0.357,5.185-0.992
			c3.614,4.14,8.995,6.774,15.013,6.774c6.019,0,11.399-2.634,15.013-6.774c1.602,0.635,3.35,0.992,5.186,0.992
			c7.601,0,13.762-5.996,13.762-13.392C145.791,11.777,139.63,5.782,132.029,5.782z"/>
		<path id="path-10_66_" style="opacity:0.35;enable-background:new    ;" d="M138.916,7.642c1.077,1.91,1.744,4.068,1.744,6.4
			c0,7.397-6.162,13.393-13.762,13.393c-1.837,0-3.585-0.358-5.186-0.992c-3.614,4.139-8.994,6.773-15.014,6.773
			c-6.018,0-11.398-2.634-15.012-6.773c-1.602,0.634-3.351,0.992-5.186,0.992c-2.522,0-4.854-0.709-6.887-1.86
			c2.339,4.147,6.814,6.991,12.019,6.991c1.836,0,3.584-0.357,5.185-0.992c3.614,4.14,8.995,6.774,15.013,6.774
			c6.019,0,11.399-2.634,15.013-6.774c1.602,0.635,3.35,0.992,5.186,0.992c7.601,0,13.762-5.996,13.762-13.392
			C145.791,14.232,143.009,9.962,138.916,7.642z"/>
		<path id="path-11_56_" style="opacity:0.35;enable-background:new    ;" d="M121.7,98.103H81.518c-2,0-3.619-1.62-3.619-3.619
			c0-1.998,1.619-3.618,3.619-3.618H121.7c1.999,0,3.618,1.62,3.618,3.618C125.318,96.483,123.699,98.103,121.7,98.103z"/>
		<path id="path-12_48_" style="opacity:0.35;enable-background:new    ;" d="M122.855,137.212h-20.338c-2,0-3.619-1.62-3.619-3.619
			c0-1.998,1.619-3.618,3.619-3.618h20.338c2,0,3.618,1.62,3.618,3.618C126.473,135.592,124.855,137.212,122.855,137.212z"/>
		<path id="path-13_37_" style="opacity:0.35;enable-background:new    ;" d="M114.939,176.323h-12.623
			c-2.001,0-3.619-1.62-3.619-3.619c0-1.998,1.618-3.618,3.619-3.618h12.623c2,0,3.619,1.62,3.619,3.618
			C118.558,174.703,116.939,176.323,114.939,176.323z"/>
	</g>
</g>
<g>
</g>
<g>
</g>
<g>
</g>
<g>
</g>
<g>
</g>
<g>
</g>
<g>
</g>
<g>
</g>
<g>
</g>
<g>
</g>
<g>
</g>
<g>
</g>
<g>
</g>
<g>
</g>
<g>
</g>
</svg>
