<?xml version="1.0" encoding="iso-8859-1"?>
<!-- Generator: Adobe Illustrator 19.1.0, SVG Export Plug-In . SVG Version: 6.00 Build 0)  -->
<svg version="1.1" id="Capa_1" xmlns="http://www.w3.org/2000/svg" xmlns:xlink="http://www.w3.org/1999/xlink" x="0px" y="0px"
	 viewBox="0 0 217.228 217.228" style="enable-background:new 0 0 217.228 217.228;" xml:space="preserve">
<g>
	<g id="group-32svg">
		<path id="path-1_86_" style="fill:#FF3A2F;" d="M66.436,171.486h9.035c1.742,0,3.155-1.158,3.155-2.585
			c0-1.428-1.413-2.585-3.155-2.585H75.05c-1.742,0-3.154-1.158-3.154-2.586c0-1.426,1.412-2.585,3.154-2.585h19.425
			c1.742,0,3.154-1.158,3.154-2.585s-1.412-2.585-3.154-2.585H71.131H23.419c-1.742,0-3.154,1.158-3.154,2.585
			s1.412,2.585,3.154,2.585h5.391c1.742,0,3.154,1.159,3.154,2.585c0,1.428-1.412,2.586-3.154,2.586H3.154
			c-1.743,0-3.154,1.157-3.154,2.585c0,1.427,1.411,2.585,3.154,2.585h6.064H66.436z"/>
		<path id="path-2_86_" style="fill:#FF3A2F;" d="M162.1,173.846h4.775c0.921,0,1.668-0.569,1.668-1.27s-0.747-1.269-1.668-1.269
			h-0.222c-0.921,0-1.667-0.568-1.667-1.269c0-0.702,0.746-1.269,1.667-1.269h10.266c0.921,0,1.667-0.568,1.667-1.27
			c0-0.7-0.746-1.269-1.667-1.269h-12.337h-25.216c-0.921,0-1.668,0.569-1.668,1.269c0,0.702,0.747,1.27,1.668,1.27h2.848
			c0.921,0,1.667,0.567,1.667,1.269c0,0.701-0.746,1.269-1.667,1.269h-13.559c-0.922,0-1.668,0.568-1.668,1.269
			s0.746,1.27,1.668,1.27h3.204H162.1z"/>
		<path id="path-3_86_" style="fill:#FF3A2F;" d="M109.347,168.637c1.962,0,3.553,1.275,3.553,2.849
			c0,1.573-1.591,2.848-3.553,2.848H98.461c-1.961,0-3.552-1.275-3.552-2.848c0-1.574,1.591-2.849,3.552-2.849H109.347z"/>
		<path id="path-4_86_" style="fill:#FF3A2F;" d="M201.66,135.141c0.089-1.543,0.144-3.104,0.144-4.691
			c0-23.054-9.697-57.924-21.659-57.924c-1.296,0-3.793,0-3.793,0l-98.438,0.482c-10.48,2.92-18.541,36.434-18.541,57.442
			c0,1.589,0.061,3.147,0.15,4.691H201.66z"/>
		<path id="path-5_85_" style="opacity:0.35;fill:#060606;enable-background:new    ;" d="M180.145,72.525c-0.58,0-1.395,0-2.125,0
			c0.105,0.26,0.197,0.552,0.3,0.816H85.869v8.359h95.256c3.072,10.671,4.927,22.947,4.927,32.997c0,0.016,0,0.031,0,0.047
			c-0.002,2.612-2.104,4.741-4.713,4.872l-121.347,6.073c-0.402,3.893-0.619,1.343-0.619,4.76c0,1.589,0.061,3.147,0.15,4.691
			H201.66c0.089-1.543,0.144-3.104,0.144-4.691C201.804,107.395,192.107,72.525,180.145,72.525z"/>
		<path id="path-6_82_" style="fill:#142A3B;" d="M178.46,75.4H82.719V42.893h95.741V75.4z"/>
		<path id="path-7_81_" style="fill:#142A3B;" d="M217.228,161.363H43.95v-33.037h173.278V161.363z"/>
		<path id="path-8_62_" style="opacity:0.35;fill:#060606;enable-background:new    ;" d="M201.475,128.326v6.911
			c0,7.555-5.964,13.762-13.513,14.064L43.95,155.061v6.301h173.278v-33.037H201.475z"/>
		<path id="path-9_54_" style="fill:#FBB713;" d="M170.79,69.41H90.388V48.884h80.402V69.41z"/>
		<path id="path-10_49_" style="opacity:0.35;fill:#060606;enable-background:new    ;" d="M170.79,48.884H90.388v1.929v2.675
			v16.041h4.603V53.488h75.799V48.884z"/>
		<path id="path-11_41_" style="fill:#EDEDED;" d="M177.636,118.771h-13.693V88.894h13.693V118.771z"/>
		<path id="path-12_36_" style="fill:#EDEDED;" d="M156.429,118.771h-20.226v-11.169h20.226V118.771z"/>
		<path id="path-13_29_" style="fill:#EDEDED;" d="M130.099,118.771h-20.227v-11.169h20.227V118.771z"/>
		<path id="path-14_25_" style="fill:#EDEDED;" d="M103.768,118.771H83.541v-11.169h20.227V118.771z"/>
		<path id="path-15_23_" style="fill:#EDEDED;" d="M156.429,100.567h-20.226V89.399h20.226V100.567z"/>
		<path id="path-16_18_" style="fill:#EDEDED;" d="M130.099,100.567h-20.227V89.399h20.227V100.567z"/>
		<path id="path-17_16_" style="fill:#EDEDED;" d="M103.768,100.567H83.541V89.399h20.227V100.567z"/>
	</g>
</g>
<g>
</g>
<g>
</g>
<g>
</g>
<g>
</g>
<g>
</g>
<g>
</g>
<g>
</g>
<g>
</g>
<g>
</g>
<g>
</g>
<g>
</g>
<g>
</g>
<g>
</g>
<g>
</g>
<g>
</g>
</svg>
