<?xml version="1.0" encoding="iso-8859-1"?>
<!-- Generator: Adobe Illustrator 19.1.0, SVG Export Plug-In . SVG Version: 6.00 Build 0)  -->
<svg version="1.1" id="Capa_1" xmlns="http://www.w3.org/2000/svg" xmlns:xlink="http://www.w3.org/1999/xlink" x="0px" y="0px"
	 viewBox="0 0 217.228 217.228" style="enable-background:new 0 0 217.228 217.228;" xml:space="preserve">
<g>
	<g id="group-79svg">
		<path id="path-1_137_" style="fill:#FBB713;" d="M59.677,163.09H42.965c-3.222,0-5.834,1.976-5.834,4.415
			c0,2.439,2.612,4.415,5.834,4.415h0.778c3.222,0,5.834,1.978,5.834,4.416c0,2.44-2.612,4.416-5.834,4.416H7.817
			c-3.222,0-5.834,1.977-5.834,4.416c0,2.438,2.612,4.416,5.834,4.416h43.174h88.245c3.223,0,5.835-1.978,5.835-4.416
			c0-2.439-2.612-4.416-5.835-4.416h-9.97c-3.222,0-5.834-1.976-5.834-4.416c0-2.438,2.612-4.416,5.834-4.416h39.16
			c3.222,0,5.834-1.976,5.834-4.415c0-2.439-2.612-4.415-5.834-4.415h-2.923H59.677z"/>
		<path id="path-2_137_" style="fill:#FBB713;" d="M64.383,143.958c-2.45,0-4.435-1.352-4.435-3.021
			c0-1.668,1.985-3.022,4.435-3.022H77.98c2.45,0,4.436,1.354,4.436,3.022c0,1.669-1.986,3.021-4.436,3.021H64.383z"/>
		<path id="path-3_137_" style="fill:#FBB713;" d="M35.044,149.402h4.767c0.918,0,1.663-0.818,1.663-1.825
			c0-1.008-0.745-1.825-1.663-1.825h-0.223c-0.918,0-1.663-0.817-1.663-1.824c0-1.009,0.745-1.825,1.663-1.825h10.247
			c0.919,0,1.664-0.818,1.664-1.825c0-1.008-0.745-1.824-1.664-1.824H37.521H12.353c-0.919,0-1.664,0.816-1.664,1.824
			c0,1.007,0.745,1.825,1.664,1.825h2.844c0.919,0,1.663,0.816,1.663,1.825c0,1.007-0.744,1.824-1.663,1.824H1.663
			c-0.919,0-1.663,0.817-1.663,1.825c0,1.007,0.744,1.825,1.663,1.825h3.198H35.044z"/>
		<path id="path-4_137_" style="fill:#2476FF;" d="M217.228,157.85H40.437V27.643h176.791V157.85z"/>
		<path id="path-5_136_" style="opacity:0.35;enable-background:new    ;" d="M194.2,154.837H69.407l17.828-15.074h92.109
			L194.2,154.837z"/>
		<path id="path-6_133_" style="fill:#2476FF;" d="M191.229,160.779H66.436l17.827-17.099h92.11L191.229,160.779z"/>
		<path id="path-7_130_" style="opacity:0.35;enable-background:new    ;" d="M208.314,27.643V157.85h8.914V27.643H208.314z"/>
		<path id="path-8_107_" style="opacity:0.35;enable-background:new    ;" d="M194.2,121.383H69.407V51.334H194.2V121.383z"/>
		<path id="path-9_92_" style="fill:#FFFFFF;" d="M191.229,118.412H66.436V48.363h124.793V118.412z"/>
		<path id="path-10_84_" style="fill:#142A3B;" d="M179.715,86.804c0,6.974-5.653,12.628-12.627,12.628
			c-6.975,0-12.629-5.654-12.629-12.628c0-6.975,5.654-12.628,12.629-12.628C174.062,74.176,179.715,79.829,179.715,86.804z"/>
		<path id="path-11_73_" style="opacity:0.35;enable-background:new    ;" d="M174.389,76.533c1.47,2.065,2.355,4.573,2.355,7.3
			c0,6.975-5.653,12.628-12.628,12.628c-2.728,0-5.237-0.885-7.301-2.356c2.289,3.215,6.026,5.328,10.273,5.328
			c6.974,0,12.627-5.654,12.627-12.628C179.715,82.558,177.603,78.822,174.389,76.533z"/>
		<path id="path-12_63_" style="fill:#142A3B;" d="M102.462,86.804c0,6.974-5.653,12.628-12.627,12.628
			c-6.975,0-12.628-5.654-12.628-12.628c0-6.975,5.653-12.628,12.628-12.628C96.809,74.176,102.462,79.829,102.462,86.804z"/>
		<path id="path-13_50_" style="opacity:0.35;enable-background:new    ;" d="M89.835,74.176c-0.51,0-0.993,0.091-1.486,0.151
			c6.266,0.743,11.142,6.012,11.142,12.477c0,6.465-4.876,11.735-11.142,12.478c0.493,0.058,0.976,0.15,1.486,0.15
			c6.974,0,12.627-5.654,12.627-12.628C102.462,79.829,96.809,74.176,89.835,74.176z"/>
		<path id="path-14_42_" style="fill:#FFFFFF;" d="M167.088,150.685c0,2.05-1.664,3.714-3.714,3.714
			c-2.052,0-3.715-1.664-3.715-3.714c0-2.051,1.663-3.714,3.715-3.714C165.424,146.971,167.088,148.633,167.088,150.685z"/>
		<path id="path-15_35_" style="fill:#FFFFFF;" d="M104.69,150.685c0,2.05-1.662,3.714-3.713,3.714
			c-2.051,0-3.714-1.664-3.714-3.714c0-2.051,1.663-3.714,3.714-3.714C103.028,146.971,104.69,148.633,104.69,150.685z"/>
		<path id="path-16_26_" style="fill:#142A3B;" d="M151.86,95.586h-46.055V78.459h46.055V95.586z"/>
		<path id="path-17_23_" style="fill:#142A3B;" d="M191.972,64.501H65.693v-7.24h126.279V64.501z"/>
	</g>
</g>
<g>
</g>
<g>
</g>
<g>
</g>
<g>
</g>
<g>
</g>
<g>
</g>
<g>
</g>
<g>
</g>
<g>
</g>
<g>
</g>
<g>
</g>
<g>
</g>
<g>
</g>
<g>
</g>
<g>
</g>
</svg>
