<?xml version="1.0" encoding="iso-8859-1"?>
<!-- Generator: Adobe Illustrator 19.1.0, SVG Export Plug-In . SVG Version: 6.00 Build 0)  -->
<svg version="1.1" id="Capa_1" xmlns="http://www.w3.org/2000/svg" xmlns:xlink="http://www.w3.org/1999/xlink" x="0px" y="0px"
	 viewBox="0 0 218.332 218.332" style="enable-background:new 0 0 218.332 218.332;" xml:space="preserve">
<g>
	<g id="group-94svg">
		<path id="path-1_162_" style="fill:#0CB04A;" d="M151.779,23.696c-5.386,0-10.45,1.34-14.878,3.698
			C132.64,12.416,118.777,1.415,102.3,1.415c-16.486,0-30.349,11.001-34.618,25.979c-4.428-2.358-9.493-3.698-14.86-3.698
			c-17.399,0-31.5,13.968-31.5,31.192c0,17.232,13.486,31.192,31.478,31.192v119.768h98.957V86.08
			c17.992,0,31.495-13.96,31.495-31.192C183.252,37.664,169.16,23.696,151.779,23.696z"/>
		<path id="path-2_162_" style="fill:#142A3B;" d="M79.788,173.805c-2.009,0-3.639-1.615-3.639-3.605v-35.648
			c0-1.991,1.63-3.605,3.639-3.605c2.009,0,3.639,1.614,3.639,3.605V170.2C83.427,172.19,81.797,173.805,79.788,173.805z"/>
		<path id="path-3_162_" style="fill:#142A3B;" d="M102.279,173.805c-2.01,0-3.639-1.615-3.639-3.605v-44.56
			c0-1.991,1.629-3.605,3.639-3.605c2.009,0,3.639,1.614,3.639,3.605v44.56C105.918,172.19,104.288,173.805,102.279,173.805z"/>
		<path id="path-4_161_" style="fill:#142A3B;" d="M124.769,173.805c-2.009,0-3.639-1.615-3.639-3.605v-35.648
			c0-1.991,1.63-3.605,3.639-3.605c2.01,0,3.639,1.614,3.639,3.605V170.2C128.408,172.19,126.779,173.805,124.769,173.805z"/>
		<path id="path-5_161_" style="fill:#EDEDED;" d="M151.757,205.848H52.8V166.36h98.957V205.848z"/>
		<path id="path-6_159_" style="opacity:0.35;fill:#020403;enable-background:new    ;" d="M39.327,32.607
			c5.368,0,18.184,4.543,22.612,6.9c1.226-4.302,3.266-8.26,5.911-11.741c-2.11-2.265-12.522-4.071-15.028-4.071
			c-9.409,0-17.83,4.107-23.601,10.583C32.397,33.212,35.788,32.607,39.327,32.607z"/>
		<path id="path-7_158_" style="opacity:0.35;fill:#020403;enable-background:new    ;" d="M151.779,23.695
			c-5.386,0-10.451,1.341-14.878,3.699C132.64,12.416,118.777,1.415,102.3,1.415c-10.325,0-19.62,4.318-26.174,11.222
			c3.945-1.476,8.21-2.31,12.68-2.31c16.477,0,30.34,11.001,34.601,25.98c4.428-2.359,9.493-3.7,14.878-3.7
			c17.381,0,31.473,13.968,31.473,31.192c0,7.919-2.876,15.126-7.704,20.624c12.6-4.161,21.198-15.796,21.198-29.536
			C183.252,37.664,169.16,23.695,151.779,23.695z"/>
		<path id="path-8_154_" style="opacity:0.35;fill:#020403;enable-background:new    ;" d="M138.262,88.708v77.036h13.495V85.791
			C147.706,87.643,143.16,88.708,138.262,88.708z"/>
		<path id="path-9_148_" style="opacity:0.25;fill:#020403;enable-background:new    ;" d="M138.262,166.36v13.507
			c0,6.967-5.699,12.612-12.73,12.612H52.8v13.368h98.957V166.36H138.262z"/>
		<path id="path-10_133_" style="fill:#FF3A2F;" d="M91.583,216.917c2.576,0,4.664-0.888,4.664-1.984
			c0-1.097-2.088-1.986-4.664-1.986H77.292c-2.576,0-4.663,0.889-4.663,1.986c0,1.096,2.087,1.984,4.663,1.984H91.583z"/>
		<path id="path-11_117_" style="fill:#FF3A2F;" d="M37.237,185.174h4.246c0.819,0,1.483,0.86,1.483,1.918
			c0,1.06-0.664,1.919-1.483,1.919h-0.198c-0.818,0-1.482,0.86-1.482,1.92c0,1.061,0.664,1.92,1.482,1.92h9.129
			c0.819,0,1.482,0.859,1.482,1.918c0,1.061-0.663,1.92-1.482,1.92h-10.97H17.022c-0.818,0-1.482-0.859-1.482-1.92
			c0-1.059,0.664-1.918,1.482-1.918h2.534c0.818,0,1.482-0.859,1.482-1.92c0-1.06-0.664-1.92-1.482-1.92H7.499
			c-0.819,0-1.483-0.859-1.483-1.919c0-1.058,0.664-1.918,1.483-1.918h2.849H37.237z"/>
		<path id="path-12_100_" style="fill:#FF3A2F;" d="M7.455,196.793c1.013,0,1.834-0.599,1.834-1.338c0-0.74-0.821-1.339-1.834-1.339
			H1.834c-1.013,0-1.834,0.599-1.834,1.339c0,0.739,0.821,1.338,1.834,1.338H7.455z"/>
		<path id="path-13_84_" style="fill:#FF3A2F;" d="M181.062,199.679h10.796c2.081,0,3.768,1.275,3.768,2.847
			c0,1.574-1.687,2.848-3.768,2.848h-0.503c-2.082,0-3.769,1.274-3.769,2.847c0,1.573,1.687,2.848,3.769,2.848h23.208
			c2.082,0,3.769,1.276,3.769,2.848c0,1.571-1.687,2.848-3.769,2.848h-27.89h-57.007c-2.082,0-3.77-1.277-3.77-2.848
			c0-1.572,1.688-2.848,3.77-2.848h6.44c2.082,0,3.77-1.275,3.77-2.848c0-1.573-1.688-2.847-3.77-2.847h-30.654
			c-2.081,0-3.768-1.274-3.768-2.848c0-1.572,1.687-2.847,3.768-2.847h7.245H181.062z"/>
	</g>
</g>
<g>
</g>
<g>
</g>
<g>
</g>
<g>
</g>
<g>
</g>
<g>
</g>
<g>
</g>
<g>
</g>
<g>
</g>
<g>
</g>
<g>
</g>
<g>
</g>
<g>
</g>
<g>
</g>
<g>
</g>
</svg>
