<?xml version="1.0" encoding="iso-8859-1"?>
<!-- Generator: Adobe Illustrator 19.1.0, SVG Export Plug-In . SVG Version: 6.00 Build 0)  -->
<svg version="1.1" id="Capa_1" xmlns="http://www.w3.org/2000/svg" xmlns:xlink="http://www.w3.org/1999/xlink" x="0px" y="0px"
	 viewBox="0 0 218.332 218.332" style="enable-background:new 0 0 218.332 218.332;" xml:space="preserve">
<g>
	<g id="group-112svg">
		<path id="path-1_15_" style="fill:#040404;" d="M202.998,37.321c-2.317,0-4.201-1.864-4.201-4.159
			c0-2.296,1.884-4.163,4.201-4.163s4.2,1.867,4.2,4.163C207.198,35.457,205.315,37.321,202.998,37.321z M202.998,31.467
			c-0.943,0-1.709,0.76-1.709,1.695c0,0.933,0.766,1.693,1.709,1.693c0.944,0,1.709-0.76,1.709-1.693
			C204.707,32.227,203.942,31.467,202.998,31.467z"/>
		<path id="path-2_15_" style="fill:#142A3B;" d="M61.396,177.309H43.611c-3.429,0-6.208,1.577-6.208,3.522
			c0,1.946,2.779,3.523,6.208,3.523h0.828c3.429,0,6.209,1.574,6.209,3.521c0,1.945-2.78,3.522-6.209,3.522H6.208
			c-3.429,0-6.208,1.576-6.208,3.522c0,1.944,2.779,3.522,6.208,3.522h45.945h93.908c3.429,0,6.209-1.578,6.209-3.522
			c0-1.946-2.78-3.522-6.209-3.522h-10.61c-3.429,0-6.209-1.577-6.209-3.522c0-1.947,2.78-3.521,6.209-3.521h41.673
			c3.429,0,6.209-1.577,6.209-3.523c0-1.945-2.78-3.522-6.209-3.522h-3.111H61.396z"/>
		<path id="path-3_15_" style="fill:#142A3B;" d="M181.5,199.384c-2.874,0-5.205-1.69-5.205-3.774c0-2.085,2.331-3.775,5.205-3.775
			h15.952c2.875,0,5.205,1.69,5.205,3.775c0,2.084-2.33,3.774-5.205,3.774H181.5z"/>
		<path id="path-4_15_" style="fill:#FBB713;" d="M129.41,147.103c0,21.911-17.931,39.673-40.048,39.673
			c-22.118,0-40.047-17.762-40.047-39.673c0-21.91,17.929-39.673,40.047-39.673C111.479,107.43,129.41,125.193,129.41,147.103z"/>
		<path id="path-5_15_" style="fill:#FFFFFF;" d="M60.138,153.266c-2.009,0-3.639-1.614-3.639-3.605
			c0-19.315,15.864-35.029,35.36-35.029c2.01,0,3.639,1.613,3.639,3.604c0,1.991-1.629,3.605-3.639,3.605
			c-15.485,0-28.082,12.481-28.082,27.82C63.777,151.652,62.148,153.266,60.138,153.266z"/>
		<circle id="circle-1" style="fill:#FBB713;" cx="92.007" cy="145.969" r="3"/>
		<path id="path-6_15_" style="fill:#0CB04A;" d="M200.3,20.503c-12.377,7.609-46.755,35.031-62.441,57.213
			c-3.496,4.948-19.314,19.397-19.314,19.397s21.724,18.357,21.652,17.984c-0.468-2.453-1.242-9.748,6.552-17.447
			c8.989-8.877,31.683-41.598,57.895-50.049C230.855,39.152,213.729,12.247,200.3,20.503z"/>
		<path id="path-7_15_" style="opacity:0.35;fill:#020403;enable-background:new    ;" d="M212.159,21.167
			c4.988,6.831,4.562,18.168-10.845,23.136c-26.213,8.448-48.907,41.171-57.895,50.049c-7.793,7.697-7.692,8.556-7.224,11.008
			c0.054,0.278-8.389-5.93-14.558-11.126c-0.166,0.151-0.688,0.611-0.688,0.611s19.32,20.625,19.248,20.252
			c-0.468-2.453-1.242-9.748,6.552-17.446c8.989-8.878,31.683-41.599,57.895-50.05C222.952,41.699,220.109,26.806,212.159,21.167z"
			/>
		<path id="path-8_15_" style="opacity:0.35;fill:#020403;enable-background:new    ;" d="M92.319,107.579
			c13.998,6.184,23.769,20.061,23.769,36.225c0,21.911-17.93,39.674-40.047,39.674c-0.998,0-1.977-0.077-2.958-0.149
			c4.978,2.199,10.477,3.447,16.279,3.447c22.117,0,40.048-17.762,40.048-39.673C129.41,126.182,113.051,109.083,92.319,107.579z"/>
		<path id="path-9_14_" style="fill:#020403;" d="M96.529,158.408c-5.059,0-9.174-4.088-9.174-9.114c0-5.02,4.115-9.102,9.174-9.102
			c1.272,0,2.505,0.26,3.635,0.745l14.829-24.534l3.299,3.226c3.572,3.493,6.346,7.604,8.247,12.216l1.137,2.757l-21.992,14.179
			c0.01,0.171,0.014,0.341,0.014,0.513C105.698,154.32,101.585,158.408,96.529,158.408z M96.529,147.402
			c-1.045,0-1.896,0.849-1.896,1.892c0,1.05,0.851,1.905,1.896,1.905c1.043,0,1.892-0.855,1.892-1.905
			c0-0.255-0.053-0.509-0.16-0.753l-0.151-0.274C97.755,147.726,97.163,147.402,96.529,147.402z M116.278,128.315l-4.988,8.25
			l7.247-4.673C117.871,130.644,117.117,129.45,116.278,128.315z"/>
		<circle id="circle-2" style="fill:#142A3B;" cx="91.007" cy="144.969" r="7"/>
		<path id="path-10_12_" style="fill:#142A3B;" d="M92.876,147.178l-4.89-4.119l30.692-50.77l23.921,22.829L92.876,147.178z
			 M120.22,103.77l-17.014,28.145l27.755-17.893L120.22,103.77z"/>
	</g>
</g>
<g>
</g>
<g>
</g>
<g>
</g>
<g>
</g>
<g>
</g>
<g>
</g>
<g>
</g>
<g>
</g>
<g>
</g>
<g>
</g>
<g>
</g>
<g>
</g>
<g>
</g>
<g>
</g>
<g>
</g>
</svg>
