<?xml version="1.0" encoding="iso-8859-1"?>
<!-- Generator: Adobe Illustrator 19.1.0, SVG Export Plug-In . SVG Version: 6.00 Build 0)  -->
<svg version="1.1" id="Capa_1" xmlns="http://www.w3.org/2000/svg" xmlns:xlink="http://www.w3.org/1999/xlink" x="0px" y="0px"
	 viewBox="0 0 217.228 217.228" style="enable-background:new 0 0 217.228 217.228;" xml:space="preserve">
<g>
	<g id="group-91svg">
		<path id="path-1_151_" style="fill:#FBB713;" d="M63.209,147.314H45.508c-3.414,0-6.18,2.093-6.18,4.677
			c0,2.583,2.766,4.677,6.18,4.677h0.823c3.413,0,6.18,2.094,6.18,4.677c0,2.583-2.767,4.676-6.18,4.676H8.28
			c-3.412,0-6.18,2.095-6.18,4.679c0,2.581,2.768,4.676,6.18,4.676h45.728h93.467c3.413,0,6.18-2.095,6.18-4.676
			c0-2.584-2.767-4.679-6.18-4.679h-10.56c-3.413,0-6.18-2.093-6.18-4.676c0-2.583,2.767-4.677,6.18-4.677h41.476
			c3.413,0,6.18-2.094,6.18-4.677c0-2.584-2.767-4.677-6.18-4.677h-3.095H63.209z"/>
		<path id="path-2_151_" style="fill:#FBB713;" d="M172.988,176.628c-2.862,0-5.181-2.244-5.181-5.012
			c0-2.768,2.319-5.013,5.181-5.013h15.876c2.861,0,5.181,2.245,5.181,5.013c0,2.768-2.32,5.012-5.181,5.012H172.988z"/>
		<path id="path-3_151_" style="fill:#FBB713;" d="M37.118,132.816h5.048c0.973,0,1.762-0.866,1.762-1.934
			c0-1.067-0.789-1.932-1.762-1.932h-0.235c-0.973,0-1.762-0.865-1.762-1.933c0-1.067,0.789-1.932,1.762-1.932h10.853
			c0.973,0,1.762-0.866,1.762-1.933s-0.789-1.934-1.762-1.934H39.742H13.085c-0.973,0-1.763,0.867-1.763,1.934
			s0.79,1.933,1.763,1.933h3.011c0.974,0,1.763,0.865,1.763,1.932c0,1.068-0.789,1.933-1.763,1.933H1.762
			c-0.973,0-1.762,0.865-1.762,1.932c0,1.068,0.789,1.934,1.762,1.934H5.15H37.118z"/>
		<path id="path-4_151_" style="fill:#142A3B;" d="M187.894,151.286H72.891l-28.75-37.862h172.503L187.894,151.286z"/>
		<path id="path-5_150_" style="opacity:0.35;enable-background:new    ;" d="M196.129,113.424l-11.38,14.988
			c-7.932,10.446-20.295,16.581-33.412,16.581H68.112l4.779,6.294h115.003l28.75-37.863H196.129z"/>
		<path id="path-6_147_" style="fill:#FBB713;" d="M180.199,113.424c2.241-5.919,3.523-12.311,3.523-19.016
			c0-29.717-24.091-53.807-53.809-53.807c-29.717,0-53.809,24.09-53.809,53.807c0,6.705,1.282,13.097,3.523,19.016H180.199z"/>
		<path id="path-7_143_" style="fill:#FFFFFF;" d="M92.877,92.606c-2,0-3.621-1.622-3.621-3.622
			c0-22.416,18.238-40.654,40.658-40.654c1.999,0,3.62,1.622,3.62,3.62c0,2.001-1.621,3.62-3.62,3.62
			c-18.426,0-33.417,14.989-33.417,33.414C96.497,90.984,94.876,92.606,92.877,92.606z"/>
		<path id="path-8_119_" style="opacity:0.35;fill:#010101;enable-background:new    ;" d="M155.51,47.07
			c9.653,9.726,15.623,23.112,15.623,37.898c0,0.065,0,0.132,0,0.2c-0.04,10.493-8.936,18.815-19.429,18.815H76.993
			c0.601,3.255,1.488,6.412,2.634,9.441h100.572c2.241-5.919,3.523-12.311,3.523-19.017C183.722,73.957,172.311,56.173,155.51,47.07
			z"/>
		<path id="path-9_104_" style="fill:#FBB713;" d="M188.964,65.554c0,0,8.355,21.9,0,30.255c-8.355,8.354-21.901,8.354-30.256,0
			c-8.355-8.355-8.355-21.9,0-30.255S188.964,65.554,188.964,65.554z"/>
		<path id="path-10_93_" style="opacity:0.35;fill:#010101;enable-background:new    ;" d="M192.111,89.514
			c-8.355,8.355-21.901,8.355-30.256,0c-5.779-5.78-7.554-14.043-5.337-21.354c-6.06,8.365-5.346,20.112,2.19,27.649
			c8.355,8.353,21.901,8.353,30.256,0c1.665-1.665,2.645-3.879,3.182-6.339C192.133,89.484,192.124,89.501,192.111,89.514z"/>
		<path id="path-11_80_" style="fill:#142A3B;" d="M187.184,73.594l-4.311-5.139l18.983-14.528l4.31,5.14L187.184,73.594z"/>
		<path id="path-12_70_" style="fill:#142A3B;" d="M211.478,49.25c0,4.357-3.532,7.888-7.887,7.888
			c-4.356,0-7.888-3.531-7.888-7.888c0-4.355,3.532-7.886,7.888-7.886C207.946,41.364,211.478,44.895,211.478,49.25z"/>
		<path id="path-13_54_" style="fill:#142A3B;" d="M217.228,57.876c0,4.355-3.532,7.887-7.887,7.887
			c-4.356,0-7.888-3.532-7.888-7.887c0-4.356,3.532-7.887,7.888-7.887C213.696,49.989,217.228,53.52,217.228,57.876z"/>
	</g>
</g>
<g>
</g>
<g>
</g>
<g>
</g>
<g>
</g>
<g>
</g>
<g>
</g>
<g>
</g>
<g>
</g>
<g>
</g>
<g>
</g>
<g>
</g>
<g>
</g>
<g>
</g>
<g>
</g>
<g>
</g>
</svg>
