<?xml version="1.0" encoding="iso-8859-1"?>
<!-- Generator: Adobe Illustrator 19.1.0, SVG Export Plug-In . SVG Version: 6.00 Build 0)  -->
<svg version="1.1" id="Capa_1" xmlns="http://www.w3.org/2000/svg" xmlns:xlink="http://www.w3.org/1999/xlink" x="0px" y="0px"
	 viewBox="0 0 217.229 217.229" style="enable-background:new 0 0 217.229 217.229;" xml:space="preserve">
<g>
	<g id="group-142svg">
		<path id="path-1_48_" style="fill:#FF3A2F;" d="M49.49,180.439H35.155c-2.764,0-5.005,1.697-5.005,3.788
			c0,2.092,2.241,3.788,5.005,3.788h0.667c2.764,0,5.004,1.695,5.004,3.787c0,2.093-2.24,3.788-5.004,3.788H5.005
			c-2.764,0-5.005,1.697-5.005,3.788c0,2.093,2.241,3.788,5.005,3.788h37.034h75.698c2.764,0,5.004-1.695,5.004-3.788
			c0-2.091-2.24-3.788-5.004-3.788h-8.553c-2.764,0-5.004-1.695-5.004-3.788c0-2.092,2.24-3.787,5.004-3.787h33.592
			c2.763,0,5.004-1.696,5.004-3.788c0-2.091-2.241-3.788-5.004-3.788h-2.507H49.49z"/>
		<path id="path-2_48_" style="fill:#FF3A2F;" d="M138.399,204.181c-2.317,0-4.195-1.817-4.195-4.06
			c0-2.242,1.878-4.059,4.195-4.059h12.858c2.317,0,4.196,1.817,4.196,4.059c0,2.243-1.879,4.06-4.196,4.06H138.399z"/>
		<path id="path-3_48_" style="fill:#0CB04A;" d="M63.147,62.264l154.082-24.703l-3.088-21.29c0-1.78-1.4-3.223-3.131-3.223
			L53.732,40.84c-1.729,0-3.131,1.444-3.131,3.224v49.009c0,1.782,1.402,3.224,3.131,3.224H211.01c1.731,0,3.131-1.442,3.131-3.224
			V74.712L63.147,75.003l0,0"/>
		<path id="path-4_48_" style="fill:#FBB713;" d="M214.273,93.268v86.603c0,1.666-1.378,3.021-3.076,3.021H53.674
			c-1.698,0-3.073-1.355-3.073-3.021V93.338L214.273,93.268z"/>
		<path id="path-5_48_" style="opacity:0.35;enable-background:new    ;" d="M193.891,93.278v76.401
			c0,1.668-1.378,3.021-3.076,3.021H50.601v7.171c0,1.666,1.375,3.021,3.073,3.021h157.523c1.698,0,3.076-1.355,3.076-3.021V93.268
			L193.891,93.278z"/>
		<path id="path-6_47_" style="fill:#142A3B;" d="M75.479,96.528l-6.306-3.559L79.972,73.84l6.308,3.56L75.479,96.528z"/>
		<path id="path-7_46_" style="fill:#142A3B;" d="M99.783,96.528l-6.308-3.559l10.801-19.129l6.308,3.56L99.783,96.528z"/>
		<path id="path-8_35_" style="fill:#142A3B;" d="M124.087,96.528l-6.308-3.559L128.58,73.84l6.308,3.56L124.087,96.528z"/>
		<path id="path-9_30_" style="fill:#142A3B;" d="M145.689,96.528l-6.307-3.559l10.801-19.129l6.307,3.56L145.689,96.528z"/>
		<path id="path-10_27_" style="fill:#142A3B;" d="M167.291,96.528l-6.307-3.559l10.801-19.129l6.308,3.56L167.291,96.528z"/>
		<path id="path-11_21_" style="fill:#142A3B;" d="M191.595,96.528l-6.307-3.559l10.801-19.129l6.308,3.56L191.595,96.528z"/>
		<path id="path-12_17_" style="fill:#142A3B;" d="M78.24,59.808l-6.815-2.449l7.433-20.669l6.817,2.449L78.24,59.808z"/>
		<path id="path-13_15_" style="fill:#142A3B;" d="M102.19,55.73l-6.81-2.453l7.439-20.669l6.81,2.454L102.19,55.73z"/>
		<path id="path-14_13_" style="fill:#142A3B;" d="M126.151,51.651l-6.809-2.454l7.438-20.667l6.81,2.454L126.151,51.651z"/>
		<path id="path-15_12_" style="fill:#142A3B;" d="M147.453,48.025l-6.816-2.45l7.435-20.668l6.817,2.451L147.453,48.025z"/>
		<path id="path-16_10_" style="fill:#142A3B;" d="M168.745,44.399l-6.81-2.454l7.44-20.668l6.809,2.453L168.745,44.399z"/>
		<path id="path-17_8_" style="fill:#142A3B;" d="M192.709,40.319l-6.816-2.448l7.435-20.671l6.816,2.45L192.709,40.319z"/>
		<path id="path-18_7_" style="fill:#142A3B;" d="M198.448,127.838H66.427v-7.24h132.021V127.838z"/>
		<path id="path-19_5_" style="fill:#142A3B;" d="M198.448,158.719H66.427v-7.24h132.021V158.719z"/>
	</g>
</g>
<g>
</g>
<g>
</g>
<g>
</g>
<g>
</g>
<g>
</g>
<g>
</g>
<g>
</g>
<g>
</g>
<g>
</g>
<g>
</g>
<g>
</g>
<g>
</g>
<g>
</g>
<g>
</g>
<g>
</g>
</svg>
