<?xml version="1.0" encoding="iso-8859-1"?>
<!-- Generator: Adobe Illustrator 19.1.0, SVG Export Plug-In . SVG Version: 6.00 Build 0)  -->
<svg version="1.1" id="Capa_1" xmlns="http://www.w3.org/2000/svg" xmlns:xlink="http://www.w3.org/1999/xlink" x="0px" y="0px"
	 viewBox="0 0 217.228 217.228" style="enable-background:new 0 0 217.228 217.228;" xml:space="preserve">
<g>
	<g id="group-71svg">
		<path id="path-1_129_" style="fill:#0CB04A;" d="M53.816,145.306H38.227c-3.006,0-5.443,1.776-5.443,3.967
			c0,2.191,2.437,3.966,5.443,3.966h0.725c3.006,0,5.443,1.777,5.443,3.968c0,2.19-2.437,3.967-5.443,3.967H5.442
			C2.436,161.174,0,162.95,0,165.14c0,2.192,2.436,3.968,5.442,3.968h40.271h82.314c3.006,0,5.442-1.776,5.442-3.968
			c0-2.19-2.436-3.966-5.442-3.966h-9.3c-3.006,0-5.442-1.777-5.442-3.967c0-2.191,2.436-3.968,5.442-3.968h36.527
			c3.006,0,5.442-1.775,5.442-3.966c0-2.191-2.436-3.967-5.442-3.967h-2.726H53.816z"/>
		<path id="path-2_129_" style="fill:#0CB04A;" d="M149.64,169.465c-2.118,0-3.834-1.257-3.834-2.807s1.716-2.806,3.834-2.806
			h11.748c2.117,0,3.833,1.256,3.833,2.806s-1.716,2.807-3.833,2.807H149.64z"/>
		<path id="path-3_129_" style="fill:#142A3B;" d="M154.031,62.602H68.702l-16.574-8.199v-5h164.518v6.6L154.031,62.602z"/>
		<path id="path-4_129_" style="fill:#142A3B;" d="M154.031,62.295H68.702l-16.574,8.198v5h164.518v-6.599L154.031,62.295z"/>
		<path id="path-5_128_" style="opacity:0.35;enable-background:new    ;" d="M154.031,62.295H68.702l-16.574,8.198v5h164.518
			v-6.599L154.031,62.295z"/>
		<path id="path-6_125_" style="fill:#FFFFFF;" d="M96.787,63.599c0,2.924-2.371,5.295-5.294,5.295
			c-2.925,0-5.295-2.371-5.295-5.295s2.37-5.294,5.295-5.294C94.416,58.305,96.787,60.675,96.787,63.599z"/>
		<path id="path-7_122_" style="fill:#FFFFFF;" d="M147.586,60.76c-2.876,0.533,10.895-4.757,11.739,2.839
			c0.323,2.907-2.37,5.295-5.294,5.295c0,0-22.311-12.847-29.16-18.661c-0.512-0.434-0.52-1.21-0.034-1.673l0.509-0.485
			c0.377-0.358,0.95-0.415,1.388-0.134l24.534,15.658c0,0,3.127,2.127,3.761,1.995C156.155,65.359,156.486,59.111,147.586,60.76z"/>
		<path id="path-8_99_" style="fill:#FFFFFF;" d="M112.748,63.599c0,1.568-1.271,2.839-2.839,2.839s-2.84-1.271-2.84-2.839
			c0-1.568,1.272-2.839,2.84-2.839S112.748,62.031,112.748,63.599z"/>
		<path id="path-9_85_" style="fill:#142A3B;" d="M153.513,116.867l-81.892,23.971l-18.211-3.211l-1.404-4.798l157.892-46.22
			l1.854,6.333L153.513,116.867z"/>
		<path id="path-10_77_" style="fill:#142A3B;" d="M153.427,116.571l-81.892,23.973l-13.603,12.524l1.404,4.799l157.892-46.221
			l-1.854-6.333L153.427,116.571z"/>
		<path id="path-11_66_" style="opacity:0.35;enable-background:new    ;" d="M153.427,116.571l-81.892,23.973l-13.603,12.524
			l1.404,4.799l157.892-46.221l-1.854-6.333L153.427,116.571z"/>
		<path id="path-12_56_" style="fill:#FFFFFF;" d="M98.855,133.906c0.822,2.807-0.787,5.747-3.594,6.568
			c-2.806,0.822-5.747-0.787-6.569-3.593c-0.821-2.807,0.788-5.747,3.595-6.568C95.093,129.491,98.034,131.1,98.855,133.906z"/>
		<path id="path-13_44_" style="fill:#FFFFFF;" d="M146.809,116.91c-2.609,1.32,9.121-7.627,12.066-0.573
			c1.127,2.698-0.788,5.747-3.594,6.568c0,0-25.022-6.061-33.228-9.717c-0.613-0.273-0.839-1.015-0.503-1.597l0.352-0.607
			c0.261-0.45,0.795-0.664,1.295-0.519l27.945,8.135c0,0,3.599,1.164,4.169,0.858C156.326,118.916,154.889,112.827,146.809,116.91z"
			/>
		<path id="path-14_37_" style="fill:#FFFFFF;" d="M114.173,129.422c0.441,1.505-0.422,3.082-1.927,3.522
			c-1.505,0.441-3.082-0.422-3.522-1.927c-0.441-1.504,0.422-3.082,1.927-3.522C112.155,127.054,113.733,127.917,114.173,129.422z"
			/>
	</g>
</g>
<g>
</g>
<g>
</g>
<g>
</g>
<g>
</g>
<g>
</g>
<g>
</g>
<g>
</g>
<g>
</g>
<g>
</g>
<g>
</g>
<g>
</g>
<g>
</g>
<g>
</g>
<g>
</g>
<g>
</g>
</svg>
