<?xml version="1.0" encoding="iso-8859-1"?>
<!-- Generator: Adobe Illustrator 19.1.0, SVG Export Plug-In . SVG Version: 6.00 Build 0)  -->
<svg version="1.1" id="Capa_1" xmlns="http://www.w3.org/2000/svg" xmlns:xlink="http://www.w3.org/1999/xlink" x="0px" y="0px"
	 viewBox="0 0 217.229 217.229" style="enable-background:new 0 0 217.229 217.229;" xml:space="preserve">
<g>
	<g id="group-122svg">
		<path id="path-1_26_" style="fill:#FF3A2F;" d="M101.503,170.255H85.846c-3.018,0-5.465,1.853-5.465,4.138
			c0,2.284,2.447,4.136,5.465,4.136h0.729c3.019,0,5.466,1.853,5.466,4.138c0,2.284-2.447,4.137-5.466,4.137H52.918
			c-3.018,0-5.465,1.851-5.465,4.136c0,2.284,2.447,4.136,5.465,4.136h40.447h82.672c3.019,0,5.466-1.852,5.466-4.136
			c0-2.285-2.447-4.136-5.466-4.136h-9.34c-3.019,0-5.466-1.853-5.466-4.137c0-2.285,2.447-4.138,5.466-4.138h36.686
			c3.018,0,5.467-1.852,5.467-4.136c0-2.285-2.449-4.138-5.467-4.138h-2.738H101.503z"/>
		<path id="path-2_26_" style="fill:#FF3A2F;" d="M198.604,196.184c-2.531,0-4.583-1.984-4.583-4.433
			c0-2.448,2.052-4.434,4.583-4.434h14.043c2.53,0,4.582,1.986,4.582,4.434c0,2.449-2.052,4.433-4.582,4.433H198.604z"/>
		<path id="path-3_26_" style="fill:#FF3A2F;" d="M4.583,196.184c-2.531,0-4.583-1.984-4.583-4.433c0-2.448,2.052-4.434,4.583-4.434
			h14.042c2.532,0,4.583,1.986,4.583,4.434c0,2.449-2.051,4.433-4.583,4.433H4.583z"/>
		<path id="path-4_26_" style="fill:#142A3B;" d="M181.88,29.123l-55.606,151.832L70.668,29.123H181.88z"/>
		<path id="path-5_26_" style="opacity:0.45;enable-background:new    ;" d="M80.604,33.351l20.777,31.419l25.959-23.159
			l25.959,23.159l24.212-30.689l-50.527,2.062L80.604,33.351z"/>
		<path id="path-6_26_" style="fill:#0CB04A;" d="M35.481,50.491l80.006,125.701l6.593-17.068L76.076,21.045l0,0"/>
		<path id="path-7_25_" style="opacity:0.35;enable-background:new    ;" d="M76.076,21.045l-5.231,3.795l42.884,128.717
			l-4.777,12.367l6.535,10.268l6.593-17.068L76.076,21.045z"/>
		<path id="path-8_18_" style="fill:#0CB04A;" d="M175.399,21.087l-61.532,159.299h18.324c3.4-15.561,81.44-132.915,81.44-132.915
			l0,0"/>
		<path id="path-9_16_" style="opacity:0.35;enable-background:new    ;" d="M175.399,21.087l-3.193,8.265l19.475,13.438
			c5.999,4.141,7.595,12.316,3.586,18.406c-18.317,27.827-65.644,100.429-73.276,119.19h10.2
			c3.401-15.561,81.44-132.915,81.44-132.915L175.399,21.087z"/>
		<path id="path-10_14_" style="fill:#FF3A2F;" d="M142.668,46.512l-8.441,12.036h-16.288l-9.325-12.036l17.027-15.45
			L142.668,46.512z"/>
		<path id="path-11_12_" style="fill:#FF3A2F;" d="M117.939,58.548c0,0-21.305,24.281-13.757,47.068l16.4,57.384l22.129-57.384
			c8.446-21.892-8.484-47.068-8.484-47.068l0,0"/>
		<path id="path-12_9_" style="opacity:0.35;enable-background:new    ;" d="M125.641,31.062l-4.175,3.789l12.852,14.444
			l-8.442,9.253h8.351l8.441-12.036L125.641,31.062z"/>
		<path id="path-13_8_" style="opacity:0.35;enable-background:new    ;" d="M134.227,58.548h-8.351c0,0,16.93,25.176,8.484,47.068
			l-17.332,44.948l3.554,12.436l22.129-57.384C151.157,83.724,134.227,58.548,134.227,58.548z"/>
		<path id="path-14_6_" style="fill:#EDEDED;" d="M77.82,25l20.777,31.419l25.959-23.159l25.959,23.159l24.212-30.688l-50.526,2.06
			L77.82,25z"/>
		<path id="path-15_5_" style="opacity:0.25;enable-background:new    ;" d="M118.989,30.477L95.374,51.544l3.223,4.875
			l24.736-22.067L118.989,30.477z"/>
		<path id="path-16_5_" style="opacity:0.25;enable-background:new    ;" d="M166.706,26.058l-20.747,26.297l4.556,4.064
			l24.212-30.688L166.706,26.058z"/>
	</g>
</g>
<g>
</g>
<g>
</g>
<g>
</g>
<g>
</g>
<g>
</g>
<g>
</g>
<g>
</g>
<g>
</g>
<g>
</g>
<g>
</g>
<g>
</g>
<g>
</g>
<g>
</g>
<g>
</g>
<g>
</g>
</svg>
