<?xml version="1.0" encoding="iso-8859-1"?>
<!-- Generator: Adobe Illustrator 19.1.0, SVG Export Plug-In . SVG Version: 6.00 Build 0)  -->
<svg version="1.1" id="Capa_1" xmlns="http://www.w3.org/2000/svg" xmlns:xlink="http://www.w3.org/1999/xlink" x="0px" y="0px"
	 viewBox="0 0 218.332 218.332" style="enable-background:new 0 0 218.332 218.332;" xml:space="preserve">
<g>
	<g id="group-89svg">
		<path id="path-1_156_" style="fill:#2476FF;" d="M172.986,115.672c0.651-6.487,0.21-13.322-1.612-20.328
			c-6.228-23.942-27.381-41.846-52.248-43.946c-25.312-2.136-47.601,11.503-58.113,32.061c-7.635-5.974-17.634-9.12-28.406-7.715
			C16.58,77.837,3.436,90.291,0.603,106.056c-0.554,3.078-0.715,6.148-0.53,9.071c0.516,8.144,7.491,14.473,15.729,14.473h141.512
			C165.339,129.6,172.19,123.583,172.986,115.672z"/>
		<path id="path-2_156_" style="opacity:0.25;fill:#020403;enable-background:new    ;" d="M171.373,95.344
			c-5.195-19.975-20.795-35.709-40.258-41.606c5.524,6.566,9.68,14.326,11.905,22.88c1.823,7.008,2.264,13.841,1.612,20.328
			c-0.795,7.912-7.646,13.928-15.672,13.928H0.061c-0.073,1.44-0.076,2.865,0.012,4.253c0.516,8.146,7.491,14.473,15.729,14.473
			h141.512c8.025,0,14.876-6.017,15.672-13.928C173.637,109.185,173.196,102.35,171.373,95.344z"/>
		<path id="path-3_156_" style="fill:#FFFFFF;" d="M76.976,88.426c-0.424,0-0.854-0.074-1.275-0.23
			c-1.882-0.697-2.836-2.775-2.132-4.639c5.845-15.484,21.499-25.441,38.17-24.218c2.005,0.147,3.508,1.877,3.358,3.863
			c-0.149,1.986-1.878,3.45-3.898,3.327c-13.415-0.992-26.094,7.054-30.815,19.554C79.837,87.531,78.449,88.426,76.976,88.426z"/>
		<path id="path-4_155_" style="fill:#142A3B;" d="M189.402,97.463h9.934c2.584,0,4.678,1.702,4.678,3.801
			c0,2.098-2.094,3.801-4.678,3.801h-0.624c-2.583,0-1.213,1.7-1.213,3.799c0,2.1,2.095,3.801,4.678,3.801h11.477
			c2.584,0,4.678,1.702,4.678,3.802c0,2.099-2.094,3.799-4.678,3.799h-17.287h-70.753c-2.584,0-4.678-1.7-4.678-3.799
			c0-2.1,2.094-3.802,4.678-3.802h7.994c2.583,0,4.677-1.701,4.677-3.801c0-2.099-2.094-3.799-4.677-3.799H95.563
			c-2.584,0-4.678-1.703-4.678-3.801c0-2.099,2.094-3.801,4.678-3.801h8.991H189.402z"/>
		<path id="path-5_155_" style="fill:#142A3B;" d="M194.112,75.421c4.191,0,7.589-1.725,7.589-3.851
			c0-2.125-3.398-3.849-7.589-3.849H170.86c-4.191,0-7.588,1.724-7.588,3.849c0,2.126,3.397,3.851,7.588,3.851H194.112z"/>
		<path id="path-6_153_" style="fill:#142A3B;" d="M62.335,156.242h4.202c0.811,0,1.468,0.814,1.468,1.819
			c0,1.004-0.657,1.818-1.468,1.818h-0.195c-0.81,0-1.467,0.814-1.467,1.819s0.657,1.819,1.467,1.819h9.035
			c0.81,0,1.467,0.814,1.467,1.818c0,1.005-0.657,1.819-1.467,1.819H64.519H42.327c-0.81,0-1.467-0.814-1.467-1.819
			c0-1.004,0.657-1.818,1.467-1.818h2.507c0.811,0,1.467-0.814,1.467-1.819s-0.656-1.819-1.467-1.819H32.901
			c-0.81,0-1.468-0.814-1.468-1.818c0-1.005,0.658-1.819,1.468-1.819h2.82H62.335z"/>
		<path id="path-7_153_" style="fill:#142A3B;" d="M141.827,157.995c4.191,0,7.588-1.723,7.588-3.85
			c0-2.125-3.397-3.849-7.588-3.849h-23.253c-4.191,0-7.588,1.724-7.588,3.849c0,2.127,3.397,3.85,7.588,3.85H141.827z"/>
	</g>
</g>
<g>
</g>
<g>
</g>
<g>
</g>
<g>
</g>
<g>
</g>
<g>
</g>
<g>
</g>
<g>
</g>
<g>
</g>
<g>
</g>
<g>
</g>
<g>
</g>
<g>
</g>
<g>
</g>
<g>
</g>
</svg>
