<?xml version="1.0" encoding="iso-8859-1"?>
<!-- Generator: Adobe Illustrator 19.1.0, SVG Export Plug-In . SVG Version: 6.00 Build 0)  -->
<svg version="1.1" id="Capa_1" xmlns="http://www.w3.org/2000/svg" xmlns:xlink="http://www.w3.org/1999/xlink" x="0px" y="0px"
	 viewBox="0 0 217.229 217.229" style="enable-background:new 0 0 217.229 217.229;" xml:space="preserve">
<g>
	<g id="group-99svg">
		<path id="path-1_159_" style="fill:#2476FF;" d="M46.275,129.309c0-21.73,11.652-35.603,26.115-35.603
			c6.386,0,12.197,3.221,16.741,8.928c5.171-27.965,22.21-48.795,42.469-48.795c20.26,0,37.307,20.006,42.479,47.971
			c8.742-10.978,22.648-17.323,34.962,3.767c5.461,9.354,8.188,21.62,8.188,34.063l0,0c0,6.794-3.666,12.301-8.187,12.301H54.485
			c-4.512,0-8.172-5.483-8.187-12.262L46.275,129.309z"/>
		<path id="path-2_159_" style="opacity:0.35;enable-background:new    ;" d="M152.709,107.153
			c5.382-6.758,12.719-11.748,20.437-9.678c-6.061-25.668-22.353-43.636-41.546-43.636c-6.261,0-12.212,2-17.602,5.576
			C132.579,61.718,147.862,80.94,152.709,107.153z"/>
		<path id="path-3_159_" style="opacity:0.35;enable-background:new    ;" d="M71.639,93.751
			c-5.508,0.186-10.569,2.396-14.706,6.293c4.048,1.351,7.737,4.048,10.829,7.932C68.687,102.976,70.005,98.217,71.639,93.751z"/>
		<path id="path-4_159_" style="opacity:0.35;enable-background:new    ;" d="M209.041,105.577
			c-11.174-19.14-23.66-15.684-32.408-6.676c3.703,2.045,7.439,5.853,11.039,12.019c5.461,9.353,8.187,21.62,8.187,34.062
			c0,2.585-0.535,4.979-1.442,6.959h14.625c4.521,0,8.187-5.507,8.187-12.301C217.229,127.198,214.502,114.931,209.041,105.577z"/>
		<path id="path-5_158_" style="fill:#142A3B;" d="M53.943,139.174H38.317c-3.012,0-5.455,1.78-5.455,3.976s2.443,3.977,5.455,3.977
			h0.728c3.012,0,5.455,1.78,5.455,3.976s-2.443,3.975-5.455,3.975H5.455c-3.012,0-5.455,1.782-5.455,3.978s2.443,3.976,5.455,3.976
			h40.367h82.507c3.013,0,5.455-1.78,5.455-3.976s-2.442-3.978-5.455-3.978h-9.322c-3.013,0-5.455-1.779-5.455-3.975
			s2.442-3.976,5.455-3.976h36.613c3.013,0,5.455-1.781,5.455-3.977s-2.442-3.976-5.455-3.976h-2.732H53.943z"/>
		<path id="path-6_155_" style="fill:#142A3B;" d="M149.992,163.389c-2.122,0-3.842-1.259-3.842-2.812
			c0-1.554,1.72-2.814,3.842-2.814h11.777c2.121,0,3.841,1.26,3.841,2.814c0,1.553-1.72,2.812-3.841,2.812H149.992z"/>
	</g>
</g>
<g>
</g>
<g>
</g>
<g>
</g>
<g>
</g>
<g>
</g>
<g>
</g>
<g>
</g>
<g>
</g>
<g>
</g>
<g>
</g>
<g>
</g>
<g>
</g>
<g>
</g>
<g>
</g>
<g>
</g>
</svg>
