<?xml version="1.0" encoding="iso-8859-1"?>
<!-- Generator: Adobe Illustrator 19.1.0, SVG Export Plug-In . SVG Version: 6.00 Build 0)  -->
<svg version="1.1" id="Capa_1" xmlns="http://www.w3.org/2000/svg" xmlns:xlink="http://www.w3.org/1999/xlink" x="0px" y="0px"
	 viewBox="0 0 218.333 218.333" style="enable-background:new 0 0 218.333 218.333;" xml:space="preserve">
<g>
	<g id="group-72svg">
		<path id="path-1_138_" style="fill:#FBB713;" d="M72.659,154.402h-8.567c-15.208,0-26.674-12.232-26.674-28.451V99.912
			c0-2.008,1.639-3.633,3.667-3.633h58.67c2.028,0,3.668,1.625,3.668,3.633v26.039C103.423,141.106,89.048,154.402,72.659,154.402z"
			/>
		<path id="path-2_138_" style="fill:#FFFFFF;" d="M47.977,136.531c-2.012,0-3.639-1.615-3.639-3.605v-26.039
			c0-3.99,3.277-7.238,7.307-7.238c2.011,0,3.638,1.615,3.638,3.605c0,1.991-1.627,3.606-3.638,3.606l-0.029,26.066
			C51.616,134.916,49.988,136.531,47.977,136.531z"/>
		<path id="path-3_138_" style="opacity:0.25;fill:#020403;enable-background:new    ;" d="M99.755,96.279H85.822v22.698
			c0,15.154-14.376,28.45-30.766,28.45h-8.565c-0.082,0-0.16-0.011-0.241-0.011c4.661,4.375,10.845,6.986,17.842,6.986h8.566
			c16.39,0,30.765-13.297,30.765-28.451V99.912C103.423,97.904,101.783,96.279,99.755,96.279z"/>
		<path id="path-4_137_" style="fill:#FBB713;" d="M42.106,136.211h-10.55c-5.739,0-12.445-3.759-12.445-14.354v-7.563
			c0-10.594,6.706-14.354,12.445-14.354h9.385L42.106,136.211z M31.556,107.15c-3.43,0-5.166,2.404-5.166,7.144v7.563
			c0,4.741,1.736,7.145,5.166,7.145h3.038l-0.703-21.852H31.556z"/>
		<path id="path-5_137_" style="fill:#FF3A2F;" d="M195.097,183.463H26.417c-2.027,0-3.667-1.624-3.667-3.632v-29.062
			c0-2.008,1.64-3.632,3.667-3.632h83.098l20.167-79.919H26.417c-2.027,0-3.667-1.624-3.667-3.632V12.729
			c0-2.009,1.64-3.634,3.667-3.634h168.68c2.026,0,3.666,1.625,3.666,3.634v167.102
			C198.763,181.839,197.123,183.463,195.097,183.463z"/>
		<path id="path-6_135_" style="opacity:0.35;fill:#020403;enable-background:new    ;" d="M27.785,67.218h109.189l3.626-10.462
			H22.75v6.829C22.75,65.594,25.002,67.218,27.785,67.218z"/>
		<path id="path-7_135_" style="opacity:0.25;fill:#020403;enable-background:new    ;" d="M195.097,9.095h-17.456v160.274
			c0,2.008-1.639,3.631-3.665,3.631H22.75v6.831c0,2.008,1.64,3.632,3.667,3.632h168.68c2.026,0,3.666-1.624,3.666-3.632V12.729
			C198.763,10.72,197.123,9.095,195.097,9.095z"/>
		<path id="path-8_132_" style="fill:#142A3B;" d="M74.087,81.749h-7.334V67.218h7.334V81.749z"/>
		<path id="path-9_126_" style="fill:#020403;" d="M183.95,175.907h-29.337c-2.027,0-3.667-1.624-3.667-3.632v-14.531
			c0-2.008,1.64-3.633,3.667-3.633h29.337c2.027,0,3.666,1.625,3.666,3.633v14.531C187.616,174.283,185.977,175.907,183.95,175.907z
			"/>
		<path id="path-10_116_" style="fill:#142A3B;" d="M180.428,168.934h-29.335c-2.027,0-3.667-1.626-3.667-3.634v-14.531
			c0-2.008,1.64-3.632,3.667-3.632h29.335c2.027,0,3.668,1.624,3.668,3.632V165.3C184.096,167.308,182.455,168.934,180.428,168.934z
			"/>
		<path id="path-11_102_" style="fill:#FBB713;" d="M75.026,194.577h15.276c2.946,0,5.332,1.094,5.332,2.444
			c0,1.349-2.386,2.442-5.332,2.442h-0.71c-2.947,0-5.334,1.095-5.334,2.445s2.387,2.443,5.334,2.443h32.837
			c2.946,0,5.333,1.094,5.333,2.444c0,1.35-2.387,2.443-5.333,2.443H82.966H39.593c-2.945,0-5.333-1.093-5.333-2.443
			c0-1.35,2.388-2.444,5.333-2.444h9.113c2.946,0,5.333-1.093,5.333-2.443s-2.387-2.445-5.333-2.445H5.333
			c-2.945,0-5.333-1.093-5.333-2.442c0-1.35,2.388-2.444,5.333-2.444h10.25H75.026z"/>
		<path id="path-12_88_" style="fill:#142A3B;" d="M26.339,80.377h4.917c0.948,0,1.718,0.823,1.718,1.839
			c0,1.015-0.77,1.838-1.718,1.838h-0.228c-0.949,0-1.717,0.824-1.717,1.839c0,1.016,0.768,1.839,1.717,1.839H41.6
			c0.948,0,1.717,0.823,1.717,1.839S42.548,91.41,41.6,91.41H28.895H14.93c-0.948,0-1.717-0.823-1.717-1.839
			s0.769-1.839,1.717-1.839h2.935c0.948,0,1.716-0.823,1.716-1.839c0-1.015-0.768-1.839-1.716-1.839H3.899
			c-0.948,0-1.716-0.823-1.716-1.838c0-1.016,0.768-1.839,1.716-1.839H7.2H26.339z"/>
		<path id="path-13_76_" style="fill:#FBB713;" d="M201.354,127.09h4.918c0.947,0,1.717,0.823,1.717,1.838
			c0,1.016-0.77,1.839-1.717,1.839h-0.229c-0.949,0-1.717,0.823-1.717,1.839s0.768,1.839,1.717,1.839h10.572
			c0.949,0,1.718,0.823,1.718,1.839c0,1.015-0.769,1.839-1.718,1.839h-12.706h-13.964c-0.948,0-1.717-0.824-1.717-1.839
			c0-1.016,0.769-1.839,1.717-1.839h2.935c0.948,0,1.717-0.823,1.717-1.839s-0.769-1.839-1.717-1.839h-13.965
			c-0.947,0-1.717-0.823-1.717-1.839c0-1.015,0.77-1.838,1.717-1.838h3.3H201.354z"/>
	</g>
</g>
<g>
</g>
<g>
</g>
<g>
</g>
<g>
</g>
<g>
</g>
<g>
</g>
<g>
</g>
<g>
</g>
<g>
</g>
<g>
</g>
<g>
</g>
<g>
</g>
<g>
</g>
<g>
</g>
<g>
</g>
</svg>
