<?xml version="1.0" encoding="iso-8859-1"?>
<!-- Generator: Adobe Illustrator 19.1.0, SVG Export Plug-In . SVG Version: 6.00 Build 0)  -->
<svg version="1.1" id="Capa_1" xmlns="http://www.w3.org/2000/svg" xmlns:xlink="http://www.w3.org/1999/xlink" x="0px" y="0px"
	 viewBox="0 0 218.332 218.332" style="enable-background:new 0 0 218.332 218.332;" xml:space="preserve">
<g>
	<g id="group-6svg">
		<path id="path-1_124_" style="fill:#FBB713;" d="M76.191,177.731h15.513c2.991,0,5.415,1.522,5.415,3.399
			s-2.424,3.399-5.415,3.399h-0.723c-2.99,0-5.416,1.522-5.416,3.399s2.426,3.399,5.416,3.399h33.347c2.992,0,5.416,1.522,5.416,3.4
			c0,1.877-2.424,3.399-5.416,3.399H84.253H40.207c-2.991,0-5.416-1.522-5.416-3.399c0-1.878,2.425-3.4,5.416-3.4h9.255
			c2.991,0,5.415-1.522,5.415-3.399s-2.424-3.399-5.415-3.399H5.415c-2.991,0-5.415-1.522-5.415-3.399s2.424-3.399,5.415-3.399
			h10.41H76.191z"/>
		<path id="path-2_124_" style="fill:#FBB713;" d="M168.959,146.452h7.867c1.517,0,2.747,1.522,2.747,3.399s-1.23,3.4-2.747,3.4
			h-0.366c-1.516,0-2.746,1.521-2.746,3.398c0,1.878,1.23,3.4,2.746,3.4h16.911c1.518,0,2.747,1.521,2.747,3.399
			c0,1.877-1.229,3.399-2.747,3.399h-20.323h-22.336c-1.518,0-2.747-1.522-2.747-3.399c0-1.878,1.229-3.399,2.747-3.399h4.693
			c1.516,0,2.747-1.522,2.747-3.4c0-1.877-1.231-3.398-2.747-3.398h-22.338c-1.516,0-2.746-1.523-2.746-3.4s1.23-3.399,2.746-3.399
			h5.281H168.959z"/>
		<path id="path-3_124_" style="fill:#FBB713;" d="M199.083,208.068c4.486,0,8.123-2.282,8.123-5.099
			c0-2.815-3.637-5.099-8.123-5.099h-24.894c-4.486,0-8.123,2.284-8.123,5.099c0,2.817,3.637,5.099,8.123,5.099H199.083z"/>
		<path id="path-4_123_" style="fill:#0CB04A;" d="M156.973,24.766V10.265H51.285v14.501H156.973z"/>
		<path id="path-5_123_" style="fill:#0CB04A;" d="M156.961,38.314c13.55,13.565,22.638,32.555,22.638,53.592
			c0,41.213-34.024,74.624-75.627,74.624s-75.431-33.411-75.431-74.624c0-21.037,9.182-40.027,22.731-53.592H156.961z"/>
		<path id="path-6_122_" style="fill:#FF3A2F;" d="M179.599,91.906c0,41.213-34.024,74.624-75.627,74.624
			s-75.431-33.411-75.431-74.624H179.599z"/>
		<path id="path-7_122_" style="opacity:0.25;fill:#020403;enable-background:new    ;" d="M156.961,38.314h-12.462
			c9.834,12.693,16.12,28.654,16.12,46.071c0,41.214-34.023,74.625-75.626,74.625c-6.334,0-12.453-0.86-18.335-2.318
			c11.017,6.228,23.735,9.838,37.314,9.838c41.603,0,75.627-33.411,75.627-74.624C179.599,70.869,170.511,51.878,156.961,38.314z"/>
		<path id="path-8_119_" style="fill:#142A3B;" d="M173.233,22.713L35.025,22.345v17.451l135.431,0.295
			c16.713,0,30.262,13.718,30.262,30.275l-0.098,51.007c0,4.695,3.843,8.502,8.582,8.502c4.74,0,8.581-3.807,8.581-8.502
			l0.549-52.35C218.332,44.046,198.262,23.475,173.233,22.713z"/>
		<path id="path-9_113_" style="opacity:0.35;fill:#020403;enable-background:new    ;" d="M43.992,46.547l126.545,10.061
			c-3.338-6.183-7.484-11.818-12.214-16.8H49.91C46.835,43.046,46.517,42.778,43.992,46.547z"/>
		<path id="path-10_105_" style="fill:#FFFFFF;" d="M65.403,143.73c-1.034,0-2.057-0.431-2.779-1.271
			c-12.086-14.102-18.742-32.056-18.742-50.553c0-12.731,3.291-25.528,9.513-37.008c0.953-1.752,3.152-2.415,4.925-1.47
			c1.774,0.942,2.438,3.127,1.486,4.881c-5.657,10.435-8.645,22.052-8.645,33.597c0,16.79,6.041,33.086,17.013,45.886
			c1.301,1.518,1.113,3.792-0.419,5.081C67.07,143.449,66.234,143.73,65.403,143.73z"/>
	</g>
</g>
<g>
</g>
<g>
</g>
<g>
</g>
<g>
</g>
<g>
</g>
<g>
</g>
<g>
</g>
<g>
</g>
<g>
</g>
<g>
</g>
<g>
</g>
<g>
</g>
<g>
</g>
<g>
</g>
<g>
</g>
</svg>
