<?xml version="1.0" encoding="iso-8859-1"?>
<!-- Generator: Adobe Illustrator 19.1.0, SVG Export Plug-In . SVG Version: 6.00 Build 0)  -->
<svg version="1.1" id="Capa_1" xmlns="http://www.w3.org/2000/svg" xmlns:xlink="http://www.w3.org/1999/xlink" x="0px" y="0px"
	 viewBox="0 0 217.222 217.222" style="enable-background:new 0 0 217.222 217.222;" xml:space="preserve">
<g>
	<g id="group-159svg">
		<path id="path-1_66_" style="fill:#FF3A2F;" d="M106.194,195.242H91.5c-2.832,0-5.129,1.57-5.129,3.508
			c0,1.935,2.297,3.506,5.129,3.506h0.684c2.833,0,5.13,1.569,5.13,3.506c0,1.938-2.297,3.506-5.13,3.506H60.597
			c-2.833,0-5.13,1.572-5.13,3.508c0,1.936,2.297,3.506,5.13,3.506h37.96h77.589c2.833,0,5.13-1.57,5.13-3.506
			c0-1.936-2.297-3.508-5.13-3.508h-8.766c-2.833,0-5.13-1.568-5.13-3.506c0-1.937,2.297-3.506,5.13-3.506h34.431
			c2.834,0,5.13-1.571,5.13-3.506c0-1.938-2.296-3.508-5.13-3.508h-2.569H106.194z"/>
		<path id="path-2_66_" style="fill:#FF3A2F;" d="M197.326,217.222c-2.376,0-4.301-1.683-4.301-3.759
			c0-2.075,1.925-3.757,4.301-3.757h13.179c2.375,0,4.3,1.682,4.3,3.757c0,2.076-1.925,3.759-4.3,3.759H197.326z"/>
		<path id="path-3_66_" style="fill:#142A3B;" d="M176.941,166.937H16.827V50.612h160.114V166.937z"/>
		<path id="path-4_66_" style="opacity:0.35;enable-background:new    ;" d="M16.827,50.612V63.42l131.293,6.404v97.113h28.821
			V50.612H16.827z"/>
		<path id="path-5_65_" style="fill:#FBB713;" d="M154.569,0H39.199C18.885,0,2.417,24.373,2.417,54.437h188.934
			C191.351,24.373,174.883,0,154.569,0z"/>
		<path id="path-6_63_" style="fill:#EDEDED;" d="M15.314,37.769c-0.476,0-0.96-0.094-1.425-0.294
			c-1.836-0.788-2.688-2.916-1.9-4.755c6.754-15.758,18.7-26.626,31.172-28.356c1.964-0.283,3.806,1.109,4.084,3.091
			c0.274,1.98-1.109,3.807-3.091,4.082c-9.972,1.383-19.748,10.594-25.512,24.037C18.056,36.947,16.718,37.769,15.314,37.769z"/>
		<path id="path-7_62_" style="opacity:0.25;enable-background:new    ;" d="M154.569,0h-32.022
			c20.313,0,36.781,24.373,36.781,54.437h32.023C191.351,24.373,174.883,0,154.569,0z"/>
		<path id="path-8_48_" style="fill:#FBB713;" d="M2.44,164.407c-0.002,0.154-0.023,0.304-0.023,0.459
			c0,20.313,16.468,36.782,36.782,36.782h115.37c20.314,0,36.782-16.469,36.782-36.782c0-0.155-0.021-0.305-0.024-0.459H2.44z"/>
		<path id="path-9_41_" style="opacity:0.25;enable-background:new    ;" d="M191.327,164.407h-28.819
			c0.001,0.154,0.022,0.304,0.022,0.459c0,20.313-16.468,36.781-36.781,36.781h28.82c20.314,0,36.782-16.468,36.782-36.781
			C191.351,164.711,191.33,164.561,191.327,164.407z"/>
		<path id="path-10_37_" style="fill:#FFFFFF;" d="M82.474,70.448h28.82c9.727,0,17.613-7.885,17.613-17.612H64.861
			C64.861,62.563,72.746,70.448,82.474,70.448z"/>
		<path id="path-11_30_" style="opacity:0.25;enable-background:new    ;" d="M116.097,52.836c0,9.727-7.885,17.612-17.612,17.612
			h12.809c9.727,0,17.613-7.885,17.613-17.612H116.097z"/>
		<path id="path-12_26_" style="opacity:0.35;enable-background:new    ;" d="M132.509,44.207H74.068V20.815h58.441V44.207z"/>
		<path id="path-13_21_" style="fill:#FF3A2F;" d="M126.104,41.005H67.663V17.612h58.441V41.005z"/>
		<path id="path-14_18_" style="fill:#FFFFFF;" d="M120.736,147.154c8.428,2.159,17.01-2.923,19.168-11.352
			c2.159-8.427-2.923-17.009-11.351-19.168l-8.799-2.254l-2.062,8.05l8.799,2.253c3.983,1.021,6.384,5.076,5.364,9.059
			c-1.02,3.98-5.075,6.383-9.058,5.363l-8.799-2.253l-2.061,8.049L120.736,147.154z"/>
		<path id="path-15_17_" style="fill:#FFFFFF;" d="M55.861,112.58c0,26.806,12.05,48.536,26.915,48.536h16.479
			c14.864,0,26.915-21.73,26.915-48.536H55.861z"/>
		<path id="path-16_14_" style="opacity:0.25;enable-background:new    ;" d="M106.956,112.58c0,25.974-11.322,47.119-25.548,48.412
			c0.457,0.041,0.906,0.124,1.368,0.124h16.479c14.864,0,26.915-21.73,26.915-48.536H106.956z"/>
		<path id="path-17_12_" style="fill:#142A3B;" d="M135.431,190.529H58.337v-7.502h77.094V190.529z"/>
	</g>
</g>
<g>
</g>
<g>
</g>
<g>
</g>
<g>
</g>
<g>
</g>
<g>
</g>
<g>
</g>
<g>
</g>
<g>
</g>
<g>
</g>
<g>
</g>
<g>
</g>
<g>
</g>
<g>
</g>
<g>
</g>
</svg>
