<?xml version="1.0" encoding="iso-8859-1"?>
<!-- Generator: Adobe Illustrator 19.1.0, SVG Export Plug-In . SVG Version: 6.00 Build 0)  -->
<svg version="1.1" id="Capa_1" xmlns="http://www.w3.org/2000/svg" xmlns:xlink="http://www.w3.org/1999/xlink" x="0px" y="0px"
	 viewBox="0 0 218.332 218.332" style="enable-background:new 0 0 218.332 218.332;" xml:space="preserve">
<g>
	<g id="group-145svg">
		<path id="path-1_51_" style="fill:#142A3B;" d="M163.353,168.842h9.965c1.921,0,3.479,1.424,3.479,3.18
			c0,1.755-1.558,3.18-3.479,3.18h-0.464c-1.921,0-3.478,1.422-3.478,3.178c0,1.757,1.557,3.179,3.478,3.179h21.423
			c1.921,0,3.479,1.425,3.479,3.18c0,1.756-1.558,3.179-3.479,3.179h-25.744h-28.296c-1.921,0-3.479-1.423-3.479-3.179
			c0-1.755,1.558-3.18,3.479-3.18h5.945c1.922,0,3.479-1.422,3.479-3.179c0-1.756-1.557-3.178-3.479-3.178h-28.295
			c-1.921,0-3.479-1.425-3.479-3.18c0-1.756,1.558-3.18,3.479-3.18h6.688H163.353z"/>
		<path id="path-2_51_" style="fill:#142A3B;" d="M210.734,209.269c4.197,0,7.598-2.137,7.598-4.77c0-2.634-3.401-4.768-7.598-4.768
			h-23.282c-4.196,0-7.598,2.134-7.598,4.768c0,2.633,3.402,4.77,7.598,4.77H210.734z"/>
		<path id="path-3_51_" style="fill:#FF3A2F;" d="M128.034,196.08H21.527v-70.713h106.507V196.08z"/>
		<path id="path-4_51_" style="opacity:0.35;fill:#020403;enable-background:new    ;" d="M105.07,151.483v20.877H45.623v10.551
			h73.648v-31.428H105.07z"/>
		<path id="path-5_51_" style="fill:#FBB713;" d="M112.171,175.877H38.523v-31.429h73.648V175.877z"/>
		<path id="path-6_51_" style="fill:#FF3A2F;" d="M113.146,110.751c0-21.157-17.314-38.308-38.671-38.308
			c-21.356,0-38.67,17.151-38.67,38.308H113.146z"/>
		<path id="path-7_51_" style="opacity:0.25;fill:#020403;enable-background:new    ;" d="M79.493,72.802
			c9.623,6.968,15.902,18.202,15.902,30.916h-58.91c-0.428,2.281-0.68,4.627-0.68,7.032h77.341
			C113.146,91.282,98.474,75.243,79.493,72.802z"/>
		<path id="path-8_51_" style="fill:#142A3B;" d="M150.694,125.367H0v-16.838h150.694V125.367z"/>
		<path id="path-9_48_" style="opacity:0.35;fill:#020403;enable-background:new    ;" d="M21.527,133.406l106.507,4.971v-13.01
			H21.527V133.406z"/>
		<path id="path-10_44_" style="fill:#142A3B;" d="M150.694,212.918H0V196.08h150.694V212.918z"/>
		<path id="path-11_38_" style="opacity:0.35;fill:#020403;enable-background:new    ;" d="M21.527,189.047v7.033h106.507v-7.033
			H21.527z"/>
		<path id="path-12_32_" style="fill:#142A3B;" d="M84.664,68.509H67.982v-7.21h13.796l13.234-12.347h44.11V40.21h7.278v15.952
			H97.897L84.664,68.509z"/>
		<path id="path-13_26_" style="fill:#FF3A2F;" d="M154.68,40.21h-23.398V5.414h23.398V40.21z"/>
		<path id="path-14_21_" style="fill:#A72720;" d="M147.58,5.414V40.21h7.1V5.414H147.58z"/>
		<path id="path-15_19_" style="fill:#142A3B;" d="M80.802,50.649c0,3.46-2.833,6.266-6.327,6.266c-3.493,0-6.326-2.806-6.326-6.266
			c0-3.462,2.833-6.267,6.326-6.267C77.969,44.382,80.802,47.187,80.802,50.649z"/>
		<path id="path-16_16_" style="fill:#FF3A2F;" d="M80.802,159.377c0,3.461-2.833,6.265-6.327,6.265
			c-3.493,0-6.326-2.804-6.326-6.265c0-3.462,2.833-6.267,6.326-6.267C77.969,153.11,80.802,155.915,80.802,159.377z"/>
		<path id="path-17_14_" style="opacity:0.35;fill:#020403;enable-background:new    ;" d="M78.026,153.11
			c-0.62,0-1.208,0.116-1.775,0.281c2.623,0.763,4.551,3.139,4.551,5.986c0,2.845-1.928,5.221-4.551,5.985
			c0.567,0.165,1.155,0.28,1.775,0.28c3.493,0,6.326-2.804,6.326-6.265C84.352,155.915,81.519,153.11,78.026,153.11z"/>
		<path id="path-18_12_" style="fill:#FF3A2F;" d="M159.065,82.413c0,2.916-2.386,5.281-5.329,5.281c-2.943,0-5.33-2.365-5.33-5.281
			c0-2.915,2.387-5.281,5.33-5.281C156.679,77.132,159.065,79.498,159.065,82.413z"/>
		<path id="path-19_10_" style="fill:#FF3A2F;" d="M196.891,99.047c0,4.01-3.28,7.259-7.328,7.259c-4.047,0-7.328-3.249-7.328-7.259
			c0-4.009,3.281-7.26,7.328-7.26C193.611,91.787,196.891,95.038,196.891,99.047z"/>
	</g>
</g>
<g>
</g>
<g>
</g>
<g>
</g>
<g>
</g>
<g>
</g>
<g>
</g>
<g>
</g>
<g>
</g>
<g>
</g>
<g>
</g>
<g>
</g>
<g>
</g>
<g>
</g>
<g>
</g>
<g>
</g>
</svg>
