<?xml version="1.0" encoding="iso-8859-1"?>
<!-- Generator: Adobe Illustrator 19.1.0, SVG Export Plug-In . SVG Version: 6.00 Build 0)  -->
<svg version="1.1" id="Capa_1" xmlns="http://www.w3.org/2000/svg" xmlns:xlink="http://www.w3.org/1999/xlink" x="0px" y="0px"
	 viewBox="0 0 217.228 217.228" style="enable-background:new 0 0 217.228 217.228;" xml:space="preserve">
<g>
	<g id="group-85svg">
		<path id="path-1_144_" style="fill:#FBB713;" d="M95.513,180.444H78.482c-3.285,0-5.946,1.94-5.946,4.334
			c0,2.393,2.661,4.333,5.946,4.333h0.792c3.284,0,5.946,1.941,5.946,4.335s-2.662,4.334-5.946,4.334H42.663
			c-3.285,0-5.946,1.94-5.946,4.334s2.661,4.333,5.946,4.333h43.998h89.931c3.284,0,5.946-1.939,5.946-4.333
			s-2.662-4.334-5.946-4.334h-10.161c-3.284,0-5.946-1.94-5.946-4.334s2.662-4.335,5.946-4.335h39.908
			c3.283,0,5.945-1.94,5.945-4.333c0-2.394-2.662-4.334-5.945-4.334h-2.979H95.513z"/>
		<path id="path-2_144_" style="fill:#FBB713;" d="M200.204,206.838c-2.312,0-4.187-1.373-4.187-3.066
			c0-1.693,1.875-3.066,4.187-3.066h12.835c2.314,0,4.189,1.373,4.189,3.066c0,1.693-1.875,3.066-4.189,3.066H200.204z"/>
		<path id="path-3_144_" style="fill:#142A3B;" d="M0,10.39v40.92h112.163l2.66,29.984l-27.641,69.65H0v30.246h169.027V10.39H0z"/>
		<path id="path-4_144_" style="opacity:0.35;enable-background:new    ;" d="M0,10.39v5.822h163.205V181.19h5.822V10.39H0z"/>
		<path id="path-5_143_" d="M81.359,156.767l2.311-5.823H0v5.823H81.359z"/>
		<path id="path-6_140_" style="fill:#FBB713;" d="M47.634,150.417c24.298,0,43.995-19.696,43.995-43.992H3.64
			C3.64,130.721,23.337,150.417,47.634,150.417z"/>
		<path id="path-7_136_" style="opacity:0.2;enable-background:new    ;" d="M82.895,106.425c0,22.821-17.381,41.578-39.627,43.772
			c1.436,0.141,2.892,0.22,4.366,0.22c24.298,0,43.995-19.696,43.995-43.992H82.895z"/>
		<path id="path-8_112_" style="fill:#142A3B;" d="M73.838,69.587H17.55V51.309h56.288V69.587z"/>
		<path id="path-9_97_" style="opacity:0.35;enable-background:new    ;" d="M17.55,51.31v2.912l56.288,2.911V51.31H17.55z"/>
		<path id="path-10_88_" style="fill:#142A3B;" d="M49.576,93.848h-7.764V69.587h7.764V93.848z"/>
		<path id="path-11_77_" style="fill:#FFFFFF;" d="M158.271,64.734h-30.167V42.413h30.167V64.734z"/>
		<path id="path-12_67_" style="opacity:0.35;enable-background:new    ;" d="M131.016,45.325h27.255v-2.912h-30.167v22.322h2.912
			V45.325z"/>
		<path id="path-13_53_" style="opacity:0.35;enable-background:new    ;" d="M141.004,125.611c-5.101,0-9.261,3.837-9.865,8.775
			h-4.894v2.425h4.894c0.604,4.937,4.764,8.775,9.865,8.775c5.516,0,9.988-4.471,9.988-9.988
			C150.992,130.083,146.52,125.611,141.004,125.611z"/>
		<path id="path-14_44_" style="fill:#FFFFFF;" d="M138.093,122.699c-5.101,0-9.261,3.837-9.866,8.775h-4.894v2.425h4.894
			c0.605,4.938,4.765,8.775,9.866,8.775c5.516,0,9.988-4.471,9.988-9.987C148.081,127.171,143.609,122.699,138.093,122.699z"/>
		<path id="path-15_37_" style="fill:#FFFFFF;" d="M133.928,77.837h-5.824v-6.309h5.824V77.837z"/>
		<path id="path-16_28_" style="fill:#FFFFFF;" d="M158.271,77.837h-5.823v-6.309h5.823V77.837z"/>
		<path id="path-17_25_" style="fill:#FFFFFF;" d="M158.271,98.215h-5.823v-6.307h5.823V98.215z"/>
		<path id="path-18_16_" style="fill:#FFFFFF;" d="M133.928,98.215h-5.824v-6.307h5.824V98.215z"/>
		<path id="path-19_14_" style="fill:#FF3A2F;" d="M47.634,188.953H15.608v-7.763h32.026V188.953z"/>
		<path id="path-20_11_" style="fill:#FF3A2F;" d="M164.094,188.953h-32.027v-7.763h32.027V188.953z"/>
		<path id="path-21_8_" style="opacity:0.35;enable-background:new    ;" d="M47.634,181.19H15.608v3.881h32.026V181.19z"/>
		<path id="path-22_8_" style="opacity:0.35;enable-background:new    ;" d="M132.067,181.19v3.881h32.026v-3.881H132.067z"/>
	</g>
</g>
<g>
</g>
<g>
</g>
<g>
</g>
<g>
</g>
<g>
</g>
<g>
</g>
<g>
</g>
<g>
</g>
<g>
</g>
<g>
</g>
<g>
</g>
<g>
</g>
<g>
</g>
<g>
</g>
<g>
</g>
</svg>
