<?xml version="1.0" encoding="iso-8859-1"?>
<!-- Generator: Adobe Illustrator 19.1.0, SVG Export Plug-In . SVG Version: 6.00 Build 0)  -->
<svg version="1.1" id="Capa_1" xmlns="http://www.w3.org/2000/svg" xmlns:xlink="http://www.w3.org/1999/xlink" x="0px" y="0px"
	 viewBox="0 0 217.228 217.228" style="enable-background:new 0 0 217.228 217.228;" xml:space="preserve">
<g>
	<g id="group-102svg">
		<path id="path-1_4_" style="fill:#142A3B;" d="M63.419,207.508h8.875c1.711,0,3.098-1.004,3.098-2.246
			c0-1.24-1.387-2.246-3.098-2.246h-0.413c-1.712,0-3.099-1.005-3.099-2.245c0-1.24,1.387-2.246,3.099-2.246h19.076
			c1.711,0,3.098-1.006,3.098-2.246c0-1.241-1.387-2.246-3.098-2.246H68.032H21.173c-1.711,0-3.098,1.005-3.098,2.246
			c0,1.24,1.387,2.246,3.098,2.246h5.294c1.712,0,3.099,1.006,3.099,2.246c0,1.24-1.387,2.245-3.099,2.245H5.673
			c-1.711,0-3.097,1.006-3.097,2.246c0,1.242,1.386,2.246,3.097,2.246h1.552H63.419z"/>
		<path id="path-2_4_" style="fill:#142A3B;" d="M8.87,193.832c1.205,0,2.182,0.712,2.182,1.589c0,0.878-0.977,1.588-2.182,1.588
			H2.182c-1.206,0-2.182-0.71-2.182-1.588c0-0.877,0.976-1.589,2.182-1.589H8.87z"/>
		<path id="path-3_4_" style="fill:#142A3B;" d="M66.137,130.839v1.758c0,0.339,0.923,0.613,2.061,0.613s2.061-0.274,2.061-0.613
			v-0.083c0-0.338,0.923-0.613,2.062-0.613c1.138,0,2.061,0.275,2.061,0.613v3.78c0,0.338,0.923,0.614,2.061,0.614
			s2.061-0.276,2.061-0.614v-4.542v-9.281c0-0.339-0.923-0.614-2.061-0.614s-2.061,0.275-2.061,0.614v1.049
			c0,0.339-0.923,0.614-2.061,0.614c-1.139,0-2.062-0.275-2.062-0.614v-4.119c0-0.339-0.923-0.614-2.061-0.614
			s-2.061,0.275-2.061,0.614v0.308V130.839z"/>
		<path id="path-4_4_" style="fill:#142A3B;" d="M70.523,141.969c0,0.6-0.989,1.089-2.209,1.089c-1.22,0-2.209-0.489-2.209-1.089
			v-3.338c0-0.601,0.989-1.089,2.209-1.089c1.22,0,2.209,0.488,2.209,1.089V141.969z"/>
		<path id="path-5_4_" style="fill:#0CB04A;" d="M117.423,9.72H53.3v62.76h56.107v98.442H29.254v24.181h88.169h96.185V21.811
			c0-6.674-5.394-12.091-12.024-12.091H117.423z"/>
		<path id="path-6_4_" style="opacity:0.35;enable-background:new    ;" d="M109.407,66.535H53.3v5.945h56.107V66.535z"/>
		<path id="path-7_4_" style="fill:#FF3A2F;" d="M213.608,106.442h-40.077v88.661h40.077V106.442z"/>
		<path id="path-8_4_" style="opacity:0.25;enable-background:new    ;" d="M201.584,9.72h-7.541
			c1.07,1.807,1.724,3.891,1.724,6.144v158.414c0,8.217-6.66,14.878-14.878,14.878H99.583H29.254v5.946h88.169h96.185V21.811
			C213.608,15.137,208.215,9.72,201.584,9.72z"/>
		<path id="path-9_3_" style="fill:#142A3B;" d="M213.608,53.642h-48.092c-2.001,0-3.62-1.621-3.62-3.62c0-2,1.619-3.621,3.62-3.621
			h48.092c2.001,0,3.62,1.621,3.62,3.621C217.228,52.021,215.609,53.642,213.608,53.642z"/>
		<path id="path-10_3_" style="fill:#142A3B;" d="M213.608,69.762h-48.092c-2.001,0-3.62-1.621-3.62-3.619
			c0-2.001,1.619-3.622,3.62-3.622h48.092c2.001,0,3.62,1.621,3.62,3.622C217.228,68.141,215.609,69.762,213.608,69.762z"/>
		<path id="path-11_2_" style="fill:#142A3B;" d="M213.608,85.882h-48.092c-2.001,0-3.62-1.622-3.62-3.62
			c0-1.999,1.619-3.62,3.62-3.62h48.092c2.001,0,3.62,1.621,3.62,3.62C217.228,84.26,215.609,85.882,213.608,85.882z"/>
		<path id="path-12_2_" style="fill:#142A3B;" d="M61.315,100.478H50.266c-2.001,0-3.621-1.621-3.621-3.619
			c0-2,1.62-3.621,3.621-3.621h11.049c2.001,0,3.62,1.621,3.62,3.621C64.935,98.857,63.316,100.478,61.315,100.478z"/>
		<path id="path-13_1_" style="fill:#142A3B;" d="M85.36,92.418c-2.001,0-3.62-1.622-3.62-3.62V72.48
			c0-1.999,1.619-3.619,3.62-3.619s3.621,1.62,3.621,3.619v16.318C88.981,90.796,87.361,92.418,85.36,92.418z"/>
		<path id="path-14_1_" style="fill:#142A3B;" d="M69.33,92.418c-2.002,0-3.621-1.622-3.621-3.62V72.48
			c0-1.999,1.619-3.619,3.621-3.619c2.001,0,3.62,1.62,3.62,3.619v16.318C72.95,90.796,71.331,92.418,69.33,92.418z"/>
		<path id="path-15_1_" style="fill:#142A3B;" d="M77.345,116.599c-2.001,0-3.62-1.622-3.62-3.62v-8.062
			c0-1.999,1.619-3.62,3.62-3.62s3.62,1.621,3.62,3.62v8.062C80.965,114.977,79.346,116.599,77.345,116.599z"/>
		<path id="path-16_1_" style="fill:#FF3A2F;" d="M93.377,104.918H61.316V88.799h32.061V104.918z"/>
		<path id="path-17_1_" style="fill:#FF3A2F;" d="M93.377,37.931c0,6.675-5.393,12.089-12.023,12.089
			c-6.65,0-12.023-5.414-12.023-12.089s5.373-12.089,12.023-12.089C87.984,25.842,93.377,31.256,93.377,37.931z"/>
		<path id="path-18_1_" style="opacity:0.35;enable-background:new    ;" d="M91.157,30.973c1.388,1.97,2.22,4.361,2.22,6.958
			c0,6.675-5.393,12.089-12.023,12.089c-2.541,0-4.888-0.799-6.828-2.149c2.175,3.091,5.742,5.123,9.801,5.123
			c6.63,0,12.024-5.415,12.024-12.091C96.351,36.786,94.288,33.156,91.157,30.973z"/>
		<path id="path-19" style="fill:#FBB713;" d="M69.861,170.098c18.065,0,32.708-14.642,32.708-32.706H37.153
			C37.153,155.456,51.797,170.098,69.861,170.098z"/>
		<path id="path-20" style="opacity:0.25;enable-background:new    ;" d="M87.702,137.391c0,15.501-10.797,28.455-25.274,31.826
			c2.391,0.557,4.872,0.88,7.433,0.88c18.064,0,32.708-14.642,32.708-32.706H87.702z"/>
	</g>
</g>
<g>
</g>
<g>
</g>
<g>
</g>
<g>
</g>
<g>
</g>
<g>
</g>
<g>
</g>
<g>
</g>
<g>
</g>
<g>
</g>
<g>
</g>
<g>
</g>
<g>
</g>
<g>
</g>
<g>
</g>
</svg>
