<?xml version="1.0" encoding="iso-8859-1"?>
<!-- Generator: Adobe Illustrator 19.1.0, SVG Export Plug-In . SVG Version: 6.00 Build 0)  -->
<svg version="1.1" id="Capa_1" xmlns="http://www.w3.org/2000/svg" xmlns:xlink="http://www.w3.org/1999/xlink" x="0px" y="0px"
	 viewBox="0 0 216.29 216.29" style="enable-background:new 0 0 216.29 216.29;" xml:space="preserve">
<g>
	<g id="group-151svg">
		<path id="path-1_58_" style="fill:#DB2C3F;" d="M99.794,109.208l57.66,34.103L123.029,86.19l0.204-0.203l-0.507-0.3l-0.304-0.504
			l-0.204,0.204l-57.66-34.104l34.425,57.122l-0.204,0.202l0.507,0.299l0.303,0.504L99.794,109.208z"/>
		<path id="path-2_58_" style="fill:#FF3A2F;" d="M209.508,100.915c0,55.733-45.607,100.914-101.867,100.914
			S5.774,156.648,5.774,100.915C5.774,45.181,51.381,0,107.641,0S209.508,45.181,209.508,100.915z"/>
		<path id="path-3_58_" style="fill:#FFFFFF;" d="M180.868,100.915c0,40.064-32.786,72.542-73.228,72.542
			c-40.443,0-73.227-32.478-73.227-72.542c0-40.065,32.784-72.544,73.227-72.544C148.083,28.371,180.868,60.85,180.868,100.915z"/>
		<path id="path-4_58_" style="opacity:0.35;fill:#010101;enable-background:new    ;" d="M107.641,28.371
			c-12.477,0-24.214,3.109-34.495,8.561c-0.01,0.006-0.021,0.011-0.031,0.017c8.264-3.203,17.256-4.963,26.666-4.963
			c40.442,0,73.227,32.479,73.227,72.545c0,26.088-13.904,48.958-34.771,61.738c2.455-0.95,4.82-2.07,7.138-3.27
			c21.243-12.699,35.494-35.714,35.494-62.084C180.868,60.85,148.083,28.371,107.641,28.371z"/>
		<path id="path-5_58_" style="opacity:0.25;fill:#050000;enable-background:new    ;" d="M58.059,52.588l101.543,100.593
			l-30.247-71.7L58.059,52.588z"/>
		<path id="path-6_57_" style="fill:#142A3B;" d="M95.413,112.224l58.676,34.705l-35.032-58.128L95.413,112.224z"/>
		<path id="path-7_57_" style="fill:#0CB04A;" d="M96.224,113.026L61.192,54.9l58.676,34.704L96.224,113.026z"/>
		<path id="path-8_57_" style="fill:#142A3B;" d="M75.901,191.439H86.21c1.988,0,3.599,1.355,3.599,3.026
			c0,1.671-1.611,3.025-3.599,3.025h-0.48c-1.987,0-3.598,1.356-3.598,3.026c0,1.671,1.611,3.026,3.598,3.026h22.16
			c1.987,0,3.598,1.354,3.598,3.025c0,1.672-1.611,3.026-3.598,3.026h-26.63H33.37c-1.988,0-3.599-1.354-3.599-3.026
			c0-1.671,1.611-3.025,3.599-3.025h6.15c1.988,0,3.598-1.355,3.598-3.026c0-1.67-1.61-3.026-3.598-3.026H10.251
			c-1.988,0-3.599-1.354-3.599-3.025c0-1.671,1.611-3.026,3.599-3.026h25.538H75.901z"/>
		<path id="path-9_54_" style="fill:#142A3B;" d="M194.288,205.871h5.916c1.141,0,2.066,0.778,2.066,1.737
			c0,0.958-0.925,1.737-2.066,1.737h-0.275c-1.141,0-2.066,0.777-2.066,1.736c0,0.96,0.925,1.736,2.066,1.736h12.718
			c1.141,0,2.066,0.778,2.066,1.737s-0.925,1.736-2.066,1.736h-15.284h-27.486c-1.141,0-2.066-0.777-2.066-1.736
			s0.925-1.737,2.066-1.737h3.53c1.14,0,2.065-0.776,2.065-1.736c0-0.959-0.925-1.736-2.065-1.736h-16.799
			c-1.141,0-2.066-0.779-2.066-1.737c0-0.959,0.925-1.737,2.066-1.737h14.657H194.288z"/>
		<path id="path-10_49_" style="fill:#142A3B;" d="M14.668,209.673c1.779,0,3.221-0.905,3.221-2.021
			c0-1.117-1.442-2.023-3.221-2.023h-9.87c-1.779,0-3.221,0.906-3.221,2.023c0,1.116,1.442,2.021,3.221,2.021H14.668z"/>
	</g>
</g>
<g>
</g>
<g>
</g>
<g>
</g>
<g>
</g>
<g>
</g>
<g>
</g>
<g>
</g>
<g>
</g>
<g>
</g>
<g>
</g>
<g>
</g>
<g>
</g>
<g>
</g>
<g>
</g>
<g>
</g>
</svg>
