<?xml version="1.0" encoding="iso-8859-1"?>
<!-- Generator: Adobe Illustrator 19.1.0, SVG Export Plug-In . SVG Version: 6.00 Build 0)  -->
<svg version="1.1" id="Capa_1" xmlns="http://www.w3.org/2000/svg" xmlns:xlink="http://www.w3.org/1999/xlink" x="0px" y="0px"
	 viewBox="0 0 217.223 217.223" style="enable-background:new 0 0 217.223 217.223;" xml:space="preserve">
<g>
	<g id="group-8svg">
		<path id="path-1_138_" style="fill:#FF3A2F;" d="M94.782,202.995h13.222c2.549,0,4.615,0.928,4.615,2.072
			c0,1.145-2.066,2.072-4.615,2.072h-0.616c-2.549,0-4.616,0.929-4.616,2.074c0,1.144,2.067,2.072,4.616,2.072h28.422
			c2.548,0,4.615,0.927,4.615,2.072c0,1.145-2.067,2.072-4.615,2.072h-34.156h-37.54c-2.549,0-4.615-0.927-4.615-2.072
			c0-1.145,2.066-2.072,4.615-2.072h7.888c2.55,0,4.616-0.928,4.616-2.072c0-1.145-2.066-2.074-4.616-2.074h-37.54
			c-2.549,0-4.615-0.927-4.615-2.072c0-1.144,2.066-2.072,4.615-2.072h8.872H94.782z"/>
		<path id="path-2_138_" style="fill:#FF3A2F;" d="M176.612,217.223c2.911,0,5.27-1.06,5.27-2.367c0-1.306-2.359-2.367-5.27-2.367
			h-16.149c-2.911,0-5.271,1.061-5.271,2.367c0,1.307,2.36,2.367,5.271,2.367H176.612z"/>
		<path id="path-3_138_" style="fill:#FF3A2F;" d="M189.115,184.379h6.071c1.17,0,2.119,0.527,2.119,1.176
			c0,0.649-0.949,1.176-2.119,1.176h-0.282c-1.172,0-2.12,0.526-2.12,1.175s0.948,1.176,2.12,1.176h13.05
			c1.17,0,2.119,0.527,2.119,1.175c0,0.65-0.949,1.176-2.119,1.176H192.27h-32.056c-1.171,0-2.12-0.526-2.12-1.176
			c0-0.648,0.949-1.175,2.12-1.175h3.622c1.17,0,2.119-0.527,2.119-1.176s-0.949-1.175-2.119-1.175h-17.238
			c-1.17,0-2.119-0.527-2.119-1.176c0-0.649,0.949-1.176,2.119-1.176h4.074H189.115z"/>
		<path id="path-4_138_" style="fill:#2476FF;" d="M105.561,0C51.21,0,7.15,44.06,7.15,98.409s44.06,98.408,98.411,98.408
			s98.411-44.059,98.411-98.408S159.912,0,105.561,0z M105.561,131.888c-18.491,0-33.48-14.989-33.48-33.479
			S87.07,64.93,105.561,64.93c18.49,0,33.48,14.989,33.48,33.479S124.051,131.888,105.561,131.888z"/>
		<path id="path-5_137_" style="opacity:0.35;fill:#FFFFFF;enable-background:new    ;" d="M96.904,66.101L80.089,3.348
			c-33.873,9.054-60.537,35.717-69.592,69.589l62.756,16.815C76.334,78.232,85.383,69.182,96.904,66.101z"/>
		<path id="path-6_134_" style="opacity:0.35;fill:#FFFFFF;enable-background:new    ;" d="M137.869,107.066
			c-3.081,11.52-12.13,20.57-23.651,23.651l16.815,62.753c33.873-9.055,60.537-35.718,69.592-69.589L137.869,107.066z"/>
		<path id="path-7_131_" style="fill:#EDEDED;" d="M105.472,177.206c-41.133,0-74.598-33.462-74.598-74.594
			c0-2,1.619-3.621,3.62-3.621c2.002,0,3.621,1.621,3.621,3.621c0,37.139,30.215,67.353,67.357,67.353
			c2.002,0,3.621,1.621,3.621,3.62C109.093,175.585,107.474,177.206,105.472,177.206z"/>
	</g>
</g>
<g>
</g>
<g>
</g>
<g>
</g>
<g>
</g>
<g>
</g>
<g>
</g>
<g>
</g>
<g>
</g>
<g>
</g>
<g>
</g>
<g>
</g>
<g>
</g>
<g>
</g>
<g>
</g>
<g>
</g>
</svg>
