<?xml version="1.0" encoding="iso-8859-1"?>
<!-- Generator: Adobe Illustrator 19.1.0, SVG Export Plug-In . SVG Version: 6.00 Build 0)  -->
<svg version="1.1" id="Capa_1" xmlns="http://www.w3.org/2000/svg" xmlns:xlink="http://www.w3.org/1999/xlink" x="0px" y="0px"
	 viewBox="0 0 217.221 217.221" style="enable-background:new 0 0 217.221 217.221;" xml:space="preserve">
<g>
	<g id="group-51svg">
		<path id="path-1_107_" style="fill:#FBB713;" d="M134.669,214.897h15.848c3.056,0,5.533-1.698,5.533-3.793
			s-2.477-3.792-5.533-3.792h-0.737c-3.056,0-5.533-1.699-5.533-3.794s2.477-3.794,5.533-3.794h34.07
			c3.055,0,5.532-1.698,5.532-3.793s-2.477-3.793-5.532-3.793h-40.944H59.22c-3.057,0-5.534,1.698-5.534,3.793
			s2.477,3.793,5.534,3.793h9.455c3.055,0,5.532,1.699,5.532,3.794s-2.477,3.794-5.532,3.794H23.674
			c-3.055,0-5.533,1.697-5.533,3.792s2.478,3.793,5.533,3.793H34.31H134.669z"/>
		<path id="path-2_107_" style="fill:#FBB713;" d="M201.439,208.522c3.58,0,6.482,1.947,6.482,4.35c0,2.402-2.902,4.349-6.482,4.349
			h-19.864c-3.58,0-6.482-1.947-6.482-4.349c0-2.403,2.902-4.35,6.482-4.35H201.439z"/>
		<path id="path-3_107_" style="fill:#142A3B;" d="M17.944,198.812c-1.156,0-2.334-0.229-3.461-0.727
			c-4.372-1.908-6.369-7.015-4.457-11.379l60.51-138.304c1.916-4.372,7.01-6.373,11.388-4.457c4.373,1.908,6.369,7.007,4.448,11.379
			l-60.51,138.304C24.445,196.879,21.274,198.812,17.944,198.812z"/>
		<path id="path-4_107_" style="fill:#142A3B;" d="M182.194,198.812c-3.331,0-6.508-1.933-7.927-5.184l-60.51-138.304
			c-1.912-4.372,0.085-9.471,4.457-11.379c4.377-1.916,9.472,0.085,11.38,4.457l60.51,138.304c1.92,4.364-0.076,9.471-4.449,11.379
			C184.528,198.583,183.35,198.812,182.194,198.812z"/>
		<path id="path-5_106_" style="opacity:0.35;enable-background:new    ;" d="M140.447,116.328l4.812,10.999l13.123-13.124
			l-4.812-10.999L140.447,116.328z"/>
		<path id="path-6_103_" style="opacity:0.35;enable-background:new    ;" d="M54.927,127.197l3.798-8.682l-11.666-16.453
			l-5.976,13.659L54.927,127.197z"/>
		<path id="path-7_100_" style="fill:#FF3A2F;" d="M100.069,34.576c-4.773,0-8.644-3.875-8.644-8.645V8.643
			c0-4.768,3.871-8.643,8.644-8.643c4.774,0,8.644,3.875,8.644,8.643v17.288C108.713,30.701,104.843,34.576,100.069,34.576z"/>
		<path id="path-8_79_" style="opacity:0.35;enable-background:new    ;" d="M108.713,12.619v13.312c0,4.77-3.87,8.645-8.644,8.645
			c-4.773,0-8.644-3.875-8.644-8.645v-9.335L108.713,12.619z"/>
		<path id="path-9_67_" style="fill:#FF3A2F;" d="M100.069,77.796c-16.681,0-30.255-13.574-30.255-30.254
			c0-16.681,13.574-30.254,30.255-30.254s30.255,13.573,30.255,30.254C130.324,64.222,116.75,77.796,100.069,77.796z
			 M100.069,34.576c-7.15,0-12.966,5.815-12.966,12.966c0,7.15,5.816,12.964,12.966,12.964c7.15,0,12.966-5.814,12.966-12.964
			C113.035,40.391,107.219,34.576,100.069,34.576z"/>
		<path id="path-10_61_" style="opacity:0.35;enable-background:new    ;" d="M89.154,54.48c-1.283-2.01-2.051-4.381-2.051-6.938
			c0-7.151,5.816-12.966,12.966-12.966c2.557,0,4.928,0.768,6.939,2.051c-2.304-3.612-6.323-6.028-10.915-6.028
			c-7.15,0-12.967,5.817-12.967,12.966C83.126,48.157,85.542,52.176,89.154,54.48z"/>
		<path id="path-11_51_" style="opacity:0.35;enable-background:new    ;" d="M119.369,24.265c4.354,5.242,6.978,11.97,6.978,19.3
			c0,16.681-13.574,30.254-30.254,30.254c-7.331,0-14.059-2.625-19.301-6.978c5.555,6.687,13.926,10.954,23.277,10.954
			c16.681,0,30.255-13.573,30.255-30.253C130.324,38.191,126.056,29.82,119.369,24.265z"/>
		<path id="path-12_44_" style="fill:#2476FF;" d="M100.069,129.658c-17.973,0-35.045-5.697-49.371-16.494
			c-3.815-2.869-4.575-8.289-1.705-12.104c2.874-3.816,8.289-4.575,12.105-1.705c11.308,8.517,24.78,13.016,38.971,13.016
			c35.751,0,64.832-29.08,64.832-64.829c0-4.769,3.871-8.644,8.644-8.644c4.774,0,8.644,3.875,8.644,8.644
			C182.189,92.821,145.35,129.658,100.069,129.658z"/>
	</g>
</g>
<g>
</g>
<g>
</g>
<g>
</g>
<g>
</g>
<g>
</g>
<g>
</g>
<g>
</g>
<g>
</g>
<g>
</g>
<g>
</g>
<g>
</g>
<g>
</g>
<g>
</g>
<g>
</g>
<g>
</g>
</svg>
