<?xml version="1.0" encoding="iso-8859-1"?>
<!-- Generator: Adobe Illustrator 19.1.0, SVG Export Plug-In . SVG Version: 6.00 Build 0)  -->
<svg version="1.1" id="Capa_1" xmlns="http://www.w3.org/2000/svg" xmlns:xlink="http://www.w3.org/1999/xlink" x="0px" y="0px"
	 viewBox="0 0 218.332 218.332" style="enable-background:new 0 0 218.332 218.332;" xml:space="preserve">
<g>
	<g id="group-139svg">
		<path id="path-1_44_" style="fill:#2476FF;" d="M100.986,174.964h20.561c3.964,0,7.178,1.449,7.178,3.24
			c0,1.789-3.214,3.239-7.178,3.239h-0.956c-3.965,0-7.179,1.451-7.179,3.24c0,1.791,3.214,3.241,7.179,3.241h44.199
			c3.964,0,7.178,1.451,7.178,3.24c0,1.788-3.214,3.24-7.178,3.24h-53.117H53.292c-3.965,0-7.178-1.452-7.178-3.24
			c0-1.789,3.213-3.24,7.178-3.24h12.266c3.965,0,7.179-1.45,7.179-3.241c0-1.789-3.214-3.24-7.179-3.24H7.178
			c-3.965,0-7.178-1.45-7.178-3.239c0-1.791,3.213-3.24,7.178-3.24h13.797H100.986z"/>
		<path id="path-2_44_" style="fill:#2476FF;" d="M37.265,148.743h4.761c0.919,0,1.662,0.796,1.662,1.779s-0.743,1.78-1.662,1.78
			h-0.222c-0.917,0-1.661,0.797-1.661,1.779c0,0.984,0.744,1.781,1.661,1.781h10.235c0.917,0,1.662,0.796,1.662,1.779
			s-0.745,1.78-1.662,1.78H39.74H26.223c-0.918,0-1.663-0.797-1.663-1.78s0.745-1.779,1.663-1.779h2.84
			c0.918,0,1.662-0.797,1.662-1.781c0-0.982-0.744-1.779-1.662-1.779H15.546c-0.918,0-1.662-0.797-1.662-1.78
			s0.744-1.779,1.662-1.779h3.195H37.265z"/>
		<path id="path-3_44_" style="fill:#2476FF;" d="M197.417,148.743h4.76c0.918,0,1.662,0.796,1.662,1.779s-0.744,1.78-1.662,1.78
			h-0.221c-0.918,0-1.662,0.797-1.662,1.779c0,0.984,0.744,1.781,1.662,1.781h10.234c0.917,0,1.661,0.796,1.661,1.779
			s-0.744,1.78-1.661,1.78h-12.299h-13.517c-0.918,0-1.662-0.797-1.662-1.78s0.744-1.779,1.662-1.779h2.84
			c0.917,0,1.662-0.797,1.662-1.781c0-0.982-0.745-1.779-1.662-1.779h-13.517c-0.918,0-1.663-0.797-1.663-1.78
			s0.745-1.779,1.663-1.779h3.195H197.417z"/>
		<path id="path-4_44_" style="fill:#2476FF;" d="M212.439,200.581c3.255,0,5.893-1.655,5.893-3.697
			c0-2.044-2.638-3.699-5.893-3.699h-18.062c-3.256,0-5.894,1.655-5.894,3.699c0,2.042,2.638,3.697,5.894,3.697H212.439z"/>
		<path id="path-5_44_" style="fill:#020403;" d="M203.153,101.739c0.807,2.065,0.752,4.327-0.156,6.369
			c-0.036,0.082-0.102,0.206-0.152,0.313c0.552,0.697,1.036,1.637,1.429,2.411c0.749,1.45,1.454,2.816,2.999,2.816
			c1.572,0,2.251-1.515,2.539-2.165c0.908-2.042,0.962-4.303,0.156-6.367c-0.806-2.073-2.386-3.711-4.436-4.617l-4.881-2.146
			C201.749,99.252,202.628,100.391,203.153,101.739z"/>
		<path id="path-6_44_" style="fill:#020403;" d="M214.081,138.018c-0.812-2.08-2.385-3.719-4.425-4.612l-4.881-2.145
			c1.09,0.894,1.964,2.031,2.492,3.382c0.807,2.076,0.752,4.342-0.166,6.38c-0.036,0.081-0.1,0.203-0.148,0.307
			c0.571,0.71,1.063,1.67,1.425,2.383c0.742,1.468,1.444,2.843,3.003,2.843c1.583,0,2.247-1.507,2.534-2.158
			C214.835,142.36,214.889,140.094,214.081,138.018z"/>
		<path id="path-7_44_" style="fill:#FF3A2F;" d="M214.081,138.018c-0.812-2.08-2.385-3.719-4.425-4.612l-15.292-6.724
			c-2.303-1.011-5.067-0.91-7.289,0.261c-2.04-0.97-4.416-1.224-6.639-0.684l-17.755,4.394l-2.827-12.915
			c0.54-0.054,1.096-0.162,1.732-0.336l18.854-7.716c0.735-0.184,1.588-0.412,2.436-0.694c0.166,0.087,0.336,0.158,0.498,0.228
			l0.417,0.175l18.409-1.632c0.827,0.618,1.536,2.008,2.074,3.069c0.749,1.45,1.454,2.816,3,2.816c1.571,0,2.25-1.515,2.538-2.165
			c0.908-2.042,0.962-4.303,0.156-6.367c-0.806-2.073-2.386-3.711-4.436-4.617l-15.302-6.726c-2.311-0.99-5.052-0.899-7.28,0.266
			c-2.047-0.984-4.449-1.235-6.628-0.688l-19.836,4.905c-0.203,0.049-0.406,0.107-0.62,0.178l5.154-3.613
			c1.22-0.856,2.2-2.017,2.84-3.354c2.048-1.353,3.457-3.394,3.983-5.762l1.792-8.006c8.127-15.631,8.788-29.203,1.962-40.325
			c-7.743-12.627-23.509-18.056-27.461-18.056c-1.888,0-2.277,1.252-2.351,1.635c-0.366,1.874,1.816,2.733,3.415,3.368
			c3.789,1.507,6.361,3.807,7.649,6.829c2.302,5.459-0.219,11.767-0.219,11.767c-0.814,1.404-1.519,1.404-1.752,1.404
			c-2.539,0-6.755-5.254-8.941-8.988l-1.603-2.726l-1.576,2.735c-3.247,5.635-3.982,11.47-2.192,17.338
			c2.863,9.383,11.312,16.152,15.206,18.858c-0.278,0.604-0.492,1.225-0.631,1.863l-1.849,8.253
			c-0.025,0.11-0.041,0.219-0.059,0.331l-7.022,4.936c-0.05,0.036-0.1-0.556-0.152-0.519c-1.216-0.235-2.369-0.975-3.517-0.975
			H96.317c-0.48,0-0.957,0.646-1.446,0.693c-0.603-0.934-1.356-1.402-2.25-2.023l-7.043-4.79c-0.013-0.106-0.037-0.146-0.058-0.269
			l-1.853-8.203c-0.143-0.641-0.355-1.247-0.63-1.844c4.812-3.395,23.445-18.134,13.014-36.189l-1.569-2.732l-1.604,2.729
			c-2.189,3.73-6.415,8.989-8.953,8.989c-0.235,0-0.929,0-1.644-1.198c-0.267-0.671-2.536-6.704-0.319-11.965
			c1.285-3.032,3.861-5.331,7.646-6.839c1.594-0.628,3.775-1.494,3.416-3.367c-0.079-0.382-0.471-1.632-2.356-1.632
			c-3.948,0-19.703,5.432-27.453,18.056c-6.833,11.13-6.172,24.695,1.968,40.325l1.783,8.01c0.536,2.363,1.951,4.404,3.986,5.758
			c0.629,1.332,1.609,2.491,2.843,3.364l6.198,4.351c-0.051,0.108-0.108,0.214-0.159,0.322c-0.888-0.571-1.871-1-2.938-1.27
			l-19.829-4.888c-2.19-0.547-4.575-0.301-6.639,0.668c-2.23-1.168-5.002-1.252-7.293-0.251l-15.274,6.715
			c-2.04,0.893-3.603,2.517-4.4,4.579c-0.83,2.122-0.752,4.472,0.207,6.607c0.573,1.306,1.393,1.964,2.446,1.964
			c1.554,0,2.252-1.357,3.014-2.847c0.519-1.031,1.227-2.423,2.063-3.041l18.289,1.632l0.138,0.009l0.434-0.194
			c0.152-0.068,0.304-0.138,0.447-0.218c0.722,0.248,1.498,0.47,2.203,0.617l19.351,7.886c1.003,0.255,2.061,0.339,3.147,0.245
			l-3.303,13.208l-18.951-4.67c-2.197-0.561-4.589-0.306-6.646,0.662c-2.236-1.153-4.999-1.242-7.279-0.259l-15.284,6.731
			c-2.069,0.907-3.637,2.56-4.427,4.651c-0.797,2.108-0.708,4.427,0.231,6.541c0.573,1.307,1.392,1.965,2.443,1.965
			c1.566,0,2.268-1.387,3.012-2.859c0.492-0.968,1.221-2.409,2.072-3.04l18.304,1.631l0.139,0.011l0.443-0.202
			c0.142-0.066,0.281-0.137,0.428-0.212c0.928,0.316,1.809,0.535,2.199,0.619l19.334,7.882c0.528,0.131,1.081,0.212,1.664,0.25
			c0.861,2.122,2.189,4.632,3.884,7.301l-11.614,6.913c-1.986,1.193-3.436,2.966-4.202,5.127c-2.437,0.758-4.42,2.581-5.342,4.928
			l-5.998,15.454c-0.821,2.079-0.763,4.338,0.142,6.369c0.925,2.072,2.613,3.621,4.884,4.491c0.504,0.188,0.986,0.286,1.433,0.286
			c1.18,0,1.766-0.675,1.914-0.881c0.797-1.087,0.388-2.307-0.134-3.855c-0.346-1.037-0.862-2.572-0.703-3.606l14.113-11.68
			l0.108-0.092l0.17-0.469c0.047-0.138,0.091-0.282,0.135-0.42c0.675-0.326,1.359-0.706,2-1.095l15.342-7.666
			c5.852,5.684,10.806,7.223,14.738,7.223h36.717c3.249,0,6.882-0.639,10.807-4.545l14.783,6.759
			c0.858,0.507,1.579,1.237,2.236,1.554c0.048,0.15,0.096,0.473,0.156,0.627l0.123,0.399l14.243,11.915
			c0.159,1.044-0.353,2.599-0.704,3.634c-0.509,1.546-0.916,2.779-0.126,3.86c0.248,0.346,0.823,0.915,1.871,0.915
			c0.467,0,0.952-0.108,1.69-0.387c4.328-1.669,6.487-6.505,4.813-10.779l-5.998-15.453c-0.919-2.344-2.899-4.17-5.341-4.932
			c-0.756-2.153-2.237-3.962-4.2-5.128l-12.274-7.303c1.325-2.421,2.456-4.731,3.372-6.893c0.997,0.053,1.921-0.03,3.077-0.342
			l18.864-7.716c0.781-0.2,1.623-0.426,2.432-0.705c0.142,0.075,0.288,0.147,0.437,0.212l0.434,0.195l18.436-1.635
			c0.855,0.621,1.586,2.064,2.081,3.038c0.742,1.468,1.444,2.843,3.003,2.843c1.583,0,2.247-1.507,2.534-2.158
			C214.835,142.36,214.889,140.094,214.081,138.018z"/>
		<path id="path-8_44_" style="opacity:0.35;fill:#020403;enable-background:new    ;" d="M144.063,40.946
			c0.188,0,0.688-0.04,1.299-0.776c-1.31-1.565-2.537-3.321-3.425-4.837l-1.603-2.726l-1.576,2.735
			c-0.202,0.352-0.365,0.706-0.547,1.058C140.21,38.869,142.467,40.946,144.063,40.946z"/>
		<path id="path-9_41_" style="opacity:0.35;fill:#020403;enable-background:new    ;" d="M164.782,33.999
			c6.826,11.122,6.165,24.693-1.961,40.325l-1.793,8.006c-0.526,2.368-1.935,4.408-3.982,5.761c-0.641,1.336-1.621,2.498-2.84,3.354
			l-5.155,3.613c0.214-0.071,0.417-0.128,0.62-0.178l14.361-3.551c1.947-1.353,3.302-3.328,3.811-5.624l1.792-8.006
			c8.127-15.631,8.788-29.203,1.962-40.325c-5.146-8.391-13.82-13.587-20.23-16.139C156.261,24.16,161.322,28.356,164.782,33.999z"
			/>
		<path id="path-10_37_" style="opacity:0.35;fill:#020403;enable-background:new    ;" d="M65.238,111.566l-19.351-7.886
			c-0.705-0.147-1.482-0.369-2.203-0.617c-0.143,0.08-0.294,0.15-0.448,0.217l-0.433,0.194l-0.139-0.01l-18.287-1.631
			c-0.388,0.286-0.745,0.746-1.071,1.253c-0.616,1.972-0.514,4.095,0.362,6.047c0.573,1.306,1.393,1.964,2.446,1.964
			c1.554,0,2.252-1.357,3.014-2.847c0.519-1.031,1.227-2.423,2.063-3.041l18.289,1.632l0.138,0.009l0.434-0.194
			c0.152-0.068,0.304-0.138,0.447-0.218c0.722,0.248,1.498,0.47,2.203,0.617l15.313,6.24l0.371-1.484
			C67.299,111.904,66.241,111.82,65.238,111.566z"/>
		<path id="path-11_32_" style="opacity:0.35;fill:#020403;enable-background:new    ;" d="M153.04,114.362l2.826,12.917
			l5.764-1.428l-1.776-8.113c0.54-0.054,1.096-0.162,1.732-0.336l18.854-7.716c0.735-0.184,1.588-0.412,2.436-0.694
			c0.166,0.087,0.336,0.158,0.498,0.228l0.417,0.175l14.043-1.246c-0.126-0.228-0.251-0.453-0.375-0.691
			c-0.539-1.062-1.247-2.452-2.074-3.07l-18.409,1.631l-0.416-0.174c-0.163-0.071-0.333-0.141-0.499-0.227
			c-0.847,0.281-1.7,0.509-2.436,0.693l-18.853,7.715C154.135,114.201,153.579,114.309,153.04,114.362z"/>
		<path id="path-12_28_" style="opacity:0.35;fill:#020403;enable-background:new    ;" d="M91.512,34.925
			c4.399,15.518-10.973,27.743-15.29,30.788c0.274,0.598,0.488,1.301,0.63,1.942l1.854,8.4c0.02,0.124,0.044,0.555,0.057,0.663
			l7.043,5.572c0.894,0.621,1.647,2.66,2.25,3.593c0.488-0.048,0.966,2.445,1.446,2.445h4.857c-0.501-0.986-1.081-2.206-1.738-2.662
			l-7.043-5.574c-0.013-0.107-0.037-0.538-0.057-0.662l-1.854-8.4c-0.142-0.64-0.355-1.343-0.63-1.941
			c4.812-3.395,23.445-18.183,13.013-36.239l-1.568-2.755l-1.604,2.716C92.487,33.48,92.014,34.199,91.512,34.925z"/>
		<path id="path-13_22_" style="opacity:0.35;fill:#020403;enable-background:new    ;" d="M165.694,150.324l18.864-7.716
			c0.781-0.2,1.623-0.426,2.432-0.705c0.142,0.075,0.288,0.147,0.437,0.212l0.434,0.195l14.085-1.249
			c-0.128-0.239-0.257-0.475-0.383-0.724c-0.495-0.973-1.226-2.417-2.081-3.037l-18.436,1.633l-0.433-0.194
			c-0.149-0.064-0.295-0.137-0.438-0.212c-0.81,0.279-1.651,0.504-2.433,0.705l-18.863,7.716c-1.156,0.313-2.08,0.396-3.078,0.342
			c-0.915,2.163-2.046,4.473-3.37,6.894l12.273,7.302c1.963,1.168,3.444,2.978,4.2,5.13c2.443,0.761,4.422,2.587,5.341,4.93
			l5.998,15.455c1.01,2.576,0.605,5.348-0.806,7.518c-0.143,0.792-0.408,1.624-0.627,2.27c-0.509,1.547-0.916,2.768-0.126,3.848
			c0.248,0.347,0.823,0.908,1.871,0.908c0.467,0,0.952-0.109,1.69-0.387c4.328-1.67,6.487-6.506,4.813-10.781l-5.998-15.454
			c-0.919-2.344-2.899-4.171-5.341-4.933c-0.756-2.153-2.237-3.962-4.2-5.128l-12.274-7.303c1.325-2.421,2.456-4.731,3.372-6.893
			C163.614,150.719,164.538,150.636,165.694,150.324z"/>
		<path id="path-14_17_" style="opacity:0.35;fill:#020403;enable-background:new    ;" d="M157.041,174.517
			c-0.657-0.316-17.019-7.17-17.019-7.17c-3.925,3.905-7.557,6.067-10.807,6.067H92.498c-0.608,0-1.249-0.099-1.908-0.244
			c3.301,2.369,6.221,3.621,8.723,3.621h36.716c3.251,0,8.019-0.778,11.944-4.683l8.312,3.734
			C156.231,175.704,157.085,174.656,157.041,174.517z"/>
		<path id="path-15_15_" style="opacity:0.35;fill:#020403;enable-background:new    ;" d="M75.148,25.25
			c-2.217,5.262,0.05,11.295,0.318,11.968c0.715,1.198,1.41,1.201,1.643,1.201c1.124,0,2.578-1.055,4.039-2.525
			c-0.264-2.175-0.226-4.798,0.814-7.268c1.285-3.032,3.86-5.332,7.646-6.84c1.594-0.628,3.775-1.494,3.416-3.366
			c-0.079-0.383-0.471-1.632-2.356-1.632c-2.017,0-7.123,1.43-12.664,4.501C76.743,22.426,75.784,23.747,75.148,25.25z"/>
		<path id="path-16_12_" style="opacity:0.35;fill:#020403;enable-background:new    ;" d="M78.896,167.347l-15.342,6.143
			c-0.641,0.39-1.325,0.769-2,1.095c-0.044,0.137-0.088,0.282-0.135,0.419l-0.17,0.47l-0.108,0.092l-14.113,11.68
			c-0.158,1.034,0.357,2.568,0.703,3.607c0.522,1.546,0.932,2.769,0.135,3.856c-0.087,0.121-0.349,0.393-0.769,0.606
			c0.978,1.502,2.406,2.663,4.236,3.363c0.504,0.188,0.986,0.286,1.433,0.286c1.18,0,1.766-0.675,1.914-0.881
			c0.797-1.087,0.388-2.307-0.134-3.855c-0.346-1.037-0.862-2.573-0.702-3.606l14.112-11.68l0.108-0.092l0.17-0.469
			c0.047-0.138,0.091-0.282,0.135-0.42c0.675-0.326,1.359-0.706,2-1.095l15.342-7.437C84.189,168.243,80.566,168.97,78.896,167.347z
			"/>
		<path id="path-17_10_" style="opacity:0.35;fill:#020403;enable-background:new    ;" d="M45.511,139.758l0.443-0.202
			c0.142-0.067,0.281-0.137,0.427-0.212c0.929,0.316,1.81,0.535,2.2,0.619l14.784,6.028c-0.189-0.417-0.442-0.88-0.601-1.272
			c-0.583-0.038-1.136-0.118-1.664-0.248l-19.334-7.883c-0.39-0.084-1.271-0.302-2.2-0.618c-0.144,0.074-0.284,0.144-0.427,0.212
			l-0.443,0.201l-0.14-0.01l-18.303-1.632c-0.389,0.288-0.746,0.754-1.074,1.256c-0.612,1.976-0.506,4.098,0.362,6.053
			c0.573,1.307,1.392,1.965,2.443,1.965c1.566,0,2.268-1.387,3.012-2.861c0.492-0.966,1.221-2.407,2.072-3.038l18.304,1.631
			L45.511,139.758z"/>
		<circle id="circle-1_1_" style="fill:#FFFFFF;" cx="101.002" cy="103.779" r="5"/>
		<circle id="circle-2_1_" style="fill:#FFFFFF;" cx="99.002" cy="155.779" r="11"/>
		<path id="path-18_8_" style="fill:#FFFFFF;" d="M88.963,133.381c3.217,0,5.826,2.584,5.826,5.771c0,3.186-2.609,5.771-5.826,5.771
			c-3.216,0-5.825-2.585-5.825-5.771C83.138,135.965,85.747,133.381,88.963,133.381z"/>
		<circle id="circle-3" style="fill:#FFFFFF;" cx="137.002" cy="103.779" r="5"/>
	</g>
</g>
<g>
</g>
<g>
</g>
<g>
</g>
<g>
</g>
<g>
</g>
<g>
</g>
<g>
</g>
<g>
</g>
<g>
</g>
<g>
</g>
<g>
</g>
<g>
</g>
<g>
</g>
<g>
</g>
<g>
</g>
</svg>
