<?xml version="1.0" encoding="iso-8859-1"?>
<!-- Generator: Adobe Illustrator 19.1.0, SVG Export Plug-In . SVG Version: 6.00 Build 0)  -->
<svg version="1.1" id="Capa_1" xmlns="http://www.w3.org/2000/svg" xmlns:xlink="http://www.w3.org/1999/xlink" x="0px" y="0px"
	 viewBox="0 0 217.221 217.221" style="enable-background:new 0 0 217.221 217.221;" xml:space="preserve">
<g>
	<g id="group-89svg">
		<path id="path-1_148_" style="fill:#FBB713;" d="M178.958,217.221c-2.65,0-4.798-2.078-4.798-4.641
			c0-2.564,2.148-4.642,4.798-4.642h14.702c2.649,0,4.797,2.078,4.797,4.642c0,2.563-2.148,4.641-4.797,4.641H178.958z"/>
		<path id="path-2_148_" style="fill:#FBB713;" d="M77.298,190.075H60.907c-3.161,0-5.723,1.938-5.723,4.331
			c0,2.392,2.562,4.331,5.723,4.331h0.762c3.161,0,5.723,1.939,5.723,4.33c0,2.393-2.562,4.331-5.723,4.331H26.432
			c-3.16,0-5.723,1.94-5.723,4.332s2.563,4.331,5.723,4.331h42.346h86.555c3.16,0,5.722-1.939,5.722-4.331s-2.562-4.332-5.722-4.332
			h-9.78c-3.16,0-5.722-1.938-5.722-4.331c0-2.391,2.562-4.33,5.722-4.33h38.409c3.161,0,5.723-1.939,5.723-4.331
			c0-2.393-2.562-4.331-5.723-4.331h-2.866H77.298z"/>
		<path id="path-3_148_" style="fill:#FBB713;" d="M53.137,176.649h4.675c0.902,0,1.632-0.801,1.632-1.79
			c0-0.988-0.73-1.789-1.632-1.789h-0.217c-0.902,0-1.633-0.802-1.633-1.79c0-0.988,0.731-1.79,1.633-1.79h10.049
			c0.902,0,1.633-0.802,1.633-1.789c0-0.989-0.731-1.79-1.633-1.79H55.567H30.881c-0.901,0-1.632,0.801-1.632,1.79
			c0,0.987,0.731,1.789,1.632,1.789h2.789c0.902,0,1.633,0.802,1.633,1.79c0,0.988-0.731,1.79-1.633,1.79H20.396
			c-0.901,0-1.632,0.801-1.632,1.789c0,0.989,0.731,1.79,1.632,1.79h3.138H53.137z"/>
		<path id="path-4_148_" style="fill:#142A3B;" d="M107.853,205.407c-24.346,0-44.156-19.808-44.156-44.155
			c0-3.999,3.242-7.241,7.241-7.241s7.241,3.242,7.241,7.241c0,16.362,13.312,29.673,29.674,29.673
			c16.363,0,29.675-13.311,29.675-29.673c0-16.361-13.312-29.672-29.675-29.672h-7.24V95.196c0-3.998,3.242-7.24,7.24-7.24
			c4,0,7.242,3.242,7.242,7.24v22.497c20.916,3.463,36.915,21.678,36.915,43.559C152.01,185.599,132.2,205.407,107.853,205.407z"/>
		<path id="path-5_147_" style="fill:#FF3A2F;" d="M152.538,101.025H63.167V0h89.372V101.025z"/>
		<path id="path-6_144_" style="opacity:0.35;enable-background:new    ;" d="M140.745,0v101.025h11.794V0H140.745z"/>
		<path id="path-7_140_" style="fill:#142A3B;" d="M121.384,31.945H94.321L80.789,55.383l13.532,23.435h27.064l13.531-23.435
			L121.384,31.945z M115.493,69.942h-15.282l-7.641-14.559l7.641-14.559h15.282l7.641,14.559L115.493,69.942z"/>
		<path id="path-8_116_" style="opacity:0.35;enable-background:new    ;" d="M100.212,40.824l-7.641,14.559l7.641,14.559h5.829
			l-7.641-14.559l7.641-14.559H100.212z"/>
		<path id="path-9_101_" style="opacity:0.35;enable-background:new    ;" d="M127.213,31.945h-5.828l13.531,23.438l-13.531,23.436
			h5.828l13.532-23.436L127.213,31.945z"/>
	</g>
</g>
<g>
</g>
<g>
</g>
<g>
</g>
<g>
</g>
<g>
</g>
<g>
</g>
<g>
</g>
<g>
</g>
<g>
</g>
<g>
</g>
<g>
</g>
<g>
</g>
<g>
</g>
<g>
</g>
<g>
</g>
</svg>
