<?xml version="1.0" encoding="iso-8859-1"?>
<!-- Generator: Adobe Illustrator 19.1.0, SVG Export Plug-In . SVG Version: 6.00 Build 0)  -->
<svg version="1.1" id="Capa_1" xmlns="http://www.w3.org/2000/svg" xmlns:xlink="http://www.w3.org/1999/xlink" x="0px" y="0px"
	 viewBox="0 0 217.228 217.228" style="enable-background:new 0 0 217.228 217.228;" xml:space="preserve">
<g>
	<g id="group-152svg">
		<path id="path-1_59_" style="fill:#FF3A2F;" d="M149.068,162.809h23.275c4.488,0,8.126-3.64,8.126-8.128
			c0-4.491-3.638-8.129-8.126-8.129h-1.084c-4.487,0-8.125-3.64-8.125-8.129c0-4.488,3.638-8.128,8.125-8.128h37.843
			c4.488,0,8.126-3.64,8.126-8.129s-3.638-8.129-8.126-8.129h-47.937H38.259c-4.488,0-8.125,3.64-8.125,8.129
			s3.637,8.129,8.125,8.129h13.887c4.488,0,8.126,3.64,8.126,8.128c0,4.489-3.638,8.129-8.126,8.129H9.799
			c-4.488,0-8.126,3.638-8.126,8.129c0,4.488,3.638,8.128,8.126,8.128h4.071H149.068z"/>
		<path id="path-2_59_" style="fill:#FF3A2F;" d="M16.758,118.465c2.277,0,4.123,2.204,4.123,4.92c0,2.717-1.846,4.921-4.123,4.921
			H4.123c-2.278,0-4.123-2.204-4.123-4.921c0-2.716,1.845-4.92,4.123-4.92H16.758z"/>
		<path id="path-3_59_" style="fill:#EDEDED;" d="M177.058,69.327c0,3.087-2.503,5.59-5.589,5.59c-3.087,0-5.589-2.503-5.589-5.59
			c0-3.086,2.502-5.589,5.589-5.589C174.555,63.738,177.058,66.241,177.058,69.327z"/>
		<path id="path-4_59_" style="fill:#EDEDED;" d="M176.06,54.42H60.219c-6.706,0-12.193,5.49-12.193,12.194v12.193v42.677h30.485
			h79.259h30.484v-54.87C188.254,59.91,182.767,54.42,176.06,54.42z"/>
		<path id="path-5_58_" style="fill:#FBB713;" d="M157.77,103.195v48.772H78.511v-48.772H157.77z"/>
		<path id="path-6_56_" style="opacity:0.25;enable-background:new    ;" d="M78.511,103.195v6.095h70.113v42.677h9.146v-48.772
			H78.511z"/>
		<path id="path-7_55_" style="fill:#142A3B;" d="M145.576,125.105H90.704c-2,0-3.621-1.621-3.621-3.621s1.621-3.621,3.621-3.621
			h54.872c2,0,3.621,1.621,3.621,3.621S147.576,125.105,145.576,125.105z"/>
		<path id="path-8_41_" style="fill:#142A3B;" d="M185.206,88.523H51.075c-2,0-3.621-1.62-3.621-3.62
			c0-1.998,1.621-3.619,3.621-3.619h134.131c1.999,0,3.62,1.621,3.62,3.619C188.826,86.903,187.205,88.523,185.206,88.523z"/>
		<path id="path-9_35_" style="fill:#142A3B;" d="M145.576,137.298H90.704c-2,0-3.621-1.621-3.621-3.621
			c0-1.998,1.621-3.619,3.621-3.619h54.872c2,0,3.621,1.621,3.621,3.619C149.197,135.677,147.576,137.298,145.576,137.298z"/>
		<path id="path-10_32_" style="fill:#142A3B;" d="M188.254,87.952V66.614c0-6.704-5.487-12.194-12.194-12.194H60.219
			c-6.706,0-12.193,5.49-12.193,12.194v12.193v9.145H188.254z"/>
		<path id="path-11_25_" style="fill:#EDEDED;" d="M155.718,69.327c0,3.087-2.501,5.59-5.588,5.59s-5.589-2.503-5.589-5.59
			c0-3.086,2.502-5.589,5.589-5.589S155.718,66.241,155.718,69.327z"/>
		<path id="path-12_21_" style="opacity:0.35;enable-background:new    ;" d="M176.06,54.42H60.219
			c-3.052,0-5.819,1.177-7.964,3.049h108.563c6.707,0,12.193,5.491,12.193,12.194v51.821h15.243v-54.87
			C188.254,59.91,182.767,54.42,176.06,54.42z"/>
	</g>
</g>
<g>
</g>
<g>
</g>
<g>
</g>
<g>
</g>
<g>
</g>
<g>
</g>
<g>
</g>
<g>
</g>
<g>
</g>
<g>
</g>
<g>
</g>
<g>
</g>
<g>
</g>
<g>
</g>
<g>
</g>
</svg>
