<?xml version="1.0" encoding="iso-8859-1"?>
<!-- Generator: Adobe Illustrator 19.1.0, SVG Export Plug-In . SVG Version: 6.00 Build 0)  -->
<svg version="1.1" id="Capa_1" xmlns="http://www.w3.org/2000/svg" xmlns:xlink="http://www.w3.org/1999/xlink" x="0px" y="0px"
	 viewBox="0 0 218.332 218.332" style="enable-background:new 0 0 218.332 218.332;" xml:space="preserve">
<g>
	<g id="group-156svg">
		<path id="path-1_63_" style="fill:#FF3A2F;" d="M28.069,184.974c3.814,0,6.906-1.941,6.906-4.335c0-2.394-3.092-4.335-6.906-4.335
			H6.906c-3.814,0-6.906,1.941-6.906,4.335c0,2.394,3.092,4.335,6.906,4.335H28.069z"/>
		<path id="path-2_63_" style="fill:#FF3A2F;" d="M141.737,154.925h21.117h23.483c2.34,0,4.237,1.688,4.237,4.001
			c0,2.311-1.897,4-4.237,4h-24.762c-2.34,0-4.237,2.686-4.237,4.998c0,2.312,1.897,5,4.237,5h10.4h18.638h23.482
			c2.34,0,4.237,1.188,4.237,3.5c0,2.313-1.897,3.5-4.237,3.5h-24.761c-1.632,0-3.048,3.754-3.756,5.245
			c-0.537,1.128-1.87,3.106-3.399,3.106c-19.782-0.004-72.017,3.512-73.406-1.847c-1.038-4.005-38.045-6.504-40.202-6.504H43.809
			c-2.34,0-4.237-1.187-4.237-3.5c0-2.312,1.897-3.5,4.237-3.5h23.483h18.637h10.4c2.34,0,4.237-2.688,4.237-5
			c0-2.312-1.897-4.998-4.237-4.998H71.567c-2.34,0-4.237-1.689-4.237-4c0-2.313,1.897-4.001,4.237-4.001H95.05h8.003H141.737z"/>
		<path id="path-3_63_" style="fill:#FBB713;" d="M39.841,61.928c-8.062,10.001-12.76,23.43-12.76,38.984
			c0,22.726,10.023,47.013,25.924,54.013h102.328c15.901-7,25.924-31.287,25.924-54.013c0-15.554-4.699-28.983-12.76-38.984H39.841z
			"/>
		<path id="path-4_63_" style="fill:#FFFFFF;" d="M51.175,145.542c-1.253,0-2.472-0.641-3.149-1.791
			c-6.883-11.711-10.675-26.077-10.675-40.446c0-7.293,0.972-14.446,2.889-21.261c0.542-1.917,2.551-3.034,4.483-2.503
			c1.935,0.533,3.067,2.521,2.528,4.44c-1.739,6.183-2.622,12.685-2.622,19.324c0,13.114,3.44,26.192,9.687,36.817
			c1.011,1.721,0.423,3.929-1.313,4.93C52.426,145.386,51.796,145.542,51.175,145.542z"/>
		<path id="path-5_63_" style="opacity:0.25;fill:#020403;enable-background:new    ;" d="M168.42,61.497h-12.926
			c5.282,9.39,8.376,21.509,8.376,33.67c0,22.319-10.022,44.597-25.924,54.746H44.853c2.503,2.615,5.226,3.442,8.152,5.31h102.328
			c16.565-8.863,25.924-30.971,25.924-53.289C181.257,86.658,176.482,71.647,168.42,61.497z"/>
		<path id="path-6_62_" style="opacity:0.35;fill:#020403;enable-background:new    ;" d="M79.797,122.023H65.679v6.889h18.585
			C82.504,127.018,80.984,124.753,79.797,122.023z"/>
		<path id="path-7_62_" style="opacity:0.35;fill:#020403;enable-background:new    ;" d="M146.121,104.799v17.224h-18.046
			c-4.491,10.334-13.508,14.383-23.906,14.383c-5.597,0-10.762-1.225-15.068-3.92c4.877,7.706,12.92,10.81,22.022,10.81
			c10.398,0,19.415-4.05,23.907-14.384h18.046v-24.113H146.121z"/>
		<path id="path-8_61_" style="fill:#142A3B;" d="M146.595,97.928h-18.52c-4.491-4.001-13.507-14.385-23.906-14.385
			c-10.398,0-19.415,10.384-23.907,14.385H55.601v24.998h24.661c4.492,11,13.509,14.383,23.907,14.383
			c10.399,0,19.415-3.383,23.906-14.383h18.52V97.928z"/>
		<path id="path-9_58_" style="fill:#2476FF;" d="M168.42,47.144c0,0-7.712-0.215,0,14.784H39.572c7.712-14.999,0-15.017,0-15.017
			L168.42,47.144z"/>
		<path id="path-10_53_" style="opacity:0.35;fill:#020403;enable-background:new    ;" d="M167.27,46.845H40.99
			c0,0,2.29,2.239,2.168,6.898l115.003,0.059c0,0-4.238,2.109-3.273,7.695h13.705C160.881,51.161,167.27,46.845,167.27,46.845z"/>
		<path id="path-11_45_" style="fill:#142A3B;" d="M179.593,46.929H27.602v-18h151.991V46.929z"/>
		<path id="path-12_38_" style="opacity:0.35;fill:#020403;enable-background:new    ;" d="M152.328,29.053v18.023h27.302V29.053
			H152.328z"/>
	</g>
</g>
<g>
</g>
<g>
</g>
<g>
</g>
<g>
</g>
<g>
</g>
<g>
</g>
<g>
</g>
<g>
</g>
<g>
</g>
<g>
</g>
<g>
</g>
<g>
</g>
<g>
</g>
<g>
</g>
<g>
</g>
</svg>
