<?xml version="1.0" encoding="iso-8859-1"?>
<!-- Generator: Adobe Illustrator 19.1.0, SVG Export Plug-In . SVG Version: 6.00 Build 0)  -->
<svg version="1.1" id="Capa_1" xmlns="http://www.w3.org/2000/svg" xmlns:xlink="http://www.w3.org/1999/xlink" x="0px" y="0px"
	 viewBox="0 0 217.229 217.229" style="enable-background:new 0 0 217.229 217.229;" xml:space="preserve">
<g>
	<g id="group-67svg">
		<path id="path-1_124_" style="fill:#FF3A2F;" d="M49.962,115.765h6.991c1.349,0,2.441,1.326,2.441,2.964
			c0,1.635-1.092,2.961-2.441,2.961h-0.325c-1.348,0-2.441,1.327-2.441,2.963s1.093,2.964,2.441,2.964h15.029
			c1.348,0,2.44,1.325,2.44,2.962c0,1.636-1.092,2.963-2.44,2.963H53.596H16.68c-1.348,0-2.44-1.327-2.44-2.963
			c0-1.637,1.092-2.962,2.44-2.962h4.171c1.348,0,2.441-1.328,2.441-2.964s-1.093-2.963-2.441-2.963H4.47
			c-1.348,0-2.441-1.326-2.441-2.961c0-1.638,1.093-2.964,2.441-2.964h1.222H49.962z"/>
		<path id="path-2_124_" style="fill:#FF3A2F;" d="M6.988,133.808c0.949,0,1.719-0.938,1.719-2.095c0-1.158-0.77-2.097-1.719-2.097
			H1.719c-0.949,0-1.719,0.939-1.719,2.097c0,1.157,0.77,2.095,1.719,2.095H6.988z"/>
		<path id="path-3_124_" style="fill:#FF3A2F;" d="M93.561,174.206h-16.37c-3.156,0-5.714,2.615-5.714,5.84
			c0,3.224,2.558,5.84,5.714,5.84h0.762c3.157,0,5.715,2.614,5.715,5.839c0,3.225-2.558,5.839-5.715,5.839h-35.19
			c-3.156,0-5.714,2.614-5.714,5.839s2.558,5.841,5.714,5.841h42.29h86.438c3.156,0,5.715-2.616,5.715-5.841
			s-2.559-5.839-5.715-5.839h-9.766c-3.157,0-5.715-2.614-5.715-5.839c0-3.225,2.558-5.839,5.715-5.839h38.357
			c3.157,0,5.715-2.616,5.715-5.84c0-3.225-2.558-5.84-5.715-5.84h-2.863H93.561z"/>
		<path id="path-4_124_" style="fill:#FF3A2F;" d="M194.187,209.769c-2.223,0-4.026-1.851-4.026-4.131
			c0-2.282,1.803-4.131,4.026-4.131h12.336c2.223,0,4.025,1.849,4.025,4.131c0,2.28-1.802,4.131-4.025,4.131H194.187z"/>
		<path id="path-5_123_" style="fill:#0CB04A;" d="M198.504,75.169l-73.79,40.436c-24.023,13.164-53.372-4.219-53.372-31.612v-0.001
			c0-13.166,7.179-25.284,18.725-31.611l73.789-40.435c24.024-13.164,53.373,4.219,53.373,31.611l0,0
			C217.229,56.724,210.05,68.843,198.504,75.169z"/>
		<path id="path-6_120_" style="opacity:0.35;enable-background:new    ;" d="M195.132,10.34c6.457,6.378,10.61,15.26,10.61,25.56
			l0,0c0,13.167-7.178,25.285-18.724,31.612l-73.79,40.436c-10.366,5.679-21.713,5.65-31.276,1.605
			c10.713,10.583,27.773,14.265,42.762,6.052l73.79-40.436c11.546-6.326,18.724-18.445,18.724-31.611l0,0
			C217.228,27.984,207.733,15.668,195.132,10.34z"/>
		<path id="path-7_117_" style="fill:#FBB713;" d="M139.374,85.464c0,18.785-15.23,34.015-34.016,34.015
			s-34.016-15.23-34.016-34.015s15.23-34.014,34.016-34.014S139.374,66.679,139.374,85.464z"/>
		<path id="path-8_94_" style="fill:#EDEDED;" d="M125.594,85.464c0,11.175-9.06,20.235-20.236,20.235s-20.236-9.06-20.236-20.235
			c0-11.176,9.06-20.236,20.236-20.236S125.594,74.288,125.594,85.464z"/>
		<path id="path-9_81_" style="opacity:0.35;enable-background:new    ;" d="M113.015,65.228c-1.311,0-2.586,0.148-3.829,0.386
			c9.342,1.792,16.408,9.985,16.408,19.85c0,9.863-7.066,18.057-16.408,19.85c1.243,0.238,2.518,0.385,3.829,0.385
			c11.177,0,20.236-9.06,20.236-20.235C133.251,74.287,124.192,65.228,113.015,65.228z"/>
		<path id="path-10_74_" style="fill:#FBB713;" d="M164.232,152.249c0,9.563-19.313,17.313-43.136,17.313
			c-23.824,0-43.136-7.75-43.136-17.313c0-9.563,19.312-17.313,43.136-17.313C144.919,134.936,164.232,142.686,164.232,152.249z"/>
		<path id="path-11_63_" style="fill:#EDEDED;" d="M153.336,152.249c0,7.148-14.435,12.941-32.24,12.941
			c-17.806,0-32.24-5.793-32.24-12.941c0-7.147,14.434-12.941,32.24-12.941C138.901,139.308,153.336,145.102,153.336,152.249z"/>
		<path id="path-12_54_" style="fill:#0CB04A;" d="M121.096,134.066c-25.02,0-45.302,8.141-45.302,18.183v16.446
			c0.855,21.049,91.518,21.595,90.604,0v-16.446C166.398,142.207,146.115,134.066,121.096,134.066z M121.096,169.563
			c-23.824,0-43.136-7.752-43.136-17.314c0-9.563,19.312-17.313,43.136-17.313c23.823,0,43.136,7.75,43.136,17.313
			C164.232,161.811,144.919,169.563,121.096,169.563z"/>
		<path id="path-13_42_" style="fill:#087330;" d="M121.096,134.066c-25.02,0-45.302,8.141-45.302,18.183v16.446
			c0.855,21.049,91.518,21.595,90.604,0v-16.446C166.398,142.207,146.115,134.066,121.096,134.066z M121.096,169.563
			c-23.824,0-43.136-7.752-43.136-17.314c0-9.563,19.312-17.313,43.136-17.313c23.823,0,43.136,7.75,43.136,17.313
			C164.232,161.811,144.919,169.563,121.096,169.563z"/>
		<path id="path-14_35_" style="fill:#FBB713;" d="M66.728,95.066c0,6.127-12.373,11.094-27.637,11.094s-27.638-4.967-27.638-11.094
			s12.374-11.092,27.638-11.092S66.728,88.939,66.728,95.066z"/>
		<path id="path-15_30_" style="fill:#EDEDED;" d="M59.747,95.066c0,4.579-9.248,8.292-20.656,8.292
			c-11.409,0-20.657-3.713-20.657-8.292s9.248-8.291,20.657-8.291C50.499,86.775,59.747,90.487,59.747,95.066z"/>
		<path id="path-16_23_" style="fill:#0CB04A;" d="M39.091,83.415c-16.031,0-29.026,5.217-29.026,11.651v10.537
			c0.548,13.486,58.638,13.837,58.052,0V95.066C68.117,88.632,55.121,83.415,39.091,83.415z M39.091,106.16
			c-15.264,0-27.638-4.967-27.638-11.094s12.374-11.092,27.638-11.092s27.637,4.965,27.637,11.092S54.355,106.16,39.091,106.16z"/>
		<path id="path-17_20_" style="fill:#087330;" d="M39.091,83.415c-16.031,0-29.026,5.217-29.026,11.651v10.537
			c0.548,13.486,58.638,13.837,58.052,0V95.066C68.117,88.632,55.121,83.415,39.091,83.415z M39.091,106.16
			c-15.264,0-27.638-4.967-27.638-11.094s12.374-11.092,27.638-11.092s27.637,4.965,27.637,11.092S54.355,106.16,39.091,106.16z"/>
	</g>
</g>
<g>
</g>
<g>
</g>
<g>
</g>
<g>
</g>
<g>
</g>
<g>
</g>
<g>
</g>
<g>
</g>
<g>
</g>
<g>
</g>
<g>
</g>
<g>
</g>
<g>
</g>
<g>
</g>
<g>
</g>
</svg>
