<?xml version="1.0" encoding="iso-8859-1"?>
<!-- Generator: Adobe Illustrator 19.1.0, SVG Export Plug-In . SVG Version: 6.00 Build 0)  -->
<svg version="1.1" id="Capa_1" xmlns="http://www.w3.org/2000/svg" xmlns:xlink="http://www.w3.org/1999/xlink" x="0px" y="0px"
	 viewBox="0 0 218.333 218.333" style="enable-background:new 0 0 218.333 218.333;" xml:space="preserve">
<g>
	<g id="group-13svg">
		<path id="path-1_34_" style="fill:#FF3A2F;" d="M70.357,189.113h14.324c2.763,0,5.001,1.405,5.001,3.139
			c0,1.733-2.238,3.138-5.001,3.138h-0.667c-2.761,0-5,1.406-5,3.139c0,1.735,2.239,3.139,5,3.139h30.796c2.761,0,5,1.406,5,3.139
			c0,1.733-2.239,3.139-5,3.139H77.802H37.128c-2.761,0-5.001-1.406-5.001-3.139c0-1.733,2.24-3.139,5.001-3.139h8.547
			c2.761,0,5-1.404,5-3.139c0-1.733-2.239-3.139-5-3.139H5c-2.761,0-5-1.405-5-3.138c0-1.734,2.239-3.139,5-3.139h9.614H70.357z"/>
		<path id="path-2_34_" style="fill:#FF3A2F;" d="M183.839,217.127c4.143,0,7.501-2.108,7.501-4.709c0-2.6-3.358-4.707-7.501-4.707
			h-22.987c-4.143,0-7.502,2.107-7.502,4.707c0,2.601,3.359,4.709,7.502,4.709H183.839z"/>
		<path id="path-3_34_" style="fill:#FF3A2F;" d="M162.488,162.201h11.121h29.277h10.808c2.323,0,4.397,1.682,4.618,3.973
			c0.252,2.629-1.827,4.84-4.428,4.84h-16.907c-2.323,0-4.397,1.682-4.617,3.973c-0.254,2.628,1.826,4.839,4.426,4.839h2.642
			c2.398,0,4.525,1.794,4.639,4.167c0.122,2.543-1.709,4.646-4.246,4.646h-13.98H158.04c-6.754,0-12.231-5.425-12.231-12.118l0,0
			L162.488,162.201z"/>
		<path id="path-4_34_" style="fill:#FBB713;" d="M177.464,100.17c0.091-3,0.153-1.073,0.153-2.508
			c0-36.516-29.882-65.239-66.742-65.239c-36.862,0-66.743,28.283-66.743,64.8c0,1.434,0.062-0.053,0.152,2.947H177.464z"/>
		<path id="path-5_34_" style="fill:#FFFFFF;" d="M58.108,89.481c-2.012,0-3.639-1.614-3.639-3.605
			c0-23.243,19.032-42.152,42.43-42.152c2.011,0,3.638,1.614,3.638,3.605c0,1.991-1.627,3.604-3.638,3.604
			c-19.382,0-35.152,15.675-35.152,34.943C61.747,87.867,60.118,89.481,58.108,89.481z"/>
		<path id="path-6_34_" style="opacity:0.25;fill:#020403;enable-background:new    ;" d="M130.536,35.288
			c13.709,12.146,22.392,29.762,22.392,49.391c0,1.434-0.062,1.068-0.153,4.541H44.732c-0.445,3.086-0.753,6.214-0.753,9.417
			c0,1.435,0.698,1,0.789,4.472h132.544c0.091-3.472,0.152-3.107,0.152-4.541C177.464,68.887,157.721,43.684,130.536,35.288z"/>
		<path id="path-7_34_" style="fill:#142A3B;" d="M159.52,173.167H62.23L44.132,100.17h133.485L159.52,173.167z"/>
		<path id="path-8_34_" style="opacity:0.35;fill:#020403;enable-background:new    ;" d="M152.465,100.574l-15.512,62.504
			l-77.048-0.877l2.585,10.417l97.03,0.054l17.944-72.098H152.465z"/>
		<path id="path-9_31_" style="fill:#FF3A2F;" d="M126.722,16.904c0,8.671-7.095,15.699-15.847,15.699s-15.847-7.028-15.847-15.699
			s7.095-15.698,15.847-15.698S126.722,8.233,126.722,16.904z"/>
		<path id="path-10_29_" style="fill:#FFFFFF;" d="M115.726,13.432c0,4.572-3.742,8.278-8.357,8.278
			c-4.613,0-8.356-3.706-8.356-8.278s3.743-8.277,8.356-8.277C111.984,5.155,115.726,8.86,115.726,13.432z"/>
	</g>
</g>
<g>
</g>
<g>
</g>
<g>
</g>
<g>
</g>
<g>
</g>
<g>
</g>
<g>
</g>
<g>
</g>
<g>
</g>
<g>
</g>
<g>
</g>
<g>
</g>
<g>
</g>
<g>
</g>
<g>
</g>
</svg>
