<?xml version="1.0" encoding="iso-8859-1"?>
<!-- Generator: Adobe Illustrator 19.1.0, SVG Export Plug-In . SVG Version: 6.00 Build 0)  -->
<svg version="1.1" id="Capa_1" xmlns="http://www.w3.org/2000/svg" xmlns:xlink="http://www.w3.org/1999/xlink" x="0px" y="0px"
	 viewBox="0 0 218.332 218.332" style="enable-background:new 0 0 218.332 218.332;" xml:space="preserve">
<g>
	<g id="group-45svg">
		<path id="path-1_108_" style="fill:#0CB04A;" d="M24.227,174.191h4.933c0.951,0,1.723,0.826,1.723,1.845
			c0,1.017-0.772,1.843-1.723,1.843h-0.229c-0.951,0-1.722,0.826-1.722,1.845s0.771,1.843,1.722,1.843h10.603
			c0.952,0,1.723,0.827,1.723,1.845c0,1.019-0.771,1.844-1.723,1.844H26.791H12.785c-0.951,0-1.721-0.825-1.721-1.844
			c0-1.018,0.77-1.845,1.721-1.845h2.944c0.95,0,1.721-0.824,1.721-1.843s-0.771-1.845-1.721-1.845H1.722
			c-0.951,0-1.722-0.826-1.722-1.843c0-1.019,0.771-1.845,1.722-1.845h3.311H24.227z"/>
		<path id="path-2_108_" style="fill:#0CB04A;" d="M135.912,155.617h11.662c2.249,0,4.072,1.145,4.072,2.556
			c0,1.411-1.823,2.555-4.072,2.555h-0.543c-2.247,0-4.071,1.144-4.071,2.556s1.824,2.555,4.071,2.555h25.071
			c2.249,0,4.072,1.144,4.072,2.555c0,1.412-1.823,2.557-4.072,2.557h-30.128h-33.115c-2.248,0-4.071-1.145-4.071-2.557
			c0-1.411,1.823-2.555,4.071-2.555h6.958c2.249,0,4.073-1.143,4.073-2.555s-1.824-2.556-4.073-2.556H82.703
			c-2.248,0-4.071-1.144-4.071-2.555c0-1.411,1.823-2.556,4.071-2.556h7.827H135.912z"/>
		<path id="path-3_108_" style="fill:#0CB04A;" d="M212.225,176.26c3.373,0,6.107-1.716,6.107-3.833
			c0-2.117-2.734-3.833-6.107-3.833H193.51c-3.373,0-6.107,1.716-6.107,3.833c0,2.117,2.734,3.833,6.107,3.833H212.225z"/>
		<path id="path-4_107_" style="fill:#FBB713;" d="M164.126,42.489c0-21.487-11.126-38.907-24.857-38.912
			c-13.729,0.005-24.856,17.425-24.856,38.912c0,11.056,2.96,19.624,7.689,25.359h-0.029c0,0,0.067,0.061,0.138,0.125
			c1.339,1.604,2.82,2.974,4.414,4.118c0.714,0.688,1.417,1.384,2.035,2.026c5.334,5.536,5.793,8.159,5.793,8.159
			c4.849,27.984-4.63,86.57-7.596,109.305c-2.962,22.694,12.355,23.171,12.412,23.173c0.058-0.002,15.375-0.479,12.413-23.173
			c-2.966-22.735-12.445-81.321-7.596-109.305c0,0,0.459-2.623,5.793-8.159c0.617-0.642,1.321-1.338,2.035-2.026
			c1.594-1.144,3.075-2.514,4.415-4.118c0.07-0.064,0.137-0.125,0.137-0.125h-0.029C161.166,62.113,164.126,53.545,164.126,42.489z"
			/>
		<path id="path-5_107_" style="fill:#FF3A2F;" d="M84.695,191.581c-2.967-22.735-12.446-81.321-7.596-109.305
			c0,0,1.326-7.651,6.518-7.651c3.373,0,3.743-6.777,3.743-6.777s0.247-62.959-1.703-62.959c-0.471,0-0.778,0-1.017,0
			c0,0-1.669,22.134-1.669,61.429c0,0-0.185,2.186-1.683,2.186c-1.498,0-1.791-2.113-1.791-2.113S78.632,4.874,76.684,4.874
			c-0.416,0-0.673,0-0.851,0c0,0-1.48,20.787-1.482,61.422c0,0.028,0.012,0.049,0.012,0.077c0,1.34-0.913,2.423-2.046,2.449
			l-0.04,0.048l-0.039-0.048c-1.133-0.026-2.047-1.109-2.047-2.449c0-0.028,0.012-0.049,0.012-0.077
			C70.201,25.662,68.72,4.874,68.72,4.874c-0.177,0-0.435,0-0.85,0c-1.948,0-2.813,61.517-2.813,61.517s-0.293,2.113-1.791,2.113
			s-1.684-2.186-1.684-2.186c0-39.295-1.668-61.429-1.668-61.429c-0.24,0-0.547,0-1.017,0c-1.95,0-1.703,62.959-1.703,62.959
			s0.37,6.777,3.743,6.777c5.192,0,6.518,7.651,6.518,7.651c4.849,27.984-4.629,86.57-7.596,109.305
			c-2.967,22.736,12.418,23.173,12.418,23.173S87.662,214.318,84.695,191.581z"/>
		<path id="path-6_106_" style="opacity:0.25;fill:#020403;enable-background:new    ;" d="M72.275,207.376
			c-1.005,0-1.818-0.808-1.818-1.803c0-0.995,0.813-1.803,1.818-1.803c1.209,0,2.154-0.454,2.971-1.43
			c3.007-3.594,5.256-14.865-1.094-48.147l-0.21-1.103c-5.202-27.668-2.331-58.041-0.156-73.683c0.135-0.989,1.08-1.671,2.05-1.54
			c0.995,0.136,1.691,1.046,1.553,2.031c-2.143,15.428-4.979,45.363,0.128,72.532l0.21,1.095
			c5.384,28.216,5.491,44.936,0.319,51.115C76.55,206.43,74.553,207.376,72.275,207.376z"/>
		<path id="path-7_106_" style="opacity:0.25;fill:#020403;enable-background:new    ;" d="M144.381,79.886
			c0,0-0.286,2.008-0.786,5.521c-0.477,3.487-1.07,8.514-1.578,14.554c-1.017,12.071-1.559,28.313,0.3,44.393
			c0.939,8.003,2.704,15.991,3.594,23.583c0.975,7.572,1.524,14.703,1.372,20.821c-0.16,6.078-1.059,11.316-3.222,14.268
			c-1.063,1.466-2.394,2.174-3.333,2.369c-0.942,0.178-1.461,0.178-1.461,0.178s0.521-0.013,1.45-0.217
			c0.929-0.221,2.215-0.955,3.216-2.419c2.042-2.95,2.793-8.15,2.782-14.186c-0.018-6.075-0.762-13.146-1.944-20.654
			c-1.095-7.524-3.071-15.397-4.259-23.513c-2.333-16.196-2.243-32.609-1.559-44.83c0.343-6.12,0.799-11.2,1.186-14.771
			c0.404-3.54,0.634-5.562,0.634-5.562L144.381,79.886z"/>
		<path id="path-8_103_" style="opacity:0.25;fill:#020403;enable-background:new    ;" d="M156.694,39.551
			c0,16.033-7.801,29.035-17.425,29.035c-9.623,0-17.423-13.002-17.423-29.035c0-16.031,7.8-29.032,17.423-29.032
			C148.893,10.519,156.694,23.521,156.694,39.551z"/>
		<path id="path-9_98_" style="fill:#FFFFFF;" d="M142.805,26.261c0,6.184-3.009,11.199-6.72,11.199
			c-3.712,0-6.719-5.015-6.719-11.199c0-6.183,3.007-11.198,6.719-11.198C139.796,15.063,142.805,20.079,142.805,26.261z"/>
		<path id="path-10_90_" style="opacity:0.35;fill:#050606;enable-background:new    ;" d="M154.511,19.902
			c0,0,0.369,1.043,0.874,3.009c0.491,1.942,1.064,4.744,1.352,8.134c0.147,1.694,0.224,3.531,0.197,5.472
			c-0.062,2.01-0.142,3.89-0.417,6.068c-0.519,4.212-1.505,8.633-3.275,12.803c-0.894,2.074-1.93,4.096-3.209,5.935
			c-1.309,1.804-2.719,3.54-4.479,4.809c-1.723,1.292-3.665,2.202-5.636,2.544c-1.972,0.259-3.881,0.043-5.475-0.623
			c-3.201-1.298-5.087-3.526-6.291-5.008c-1.177-1.543-1.71-2.513-1.71-2.513s0.585,0.943,1.831,2.416
			c1.265,1.412,3.262,3.505,6.367,4.577c1.527,0.557,3.315,0.653,5.127,0.329c1.794-0.41,3.53-1.333,5.067-2.608
			c1.568-1.253,2.813-2.963,3.958-4.723c1.119-1.798,2.006-3.771,2.754-5.788c1.482-4.046,2.21-8.361,2.492-12.358
			c0.155-1.934,0.14-4.05,0.102-5.826c-0.069-1.846-0.233-3.584-0.455-5.175c-0.438-3.185-1.108-5.771-1.655-7.541
			c-0.546-1.747-0.963-2.766-0.963-2.766c-0.377-0.925,0.072-1.976,1.005-2.35c0.932-0.374,1.993,0.072,2.37,0.997
			c0.011,0.023,0.021,0.048,0.029,0.075L154.511,19.902z"/>
		<path id="path-11_78_" style="fill:#0CB04A;" d="M162.278,71.746v4.887c0,0.942-0.833,1.707-1.862,1.707
			c-1.028,0-1.861-0.765-1.861-1.707v-0.227c0-0.942-0.834-1.707-1.861-1.707c-1.029,0-1.862,0.765-1.862,1.707v10.505
			c0,0.942-0.834,1.705-1.863,1.705c-1.027,0-1.861-0.763-1.861-1.705V74.286V60.412c0-0.943,0.834-1.707,1.861-1.707
			c1.029,0,1.863,0.764,1.863,1.707v2.915c0,0.942,0.833,1.706,1.862,1.706c1.027,0,1.861-0.764,1.861-1.706V49.451
			c0-0.941,0.833-1.706,1.861-1.706c1.029,0,1.862,0.765,1.862,1.706v3.28V71.746z"/>
	</g>
</g>
<g>
</g>
<g>
</g>
<g>
</g>
<g>
</g>
<g>
</g>
<g>
</g>
<g>
</g>
<g>
</g>
<g>
</g>
<g>
</g>
<g>
</g>
<g>
</g>
<g>
</g>
<g>
</g>
<g>
</g>
</svg>
