<?xml version="1.0" encoding="iso-8859-1"?>
<!-- Generator: Adobe Illustrator 19.1.0, SVG Export Plug-In . SVG Version: 6.00 Build 0)  -->
<svg version="1.1" id="Capa_1" xmlns="http://www.w3.org/2000/svg" xmlns:xlink="http://www.w3.org/1999/xlink" x="0px" y="0px"
	 viewBox="0 0 217.229 217.229" style="enable-background:new 0 0 217.229 217.229;" xml:space="preserve">
<g>
	<g id="group-132svg">
		<path id="path-1_37_" style="fill:#FF3A2F;" d="M63.561,169.118H45.15c-3.551,0-6.428,2.178-6.428,4.866
			c0,2.687,2.877,4.864,6.428,4.864h0.856c3.55,0,6.428,2.177,6.428,4.864c0,2.686-2.878,4.864-6.428,4.864H6.428
			c-3.55,0-6.428,2.179-6.428,4.865c0,2.687,2.878,4.864,6.428,4.864h47.563h97.219c3.549,0,6.427-2.177,6.427-4.864
			c0-2.686-2.878-4.865-6.427-4.865h-10.984c-3.55,0-6.428-2.178-6.428-4.864c0-2.687,2.878-4.864,6.428-4.864h43.141
			c3.55,0,6.428-2.177,6.428-4.864c0-2.688-2.878-4.866-6.428-4.866h-3.22H63.561z"/>
		<path id="path-2_37_" style="fill:#FF3A2F;" d="M177.747,199.609c-2.977,0-5.389-2.334-5.389-5.213
			c0-2.88,2.412-5.214,5.389-5.214h16.513c2.976,0,5.389,2.334,5.389,5.214c0,2.879-2.413,5.213-5.389,5.213H177.747z"/>
		<path id="path-3_37_" style="fill:#FBB713;" d="M216.755,172.717H56.576V53.514h160.179V172.717z"/>
		<path id="path-4_37_" style="opacity:0.25;enable-background:new    ;" d="M216.755,172.717H56.576V53.514h160.179V172.717z"/>
		<path id="path-5_37_" style="fill:#FBB713;" d="M188.248,17.62H85.084L56.102,53.224h161.127L188.248,17.62z"/>
		<path id="path-6_36_" style="fill:#FF3A2F;" d="M216.755,88.548H56.576V53.514h160.179V88.548z"/>
		<path id="path-7_35_" style="opacity:0.35;enable-background:new    ;" d="M216.755,88.548H56.576V53.514h160.179V88.548z"/>
		<path id="path-8_26_" style="fill:#142A3B;" d="M216.755,172.269H56.576v-39.866h160.179V172.269z"/>
		<circle id="circle-1_1_" style="fill:#EDEDED;" cx="86" cy="151.624" r="11"/>
		<circle id="circle-2_1_" style="fill:#EDEDED;" cx="86" cy="111.624" r="11"/>
		<path id="path-9_23_" style="fill:#EDEDED;" d="M85.653,81.916c-5.485,0-9.947-4.462-9.947-9.948c0-5.483,4.462-9.947,9.947-9.947
			s9.947,4.464,9.947,9.947C95.6,77.454,91.138,81.916,85.653,81.916z"/>
		<path id="path-10_21_" style="fill:#EDEDED;" d="M196.733,74.083h-10.617c-2.999,0-5.431-2.429-5.431-5.43
			c0-2.999,2.432-5.431,5.431-5.431h10.617c2.999,0,5.431,2.432,5.431,5.431C202.164,71.654,199.732,74.083,196.733,74.083z"/>
		<path id="path-11_16_" style="fill:#EDEDED;" d="M166.408,74.083h-10.613c-2.999,0-5.431-2.429-5.431-5.43
			c0-2.999,2.432-5.431,5.431-5.431h10.613c2.998,0,5.431,2.432,5.431,5.431C171.839,71.654,169.406,74.083,166.408,74.083z"/>
		<path id="path-12_12_" style="fill:#EDEDED;" d="M196.733,117.188h-10.617c-2.999,0-5.431-2.431-5.431-5.431
			c0-2.999,2.432-5.431,5.431-5.431h10.617c2.999,0,5.431,2.432,5.431,5.431C202.164,114.757,199.732,117.188,196.733,117.188z"/>
		<path id="path-13_10_" style="fill:#EDEDED;" d="M166.408,117.188h-10.613c-2.999,0-5.431-2.431-5.431-5.431
			c0-2.999,2.432-5.431,5.431-5.431h10.613c2.998,0,5.431,2.432,5.431,5.431C171.839,114.757,169.406,117.188,166.408,117.188z"/>
		<path id="path-14_8_" style="fill:#EDEDED;" d="M196.733,155.878h-10.617c-2.999,0-5.431-2.432-5.431-5.431
			c0-2.999,2.432-5.43,5.431-5.43h10.617c2.999,0,5.431,2.431,5.431,5.43C202.164,153.446,199.732,155.878,196.733,155.878z"/>
		<path id="path-15_7_" style="fill:#EDEDED;" d="M166.408,155.878h-10.613c-2.999,0-5.431-2.432-5.431-5.431
			c0-2.999,2.432-5.43,5.431-5.43h10.613c2.998,0,5.431,2.431,5.431,5.43C171.839,153.446,169.406,155.878,166.408,155.878z"/>
	</g>
</g>
<g>
</g>
<g>
</g>
<g>
</g>
<g>
</g>
<g>
</g>
<g>
</g>
<g>
</g>
<g>
</g>
<g>
</g>
<g>
</g>
<g>
</g>
<g>
</g>
<g>
</g>
<g>
</g>
<g>
</g>
</svg>
