<?xml version="1.0" encoding="iso-8859-1"?>
<!-- Generator: Adobe Illustrator 19.1.0, SVG Export Plug-In . SVG Version: 6.00 Build 0)  -->
<svg version="1.1" id="Capa_1" xmlns="http://www.w3.org/2000/svg" xmlns:xlink="http://www.w3.org/1999/xlink" x="0px" y="0px"
	 viewBox="0 0 217.229 217.229" style="enable-background:new 0 0 217.229 217.229;" xml:space="preserve">
<g>
	<g id="group-136svg">
		<path id="path-1_41_" style="fill:#FF3A2F;" d="M66.969,158.39H49.374c-3.393,0-6.143,2.082-6.143,4.649
			c0,2.568,2.75,4.649,6.143,4.649h0.819c3.392,0,6.143,2.082,6.143,4.649c0,2.569-2.751,4.65-6.143,4.65H12.368
			c-3.393,0-6.143,2.082-6.143,4.648c0,2.568,2.75,4.65,6.143,4.65h45.455h92.911c3.393,0,6.143-2.082,6.143-4.65
			c0-2.566-2.75-4.648-6.143-4.648h-10.497c-3.393,0-6.142-2.081-6.142-4.65c0-2.567,2.749-4.649,6.142-4.649h41.23
			c3.393,0,6.143-2.081,6.143-4.649c0-2.567-2.75-4.649-6.143-4.649h-3.077H66.969z"/>
		<path id="path-2_41_" style="fill:#FF3A2F;" d="M176.095,187.53c-2.844,0-5.149-2.231-5.149-4.983
			c0-2.751,2.305-4.982,5.149-4.982h15.782c2.844,0,5.15,2.231,5.15,4.982c0,2.752-2.306,4.983-5.15,4.983H176.095z"/>
		<path id="path-3_41_" style="fill:#0CB04A;" d="M135.182,162.53h81.606c0.179-5.898,0.459-15.086,0.44-16.245
			c-1.887-56.997-48.697-101.68-106.564-101.68h-0.01c-0.01,0-0.01,0-0.01,0c-1.277,0.27-2.664,0.01-3.812-0.739
			c-1.436-0.938-2.305-2.544-2.305-4.271v-9.897H84.091v14.079c0,2.225-1.447,4.201-3.573,4.869
			c-37.989,11.975-77.474,49.083-79.44,96.85c-0.04,1.039-0.67,10.716-1.078,17.034h104.527V68.084c0-2.824,2.285-5.11,5.11-5.11
			c33.817,0,77.115,30.006,85.169,73.073c0.278,1.498-0.121,3.033-1.089,4.201c-0.967,1.167-2.414,1.846-3.932,1.846h-29.057
			c-2.825,0-5.11-2.285-5.11-5.109v-17.981c-6.935-5.537-13.771-10.098-20.436-13.621V162.53z M78.982,142.094H28.908
			c-1.516,0-2.954-0.668-3.921-1.835c-0.968-1.159-1.377-2.695-1.108-4.182c5.977-33.038,32.202-56.627,52.848-66.796
			c1.576-0.798,3.462-0.689,4.95,0.24c1.505,0.939,2.414,2.574,2.414,4.341v63.123C84.091,139.809,81.806,142.094,78.982,142.094z"
			/>
		<path id="path-4_41_" style="opacity:0.35;enable-background:new    ;" d="M100.116,62.975c-2.825,0-5.109,2.285-5.109,5.109
			v94.446h9.52V68.084c0-2.057,1.23-3.803,2.98-4.614C105.009,63.169,102.534,62.975,100.116,62.975z"/>
		<path id="path-5_41_" style="opacity:0.35;enable-background:new    ;" d="M72.156,69.521c-1.487-0.929-3.373-1.038-4.95-0.24
			c-20.646,10.169-46.87,33.757-52.848,66.796c-0.269,1.487,0.14,3.023,1.108,4.182c0.967,1.167,2.405,1.835,3.921,1.835h9.521
			c-1.517,0-2.954-0.668-3.921-1.835c-0.968-1.159-1.377-2.695-1.108-4.182c5.679-31.393,29.63-54.229,49.715-65.152
			C73.207,70.381,72.743,69.887,72.156,69.521z"/>
		<path id="path-6_40_" style="opacity:0.35;enable-background:new    ;" d="M110.664,44.605h-0.01c-0.01,0-0.01,0-0.01,0
			c-1.277,0.27-2.664,0.01-3.812-0.739c-1.436-0.938-2.305-2.544-2.305-4.271v-9.897h-9.52v9.897c0,1.727,0.868,3.333,2.305,4.271
			c1.147,0.749,2.534,1.009,3.811,0.739c0,0,0,0,0.011,0h0.01c57.866,0,104.676,44.683,106.563,101.68
			c0.019,1.159-0.261,10.348-0.44,16.245h9.521c0.179-5.897,0.458-15.086,0.44-16.245C215.341,89.288,168.532,44.605,110.664,44.605
			z"/>
		<path id="path-7_39_" style="opacity:0.35;enable-background:new    ;" d="M151.207,142.094h9.521
			c-2.825,0-5.109-2.285-5.109-5.109v-17.981c-6.936-5.539-13.772-10.098-20.436-13.621v5.678c3.604,2.374,7.244,5.012,10.915,7.943
			v17.981C146.098,139.809,148.383,142.094,151.207,142.094z"/>
	</g>
</g>
<g>
</g>
<g>
</g>
<g>
</g>
<g>
</g>
<g>
</g>
<g>
</g>
<g>
</g>
<g>
</g>
<g>
</g>
<g>
</g>
<g>
</g>
<g>
</g>
<g>
</g>
<g>
</g>
<g>
</g>
</svg>
