<?xml version="1.0" encoding="iso-8859-1"?>
<!-- Generator: Adobe Illustrator 19.1.0, SVG Export Plug-In . SVG Version: 6.00 Build 0)  -->
<svg version="1.1" id="Capa_1" xmlns="http://www.w3.org/2000/svg" xmlns:xlink="http://www.w3.org/1999/xlink" x="0px" y="0px"
	 viewBox="0 0 217.229 217.229" style="enable-background:new 0 0 217.229 217.229;" xml:space="preserve">
<g>
	<g id="group-43svg">
		<path id="path-1_98_" style="fill:#FF3A2F;" d="M152.202,195.962h14.458c2.786,0,5.047-1.312,5.047-2.93
			c0-1.619-2.261-2.93-5.047-2.93h-0.673c-2.788,0-5.048-1.312-5.048-2.93c0-1.619,2.26-2.93,5.048-2.93h31.078
			c2.788,0,5.048-1.312,5.048-2.931c0-1.618-2.26-2.93-5.048-2.93h-37.348H83.376c-2.787,0-5.047,1.312-5.047,2.93
			c0,1.619,2.26,2.931,5.047,2.931h8.625c2.788,0,5.048,1.311,5.048,2.93c0,1.618-2.26,2.93-5.048,2.93h-41.05
			c-2.787,0-5.047,1.311-5.047,2.93c0,1.618,2.26,2.93,5.047,2.93h9.703H152.202z"/>
		<path id="path-2_98_" style="fill:#FF3A2F;" d="M56.18,167.57h7.641c1.474,0,2.668-1.045,2.668-2.334s-1.194-2.334-2.668-2.334
			h-0.355c-1.474,0-2.668-1.046-2.668-2.334c0-1.289,1.194-2.334,2.668-2.334h16.425c1.474,0,2.668-1.046,2.668-2.335
			s-1.194-2.334-2.668-2.334H60.152H19.804c-1.472,0-2.667,1.045-2.667,2.334s1.195,2.335,2.667,2.335h4.559
			c1.473,0,2.668,1.045,2.668,2.334c0,1.288-1.195,2.334-2.668,2.334H2.667c-1.473,0-2.667,1.045-2.667,2.334
			s1.194,2.334,2.667,2.334h5.128H56.18z"/>
		<path id="path-3_98_" style="fill:#FF3A2F;" d="M57.509,178.178c3.139,0,5.684,1.446,5.684,3.23c0,1.783-2.545,3.229-5.684,3.229
			H40.092c-3.14,0-5.684-1.446-5.684-3.229c0-1.784,2.544-3.23,5.684-3.23H57.509z"/>
		<path id="path-4_98_" style="fill:#FBB713;" d="M73.101,21.267l9.493,34.578l-56.909-3.918c-0.165,0-0.3-0.417-0.464-0.406
			L73.101,21.267z"/>
		<path id="path-5_97_" style="fill:#FBB713;" d="M217.229,52.737H160.19l9.279-31.47L217.229,52.737z"/>
		<path id="path-6_94_" style="fill:#FBB713;" d="M159.977,55.845H82.594l-9.493-34.578h96.368L159.977,55.845z"/>
		<path id="path-7_92_" style="opacity:0.2;enable-background:new    ;" d="M159.977,55.845H82.594l-9.493-34.578h96.368
			L159.977,55.845z"/>
		<path id="path-8_71_" style="fill:#FBB713;" d="M160.19,52.737L121.991,182.59L82.726,51.927L160.19,52.737z"/>
		<path id="path-9_62_" style="fill:#FBB713;" d="M82.726,51.927l39.265,130.663L25.685,51.927H82.726z"/>
		<path id="path-10_56_" style="opacity:0.35;enable-background:new    ;" d="M82.726,51.927l39.265,130.663L25.685,51.927H82.726z"
			/>
		<path id="path-11_47_" style="fill:#FBB713;" d="M160.19,52.737h57.039L121.991,182.59L160.19,52.737z"/>
		<path id="path-12_41_" style="opacity:0.1;enable-background:new    ;" d="M160.19,52.737h57.039L121.991,182.59L160.19,52.737z"
			/>
	</g>
</g>
<g>
</g>
<g>
</g>
<g>
</g>
<g>
</g>
<g>
</g>
<g>
</g>
<g>
</g>
<g>
</g>
<g>
</g>
<g>
</g>
<g>
</g>
<g>
</g>
<g>
</g>
<g>
</g>
<g>
</g>
</svg>
