<?xml version="1.0" encoding="iso-8859-1"?>
<!-- Generator: Adobe Illustrator 19.1.0, SVG Export Plug-In . SVG Version: 6.00 Build 0)  -->
<svg version="1.1" id="Capa_1" xmlns="http://www.w3.org/2000/svg" xmlns:xlink="http://www.w3.org/1999/xlink" x="0px" y="0px"
	 viewBox="0 0 183.589 183.589" style="enable-background:new 0 0 183.589 183.589;" xml:space="preserve">
<g>
	<g id="group-134svg">
		<path id="path-1_39_" style="fill:#2476FF;" d="M121.889,183.589h15.278c2.946,0,5.334-1.808,5.334-4.036
			c0-2.23-2.388-4.038-5.334-4.038h-0.711c-2.946,0-5.334-1.807-5.334-4.037c0-2.229,2.388-4.037,5.334-4.037h32.845
			c2.945,0,5.334-1.808,5.334-4.037c0-2.23-2.389-4.037-5.334-4.037H129.83H49.151c-2.945,0-5.333,1.807-5.333,4.037
			c0,2.229,2.388,4.037,5.333,4.037h9.116c2.946,0,5.334,1.808,5.334,4.037c0,2.23-2.388,4.037-5.334,4.037H22.466
			c-2.946,0-5.334,1.808-5.334,4.038c0,2.228,2.388,4.036,5.334,4.036h2.672H121.889z"/>
		<path id="path-2_39_" style="fill:#2476FF;" d="M27.13,158.286c2.47,0,4.471,1.936,4.471,4.326s-2.001,4.326-4.471,4.326H13.426
			c-2.47,0-4.472-1.936-4.472-4.326s2.002-4.326,4.472-4.326H27.13z"/>
		<path id="path-3_39_" style="fill:#EDEDED;" d="M105.753,159.58c-0.008,0-0.008,0-0.008,0c-4.823,0-8.999-2.346-11.453-6.432
			c-0.36-0.602-0.548-1.286-0.548-1.986v-20.684C86.256,108.89,79.079,94.82,64.895,86.882c-1.219-0.683-1.972-1.971-1.972-3.364
			V20.745c0-6.946,10.76-13.041,17.261-13.041h71.106c3.485,0,6.886,1.791,9.835,5.17c3.845,4.402,6.268,10.722,6.351,16.177
			c5.786,4.243,8.472,11.678,7.998,22.143c6.035,6.344,5.877,15.711,3.77,21.573c2.588,3.702,3.062,10.089,3.062,14.296
			c0,12.016-16.575,20.804-23.626,20.804h-32.454c5.613,24.093-0.579,37.192-4.981,43.017
			C117.062,156.406,111.418,159.58,105.753,159.58z"/>
		<path id="path-4_39_" style="opacity:0.35;enable-background:new    ;" d="M166.717,23.772c-1-3.937-2.948-7.872-5.592-10.898
			c-0.37-0.423-0.766-0.747-1.149-1.12c0.141,0.952,0.244,1.898,0.259,2.815C163.243,16.775,165.393,19.863,166.717,23.772z"/>
		<path id="path-5_39_" style="opacity:0.35;enable-background:new    ;" d="M62.923,75.898v7.62c0,1.393,0.753,2.681,1.972,3.364
			c7.045,3.945,12.358,9.407,16.843,16.546C76.691,91.282,71.108,82.198,62.923,75.898z"/>
		<path id="path-6_38_" style="opacity:0.35;enable-background:new    ;" d="M179.244,72.767c2.107-5.862,2.265-15.229-3.77-21.573
			c0.458-10.126-2.069-17.385-7.472-21.691c0.269,2.218,0.349,4.619,0.231,7.21c6.035,6.343,5.877,15.71,3.77,21.574
			c2.588,3.7,3.062,10.088,3.062,14.293c0,12.017-16.576,20.805-23.627,20.805h-32.453c5.614,24.094-0.579,37.192-4.981,43.016
			c-4.183,5.524-9.827,8.699-15.493,8.699c-0.007,0-0.007,0-0.007,0c-1.683,0-3.28-0.302-4.76-0.848v6.91
			c0,0.7,0.188,1.384,0.548,1.986c2.454,4.086,6.63,6.432,11.453,6.432c0,0,0,0,0.008,0c5.665,0,11.309-3.173,15.492-8.696
			c4.402-5.825,10.594-18.924,4.981-43.017h32.453c7.051,0,23.628-8.788,23.628-20.804
			C182.307,82.856,181.832,76.469,179.244,72.767z"/>
		<path id="path-7_37_" style="fill:#2476FF;" d="M57.114,107.867H14.797c-7.45,0-13.515-6.057-13.515-13.506V13.506
			C1.282,6.057,7.347,0,14.797,0h42.317c7.449,0,13.514,6.057,13.514,13.506v80.855C70.628,101.81,64.563,107.867,57.114,107.867z"
			/>
		<path id="path-8_28_" style="opacity:0.35;enable-background:new    ;" d="M62.336,1.053c0.674,1.605,1.052,3.364,1.052,5.212
			v80.856c0,7.449-6.065,13.505-13.515,13.505H7.555c-1.85,0-3.613-0.376-5.221-1.052c2.046,4.866,6.861,8.293,12.463,8.293h42.317
			c7.449,0,13.514-6.057,13.514-13.506V13.506C70.628,7.906,67.201,3.099,62.336,1.053z"/>
	</g>
</g>
<g>
</g>
<g>
</g>
<g>
</g>
<g>
</g>
<g>
</g>
<g>
</g>
<g>
</g>
<g>
</g>
<g>
</g>
<g>
</g>
<g>
</g>
<g>
</g>
<g>
</g>
<g>
</g>
<g>
</g>
</svg>
