<?xml version="1.0" encoding="iso-8859-1"?>
<!-- Generator: Adobe Illustrator 19.1.0, SVG Export Plug-In . SVG Version: 6.00 Build 0)  -->
<svg version="1.1" id="Capa_1" xmlns="http://www.w3.org/2000/svg" xmlns:xlink="http://www.w3.org/1999/xlink" x="0px" y="0px"
	 viewBox="0 0 218.333 218.333" style="enable-background:new 0 0 218.333 218.333;" xml:space="preserve">
<g>
	<g id="group-70svg">
		<path id="path-1_136_" style="fill:#020403;" d="M34.982,155.043c-5.252,0.117-17.511,5.328-26.634,11.283
			c-0.367,1.392-0.68,2.774-0.887,4.119c-0.242,1.565,0.483,3.12,1.839,3.954c1.356,0.842,3.082,0.787,4.392-0.119
			c9.226-6.386,22.694-12.212,28.256-12.336c3.97,1.355,6.58,2.621,9.25,4.738C44.795,159.555,42.02,157.444,34.982,155.043z"/>
		<path id="path-2_136_" style="fill:#142A3B;" d="M137.276,146.508h15.113c2.914,0,5.277,1.483,5.277,3.312
			c0,1.829-2.363,3.312-5.277,3.312h-0.703c-2.914,0-5.276,1.483-5.276,3.311c0,1.83,2.362,3.313,5.276,3.313h32.49
			c2.914,0,5.276,1.481,5.276,3.311c0,1.829-2.362,3.312-5.276,3.312h-39.044h-42.915c-2.915,0-5.276-1.483-5.276-3.312
			c0-1.83,2.361-3.311,5.276-3.311h9.017c2.914,0,5.276-1.483,5.276-3.313c0-1.828-2.362-3.311-5.276-3.311H68.319
			c-2.913,0-5.277-1.483-5.277-3.312c0-1.829,2.364-3.312,5.277-3.312h10.143H137.276z"/>
		<path id="path-3_136_" style="fill:#142A3B;" d="M23.9,91.124h4.866c0.939,0,1.698,0.815,1.698,1.821
			c0,1.004-0.759,1.819-1.698,1.819H28.54c-0.939,0-1.698,0.814-1.698,1.817c0,1.006,0.759,1.82,1.698,1.82H39
			c0.939,0,1.699,0.815,1.699,1.82c0,1.004-0.76,1.819-1.699,1.819H26.429H12.613c-0.939,0-1.699-0.815-1.699-1.819
			c0-1.005,0.76-1.82,1.699-1.82h2.903c0.938,0,1.699-0.814,1.699-1.82c0-1.003-0.761-1.817-1.699-1.817H1.699
			C0.761,94.764,0,93.949,0,92.945c0-1.006,0.761-1.821,1.699-1.821h3.265H23.9z"/>
		<path id="path-4_135_" style="fill:#142A3B;" d="M201.534,123.156h4.865c0.939,0,1.7,0.814,1.7,1.818c0,1.006-0.761,1.82-1.7,1.82
			h-0.226c-0.937,0-1.699,0.814-1.699,1.819c0,1.005,0.762,1.82,1.699,1.82h10.462c0.938,0,1.698,0.814,1.698,1.819
			c0,1.004-0.76,1.819-1.698,1.819h-12.572h-13.817c-0.937,0-1.699-0.815-1.699-1.819c0-1.005,0.762-1.819,1.699-1.819h2.903
			c0.939,0,1.7-0.815,1.7-1.82c0-1.005-0.761-1.819-1.7-1.819h-13.817c-0.937,0-1.698-0.814-1.698-1.82
			c0-1.004,0.761-1.818,1.698-1.818h3.266H201.534z"/>
		<path id="path-5_135_" style="fill:#2476FF;" d="M65.234,179.534c-1.135,0-2.24-0.479-3.017-1.362
			c-9.583-10.958-11.901-13.374-20.269-16.228c-5.562,0.124-19.03,5.95-28.256,12.336c-1.31,0.907-3.036,0.961-4.392,0.119
			c-1.356-0.834-2.081-2.389-1.839-3.954c2.206-14.354,13.559-32.029,33.368-37.835c19.534-37.088,47.056-61.134,60.619-71.484
			c-6.123-8.823-17.024-10.837-23.338-11.228c-1.925-0.123-3.487-1.59-3.714-3.485c-0.225-1.896,0.952-3.683,2.792-4.244
			c13.289-4.034,30.416-1.787,45.173,5.552c2.377-1.196,4.544-2.161,6.461-2.873c11.018-4.122,19.436-6.049,26.483-6.049
			c11.808,0,20.25,5.54,26.411,17.384c10.469,1.047,15.749,3.596,17.016,8.148c1.103,3.979-1.652,7.586-4.599,9.641
			c-0.764,0.524-1.707,0.771-2.607,0.697c-11.416-0.91-23.536,0.912-36.752,5.291c0.791,13.875-4.446,36.747-7.611,41.454
			c-0.979,1.44-2.798,2.088-4.479,1.582c-1.683-0.505-2.832-2.043-2.832-3.784c0-5.563-3.251-11.196-9.401-16.288
			c-3.008-2.49-4.988-5.847-5.74-9.32c-28.042,15.826-51.27,36.971-61.706,47.167c2.595,9.437,5.916,24.759,6.2,33.636
			c0.117,0.37,0.179,0.764,0.179,1.174c0,2.208-1.797,3.787-4.064,3.953C65.289,179.534,65.261,179.534,65.234,179.534z"/>
		<path id="path-6_133_" style="fill:#FFFFFF;" d="M136.647,51.405c-0.735,0-1.429-0.444-1.702-1.165
			c-0.356-0.931,0.121-1.972,1.058-2.324c10.398-3.891,18.369-5.703,25.097-5.703c1.005,0,1.819,0.808,1.819,1.804
			c0,0.994-0.814,1.801-1.819,1.801c-6.273,0-13.839,1.739-23.81,5.471C137.077,51.367,136.861,51.405,136.647,51.405z"/>
		<path id="path-7_133_" style="opacity:0.35;fill:#020403;enable-background:new    ;" d="M174.75,49.282
			c0.982,0.099,1.871,0.224,2.762,0.348c-1.979-2.551-4.136-4.669-6.521-6.3C172.32,45.119,173.591,47.053,174.75,49.282z"/>
		<path id="path-8_130_" style="opacity:0.35;fill:#020403;enable-background:new    ;" d="M75.31,43.477
			c-0.666,0.808-1.043,1.838-0.914,2.936c0.227,1.895,1.789,3.362,3.714,3.485c4.231,0.261,10.502,1.308,16.034,4.589
			c0.108-0.084,0.232-0.181,0.337-0.263C89.549,47.118,81.548,44.459,75.31,43.477z"/>
		<path id="path-9_124_" style="opacity:0.35;fill:#020403;enable-background:new    ;" d="M63.005,140.771
			c10.145-9.913,32.395-30.159,59.388-45.818c-2.37-2.348-3.996-5.237-4.649-8.249c-28.041,15.824-51.269,36.969-61.705,47.167
			c2.596,9.436,5.916,24.758,6.201,33.635c0.116,0.371,0.179,0.765,0.179,1.174c0,2.208-1.797,3.787-4.066,3.953
			c-0.03,0-0.058,0-0.085,0c-0.414,0-0.805-0.131-1.197-0.255c1.485,1.622,3.153,3.514,5.146,5.794
			c0.777,0.883,1.882,1.362,3.017,1.362c0.027,0,0.055,0,0.086,0c2.267-0.166,4.064-1.745,4.064-3.953
			c0-0.41-0.061-0.804-0.179-1.174C68.921,165.53,65.6,150.208,63.005,140.771z"/>
		<path id="path-10_114_" style="opacity:0.35;fill:#020403;enable-background:new    ;" d="M198.732,64.33
			c-0.756-2.714-2.978-4.702-6.835-6.097c0.553,3.657-1.985,6.923-4.731,8.838c-0.763,0.524-1.706,0.77-2.607,0.698
			c-11.415-0.912-23.535,0.91-36.751,5.29c0.791,13.875-4.446,36.747-7.612,41.454c-0.24,0.355-0.535,0.659-0.864,0.913
			c0.33,1.261,0.52,2.526,0.52,3.786c0,1.741,1.149,3.28,2.832,3.784c1.681,0.506,3.5-0.142,4.479-1.582
			c3.166-4.707,8.402-27.579,7.611-41.454c13.216-4.379,25.336-6.201,36.752-5.291c0.9,0.073,1.843-0.173,2.607-0.697
			C197.08,71.917,199.835,68.31,198.732,64.33z"/>
		<path id="path-11_100_" style="fill:#FFFFFF;" d="M54.68,119.987c-0.323,0-0.65-0.085-0.949-0.264
			c-0.857-0.518-1.126-1.628-0.604-2.477c1.052-1.714,26.026-41.99,44.505-45.404c0.97-0.181,1.937,0.461,2.121,1.442
			c0.185,0.978-0.465,1.92-1.453,2.102c-16.893,3.12-41.819,43.33-42.068,43.736C55.891,119.679,55.291,119.987,54.68,119.987z"/>
	</g>
</g>
<g>
</g>
<g>
</g>
<g>
</g>
<g>
</g>
<g>
</g>
<g>
</g>
<g>
</g>
<g>
</g>
<g>
</g>
<g>
</g>
<g>
</g>
<g>
</g>
<g>
</g>
<g>
</g>
<g>
</g>
</svg>
