<?xml version="1.0" encoding="iso-8859-1"?>
<!-- Generator: Adobe Illustrator 19.1.0, SVG Export Plug-In . SVG Version: 6.00 Build 0)  -->
<svg version="1.1" id="Capa_1" xmlns="http://www.w3.org/2000/svg" xmlns:xlink="http://www.w3.org/1999/xlink" x="0px" y="0px"
	 viewBox="0 0 218.333 218.333" style="enable-background:new 0 0 218.333 218.333;" xml:space="preserve">
<g>
	<g id="group-157svg">
		<path id="path-1_64_" style="fill:#FF3A2F;" d="M94.415,12.237c-44.976,0-81.436,36.118-81.436,80.674
			c0,44.555,36.46,80.674,81.436,80.674c5.548,0,10.967-0.55,16.204-1.598c0.121-10.556,8.699-19.086,19.339-19.266
			c-0.005-0.189-0.028-0.373-0.028-0.564c0-10.773,8.815-19.506,19.691-19.506c0.346,0,0.684,0.034,1.025,0.052
			c-0.307-1.367-0.474-2.786-0.474-4.243c0-10.774,8.816-19.509,19.69-19.509c1.471,0,2.9,0.173,4.279,0.475
			c1.119-5.33,1.71-10.854,1.71-16.515C175.851,48.355,139.391,12.237,94.415,12.237z M94.415,116.444
			c-13.12,0-23.756-10.536-23.756-23.533c0-12.998,10.636-23.533,23.756-23.533s23.756,10.535,23.756,23.533
			C118.171,105.908,107.535,116.444,94.415,116.444z"/>
		<path id="path-2_64_" style="fill:#FBB713;" d="M53.13,110.645h7.652c1.475,0,2.671,1.48,2.671,3.307
			c0,1.826-1.196,3.307-2.671,3.307h-0.356c-1.475,0-2.672,1.479-2.672,3.305c0,1.826,1.197,3.306,2.672,3.306h16.448
			c1.476,0,2.672,1.481,2.672,3.306c0,1.826-1.196,3.307-2.672,3.307H57.107H35.381c-1.475,0-2.671-1.481-2.671-3.307
			c0-1.825,1.196-3.306,2.671-3.306h4.566c1.475,0,2.671-1.48,2.671-3.306c0-1.826-1.196-3.305-2.671-3.305H18.22
			c-1.475,0-2.671-1.481-2.671-3.307c0-1.827,1.196-3.307,2.671-3.307h5.135H53.13z"/>
		<path id="path-3_64_" style="fill:#FBB713;" d="M70.942,37.499h7.652c1.475,0,2.671,1.481,2.671,3.307s-1.196,3.306-2.671,3.306
			h-0.356c-1.476,0-2.672,1.479-2.672,3.306c0,1.826,1.196,3.306,2.672,3.306h16.448c1.476,0,2.672,1.479,2.672,3.306
			c0,1.825-1.196,3.306-2.672,3.306H74.919H53.193c-1.475,0-2.671-1.481-2.671-3.306c0-1.827,1.196-3.306,2.671-3.306h4.565
			c1.475,0,2.671-1.48,2.671-3.306c0-1.827-1.196-3.306-2.671-3.306H36.032c-1.476,0-2.671-1.48-2.671-3.306
			s1.195-3.307,2.671-3.307h5.135H70.942z"/>
		<path id="path-4_64_" style="fill:#FBB713;" d="M148.473,74.075h7.652c1.475,0,2.671,1.479,2.671,3.305s-1.196,3.306-2.671,3.306
			h-0.356c-1.476,0-2.671,1.481-2.671,3.307c0,1.825,1.195,3.305,2.671,3.305h16.449c1.475,0,2.671,1.481,2.671,3.306
			c0,1.827-1.196,3.307-2.671,3.307H152.45h-21.726c-1.475,0-2.671-1.48-2.671-3.307c0-1.825,1.196-3.306,2.671-3.306h4.565
			c1.476,0,2.671-1.48,2.671-3.305c0-1.826-1.195-3.307-2.671-3.307h-21.726c-1.475,0-2.671-1.48-2.671-3.306
			s1.196-3.305,2.671-3.305h5.136H148.473z"/>
		<path id="path-5_64_" style="fill:#FBB713;" d="M48.881,186.26h9.952c1.919,0,3.474,1.481,3.474,3.306
			c0,1.826-1.555,3.306-3.474,3.306H58.37c-1.919,0-3.475,1.48-3.475,3.306c0,1.825,1.556,3.306,3.475,3.306h21.394
			c1.918,0,3.474,1.48,3.474,3.307c0,1.826-1.556,3.305-3.474,3.305h-25.71H25.795c-1.919,0-3.474-1.479-3.474-3.305
			c0-1.827,1.555-3.307,3.474-3.307h5.938c1.918,0,3.474-1.481,3.474-3.306c0-1.826-1.556-3.306-3.474-3.306H3.474
			c-1.918,0-3.474-1.48-3.474-3.306c0-1.825,1.556-3.306,3.474-3.306h6.679H48.881z"/>
		<path id="path-6_63_" style="fill:#FF3A2F;" d="M187.73,185.155c0,6.493-5.314,11.757-11.869,11.757
			c-6.554,0-11.867-5.264-11.867-11.757c0-6.494,5.313-11.758,11.867-11.758C182.416,173.397,187.73,178.661,187.73,185.155z"/>
		<path id="path-7_63_" style="fill:#FBB713;" d="M117.109,200.881c0,2.597-2.125,4.703-4.747,4.703
			c-2.621,0-4.747-2.106-4.747-4.703s2.126-4.704,4.747-4.704C114.984,196.177,117.109,198.284,117.109,200.881z"/>
		<path id="path-8_62_" style="fill:#FF3A2F;" d="M218.333,156.848c0,4.605-3.769,8.338-8.418,8.338
			c-4.649,0-8.418-3.733-8.418-8.338c0-4.606,3.769-8.34,8.418-8.34C214.564,148.508,218.333,152.242,218.333,156.848z"/>
		<path id="path-9_59_" style="fill:#A72720;" d="M93.697,55.117c-21.07,0-38.15,16.922-38.15,37.794s17.08,37.794,38.15,37.794
			s38.15-16.922,38.15-37.794S114.767,55.117,93.697,55.117z M93.697,116.555c-13.182,0-23.867-10.586-23.867-23.644
			c0-13.059,10.685-23.644,23.867-23.644s23.868,10.585,23.868,23.644C117.565,105.969,106.879,116.555,93.697,116.555z"/>
		<path id="path-10_54_" style="opacity:0.25;enable-background:new    ;" d="M93.697,12.626c-16.606,0-32.04,4.955-44.892,13.444
			C27.187,40.575,12.979,65.098,12.979,92.911s14.208,52.337,35.826,66.842c12.852,8.488,28.286,13.444,44.892,13.444
			c5.828,0,11.507-0.622,16.985-1.78c0.145-3.507,1.218-6.76,2.991-9.549c-6.353,1.802-13.039,2.826-19.976,2.826
			c-40.019,0-72.461-32.138-72.461-71.783c0-39.646,32.442-71.784,72.461-71.784s72.461,32.138,72.461,71.784
			c0,5.873-0.79,11.549-2.133,17.012c1.856-0.575,3.791-0.972,5.837-0.972c1.093,0,2.154,0.122,3.196,0.294
			c1.102-5.273,1.683-10.736,1.683-16.334C174.741,48.57,138.456,12.626,93.697,12.626z"/>
		<path id="path-11_46_" style="fill:#FFFFFF;" d="M32.205,96.515c-2.009,0-3.639-1.614-3.639-3.604
			c0-13.638,4.242-26.672,12.266-37.693c1.176-1.615,3.452-1.977,5.079-0.815c1.63,1.163,1.999,3.416,0.823,5.032
			c-7.124,9.787-10.89,21.363-10.89,33.476C35.844,94.901,34.215,96.515,32.205,96.515z"/>
	</g>
</g>
<g>
</g>
<g>
</g>
<g>
</g>
<g>
</g>
<g>
</g>
<g>
</g>
<g>
</g>
<g>
</g>
<g>
</g>
<g>
</g>
<g>
</g>
<g>
</g>
<g>
</g>
<g>
</g>
<g>
</g>
</svg>
