<?xml version="1.0" encoding="iso-8859-1"?>
<!-- Generator: Adobe Illustrator 19.1.0, SVG Export Plug-In . SVG Version: 6.00 Build 0)  -->
<svg version="1.1" id="Capa_1" xmlns="http://www.w3.org/2000/svg" xmlns:xlink="http://www.w3.org/1999/xlink" x="0px" y="0px"
	 viewBox="0 0 217.221 217.221" style="enable-background:new 0 0 217.221 217.221;" xml:space="preserve">
<g>
	<g id="group-62svg">
		<path id="path-1_119_" style="fill:#2476FF;" d="M125.162,212.546h10.296c1.984,0,3.593-1.899,3.593-4.243
			c0-2.342-1.609-4.242-3.593-4.242h-0.48c-1.984,0-3.594-1.899-3.594-4.243c0-2.343,1.61-4.242,3.594-4.242h22.132
			c1.985,0,3.594-1.9,3.594-4.244c0-2.342-1.609-4.242-3.594-4.242h-26.597H76.15c-1.986,0-3.595,1.9-3.595,4.242
			c0,2.344,1.609,4.244,3.595,4.244h6.142c1.985,0,3.594,1.899,3.594,4.242c0,2.344-1.609,4.243-3.594,4.243H53.059
			c-1.985,0-3.594,1.9-3.594,4.242c0,2.344,1.609,4.243,3.594,4.243h6.909H125.162z"/>
		<path id="path-2_119_" style="fill:#2476FF;" d="M72.342,144.422h5.441c1.049,0,1.9-0.933,1.9-2.083
			c0-1.151-0.851-2.083-1.9-2.083H77.53c-1.049,0-1.9-0.932-1.9-2.083c0-1.15,0.851-2.083,1.9-2.083h11.697
			c1.049,0,1.899-0.933,1.899-2.083c0-1.151-0.85-2.083-1.899-2.083H75.17H46.438c-1.049,0-1.9,0.932-1.9,2.083
			c0,1.15,0.851,2.083,1.9,2.083h3.246c1.049,0,1.899,0.933,1.899,2.083c0,1.151-0.85,2.083-1.899,2.083h-15.45
			c-1.049,0-1.899,0.932-1.899,2.083c0,1.15,0.85,2.083,1.899,2.083h3.652H72.342z"/>
		<path id="path-3_119_" style="fill:#2476FF;" d="M174.056,207.871c2.236,0,4.048,2.092,4.048,4.675
			c0,2.582-1.812,4.675-4.048,4.675h-12.403c-2.235,0-4.047-2.093-4.047-4.675c0-2.583,1.812-4.675,4.047-4.675H174.056z"/>
		<path id="path-4_119_" style="fill:#142A3B;" d="M115.544,204.435h-13.507c-1.338,0-2.424-1.084-2.424-2.423V61.868
			c0-1.339,1.086-2.425,2.424-2.425h13.507c1.338,0,2.424,1.086,2.424,2.425v140.144
			C117.968,203.351,116.882,204.435,115.544,204.435z"/>
		<path id="path-5_118_" style="opacity:0.35;enable-background:new    ;" d="M113.074,60.551c0.684,1.284,1.107,2.728,1.107,4.283
			v126.64c0,5.067-4.108,9.176-9.177,9.176c-1.556,0-2.999-0.424-4.283-1.107c1.542,2.897,4.558,4.892,8.069,4.892
			c5.069,0,9.178-4.108,9.178-9.176V68.619C117.968,65.108,115.972,62.093,113.074,60.551z"/>
		<path id="path-6_115_" style="fill:#0CB04A;" d="M129,80.091H88.581c-1.611,0-2.917-1.306-2.917-2.916V58.231
			c0-1.612,1.306-2.918,2.917-2.918H129c1.611,0,2.916,1.306,2.916,2.918v18.944C131.916,78.785,130.611,80.091,129,80.091z"/>
		<path id="path-7_112_" style="opacity:0.35;enable-background:new    ;" d="M121.628,55.389c1.67,1.936,2.717,4.424,2.717,7.182
			v2.693c0,6.097-4.944,11.041-11.043,11.041H89.135c-0.259,0-0.5-0.058-0.754-0.076c2.025,2.346,4.984,3.862,8.326,3.862h24.167
			c6.098,0,11.042-4.944,11.042-11.043v-2.691C131.916,60.515,127.368,55.784,121.628,55.389z"/>
		<path id="path-8_89_" style="fill:#0CB04A;" d="M131.569,59.443H86.011c-1.61,0-2.916-1.306-2.916-2.917V34.83
			c0-1.611,1.306-2.917,2.916-2.917h45.558c1.611,0,2.917,1.306,2.917,2.917v21.696C134.486,58.137,133.18,59.443,131.569,59.443z"
			/>
		<path id="path-9_77_" style="opacity:0.35;enable-background:new    ;" d="M124.197,31.989c1.671,1.935,2.717,4.425,2.717,7.181
			v5.446c0,6.098-4.944,11.041-11.042,11.041H86.565c-0.258,0-0.5-0.058-0.754-0.076c2.025,2.346,4.984,3.862,8.326,3.862h29.307
			c6.098,0,11.042-4.943,11.042-11.042v-5.445C134.486,37.115,129.937,32.383,124.197,31.989z"/>
		<path id="path-10_71_" style="fill:#0CB04A;" d="M120.555,33.749h-23.53c-1.071,0-1.939-0.868-1.939-1.94V21.005
			c0-1.071,0.869-1.939,1.939-1.939h23.531c1.07,0,1.938,0.868,1.938,1.939v10.804C122.494,32.881,121.626,33.749,120.555,33.749z"
			/>
		<path id="path-11_60_" style="opacity:0.35;enable-background:new    ;" d="M115.153,19.066h-1.186
			c0.591,1.058,0.956,2.258,0.956,3.556c0,4.053-3.287,7.34-7.341,7.34h-11.54c1.255,2.249,3.628,3.787,6.386,3.787h12.725
			c4.055,0,7.341-3.287,7.341-7.342C122.494,22.353,119.208,19.066,115.153,19.066z"/>
		<path id="path-12_52_" style="fill:#FBB713;" d="M203.586,106.347c-0.99,5.357-22.286,5.912-47.567,1.239
			c-25.281-4.672-44.971-12.803-43.981-18.161c0.991-5.357,22.287-5.912,47.567-1.24
			C184.885,92.858,204.576,100.989,203.586,106.347z"/>
		<path id="path-13_41_" style="opacity:0.35;enable-background:new    ;" d="M113.227,87.74c4.636,4.36,22.335,7.607,43.513,7.607
			c9.357,0,18.036-0.635,25.217-1.717c-6.52-2.037-14.13-3.925-22.352-5.445C137.298,84.062,118.116,84.015,113.227,87.74z"/>
		<path id="path-14_34_" style="fill:#FBB713;" d="M13.636,106.347c0.99,5.357,22.286,5.912,47.567,1.239
			c25.28-4.672,44.971-12.803,43.981-18.161c-0.991-5.357-22.287-5.912-47.567-1.24C32.336,92.858,12.645,100.989,13.636,106.347z"
			/>
		<path id="path-15_29_" style="opacity:0.35;enable-background:new    ;" d="M35.265,93.63c7.181,1.082,15.859,1.717,25.216,1.717
			c21.179,0,38.877-3.247,43.514-7.605c-4.889-3.727-24.071-3.68-46.378,0.443C49.395,89.705,41.785,91.593,35.265,93.63z"/>
		<path id="path-16_22_" style="fill:#FBB713;" d="M15.743,81.697c0,5.448,20.03,9.865,44.738,9.865s44.738-4.417,44.738-9.865
			s-20.03-9.865-44.738-9.865S15.743,76.249,15.743,81.697z"/>
		<path id="path-17_19_" style="fill:#FBB713;" d="M201.478,81.697c0,5.448-20.029,9.865-44.738,9.865
			c-24.708,0-44.738-4.417-44.738-9.865s20.03-9.865,44.738-9.865C181.449,71.832,201.478,76.249,201.478,81.697z"/>
		<path id="path-18_13_" style="opacity:0.35;fill:#FBFBFB;enable-background:new    ;" d="M15.743,81.697
			c0,5.448,20.03,9.865,44.738,9.865s44.738-4.417,44.738-9.865s-20.03-9.865-44.738-9.865S15.743,76.249,15.743,81.697z"/>
		<path id="path-19_11_" style="opacity:0.35;fill:#FBFBFB;enable-background:new    ;" d="M201.478,81.697
			c0,5.448-20.029,9.865-44.738,9.865c-24.708,0-44.738-4.417-44.738-9.865s20.03-9.865,44.738-9.865
			C181.449,71.832,201.478,76.249,201.478,81.697z"/>
		<path id="path-20_9_" style="fill:#142A3B;" d="M127.375,13.675c0,7.553-4.827,13.674-10.782,13.674s-10.783-6.121-10.783-13.674
			S110.638,0,116.593,0S127.375,6.122,127.375,13.675z"/>
		<path id="path-21_7_" style="fill:#142A3B;" d="M109.937,13.675c0,7.553-4.827,13.674-10.782,13.674
			c-5.955,0-10.782-6.121-10.782-13.674S93.2,0,99.155,0C105.11,0,109.937,6.122,109.937,13.675z"/>
		<path id="path-22_7_" style="opacity:0.35;enable-background:new    ;" d="M121.149,1.321c1.502,2.35,2.44,5.306,2.44,8.568
			c0,7.553-4.827,13.675-10.782,13.675c-1.635,0-3.168-0.496-4.555-1.322c1.976,3.091,4.958,5.108,8.341,5.108
			c5.955,0,10.782-6.122,10.782-13.676C127.375,8.195,124.817,3.504,121.149,1.321z"/>
		<path id="path-23_7_" style="opacity:0.35;enable-background:new    ;" d="M103.71,1.321c1.504,2.35,2.441,5.306,2.441,8.568
			c0,7.553-4.827,13.675-10.782,13.675c-1.634,0-3.167-0.496-4.555-1.322c1.977,3.091,4.958,5.108,8.341,5.108
			c5.955,0,10.783-6.122,10.783-13.676C109.938,8.195,107.38,3.504,103.71,1.321z"/>
	</g>
</g>
<g>
</g>
<g>
</g>
<g>
</g>
<g>
</g>
<g>
</g>
<g>
</g>
<g>
</g>
<g>
</g>
<g>
</g>
<g>
</g>
<g>
</g>
<g>
</g>
<g>
</g>
<g>
</g>
<g>
</g>
</svg>
