<?xml version="1.0" encoding="iso-8859-1"?>
<!-- Generator: Adobe Illustrator 19.1.0, SVG Export Plug-In . SVG Version: 6.00 Build 0)  -->
<svg version="1.1" id="Capa_1" xmlns="http://www.w3.org/2000/svg" xmlns:xlink="http://www.w3.org/1999/xlink" x="0px" y="0px"
	 viewBox="0 0 217.228 217.228" style="enable-background:new 0 0 217.228 217.228;" xml:space="preserve">
<g>
	<g id="group-70svg">
		<path id="path-1_128_" style="fill:#FBB713;" d="M114.771,195.639h15.61c3.01,0,5.449-1.673,5.449-3.736
			c0-2.064-2.439-3.737-5.449-3.737h-0.726c-3.01,0-5.45-1.673-5.45-3.736s2.44-3.736,5.45-3.736h33.556
			c3.009,0,5.45-1.672,5.45-3.736c0-2.063-2.441-3.736-5.45-3.736h-40.327H40.458c-3.009,0-5.449,1.673-5.449,3.736
			c0,2.064,2.44,3.736,5.449,3.736h9.313c3.01,0,5.45,1.673,5.45,3.736s-2.44,3.736-5.45,3.736H5.449
			c-3.009,0-5.449,1.673-5.449,3.737c0,2.063,2.44,3.736,5.449,3.736h10.475H114.771z"/>
		<path id="path-2_128_" style="fill:#FBB713;" d="M180.535,189.36c3.526,0,6.385,1.917,6.385,4.284
			c0,2.365-2.859,4.283-6.385,4.283H160.97c-3.525,0-6.384-1.918-6.384-4.283c0-2.367,2.859-4.284,6.384-4.284H180.535z"/>
		<path id="path-3_128_" style="fill:#142A3B;" d="M217.228,84.862H14.886V19.301h202.342V84.862z"/>
		<path id="path-4_128_" style="fill:#142A3B;" d="M217.228,148.125H14.886V82.563h202.342V148.125z"/>
		<path id="path-5_127_" style="opacity:0.35;enable-background:new    ;" d="M217.228,93.555L14.886,86.197v-3.634h202.342V93.555z
			"/>
		<path id="path-6_124_" style="fill:#EDEDED;" d="M193.325,52.081c0,4.145-3.36,7.505-7.504,7.505c-4.145,0-7.505-3.36-7.505-7.505
			c0-4.144,3.36-7.504,7.505-7.504C189.965,44.577,193.325,47.937,193.325,52.081z"/>
		<path id="path-7_121_" style="fill:#EDEDED;" d="M59.913,52.081c0,4.145-3.36,7.505-7.505,7.505c-4.144,0-7.505-3.36-7.505-7.505
			c0-4.144,3.361-7.504,7.505-7.504C56.553,44.577,59.913,47.937,59.913,52.081z"/>
		<path id="path-8_98_" style="opacity:0.35;enable-background:new    ;" d="M59.212,48.956c0.439,0.954,0.701,2.007,0.701,3.125
			c0,4.145-3.36,7.505-7.505,7.505c-1.119,0-2.171-0.262-3.125-0.7c1.187,2.578,3.778,4.379,6.804,4.379
			c4.145,0,7.505-3.36,7.505-7.505C63.592,52.735,61.792,50.143,59.212,48.956z"/>
		<path id="path-9_84_" style="fill:#EDEDED;" d="M193.325,115.344c0,4.144-3.36,7.504-7.504,7.504c-4.145,0-7.505-3.36-7.505-7.504
			c0-4.145,3.36-7.504,7.505-7.504C189.965,107.84,193.325,111.199,193.325,115.344z"/>
		<path id="path-10_76_" style="opacity:0.35;enable-background:new    ;" d="M192.624,112.218c0.44,0.955,0.701,2.007,0.701,3.126
			c0,4.144-3.36,7.505-7.504,7.505c-1.119,0-2.172-0.262-3.125-0.701c1.187,2.579,3.778,4.379,6.804,4.379
			c4.144,0,7.504-3.36,7.504-7.505C197.004,115.996,195.204,113.406,192.624,112.218z"/>
		<path id="path-11_65_" style="opacity:0.35;enable-background:new    ;" d="M192.624,49.2c0.44,0.953,0.701,2.007,0.701,3.125
			c0,4.144-3.36,7.504-7.504,7.504c-1.119,0-2.172-0.261-3.125-0.701c1.187,2.58,3.778,4.38,6.804,4.38
			c4.144,0,7.504-3.359,7.504-7.505C197.004,52.978,195.204,50.386,192.624,49.2z"/>
		<path id="path-12_55_" style="opacity:0.35;enable-background:new    ;" d="M58.343,112.218c0.44,0.955,0.701,2.007,0.701,3.126
			c0,4.144-3.36,7.505-7.505,7.505c-1.118,0-2.171-0.262-3.124-0.701c1.187,2.579,3.778,4.379,6.804,4.379
			c4.144,0,7.504-3.36,7.504-7.505C62.723,115.996,60.922,113.406,58.343,112.218z"/>
		<path id="path-13_43_" style="fill:#EDEDED;" d="M59.913,115.344c0,4.144-3.36,7.504-7.505,7.504c-4.144,0-7.505-3.36-7.505-7.504
			c0-4.145,3.361-7.504,7.505-7.504C56.553,107.84,59.913,111.199,59.913,115.344z"/>
		<path id="path-14_36_" style="fill:#142A3B;" d="M172.757,185.575h-6.574v-43.709h6.574V185.575z"/>
		<path id="path-15_31_" style="fill:#142A3B;" d="M72.698,185.575h-6.573v-43.709h6.573V185.575z"/>
	</g>
</g>
<g>
</g>
<g>
</g>
<g>
</g>
<g>
</g>
<g>
</g>
<g>
</g>
<g>
</g>
<g>
</g>
<g>
</g>
<g>
</g>
<g>
</g>
<g>
</g>
<g>
</g>
<g>
</g>
<g>
</g>
</svg>
