<?xml version="1.0" encoding="iso-8859-1"?>
<!-- Generator: Adobe Illustrator 19.1.0, SVG Export Plug-In . SVG Version: 6.00 Build 0)  -->
<svg version="1.1" id="Capa_1" xmlns="http://www.w3.org/2000/svg" xmlns:xlink="http://www.w3.org/1999/xlink" x="0px" y="0px"
	 viewBox="0 0 217.228 217.228" style="enable-background:new 0 0 217.228 217.228;" xml:space="preserve">
<g>
	<g id="group-24svg">
		<path id="path-1_77_" style="fill:#FBB713;" d="M56.6,151.872H40.204c-3.16,0-5.723,1.869-5.723,4.173
			c0,2.303,2.563,4.172,5.723,4.172h0.764c3.161,0,5.724,1.868,5.724,4.172c0,2.305-2.563,4.172-5.724,4.172H5.723
			c-3.161,0-5.723,1.868-5.723,4.172c0,2.305,2.562,4.173,5.723,4.173h42.355h86.573c3.161,0,5.724-1.868,5.724-4.173
			c0-2.304-2.563-4.172-5.724-4.172h-9.781c-3.161,0-5.724-1.867-5.724-4.172c0-2.304,2.563-4.172,5.724-4.172h38.417
			c3.161,0,5.724-1.869,5.724-4.172c0-2.304-2.563-4.173-5.724-4.173h-2.867H56.6z"/>
		<path id="path-2_77_" style="fill:#FBB713;" d="M157.382,177.281c-2.227,0-4.032-1.322-4.032-2.952
			c0-1.629,1.805-2.951,4.032-2.951h12.356c2.227,0,4.032,1.322,4.032,2.951c0,1.63-1.805,2.952-4.032,2.952H157.382z"/>
		<path id="path-3_77_" style="fill:#FBB713;" d="M12.626,161.303c-2.226,0-4.032-1.322-4.032-2.952s1.806-2.95,4.032-2.95h12.356
			c2.227,0,4.032,1.32,4.032,2.95s-1.805,2.952-4.032,2.952H12.626z"/>
		<path id="path-4_77_" style="fill:#FF3A2F;" d="M79.229,39.947c-13.656,0-24.769,11.11-24.769,24.768
			c0,10.806,6.89,20.094,16.862,23.414l-14.734,47.84c-4.008,13.044,3.338,26.934,16.394,30.953c2.371,0.73,4.823,1.103,7.29,1.103
			c10.941,0,20.45-7.022,23.671-17.482l10.117-32.86c0.187,0.025,0.36,0.107,0.553,0.107h10.512c1.513,0,2.855-0.96,3.345-2.388
			l8.908-25.918h21.497V39.947H79.229z M122.603,110.714h-6.401l5.094-16.545c0.864-2.803,3.408-4.685,6.344-4.685h2.261
			L122.603,110.714z"/>
		<path id="path-5_76_" style="opacity:0.35;fill:#090908;enable-background:new    ;" d="M83.231,162.105
			c-2.467,0-4.919-0.372-7.29-1.102c-13.056-4.018-20.402-17.909-16.394-30.953l14.734-47.841
			c-9.972-3.32-16.862-12.608-16.862-23.413c0-2.815,0.495-5.513,1.366-8.038c-2.725,3.978-4.326,8.782-4.326,13.957
			c0,10.806,6.89,20.094,16.863,23.414l-14.734,47.84c-4.008,13.044,3.338,26.934,16.394,30.953c2.37,0.73,4.823,1.102,7.29,1.102
			c10.625,0,19.851-6.653,23.327-16.616C99.076,157.996,91.583,162.105,83.231,162.105z"/>
		<path id="path-6_73_" style="opacity:0.35;fill:#090908;enable-background:new    ;" d="M125.562,104.795l7.298-21.231h-2.26
			c-2.937,0-5.48,1.884-6.345,4.686l-0.855,2.777c1.161-0.967,2.636-1.544,4.24-1.544h2.261l-5.265,15.312H125.562z"/>
		<path id="path-7_72_" style="opacity:0.35;fill:#090908;enable-background:new    ;" d="M128.085,111.871h-10.513
			c-0.193,0-0.366-0.083-0.552-0.107l-1.856,6.025h9.961c1.513,0,2.855-0.959,3.345-2.387l1.392-4.049
			C129.331,111.665,128.731,111.871,128.085,111.871z"/>
		<path id="path-8_53_" style="fill:#142A3B;" d="M213.69,61.177h-32.206c-1.727-11.97-11.955-21.23-24.409-21.23v49.537
			c12.454,0,22.682-9.261,24.409-21.23h32.206c1.963,0,3.538-1.579,3.538-3.539C217.228,62.759,215.653,61.177,213.69,61.177z"/>
		<path id="path-9_46_" style="opacity:0.35;fill:#090908;enable-background:new    ;" d="M215.518,61.756
			c-0.541,0.335-1.143,0.578-1.828,0.578h-32.206c-1.727,11.97-11.956,21.231-24.409,21.231v5.919
			c12.453,0,22.682-9.261,24.409-21.23h32.206c1.963,0,3.538-1.579,3.538-3.539C217.228,63.443,216.524,62.38,215.518,61.756z"/>
		<path id="path-10_42_" style="fill:#142A3B;" d="M93.383,75.33h-7.077c-1.949,0-3.539-1.578-3.539-3.537
			c0-1.957,1.59-3.539,3.539-3.539h7.077c1.963,0,3.538,1.582,3.538,3.539C96.921,73.752,95.346,75.33,93.383,75.33z"/>
		<path id="path-11_34_" style="fill:#142A3B;" d="M93.383,61.177h-7.077c-1.949,0-3.539-1.579-3.539-3.539
			c0-1.955,1.59-3.538,3.539-3.538h7.077c1.963,0,3.538,1.583,3.538,3.538C96.921,59.598,95.346,61.177,93.383,61.177z"/>
	</g>
</g>
<g>
</g>
<g>
</g>
<g>
</g>
<g>
</g>
<g>
</g>
<g>
</g>
<g>
</g>
<g>
</g>
<g>
</g>
<g>
</g>
<g>
</g>
<g>
</g>
<g>
</g>
<g>
</g>
<g>
</g>
</svg>
