<?xml version="1.0" encoding="iso-8859-1"?>
<!-- Generator: Adobe Illustrator 19.1.0, SVG Export Plug-In . SVG Version: 6.00 Build 0)  -->
<svg version="1.1" id="Capa_1" xmlns="http://www.w3.org/2000/svg" xmlns:xlink="http://www.w3.org/1999/xlink" x="0px" y="0px"
	 viewBox="0 0 217.222 217.222" style="enable-background:new 0 0 217.222 217.222;" xml:space="preserve">
<g>
	<g id="group-117svg">
		<path id="path-1_20_" style="fill:#0CB04A;" d="M54.646,199.005h-7.772c-1.498,0-2.713,1.301-2.713,2.906
			c0,1.606,1.215,2.907,2.713,2.907h0.362c1.499,0,2.713,1.302,2.713,2.906c0,1.606-1.214,2.908-2.713,2.908H30.529
			c-1.498,0-2.713,1.3-2.713,2.906c0,1.604,1.215,2.905,2.713,2.905h20.078h41.038c1.499,0,2.713-1.301,2.713-2.905
			c0-1.606-1.214-2.906-2.713-2.906h-4.637c-1.498,0-2.713-1.302-2.713-2.908c0-1.604,1.215-2.906,2.713-2.906h18.211
			c1.499,0,2.714-1.301,2.714-2.907c0-1.605-1.215-2.906-2.714-2.906h-1.359H54.646z"/>
		<path id="path-2_20_" style="fill:#0CB04A;" d="M102.847,217.222c-1.256,0-2.275-1.395-2.275-3.115
			c0-1.721,1.019-3.114,2.275-3.114h6.971c1.256,0,2.274,1.393,2.274,3.114c0,1.72-1.018,3.115-2.274,3.115H102.847z"/>
		<path id="path-3_20_" style="fill:#0CB04A;" d="M63.331,188.217c0,1.481-1.161,2.681-2.593,2.681c-1.433,0-2.595-1.2-2.595-2.681
			V180c0-1.48,1.162-2.681,2.595-2.681c1.432,0,2.593,1.201,2.593,2.681V188.217z"/>
		<path id="path-4_20_" style="fill:#0CB04A;" d="M57.709,157.382c0,1.481-1.161,2.682-2.594,2.682
			c-1.432,0-2.594-1.201-2.594-2.682v-8.217c0-1.48,1.162-2.68,2.594-2.68c1.433,0,2.594,1.2,2.594,2.68V157.382z"/>
		<path id="path-5_20_" style="fill:#FF3A2F;" d="M166.309,34.901c1.601-0.084,3.177-0.727,4.393-1.943l16.743-16.744
			c2.614-2.612,2.614-6.888,0-9.502l-4.751-4.752c-2.613-2.613-6.89-2.613-9.504,0l-16.743,16.744
			c-1.216,1.215-1.859,2.792-1.943,4.392L136.309,4.902l-16.292,16.29l48.196,48.194l16.291-16.291L166.309,34.901z"/>
		<path id="path-6_20_" style="fill:#0CB04A;" d="M79.968,93.596l30.999,2.715l-38.692,38.691l-20.538,3.793l3.681-20.65
			L79.968,93.596z"/>
		<path id="path-7_20_" style="fill:#FBB713;" d="M109.471,98.033l43.695-43.693l-16.97-16.969L79.968,93.596L109.471,98.033z"/>
	</g>
</g>
<g>
</g>
<g>
</g>
<g>
</g>
<g>
</g>
<g>
</g>
<g>
</g>
<g>
</g>
<g>
</g>
<g>
</g>
<g>
</g>
<g>
</g>
<g>
</g>
<g>
</g>
<g>
</g>
<g>
</g>
</svg>
