<?xml version="1.0" encoding="iso-8859-1"?>
<!-- Generator: Adobe Illustrator 19.1.0, SVG Export Plug-In . SVG Version: 6.00 Build 0)  -->
<svg version="1.1" id="Capa_1" xmlns="http://www.w3.org/2000/svg" xmlns:xlink="http://www.w3.org/1999/xlink" x="0px" y="0px"
	 viewBox="0 0 216.292 216.292" style="enable-background:new 0 0 216.292 216.292;" xml:space="preserve">
<g>
	<g id="group-7svg">
		<path id="path-1_135_" style="fill:#2476FF;" d="M93.755,195.574h15.759c3.037,0,5.5,1.546,5.5,3.452
			c0,1.908-2.463,3.454-5.5,3.454h-0.735c-3.038,0-5.501,1.546-5.501,3.452c0,1.908,2.463,3.454,5.501,3.454h33.876
			c3.039,0,5.502,1.546,5.502,3.453s-2.463,3.453-5.502,3.453h-40.71H57.201c-3.039,0-5.502-1.546-5.502-3.453
			s2.463-3.453,5.502-3.453h9.401c3.038,0,5.501-1.546,5.501-3.454c0-1.906-2.463-3.452-5.501-3.452H21.858
			c-3.038,0-5.502-1.546-5.502-3.454c0-1.906,2.464-3.452,5.502-3.452h10.575H93.755z"/>
		<path id="path-2_135_" style="fill:#2476FF;" d="M203.265,215.072c4.557,0,8.251-2.318,8.251-5.179c0-2.861-3.694-5.18-8.251-5.18
			h-25.289c-4.557,0-8.251,2.319-8.251,5.18c0,2.861,3.694,5.179,8.251,5.179H203.265z"/>
		<path id="path-3_135_" style="fill:#2476FF;" d="M38.317,184.184c4.558,0,8.252-2.319,8.252-5.18c0-2.861-3.694-5.18-8.252-5.18
			H13.03c-4.559,0-8.253,2.319-8.253,5.18c0,2.861,3.694,5.18,8.253,5.18H38.317z"/>
		<path id="path-4_134_" style="fill:#2476FF;" d="M162.851,116.729h26.169c4.611,0,8.348,2.963,8.348,6.619
			c0,3.655-3.737,6.619-8.348,6.619h-1.151h-10.62c-4.61,0-8.348,2.962-8.348,6.618c0,3.656,3.738,6.618,8.348,6.618h25.268
			c4.61,0,8.347,2.964,8.347,6.618c0,3.657-3.737,6.619-8.347,6.619h-28.721l-4.818-0.242c-4.61,0-8.348,2.963-8.348,6.619
			c0,3.654,3.738,6.618,8.348,6.618h25.268c4.61,0,8.347,2.964,8.347,6.619s-3.737,6.618-8.347,6.618l-91.879,0.244
			c-4.612,0-8.349-2.964-8.349-6.619c0-3.656,3.737-6.619,8.349-6.619h25.267c4.611,0,8.347-2.964,8.347-6.619
			c0-3.654-3.736-6.619-8.347-6.619H64.842H36.122c-4.61,0-8.347-2.962-8.347-6.619c0-3.654,3.737-6.618,8.347-6.618H61.39
			c4.61,0,8.347-2.962,8.347-6.618c0-3.656-3.737-6.618-8.347-6.618H50.77H22.049c-4.61,0-8.347-2.964-8.347-6.619
			c0-3.656,3.737-6.619,8.347-6.619h53.739H162.851z"/>
		<path id="path-5_134_" style="opacity:0.35;enable-background:new    ;" d="M66.094,142.048
			c11.074,4.073,49.919,15.38,109.243,0.965c-3.686-0.687-6.437-3.296-6.437-6.428c0-3.656,3.738-6.618,8.348-6.618h7.715
			c0.894-0.216,1.823-0.365,2.806-0.365h3.866c0.93-0.244,1.782-0.61,2.535-1.082c1.086-1.638,2.161-3.392,3.185-5.268
			c-0.065-3.609-3.766-6.523-8.336-6.523h-26.169H75.787H29.118c3.383,4.743,7.254,9.135,11.789,12.873H52.53
			c0.982,0,1.91,0.149,2.805,0.365h6.055c4.61,0,8.347,2.962,8.347,6.618C69.736,138.855,68.293,140.856,66.094,142.048z"/>
		<path id="path-6_132_" style="fill:#FBB713;" d="M162.654,49.694c14.376,5.89,34.988-10.213,34.988-10.213
			c14.347-14.213,0-18.073,0-18.073c-13.444,4.608-23.893,4.762-31.146,3.697C163.007,10.712,149.964,0,134.365,0
			c-18.269,0-33.079,14.672-33.079,32.769c0,13.163,7.852,24.482,19.154,29.693c-2.328,5.595-7.883,9.537-14.371,9.537
			c-1.083,0-94.85-23.832-94.85-23.832s0.797,71.854,47.426,83.698c0,0,38.657,18.16,104.015,0c0,0,37.463-35.532,0-60.8
			c0,0-6.943-7.926-7.464-12.855C158.156,55.83,160.669,52.938,162.654,49.694z"/>
		<path id="path-7_132_" style="opacity:0.2;enable-background:new    ;" d="M163.21,71.465
			c14.958,23.232-12.117,48.94-12.117,48.94c-65.359,18.161-104.016,0-104.016,0c-6.205-1.576-11.577-4.239-16.264-7.629
			c6.716,8.867,15.716,16.011,27.832,19.089c0,0,38.657,18.16,104.015,0C162.66,131.865,199.702,96.706,163.21,71.465z"/>
		<path id="path-8_129_" style="fill:#142A3B;" d="M143.531,25.663c0,2.835-2.32,5.132-5.182,5.132c-2.86,0-5.18-2.297-5.18-5.132
			c0-2.834,2.32-5.133,5.18-5.133C141.211,20.53,143.531,22.829,143.531,25.663z"/>
		<path id="path-9_123_" style="fill:#FF3A2F;" d="M98.212,113.361c-0.32,0-0.636-0.011-0.959-0.034
			c-3.857-0.274-7.417-2.176-10.026-5.354c-1.339-1.635-3.102-2.599-4.953-2.713c-1.767-0.109-3.539,0.576-4.973,1.934l-1.982,1.879
			c-2.959,2.807-6.748,4.193-10.61,3.908c-3.981-0.293-7.616-2.301-10.235-5.652l-6.4-8.185c-1.23-1.574-0.939-3.838,0.65-5.058
			c1.595-1.219,3.874-0.931,5.107,0.643l6.399,8.187c1.34,1.715,3.121,2.735,5.018,2.875c1.795,0.136,3.589-0.554,5.039-1.928
			l1.984-1.88c2.92-2.765,6.641-4.159,10.458-3.919c3.902,0.243,7.508,2.145,10.145,5.361c1.329,1.618,3.067,2.58,4.901,2.71
			c1.741,0.122,3.493-0.524,4.922-1.829l3.272-2.995c2.836-2.59,6.365-3.921,10.081-3.741c3.721,0.182,7.221,1.896,9.854,4.827
			l0.928,1.032c1.389,1.545,3.167,2.407,5.008,2.427c1.836,0.034,3.607-0.795,5.01-2.294l8.514-9.079
			c1.361-1.46,3.671-1.541,5.142-0.187c1.471,1.355,1.557,3.635,0.189,5.094l-8.515,9.08c-2.818,3.005-6.499,4.622-10.419,4.595
			c-3.912-0.041-7.593-1.76-10.367-4.841l-0.926-1.032c-1.326-1.475-3.02-2.335-4.776-2.42c-1.72-0.083-3.38,0.552-4.787,1.837
			l-3.274,2.996C104.959,112.046,101.644,113.361,98.212,113.361z"/>
	</g>
</g>
<g>
</g>
<g>
</g>
<g>
</g>
<g>
</g>
<g>
</g>
<g>
</g>
<g>
</g>
<g>
</g>
<g>
</g>
<g>
</g>
<g>
</g>
<g>
</g>
<g>
</g>
<g>
</g>
<g>
</g>
</svg>
