<?xml version="1.0" encoding="iso-8859-1"?>
<!-- Generator: Adobe Illustrator 19.1.0, SVG Export Plug-In . SVG Version: 6.00 Build 0)  -->
<svg version="1.1" id="Capa_1" xmlns="http://www.w3.org/2000/svg" xmlns:xlink="http://www.w3.org/1999/xlink" x="0px" y="0px"
	 viewBox="0 0 218.542 218.542" style="enable-background:new 0 0 218.542 218.542;" xml:space="preserve">
<g>
	<g id="group-83svg">
		<path id="path-1_150_" style="fill:#142A3B;" d="M166.683,74.769l-14.435-14.301l49.018-48.561c3.789-3.752,9.93-3.752,13.718,0
			l0.717,0.711c3.788,3.754,3.788,9.837,0,13.589L166.683,74.769z"/>
		<path id="path-2_150_" style="opacity:0.35;fill:#020403;enable-background:new    ;" d="M215.343,12.264
			c-2.279-2.259-5.364-3.18-8.336-2.857c0.067,0.065,0.146,0.108,0.213,0.174c3.986,3.949,3.986,10.351-0.001,14.3l-45.951,45.522
			l5.415,5.366l48.66-48.205C219.328,22.615,219.329,16.212,215.343,12.264z"/>
		<path id="path-3_150_" style="fill:#FF3A2F;" d="M116.329,203.866l-94.398-93.515c-1.363-1.35-1.363-3.539,0-4.89l43.788-43.378
			c27.431-27.174,71.904-27.174,99.333,0h0.001c27.43,27.173,27.43,71.23,0,98.405l-43.788,43.378
			C119.902,205.216,117.692,205.216,116.329,203.866z"/>
		<path id="path-4_149_" style="opacity:0.35;fill:#020403;enable-background:new    ;" d="M165.053,62.083L165.053,62.083
			c-27.43-27.175-71.904-27.175-99.334,0l-7.653,7.582c27.43-27.169,71.9-27.169,99.328,0.004l0,0
			c27.43,27.174,27.43,71.233,0,98.406l-38.598,38.235h0.001l46.256-45.822C192.483,133.314,192.483,89.256,165.053,62.083z"/>
		<path id="path-5_149_" style="fill:#142A3B;" d="M118.797,206.311L18.656,107.107l10.123-10.029l100.14,99.206L118.797,206.311z"
			/>
		<path id="path-6_147_" style="fill:#FBB713;" d="M48.669,165.808h1.627c0.314,0,0.568,0.272,0.568,0.608s-0.254,0.608-0.568,0.608
			H50.22c-0.313,0-0.568,0.273-0.568,0.608c0,0.336,0.255,0.609,0.568,0.609h3.498c0.314,0,0.568,0.272,0.568,0.608
			s-0.254,0.608-0.568,0.608h-4.203h-4.62c-0.314,0-0.568-0.272-0.568-0.608s0.254-0.608,0.568-0.608h0.97
			c0.314,0,0.568-0.273,0.568-0.609c0-0.335-0.254-0.608-0.568-0.608h-4.62c-0.314,0-0.568-0.272-0.568-0.608
			s0.254-0.608,0.568-0.608h1.092H48.669z"/>
		<path id="path-7_147_" style="fill:#FBB713;" d="M93.422,194.625h12.344c2.38,0,4.31,1.105,4.31,2.47
			c0,1.364-1.93,2.471-4.31,2.471h-0.575c-2.38,0-4.309,1.106-4.309,2.47c0,1.365,1.929,2.472,4.309,2.472h26.537
			c2.38,0,4.309,1.105,4.309,2.469c0,1.365-1.929,2.472-4.309,2.472h-31.89H64.787c-2.379,0-4.309-1.107-4.309-2.472
			c0-1.364,1.93-2.469,4.309-2.469h7.365c2.38,0,4.31-1.107,4.31-2.472c0-1.364-1.93-2.47-4.31-2.47h-35.05
			c-2.38,0-4.309-1.107-4.309-2.471c0-1.365,1.929-2.47,4.309-2.47h8.284H93.422z"/>
		<path id="path-8_144_" style="fill:#FBB713;" d="M18.074,194.625h3.68c0.709,0,1.285,1.105,1.285,2.47
			c0,1.364-0.576,2.47-1.285,2.47h-0.171c-0.709,0-1.284,1.106-1.284,2.471c0,1.364,0.575,2.471,1.284,2.471h7.911
			c0.71,0,1.285,1.106,1.285,2.47c0,1.364-0.575,2.471-1.285,2.471h-9.507H9.538c-0.709,0-1.285-1.107-1.285-2.471
			c0-1.364,0.576-2.47,1.285-2.47h2.196c0.709,0,1.284-1.107,1.284-2.471c0-1.365-0.575-2.471-1.284-2.471H1.285
			c-0.71,0-1.285-1.106-1.285-2.47c0-1.365,0.575-2.47,1.285-2.47h2.469H18.074z"/>
		<path id="path-9_138_" style="fill:#FBB713;" d="M28.274,171.247c1.574,0,2.851-0.801,2.851-1.79c0-0.988-1.277-1.789-2.851-1.789
			h-8.737c-1.575,0-2.851,0.801-2.851,1.789c0,0.989,1.276,1.79,2.851,1.79H28.274z"/>
		<path id="path-10_126_" style="fill:#FBB713;" d="M118.825,121.648l2.748-2.722c0.529-0.525,1.423-0.491,1.996,0.077
			c0.572,0.567,0.607,1.452,0.078,1.977l-0.129,0.126c-0.529,0.526-0.494,1.411,0.078,1.978c0.573,0.567,1.467,0.602,1.997,0.077
			l5.906-5.851c0.53-0.525,1.424-0.491,1.997,0.077c0.572,0.567,0.608,1.453,0.077,1.977l-7.098,7.032l-7.802,7.729
			c-0.529,0.526-1.424,0.491-1.996-0.076c-0.573-0.568-0.608-1.454-0.078-1.978l1.639-1.624c0.53-0.525,0.496-1.41-0.077-1.978
			c-0.573-0.567-1.466-0.602-1.997-0.077l-7.802,7.729c-0.529,0.526-1.423,0.49-1.996-0.077s-0.607-1.453-0.077-1.977l1.844-1.827
			L118.825,121.648z"/>
		<path id="path-11_110_" style="fill:#FBB713;" d="M60.394,131.67l2.748-2.722c0.53-0.525,1.423-0.49,1.996,0.077
			c0.572,0.568,0.607,1.453,0.077,1.978l-0.127,0.127c-0.53,0.524-0.496,1.409,0.077,1.977c0.573,0.567,1.467,0.602,1.997,0.077
			l5.907-5.852c0.529-0.525,1.423-0.489,1.996,0.077c0.573,0.568,0.607,1.453,0.077,1.978l-7.098,7.033l-7.802,7.728
			c-0.53,0.525-1.424,0.49-1.996-0.076c-0.573-0.568-0.608-1.454-0.078-1.979l1.639-1.624c0.53-0.523,0.495-1.41-0.077-1.977
			c-0.573-0.567-1.467-0.602-1.997-0.077l-7.801,7.73c-0.531,0.523-1.424,0.49-1.997-0.078c-0.572-0.568-0.608-1.453-0.078-1.978
			l1.844-1.826L60.394,131.67z"/>
	</g>
</g>
<g>
</g>
<g>
</g>
<g>
</g>
<g>
</g>
<g>
</g>
<g>
</g>
<g>
</g>
<g>
</g>
<g>
</g>
<g>
</g>
<g>
</g>
<g>
</g>
<g>
</g>
<g>
</g>
<g>
</g>
</svg>
