<?xml version="1.0" encoding="iso-8859-1"?>
<!-- Generator: Adobe Illustrator 19.1.0, SVG Export Plug-In . SVG Version: 6.00 Build 0)  -->
<svg version="1.1" id="Capa_1" xmlns="http://www.w3.org/2000/svg" xmlns:xlink="http://www.w3.org/1999/xlink" x="0px" y="0px"
	 viewBox="0 0 217.228 217.228" style="enable-background:new 0 0 217.228 217.228;" xml:space="preserve">
<g>
	<g id="group-23svg">
		<path id="path-1_76_" style="fill:#142A3B;" d="M95.709,178.852H77.986c-3.417,0-6.187,1.545-6.187,3.45s2.77,3.449,6.187,3.449
			h0.825c3.417,0,6.188,1.544,6.188,3.449s-2.771,3.45-6.188,3.45h-38.1c-3.418,0-6.188,1.543-6.188,3.448s2.77,3.45,6.188,3.45
			h45.786h93.588c3.417,0,6.187-1.545,6.187-3.45s-2.77-3.448-6.187-3.448H169.51c-3.417,0-6.187-1.545-6.187-3.45
			s2.77-3.449,6.187-3.449h41.531c3.417,0,6.187-1.544,6.187-3.449s-2.77-3.45-6.187-3.45h-3.1H95.709z"/>
		<path id="path-2_76_" style="fill:#142A3B;" d="M179.548,151.45h3.148c0.607,0,1.098,0.854,1.098,1.908
			c0,1.053-0.491,1.907-1.098,1.907h-0.147c-0.606,0-1.099,0.854-1.099,1.908c0,1.053,0.493,1.907,1.099,1.907h6.766
			c0.607,0,1.1,0.854,1.1,1.908c0,1.052-0.493,1.906-1.1,1.906h-8.131h-16.619c-0.607,0-1.099-0.854-1.099-1.906
			c0-1.054,0.492-1.908,1.099-1.908h1.877c0.607,0,1.099-0.854,1.099-1.907c0-1.054-0.492-1.908-1.099-1.908h-8.936
			c-0.607,0-1.099-0.854-1.099-1.907c0-1.054,0.492-1.908,1.099-1.908h2.112H179.548z"/>
		<path id="path-3_76_" style="fill:#142A3B;" d="M4.522,203.671c-2.498,0-4.522-1.483-4.522-3.31c0-1.827,2.024-3.31,4.522-3.31
			h13.855c2.498,0,4.522,1.483,4.522,3.31c0,1.827-2.024,3.31-4.522,3.31H4.522z"/>
		<path id="path-4_76_" style="fill:#FF3A2F;" d="M134.92,125.629c-0.048,0-0.09,0-0.146,0H13.442c-1.279,0-2.446-0.682-3.086-1.78
			c-0.639-1.098-0.639-2.46,0-3.558L71.015,15.209c1.272-2.202,4.893-2.202,6.164,0l60.249,104.343
			c0.653,0.642,1.05,1.531,1.05,2.518C138.478,124.04,136.887,125.629,134.92,125.629z"/>
		<path id="path-5_75_" style="fill:#0CB04A;" d="M140.876,182.553H5.673c-1.96,0-3.558-1.587-3.558-3.557v-35.58
			c0-1.966,1.598-3.557,3.558-3.557h135.203c1.973,0,3.558,1.591,3.558,3.557v35.58
			C144.434,180.966,142.849,182.553,140.876,182.553z"/>
		<path id="path-6_72_" style="opacity:0.35;fill:#090908;enable-background:new    ;" d="M137.429,119.552L77.179,15.21
			c-1.271-2.203-4.892-2.203-6.164,0l-0.036,0.062l56.31,97.519c0.652,0.644,1.049,1.532,1.049,2.52c0,1.97-1.592,3.558-3.558,3.558
			c-0.049,0-0.09,0-0.146,0H11.178l-0.822,1.422c-0.638,1.099-0.638,2.46,0,3.559c0.64,1.097,1.807,1.779,3.086,1.779h121.332
			c0.056,0,0.097,0,0.146,0c1.967,0,3.558-1.589,3.558-3.559C138.478,121.083,138.081,120.194,137.429,119.552z"/>
		<path id="path-7_71_" style="opacity:0.35;fill:#090908;enable-background:new    ;" d="M140.876,139.859h-6.583v32.376
			c0,1.972-1.583,3.559-3.558,3.559H2.115v3.202c0,1.97,1.598,3.558,3.558,3.558h135.203c1.974,0,3.558-1.588,3.558-3.558v-35.579
			C144.434,141.45,142.85,139.859,140.876,139.859z"/>
	</g>
</g>
<g>
</g>
<g>
</g>
<g>
</g>
<g>
</g>
<g>
</g>
<g>
</g>
<g>
</g>
<g>
</g>
<g>
</g>
<g>
</g>
<g>
</g>
<g>
</g>
<g>
</g>
<g>
</g>
<g>
</g>
</svg>
