<?xml version="1.0" encoding="iso-8859-1"?>
<!-- Generator: Adobe Illustrator 19.1.0, SVG Export Plug-In . SVG Version: 6.00 Build 0)  -->
<svg version="1.1" id="Capa_1" xmlns="http://www.w3.org/2000/svg" xmlns:xlink="http://www.w3.org/1999/xlink" x="0px" y="0px"
	 viewBox="0 0 217.229 217.229" style="enable-background:new 0 0 217.229 217.229;" xml:space="preserve">
<g>
	<g id="group-25svg">
		<path id="path-1_78_" style="fill:#142A3B;" d="M85.309,179.784H69.512c-3.047,0-5.515,1.376-5.515,3.075
			c0,1.698,2.468,3.074,5.515,3.074h0.735c3.046,0,5.515,1.375,5.515,3.073c0,1.699-2.469,3.075-5.515,3.075h-33.96
			c-3.046,0-5.515,1.376-5.515,3.074s2.469,3.075,5.515,3.075h40.811h83.416c3.046,0,5.515-1.377,5.515-3.075
			s-2.469-3.074-5.515-3.074h-9.425c-3.045,0-5.514-1.376-5.514-3.075c0-1.698,2.469-3.073,5.514-3.073h37.018
			c3.045,0,5.514-1.376,5.514-3.074c0-1.699-2.469-3.075-5.514-3.075h-2.763H85.309z"/>
		<path id="path-2_78_" style="fill:#142A3B;" d="M160.037,155.36h2.805c0.541,0,0.98,0.761,0.98,1.7s-0.439,1.7-0.98,1.7h-0.13
			c-0.541,0-0.98,0.761-0.98,1.7c0,0.939,0.439,1.7,0.98,1.7h6.03c0.541,0,0.98,0.761,0.98,1.7c0,0.94-0.439,1.7-0.98,1.7h-7.247
			h-14.814c-0.541,0-0.979-0.76-0.979-1.7c0-0.939,0.438-1.7,0.979-1.7h1.674c0.541,0,0.98-0.761,0.98-1.7
			c0-0.939-0.439-1.7-0.98-1.7h-7.966c-0.541,0-0.979-0.761-0.979-1.7s0.438-1.7,0.979-1.7h1.883H160.037z"/>
		<path id="path-3_78_" style="fill:#142A3B;" d="M4.031,201.904c-2.226,0-4.031-1.319-4.031-2.949c0-1.629,1.805-2.95,4.031-2.95
			h12.35c2.226,0,4.03,1.321,4.03,2.95c0,1.63-1.804,2.949-4.03,2.949H4.031z"/>
		<path id="path-4_78_" style="fill:#FBB713;" d="M153.005,111.97c-1.115-2.144-3.369-4.708-7.736-4.708
			c-1.682,0-3.384,0.369-5.028,0.724c-1.565,0.334-3.18,0.688-4.665,0.688c-2.442,0-5.332-0.863-8.316-7.222
			c-3.833-8.172-1.985-12.995-0.204-17.658c1.695-4.436,3.616-9.453-0.448-15.403c-3.115-4.57-7.52-7.081-12.388-7.081
			c-6.237,0-12.612,4.111-17.936,11.594c-2.695,3.774-4.261,8.599-5.781,13.263c-1.377,4.231-2.804,8.599-4.716,10.563
			c-4.137,4.247-10.004,6.417-16.22,8.728c-6.317,2.34-12.837,4.758-17.552,9.597c-13.887,14.264-3.253,40.958,9.409,53.968
			c0.71,0.725,17.625,17.877,34.701,17.877l0,0c6.389,0,11.923-2.353,16.444-6.996c10.416-10.693,12.517-21.718,14.045-29.773
			c0.79-4.129,1.472-7.708,3.022-9.547c2.347-2.782,6.484-5.506,10.482-8.136C147.935,127.305,157.663,120.902,153.005,111.97z"/>
		<path id="path-5_77_" style="fill:#EDEDED;" d="M72.456,166.487c-0.944,0-1.884-0.366-2.595-1.096
			c-11.335-11.647-20.238-34.769-7.467-47.886c1.396-1.432,3.688-1.462,5.119-0.067c1.436,1.394,1.464,3.685,0.071,5.119
			c-9.083,9.327-1.771,28.293,7.467,37.786c1.393,1.432,1.362,3.725-0.07,5.119C74.277,166.147,73.365,166.487,72.456,166.487z"/>
		<path id="path-6_74_" style="fill:#EDEDED;" d="M101.25,85.371c-0.481,0-0.965-0.096-1.432-0.298
			c-1.838-0.791-2.683-2.922-1.891-4.757c3.359-7.793,8.524-12.8,14.549-14.095c1.951-0.423,3.878,0.823,4.299,2.777
			c0.421,1.955-0.824,3.88-2.779,4.3c-3.67,0.791-7.015,4.3-9.422,9.884C103.987,84.55,102.65,85.371,101.25,85.371z"/>
		<path id="path-7_73_" style="fill:#142A3B;" d="M127.056,83.795c-1.782,4.662-3.63,9.485,0.204,17.657
			c2.233,4.759,4.413,6.438,6.393,6.983l41.23-42.014c-3.753-0.949-7.274-2.92-10.171-5.898c-3.441-3.534-5.767-7.126-7.129-10.749
			l-29.04,29.514C128.157,80.855,127.605,82.359,127.056,83.795z"/>
		<path id="path-8_54_" style="fill:#142A3B;" d="M172.358,67.374c-3.696,0-7.154-1.544-9.975-4.437
			c-4.957-5.092-7.079-9.811-6.493-14.456c0.883-7.006,7.696-12.482,17.64-18.561c2.442-1.491,4.734-2.941,6.916-4.332
			c9.01-5.737,16.119-10.264,23.013-10.264c3.198,0,6.167,1.002,8.831,2.969c4.378,3.239,6.004,8.585,4.237,13.951
			c-1.7,5.135-7.094,11.101-16.845,11.725C194.39,53.508,183.734,67.374,172.358,67.374z"/>
		<path id="path-9_47_" style="opacity:0.35;fill:#090908;enable-background:new    ;" d="M213.932,19.757
			c0.334,2.002,0.191,4.133-0.513,6.271c-1.7,5.135-7.094,11.1-16.845,11.724c-5.292,9.539-15.949,23.406-27.325,23.406
			c-3.696,0-7.153-1.544-9.973-4.439c-1.175-1.205-2.178-2.39-3.036-3.558c0.822,3.152,2.838,6.38,6.144,9.776
			c2.82,2.893,6.278,4.437,9.974,4.437c11.376,0,22.032-13.866,27.324-23.405c9.751-0.624,15.145-6.589,16.845-11.725
			C218.05,27.619,217.04,23.016,213.932,19.757z"/>
		<path id="path-10_43_" style="fill:#FF3A2F;" d="M79.636,140.917c-1.433-1.47-1.405-3.821,0.066-5.245
			c1.47-1.43,3.818-1.406,5.244,0.058l11.584,11.88c1.427,1.47,1.397,3.829-0.072,5.245c-0.718,0.71-1.653,1.058-2.586,1.058
			c-0.964,0-1.935-0.377-2.659-1.116L79.636,140.917z"/>
		<path id="path-11_35_" style="fill:#FF3A2F;" d="M99.659,168.03c-1.593,1.645-4.187,1.645-5.787,0
			c-1.602-1.644-1.602-4.295,0-5.948c1.6-1.636,4.194-1.636,5.787,0C101.261,163.735,101.261,166.386,99.659,168.03z"/>
		<path id="path-12_30_" style="fill:#FF3A2F;" d="M108.033,140.982c-0.716,0.702-1.651,1.05-2.578,1.05
			c-0.971,0-1.935-0.373-2.666-1.123l-11.576-11.894c-1.427-1.47-1.398-3.818,0.072-5.244c1.464-1.428,3.81-1.399,5.245,0.072
			l11.576,11.895C109.541,137.208,109.511,139.547,108.033,140.982z"/>
		<path id="path-13_24_" style="opacity:0.35;fill:#090908;enable-background:new    ;" d="M153.005,111.97
			c-0.901-1.732-2.568-3.717-5.471-4.423c2.579,8.005-6.35,13.893-13.633,18.684c-3.998,2.631-8.135,5.355-10.482,8.136
			c-1.55,1.839-2.232,5.419-3.022,9.547c-1.527,8.056-3.628,19.082-14.045,29.773c-4.521,4.644-10.055,6.997-16.444,6.997
			c-12.525,0-24.937-9.213-30.957-14.418c0.812,0.971,1.637,1.898,2.473,2.757c0.71,0.724,17.625,17.877,34.701,17.877
			c6.389,0,11.924-2.353,16.444-6.996c10.416-10.693,12.517-21.719,14.045-29.773c0.791-4.129,1.472-7.708,3.022-9.547
			c2.347-2.782,6.484-5.505,10.482-8.136C147.935,127.305,157.663,120.902,153.005,111.97z"/>
		<path id="path-14_21_" style="opacity:0.35;fill:#090908;enable-background:new    ;" d="M120.839,77.578
			c-1.781,4.663-3.629,9.486,0.203,17.657c2.329,4.962,4.597,6.562,6.643,7.032c-0.142-0.278-0.284-0.511-0.425-0.815
			c-3.833-8.172-1.985-12.994-0.204-17.658c1.695-4.436,3.616-9.453-0.448-15.402c-1.601-2.35-3.546-4.143-5.715-5.344
			C124.2,68.615,122.45,73.363,120.839,77.578z"/>
	</g>
</g>
<g>
</g>
<g>
</g>
<g>
</g>
<g>
</g>
<g>
</g>
<g>
</g>
<g>
</g>
<g>
</g>
<g>
</g>
<g>
</g>
<g>
</g>
<g>
</g>
<g>
</g>
<g>
</g>
<g>
</g>
</svg>
