<?xml version="1.0" encoding="iso-8859-1"?>
<!-- Generator: Adobe Illustrator 19.1.0, SVG Export Plug-In . SVG Version: 6.00 Build 0)  -->
<svg version="1.1" id="Capa_1" xmlns="http://www.w3.org/2000/svg" xmlns:xlink="http://www.w3.org/1999/xlink" x="0px" y="0px"
	 viewBox="0 0 217.228 217.228" style="enable-background:new 0 0 217.228 217.228;" xml:space="preserve">
<g>
	<g id="group-125svg">
		<path id="path-1_29_" style="fill:#FF3A2F;" d="M44.709,170.855H31.758c-2.497,0-4.521,1.532-4.521,3.422s2.024,3.422,4.521,3.422
			h0.603c2.497,0,4.521,1.532,4.521,3.422s-2.024,3.421-4.521,3.421H4.521c-2.497,0-4.521,1.533-4.521,3.422
			c0,1.891,2.024,3.421,4.521,3.421h33.456h68.385c2.497,0,4.521-1.53,4.521-3.421c0-1.889-2.024-3.422-4.521-3.422h-7.727
			c-2.497,0-4.521-1.531-4.521-3.421s2.024-3.422,4.521-3.422h30.346c2.497,0,4.521-1.532,4.521-3.422s-2.024-3.422-4.521-3.422
			h-2.265H44.709z"/>
		<path id="path-2_29_" style="fill:#FF3A2F;" d="M125.027,192.301c-2.093,0-3.79-1.641-3.79-3.667c0-2.024,1.697-3.666,3.79-3.666
			h11.616c2.094,0,3.791,1.642,3.791,3.666c0,2.026-1.697,3.667-3.791,3.667H125.027z"/>
		<path id="path-3_29_" style="fill:#2476FF;" d="M176.615,173.835h28.569c5.454,0,12.044-4.528,12.044-10.153V35.079
			c0-5.624-6.59-10.152-12.044-10.152H76.578c-6.102,0-8.263,5.467-8.263,10.152v128.603c0,4.686,2.161,10.153,8.263,10.153h72.962
			v-54.148h-23.691c-1.87,0-3.384-1.514-3.384-3.383V95.998c0-1.872,1.514-3.385,3.384-3.385h23.691v-23.69
			c0-16.512,14.635-30.459,31.954-30.459h18.812c1.872,0,3.385,1.514,3.385,3.385v20.306c0,1.87-1.513,3.383-3.385,3.383h-12.043
			c-5.725,0-11.648,3.167-11.648,8.461v18.614h21.801c1.09,0,2.108,0.522,2.743,1.408c0.641,0.879,0.813,2.017,0.469,3.047
			l-6.768,20.305c-0.463,1.383-1.759,2.314-3.213,2.314h-15.032V173.835z"/>
		<path id="path-4_29_" style="opacity:0.35;enable-background:new    ;" d="M191.918,89.364h-15.303v3.249h18.663
			c-0.027-0.655-0.221-1.298-0.617-1.841C194.026,89.887,193.008,89.364,191.918,89.364z"/>
		<path id="path-5_29_" style="opacity:0.35;enable-background:new    ;" d="M143.043,170.586H70.217
			c1.305,1.912,3.349,3.249,6.361,3.249h72.962v-54.148h-6.497V170.586z"/>
		<path id="path-6_29_" style="opacity:0.35;enable-background:new    ;" d="M197.165,38.464c-0.075-1.803-1.534-3.249-3.357-3.249
			h-18.812c-17.319,0-31.953,13.947-31.953,30.459v23.69h-23.692c-1.87,0-3.385,1.513-3.385,3.385v20.305
			c0,1.87,1.515,3.385,3.385,3.385h3.142c-0.002-0.048-0.028-0.087-0.028-0.135V95.998c0-1.872,1.514-3.385,3.385-3.385h23.69
			v-23.69c0-16.512,14.635-30.459,31.954-30.459H197.165z"/>
		<path id="path-7_28_" style="opacity:0.35;enable-background:new    ;" d="M207.277,25.135c2.032,1.789,3.453,4.113,3.453,6.695
			v128.605c0,5.624-6.59,10.151-12.044,10.151h-22.071v3.249h28.569c5.454,0,12.044-4.528,12.044-10.153V35.079
			C217.228,30.161,212.189,26.081,207.277,25.135z"/>
	</g>
</g>
<g>
</g>
<g>
</g>
<g>
</g>
<g>
</g>
<g>
</g>
<g>
</g>
<g>
</g>
<g>
</g>
<g>
</g>
<g>
</g>
<g>
</g>
<g>
</g>
<g>
</g>
<g>
</g>
<g>
</g>
</svg>
