<?xml version="1.0" encoding="iso-8859-1"?>
<!-- Generator: Adobe Illustrator 19.1.0, SVG Export Plug-In . SVG Version: 6.00 Build 0)  -->
<svg version="1.1" id="Capa_1" xmlns="http://www.w3.org/2000/svg" xmlns:xlink="http://www.w3.org/1999/xlink" x="0px" y="0px"
	 viewBox="0 0 216.434 216.434" style="enable-background:new 0 0 216.434 216.434;" xml:space="preserve">
<g>
	<g id="group-161svg">
		<path id="path-1_69_" style="fill:#142A3B;" d="M94.28,150.159v-18.213h9.192v-18.212h-45.96v18.212h9.191v18.213
			c-28.074,3.643-43.805,17.266-45.961,45.532h120.186C138.771,167.425,122.355,153.802,94.28,150.159z"/>
		<path id="path-2_69_" style="fill:#FFFFFF;" d="M33.897,190.821c-0.257,0-0.516-0.027-0.775-0.083
			c-1.966-0.422-3.212-2.342-2.787-4.287c3.913-17.861,13.949-24.122,27.818-28.03c1.915-0.542,3.945,0.563,4.495,2.48
			c0.552,1.914-0.571,3.91-2.505,4.454c-12.264,3.456-19.51,8.084-22.693,22.624C37.081,189.667,35.57,190.821,33.897,190.821z"/>
		<path id="path-3_69_" style="fill:#FFFFFF;" d="M64.173,126.92c-1.005,0-1.819-0.807-1.819-1.803v-4.553
			c0-0.995,0.814-1.803,1.819-1.803c1.006,0,1.819,0.808,1.819,1.803v4.553C65.992,126.113,65.179,126.92,64.173,126.92z"/>
		<path id="path-4_69_" style="opacity:0.45;fill:#020403;enable-background:new    ;" d="M94.28,150.159v-18.213h9.192v-18.212
			H85.088v18.212H66.703v9.106c28.075,3.642,53.683,26.373,55.84,54.639h18.385C138.771,167.425,122.355,153.8,94.28,150.159z"/>
		<path id="path-5_69_" style="fill:#FBB713;" d="M163.221,34.718V1.044c-9.191,4.507-24.336,14.433-38.186,28.153
			C98.112,55.866,84.95,87.199,97.511,99.647L163.221,34.718z"/>
		<path id="path-6_68_" style="fill:#BB860E;" d="M114.484,83h48.737c-25.741,23.188-54.001,28.315-65.781,16.647L114.484,83z"/>
		<path id="path-7_68_" style="fill:#142A3B;" d="M83.022,117.698c-0.932,0-1.864-0.351-2.573-1.056
			c-1.422-1.408-1.422-3.69,0-5.098L192.031,1.056c1.422-1.407,3.725-1.408,5.146,0c1.421,1.409,1.421,3.691,0,5.099L85.594,116.644
			C84.883,117.347,83.952,117.698,83.022,117.698z"/>
		<path id="path-8_65_" style="fill:#142A3B;" d="M177.01,68.392h-44.142c-2.012,0-3.64-1.613-3.64-3.604
			c0-1.991,1.628-3.605,3.64-3.605h44.142c2.011,0,3.639,1.614,3.639,3.605C180.649,66.779,179.021,68.392,177.01,68.392z"/>
		<path id="path-9_62_" style="fill:#142A3B;" d="M190.379,50.18h-39.221c-2.011,0-3.639-1.614-3.639-3.605
			c0-1.99,1.628-3.605,3.639-3.605h39.221c2.012,0,3.638,1.615,3.638,3.605C194.017,48.566,192.391,50.18,190.379,50.18z"/>
		<path id="path-10_57_" style="fill:#142A3B;" d="M204.753,33.736h-34.626c-2.011,0-3.639-1.614-3.639-3.605
			c0-1.992,1.628-3.605,3.639-3.605h34.626c2.012,0,3.638,1.613,3.638,3.605C208.391,32.122,206.765,33.736,204.753,33.736z"/>
		<path id="path-11_49_" style="fill:#2476FF;" d="M34.836,133.743h4.256c0.82,0,1.485,0.862,1.485,1.924
			c0,1.063-0.665,1.923-1.485,1.923h-0.199c-0.819,0-1.486,0.861-1.486,1.924s0.667,1.924,1.486,1.924h9.15
			c0.82,0,1.485,0.861,1.485,1.923c0,1.063-0.665,1.924-1.485,1.924H37.048H14.575c-0.82,0-1.485-0.861-1.485-1.924
			c0-1.062,0.665-1.923,1.485-1.923h2.539c0.821,0,1.486-0.861,1.486-1.924s-0.665-1.924-1.486-1.924H5.03
			c-0.82,0-1.485-0.86-1.485-1.923c0-1.062,0.665-1.924,1.485-1.924h2.857H34.836z"/>
		<path id="path-12_40_" style="fill:#2476FF;" d="M175.535,193.226h10.821c2.085,0,3.777,1.731,3.777,3.868
			c0,2.136-1.692,3.868-3.777,3.868h-0.504c-2.086,0-3.777,1.731-3.777,3.868c0,2.136,1.691,3.868,3.777,3.868h23.26
			c2.086,0,3.777,1.732,3.777,3.867c0,2.137-1.691,3.869-3.777,3.869h-27.953h-57.136c-2.085,0-3.777-1.732-3.777-3.869
			c0-2.135,1.692-3.867,3.777-3.867h6.456c2.087,0,3.778-1.732,3.778-3.868c0-2.137-1.691-3.868-3.778-3.868H99.756
			c-2.087,0-3.777-1.732-3.777-3.868c0-2.137,1.69-3.868,3.777-3.868h7.261H175.535z"/>
		<path id="path-13_33_" style="fill:#2476FF;" d="M82.41,209.951c2.581,0,4.673-0.891,4.673-1.99c0-1.098-2.092-1.988-4.673-1.988
			H68.087c-2.582,0-4.674,0.89-4.674,1.988c0,1.099,2.092,1.99,4.674,1.99H82.41z"/>
		<path id="path-14_28_" style="fill:#2476FF;" d="M175.535,193.226h10.821c2.085,0,3.777,1.731,3.777,3.868
			c0,2.136-1.692,3.868-3.777,3.868h-0.504c-2.086,0-3.777,1.731-3.777,3.868c0,2.136,1.691,3.868,3.777,3.868h23.26
			c2.086,0,3.777,1.732,3.777,3.867c0,2.137-1.691,3.869-3.777,3.869h-27.953h-57.136c-2.085,0-3.777-1.732-3.777-3.869
			c0-2.135,1.692-3.867,3.777-3.867h6.456c2.087,0,3.778-1.732,3.778-3.868c0-2.137-1.691-3.868-3.778-3.868H99.756
			c-2.087,0-3.777-1.732-3.777-3.868c0-2.137,1.69-3.868,3.777-3.868h7.261H175.535z"/>
		<path id="path-15_26_" style="fill:#2476FF;" d="M82.41,209.951c2.581,0,4.673-0.891,4.673-1.99c0-1.098-2.092-1.988-4.673-1.988
			H68.087c-2.582,0-4.674,0.89-4.674,1.988c0,1.099,2.092,1.99,4.674,1.99H82.41z"/>
		<path id="path-16_22_" style="fill:#2476FF;" d="M34.836,133.743h4.256c0.82,0,1.485,0.862,1.485,1.924
			c0,1.063-0.665,1.923-1.485,1.923h-0.199c-0.819,0-1.486,0.861-1.486,1.924s0.667,1.924,1.486,1.924h9.15
			c0.82,0,1.485,0.861,1.485,1.923c0,1.063-0.665,1.924-1.485,1.924H37.048H14.575c-0.82,0-1.485-0.861-1.485-1.924
			c0-1.062,0.665-1.923,1.485-1.923h2.539c0.821,0,1.486-0.861,1.486-1.924s-0.665-1.924-1.486-1.924H5.03
			c-0.82,0-1.485-0.86-1.485-1.923c0-1.062,0.665-1.924,1.485-1.924h2.857H34.836z"/>
	</g>
</g>
<g>
</g>
<g>
</g>
<g>
</g>
<g>
</g>
<g>
</g>
<g>
</g>
<g>
</g>
<g>
</g>
<g>
</g>
<g>
</g>
<g>
</g>
<g>
</g>
<g>
</g>
<g>
</g>
<g>
</g>
</svg>
