<?xml version="1.0" encoding="iso-8859-1"?>
<!-- Generator: Adobe Illustrator 19.1.0, SVG Export Plug-In . SVG Version: 6.00 Build 0)  -->
<svg version="1.1" id="Capa_1" xmlns="http://www.w3.org/2000/svg" xmlns:xlink="http://www.w3.org/1999/xlink" x="0px" y="0px"
	 viewBox="0 0 218.333 218.333" style="enable-background:new 0 0 218.333 218.333;" xml:space="preserve">
<g>
	<g id="group-125svg">
		<path id="path-1_29_" style="fill:#FF3A2F;" d="M78.665,179.416h16.018c3.087,0,5.591,1.115,5.591,2.487
			c0,1.374-2.504,2.487-5.591,2.487h-0.745c-3.09,0-5.592,1.114-5.592,2.487s2.502,2.488,5.592,2.488h34.429
			c3.087,0,5.591,1.113,5.591,2.487c0,1.373-2.504,2.487-5.591,2.487H86.99H41.514c-3.089,0-5.592-1.114-5.592-2.487
			c0-1.374,2.503-2.487,5.592-2.487h9.555c3.087,0,5.591-1.115,5.591-2.488s-2.504-2.487-5.591-2.487H5.591
			c-3.088,0-5.591-1.113-5.591-2.487c0-1.372,2.503-2.487,5.591-2.487H16.34H78.665z"/>
		<path id="path-2_29_" style="fill:#FF3A2F;" d="M177.798,196.491c3.525,0,6.384-1.271,6.384-2.84c0-1.568-2.859-2.84-6.384-2.84
			h-19.566c-3.525,0-6.383,1.272-6.383,2.84c0,1.569,2.858,2.84,6.383,2.84H177.798z"/>
		<path id="path-3_29_" style="fill:#FF3A2F;" d="M192.943,157.075h7.354c1.418,0,2.568,0.631,2.568,1.41
			c0,0.78-1.15,1.411-2.568,1.411h-0.342c-1.419,0-2.567,0.632-2.567,1.411c0,0.78,1.148,1.412,2.567,1.412h15.81
			c1.418,0,2.568,0.631,2.568,1.41c0,0.779-1.15,1.412-2.568,1.412h-19h-38.833c-1.418,0-2.569-0.633-2.569-1.412
			c0-0.779,1.151-1.41,2.569-1.41h4.386c1.419,0,2.568-0.632,2.568-1.412c0-0.779-1.149-1.411-2.568-1.411h-20.882
			c-1.418,0-2.567-0.631-2.567-1.411c0-0.779,1.149-1.41,2.567-1.41h4.935H192.943z"/>
		<path id="path-4_29_" style="fill:#FF3A2F;" d="M137.167,167.067c2.644,0,4.789-0.522,4.789-1.168
			c0-0.644-2.145-1.168-4.789-1.168h-14.68c-2.645,0-4.789,0.524-4.789,1.168c0,0.646,2.144,1.168,4.789,1.168H137.167z"/>
		<path id="path-5_29_" style="fill:#142A3B;" d="M154.045,141.42c-2.012,0-3.639-1.614-3.639-3.605
			c0-1.989,1.627-3.605,3.639-3.605c12.736,0,23.095-10.262,23.095-22.877c0-12.616-10.359-22.878-23.095-22.878
			c-2.012,0-3.639-1.614-3.639-3.605c0-1.991,1.627-3.604,3.639-3.604c16.747,0,30.372,13.497,30.372,30.087
			S170.792,141.42,154.045,141.42z"/>
		<path id="path-6_29_" style="fill:#142A3B;" d="M47.007,141.42c-16.748,0-30.372-13.497-30.372-30.087
			s13.624-30.087,30.372-30.087c2.011,0,3.639,1.613,3.639,3.604c0,1.991-1.628,3.605-3.639,3.605
			c-12.736,0-23.095,10.262-23.095,22.878c0,12.615,10.359,22.877,23.095,22.877c2.011,0,3.639,1.616,3.639,3.605
			C50.646,139.806,49.018,141.42,47.007,141.42z"/>
		<path id="path-7_29_" style="fill:#0CB04A;" d="M150.188,173.126H49.932c-2.008,0-3.635-1.627-3.635-3.635V81.319h107.526v88.172
			C153.823,171.499,152.196,173.126,150.188,173.126z"/>
		<path id="path-8_29_" style="fill:#FBB713;" d="M125.009,43.781v-8.323c0-7.52-6.154-13.616-13.745-13.616H90.771
			c-7.591,0-13.745,6.096-13.745,13.616v8.323L46.297,54.75v29.252h108.24V54.75L125.009,43.781z"/>
		<path id="path-9_27_" style="opacity:0.35;fill:#020403;enable-background:new    ;" d="M139.059,84.366v65.305
			c0,7.096-6.008,12.85-13.417,12.85H46.534c1.111,6.021,6.572,10.605,13.179,10.605h80.693c7.409,0,13.417-5.753,13.417-12.85
			v-75.91H139.059z"/>
		<path id="path-10_25_" style="opacity:0.35;fill:#020403;enable-background:new    ;" d="M125.009,43.781v-8.323
			c0-7.52-6.154-13.616-13.745-13.616H96.5c7.591,0,13.745,6.096,13.745,13.616v4.525c0,2.288,1.422,4.341,3.577,5.162l18.828,7.181
			c3.828,1.461,6.354,5.105,6.354,9.171v22.505h15.533V54.75L125.009,43.781z"/>
		<path id="path-11_22_" style="fill:#FF3A2F;" d="M122,114.959c0-5.357-4.384-9.701-9.793-9.701c-5.407,0-9.792,4.344-9.792,9.701
			c0,2.555-2.796,2.555-2.796,0c0-5.357-4.384-9.701-9.793-9.701c-5.408,0-9.793,4.344-9.793,9.701
			c0,4.136,20.984,34.228,20.984,34.228S122,119.095,122,114.959z"/>
		<path id="path-12_18_" style="fill:#FFFFFF;" d="M93.636,33.953c0,2.904-2.377,5.257-5.306,5.257
			c-2.931,0-5.306-2.353-5.306-5.257c0-2.902,2.375-5.255,5.306-5.255C91.259,28.698,93.636,31.051,93.636,33.953z"/>
		<path id="path-13_14_" style="fill:#FFFFFF;" d="M56.726,148.854c-2.011,0-3.639-1.613-3.639-3.605V97.258
			c0-1.992,1.628-3.605,3.639-3.605c2.011,0,3.639,1.613,3.639,3.605v47.991C60.365,147.241,58.737,148.854,56.726,148.854z"/>
	</g>
</g>
<g>
</g>
<g>
</g>
<g>
</g>
<g>
</g>
<g>
</g>
<g>
</g>
<g>
</g>
<g>
</g>
<g>
</g>
<g>
</g>
<g>
</g>
<g>
</g>
<g>
</g>
<g>
</g>
<g>
</g>
</svg>
