<?xml version="1.0" encoding="iso-8859-1"?>
<!-- Generator: Adobe Illustrator 19.1.0, SVG Export Plug-In . SVG Version: 6.00 Build 0)  -->
<svg version="1.1" id="Capa_1" xmlns="http://www.w3.org/2000/svg" xmlns:xlink="http://www.w3.org/1999/xlink" x="0px" y="0px"
	 viewBox="0 0 218.332 218.332" style="enable-background:new 0 0 218.332 218.332;" xml:space="preserve">
<g>
	<g id="group-93svg">
		<path id="path-1_161_" style="fill:#FBB713;" d="M145.43,205.475H77.128c-10.954,0-19.832-8.881-19.832-19.833V88.52
			c0-10.954,8.878-19.833,19.832-19.833h68.302c10.952,0,19.831,8.879,19.831,19.833v97.122
			C165.261,196.594,156.382,205.475,145.43,205.475z"/>
		<path id="path-2_161_" style="fill:#FFFFFF;" d="M67.818,162.907c-2.009,0-3.639-1.614-3.639-3.605v-65.29
			c0-8.169,6.709-14.815,14.956-14.815c2.011,0,3.638,1.614,3.638,3.605c0,1.991-1.627,3.605-3.638,3.605
			c-4.232,0-7.678,3.411-7.678,7.605v65.29C71.457,161.293,69.828,162.907,67.818,162.907z"/>
		<path id="path-3_161_" style="fill:#FF3A2F;" d="M122.296,33.369c3.56-3.065,5.858-7.586,5.858-12.625
			c0-9.233-7.556-16.746-16.875-16.746c-9.32,0-16.875,7.471-16.875,16.704c0,5.038,2.297,9.61,5.857,12.674
			c-15.309,4.662-26.44,17.576-26.44,35.575h74.915C148.736,50.952,137.605,38.031,122.296,33.369z"/>
		<path id="path-4_160_" style="fill:#FFFFFF;" d="M101.22,25.953c-2.004,0-3.631-1.073-3.639-3.06
			c-0.014-4.44,1.905-8.389,5.264-11.301c1.506-1.307,3.805-1.028,5.134,0.473c1.322,1.499,1.169,3.843-0.345,5.154
			c-1.769,1.536-2.782,3.265-2.775,5.618c0.007,1.991-1.617,3.116-3.628,3.116C101.227,25.953,101.224,25.953,101.22,25.953z"/>
		<path id="path-5_160_" style="opacity:0.25;fill:#020403;enable-background:new    ;" d="M147.614,68.687h-0.744v101.087
			c0,9.654-7.9,17.481-17.646,17.481H57.296v0.736c0,9.655,7.901,17.484,17.647,17.484h72.671c9.746,0,17.647-7.829,17.647-17.484
			V86.169C165.261,76.514,157.36,68.687,147.614,68.687z"/>
		<path id="path-6_158_" style="opacity:0.35;fill:#020403;enable-background:new    ;" d="M122.296,33.342
			c3.56-3.065,5.858-7.593,5.858-12.631c0-9.232-7.556-16.748-16.875-16.748c-2.654,0-5.131,0.659-7.365,1.739
			c5.621,2.721,9.527,8.398,9.527,15.009c0,5.038-2.297,9.566-5.857,12.631c15.309,4.662,26.44,17.376,26.44,35.594h14.712
			C148.736,50.718,137.605,38.004,122.296,33.342z"/>
		<path id="path-7_157_" style="fill:#142A3B;" d="M161.624,107.95h-32.75c-2.011,0-3.639-1.509-3.639-3.5
			c0-1.99,1.628-3.499,3.639-3.499h32.75c2.011,0,3.639,1.509,3.639,3.499C165.263,106.44,163.635,107.95,161.624,107.95z"/>
		<path id="path-8_153_" style="fill:#142A3B;" d="M161.624,126.95h-32.75c-2.011,0-3.639-2.009-3.639-4.001c0-1.99,1.628-4,3.639-4
			h32.75c2.011,0,3.639,2.01,3.639,4C165.263,124.94,163.635,126.95,161.624,126.95z"/>
		<path id="path-9_147_" style="fill:#142A3B;" d="M161.624,143.949h-32.75c-2.011,0-3.639-1.01-3.639-3c0-1.99,1.628-3,3.639-3
			h32.75c2.011,0,3.639,1.01,3.639,3C165.263,142.939,163.635,143.949,161.624,143.949z"/>
		<path id="path-10_132_" style="fill:#2476FF;" d="M78.678,214.37c2.77,0,5.014-0.955,5.014-2.134c0-1.178-2.244-2.134-5.014-2.134
			H63.314c-2.768,0-5.013,0.956-5.013,2.134c0,1.179,2.245,2.134,5.013,2.134H78.678z"/>
		<path id="path-11_116_" style="fill:#2476FF;" d="M36.705,178.95h4.186c0.806,0,1.461,0.849,1.461,1.893
			c0,1.044-0.655,1.892-1.461,1.892h-0.195c-0.807,0-1.461,0.847-1.461,1.893c0,1.044,0.654,1.891,1.461,1.891h8.997
			c0.808,0,1.462,0.846,1.462,1.891s-0.654,1.892-1.462,1.892H38.881H16.779c-0.807,0-1.461-0.847-1.461-1.892
			s0.654-1.891,1.461-1.891h2.497c0.807,0,1.461-0.847,1.461-1.891c0-1.046-0.654-1.893-1.461-1.893H7.391
			c-0.806,0-1.461-0.848-1.461-1.892c0-1.044,0.655-1.893,1.461-1.893H10.2H36.705z"/>
		<path id="path-12_99_" style="fill:#2476FF;" d="M199.378,144.405h2.417c0.466,0,0.844,0.489,0.844,1.092
			s-0.378,1.093-0.844,1.093h-0.112c-0.467,0-0.844,0.489-0.844,1.093c0,0.603,0.377,1.093,0.844,1.093h5.196
			c0.466,0,0.844,0.488,0.844,1.091c0,0.604-0.378,1.093-0.844,1.093h-6.245H187.87c-0.466,0-0.844-0.489-0.844-1.093
			c0-0.603,0.378-1.091,0.844-1.091h1.442c0.466,0,0.844-0.49,0.844-1.093c0-0.604-0.378-1.093-0.844-1.093h-6.864
			c-0.466,0-0.844-0.49-0.844-1.093s0.378-1.092,0.844-1.092h1.622H199.378z"/>
		<path id="path-13_83_" style="fill:#2476FF;" d="M7.348,190.405c0.999,0,1.808-0.592,1.808-1.321c0-0.728-0.809-1.318-1.808-1.318
			H1.807c-0.998,0-1.807,0.59-1.807,1.318c0,0.729,0.809,1.321,1.807,1.321H7.348z"/>
		<path id="path-14_66_" style="fill:#2476FF;" d="M178.264,195.838h11.606c2.238,0,4.052,1.371,4.052,3.061
			s-1.814,3.061-4.052,3.061h-0.54c-2.238,0-4.052,1.371-4.052,3.061c0,1.691,1.814,3.062,4.052,3.062h24.95
			c2.238,0,4.052,1.371,4.052,3.062c0,1.689-1.814,3.061-4.052,3.061h-29.984H123.01c-2.238,0-4.052-1.372-4.052-3.061
			c0-1.691,1.814-3.062,4.052-3.062h6.925c2.237,0,4.051-1.371,4.051-3.062c0-1.69-1.814-3.061-4.051-3.061H96.979
			c-2.238,0-4.052-1.371-4.052-3.061s1.814-3.061,4.052-3.061h7.789H178.264z"/>
	</g>
</g>
<g>
</g>
<g>
</g>
<g>
</g>
<g>
</g>
<g>
</g>
<g>
</g>
<g>
</g>
<g>
</g>
<g>
</g>
<g>
</g>
<g>
</g>
<g>
</g>
<g>
</g>
<g>
</g>
<g>
</g>
</svg>
