<?xml version="1.0" encoding="iso-8859-1"?>
<!-- Generator: Adobe Illustrator 19.1.0, SVG Export Plug-In . SVG Version: 6.00 Build 0)  -->
<svg version="1.1" id="Capa_1" xmlns="http://www.w3.org/2000/svg" xmlns:xlink="http://www.w3.org/1999/xlink" x="0px" y="0px"
	 viewBox="0 0 217.229 217.229" style="enable-background:new 0 0 217.229 217.229;" xml:space="preserve">
<g>
	<g id="group-129svg">
		<path id="path-1_33_" style="fill:#FF3A2F;" d="M69.158,177.126H49.125c-3.862,0-6.993,2.37-6.993,5.293
			c0,2.925,3.131,5.294,6.993,5.294h0.933c3.862,0,6.993,2.37,6.993,5.292c0,2.923-3.131,5.293-6.993,5.293H6.994
			c-3.863,0-6.994,2.371-6.994,5.294c0,2.923,3.131,5.292,6.994,5.292h51.751h105.78c3.862,0,6.994-2.369,6.994-5.292
			c0-2.923-3.132-5.294-6.994-5.294h-11.952c-3.863,0-6.993-2.37-6.993-5.293c0-2.922,3.13-5.292,6.993-5.292h46.94
			c3.863,0,6.994-2.369,6.994-5.294c0-2.923-3.131-5.293-6.994-5.293h-3.503H69.158z"/>
		<path id="path-2_33_" style="fill:#FF3A2F;" d="M193.398,210.303c-3.238,0-5.863-2.541-5.863-5.674
			c0-3.132,2.625-5.673,5.863-5.673h17.968c3.238,0,5.863,2.541,5.863,5.673c0,3.133-2.625,5.674-5.863,5.674H193.398z"/>
		<path id="path-3_33_" style="fill:#2476FF;" d="M133.342,182.104H9.253c-2.018,0-3.65-1.631-3.65-3.65V51.318
			c0-0.862,0.307-1.695,0.863-2.355L40.927,8.219c0.695-0.819,1.714-1.293,2.787-1.293h89.628c2.017,0,3.649,1.632,3.649,3.649
			v167.879C136.991,180.473,135.359,182.104,133.342,182.104z"/>
		<path id="path-4_33_" style="fill:#2476FF;" d="M42.1,6.926v40.145c0,2.017-1.632,3.649-3.65,3.649H5.603L42.1,6.926z"/>
		<path id="path-5_33_" style="opacity:0.35;enable-background:new    ;" d="M42.1,6.926v40.145c0,2.017-1.632,3.649-3.65,3.649
			H5.603L42.1,6.926z"/>
	</g>
</g>
<g>
</g>
<g>
</g>
<g>
</g>
<g>
</g>
<g>
</g>
<g>
</g>
<g>
</g>
<g>
</g>
<g>
</g>
<g>
</g>
<g>
</g>
<g>
</g>
<g>
</g>
<g>
</g>
<g>
</g>
</svg>
