<?xml version="1.0" encoding="iso-8859-1"?>
<!-- Generator: Adobe Illustrator 19.1.0, SVG Export Plug-In . SVG Version: 6.00 Build 0)  -->
<svg version="1.1" id="Capa_1" xmlns="http://www.w3.org/2000/svg" xmlns:xlink="http://www.w3.org/1999/xlink" x="0px" y="0px"
	 viewBox="0 0 216.29 216.29" style="enable-background:new 0 0 216.29 216.29;" xml:space="preserve">
<g>
	<g id="group-11svg">
		<path id="path-1_12_" style="fill:#FBB713;" d="M80.361,185.54h15.723c3.031,0,5.489,1.543,5.489,3.445
			c0,1.904-2.458,3.446-5.489,3.446h-0.732c-3.031,0-5.488,1.544-5.488,3.446c0,1.903,2.457,3.445,5.488,3.445h33.8
			c3.031,0,5.489,1.543,5.489,3.446c0,1.902-2.458,3.445-5.489,3.445H88.533H43.888c-3.031,0-5.488-1.543-5.488-3.445
			c0-1.903,2.457-3.446,5.488-3.446h9.381c3.032,0,5.489-1.542,5.489-3.445c0-1.902-2.457-3.446-5.489-3.446H8.624
			c-3.031,0-5.488-1.542-5.488-3.446c0-1.902,2.457-3.445,5.488-3.445h10.552H80.361z"/>
		<path id="path-2_12_" style="fill:#FBB713;" d="M204.921,216.29c4.548,0,8.234-2.314,8.234-5.167c0-2.855-3.686-5.169-8.234-5.169
			h-25.231c-4.548,0-8.234,2.314-8.234,5.169c0,2.853,3.686,5.167,8.234,5.167H204.921z"/>
		<path id="path-3_12_" style="fill:#142A3B;" d="M171.632,140.426c0,6.947-5.685,12.58-12.697,12.58
			c-7.014,0-12.699-5.633-12.699-12.58c0-6.948,5.685-12.58,12.699-12.58C165.947,127.846,171.632,133.478,171.632,140.426z"/>
		<path id="path-4_12_" style="fill:#142A3B;" d="M130.46,156.055H64.388V89.728h66.072V156.055z"/>
		<path id="path-5_12_" style="fill:#142A3B;" d="M109.973,126.497H83.23c-2.01,0-3.638-1.615-3.638-3.605
			c0-1.991,1.628-3.605,3.638-3.605h26.742c2.01,0,3.638,1.614,3.638,3.605C113.611,124.882,111.982,126.497,109.973,126.497z"/>
		<path id="path-6_12_" style="fill:#FF3A2F;" d="M171.632,140.426c0,6.947-5.685,12.58-12.697,12.58
			c-7.014,0-12.699-5.633-12.699-12.58c0-6.948,5.685-12.58,12.699-12.58C165.947,127.846,171.632,133.478,171.632,140.426z"/>
		<path id="path-7_12_" style="fill:#142A3B;" d="M96.983,41.872c-2.012,0-3.639-1.615-3.639-3.606V7.416
			c0-1.991,1.627-3.606,3.639-3.606c2.011,0,3.639,1.615,3.639,3.606v30.85C100.622,40.257,98.994,41.872,96.983,41.872z"/>
		<path id="path-8_12_" style="fill:#FFFFFF;" d="M159.076,136.614c0,2.182-1.786,3.951-3.989,3.951s-3.989-1.769-3.989-3.951
			s1.786-3.951,3.989-3.951S159.076,134.432,159.076,136.614z"/>
		<path id="path-9_11_" style="opacity:0.25;fill:#020403;enable-background:new    ;" d="M165.762,129.849
			c1.266,1.957,2.022,4.27,2.022,6.765c0,6.948-5.686,12.58-12.698,12.58c-2.52,0-4.854-0.749-6.828-2.004
			c2.256,3.489,6.183,5.815,10.676,5.815c7.012,0,12.697-5.632,12.697-12.58C171.632,135.975,169.284,132.086,165.762,129.849z"/>
		<path id="path-10_10_" style="fill:#142A3B;" d="M63.507,190.362h66.953V66.857c0-18.316-14.988-33.163-33.477-33.163
			S63.507,48.541,63.507,66.857V190.362z"/>
		<path id="path-11_10_" style="fill:#142A3B;" d="M96.983,38.06c-2.012,0-3.639-1.613-3.639-3.604V3.604
			C93.344,1.613,94.972,0,96.983,0c2.011,0,3.639,1.613,3.639,3.604v30.852C100.622,36.447,98.994,38.06,96.983,38.06z"/>
		<path id="path-12_10_" style="fill:#142A3B;" d="M158.749,131.451c-2.011,0-3.639-1.613-3.639-3.605V62.193
			c0-22.864-18.776-41.464-41.854-41.464H80.924c-2.011,0-3.639-1.614-3.639-3.605s1.628-3.605,3.639-3.605h32.331
			c27.092,0,49.132,21.835,49.132,48.674v65.653C162.387,129.838,160.76,131.451,158.749,131.451z"/>
		<path id="path-13_8_" style="fill:#FF3A2F;" d="M63.507,190.362h66.953V66.857c0-18.316-14.988-33.163-33.477-33.163
			S63.507,48.541,63.507,66.857V190.362z"/>
		<path id="path-14_6_" style="opacity:0.25;fill:#020403;enable-background:new    ;" d="M96.983,33.694
			c-2.653,0-5.22,0.337-7.695,0.914c14.773,3.45,25.782,16.561,25.782,32.249v123.505h15.39V66.857
			C130.46,48.541,115.473,33.694,96.983,33.694z"/>
		<path id="path-15_5_" style="fill:#FF3A2F;" d="M107.491,17.428c0,5.483-4.486,9.927-10.02,9.927
			c-5.534,0-10.02-4.444-10.02-9.927c0-5.482,4.486-9.926,10.02-9.926C103.005,7.502,107.491,11.946,107.491,17.428z"/>
		<path id="path-16_5_" style="opacity:0.25;fill:#020403;enable-background:new    ;" d="M97.628,7.518
			c1.338,1.686,2.168,3.786,2.168,6.099c0,5.483-4.486,9.927-10.018,9.927c-0.055,0-0.104-0.016-0.158-0.016
			c1.835,2.313,4.652,3.827,7.851,3.827c5.534,0,10.02-4.444,10.02-9.927C107.491,11.999,103.087,7.603,97.628,7.518z"/>
		<path id="path-17_4_" style="fill:#FFFFFF;" d="M97.082,14.651c0,1.943-1.591,3.518-3.553,3.518c-1.962,0-3.552-1.575-3.552-3.518
			c0-1.944,1.59-3.52,3.552-3.52C95.491,11.131,97.082,12.707,97.082,14.651z"/>
		<path id="path-18_3_" style="fill:#FBB713;" d="M130.46,156.055H63.507V89.728h66.953V156.055z"/>
		<path id="path-19_2_" style="opacity:0.25;fill:#020403;enable-background:new    ;" d="M115.071,89.728v66.327h15.39V89.728
			H115.071z"/>
		<path id="path-20_2_" style="fill:#142A3B;" d="M109.973,126.497H83.23c-2.01,0-3.638-1.615-3.638-3.605
			c0-1.991,1.628-3.605,3.638-3.605h26.742c2.01,0,3.638,1.614,3.638,3.605C113.611,124.882,111.982,126.497,109.973,126.497z"/>
		<path id="path-21_2_" style="fill:#FFFFFF;" d="M70.229,138.054c-2.011,0-3.64-1.614-3.64-3.606V73.46
			c0-12.449,6.287-23.957,16.813-30.783c1.684-1.092,3.937-0.623,5.04,1.042c1.1,1.665,0.628,3.9-1.053,4.99
			c-8.468,5.49-13.521,14.743-13.521,24.751v60.988C73.868,136.44,72.24,138.054,70.229,138.054z"/>
	</g>
</g>
<g>
</g>
<g>
</g>
<g>
</g>
<g>
</g>
<g>
</g>
<g>
</g>
<g>
</g>
<g>
</g>
<g>
</g>
<g>
</g>
<g>
</g>
<g>
</g>
<g>
</g>
<g>
</g>
<g>
</g>
</svg>
