<?xml version="1.0" encoding="iso-8859-1"?>
<!-- Generator: Adobe Illustrator 19.1.0, SVG Export Plug-In . SVG Version: 6.00 Build 0)  -->
<svg version="1.1" id="Capa_1" xmlns="http://www.w3.org/2000/svg" xmlns:xlink="http://www.w3.org/1999/xlink" x="0px" y="0px"
	 viewBox="0 0 218.333 218.333" style="enable-background:new 0 0 218.333 218.333;" xml:space="preserve">
<g>
	<g id="group-41svg">
		<path id="path-1_104_" style="fill:#FF3A2F;" d="M155.582,112.156c0,26.683-21.836,48.313-48.769,48.313
			c-26.936,0-48.77-21.63-48.77-48.313s21.834-48.313,48.77-48.313C133.746,63.843,155.582,85.473,155.582,112.156z"/>
		<path id="path-2_104_" style="opacity:0.25;fill:#020403;enable-background:new    ;" d="M115.239,64.611
			c13.013,8.676,21.577,23.401,21.577,40.109c0,26.683-21.835,48.313-48.769,48.313c-2.879,0-5.683-0.295-8.427-0.768
			c7.769,5.178,17.123,8.204,27.193,8.204c26.933,0,48.769-21.63,48.769-48.313C155.582,88.326,138.149,68.573,115.239,64.611z"/>
		<path id="path-3_104_" style="fill:#FFFFFF;" d="M77.451,149.431c-0.931,0-1.862-0.352-2.573-1.056
			c-1.422-1.407-1.422-3.69,0-5.098c8.525-8.444,13.22-19.672,13.22-31.614s-4.695-23.169-13.22-31.614
			c-1.422-1.407-1.422-3.69,0-5.098c1.422-1.408,3.724-1.408,5.146,0c9.9,9.807,15.351,22.844,15.351,36.712
			c0,13.867-5.451,26.906-15.351,36.712C79.313,149.079,78.381,149.431,77.451,149.431z"/>
		<path id="path-4_103_" style="fill:#142A3B;" d="M180.418,112.156c0-17.338,11.451-32.013,27.262-37.047
			c-3.792-1.208-7.829-1.875-12.026-1.875c-21.7,0-39.291,17.426-39.291,38.922s17.591,38.922,39.291,38.922
			c4.197,0,8.234-0.667,12.026-1.874C191.869,144.169,180.418,129.494,180.418,112.156z"/>
		<path id="path-5_103_" style="fill:#2476FF;" d="M56.33,57.949c0,7.416-6.069,13.427-13.556,13.427
			c-7.486,0-13.554-6.011-13.554-13.427c0-7.417,6.068-13.428,13.554-13.428C50.261,44.521,56.33,50.532,56.33,57.949z"/>
		<path id="path-6_102_" style="fill:#2476FF;" d="M27.031,29.131c0,3.969-3.248,7.186-7.256,7.186
			c-4.006,0-7.254-3.217-7.254-7.186c0-3.97,3.248-7.188,7.254-7.188C23.783,21.943,27.031,25.161,27.031,29.131z"/>
		<path id="path-7_102_" style="fill:#FFFFFF;" d="M79.245,110.666c0,3.362-2.752,6.088-6.145,6.088
			c-3.394,0-6.144-2.726-6.144-6.088c0-3.36,2.75-6.086,6.144-6.086C76.493,104.58,79.245,107.306,79.245,110.666z"/>
		<path id="path-8_99_" style="fill:#2476FF;" d="M26.443,90.126h5.383c1.038,0,1.88,0.902,1.88,2.013
			c0,1.112-0.842,2.013-1.88,2.013h-0.25c-1.038,0-1.879,0.901-1.879,2.013c0,1.111,0.841,2.013,1.879,2.013h11.573
			c1.038,0,1.879,0.901,1.879,2.012c0,1.112-0.841,2.013-1.879,2.013H29.24H13.955c-1.038,0-1.881-0.901-1.881-2.013
			c0-1.111,0.843-2.012,1.881-2.012h3.211c1.038,0,1.88-0.902,1.88-2.013c0-1.112-0.842-2.013-1.88-2.013H1.88
			c-1.039,0-1.88-0.901-1.88-2.013c0-1.111,0.841-2.013,1.88-2.013h3.612H26.443z"/>
		<path id="path-9_94_" style="fill:#2476FF;" d="M163.175,180.282h15.82c3.048,0,5.521,1.202,5.521,2.683
			c0,1.484-2.473,2.686-5.521,2.686h-0.738c-3.049,0-5.522,1.202-5.522,2.686c0,1.481,2.473,2.683,5.522,2.683h34.006
			c3.048,0,5.521,1.202,5.521,2.686c0,1.482-2.473,2.684-5.521,2.684h-40.866h-44.913c-3.051,0-5.522-1.202-5.522-2.684
			c0-1.484,2.471-2.686,5.522-2.686h9.437c3.05,0,5.522-1.202,5.522-2.683c0-1.484-2.472-2.686-5.522-2.686H91.008
			c-3.051,0-5.523-1.202-5.523-2.686c0-1.481,2.472-2.683,5.523-2.683h10.614H163.175z"/>
		<path id="path-10_86_" style="fill:#2476FF;" d="M200.359,117.746h5.206c1.004,0,1.817,0.813,1.817,1.814
			s-0.813,1.812-1.817,1.812h-0.243c-1.002,0-1.817,0.813-1.817,1.814c0,1,0.815,1.812,1.817,1.812h11.193
			c1.003,0,1.818,0.812,1.818,1.813s-0.815,1.812-1.818,1.812h-13.45h-14.784c-1.003,0-1.817-0.811-1.817-1.812
			s0.814-1.813,1.817-1.813h3.107c1.004,0,1.817-0.812,1.817-1.812c0-1.001-0.813-1.814-1.817-1.814h-14.784
			c-1.003,0-1.816-0.811-1.816-1.812s0.813-1.814,1.816-1.814h3.494H200.359z"/>
	</g>
</g>
<g>
</g>
<g>
</g>
<g>
</g>
<g>
</g>
<g>
</g>
<g>
</g>
<g>
</g>
<g>
</g>
<g>
</g>
<g>
</g>
<g>
</g>
<g>
</g>
<g>
</g>
<g>
</g>
<g>
</g>
</svg>
