<?xml version="1.0" encoding="iso-8859-1"?>
<!-- Generator: Adobe Illustrator 19.1.0, SVG Export Plug-In . SVG Version: 6.00 Build 0)  -->
<svg version="1.1" id="Capa_1" xmlns="http://www.w3.org/2000/svg" xmlns:xlink="http://www.w3.org/1999/xlink" x="0px" y="0px"
	 viewBox="0 0 217.229 217.229" style="enable-background:new 0 0 217.229 217.229;" xml:space="preserve">
<g>
	<g id="group-47svg">
		<path id="path-1_102_" style="fill:#2476FF;" d="M87.497,206.524h9.705c1.871,0,3.387-1.79,3.387-4
			c0-2.208-1.516-3.998-3.387-3.998H96.75c-1.871,0-3.388-1.79-3.388-3.999c0-2.208,1.517-3.998,3.388-3.998h20.861
			c1.871,0,3.388-1.79,3.388-4c0-2.208-1.517-3.999-3.388-3.999h-25.07H41.299c-1.871,0-3.388,1.791-3.388,3.999
			c0,2.21,1.517,4,3.388,4h5.79c1.871,0,3.388,1.79,3.388,3.998c0,2.209-1.517,3.999-3.388,3.999H19.535
			c-1.871,0-3.388,1.79-3.388,3.998c0,2.21,1.517,4,3.388,4h6.512H87.497z"/>
		<path id="path-2_102_" style="fill:#2476FF;" d="M37.71,142.311h5.129c0.989,0,1.791-0.878,1.791-1.962
			c0-1.085-0.802-1.964-1.791-1.964H42.6c-0.988,0-1.79-0.879-1.79-1.963s0.802-1.964,1.79-1.964h11.026
			c0.988,0,1.79-0.879,1.79-1.963c0-1.085-0.802-1.964-1.79-1.964h-13.25H13.294c-0.989,0-1.791,0.879-1.791,1.964
			c0,1.084,0.802,1.963,1.791,1.963h3.06c0.988,0,1.79,0.88,1.79,1.964s-0.802,1.963-1.79,1.963H1.791
			c-0.989,0-1.791,0.879-1.791,1.964c0,1.084,0.802,1.962,1.791,1.962h3.442H37.71z"/>
		<path id="path-3_102_" style="fill:#2476FF;" d="M133.584,202.116c2.107,0,3.815,1.974,3.815,4.408
			c0,2.434-1.708,4.408-3.815,4.408h-11.691c-2.107,0-3.815-1.974-3.815-4.408c0-2.434,1.708-4.408,3.815-4.408H133.584z"/>
		<path id="path-4_102_" style="fill:#142A3B;" d="M156.395,67.127l-88.978,88.975l0,0"/>
		<path id="path-5_101_" style="fill:#FF3A2F;" d="M69.977,158.662l-5.12-5.119l88.979-88.975l5.119,5.12L69.977,158.662z"/>
		<path id="path-6_98_" style="fill:#FF3A2F;" d="M126.482,27.359l77.199-20.685c7.996-2.142,15.312,5.173,13.17,13.169
			l-20.685,77.198c-2.143,7.995-12.137,10.672-17.991,4.819c-9.72-26.737-28.253-45.838-56.513-56.511
			C115.808,39.494,118.486,29.501,126.482,27.359z"/>
		<path id="path-7_95_" style="opacity:0.35;enable-background:new    ;" d="M170.143,84.836
			c-9.619-23.246-26.4-40.285-50.984-50.567c-1.254,3.663-0.625,7.951,2.503,11.08C143.496,53.595,159.5,66.892,170.143,84.836z"/>
		<path id="path-8_74_" style="opacity:0.35;enable-background:new    ;" d="M210.541,7.223L189.855,84.42
			c-2.006,7.486-10.857,10.212-16.785,5.736c1.901,3.728,3.62,7.616,5.106,11.704c5.853,5.853,15.847,3.176,17.989-4.82
			l20.686-77.197c1.487-5.547-1.619-10.689-6.306-12.65C210.542,7.204,210.543,7.213,210.541,7.223z"/>
		<path id="path-9_65_" style="fill:#FF3A2F;" d="M28.362,158.975l40.086-10.74c4.151-1.114,7.951,2.685,6.838,6.837l-10.741,40.084
			c-1.112,4.152-6.301,5.542-9.341,2.503c-5.047-13.884-14.671-23.801-29.345-29.343C22.82,165.277,24.211,160.087,28.362,158.975z"
			/>
		<path id="path-10_59_" style="opacity:0.35;enable-background:new    ;" d="M24.259,164.047c-0.093,1.502,0.387,3.055,1.6,4.269
			c5.663,2.138,10.555,4.945,14.741,8.363C36.307,171.467,30.887,167.233,24.259,164.047z"/>
		<path id="path-11_49_" style="opacity:0.35;enable-background:new    ;" d="M69.054,148.158c-0.032,0.202-0.023,0.4-0.079,0.604
			l-10.739,40.085c-0.663,2.471-2.775,3.933-5.013,4.094c0.72,1.522,1.388,3.087,1.981,4.718c3.04,3.039,8.229,1.649,9.341-2.503
			l10.741-40.084C76.344,151.127,72.956,147.55,69.054,148.158z"/>
		<path id="path-12_43_" style="fill:#FF3A2F;" d="M151.672,121.188c-1.999,0-3.621-1.621-3.621-3.62
			c0-23.212-18.885-42.098-42.098-42.098c-2,0-3.62-1.621-3.62-3.621c0-1.998,1.62-3.62,3.62-3.62
			c27.207,0,49.34,22.133,49.34,49.339C155.293,119.567,153.671,121.188,151.672,121.188z"/>
		<path id="path-13_34_" style="fill:#FF3A2F;" d="M130.816,142.043c-2,0-3.621-1.62-3.621-3.619
			c0-23.212-18.885-42.098-42.099-42.098c-1.999,0-3.62-1.621-3.62-3.62c0-2,1.621-3.62,3.62-3.62
			c27.207,0,49.34,22.132,49.34,49.338C134.436,140.423,132.815,142.043,130.816,142.043z"/>
		<path id="path-14_29_" style="fill:#FF3A2F;" d="M109.959,162.902c-1.999,0-3.62-1.621-3.62-3.622
			c0-23.212-18.886-42.096-42.099-42.096c-2,0-3.621-1.621-3.621-3.62c0-2,1.621-3.621,3.621-3.621
			c27.206,0,49.339,22.132,49.339,49.337C113.579,161.281,111.958,162.902,109.959,162.902z"/>
		<path id="path-15_27_" style="fill:#EDEDED;" d="M198.122,37.221c-3.264,3.264-8.556,3.264-11.82,0
			c-3.264-3.263-3.264-8.554,0-11.819c3.264-3.263,8.556-3.263,11.82,0C201.385,28.667,201.385,33.958,198.122,37.221z"/>
	</g>
</g>
<g>
</g>
<g>
</g>
<g>
</g>
<g>
</g>
<g>
</g>
<g>
</g>
<g>
</g>
<g>
</g>
<g>
</g>
<g>
</g>
<g>
</g>
<g>
</g>
<g>
</g>
<g>
</g>
<g>
</g>
</svg>
