<?xml version="1.0" encoding="iso-8859-1"?>
<!-- Generator: Adobe Illustrator 19.1.0, SVG Export Plug-In . SVG Version: 6.00 Build 0)  -->
<svg version="1.1" id="Capa_1" xmlns="http://www.w3.org/2000/svg" xmlns:xlink="http://www.w3.org/1999/xlink" x="0px" y="0px"
	 viewBox="0 0 218.332 218.332" style="enable-background:new 0 0 218.332 218.332;" xml:space="preserve">
<g>
	<g id="group-146svg">
		<path id="path-1_52_" style="fill:#FBB713;" d="M168.951,182.145h14.304c2.758,0,4.993,2.49,4.993,5.562
			c0,3.074-2.235,5.563-4.993,5.563h-0.666c-2.758,0-4.993,2.492-4.993,5.563c0,3.074,2.235,5.564,4.993,5.564h30.749
			c2.759,0,4.994,2.492,4.994,5.562c0,3.072-2.235,5.564-4.994,5.564h-36.952h-75.53c-2.757,0-4.994-2.492-4.994-5.564
			c0-3.07,2.237-5.562,4.994-5.562h8.534c2.758,0,4.994-2.49,4.994-5.564c0-3.071-2.236-5.563-4.994-5.563H68.776
			c-2.759,0-4.994-2.489-4.994-5.563c0-3.072,2.235-5.562,4.994-5.562h9.599H168.951z"/>
		<path id="path-2_52_" style="fill:#FBB713;" d="M68.628,215.822c3.412,0,6.178-1.736,6.178-3.878s-2.766-3.879-6.178-3.879H49.693
			c-3.412,0-6.178,1.737-6.178,3.879s2.766,3.878,6.178,3.878H68.628z"/>
		<path id="path-3_52_" style="fill:#2476FF;" d="M48.867,141.838H0l19.504-46.585L0,48.841h48.867V141.838z"/>
		<path id="path-4_52_" style="fill:#2476FF;" d="M139.862,148.836H48.867V37.841h90.995V148.836z"/>
		<path id="path-5_52_" style="fill:#142A3B;" d="M136.362,199.633c-2.012,0-3.5-1.615-3.5-3.605V30.206
			c0-1.992,1.488-3.606,3.5-3.606c2.011,0,3.5,1.614,3.5,3.606v165.822C139.862,198.018,138.373,199.633,136.362,199.633z"/>
		<path id="path-6_52_" style="fill:#2476FF;" d="M130.561,31.851c0.952,0.407,1.953,0.725,2.985,0.939
			c0.019,0.002,9.384-0.38,9.384-0.38c5.452-2.38,9.262-8.076,9.272-14.366c-0.018-8.498-6.938-15.518-15.519-15.534
			c-8.567,0.016-15.496,6.806-15.506,15.304C121.182,24.147,125.044,29.497,130.561,31.851z"/>
		<path id="path-7_52_" style="opacity:0.35;fill:#020403;enable-background:new    ;" d="M133.565,3.681
			c-3.281,2.797-5.399,6.884-5.405,11.532c0.005,6.332,3.867,11.682,9.384,14.038c0.952,0.407,1.953,0.725,2.985,0.939
			c0.013,0,4.388-0.177,7.158-0.289c-1.364,1.41-2.958,2.582-4.757,3.368c0,0-9.365,0.381-9.384,0.379
			c-1.032-0.214-2.033-0.531-2.985-0.938c-5.517-2.355-9.379-7.706-9.384-14.038C121.186,11.233,126.496,5.104,133.565,3.681z"/>
		<path id="path-8_52_" style="fill:#FFFFFF;" d="M136.289,17.046c2.179,2.158,5.713,2.158,7.893,0c2.179-2.16,2.179-5.662,0-7.82
			c-2.18-2.16-5.714-2.16-7.893,0C134.109,11.384,134.109,14.886,136.289,17.046z"/>
		<path id="path-9_49_" style="opacity:0.35;fill:#020403;enable-background:new    ;" d="M33.161,141.248h15.123v-93.39h-8.139
			L33.161,141.248z"/>
	</g>
</g>
<g>
</g>
<g>
</g>
<g>
</g>
<g>
</g>
<g>
</g>
<g>
</g>
<g>
</g>
<g>
</g>
<g>
</g>
<g>
</g>
<g>
</g>
<g>
</g>
<g>
</g>
<g>
</g>
<g>
</g>
</svg>
