<?xml version="1.0" encoding="iso-8859-1"?>
<!-- Generator: Adobe Illustrator 19.1.0, SVG Export Plug-In . SVG Version: 6.00 Build 0)  -->
<svg version="1.1" id="Capa_1" xmlns="http://www.w3.org/2000/svg" xmlns:xlink="http://www.w3.org/1999/xlink" x="0px" y="0px"
	 viewBox="0 0 218.332 218.332" style="enable-background:new 0 0 218.332 218.332;" xml:space="preserve">
<g>
	<g id="group-154svg">
		<path id="path-1_61_" style="fill:#FF3A2F;" d="M71.046,193.202h14.465c2.789,0,5.05,1.036,5.05,2.315
			c0,1.277-2.261,2.312-5.05,2.312h-0.674c-2.788,0-5.049,1.036-5.049,2.314c0,1.279,2.261,2.316,5.049,2.316h31.096
			c2.789,0,5.051,1.035,5.051,2.313s-2.262,2.314-5.051,2.314H78.564H37.491c-2.789,0-5.049-1.036-5.049-2.314
			s2.26-2.313,5.049-2.313h8.631c2.789,0,5.05-1.037,5.05-2.316c0-1.278-2.261-2.314-5.05-2.314H5.049
			c-2.789,0-5.049-1.035-5.049-2.312c0-1.279,2.26-2.315,5.049-2.315h9.708H71.046z"/>
		<path id="path-2_61_" style="fill:#FF3A2F;" d="M43.189,78.456h4.658c0.898,0,1.626,0.779,1.626,1.741
			c0,0.962-0.728,1.741-1.626,1.741H47.63c-0.898,0-1.626,0.78-1.626,1.741c0,0.962,0.728,1.742,1.626,1.742h10.012
			c0.898,0,1.626,0.779,1.626,1.741c0,0.961-0.728,1.742-1.626,1.742H45.611H32.386c-0.897,0-1.626-0.781-1.626-1.742
			c0-0.962,0.729-1.741,1.626-1.741h2.779c0.898,0,1.626-0.78,1.626-1.742c0-0.961-0.728-1.741-1.626-1.741H21.942
			c-0.899,0-1.626-0.779-1.626-1.741c0-0.962,0.727-1.741,1.626-1.741h3.125H43.189z"/>
		<path id="path-3_61_" style="fill:#FBB713;" d="M202.254,122.691h4.657c0.898,0,1.626,0.78,1.626,1.741
			c0,0.962-0.728,1.742-1.626,1.742h-0.217c-0.898,0-1.625,0.779-1.625,1.74c0,0.962,0.727,1.742,1.625,1.742h10.012
			c0.898,0,1.626,0.78,1.626,1.742c0,0.961-0.728,1.741-1.626,1.741h-12.032h-13.223c-0.898,0-1.626-0.78-1.626-1.741
			c0-0.962,0.728-1.742,1.626-1.742h2.778c0.898,0,1.626-0.78,1.626-1.742c0-0.961-0.728-1.74-1.626-1.74h-13.224
			c-0.897,0-1.625-0.78-1.625-1.742c0-0.961,0.728-1.741,1.625-1.741h3.126H202.254z"/>
		<path id="path-4_61_" style="fill:#0CB04A;" d="M58.334,11.246v10.072h7.639v82.494l-36.215,86.337
			c-0.489,1.166-0.359,2.498,0.35,3.547c0.708,1.057,1.903,1.685,3.178,1.685h106.951c1.25,0,2.417-0.606,3.133-1.619
			c0.713-1.013,0.885-2.306,0.451-3.466l-32.011-86.403V21.318h7.639V11.246H58.334z"/>
		<path id="path-5_61_" style="fill:#FBB713;" d="M143.821,190.296l-32.011-86.403v-0.579H65.973v0.498l-36.215,86.337
			c-0.489,1.166-0.359,2.498,0.35,3.547c0.708,1.057,1.903,1.683,3.178,1.683h106.951c1.249,0,2.417-0.604,3.133-1.617
			C144.083,192.749,144.255,191.456,143.821,190.296z"/>
		<path id="path-6_60_" style="opacity:0.25;fill:#020403;enable-background:new    ;" d="M143.821,190.296l-32.011-86.403V21.317
			h7.638V11.246h-27.64v76.135l32.012,86.403c0.433,1.16,0.261,2.454-0.452,3.466c-0.715,1.012-1.883,1.618-3.133,1.618H34.489
			l-4.731,11.281c-0.489,1.166-0.359,2.498,0.35,3.547c0.708,1.057,1.903,1.683,3.178,1.683h106.951
			c1.249,0,2.417-0.604,3.133-1.617C144.083,192.749,144.255,191.456,143.821,190.296z"/>
		<path id="path-7_60_" style="fill:#142A3B;" d="M107.504,62.763H70.278c-2.009,0-3.639-1.614-3.639-3.605
			c0-1.99,1.63-3.604,3.639-3.604h37.226c2.01,0,3.639,1.614,3.639,3.604C111.143,61.149,109.514,62.763,107.504,62.763z"/>
		<path id="path-8_59_" style="fill:#142A3B;" d="M96.531,130.874H81.252c-2.01,0-3.639-1.614-3.639-3.605
			c0-1.991,1.629-3.605,3.639-3.605h15.279c2.009,0,3.638,1.614,3.638,3.605C100.169,129.26,98.54,130.874,96.531,130.874z"/>
		<path id="path-9_56_" style="fill:#142A3B;" d="M96.531,146.009H81.252c-2.01,0-3.639-1.614-3.639-3.605s1.629-3.605,3.639-3.605
			h15.279c2.009,0,3.638,1.614,3.638,3.605S98.54,146.009,96.531,146.009z"/>
		<path id="path-10_51_" style="fill:#142A3B;" d="M96.531,161.146H81.252c-2.01,0-3.639-1.615-3.639-3.606
			c0-1.99,1.629-3.604,3.639-3.604h15.279c2.009,0,3.638,1.614,3.638,3.604C100.169,159.531,98.54,161.146,96.531,161.146z"/>
		<path id="path-11_43_" style="fill:#FF3A2F;" d="M203.548,59.321c-8.333,0-15.114,6.718-15.114,14.973l-0.231,13.209v85.173
			c0,10.436-8.569,18.921-19.099,18.921c-10.529,0-19.098-8.485-19.098-18.921V87.503l-1.158-13.209
			c0-8.255-6.781-14.973-15.114-14.973H203.548z"/>
		<path id="path-12_36_" style="opacity:0.35;fill:#020403;enable-background:new    ;" d="M184.197,59.321
			c-3.483,2.746-5.763,6.928-5.763,11.67L178.202,84.2v85.173c0,10.437-8.569,18.92-19.098,18.92c-0.275,0-0.544-0.028-0.817-0.04
			c3.078,2.103,6.803,3.344,10.817,3.344c10.53,0,19.099-8.485,19.099-18.921V87.503l0.231-13.209
			c0-8.255,6.781-14.973,15.114-14.973H184.197z"/>
		<path id="path-13_30_" style="fill:#142A3B;" d="M165.285,93.036h-7.64c-2.009,0-3.639-1.615-3.639-3.607
			c0-1.989,1.63-3.604,3.639-3.604h7.64c2.01,0,3.639,1.615,3.639,3.604C168.924,91.421,167.295,93.036,165.285,93.036z"/>
		<path id="path-14_25_" style="fill:#142A3B;" d="M165.285,108.17h-7.64c-2.009,0-3.639-1.613-3.639-3.603
			c0-1.991,1.63-3.606,3.639-3.606h7.64c2.01,0,3.639,1.615,3.639,3.606C168.924,106.557,167.295,108.17,165.285,108.17z"/>
		<path id="path-15_23_" style="fill:#142A3B;" d="M165.285,123.307h-7.64c-2.009,0-3.639-1.614-3.639-3.606
			c0-1.99,1.63-3.605,3.639-3.605h7.64c2.01,0,3.639,1.615,3.639,3.605C168.924,121.693,167.295,123.307,165.285,123.307z"/>
		<path id="path-16_20_" style="fill:#142A3B;" d="M193.712,13.751c-8.426,0-15.278,6.791-15.278,15.135s6.852,15.136,15.278,15.136
			s15.279-6.792,15.279-15.136S202.138,13.751,193.712,13.751L193.712,13.751z"/>
		<path id="path-17_18_" style="fill:#FFFFFF;" d="M197.046,19.668c-3.293,0-5.971,2.655-5.971,5.916
			c0,3.26,2.678,5.916,5.971,5.916c3.292,0,5.97-2.656,5.97-5.916C203.016,22.323,200.338,19.668,197.046,19.668L197.046,19.668z"/>
		<path id="path-18_15_" style="fill:#142A3B;" d="M163.155,44.022c-4.223,0-7.64,3.385-7.64,7.568c0,4.182,3.417,7.568,7.64,7.568
			c4.222,0,7.639-3.386,7.639-7.568C170.794,47.407,167.377,44.022,163.155,44.022L163.155,44.022z"/>
		<path id="path-19_12_" style="fill:#FFFFFF;" d="M168.646,189.347c-0.191,0-0.384-0.014-0.58-0.045
			c-11.883-1.886-15.779-11.507-16.178-16.33l-0.012-23.657c0-1.991,1.629-3.605,3.639-3.605c2.009,0,3.639,1.614,3.639,3.605
			v23.361c0.071,0.531,1.082,8.081,10.064,9.507c1.984,0.315,3.334,2.164,3.016,4.129
			C171.948,188.085,170.403,189.347,168.646,189.347z"/>
		<path id="path-20_9_" style="fill:#FFFFFF;" d="M55.947,152.361c-0.47,0-0.947-0.093-1.408-0.285
			c-1.853-0.77-2.723-2.885-1.945-4.718l17.94-42.299V70.58c0-1.992,1.63-3.607,3.639-3.607c2.01,0,3.639,1.615,3.639,3.607v35.932
			l-18.509,43.637C58.719,151.53,57.368,152.361,55.947,152.361z"/>
	</g>
</g>
<g>
</g>
<g>
</g>
<g>
</g>
<g>
</g>
<g>
</g>
<g>
</g>
<g>
</g>
<g>
</g>
<g>
</g>
<g>
</g>
<g>
</g>
<g>
</g>
<g>
</g>
<g>
</g>
<g>
</g>
</svg>
