<?xml version="1.0" encoding="iso-8859-1"?>
<!-- Generator: Adobe Illustrator 19.1.0, SVG Export Plug-In . SVG Version: 6.00 Build 0)  -->
<svg version="1.1" id="Capa_1" xmlns="http://www.w3.org/2000/svg" xmlns:xlink="http://www.w3.org/1999/xlink" x="0px" y="0px"
	 viewBox="0 0 217.222 217.222" style="enable-background:new 0 0 217.222 217.222;" xml:space="preserve">
<g>
	<g id="group-10svg">
		<path id="path-1_1_" style="fill:#FBB713;" d="M71.12,185.766H50.823c-3.913,0-7.086,2.313-7.086,5.166
			c0,2.852,3.173,5.165,7.086,5.165h0.945c3.913,0,7.086,2.312,7.086,5.165c0,2.852-3.173,5.165-7.086,5.165H8.136
			c-3.913,0-7.085,2.312-7.085,5.165c0,2.852,3.172,5.165,7.085,5.165H60.57h107.174c3.913,0,7.086-2.313,7.086-5.165
			c0-2.853-3.173-5.165-7.086-5.165h-12.109c-3.913,0-7.086-2.313-7.086-5.165c0-2.853,3.173-5.165,7.086-5.165h47.559
			c3.914,0,7.086-2.313,7.086-5.165c0-2.853-3.172-5.166-7.086-5.166h-3.55H71.12z"/>
		<path id="path-2_1_" style="fill:#FBB713;" d="M195.884,217.222c-2.756,0-4.992-1.637-4.992-3.654
			c0-2.017,2.236-3.654,4.992-3.654h15.296c2.757,0,4.991,1.637,4.991,3.654c0,2.017-2.234,3.654-4.991,3.654H195.884z"/>
		<path id="path-3_1_" style="fill:#FBB713;" d="M16.682,197.44c-2.757,0-4.991-1.635-4.991-3.652c0-2.018,2.234-3.654,4.991-3.654
			h15.296c2.756,0,4.992,1.636,4.992,3.654c0,2.017-2.236,3.652-4.992,3.652H16.682z"/>
		<path id="path-4_1_" style="fill:#142A3B;" d="M100.896,0h15.43c6.744,0,11.612,6.454,9.759,12.938l-3.716,12.999
			c-0.123,0.406-0.097,0.823-0.097,1.239h-0.079H95.016h-0.071c0-0.416,0.018-0.833-0.096-1.239l-3.713-13.003
			C89.286,6.452,94.154,0,100.896,0z"/>
		<path id="path-5_1_" style="opacity:0.35;fill:#090908;enable-background:new    ;" d="M118.785,0.3
			c0.437,1.678,0.494,3.485-0.027,5.311c0,0-1.679,7.279-2.832,11.427c-0.461,1.659-1.962,2.811-3.683,2.811H93.111l1.738,6.088
			c0.114,0.407,0.096,0.823,0.096,1.238h0.071h27.177h0.079c0-0.415-0.026-0.831,0.097-1.238l3.716-12.999
			C127.703,7.275,124.193,1.638,118.785,0.3z"/>
		<path id="path-6_1_" style="fill:#FBB713;" d="M151.118,84.506c-7.399-6.455-16.2-11.372-26.017-14.091V36.234h9.059
			c2.513,0,4.529-2.026,4.529-4.53c0-2.503-2.016-4.528-4.529-4.528H79.807c-2.495,0-4.529,2.025-4.529,4.528
			c0,2.504,2.034,4.53,4.529,4.53h9.058v34.181c-16.914,4.689-37.485,29.997-36.389,29.824c-6.36,10.17-10.095,22.149-10.095,35.027
			c0,36.578,29.652,66.228,66.23,66.228s66.23-29.65,66.23-66.228C174.841,114.875,165.611,96.654,151.118,84.506z"/>
		<path id="path-7_1_" style="fill:#FF3A2F;" d="M171.788,115.431c-7.715,2.107-15.416,3.019-23.067,3.019
			c-13.854,0-27.539-2.672-40.977-5.307c-20.932-4.1-40.824-7.837-60.673-2.168c-2.996,7.522-4.69,15.698-4.69,24.291
			c0,36.578,29.652,66.228,66.23,66.228s66.23-29.65,66.23-66.228C174.841,128.35,173.757,121.696,171.788,115.431z"/>
		<path id="path-8_1_" style="fill:#EDEDED;" d="M87.769,187.132c-0.392,0-0.796-0.066-1.188-0.202
			c-18.538-6.433-32.482-21.618-37.301-40.618c-0.491-1.937,0.682-3.907,2.62-4.398c1.927-0.492,3.907,0.678,4.402,2.62
			c4.214,16.631,16.423,29.922,32.655,35.554c1.888,0.656,2.888,2.719,2.23,4.607C90.672,186.192,89.268,187.132,87.769,187.132z"/>
		<path id="path-9_1_" style="opacity:0.35;fill:#090908;enable-background:new    ;" d="M151.118,84.506
			c-7.399-6.455-16.2-11.372-26.017-14.091V36.233h9.058c2.514,0,4.53-2.025,4.53-4.529c0-2.503-2.016-4.528-4.53-4.528h-14.655
			c2.514,0,4.53,2.025,4.53,4.528c0,2.504-2.016,4.529-4.53,4.529h-9.058v34.182c9.817,2.719,18.618,7.636,26.018,14.091
			c14.493,12.148,23.723,30.37,23.723,50.76c0,34.098-25.777,62.151-58.903,65.801c2.409,0.265,4.848,0.427,7.327,0.427
			c36.578,0,66.23-29.65,66.23-66.228C174.841,114.876,165.611,96.654,151.118,84.506z"/>
		<path id="path-10_1_" style="opacity:0.35;fill:#090908;enable-background:new    ;" d="M171.788,115.431
			c-7.715,2.107-15.416,3.019-23.068,3.019c-13.853,0-27.538-2.672-40.976-5.307c-20.932-4.1-40.824-7.837-60.673-2.168
			c-0.143,0.359-0.244,0.737-0.381,1.098c15.158-1.281,30.478,1.614,46.4,4.733c13.437,2.636,27.123,5.307,40.976,5.307
			c7.652,0,15.352-0.911,23.067-3.019c1.97,6.265,3.054,12.919,3.054,19.835c0,28.376-17.878,52.511-42.956,61.941
			c32.495-4.234,57.61-31.955,57.61-65.604C174.841,128.349,173.757,121.696,171.788,115.431z"/>
		<path id="path-11_1_" style="fill:#EDEDED;" d="M70.264,102.992c-1.683,0-3.203-1.183-3.571-2.873
			c-0.99-4.576,16.105-21.089,27.67-26.009V50.619c0-2,1.619-3.621,3.621-3.621c2,0,3.62,1.621,3.62,3.621v28.788l-2.652,0.736
			c-10.296,2.853-23.243,17.604-25.301,20.504c-0.445,1.18-1.492,2.091-2.825,2.301C70.639,102.977,70.452,102.992,70.264,102.992z"
			/>
		<path id="path-12_1_" style="fill:#FF3A2F;" d="M172.63,95.896h6.215c1.199,0,2.17,0.764,2.17,1.707s-0.971,1.706-2.17,1.706
			h-0.289c-1.199,0-2.17,0.764-2.17,1.705c0,0.942,0.971,1.707,2.17,1.707h13.361c1.199,0,2.17,0.762,2.17,1.705
			c0,0.942-0.971,1.707-2.17,1.707H175.86h-32.818c-1.198,0-2.17-0.765-2.17-1.707c0-0.943,0.972-1.705,2.17-1.705h3.708
			c1.198,0,2.17-0.765,2.17-1.707c0-0.941-0.972-1.705-2.17-1.705h-17.647c-1.199,0-2.17-0.763-2.17-1.706s0.971-1.707,2.17-1.707
			h4.171H172.63z"/>
	</g>
</g>
<g>
</g>
<g>
</g>
<g>
</g>
<g>
</g>
<g>
</g>
<g>
</g>
<g>
</g>
<g>
</g>
<g>
</g>
<g>
</g>
<g>
</g>
<g>
</g>
<g>
</g>
<g>
</g>
<g>
</g>
</svg>
