<?xml version="1.0" encoding="iso-8859-1"?>
<!-- Generator: Adobe Illustrator 19.1.0, SVG Export Plug-In . SVG Version: 6.00 Build 0)  -->
<svg version="1.1" id="Capa_1" xmlns="http://www.w3.org/2000/svg" xmlns:xlink="http://www.w3.org/1999/xlink" x="0px" y="0px"
	 viewBox="0 0 218.333 218.333" style="enable-background:new 0 0 218.333 218.333;" xml:space="preserve">
<g>
	<g id="group-135svg">
		<path id="path-1_40_" style="fill:#0CB04A;" d="M218.333,46.55c0-19.868-17.993-35.974-40.186-35.974
			c-22.195,0-40.186,16.106-40.186,35.974c0,8.879,7.649,33.15,7.746,33.456c0.004,0.013,0.004,0.007,0.011,0.018
			c5.312,7.804,8.825,19.377,8.825,34.72c0,15.331-1.576,24.986-6.875,32.783c-0.015,0.022-0.023,0.05-0.023,0.078v11.034
			c0,15.15,11.535,28.442,26.8,29.352c16.577,0.987,30.331-12.037,30.331-28.247V142.12c0,0-0.005-0.04-0.013-0.058
			c-3.572-7.924-3.86-15.12-3.86-27.317c0-12.211,2.225-21.329,5.809-29.263C206.712,85.481,218.333,57.261,218.333,46.55z"/>
		<path id="path-2_40_" style="fill:#0CB04A;" d="M45.424,46.55c0-19.868,17.992-35.974,40.187-35.974
			c22.194,0,40.186,16.106,40.186,35.974c0,8.879-7.65,33.15-7.746,33.456c-0.004,0.013-0.005,0.007-0.012,0.018
			c-5.311,7.804-8.824,19.377-8.824,34.72c0,15.331,1.577,24.986,6.873,32.783c0.017,0.022,0.026,0.05,0.026,0.078v11.034
			c0,15.15-11.536,28.442-26.801,29.352c-16.577,0.987-30.332-12.037-30.332-28.247V142.12c0,0,0.005-0.04,0.013-0.058
			c3.573-7.924,3.861-15.12,3.861-27.317c0-12.211-2.225-21.329-5.81-29.263C57.045,85.481,45.424,57.261,45.424,46.55z"/>
		<path id="path-3_40_" style="opacity:0.35;fill:#020403;enable-background:new    ;" d="M85.611,10.576
			c-1.763,0-3.485,0.138-5.187,0.334c19.738,2.282,34.998,17.35,34.998,35.64c0,8.879-7.649,33.15-7.745,33.456
			c-0.004,0.013-0.005,0.007-0.013,0.018c-5.311,7.804-8.824,19.377-8.824,34.72c0,15.331,1.576,24.986,6.874,32.783
			c0.016,0.022,0.024,0.05,0.024,0.078v11.034c0,13.991-9.845,26.374-23.374,28.907c2.24,0.407,4.559,0.587,6.949,0.445
			c15.265-0.91,26.8-14.202,26.8-29.352c0,0-0.008-11.09-0.025-11.112c-5.297-7.797-6.873-17.452-6.873-32.783
			c0-15.343,3.512-26.916,8.824-34.72c0.007-0.011,0.008-0.005,0.012-0.018c0.096-0.306,7.746-24.577,7.746-33.456
			C125.797,26.682,107.805,10.576,85.611,10.576z"/>
		<path id="path-4_40_" style="opacity:0.35;fill:#020403;enable-background:new    ;" d="M218.333,46.55
			c0-19.868-17.993-35.974-40.186-35.974c-1.762,0-3.485,0.138-5.187,0.334c19.738,2.282,34.998,17.35,34.998,35.64
			c0,10.711-11.621,38.931-11.621,38.931c-3.584,7.934-5.808,17.052-5.808,29.263c0,12.197,0.287,19.393,3.86,27.317
			c0.007,0.018,0.013,0.038,0.013,0.038v17.645c0,13.872-10.087,25.381-23.383,27.802c1.121,0.209,2.257,0.375,3.426,0.445
			c16.577,0.987,30.33-12.037,30.33-28.247V142.12c0,0-0.004-0.04-0.012-0.058c-3.572-7.924-3.86-15.12-3.86-27.317
			c0-12.211,2.224-21.329,5.809-29.263C206.712,85.481,218.333,57.261,218.333,46.55z"/>
		<path id="path-5_40_" style="opacity:0.35;fill:#020403;enable-background:new    ;" d="M181.354,61.972c-0.014,0-0.028,0-0.042,0
			c-2.009-0.023-3.618-1.655-3.596-3.643l0.252-21.83c0.025-1.991,1.762-3.525,3.682-3.564c2.007,0.023,3.617,1.654,3.595,3.646
			l-0.251,21.828C184.972,60.384,183.344,61.972,181.354,61.972z"/>
		<path id="path-6_40_" style="opacity:0.35;fill:#020403;enable-background:new    ;" d="M201.034,93.729
			c-0.263,0-0.529-0.026-0.796-0.085c-1.961-0.436-3.198-2.362-2.758-4.305c4.99-22.128-0.519-33.708-17.86-37.547
			c-1.961-0.434-3.198-2.362-2.757-4.306c0.437-1.941,2.388-3.152,4.343-2.731c21.352,4.728,29.221,20.258,23.374,46.156
			C204.204,92.59,202.701,93.729,201.034,93.729z"/>
		<path id="path-7_40_" style="opacity:0.35;fill:#020403;enable-background:new    ;" d="M154.631,93.729
			c-1.666,0-3.17-1.139-3.547-2.818c-5.251-23.281,6.042-40.967,29.478-46.156c1.958-0.423,3.905,0.79,4.343,2.731
			c0.44,1.944-0.797,3.872-2.758,4.306c-19.63,4.345-28.365,18.032-23.961,37.547c0.44,1.943-0.798,3.869-2.758,4.305
			C155.161,93.702,154.895,93.729,154.631,93.729z"/>
		<path id="path-8_40_" style="opacity:0.35;fill:#020403;enable-background:new    ;" d="M87.614,61.972c-0.014,0-0.028,0-0.043,0
			c-2.007-0.023-3.617-1.655-3.595-3.643l0.248-21.83c0.022-1.991,1.809-3.525,3.681-3.564c2.009,0.023,3.618,1.654,3.597,3.646
			l-0.248,21.828C91.233,60.384,89.604,61.972,87.614,61.972z"/>
		<path id="path-9_37_" style="opacity:0.35;fill:#020403;enable-background:new    ;" d="M107.294,93.729
			c-0.263,0-0.529-0.026-0.796-0.085c-1.962-0.436-3.198-2.362-2.757-4.305c4.988-22.126-0.519-33.706-17.861-37.547
			c-1.962-0.434-3.198-2.362-2.758-4.306c0.438-1.941,2.4-3.152,4.343-2.731c21.354,4.73,29.221,20.258,23.376,46.156
			C110.464,92.59,108.961,93.729,107.294,93.729z"/>
		<path id="path-10_35_" style="opacity:0.35;fill:#020403;enable-background:new    ;" d="M60.891,93.729
			c-1.667,0-3.169-1.139-3.546-2.818c-5.253-23.281,6.041-40.967,29.478-46.156c1.957-0.423,3.904,0.79,4.341,2.731
			c0.441,1.944-0.795,3.872-2.757,4.306c-19.63,4.345-28.365,18.032-23.962,37.547c0.441,1.943-0.796,3.869-2.758,4.305
			C61.421,93.702,61.154,93.729,60.891,93.729z"/>
		<path id="path-11_30_" style="fill:#142A3B;" d="M178.145,55.132c-2.011,0-3.638-1.614-3.638-3.605v-28.69
			c0-1.99,1.627-3.605,3.638-3.605c2.012,0,3.64,1.615,3.64,3.605v28.69C181.785,53.517,180.157,55.132,178.145,55.132z"/>
		<path id="path-12_26_" style="fill:#142A3B;" d="M204.847,93.729c-0.263,0-0.529-0.026-0.796-0.085
			c-1.962-0.436-3.198-2.362-2.758-4.303c4.443-19.712-5.778-46.968-25.13-51.252c-1.962-0.434-3.199-2.362-2.757-4.305
			c0.436-1.942,2.391-3.154,4.342-2.732c23.677,5.243,35.916,36.483,30.646,59.857C208.017,92.59,206.514,93.729,204.847,93.729z"/>
		<path id="path-13_20_" style="fill:#142A3B;" d="M150.744,93.729c-1.666,0-3.17-1.139-3.546-2.818
			c-5.292-23.449,6.62-54.704,29.907-59.859c1.961-0.423,3.905,0.788,4.342,2.732c0.44,1.943-0.796,3.871-2.758,4.305
			c-18.968,4.2-28.851,31.47-24.392,51.25c0.441,1.943-0.796,3.869-2.758,4.305C151.273,93.702,151.007,93.729,150.744,93.729z"/>
		<path id="path-14_16_" style="fill:#142A3B;" d="M85.61,55.132c-2.012,0-3.639-1.614-3.639-3.605v-28.69
			c0-1.99,1.627-3.605,3.639-3.605c2.011,0,3.639,1.615,3.639,3.605v28.69C89.249,53.517,87.621,55.132,85.61,55.132z"/>
		<path id="path-15_14_" style="fill:#142A3B;" d="M113.015,93.729c-0.262,0-0.529-0.026-0.795-0.085
			c-1.962-0.436-3.199-2.362-2.758-4.305c4.403-19.52-6.656-47.003-25.839-51.25c-1.96-0.434-3.198-2.362-2.756-4.305
			c0.436-1.942,2.387-3.154,4.341-2.732c23.668,5.24,36.507,37.032,31.354,59.859C116.185,92.59,114.682,93.729,113.015,93.729z"/>
		<path id="path-16_11_" style="fill:#142A3B;" d="M58.919,93.729c-1.667,0-3.17-1.139-3.546-2.818
			c-5.448-24.148,4.811-54.669,28.25-59.859c1.962-0.423,3.906,0.788,4.343,2.732c0.441,1.943-0.796,3.871-2.758,4.305
			c-18.695,4.139-27.423,30.472-22.735,51.25c0.441,1.943-0.796,3.869-2.758,4.305C59.449,93.702,59.182,93.729,58.919,93.729z"/>
		<path id="path-17_9_" style="fill:#FBB713;" d="M27.177,97.703h5.533c1.067,0,1.932,0.786,1.932,1.758
			c0,0.97-0.865,1.758-1.932,1.758h-0.258c-1.067,0-1.931,0.787-1.931,1.758s0.864,1.758,1.931,1.758h11.894
			c1.068,0,1.933,0.786,1.933,1.758c0,0.97-0.865,1.759-1.933,1.759H30.052h-15.71c-1.067,0-1.932-0.789-1.932-1.759
			c0-0.972,0.865-1.758,1.932-1.758h3.301c1.066,0,1.931-0.787,1.931-1.758s-0.865-1.758-1.931-1.758H1.932
			c-1.066,0-1.932-0.788-1.932-1.758c0-0.972,0.866-1.758,1.932-1.758h3.714H27.177z"/>
		<path id="path-18_7_" style="fill:#FBB713;" d="M68.26,183.516h11.728c2.262,0,4.094,1.529,4.094,3.415
			c0,1.885-1.832,3.413-4.094,3.413h-0.546c-2.261,0-4.094,1.53-4.094,3.416c0,1.885,1.833,3.415,4.094,3.415h25.213
			c2.261,0,4.094,1.528,4.094,3.415c0,1.885-1.833,3.414-4.094,3.414H74.357H41.055c-2.262,0-4.095-1.529-4.095-3.414
			c0-1.887,1.833-3.415,4.095-3.415h6.996c2.262,0,4.095-1.53,4.095-3.415c0-1.886-1.833-3.416-4.095-3.416h-33.3
			c-2.262,0-4.095-1.528-4.095-3.413c0-1.886,1.833-3.415,4.095-3.415h7.87H68.26z"/>
		<path id="path-19_6_" style="fill:#FBB713;" d="M158.997,207.757c3.392,0,6.142-1.68,6.142-3.752c0-2.073-2.75-3.752-6.142-3.752
			h-18.82c-3.393,0-6.143,1.679-6.143,3.752c0,2.072,2.75,3.752,6.143,3.752H158.997z"/>
	</g>
</g>
<g>
</g>
<g>
</g>
<g>
</g>
<g>
</g>
<g>
</g>
<g>
</g>
<g>
</g>
<g>
</g>
<g>
</g>
<g>
</g>
<g>
</g>
<g>
</g>
<g>
</g>
<g>
</g>
<g>
</g>
</svg>
