<?xml version="1.0" encoding="iso-8859-1"?>
<!-- Generator: Adobe Illustrator 19.1.0, SVG Export Plug-In . SVG Version: 6.00 Build 0)  -->
<svg version="1.1" id="Capa_1" xmlns="http://www.w3.org/2000/svg" xmlns:xlink="http://www.w3.org/1999/xlink" x="0px" y="0px"
	 viewBox="0 0 217.229 217.229" style="enable-background:new 0 0 217.229 217.229;" xml:space="preserve">
<g>
	<g id="group-78svg">
		<path id="path-1_136_" style="fill:#2476FF;" d="M69.157,181.674H49.125c-3.862,0-6.993,2.369-6.993,5.293
			c0,2.923,3.131,5.292,6.993,5.292h0.932c3.863,0,6.994,2.372,6.994,5.294c0,2.923-3.131,5.292-6.994,5.292H6.994
			c-3.862,0-6.994,2.371-6.994,5.294c0,2.923,3.132,5.293,6.994,5.293h51.751h105.78c3.862,0,6.993-2.37,6.993-5.293
			c0-2.923-3.131-5.294-6.993-5.294h-11.952c-3.862,0-6.993-2.369-6.993-5.292c0-2.922,3.131-5.294,6.993-5.294h46.94
			c3.863,0,6.994-2.369,6.994-5.292c0-2.924-3.131-5.293-6.994-5.293h-3.503H69.157z"/>
		<path id="path-2_136_" style="fill:#2476FF;" d="M193.397,214.85c-3.237,0-5.862-2.54-5.862-5.671
			c0-3.134,2.625-5.674,5.862-5.674h17.969c3.238,0,5.863,2.54,5.863,5.674c0,3.131-2.625,5.671-5.863,5.671H193.397z"/>
		<path id="path-3_136_" style="fill:#0CB04A;" d="M109.968,116.433h-5.842V85.222h5.842V116.433z"/>
		<path id="path-4_136_" style="fill:#0CB04A;" d="M126.262,97.504l-14.974,14.974c-0.97,0.97-2.543,0.97-3.513,0l0,0
			c-0.971-0.97-0.971-2.544,0-3.515l14.974-14.973c0.97-0.969,2.543-0.969,3.513,0.001l0,0
			C127.232,94.96,127.232,96.535,126.262,97.504z"/>
		<path id="path-5_135_" style="fill:#FF3A2F;" d="M153.65,48.573c0-7.345-5.954-13.299-13.298-13.299
			c-0.304,0-0.601,0.025-0.9,0.045c0.225-0.197,0.453-0.389,0.668-0.604c5.194-5.192,5.194-13.612,0-18.806
			c-5.193-5.193-13.613-5.193-18.807,0c-0.214,0.215-0.406,0.443-0.603,0.669c0.02-0.299,0.045-0.596,0.045-0.9
			c0-7.344-5.953-13.298-13.299-13.298c-7.344,0-13.298,5.954-13.298,13.298c0,0.304,0.026,0.601,0.045,0.9
			c-0.196-0.226-0.388-0.454-0.603-0.669c-5.194-5.193-13.614-5.193-18.807,0c-5.193,5.194-5.193,13.614,0,18.806
			c0.215,0.215,0.443,0.407,0.668,0.604c-0.299-0.02-0.595-0.045-0.9-0.045c-7.344,0-13.298,5.954-13.298,13.299
			c0,7.344,5.954,13.298,13.298,13.298c0.305,0,0.601-0.026,0.9-0.046c-0.225,0.197-0.453,0.389-0.668,0.603
			c-5.193,5.194-5.193,13.614,0,18.807c5.193,5.192,13.613,5.192,18.807,0c0.215-0.214,0.407-0.443,0.603-0.669
			c-0.019,0.299-0.045,0.597-0.045,0.9c0,7.345,5.954,13.299,13.298,13.299c7.346,0,13.299-5.954,13.299-13.299
			c0-0.303-0.025-0.601-0.045-0.9c0.197,0.226,0.389,0.455,0.603,0.669c5.194,5.192,13.614,5.192,18.807,0
			c5.194-5.193,5.194-13.613,0-18.807c-0.215-0.214-0.443-0.406-0.668-0.603c0.299,0.02,0.596,0.046,0.9,0.046
			C147.696,61.871,153.65,55.917,153.65,48.573z"/>
		<path id="path-6_132_" style="opacity:0.35;enable-background:new    ;" d="M113.632,12.116c0,0.303-0.025,0.6-0.046,0.899
			c0.197-0.225,0.39-0.454,0.604-0.668c1.421-1.421,3.091-2.415,4.862-3.059c-1.935-3.501-5.363-6.028-9.458-6.693
			C112.078,5.011,113.632,8.378,113.632,12.116z"/>
		<path id="path-7_129_" style="opacity:0.35;enable-background:new    ;" d="M132.997,12.348c5.194,5.193,5.194,13.613,0,18.807
			c-0.215,0.214-0.443,0.407-0.668,0.604c0.299-0.021,0.595-0.046,0.899-0.046c2.77,0,5.339,0.85,7.468,2.298
			c4.554-5.224,4.398-13.128-0.576-18.102c-2.054-2.055-4.617-3.262-7.282-3.692C132.888,12.266,132.947,12.297,132.997,12.348z"/>
		<path id="path-8_106_" style="opacity:0.35;enable-background:new    ;" d="M153.65,48.572c0-6.612-4.839-12.055-11.161-13.083
			c2.484,2.417,4.038,5.782,4.038,9.522c0,7.344-5.954,13.298-13.299,13.298c-0.304,0-0.6-0.024-0.899-0.045
			c0.225,0.196,0.453,0.388,0.668,0.603c5.194,5.192,5.194,13.613,0,18.807c-3.139,3.137-7.453,4.346-11.525,3.691
			c5.204,5.045,13.504,5.013,18.648-0.13c5.194-5.193,5.194-13.613,0-18.806c-0.215-0.215-0.443-0.407-0.667-0.604
			c0.298,0.02,0.595,0.046,0.899,0.046C147.696,61.871,153.65,55.917,153.65,48.572z"/>
		<path id="path-9_91_" style="opacity:0.35;enable-background:new    ;" d="M87.035,77.904c0-0.304,0.025-0.601,0.045-0.9
			c-0.196,0.225-0.389,0.453-0.604,0.669c-3.138,3.137-7.453,4.346-11.524,3.691c3.766,3.653,9.143,4.615,13.786,2.928
			C87.686,82.389,87.035,80.233,87.035,77.904z"/>
		<path id="path-10_83_" style="opacity:0.35;enable-background:new    ;" d="M114.19,77.674c-0.214-0.216-0.407-0.444-0.604-0.669
			c0.021,0.299,0.046,0.596,0.046,0.9c0,7.344-5.954,13.298-13.299,13.298c-0.732,0-1.437-0.102-2.137-0.215
			c2.396,2.329,5.655,3.777,9.26,3.777c7.345,0,13.299-5.954,13.299-13.299c0-0.078-0.009-0.155-0.012-0.233
			C118.344,80.707,116.056,79.538,114.19,77.674z"/>
		<path id="path-11_72_" style="fill:#FBB713;" d="M131.582,48.573c0,13.323-10.802,24.123-24.126,24.123
			c-13.323,0-24.124-10.8-24.124-24.123c0-13.325,10.801-24.124,24.124-24.124C120.78,24.448,131.582,35.248,131.582,48.573z"/>
		<path id="path-12_62_" style="opacity:0.35;enable-background:new    ;" d="M122.635,29.831c3.363,4.147,5.385,9.424,5.385,15.179
			c0,13.323-10.801,24.123-24.125,24.123c-5.755,0-11.033-2.021-15.179-5.383c4.423,5.453,11.171,8.945,18.74,8.945
			c13.325,0,24.126-10.8,24.126-24.124C131.582,41.003,128.09,34.254,122.635,29.831z"/>
		<path id="path-13_49_" style="fill:#142A3B;" d="M130.892,198.262H87.977l-27.329-81.984h97.573L130.892,198.262z"/>
		<path id="path-14_41_" style="opacity:0.35;enable-background:new    ;" d="M60.648,116.277l3.562,10.684h45.354
			c13.424,0,22.904,13.151,18.659,25.887l-15.138,45.413h17.807l27.329-81.984H60.648z"/>
		<path id="path-15_34_" style="fill:#EDEDED;" d="M93.243,181.379c-1.563,0-3.006-1.021-3.471-2.596l-11.399-38.584
			c-0.567-1.916,0.529-3.931,2.447-4.497c1.909-0.559,3.932,0.531,4.497,2.447l11.399,38.583c0.567,1.916-0.528,3.931-2.446,4.498
			C93.928,181.329,93.582,181.379,93.243,181.379z"/>
	</g>
</g>
<g>
</g>
<g>
</g>
<g>
</g>
<g>
</g>
<g>
</g>
<g>
</g>
<g>
</g>
<g>
</g>
<g>
</g>
<g>
</g>
<g>
</g>
<g>
</g>
<g>
</g>
<g>
</g>
<g>
</g>
</svg>
