<?xml version="1.0" encoding="iso-8859-1"?>
<!-- Generator: Adobe Illustrator 19.1.0, SVG Export Plug-In . SVG Version: 6.00 Build 0)  -->
<svg version="1.1" id="Capa_1" xmlns="http://www.w3.org/2000/svg" xmlns:xlink="http://www.w3.org/1999/xlink" x="0px" y="0px"
	 viewBox="0 0 217.229 217.229" style="enable-background:new 0 0 217.229 217.229;" xml:space="preserve">
<g>
	<g id="group-119svg">
		<path id="path-1_22_" style="fill:#2476FF;" d="M181.024,49.783v-6.032c0-6.66-5.404-12.069-12.068-12.069H90.512v-6.034
			c0-6.66-5.404-12.068-12.068-12.068H48.273c-6.664,0-12.068,5.408-12.068,12.068v18.103v6.032H181.024z"/>
		<path id="path-2_22_" style="fill:#FBB713;" d="M199.126,49.783H81.46v-9.049c0-9.99-8.104-18.104-18.102-18.104H18.103
			C8.105,22.63,0,30.744,0,40.734v27.152v9.05v13.576v95.035c0,10.004,8.105,18.102,18.103,18.102h181.023
			c9.997,0,18.102-8.098,18.102-18.102V76.936v-9.05C217.228,57.896,209.123,49.783,199.126,49.783z"/>
		<path id="path-3_22_" style="opacity:0.25;enable-background:new    ;" d="M67.884,35.211v14.572h13.462
			c2.568-20.111-6.912-24.796-15.209-26.872C67.228,26.661,67.884,30.801,67.884,35.211z"/>
		<path id="path-4_22_" style="opacity:0.25;enable-background:new    ;" d="M201.905,50.064c1.091,2.329,1.747,4.9,1.747,7.64v9.05
			v108.61c0,10.005-8.106,18.102-18.103,18.102H4.526c-0.953,0-1.869-0.138-2.783-0.28c2.886,6.166,9.102,10.463,16.359,10.463
			h181.024c9.997,0,18.103-8.098,18.103-18.102V76.936v-9.05C217.229,58.848,210.573,51.411,201.905,50.064z"/>
		<path id="path-5_22_" style="fill:#142A3B;" d="M92.123,121.232h-8.826c-1.701,0-3.081,2.258-3.081,5.044s1.38,5.044,3.081,5.044
			h0.411c1.701,0,3.081,2.257,3.081,5.043c0,2.786-1.38,5.045-3.081,5.045H64.736c-1.702,0-3.081,2.259-3.081,5.044
			c0,2.786,1.379,5.045,3.081,5.045h22.799h46.602c1.701,0,3.081-2.259,3.081-5.045c0-2.785-1.38-5.044-3.081-5.044h-5.265
			c-1.702,0-3.082-2.259-3.082-5.045c0-2.786,1.38-5.043,3.082-5.043h20.679c1.702,0,3.081-2.258,3.081-5.044
			s-1.379-5.044-3.081-5.044h-1.543H92.123z"/>
		<path id="path-6_22_" style="fill:#142A3B;" d="M146.857,152.848c-1.427,0-2.583-2.42-2.583-5.406
			c0-2.986,1.156-5.407,2.583-5.407h7.916c1.427,0,2.583,2.421,2.583,5.407c0,2.986-1.156,5.406-2.583,5.406H146.857z"/>
	</g>
</g>
<g>
</g>
<g>
</g>
<g>
</g>
<g>
</g>
<g>
</g>
<g>
</g>
<g>
</g>
<g>
</g>
<g>
</g>
<g>
</g>
<g>
</g>
<g>
</g>
<g>
</g>
<g>
</g>
<g>
</g>
</svg>
