<?xml version="1.0" encoding="iso-8859-1"?>
<!-- Generator: Adobe Illustrator 19.1.0, SVG Export Plug-In . SVG Version: 6.00 Build 0)  -->
<svg version="1.1" id="Capa_1" xmlns="http://www.w3.org/2000/svg" xmlns:xlink="http://www.w3.org/1999/xlink" x="0px" y="0px"
	 viewBox="0 0 217.229 217.229" style="enable-background:new 0 0 217.229 217.229;" xml:space="preserve">
<g>
	<g id="group-26svg">
		<path id="path-1_79_" style="fill:#FF3A2F;" d="M139.3,121.933h5.826c1.124,0,2.035,0.687,2.035,1.533
			c0,0.845-0.911,1.531-2.035,1.531h-0.271c-1.123,0-2.034,0.685-2.034,1.532c0,0.845,0.911,1.531,2.034,1.531h12.525
			c1.124,0,2.034,0.685,2.034,1.531c0,0.847-0.91,1.533-2.034,1.533h-15.052h-30.766c-1.124,0-2.035-0.686-2.035-1.533
			c0-0.846,0.911-1.531,2.035-1.531h3.476c1.123,0,2.034-0.686,2.034-1.531c0-0.847-0.911-1.532-2.034-1.532H98.494
			c-1.124,0-2.034-0.686-2.034-1.531c0-0.846,0.91-1.533,2.034-1.533h3.91H139.3z"/>
		<path id="path-2_79_" style="fill:#FF3A2F;" d="M47.185,152.564H33.517c-2.635,0-4.772,2.034-4.772,4.542
			c0,2.51,2.137,4.543,4.772,4.543h0.636c2.635,0,4.771,2.033,4.771,4.543c0,2.508-2.136,4.542-4.771,4.542H4.772
			c-2.636,0-4.772,2.033-4.772,4.543c0,2.508,2.136,4.541,4.772,4.541h35.309h72.17c2.636,0,4.772-2.033,4.772-4.541
			c0-2.51-2.136-4.543-4.772-4.543h-8.154c-2.635,0-4.771-2.034-4.771-4.542c0-2.51,2.136-4.543,4.771-4.543h32.027
			c2.635,0,4.771-2.033,4.771-4.543c0-2.508-2.136-4.542-4.771-4.542h-2.391H47.185z"/>
		<path id="path-3_79_" style="fill:#FF3A2F;" d="M147.107,180.227c-2.425,0-4.39-1.439-4.39-3.213c0-1.775,1.965-3.213,4.39-3.213
			h13.452c2.424,0,4.389,1.438,4.389,3.213c0,1.774-1.965,3.213-4.389,3.213H147.107z"/>
		<path id="path-4_79_" style="fill:#2476FF;" d="M82.851,67.873c-3.362-4.017-7.75-6.055-13.037-6.055
			c-5.948,0-11.671,2.694-14.112,3.845c-14.682,6.916-21.674,18.258-21.367,34.671c0.231,12.369,11.783,57.78,30.466,57.786
			c0.055,0,0.613-0.016,0.667-0.022c7.003-0.393,12.489-3.705,15.441-9.314c4.104-7.799,2.899-18.839-3.146-28.82
			c-8.244-13.607-3.69-18.317,0.715-22.878C88.433,86.771,89.992,76.397,82.851,67.873z"/>
		<path id="path-5_78_" style="opacity:0.35;fill:#090908;enable-background:new    ;" d="M78.478,97.086
			c9.955-10.314,11.514-20.689,4.373-29.213c-3.361-4.017-7.75-6.055-13.037-6.055c-1.282,0-2.546,0.143-3.777,0.351
			c3.749,0.719,6.961,2.609,9.549,5.704c7.142,8.524,5.583,18.899-4.372,29.213c-4.405,4.561-8.96,9.271-0.716,22.878
			c6.046,9.98,7.25,21.022,3.147,28.82c-2.465,4.683-6.712,7.735-12.116,8.855c1.065,0.309,2.155,0.48,3.272,0.481
			c0.055,0,0.613-0.016,0.667-0.023c7.003-0.391,12.489-3.704,15.441-9.313c4.104-7.798,2.899-18.84-3.146-28.82
			C69.519,106.357,74.073,101.647,78.478,97.086z"/>
		<circle id="circle-1_6_" style="fill:#2476FF;" cx="26.008" cy="79.002" r="9"/>
		<circle id="circle-2_5_" style="fill:#2476FF;" cx="35.008" cy="62.002" r="9"/>
		<circle id="circle-3_1_" style="fill:#2476FF;" cx="51.008" cy="51.002" r="9"/>
		<path id="path-6_75_" style="fill:#2476FF;" d="M70.395,53.525c4.555,0,8.26-3.705,8.26-8.261c0-4.554-3.705-8.26-8.26-8.26
			c-4.556,0-8.261,3.706-8.261,8.26C62.134,49.82,65.839,53.525,70.395,53.525z"/>
		<circle id="circle-4_1_" style="fill:#2476FF;" cx="95.008" cy="51.002" r="14"/>
		<path id="path-7_74_" style="fill:#2476FF;" d="M156.214,97.086c4.405,4.561,8.96,9.271,0.716,22.878
			c-6.046,9.981-7.25,21.021-3.147,28.82c2.953,5.609,8.438,8.921,15.441,9.314c0.053,0.006,0.613,0.022,0.667,0.022
			c18.683-0.006,30.235-45.417,30.466-57.786c0.307-16.413-6.685-27.755-21.367-34.671c-2.441-1.151-8.164-3.845-14.112-3.845
			c-5.286,0-9.675,2.038-13.037,6.055C144.699,76.397,146.259,86.771,156.214,97.086z"/>
		<path id="path-8_55_" style="opacity:0.35;fill:#090908;enable-background:new    ;" d="M178.99,65.663
			c-2.441-1.151-8.164-3.845-14.112-3.845c-1.214,0-2.369,0.135-3.488,0.351c4.479,0.755,8.421,2.591,10.336,3.494
			c14.682,6.916,21.674,18.258,21.367,34.671c-0.217,11.629-10.443,52.456-27.194,57.305c1.07,0.222,2.168,0.394,3.325,0.458
			c0.053,0.007,0.613,0.023,0.667,0.023c18.683-0.007,30.235-45.416,30.466-57.786C200.664,83.921,193.672,72.579,178.99,65.663z"/>
		<path id="path-9_48_" style="fill:#2476FF;" d="M200.707,78.306c0,4.555,3.7,8.26,8.261,8.26c4.55,0,8.261-3.705,8.261-8.26
			s-3.711-8.261-8.261-8.261C204.407,70.045,200.707,73.751,200.707,78.306z"/>
		<path id="path-10_44_" style="fill:#2476FF;" d="M207.274,61.785c0-4.555-3.706-8.26-8.261-8.26c-4.556,0-8.261,3.705-8.261,8.26
			c0,4.556,3.705,8.26,8.261,8.26C203.568,70.045,207.274,66.341,207.274,61.785z"/>
		<path id="path-11_36_" style="fill:#2476FF;" d="M191.381,50.771c0-4.554-3.699-8.26-8.261-8.26c-4.549,0-8.26,3.706-8.26,8.26
			c0,4.556,3.711,8.261,8.26,8.261C187.682,59.032,191.381,55.327,191.381,50.771z"/>
		<path id="path-12_31_" style="fill:#2476FF;" d="M172.558,45.264c0-4.554-3.705-8.26-8.26-8.26c-4.556,0-8.261,3.706-8.261,8.26
			c0,4.556,3.705,8.261,8.261,8.261C168.853,53.525,172.558,49.82,172.558,45.264z"/>
		<path id="path-13_25_" style="fill:#2476FF;" d="M125.371,50.771c0,7.594,6.174,13.768,13.767,13.768
			c7.594,0,13.769-6.174,13.769-13.768c0-7.593-6.175-13.767-13.769-13.767C131.545,37.004,125.371,43.178,125.371,50.771z"/>
		<path id="path-14_22_" style="opacity:0.35;fill:#090908;enable-background:new    ;" d="M103.296,39.397
			c1.507,2.209,2.393,4.872,2.393,7.742c0,7.594-6.174,13.768-13.768,13.768c-2.87,0-5.534-0.887-7.742-2.395
			c2.481,3.635,6.651,6.026,11.375,6.026c7.593,0,13.767-6.173,13.767-13.767C109.321,46.048,106.929,41.879,103.296,39.397z"/>
		<path id="path-15_20_" style="opacity:0.35;fill:#090908;enable-background:new    ;" d="M146.88,39.397
			c1.508,2.209,2.394,4.872,2.394,7.742c0,7.594-6.174,13.768-13.768,13.768c-2.87,0-5.534-0.887-7.742-2.395
			c2.481,3.635,6.65,6.026,11.374,6.026c7.594,0,13.769-6.173,13.769-13.767C152.907,46.048,150.514,41.879,146.88,39.397z"/>
		<path id="path-16_16_" style="fill:#EDEDED;" d="M159.643,87.999c-1.266,0-2.486-0.664-3.143-1.851
			c-0.262-0.473-2.504-4.752-0.782-9.416c1.199-3.248,3.904-5.681,8.037-7.228c1.877-0.704,3.96,0.249,4.66,2.121
			c0.699,1.874-0.248,3.96-2.122,4.66c-1.41,0.529-3.21,1.462-3.769,2.919c-0.611,1.585,0.322,3.461,0.333,3.478
			c0.912,1.759,0.254,3.946-1.493,4.881C160.817,87.858,160.223,87.999,159.643,87.999z"/>
		<path id="path-17_14_" style="fill:#EDEDED;" d="M43.314,95.937c-0.173,0-0.35-0.013-0.527-0.036
			c-1.98-0.291-3.348-2.129-3.058-4.108c0.081-0.567,2.16-13.933,13.736-18.264c1.873-0.708,3.959,0.248,4.66,2.121
			c0.7,1.874-0.248,3.96-2.122,4.66c-7.612,2.849-9.097,12.433-9.111,12.53C46.63,94.641,45.082,95.937,43.314,95.937z"/>
	</g>
</g>
<g>
</g>
<g>
</g>
<g>
</g>
<g>
</g>
<g>
</g>
<g>
</g>
<g>
</g>
<g>
</g>
<g>
</g>
<g>
</g>
<g>
</g>
<g>
</g>
<g>
</g>
<g>
</g>
<g>
</g>
</svg>
