<?xml version="1.0" encoding="iso-8859-1"?>
<!-- Generator: Adobe Illustrator 19.1.0, SVG Export Plug-In . SVG Version: 6.00 Build 0)  -->
<svg version="1.1" id="Capa_1" xmlns="http://www.w3.org/2000/svg" xmlns:xlink="http://www.w3.org/1999/xlink" x="0px" y="0px"
	 viewBox="0 0 218.332 218.332" style="enable-background:new 0 0 218.332 218.332;" xml:space="preserve">
<g>
	<g id="group-99svg">
		<path id="path-1_167_" style="fill:#2476FF;" d="M192.296,197.435c0,0-94.924-11.758-102.106-14.188l-32.337-59.241
			c-0.458-0.84-1.028-1.613-1.712-2.281c-4.038-4.009-3.829-10.741,0.465-15l47.44-47.123c4.167-4.109,11.201-4.326,15.075-0.452
			c0.687,0.678,1.457,1.246,2.303,1.717l59.68,32.11c3.63,10.457,16.903,59.323,19.792,99.847l-49.759-46.297
			c4.148-7.098,3.227-16.291-2.904-22.362c-7.301-7.241-19.148-7.241-26.454,0c-7.31,7.241-7.301,18.977,0,26.22
			c6.127,6.052,15.413,6.974,22.572,2.863L192.296,197.435z"/>
		<path id="path-2_167_" style="opacity:0.35;fill:#020403;enable-background:new    ;" d="M121.779,124.164
			c7.306-7.241,19.153-7.241,26.454,0c0.828,0.821,1.543,1.703,2.18,2.624c0.556-5.329-1.153-10.831-5.284-14.921
			c-7.3-7.241-19.147-7.241-26.454,0c-6.473,6.413-7.181,16.335-2.197,23.553C116.893,131.313,118.602,127.312,121.779,124.164z"/>
		<path id="path-3_167_" style="opacity:0.35;fill:#020403;enable-background:new    ;" d="M87.086,170.95l-32.337-59.241
			c-0.196-0.362-0.496-0.647-0.735-0.978c-1.459,3.781-0.793,8.096,2.127,10.994c0.684,0.668,1.254,1.441,1.712,2.281l32.337,59.241
			c7.182,2.43,102.106,14.188,102.106,14.188l-14.954-13.781C151.656,180.413,92.688,172.844,87.086,170.95z"/>
		<path id="path-4_166_" style="opacity:0.35;fill:#020403;enable-background:new    ;" d="M185.837,109.228
			c4.851,20.166,10.238,47.207,11.955,71.299l-44.303-41.222c-0.291,2.505-1.038,4.971-2.352,7.221l49.759,46.298
			C198.797,163.381,191.22,129.548,185.837,109.228z"/>
		<path id="path-5_166_" style="fill:#142A3B;" d="M74.227,3.375c4.11,1.66,11.541,6.061,19.993,14.374
			c8.453,8.343,12.905,15.634,14.599,19.668l-74.263,73.08c-4.077-1.663-11.505-6.034-19.976-14.374
			C6.131,87.809,1.691,80.479,0,76.47L74.227,3.375z"/>
		<path id="path-6_164_" style="opacity:0.35;fill:#020403;enable-background:new    ;" d="M37.659,92.052
			c-4.076-1.663-11.505-6.035-19.975-14.375c-3.645-3.586-6.503-6.966-8.757-9.998L0,76.47c1.691,4.01,6.131,11.339,14.581,19.654
			c8.47,8.34,15.898,12.711,19.975,14.374l74.263-73.08c-0.963-2.292-2.857-5.661-5.831-9.654L37.659,92.052z"/>
		<path id="path-7_163_" style="fill:#142A3B;" d="M195.3,195.628h6.672c1.286,0,2.329,0.574,2.329,1.28
			c0,0.705-1.043,1.279-2.329,1.279h-0.31c-1.287,0-2.33,0.574-2.33,1.281c0,0.706,1.043,1.28,2.33,1.28h14.341
			c1.286,0,2.329,0.573,2.329,1.28c0,0.706-1.043,1.279-2.329,1.279h-17.235H163.54c-1.286,0-2.329-0.573-2.329-1.279
			c0-0.707,1.043-1.28,2.329-1.28h3.98c1.286,0,2.329-0.574,2.329-1.28c0-0.707-1.043-1.281-2.329-1.281h-18.943
			c-1.287,0-2.329-0.574-2.329-1.279c0-0.706,1.042-1.28,2.329-1.28h4.477H195.3z"/>
		<path id="path-8_159_" style="fill:#142A3B;" d="M79.925,199.467h14.528c2.802,0,5.073,1.01,5.073,2.255
			c0,1.247-2.271,2.257-5.073,2.257h-0.676c-2.801,0-5.072,1.01-5.072,2.256c0,1.247,2.271,2.256,5.072,2.256h31.233
			c2.802,0,5.073,1.011,5.073,2.257c0,1.245-2.271,2.256-5.073,2.256H87.477H46.222c-2.801,0-5.072-1.011-5.072-2.256
			c0-1.246,2.271-2.257,5.072-2.257h8.668c2.802,0,5.072-1.009,5.072-2.256c0-1.246-2.27-2.256-5.072-2.256H13.636
			c-2.801,0-5.072-1.01-5.072-2.257c0-1.245,2.271-2.255,5.072-2.255h9.75H79.925z"/>
		<path id="path-9_153_" style="fill:#142A3B;" d="M169.851,214.956c3.198,0,5.791-1.153,5.791-2.576
			c0-1.423-2.593-2.576-5.791-2.576h-17.748c-3.198,0-5.792,1.153-5.792,2.576c0,1.423,2.594,2.576,5.792,2.576H169.851z"/>
		<path id="path-10_138_" style="fill:#142A3B;" d="M46.257,174.34c2.4,0,4.345-0.475,4.345-1.06c0-0.586-1.945-1.061-4.345-1.061
			H32.941c-2.399,0-4.345,0.475-4.345,1.061c0,0.585,1.946,1.06,4.345,1.06H46.257z"/>
	</g>
</g>
<g>
</g>
<g>
</g>
<g>
</g>
<g>
</g>
<g>
</g>
<g>
</g>
<g>
</g>
<g>
</g>
<g>
</g>
<g>
</g>
<g>
</g>
<g>
</g>
<g>
</g>
<g>
</g>
<g>
</g>
</svg>
