<?xml version="1.0" encoding="iso-8859-1"?>
<!-- Generator: Adobe Illustrator 19.1.0, SVG Export Plug-In . SVG Version: 6.00 Build 0)  -->
<svg version="1.1" id="Capa_1" xmlns="http://www.w3.org/2000/svg" xmlns:xlink="http://www.w3.org/1999/xlink" x="0px" y="0px"
	 viewBox="0 0 217.222 217.222" style="enable-background:new 0 0 217.222 217.222;" xml:space="preserve">
<g>
	<g id="group-77svg">
		<path id="path-1_135_" style="fill:#142A3B;" d="M118.069,17.688v-5.123c0-0.988-1.515-1.789-3.382-1.789
			c-1.868,0-3.382,0.801-3.382,1.789v0.239c0,0.987-1.514,1.788-3.382,1.788c-1.868,0-3.382-0.801-3.382-1.788V1.789
			c0-0.988-1.514-1.789-3.382-1.789c-1.868,0-3.382,0.801-3.382,1.789v13.236V42.08c0,0.988,1.514,1.789,3.382,1.789
			c1.868,0,3.382-0.801,3.382-1.789v-3.057c0-0.988,1.514-1.788,3.382-1.788c1.868,0,3.382,0.8,3.382,1.788v14.548
			c0,0.988,1.514,1.789,3.382,1.789c1.867,0,3.382-0.801,3.382-1.789v-3.438V17.688z"/>
		<path id="path-2_135_" style="fill:#142A3B;" d="M84.402,19.86v-2.515c0-0.485-0.743-0.878-1.66-0.878s-1.66,0.393-1.66,0.878
			v0.117c0,0.485-0.744,0.878-1.661,0.878s-1.66-0.393-1.66-0.878v-5.408c0-0.485-0.744-0.879-1.661-0.879s-1.66,0.394-1.66,0.879
			v6.498v13.284c0,0.485,0.743,0.878,1.66,0.878s1.661-0.393,1.661-0.878v-1.5c0-0.485,0.743-0.878,1.66-0.878
			s1.661,0.393,1.661,0.878v7.143c0,0.485,0.743,0.878,1.66,0.878s1.66-0.393,1.66-0.878V35.79V19.86z"/>
		<path id="path-3_135_" style="fill:#142A3B;" d="M135.027,20.272c0-2.67,1.736-4.834,3.878-4.834c2.141,0,3.878,2.164,3.878,4.834
			v14.816c0,2.67-1.737,4.835-3.878,4.835c-2.142,0-3.878-2.165-3.878-4.835V20.272z"/>
		<path id="path-4_135_" style="fill:#0CB04A;" d="M76.682,123.875h63.858l54.673-40.047H22.009L76.682,123.875z"/>
		<path id="path-5_134_" style="opacity:0.35;enable-background:new    ;" d="M22.009,83.828l5.222,3.825l110.753,8.071
			c5.136,0.374,7.024,6.944,2.869,9.988l-24.797,18.164h24.484l54.673-40.048H22.009z"/>
		<path id="path-6_131_" style="fill:#0CB04A;" d="M87.136,123.793h42.95v93.429h-42.95V123.793z"/>
		<path id="path-7_128_" style="opacity:0.35;enable-background:new    ;" d="M87.136,123.793l29.96,4.819v88.61h12.99v-93.429
			H87.136z"/>
		<path id="path-8_105_" style="fill:#0CB04A;" d="M11.322,63.266H205.9v20.562H11.322V63.266z"/>
	</g>
</g>
<g>
</g>
<g>
</g>
<g>
</g>
<g>
</g>
<g>
</g>
<g>
</g>
<g>
</g>
<g>
</g>
<g>
</g>
<g>
</g>
<g>
</g>
<g>
</g>
<g>
</g>
<g>
</g>
<g>
</g>
</svg>
