<?xml version="1.0" encoding="iso-8859-1"?>
<!-- Generator: Adobe Illustrator 19.1.0, SVG Export Plug-In . SVG Version: 6.00 Build 0)  -->
<svg version="1.1" id="Capa_1" xmlns="http://www.w3.org/2000/svg" xmlns:xlink="http://www.w3.org/1999/xlink" x="0px" y="0px"
	 viewBox="0 0 224.47 224.47" style="enable-background:new 0 0 224.47 224.47;" xml:space="preserve">
<g>
	<g id="group-65svg">
		<path id="path-1_122_" style="fill:#FF3A2F;" d="M57.353,129.039H40.74c-3.204,0-5.8,1.775-5.8,3.965s2.596,3.964,5.8,3.964h0.773
			c3.203,0,5.8,1.775,5.8,3.966c0,2.189-2.597,3.964-5.8,3.964H5.8c-3.203,0-5.8,1.775-5.8,3.964c0,2.19,2.597,3.965,5.8,3.965
			h42.918h87.722c3.204,0,5.8-1.775,5.8-3.965c0-2.189-2.596-3.964-5.8-3.964h-9.911c-3.203,0-5.8-1.775-5.8-3.964
			c0-2.191,2.597-3.966,5.8-3.966h38.928c3.203,0,5.8-1.774,5.8-3.964s-2.597-3.965-5.8-3.965h-2.905H57.353z"/>
		<path id="path-2_122_" style="fill:#FF3A2F;" d="M160.385,153.889c-2.685,0-4.862-1.902-4.862-4.249s2.177-4.249,4.862-4.249
			h14.901c2.685,0,4.862,1.902,4.862,4.249s-2.177,4.249-4.862,4.249H160.385z"/>
		<path id="path-3_122_" style="fill:#0CB04A;" d="M220.17,108.271h-61.713c-2.375,0-4.301-1.925-4.301-4.299v-0.683
			c0-2.374,1.926-4.3,4.301-4.3h61.713c2.375,0,4.3,1.926,4.3,4.3v0.683C224.47,106.346,222.545,108.271,220.17,108.271z"/>
		<path id="path-4_122_" style="fill:#0CB04A;" d="M141.081,132.076H51.35L15.929,99.608h160.572L141.081,132.076z"/>
		<path id="path-5_121_" style="fill:#0CB04A;" d="M62.128,80.923h68.173c2.846,0,5.657,0.614,8.242,1.8l26.395,12.096H27.492
			l26.394-12.096C56.473,81.537,59.284,80.923,62.128,80.923z"/>
		<path id="path-6_118_" style="fill:#EDEDED;" d="M44.8,119.1c-0.819,0-1.643-0.276-2.321-0.844l-6.683-5.586
			c-1.532-1.281-1.737-3.565-0.454-5.099c1.282-1.531,3.561-1.742,5.1-0.454l6.683,5.584c1.532,1.282,1.737,3.566,0.453,5.101
			C46.862,118.658,45.836,119.1,44.8,119.1z"/>
		<path id="path-7_115_" style="opacity:0.35;enable-background:new    ;" d="M156.129,99.608l-18.572,17.023
			c-5.32,4.877-12.274,7.582-19.491,7.582H42.772l8.578,7.863h89.731l35.42-32.468H156.129z"/>
		<path id="path-8_92_" style="opacity:0.35;enable-background:new    ;" d="M138.542,82.722c-2.586-1.185-5.396-1.799-8.241-1.799
			h-6.762l6.442,2.953c3.586,1.643,2.414,7.012-1.529,7.012H36.071l-8.579,3.931h137.446L138.542,82.722z"/>
		<path id="path-9_79_" style="fill:#0CB04A;" d="M109.816,75.703H82.615c-0.36,0-0.651-0.293-0.651-0.652v-3.819
			c0-0.36,0.291-0.651,0.651-0.651h27.201c0.359,0,0.651,0.291,0.651,0.651v3.819C110.467,75.41,110.175,75.703,109.816,75.703z"/>
	</g>
</g>
<g>
</g>
<g>
</g>
<g>
</g>
<g>
</g>
<g>
</g>
<g>
</g>
<g>
</g>
<g>
</g>
<g>
</g>
<g>
</g>
<g>
</g>
<g>
</g>
<g>
</g>
<g>
</g>
<g>
</g>
</svg>
