<?xml version="1.0" encoding="iso-8859-1"?>
<!-- Generator: Adobe Illustrator 19.1.0, SVG Export Plug-In . SVG Version: 6.00 Build 0)  -->
<svg version="1.1" id="Capa_1" xmlns="http://www.w3.org/2000/svg" xmlns:xlink="http://www.w3.org/1999/xlink" x="0px" y="0px"
	 viewBox="0 0 217.229 217.229" style="enable-background:new 0 0 217.229 217.229;" xml:space="preserve">
<g>
	<g id="group-37svg">
		<path id="path-1_91_" style="fill:#2476FF;" d="M70.756,155.359H50.261c-3.952,0-7.156,2.335-7.156,5.216
			c0,2.881,3.204,5.215,7.156,5.215h0.953c3.952,0,7.156,2.335,7.156,5.216s-3.204,5.216-7.156,5.216H7.155
			c-3.951,0-7.155,2.335-7.155,5.215c0,2.881,3.204,5.216,7.155,5.216h52.948h108.224c3.952,0,7.155-2.335,7.155-5.216
			c0-2.88-3.203-5.215-7.155-5.215h-12.228c-3.951,0-7.155-2.335-7.155-5.216s3.204-5.216,7.155-5.216h48.025
			c3.952,0,7.156-2.334,7.156-5.215c0-2.881-3.204-5.216-7.156-5.216h-3.584H70.756z"/>
		<path id="path-2_91_" style="fill:#2476FF;" d="M196.743,187.122c-2.784,0-5.04-1.652-5.04-3.689c0-2.038,2.256-3.689,5.04-3.689
			h15.445c2.784,0,5.041,1.651,5.041,3.689c0,2.037-2.257,3.689-5.041,3.689H196.743z"/>
		<path id="path-3_91_" style="fill:#142A3B;" d="M165.539,70.635h-57.358c0.538-6.835,2.356-9.499,4.425-12.448
			c3.045-4.338,6.497-9.247,6.497-23.638c0-2.455-1.987-4.441-4.442-4.441c-2.454,0-4.441,1.986-4.441,4.441
			c0,11.581-2.264,14.798-4.884,18.538c-2.559,3.635-5.412,7.711-6.076,17.548H52.494c-25.004,0-45.352,20.133-45.352,44.881
			c0,24.462,19.922,43.617,45.352,43.617c15.389,0,27.296-10.29,33.714-17.437h45.074c5.547,6.107,17.662,16.924,33.845,16.924
			c25.508,0,45.49-19.301,45.49-43.945C210.617,89.979,190.818,70.635,165.539,70.635z"/>
		<path id="path-4_91_" style="opacity:0.35;fill:#060606;enable-background:new    ;" d="M193.902,80.229
			c5.841,7.421,9.316,16.755,9.316,27.048c0,24.643-19.982,43.945-45.49,43.945c-16.183,0-28.297-10.817-33.845-16.925H78.809
			c-6.418,7.148-18.325,17.436-33.714,17.436c-11.012,0-20.983-3.603-28.76-9.661c8.216,10.416,21.217,17.06,36.159,17.06
			c15.389,0,27.296-10.289,33.714-17.436h45.074c5.547,6.108,17.662,16.925,33.845,16.925c25.508,0,45.49-19.302,45.49-43.945
			C210.617,100.575,204.146,88.237,193.902,80.229z"/>
		<path id="path-5_90_" style="fill:#060606;" d="M67.284,118.747h-8.883v8.883c0,2.456-1.986,4.442-4.441,4.442
			c-2.455,0-4.442-1.986-4.442-4.442v-8.883h-8.883c-2.454,0-4.442-1.986-4.442-4.441c0-2.454,1.988-4.441,4.442-4.441h8.883v-8.882
			c0-2.456,1.987-4.441,4.442-4.441c2.455,0,4.441,1.985,4.441,4.441v8.882h8.883c2.455,0,4.442,1.987,4.442,4.441
			C71.726,116.761,69.739,118.747,67.284,118.747z"/>
		<path id="path-6_87_" style="fill:#FF3A2F;" d="M63.585,115.048h-8.884v8.884c0,2.454-1.986,4.44-4.441,4.44
			c-2.455,0-4.442-1.986-4.442-4.44v-8.884h-8.883c-2.454,0-4.441-1.986-4.441-4.441c0-2.456,1.987-4.442,4.441-4.442h8.883v-8.883
			c0-2.454,1.987-4.441,4.442-4.441c2.455,0,4.441,1.987,4.441,4.441v8.883h8.884c2.455,0,4.441,1.986,4.441,4.442
			C68.026,113.062,66.04,115.048,63.585,115.048z"/>
		<path id="path-7_86_" style="fill:#EDEDED;" d="M99.116,115.048h-8.883c-2.454,0-4.441-1.986-4.441-4.441
			c0-2.456,1.987-4.442,4.441-4.442h8.883c2.455,0,4.441,1.986,4.441,4.442C103.557,113.062,101.571,115.048,99.116,115.048z"/>
		<path id="path-8_66_" style="fill:#EDEDED;" d="M125.765,115.048h-8.883c-2.455,0-4.441-1.986-4.441-4.441
			c0-2.456,1.986-4.442,4.441-4.442h8.883c2.456,0,4.441,1.986,4.441,4.442C130.206,113.062,128.221,115.048,125.765,115.048z"/>
		<circle id="circle-1_7_" style="fill:#060606;" cx="156" cy="128.109" r="10"/>
		<circle id="circle-2_6_" style="fill:#060606;" cx="183" cy="101.109" r="10"/>
		<path id="path-9_57_" style="fill:#0CB04A;" d="M152.414,132.814c-4.906,0-8.883-3.973-8.883-8.882
			c0-4.902,3.977-8.884,8.883-8.884c4.905,0,8.882,3.982,8.882,8.884C161.296,128.84,157.319,132.814,152.414,132.814z"/>
		<path id="path-10_51_" style="fill:#0CB04A;" d="M179.062,106.165c-4.905,0-8.882-3.973-8.882-8.883
			c0-4.901,3.977-8.881,8.882-8.881c4.906,0,8.884,3.98,8.884,8.881C187.946,102.192,183.968,106.165,179.062,106.165z"/>
	</g>
</g>
<g>
</g>
<g>
</g>
<g>
</g>
<g>
</g>
<g>
</g>
<g>
</g>
<g>
</g>
<g>
</g>
<g>
</g>
<g>
</g>
<g>
</g>
<g>
</g>
<g>
</g>
<g>
</g>
<g>
</g>
</svg>
