<?xml version="1.0" encoding="iso-8859-1"?>
<!-- Generator: Adobe Illustrator 19.1.0, SVG Export Plug-In . SVG Version: 6.00 Build 0)  -->
<svg version="1.1" id="Capa_1" xmlns="http://www.w3.org/2000/svg" xmlns:xlink="http://www.w3.org/1999/xlink" x="0px" y="0px"
	 viewBox="0 0 217.229 217.229" style="enable-background:new 0 0 217.229 217.229;" xml:space="preserve">
<g>
	<g id="group-15svg">
		<path id="path-1_56_" style="fill:#FBB713;" d="M92.761,180.369H75.783c-3.273,0-5.927,1.519-5.927,3.394
			c0,1.874,2.654,3.394,5.927,3.394h0.79c3.274,0,5.927,1.519,5.927,3.393c0,1.874-2.653,3.394-5.927,3.394H40.077
			c-3.274,0-5.928,1.519-5.928,3.394s2.654,3.395,5.928,3.395h43.859h89.648c3.274,0,5.927-1.52,5.927-3.395
			s-2.653-3.394-5.927-3.394h-10.129c-3.273,0-5.926-1.52-5.926-3.394c0-1.874,2.653-3.393,5.926-3.393h39.782
			c3.274,0,5.928-1.52,5.928-3.394c0-1.875-2.654-3.394-5.928-3.394h-2.969H92.761z"/>
		<path id="path-2_56_" style="fill:#FBB713;" d="M197.032,201.641c-2.744,0-4.969-1.628-4.969-3.637s2.225-3.638,4.969-3.638
			h15.228c2.744,0,4.969,1.629,4.969,3.638s-2.225,3.637-4.969,3.637H197.032z"/>
		<path id="path-3_56_" style="fill:#FBB713;" d="M4.969,201.641c-2.744,0-4.969-1.628-4.969-3.637s2.225-3.638,4.969-3.638h15.228
			c2.745,0,4.969,1.629,4.969,3.638s-2.224,3.637-4.969,3.637H4.969z"/>
		<path id="path-4_56_" style="fill:#142A3B;" d="M144.15,15.588h-39.264c-5.824,0-10.296,4.775-10.404,10.598
			c-0.104,5.652-4.72,10.203-10.399,10.203H58.409c-4.259,0-8.342,1.692-11.353,4.703L22.478,65.668
			c-3.011,3.012-4.703,7.095-4.703,11.354v99.779c0,5.744,4.657,10.401,10.401,10.401H144.15c5.745,0,10.401-4.657,10.401-10.401
			V39.509v-3.12v-10.4C154.551,20.244,149.895,15.588,144.15,15.588z M137.389,36.389h-22.882c-2.298,0-4.161-1.862-4.161-4.16
			c0-2.297,1.863-4.161,4.161-4.161h22.882c2.298,0,4.161,1.864,4.161,4.161C141.55,34.527,139.687,36.389,137.389,36.389z"/>
		<path id="path-5_56_" style="opacity:0.3;fill:#020403;enable-background:new    ;" d="M49.048,42.63h25.674
			c4.271,0,7.939-2.577,9.54-6.259c-0.061,0.002-0.118,0.019-0.179,0.019H58.409c-4.259,0-8.342,1.691-11.353,4.702l-2.153,2.152
			C46.25,42.883,47.629,42.63,49.048,42.63z"/>
		<path id="path-6_54_" style="opacity:0.3;fill:#020403;enable-background:new    ;" d="M144.15,15.588h-39.265
			c-4.271,0-7.796,2.58-9.425,6.246c0.022,0,0.042-0.006,0.064-0.006h39.265c5.745,0,10.401,4.658,10.401,10.4V42.63v3.121v137.291
			c0,1.473-0.315,2.872-0.868,4.143c5.663-0.094,10.229-4.699,10.229-10.384V39.509V36.39V25.988
			C154.551,20.244,149.895,15.588,144.15,15.588z"/>
		<path id="path-7_53_" style="fill:#FBB713;" d="M52.186,40.064l-28.878,28c-0.545,0.529-1.416,0.516-1.945-0.03l-9.165-9.452
			c-0.529-0.545-0.516-1.415,0.029-1.945l28.879-28.001c0.546-0.528,1.416-0.515,1.945,0.031l9.165,9.452
			C52.745,38.664,52.731,39.534,52.186,40.064z"/>
		<path id="path-8_39_" style="opacity:0.3;fill:#020403;enable-background:new    ;" d="M50.187,36.025l-5.107-5.266
			c-1.649-1.701-4.366-1.743-6.067-0.094l-0.136,0.133l5.068,5.227c1.65,1.702,1.609,4.418-0.092,6.068L19.296,65.902l0.038,0.039
			c1.65,1.701,4.366,1.743,6.067,0.094l24.693-23.942C51.795,40.443,51.836,37.727,50.187,36.025z"/>
		<path id="path-9_33_" style="opacity:0.3;fill:#020403;enable-background:new    ;" d="M59.859,149.28L59.859,149.28
			c-0.812-0.813-0.812-2.129,0-2.943l62.148-62.145c0.812-0.812,2.129-0.812,2.942,0l0,0c0.812,0.813,0.812,2.13,0,2.942
			L62.801,149.28C61.988,150.092,60.672,150.092,59.859,149.28z"/>
		<path id="path-10_30_" style="opacity:0.3;fill:#020403;enable-background:new    ;" d="M124.949,149.28L124.949,149.28
			c0.812-0.813,0.812-2.129,0-2.943L62.801,84.192c-0.813-0.812-2.129-0.812-2.942,0l0,0c-0.812,0.813-0.812,2.13,0,2.942
			l62.148,62.146C122.819,150.092,124.136,150.092,124.949,149.28z"/>
		<path id="path-11_23_" style="fill:#EDEDED;" d="M53.618,149.28L53.618,149.28c-0.812-0.813-0.812-2.129,0-2.943l62.148-62.145
			c0.812-0.812,2.13-0.812,2.942,0l0,0c0.813,0.813,0.813,2.13,0,2.942L56.56,149.28C55.748,150.092,54.43,150.092,53.618,149.28z"
			/>
		<path id="path-12_19_" style="fill:#EDEDED;" d="M118.708,149.28L118.708,149.28c0.813-0.813,0.813-2.129,0-2.943L56.56,84.192
			c-0.812-0.812-2.13-0.812-2.942,0l0,0c-0.812,0.813-0.812,2.13,0,2.942l62.148,62.146
			C116.578,150.092,117.896,150.092,118.708,149.28z"/>
	</g>
</g>
<g>
</g>
<g>
</g>
<g>
</g>
<g>
</g>
<g>
</g>
<g>
</g>
<g>
</g>
<g>
</g>
<g>
</g>
<g>
</g>
<g>
</g>
<g>
</g>
<g>
</g>
<g>
</g>
<g>
</g>
</svg>
