<?xml version="1.0" encoding="iso-8859-1"?>
<!-- Generator: Adobe Illustrator 19.1.0, SVG Export Plug-In . SVG Version: 6.00 Build 0)  -->
<svg version="1.1" id="Capa_1" xmlns="http://www.w3.org/2000/svg" xmlns:xlink="http://www.w3.org/1999/xlink" x="0px" y="0px"
	 viewBox="0 0 217.229 217.229" style="enable-background:new 0 0 217.229 217.229;" xml:space="preserve">
<g>
	<g id="group-30svg">
		<path id="path-1_84_" style="fill:#142A3B;" d="M106.22,184.124H91.078c-2.919,0-5.286,1.694-5.286,3.785
			c0,2.09,2.367,3.785,5.286,3.785h0.704c2.92,0,5.287,1.694,5.287,3.785s-2.367,3.786-5.287,3.786h-32.55
			c-2.919,0-5.286,1.694-5.286,3.784c0,2.091,2.367,3.786,5.286,3.786h39.117h79.954c2.92,0,5.287-1.695,5.287-3.786
			c0-2.09-2.367-3.784-5.287-3.784h-9.033c-2.919,0-5.286-1.695-5.286-3.786s2.367-3.785,5.286-3.785h35.48
			c2.92,0,5.287-1.695,5.287-3.785c0-2.091-2.367-3.785-5.287-3.785h-2.648H106.22z"/>
		<path id="path-2_84_" style="fill:#142A3B;" d="M199.216,207.849c-2.448,0-4.432-1.817-4.432-4.058
			c0-2.239,1.984-4.056,4.432-4.056h13.581c2.448,0,4.432,1.817,4.432,4.056c0,2.241-1.984,4.058-4.432,4.058H199.216z"/>
		<path id="path-3_84_" style="fill:#142A3B;" d="M27.922,207.849c-2.448,0-4.433-1.817-4.433-4.058
			c0-2.239,1.985-4.056,4.433-4.056h13.579c2.449,0,4.433,1.817,4.433,4.056c0,2.241-1.984,4.058-4.433,4.058H27.922z"/>
		<path id="path-4_84_" style="fill:#FF3A2F;" d="M143.435,185.938H15.938V71.159h127.497V185.938z"/>
		<path id="path-5_83_" style="opacity:0.35;fill:#090908;enable-background:new    ;" d="M81.219,75.398H70.88v110.54h10.339
			V75.398z"/>
		<path id="path-6_80_" style="fill:#0CB04A;" d="M84.856,75.398H74.517v110.54h10.339V75.398z"/>
		<path id="path-7_79_" style="fill:#0CB04A;" d="M120.672,13.069c-6.944-6.944-21.347-3.798-32.171,7.026
			c-4.063,4.063-7.043,8.63-8.815,13.117c-1.771-4.487-4.752-9.054-8.815-13.117c-10.823-10.824-25.227-13.97-32.17-7.026
			c-6.945,6.943-3.799,21.347,7.025,32.17c10.824,10.824,25.227,13.97,32.171,7.025c0.71-0.708,1.287-1.514,1.789-2.368
			c0.502,0.854,1.079,1.66,1.789,2.368c6.944,6.945,21.347,3.799,32.171-7.025C124.47,34.416,127.616,20.012,120.672,13.069z
			 M77.787,52.154c-3.728,3.728-12.436,1.063-19.451-5.953c-7.016-7.016-9.681-15.723-5.954-19.451
			c3.728-3.727,12.436-1.061,19.451,5.954c2.688,2.687,4.722,5.62,6.018,8.428c-0.185,2.953,0.26,5.691,1.405,8.007
			C79.021,50.313,78.578,51.363,77.787,52.154z M101.037,46.201c-7.015,7.016-15.724,9.681-19.451,5.953
			c-0.791-0.791-1.235-1.841-1.469-3.015c1.144-2.316,1.589-5.054,1.405-8.007c1.295-2.808,3.33-5.741,6.017-8.428
			c7.016-7.015,15.724-9.681,19.451-5.954C110.718,30.478,108.052,39.185,101.037,46.201z"/>
		<path id="path-8_60_" style="opacity:0.35;fill:#090908;enable-background:new    ;" d="M107.012,37.88
			c-1.158,2.476-2.939,5.032-5.183,7.44h11.731c0.028-0.028,0.058-0.052,0.086-0.081c2.324-2.323,4.27-4.815,5.862-7.359H107.012z"
			/>
		<path id="path-9_53_" style="opacity:0.35;fill:#090908;enable-background:new    ;" d="M81.522,41.132
			c0.495-1.073,1.13-2.163,1.836-3.252h-7.344c0.707,1.089,1.342,2.179,1.837,3.252c-0.091,1.458-0.026,2.861,0.198,4.188h3.275
			C81.548,43.993,81.613,42.59,81.522,41.132z"/>
		<path id="path-10_48_" style="opacity:0.35;fill:#090908;enable-background:new    ;" d="M53.519,40.356l-11.601,0.497
			c1.592,2.544,1.485,2.063,3.808,4.386c0.029,0.029,0.058,0.053,0.087,0.081h11.731C55.3,42.912,54.676,42.832,53.519,40.356z"/>
		<path id="path-11_40_" style="fill:#FF3A2F;" d="M159.372,88.109H0V45.32h159.372V88.109z"/>
		<path id="path-12_35_" style="opacity:0.35;fill:#090908;enable-background:new    ;" d="M143.239,109.078L15.934,94.531v-6.423
			h127.305V109.078z"/>
	</g>
</g>
<g>
</g>
<g>
</g>
<g>
</g>
<g>
</g>
<g>
</g>
<g>
</g>
<g>
</g>
<g>
</g>
<g>
</g>
<g>
</g>
<g>
</g>
<g>
</g>
<g>
</g>
<g>
</g>
<g>
</g>
</svg>
