<?xml version="1.0" encoding="iso-8859-1"?>
<!-- Generator: Adobe Illustrator 19.1.0, SVG Export Plug-In . SVG Version: 6.00 Build 0)  -->
<svg version="1.1" id="Capa_1" xmlns="http://www.w3.org/2000/svg" xmlns:xlink="http://www.w3.org/1999/xlink" x="0px" y="0px"
	 viewBox="0 0 217.223 217.223" style="enable-background:new 0 0 217.223 217.223;" xml:space="preserve">
<g>
	<g id="group-1svg">
		<path id="path-1" style="fill:#FBB713;" d="M180.782,49.149c0,27.153-22.005,49.158-49.149,49.158
			c-27.147,0-49.152-22.005-49.152-49.158C82.481,22.006,104.486,0,131.633,0C158.777,0,180.782,22.006,180.782,49.149z"/>
		<path id="path-2" style="opacity:0.3;fill:#3E66A5;enable-background:new    ;" d="M131.633,92.948
			c-26.283,0-47.683-20.644-49.022-46.599c-0.045,0.851-0.13,1.693-0.13,2.558c0,27.15,22.005,49.155,49.152,49.155
			c27.144,0,49.149-22.005,49.149-49.155c0-0.865-0.085-1.707-0.13-2.558C179.314,72.304,157.913,92.948,131.633,92.948z"/>
		<path id="path-3" style="fill:#3E66A5;" d="M199.341,106.326l-36.558,19.121c-9.837,5.094-21.943,1.254-27.04-8.587
			c-0.328-0.629-0.612-1.272-0.869-1.916c-0.981,0.173-1.985,0.278-3.012,0.278c-1.033,0-2.035-0.105-3.018-0.281
			c-0.255,0.647-0.542,1.29-0.87,1.919c-5.096,9.841-17.205,13.681-27.041,8.587l-36.557-19.121
			c-6.058-3.138-9.828-8.934-10.652-15.217c-1.027,8.106,2.971,16.352,10.652,20.332l36.557,19.12
			c9.836,5.093,21.945,1.253,27.041-8.588c0.328-0.629,0.615-1.27,0.87-1.917c0.983,0.175,1.985,0.28,3.018,0.28
			c1.027,0,2.031-0.105,3.012-0.278c0.257,0.645,0.541,1.286,0.869,1.915c5.097,9.841,17.203,13.681,27.04,8.588l36.558-19.12
			c7.679-3.98,11.679-12.229,10.653-20.337C209.17,97.392,205.397,103.188,199.341,106.326z"/>
		<path id="path-4" style="fill:#FBB713;" d="M165.546,129.231l33.795-17.675c9.839-5.099,13.677-17.205,8.583-27.043
			c-5.094-9.836-17.205-13.679-27.045-8.583l-34.603,18.101c-3.054-4.736-8.362-7.878-14.414-7.878
			c-6.055,0-11.367,3.142-14.416,7.881L82.841,75.93c-9.843-5.096-21.951-1.253-27.045,8.583c-5.099,9.838-1.261,21.944,8.58,27.043
			l33.796,17.676l-35.288,39.325c-7.807,8.648-7.128,21.99,1.524,29.801c8.651,7.808,21.994,7.127,29.799-1.524
			c0,0,25.966-32.28,37.655-32.28c11.687,0,37.653,32.28,37.653,32.28c7.806,8.651,21.146,9.332,29.796,1.524
			c8.653-7.811,9.333-21.153,1.526-29.801L165.546,129.231z"/>
		<path id="path-5" style="opacity:0.3;fill:#3E66A5;enable-background:new    ;" d="M199.311,193.129
			c-8.65,7.808-21.99,7.126-29.796-1.524c0,0-25.966-32.28-37.653-32.28c-11.689,0-37.655,32.28-37.655,32.28
			c-7.805,8.65-21.148,9.332-29.799,1.524c-3.934-3.555-6.202-8.251-6.789-13.131c-0.807,6.591,1.485,13.454,6.789,18.244
			c8.651,7.809,21.994,7.128,29.799-1.523c0,0,25.966-32.28,37.655-32.28c11.687,0,37.653,32.28,37.653,32.28
			c7.806,8.651,21.146,9.332,29.796,1.523c5.304-4.79,7.597-11.653,6.79-18.244C205.514,184.878,203.247,189.574,199.311,193.129z"
			/>
		<path id="path-6" style="fill:#FF3A2F;" d="M100.638,189.173c1.256-1.414,2.657-2.957,4.145-4.553
			c-9.846-17.681-25.196-22.766-34.75-24.141l-4.77,5.31C72.59,166.037,90.34,168.842,100.638,189.173z"/>
		<path id="path-7" style="fill:#FF3A2F;" d="M163.084,189.175c10.299-20.328,28.041-23.142,35.371-23.39l-4.765-5.306
			c-9.554,1.375-24.902,6.46-34.751,24.141C160.425,186.216,161.829,187.759,163.084,189.175z"/>
		<path id="path-8" style="fill:#FF3A2F;" d="M89.883,79.498c-0.528,7.813-3.971,23.79-22.36,33.588l6.073,3.174
			c16.046-10.083,20.561-24.853,21.748-33.905L89.883,79.498z"/>
		<path id="path-9" style="fill:#FF3A2F;" d="M173.84,79.496l-5.462,2.856c1.185,9.052,5.696,23.822,21.744,33.908l6.075-3.176
			C177.808,103.285,174.365,87.31,173.84,79.496z"/>
		<path id="path-10" style="fill:#142A3B;" d="M117.154,47.78c0,3.206-2.602,5.806-5.808,5.806c-3.209,0-5.809-2.6-5.809-5.806
			c0-3.211,2.6-5.809,5.809-5.809C114.552,41.971,117.154,44.569,117.154,47.78z"/>
		<path id="path-11" style="fill:#142A3B;" d="M155.898,47.78c0,3.206-2.602,5.806-5.809,5.806c-3.206,0-5.808-2.6-5.808-5.806
			c0-3.211,2.602-5.809,5.808-5.809C153.296,41.971,155.898,44.569,155.898,47.78z"/>
		<path id="path-12" style="fill:#142A3B;" d="M136.962,116.076c0,2.915-2.365,5.279-5.279,5.279c-2.917,0-5.277-2.364-5.277-5.279
			c0-2.915,2.36-5.279,5.277-5.279C134.597,110.797,136.962,113.161,136.962,116.076z"/>
		<path id="path-13" style="fill:#142A3B;" d="M136.962,135.447c0,2.918-2.365,5.277-5.279,5.277c-2.917,0-5.277-2.359-5.277-5.277
			c0-2.913,2.36-5.278,5.277-5.278C134.597,130.169,136.962,132.534,136.962,135.447z"/>
		<path id="path-14" style="fill:#142A3B;" d="M131.63,72.631c-8.278,0-14.299-5.918-14.551-6.17c-1.133-1.134-1.133-2.977,0-4.11
			c1.137-1.134,2.969-1.134,4.106-0.008c0.107,0.105,4.656,4.48,10.445,4.48c5.828,0,10.404-4.438,10.449-4.48
			c1.141-1.122,2.979-1.118,4.105,0.019c1.129,1.135,1.129,2.965-0.005,4.099C145.929,66.713,139.909,72.631,131.63,72.631z"/>
		<path id="path-15" style="fill:#FF3A2F;" d="M136.269,200.306h17.988c3.467,0,6.279,1.262,6.279,2.819s-2.812,2.82-6.279,2.82
			h-0.838c-3.467,0-6.279,1.262-6.279,2.819c0,1.557,2.812,2.82,6.279,2.82h38.667c3.468,0,6.279,1.262,6.279,2.819
			s-2.811,2.82-6.279,2.82h-46.467H94.547c-3.468,0-6.28-1.263-6.28-2.82s2.812-2.819,6.28-2.819h10.731
			c3.468,0,6.279-1.263,6.279-2.82c0-1.557-2.811-2.819-6.279-2.819H54.206c-3.468,0-6.279-1.263-6.279-2.82
			s2.811-2.819,6.279-2.819h12.07H136.269z"/>
		<path id="path-16" style="fill:#FF3A2F;" d="M44.611,158.21c3.54,0,6.41-1.288,6.41-2.877c0-1.589-2.87-2.878-6.41-2.878H24.97
			c-3.54,0-6.409,1.289-6.409,2.878c0,1.589,2.869,2.877,6.409,2.877H44.611z"/>
		<path id="path-17" style="fill:#FF3A2F;" d="M48.31,125.417h5.612c1.082,0,1.959,0.639,1.959,1.429s-0.877,1.429-1.959,1.429
			h-0.261c-1.083,0-1.959,0.641-1.959,1.431c0,0.789,0.876,1.43,1.959,1.43h12.065c1.081,0,1.958,0.639,1.958,1.429
			c0,0.79-0.877,1.429-1.958,1.429H51.227H21.593c-1.082,0-1.96-0.639-1.96-1.429c0-0.79,0.878-1.429,1.96-1.429h3.348
			c1.082,0,1.959-0.641,1.959-1.43c0-0.79-0.877-1.431-1.959-1.431H9.006c-1.082,0-1.96-0.639-1.96-1.429s0.878-1.429,1.96-1.429
			h3.766H48.31z"/>
		<path id="path-18" style="fill:#FF3A2F;" d="M40.342,215.957c3.959,0,7.17-1.441,7.17-3.219s-3.211-3.22-7.17-3.22H18.371
			c-3.96,0-7.17,1.442-7.17,3.22s3.21,3.219,7.17,3.219H40.342z"/>
	</g>
</g>
<g>
</g>
<g>
</g>
<g>
</g>
<g>
</g>
<g>
</g>
<g>
</g>
<g>
</g>
<g>
</g>
<g>
</g>
<g>
</g>
<g>
</g>
<g>
</g>
<g>
</g>
<g>
</g>
<g>
</g>
</svg>
