<?xml version="1.0" encoding="iso-8859-1"?>
<!-- Generator: Adobe Illustrator 19.1.0, SVG Export Plug-In . SVG Version: 6.00 Build 0)  -->
<svg version="1.1" id="Capa_1" xmlns="http://www.w3.org/2000/svg" xmlns:xlink="http://www.w3.org/1999/xlink" x="0px" y="0px"
	 viewBox="0 0 220.598 220.598" style="enable-background:new 0 0 220.598 220.598;" xml:space="preserve">
<g>
	<g id="group-44svg">
		<path id="path-1_107_" style="fill:#0CB04A;" d="M117.969,61.371c-4.946,1.477-10.817,1.955-17.635-0.087
			C51.829,44.166,0,55.666,0,55.666s0.462,4.488,1.558,11.718c9.705,1.228,9.682,12.977,9.682,12.977s1.977,16.916,6.118,25.963
			c6.504,14.209,31.853,16.859,31.853,16.859c16.404,2.352,29.97-3.597,35.981-9.612c6.879-6.891,7.217-10.625,10.501-23.572
			c2.628-10.36,5.049-10.336,10.041-10.336c6.748,0,10.721,0.144,13.222,10.464c3.146,12.985,5.945,17.473,12.751,24.428
			c5.949,6.083,19.866,11.794,36.303,9.61c0,0,25.576-2.571,32.24-16.715c4.23-9.003,6.496-25.992,6.496-25.992
			s0.157-11.803,9.876-12.932c1.174-7.221,1.711-11.707,1.711-11.707S166.652,44.758,117.969,61.371z M85.668,78.242
			c-1.963,0.406-0.877,1.877-2.24,7.253c-2.357,9.29-2.599,11.968-7.533,16.911c-4.314,4.314-14.045,8.583-25.812,6.896
			c0,0-18.185-1.902-22.85-12.094c-2.971-6.49-4.389-18.625-4.389-18.625l-0.32-1.208c-0.98-6.46-1.392-10.469-1.392-10.469
			s29.16-6.982,64.536-0.834V78.242z M193.631,80.118l-0.32,1.208c0,0-1.418,12.134-4.39,18.625
			c-4.665,10.193-22.85,12.092-22.85,12.092c-11.767,1.69-21.499-2.58-25.812-6.894c-4.934-4.943-5.177-7.622-7.532-16.911
			c-1.364-5.375-0.278-6.847-2.241-7.254v-12.17c35.376-6.147,64.536,0.836,64.536,0.836S194.609,73.658,193.631,80.118z"/>
		<path id="path-2_107_" style="opacity:0.35;fill:#020403;enable-background:new    ;" d="M88.424,61.284
			c5.63,1.686,10.604,1.641,14.956,0.746c-0.996-0.2-2.006-0.434-3.046-0.746c-23.101-8.152-46.942-9.809-65.592-9.314
			C51.103,52.414,69.999,54.782,88.424,61.284z"/>
		<path id="path-3_107_" style="opacity:0.35;fill:#020403;enable-background:new    ;" d="M140.259,105.15
			c-4.934-4.943-5.177-7.622-7.532-16.911c-1.364-5.375-0.278-6.847-2.241-7.254v-12.17c8.554-1.486,16.731-2.194,24.234-2.429
			c-10.344-0.338-22.798,0.11-36.143,2.429v12.17c1.963,0.407,0.877,1.879,2.241,7.254c2.356,9.289,2.598,11.968,7.532,16.911
			c4.314,4.314,14.046,8.584,25.813,6.894c0,0,0.356-0.039,0.947-0.125C148.434,110.831,143.13,108.021,140.259,105.15z"/>
		<path id="path-4_106_" style="opacity:0.35;fill:#020403;enable-background:new    ;" d="M11.679,83.576
			c0.701,4.101,1.904,9.828,3.645,13.632c4.665,10.192,22.85,12.094,22.85,12.094c3.934,0.564,7.608,0.42,10.961-0.126
			c-3.761-0.547-17.871-3.158-21.902-11.968c-2.971-6.49-4.389-18.625-4.389-18.625l-0.32-1.208
			c-0.98-6.46-1.391-10.469-1.391-10.469s11.316-2.707,28.392-3.264c-23.524-0.739-40.301,3.264-40.301,3.264
			s0.311,3.032,1.035,8.062c0.973,2.845,0.981,5.393,0.981,5.393S11.389,81.61,11.679,83.576z"/>
		<path id="path-5_106_" style="opacity:0.35;fill:#020403;enable-background:new    ;" d="M93.824,79.663
			c-4.992,0-7.411-0.024-10.04,10.335c-3.284,12.948-3.621,16.682-10.501,23.573c-4.288,4.29-12.463,8.491-22.727,9.726
			c15.787,1.841,28.792-3.88,34.636-9.726c6.879-6.891,7.217-10.625,10.501-23.573c1.545-6.09,3.022-8.579,4.988-9.608
			C98.784,79.699,96.531,79.663,93.824,79.663z"/>
		<path id="path-6_105_" style="opacity:0.35;fill:#020403;enable-background:new    ;" d="M169.427,52.678
			c21.733,0.59,36.997,4.141,36.997,4.141s-0.537,4.485-1.712,11.707c-9.718,1.129-9.874,12.932-9.874,12.932
			s-2.266,16.989-6.497,25.992c-6.664,14.144-32.24,16.715-32.24,16.715c-0.4,0.054-0.78,0.047-1.179,0.09
			c4.097,0.465,8.474,0.523,13.088-0.09c0,0,25.576-2.571,32.24-16.715c4.23-9.003,6.496-25.992,6.496-25.992
			s0.157-11.803,9.876-12.932c1.174-7.222,1.711-11.707,1.711-11.707S197.293,51.921,169.427,52.678z"/>
		<path id="path-7_105_" style="fill:#FBB713;" d="M172.412,147.936h13.959c2.69,0,4.871,0.716,4.871,1.599
			c0,0.884-2.181,1.6-4.871,1.6h-0.651c-2.691,0-4.873,0.716-4.873,1.6c0,0.883,2.182,1.6,4.873,1.6h30.005
			c2.692,0,4.873,0.716,4.873,1.599s-2.181,1.601-4.873,1.601h-36.058h-39.633c-2.69,0-4.873-0.718-4.873-1.601
			s2.183-1.599,4.873-1.599h8.328c2.692,0,4.873-0.717,4.873-1.6c0-0.884-2.181-1.6-4.873-1.6h-39.631
			c-2.692,0-4.873-0.716-4.873-1.6c0-0.883,2.181-1.599,4.873-1.599h9.366H172.412z"/>
		<path id="path-8_102_" style="fill:#FBB713;" d="M78.04,191.007h9.788c1.887,0,3.416,1.075,3.416,2.403
			c0,1.327-1.529,2.403-3.416,2.403h-0.457c-1.886,0-3.415,1.076-3.415,2.403c0,1.328,1.529,2.403,3.415,2.403h21.042
			c1.887,0,3.416,1.076,3.416,2.403c0,1.328-1.529,2.403-3.416,2.403H83.128H55.336c-1.887,0-3.417-1.075-3.417-2.403
			c0-1.327,1.53-2.403,3.417-2.403h5.84c1.886,0,3.416-1.075,3.416-2.403c0-1.327-1.53-2.403-3.416-2.403H33.384
			c-1.886,0-3.416-1.076-3.416-2.403c0-1.328,1.53-2.403,3.416-2.403h6.568H78.04z"/>
		<path id="path-9_97_" style="fill:#FBB713;" d="M84.503,149.667c3.086,0,5.588-1.214,5.588-2.712s-2.502-2.713-5.588-2.713H67.378
			c-3.086,0-5.588,1.215-5.588,2.713s2.502,2.712,5.588,2.712H84.503z"/>
		<path id="path-10_89_" style="fill:#FBB713;" d="M86.401,15.174h4.593c0.886,0,1.603,0.717,1.603,1.6s-0.717,1.6-1.603,1.6h-0.213
			c-0.886,0-1.604,0.715-1.604,1.598c0,0.885,0.718,1.601,1.604,1.601h9.875c0.887,0,1.604,0.716,1.604,1.6
			c0,0.883-0.717,1.599-1.604,1.599H88.788H75.743c-0.885,0-1.603-0.716-1.603-1.599c0-0.884,0.718-1.6,1.603-1.6h2.741
			c0.886,0,1.605-0.716,1.605-1.601c0-0.883-0.719-1.598-1.605-1.598H65.44c-0.885,0-1.604-0.717-1.604-1.6s0.719-1.6,1.604-1.6
			h3.083H86.401z"/>
	</g>
</g>
<g>
</g>
<g>
</g>
<g>
</g>
<g>
</g>
<g>
</g>
<g>
</g>
<g>
</g>
<g>
</g>
<g>
</g>
<g>
</g>
<g>
</g>
<g>
</g>
<g>
</g>
<g>
</g>
<g>
</g>
</svg>
