<?xml version="1.0" encoding="iso-8859-1"?>
<!-- Generator: Adobe Illustrator 19.1.0, SVG Export Plug-In . SVG Version: 6.00 Build 0)  -->
<svg version="1.1" id="Capa_1" xmlns="http://www.w3.org/2000/svg" xmlns:xlink="http://www.w3.org/1999/xlink" x="0px" y="0px"
	 viewBox="0 0 218.332 218.332" style="enable-background:new 0 0 218.332 218.332;" xml:space="preserve">
<g>
	<g id="group-123svg">
		<path id="path-1_27_" style="fill:#142A3B;" d="M62.602,193.408H44.468c-3.497,0-6.331,1.608-6.331,3.592
			c0,1.983,2.834,3.591,6.331,3.591h0.844c3.496,0,6.33,1.607,6.33,3.59c0,1.984-2.834,3.592-6.33,3.592H6.33
			c-3.496,0-6.33,1.607-6.33,3.592c0,1.983,2.834,3.59,6.33,3.59h46.846h95.752c3.497,0,6.331-1.607,6.331-3.59
			c0-1.985-2.834-3.592-6.331-3.592H138.11c-3.496,0-6.33-1.608-6.33-3.592c0-1.983,2.834-3.59,6.33-3.59h42.491
			c3.496,0,6.331-1.608,6.331-3.591c0-1.984-2.835-3.592-6.331-3.592h-3.172H62.602z"/>
		<path id="path-2_27_" style="fill:#142A3B;" d="M185.064,215.917c-2.931,0-5.307-1.723-5.307-3.849
			c0-2.126,2.376-3.849,5.307-3.849h16.264c2.932,0,5.308,1.723,5.308,3.849c0,2.126-2.376,3.849-5.308,3.849H185.064z"/>
		<path id="path-3_27_" style="fill:#142A3B;" d="M203.743,58.097l-41.288-40.931l15.292-12.3c4.4-3.539,10.786-3.211,14.793,0.762
			l22.551,22.355c3.946,3.913,4.336,10.125,0.91,14.49L203.743,58.097z"/>
		<path id="path-4_27_" style="opacity:0.35;fill:#020403;enable-background:new    ;" d="M215.985,42.494
			c3.429-4.371,3.046-10.585-0.894-14.51l-0.228-0.227c-0.361,0.815-0.787,1.609-1.36,2.339l-5.985,7.627
			c-3.331,4.246-9.664,4.636-13.499,0.833l-26.052-25.825l-5.512,4.435l41.288,40.931L215.985,42.494z"/>
		<path id="path-5_27_" style="fill:#FCCB56;" d="M91.611,205.45l-78.23-77.555l18.254-23.265l83.446,82.724L91.611,205.45z"/>
		<path id="path-6_27_" style="fill:#FFFFFF;" d="M185.381,38.545c-0.932,0-1.862-0.351-2.571-1.055
			c-1.423-1.407-1.423-3.69-0.004-5.099l7.932-7.863c1.421-1.41,3.727-1.409,5.145-0.004c1.424,1.407,1.424,3.691,0.004,5.099
			l-7.932,7.865C187.245,38.192,186.312,38.545,185.381,38.545z"/>
		<path id="path-7_27_" style="fill:#FFFFFF;" d="M174.951,28.203c-1.002,0-1.999-0.407-2.719-1.205
			c-1.337-1.488-1.204-3.764,0.297-5.089l8.394-7.41c1.498-1.327,3.797-1.192,5.137,0.294c1.338,1.487,1.204,3.766-0.297,5.09
			l-8.394,7.408C176.677,27.904,175.811,28.203,174.951,28.203z"/>
		<path id="path-8_27_" style="fill:#FFFFFF;" d="M195.808,48.885c-0.859,0-1.723-0.3-2.416-0.91c-1.501-1.323-1.636-3.603-0.3-5.09
			l7.473-8.322c1.334-1.485,3.634-1.623,5.137-0.297c1.501,1.323,1.636,3.603,0.3,5.09l-7.473,8.321
			C197.812,48.478,196.812,48.885,195.808,48.885z"/>
		<path id="path-9_25_" style="fill:#FBB713;" d="M109.867,182.183L36.85,109.8l83.434-72.982c3.369-2.948,7.707-4.573,12.2-4.573
			h19.738c2.934,0,5.748-1.155,7.823-3.212l7.19-7.128l31.293,31.022l-7.19,7.128c-2.075,2.056-3.241,4.846-3.241,7.756v19.566
			c0,4.453-1.64,8.754-4.613,12.094L109.867,182.183z"/>
		<path id="path-10_23_" style="opacity:0.35;fill:#020403;enable-background:new    ;" d="M36.852,109.799l73.04,72.357
			l6.253-7.028l-77.699-66.434L36.852,109.799z"/>
		<path id="path-11_20_" style="opacity:0.35;fill:#020403;enable-background:new    ;" d="M163.818,25.291
			c-0.759,0.754,25.674,37.296,25.674,37.296c0.502-0.914,1.09-1.784,1.845-2.532l7.189-7.128l-31.304-31.009L163.818,25.291z"/>
	</g>
</g>
<g>
</g>
<g>
</g>
<g>
</g>
<g>
</g>
<g>
</g>
<g>
</g>
<g>
</g>
<g>
</g>
<g>
</g>
<g>
</g>
<g>
</g>
<g>
</g>
<g>
</g>
<g>
</g>
<g>
</g>
</svg>
