<?xml version="1.0" encoding="iso-8859-1"?>
<!-- Generator: Adobe Illustrator 19.1.0, SVG Export Plug-In . SVG Version: 6.00 Build 0)  -->
<svg version="1.1" id="Capa_1" xmlns="http://www.w3.org/2000/svg" xmlns:xlink="http://www.w3.org/1999/xlink" x="0px" y="0px"
	 viewBox="0 0 216.592 216.592" style="enable-background:new 0 0 216.592 216.592;" xml:space="preserve">
<g>
	<g id="group-104svg">
		<path id="path-1_6_" style="fill:#FBB713;" d="M155.795,195.058h-7.719c-1.488,0-2.694,1.293-2.694,2.887
			c0,1.594,1.206,2.886,2.694,2.886h0.36c1.488,0,2.694,1.293,2.694,2.887c0,1.594-1.206,2.886-2.694,2.886h-16.593
			c-1.489,0-2.695,1.293-2.695,2.886c0,1.594,1.206,2.888,2.695,2.888h19.94h40.759c1.488,0,2.694-1.294,2.694-2.888
			c0-1.593-1.206-2.886-2.694-2.886h-4.606c-1.488,0-2.694-1.292-2.694-2.886c0-1.594,1.206-2.887,2.694-2.887h18.087
			c1.489,0,2.695-1.292,2.695-2.886c0-1.594-1.206-2.887-2.695-2.887h-1.349H155.795z"/>
		<path id="path-2_6_" style="fill:#FBB713;" d="M203.667,213.15c-1.248,0-2.259-1.385-2.259-3.093c0-1.709,1.011-3.094,2.259-3.094
			h6.923c1.248,0,2.259,1.385,2.259,3.094c0,1.708-1.011,3.093-2.259,3.093H203.667z"/>
		<path id="path-3_6_" style="fill:#FBB713;" d="M192.823,72.871v5.615c0,1.083,1.407,1.96,3.141,1.96c1.735,0,3.14-0.877,3.14-1.96
			v-0.261c0-1.083,1.406-1.96,3.141-1.96c1.734,0,3.14,0.877,3.14,1.96v12.071c0,1.083,1.405,1.96,3.141,1.96
			c1.734,0,3.14-0.877,3.14-1.96V75.79V46.14c0-1.084-1.406-1.961-3.14-1.961c-1.736,0-3.141,0.877-3.141,1.961v3.349
			c0,1.084-1.406,1.961-3.14,1.961c-1.735,0-3.141-0.877-3.141-1.961V36.332c0-1.082-1.405-1.961-3.14-1.961
			c-1.734,0-3.141,0.879-3.141,1.961v0.983V72.871z"/>
		<path id="path-4_6_" style="fill:#FBB713;" d="M212.506,33.698c0,1.921-1.506,3.479-3.365,3.479c-1.859,0-3.366-1.558-3.366-3.479
			v-10.66c0-1.921,1.507-3.479,3.366-3.479c1.859,0,3.365,1.558,3.365,3.479V33.698z"/>
		<path id="path-5_6_" style="fill:#FBB713;" d="M199.505,108.427c0,1.92-1.506,3.478-3.365,3.478c-1.859,0-3.366-1.558-3.366-3.478
			V97.768c0-1.921,1.507-3.479,3.366-3.479c1.859,0,3.365,1.558,3.365,3.479V108.427z"/>
		<path id="path-6_6_" style="fill:#FBB713;" d="M216.592,158.224c0,1.921-1.507,3.477-3.366,3.477
			c-1.858,0-3.365-1.556-3.365-3.477v-10.66c0-1.922,1.507-3.48,3.365-3.48c1.859,0,3.366,1.558,3.366,3.48V158.224z"/>
		<path id="path-7_6_" style="fill:#FBB713;" d="M52.248,195.316L7.719,150.789c-9.809-9.809-9.809-25.713,0-35.523l63.646-63.644
			c9.81-9.809,25.714-9.809,35.525,0l44.529,44.528c9.809,9.809,9.809,25.714,0,35.523l-63.647,63.643
			C77.963,205.127,62.058,205.127,52.248,195.316z"/>
		<path id="path-8_6_" style="opacity:0.35;enable-background:new    ;" d="M156.421,102.738
			c-0.454,5.515-2.778,10.906-6.997,15.124l-64.926,64.923c-9.457,9.457-24.788,9.457-34.245,0L4.445,136.98
			c-1.797-1.798-3.248-3.809-4.362-5.951c-0.564,6.846,1.759,13.884,6.996,19.121l45.808,45.808c9.457,9.454,24.789,9.454,34.245,0
			l64.926-64.925C159.717,123.374,161.169,111.863,156.421,102.738z"/>
		<path id="path-9_5_" style="fill:#142A3B;" d="M145.099,91.982l-34.042-34.041l14.978-14.977l34.042,34.04L145.099,91.982z"/>
		<path id="path-10_5_" style="fill:#142A3B;" d="M161.06,77.987L125.052,41.98c-1.397-1.396-1.097-3.737,0.607-4.736l34.109-19.993
			c1.184-0.693,2.688-0.502,3.659,0.47l21.894,21.894c0.971,0.969,1.164,2.473,0.47,3.657L165.796,77.38
			C164.797,79.084,162.457,79.384,161.06,77.987z"/>
		<path id="path-11_3_" style="fill:#142A3B;" d="M167.642,21.802l26.625-17.759c3.104-2.07,6.804,1.629,4.733,4.732l-17.76,26.624
			L167.642,21.802z"/>
		<path id="path-12_3_" style="opacity:0.35;enable-background:new    ;" d="M126.035,42.964l24.801,32.744l-5.737,5.738
			l-28.773-28.772l-5.269,5.267l34.042,34.041l14.978-14.978L126.035,42.964z"/>
		<path id="path-13_2_" style="opacity:0.35;enable-background:new    ;" d="M165.796,77.38l19.995-34.108
			c0.695-1.184,0.501-2.688-0.47-3.659l-5.268-5.268c0.971,0.972,1.164,2.475,0.47,3.66l-19.995,34.108
			c-0.999,1.704-3.339,2.003-4.736,0.605l5.268,5.269C162.457,79.384,164.797,79.085,165.796,77.38z"/>
		<path id="path-14_2_" style="opacity:0.35;enable-background:new    ;" d="M199,8.775c2.071-3.103-1.629-6.802-4.733-4.732
			l-1.608,1.073L175.971,30.13l5.269,5.269L199,8.775z"/>
		<path id="path-15_2_" style="fill:#EDEDED;" d="M86.036,171.467L31.57,117.002l41.531-41.529l54.466,54.465L86.036,171.467z"/>
		<path id="path-16_2_" style="opacity:0.35;enable-background:new    ;" d="M124.933,132.571l-38.896,38.896l-51.832-51.831
			l-2.635,2.634l54.467,54.465l41.53-41.53L124.933,132.571z"/>
	</g>
</g>
<g>
</g>
<g>
</g>
<g>
</g>
<g>
</g>
<g>
</g>
<g>
</g>
<g>
</g>
<g>
</g>
<g>
</g>
<g>
</g>
<g>
</g>
<g>
</g>
<g>
</g>
<g>
</g>
<g>
</g>
</svg>
