<?xml version="1.0" encoding="iso-8859-1"?>
<!-- Generator: Adobe Illustrator 19.1.0, SVG Export Plug-In . SVG Version: 6.00 Build 0)  -->
<svg version="1.1" id="Capa_1" xmlns="http://www.w3.org/2000/svg" xmlns:xlink="http://www.w3.org/1999/xlink" x="0px" y="0px"
	 viewBox="0 0 218.332 218.332" style="enable-background:new 0 0 218.332 218.332;" xml:space="preserve">
<g>
	<g id="group-108svg">
		<path id="path-1_10_" style="fill:#142A3B;" d="M63.965,46.513h6.746c1.302,0,2.357,0.58,2.357,1.295S72.013,49.1,70.711,49.1
			h-0.313c-1.301,0-2.355,0.581-2.355,1.295c0,0.716,1.054,1.296,2.355,1.296h14.505c1.301,0,2.356,0.579,2.356,1.294
			c0,0.714-1.055,1.295-2.356,1.295H67.472H31.843c-1.301,0-2.356-0.581-2.356-1.295c0-0.715,1.055-1.294,2.356-1.294h4.025
			c1.301,0,2.356-0.58,2.356-1.296c0-0.714-1.055-1.295-2.356-1.295H16.71c-1.301,0-2.356-0.577-2.356-1.292
			s1.055-1.295,2.356-1.295h4.528H63.965z"/>
		<path id="path-2_10_" style="fill:#142A3B;" d="M192.549,157.047h3.592c0.692,0,1.254,0.578,1.254,1.294s-0.562,1.295-1.254,1.295
			h-0.168c-0.692,0-1.253,0.58-1.253,1.294c0,0.716,0.561,1.294,1.253,1.294h7.722c0.692,0,1.254,0.581,1.254,1.295
			c0,0.716-0.562,1.295-1.254,1.295h-9.279h-18.965c-0.693,0-1.255-0.579-1.255-1.295c0-0.714,0.562-1.295,1.255-1.295h2.142
			c0.692,0,1.254-0.578,1.254-1.294c0-0.714-0.562-1.294-1.254-1.294h-10.198c-0.693,0-1.254-0.579-1.254-1.295
			s0.561-1.294,1.254-1.294h2.41H192.549z"/>
		<path id="path-3_10_" style="fill:#142A3B;" d="M38.225,66.062c3.235,0,5.858-1.167,5.858-2.606c0-1.438-2.623-2.605-5.858-2.605
			H20.276c-3.235,0-5.858,1.167-5.858,2.605c0,1.439,2.623,2.606,5.858,2.606H38.225z"/>
		<path id="path-4_10_" style="fill:#142A3B;" d="M64.617,192.115H45.9c-3.608,0-6.534,1.659-6.534,3.707
			c0,2.047,2.926,3.707,6.534,3.707h0.872c3.608,0,6.534,1.659,6.534,3.706c0,2.048-2.926,3.708-6.534,3.708H6.534
			c-3.608,0-6.534,1.659-6.534,3.706s2.926,3.707,6.534,3.707h48.355h98.836c3.609,0,6.534-1.66,6.534-3.707
			s-2.925-3.706-6.534-3.706h-11.167c-3.609,0-6.535-1.66-6.535-3.708c0-2.047,2.926-3.706,6.535-3.706h43.859
			c3.608,0,6.534-1.66,6.534-3.707c0-2.048-2.926-3.707-6.534-3.707h-3.274H64.617z"/>
		<path id="path-5_10_" style="fill:#142A3B;" d="M191.023,215.349c-3.025,0-5.478-1.779-5.478-3.973
			c0-2.195,2.453-3.973,5.478-3.973h16.788c3.026,0,5.478,1.778,5.478,3.973c0,2.194-2.452,3.973-5.478,3.973H191.023z"/>
		<path id="path-6_10_" style="fill:#FF3A2F;" d="M91.944,183.666c0.3-0.734,0.402-1.513,0.372-2.296
			c1.865-0.961,3.618-2.215,5.199-3.78l80.203-79.453c5.225-5.177,7.079-11.983,5.369-17.579l11.371-11.262
			c0.228-0.227,0.349-0.512,0.516-0.768c0.502-0.256,1.015-0.524,1.444-0.948l11.933-11.824c2.124-2.103,2.121-5.519,0-7.619
			l-6.688-6.625l15.079-14.938c2.12-2.101,2.12-5.52,0-7.619L202.21,4.558c-2.121-2.101-5.571-2.101-7.692,0l-15.079,14.937
			l-7.183-7.114c-2.12-2.101-5.567-2.104-7.691,0l-11.932,11.82c-0.24,0.237-0.342,0.535-0.525,0.792
			c-0.509,0.248-1.007,0.515-1.428,0.933L139.43,37.07c-5.715-1.837-12.889-0.016-18.13,5.177L41.096,121.7
			c-1.638,1.622-2.959,3.444-3.944,5.367c-4.081-0.187-8.706,1.654-12.453,5.366c-6.08,6.022-7.213,14.328-2.585,18.912
			l45.481,45.057c4.629,4.585,13.012,3.462,19.093-2.56C89.785,190.774,91.522,187.126,91.944,183.666z"/>
		<path id="path-7_10_" style="fill:#142A3B;" d="M183.087,80.558l11.371-11.262c0.228-0.227,0.349-0.512,0.516-0.768
			c0.502-0.256,1.015-0.524,1.444-0.948l11.933-11.824c2.124-2.103,2.121-5.519,0-7.619l-6.688-6.625l15.079-14.938
			c2.12-2.101,2.12-5.52,0-7.619L202.21,4.558c-2.121-2.101-5.571-2.101-7.692,0l-15.079,14.937l-7.183-7.114
			c-2.12-2.101-5.567-2.104-7.691,0l-11.932,11.82c-0.24,0.237-0.342,0.535-0.525,0.792c-0.509,0.248-1.007,0.515-1.428,0.933
			L139.43,37.07L183.087,80.558z"/>
		<path id="path-8_10_" style="opacity:0.35;fill:#020403;enable-background:new    ;" d="M167.3,12.381l9.661,9.569l2.478-2.455
			l-7.181-7.114c-1.713-1.695-4.279-2-6.325-0.958C166.422,11.673,166.891,11.975,167.3,12.381z"/>
		<path id="path-9_9_" style="opacity:0.35;fill:#020403;enable-background:new    ;" d="M208.351,55.756
			c2.124-2.103,2.121-5.519,0-7.619l-6.688-6.625l15.079-14.938c2.12-2.101,2.12-5.52,0-7.619L202.21,4.558
			c-1.711-1.696-4.279-1.998-6.324-0.957c0.489,0.248,0.958,0.551,1.367,0.957l9.575,9.487c2.121,2.1,2.121,5.517,0,7.617
			L191.749,36.6l6.688,6.627c2.121,2.101,2.125,5.514,0,7.619l-22.778,22.341l7.428,7.371l11.371-11.262
			c0.228-0.227,0.35-0.512,0.516-0.768c0.502-0.256,1.015-0.524,1.444-0.948L208.351,55.756z"/>
		<path id="path-10_8_" style="fill:#EDEDED;" d="M119.99,155.332L63.572,99.441L99.106,64.24l56.418,55.891L119.99,155.332z"/>
		<path id="path-11_8_" style="fill:#142A3B;" d="M121.164,130.306L88.835,98.279l7.434-7.366l32.331,32.028L121.164,130.306z"/>
		<path id="path-12_8_" style="opacity:0.35;fill:#020403;enable-background:new    ;" d="M39.3,123.479l1.796-1.779
			c-1.268,1.256-2.285,2.655-3.165,4.106l55.436,54.917c1.467-0.866,2.874-1.873,4.148-3.133l0.681-0.677L39.3,123.479z"/>
		<path id="path-13_7_" style="opacity:0.35;fill:#020403;enable-background:new    ;" d="M91.944,183.666
			c0.3-0.734,0.402-1.513,0.372-2.296c1.866-0.961,3.618-2.215,5.199-3.78l80.203-79.453c5.225-5.177,7.079-11.983,5.369-17.579
			l-43.185-43.505c-2.995-0.885-2.009-0.518-5.473-0.641l33.788,39.236c1.71,5.595-0.145,12.401-5.369,17.578l-80.204,79.453
			c-1.581,1.566-3.333,2.819-5.199,3.781c0.03,0.782-0.072,1.561-0.372,2.295c-0.422,3.46-2.159,7.109-5.256,10.176
			c-2.189,2.17-4.679,3.678-7.182,4.538l2.961,2.933c4.628,4.585,13.011,3.462,19.092-2.56
			C89.785,190.774,91.522,187.126,91.944,183.666z"/>
		<path id="path-14_5_" style="fill:#FFFFFF;" d="M68.36,114.83c-1.397,0-2.793-0.528-3.86-1.583c-2.132-2.113-2.132-5.536,0-7.647
			l52.94-52.446c6.531-6.471,15.822-9.018,23.674-6.496c2.868,0.922,4.439,3.971,3.507,6.811c-0.929,2.842-4.019,4.399-6.876,3.474
			c-3.919-1.258-8.982,0.288-12.586,3.859l-52.94,52.443C71.153,114.302,69.757,114.83,68.36,114.83z"/>
	</g>
</g>
<g>
</g>
<g>
</g>
<g>
</g>
<g>
</g>
<g>
</g>
<g>
</g>
<g>
</g>
<g>
</g>
<g>
</g>
<g>
</g>
<g>
</g>
<g>
</g>
<g>
</g>
<g>
</g>
<g>
</g>
</svg>
