<?xml version="1.0" encoding="iso-8859-1"?>
<!-- Generator: Adobe Illustrator 19.1.0, SVG Export Plug-In . SVG Version: 6.00 Build 0)  -->
<svg version="1.1" id="Capa_1" xmlns="http://www.w3.org/2000/svg" xmlns:xlink="http://www.w3.org/1999/xlink" x="0px" y="0px"
	 viewBox="0 0 218.332 218.332" style="enable-background:new 0 0 218.332 218.332;" xml:space="preserve">
<g>
	<g id="group-49svg">
		<path id="path-1_112_" style="fill:#FBB713;" d="M147.27,181.47h16.02c3.089,0,5.593,0.822,5.593,1.835
			c0,1.014-2.504,1.836-5.593,1.836h-0.746c-3.089,0-5.592,0.823-5.592,1.836c0,1.014,2.503,1.835,5.592,1.835h34.437
			c3.089,0,5.592,0.822,5.592,1.837c0,1.014-2.503,1.836-5.592,1.836h-41.384h-45.486c-3.088,0-5.592-0.822-5.592-1.836
			c0-1.015,2.504-1.837,5.592-1.837h9.558c3.088,0,5.592-0.821,5.592-1.835c0-1.013-2.504-1.836-5.592-1.836H74.183
			c-3.088,0-5.593-0.822-5.593-1.836c0-1.013,2.505-1.835,5.593-1.835h10.75H147.27z"/>
		<path id="path-2_112_" style="fill:#FF3A2F;" d="M46.377,183.457c3.542,0,6.414-1.394,6.414-3.113c0-1.72-2.872-3.114-6.414-3.114
			H26.723c-3.542,0-6.414,1.394-6.414,3.114c0,1.719,2.872,3.113,6.414,3.113H46.377z"/>
		<path id="path-3_112_" style="fill:#FF3A2F;" d="M200.13,152.651h5.272c1.016,0,1.841,0.822,1.841,1.837
			c0,1.013-0.825,1.836-1.841,1.836h-0.246c-1.016,0-1.84,0.822-1.84,1.835c0,1.015,0.824,1.836,1.84,1.836h11.335
			c1.017,0,1.841,0.822,1.841,1.835c0,1.015-0.824,1.837-1.841,1.837H202.87h-14.971c-1.017,0-1.841-0.822-1.841-1.837
			c0-1.013,0.824-1.835,1.841-1.835h3.146c1.016,0,1.84-0.821,1.84-1.836c0-1.013-0.824-1.835-1.84-1.835h-14.972
			c-1.016,0-1.841-0.823-1.841-1.836c0-1.015,0.825-1.837,1.841-1.837h3.538H200.13z"/>
		<path id="path-4_111_" style="fill:#FBB713;" d="M191.685,90.016c-14.895-37.654-51.811-64.169-95.022-64.169
			c-43.21,0-80.127,26.515-95.021,64.169H191.685z"/>
		<path id="path-5_111_" style="fill:#FF3A2F;" d="M187.543,116.372H2.499c-1.38,0-2.499-1.119-2.499-2.5v-13.826
			c0-1.381,1.119-2.501,2.499-2.501h185.044c1.38,0,2.499,1.12,2.499,2.501v13.826C190.042,115.253,188.923,116.372,187.543,116.372
			z"/>
		<path id="path-6_110_" style="fill:#FBB713;" d="M162.795,165.322H30.531c-11.921,0-22.253-8.426-24.89-19.943l-3.999-17.711
			h190.043l-3.999,17.711C185.049,156.896,174.716,165.322,162.795,165.322z"/>
		<path id="path-7_110_" style="opacity:0.25;fill:#020403;enable-background:new    ;" d="M77.659,29.612
			c41.742,0,77.547,24.778,93.365,60.404h20.661c-14.895-37.654-51.811-64.169-95.022-64.169c-10.336,0-20.296,1.555-29.698,4.38
			C70.486,29.864,74.04,29.612,77.659,29.612z"/>
		<path id="path-8_107_" style="opacity:0.25;fill:#020403;enable-background:new    ;" d="M165.079,127.668l-3.999,17.711
			c-2.637,11.517-12.97,19.943-24.891,19.943h26.606c11.921,0,22.254-8.426,24.891-19.943l3.999-17.711H165.079z"/>
		<path id="path-9_102_" style="fill:#FF3A2F;" d="M51.312,71.028h-3.801c-2.01,0-3.639-1.615-3.639-3.605s1.629-3.604,3.639-3.604
			h3.801c2.009,0,3.638,1.614,3.638,3.604S53.321,71.028,51.312,71.028z"/>
		<path id="path-10_94_" style="fill:#FF3A2F;" d="M100.723,71.028H96.92c-2.011,0-3.639-1.615-3.639-3.605s1.628-3.604,3.639-3.604
			h3.803c2.011,0,3.639,1.614,3.639,3.604S102.734,71.028,100.723,71.028z"/>
		<path id="path-11_82_" style="fill:#FF3A2F;" d="M146.333,71.028h-3.803c-2.011,0-3.638-1.615-3.638-3.605
			s1.627-3.604,3.638-3.604h3.803c2.011,0,3.639,1.614,3.639,3.604S148.344,71.028,146.333,71.028z"/>
		<path id="path-12_70_" style="fill:#FF3A2F;" d="M123.526,55.966h-3.799c-2.011,0-3.639-1.614-3.639-3.604
			c0-1.991,1.628-3.604,3.639-3.604h3.799c2.012,0,3.639,1.613,3.639,3.604C127.165,54.352,125.538,55.966,123.526,55.966z"/>
		<path id="path-13_58_" style="fill:#FF3A2F;" d="M77.916,52.201h-3.8c-2.009,0-3.638-1.614-3.638-3.605
			c0-1.99,1.629-3.604,3.638-3.604h3.8c2.011,0,3.639,1.614,3.639,3.604C81.555,50.587,79.927,52.201,77.916,52.201z"/>
	</g>
</g>
<g>
</g>
<g>
</g>
<g>
</g>
<g>
</g>
<g>
</g>
<g>
</g>
<g>
</g>
<g>
</g>
<g>
</g>
<g>
</g>
<g>
</g>
<g>
</g>
<g>
</g>
<g>
</g>
<g>
</g>
</svg>
