<?xml version="1.0" encoding="iso-8859-1"?>
<!-- Generator: Adobe Illustrator 19.1.0, SVG Export Plug-In . SVG Version: 6.00 Build 0)  -->
<svg version="1.1" id="Capa_1" xmlns="http://www.w3.org/2000/svg" xmlns:xlink="http://www.w3.org/1999/xlink" x="0px" y="0px"
	 viewBox="0 0 218.332 218.332" style="enable-background:new 0 0 218.332 218.332;" xml:space="preserve">
<g>
	<g id="group-90svg">
		<path id="path-1_158_" style="fill:#142A3B;" d="M120.391,108.691c-2.009,0-3.639-1.614-3.639-3.605V89.551h3.639
			c15.143,0,16.779-10.933,16.779-15.633c0-8.905-6.324-15.62-14.709-15.62c-8.68,0-15.743,6.965-15.743,15.527
			c0,1.99-1.629,3.605-3.638,3.605c-2.01,0-3.639-1.615-3.639-3.605c0-12.537,10.327-22.737,23.02-22.737
			c12.329,0,21.987,10.027,21.987,22.83c0,12.688-7.895,21.271-20.418,22.649v8.519C124.03,107.077,122.401,108.691,120.391,108.691
			z"/>
		<path id="path-2_158_" style="fill:#FF3A2F;" d="M119.955,104.221l-94.399,35.895l6.826,22.514H212.78l5.552-22.514
			L119.955,104.221z M205.41,155.707H40.033l-3.495-9.807l82.107-33.458l89.676,33.458L205.41,155.707z"/>
		<path id="path-3_158_" style="fill:#0CB04A;" d="M164.219,177.946h10.968c2.114,0,3.828,1.295,3.828,2.893
			c0,1.598-1.714,2.892-3.828,2.892h-0.511c-2.115,0-3.829,1.295-3.829,2.893c0,1.597,1.714,2.892,3.829,2.892h23.576
			c2.114,0,3.828,1.295,3.828,2.893c0,1.597-1.714,2.893-3.828,2.893H169.92h-57.911c-2.115,0-3.829-1.296-3.829-2.893
			c0-1.598,1.714-2.893,3.829-2.893h6.542c2.115,0,3.829-1.295,3.829-2.892c0-1.598-1.714-2.893-3.829-2.893h-31.14
			c-2.115,0-3.828-1.294-3.828-2.892c0-1.598,1.713-2.893,3.828-2.893h7.359H164.219z"/>
		<path id="path-4_157_" style="fill:#0CB04A;" d="M80.636,113.483h10.968c2.114,0,3.828,1.296,3.828,2.894
			c0,1.597-1.714,2.893-3.828,2.893h-0.511c-2.115,0-3.829,1.294-3.829,2.892c0,1.597,1.714,2.892,3.829,2.892h23.576
			c2.115,0,3.829,1.296,3.829,2.893c0,1.598-1.714,2.892-3.829,2.892H86.337H28.425c-2.114,0-3.828-1.294-3.828-2.892
			c0-1.597,1.714-2.893,3.828-2.893h6.543c2.115,0,3.829-1.295,3.829-2.892c0-1.598-1.714-2.892-3.829-2.892H3.828
			c-2.115,0-3.828-1.296-3.828-2.893c0-1.598,1.713-2.894,3.828-2.894h7.36H80.636z"/>
		<path id="path-5_157_" style="fill:#0CB04A;" d="M165.65,22.875h4.627c0.892,0,1.615,0.545,1.615,1.22
			c0,0.673-0.723,1.22-1.615,1.22h-0.215c-0.892,0-1.616,0.546-1.616,1.22c0,0.675,0.724,1.22,1.616,1.22h9.945
			c0.892,0,1.615,0.547,1.615,1.22c0,0.674-0.723,1.222-1.615,1.222h-11.952h-24.43c-0.892,0-1.615-0.548-1.615-1.222
			c0-0.673,0.723-1.22,1.615-1.22h2.76c0.892,0,1.615-0.545,1.615-1.22c0-0.674-0.723-1.22-1.615-1.22h-13.137
			c-0.891,0-1.614-0.547-1.614-1.22c0-0.675,0.723-1.22,1.614-1.22h3.106H165.65z"/>
		<path id="path-6_155_" style="fill:#0CB04A;" d="M87.297,195.457c2.616,0,4.738-0.902,4.738-2.017
			c0-1.112-2.122-2.016-4.738-2.016H72.78c-2.617,0-4.737,0.904-4.737,2.016c0,1.115,2.12,2.017,4.737,2.017H87.297z"/>
	</g>
</g>
<g>
</g>
<g>
</g>
<g>
</g>
<g>
</g>
<g>
</g>
<g>
</g>
<g>
</g>
<g>
</g>
<g>
</g>
<g>
</g>
<g>
</g>
<g>
</g>
<g>
</g>
<g>
</g>
<g>
</g>
</svg>
