<?xml version="1.0" encoding="iso-8859-1"?>
<!-- Generator: Adobe Illustrator 19.1.0, SVG Export Plug-In . SVG Version: 6.00 Build 0)  -->
<svg version="1.1" id="Capa_1" xmlns="http://www.w3.org/2000/svg" xmlns:xlink="http://www.w3.org/1999/xlink" x="0px" y="0px"
	 viewBox="0 0 217.229 217.229" style="enable-background:new 0 0 217.229 217.229;" xml:space="preserve">
<g>
	<g id="group-34svg">
		<path id="path-1_88_" style="fill:#FF3A2F;" d="M167.138,200.788h14.509c2.797,0,5.066-1.316,5.066-2.94
			c0-1.625-2.269-2.941-5.066-2.941h-0.675c-2.798,0-5.066-1.316-5.066-2.941c0-1.624,2.268-2.941,5.066-2.941h31.191
			c2.798,0,5.066-1.317,5.066-2.94c0-1.625-2.268-2.941-5.066-2.941h-37.484H98.063c-2.798,0-5.066,1.316-5.066,2.941
			c0,1.623,2.268,2.94,5.066,2.94h8.656c2.798,0,5.065,1.317,5.065,2.941c0,1.625-2.267,2.941-5.065,2.941H65.521
			c-2.798,0-5.066,1.316-5.066,2.941c0,1.624,2.268,2.94,5.066,2.94h9.737H167.138z"/>
		<path id="path-2_88_" style="fill:#FF3A2F;" d="M70.768,172.294h7.669c1.478,0,2.677-1.049,2.677-2.343s-1.199-2.343-2.677-2.343
			H78.08c-1.478,0-2.677-1.049-2.677-2.343c0-1.293,1.199-2.341,2.677-2.341h16.485c1.478,0,2.677-1.05,2.677-2.344
			c0-1.293-1.199-2.342-2.677-2.342H74.754H34.261c-1.478,0-2.677,1.049-2.677,2.342c0,1.294,1.199,2.344,2.677,2.344h4.575
			c1.479,0,2.677,1.048,2.677,2.341c0,1.294-1.198,2.343-2.677,2.343H17.062c-1.478,0-2.677,1.049-2.677,2.343
			s1.199,2.343,2.677,2.343h5.146H70.768z"/>
		<path id="path-3_88_" style="fill:#FF3A2F;" d="M72.102,182.941c3.15,0,5.704,1.45,5.704,3.24c0,1.79-2.554,3.242-5.704,3.242
			H54.621c-3.15,0-5.704-1.452-5.704-3.242c0-1.79,2.554-3.24,5.704-3.24H72.102z"/>
		<path id="path-4_88_" style="fill:#142A3B;" d="M30.444,132.46V77.735c0-30.804,31.578-53.819,59.799-53.819
			c28.236,0,59.799,23.015,59.799,53.819v54.724h7.475V77.735c0-32.651-31.433-61.294-67.274-61.294
			c-35.834,0-67.275,28.643-67.275,61.294v54.724H30.444z"/>
		<path id="path-5_87_" style="fill:#2476FF;" d="M150.042,128.494v3.737v48.586v3.736c0,2.067,1.679,3.737,3.737,3.737h22.425
			c2.074,0,3.738-1.67,3.738-3.737v-52.322c0-2.059-1.664-3.737-3.738-3.737H150.042z"/>
		<path id="path-6_84_" style="fill:#2476FF;" d="M3.738,128.494c-2.074,0-3.738,1.678-3.738,3.737v52.322
			c0,2.067,1.664,3.737,3.738,3.737h22.425c2.058,0,3.737-1.67,3.737-3.737v-3.736v-48.586v-3.737H3.738z"/>
		<path id="path-7_83_" style="opacity:0.35;fill:#060606;enable-background:new    ;" d="M176.204,128.494h-9.309v49.536
			c0,2.067-1.664,3.737-3.737,3.737h-13.116v2.786c0,2.067,1.679,3.737,3.737,3.737h22.425c2.074,0,3.738-1.67,3.738-3.737v-52.322
			C179.942,130.173,178.278,128.494,176.204,128.494z"/>
		<path id="path-8_64_" style="opacity:0.35;fill:#060606;enable-background:new    ;" d="M16.852,128.494v45.799v3.737
			c0,2.067-1.678,3.737-3.737,3.737H0v2.786c0,2.067,1.665,3.737,3.738,3.737h22.425c2.058,0,3.736-1.67,3.736-3.737v-3.736v-48.586
			v-3.737H16.852z"/>
	</g>
</g>
<g>
</g>
<g>
</g>
<g>
</g>
<g>
</g>
<g>
</g>
<g>
</g>
<g>
</g>
<g>
</g>
<g>
</g>
<g>
</g>
<g>
</g>
<g>
</g>
<g>
</g>
<g>
</g>
<g>
</g>
</svg>
