<?xml version="1.0" encoding="iso-8859-1"?>
<!-- Generator: Adobe Illustrator 19.1.0, SVG Export Plug-In . SVG Version: 6.00 Build 0)  -->
<svg version="1.1" id="Capa_1" xmlns="http://www.w3.org/2000/svg" xmlns:xlink="http://www.w3.org/1999/xlink" x="0px" y="0px"
	 viewBox="0 0 217.228 217.228" style="enable-background:new 0 0 217.228 217.228;" xml:space="preserve">
<g>
	<g id="group-44svg">
		<path id="path-1_99_" style="fill:#0CB04A;" d="M151.561,188.287h14.396c2.776,0,5.026-1.307,5.026-2.918
			c0-1.611-2.25-2.919-5.026-2.919h-0.67c-2.775,0-5.026-1.306-5.026-2.917c0-1.611,2.251-2.917,5.026-2.917h30.948
			c2.776,0,5.026-1.308,5.026-2.919c0-1.611-2.25-2.917-5.026-2.917h-37.192H83.025c-2.776,0-5.026,1.306-5.026,2.917
			c0,1.611,2.25,2.919,5.026,2.919h8.589c2.776,0,5.026,1.306,5.026,2.917c0,1.611-2.25,2.917-5.026,2.917H50.737
			c-2.776,0-5.026,1.308-5.026,2.919c0,1.611,2.25,2.918,5.026,2.918h9.66H151.561z"/>
		<path id="path-2_99_" style="fill:#0CB04A;" d="M55.944,160.014h7.608c1.467,0,2.656-1.041,2.656-2.324
			c0-1.284-1.189-2.324-2.656-2.324h-0.354c-1.467,0-2.656-1.042-2.656-2.325c0-1.284,1.189-2.324,2.656-2.324h16.356
			c1.467,0,2.657-1.041,2.657-2.325c0-1.284-1.19-2.325-2.657-2.325H59.898H19.721c-1.468,0-2.656,1.041-2.656,2.325
			c0,1.284,1.188,2.325,2.656,2.325h4.54c1.466,0,2.656,1.04,2.656,2.324c0,1.283-1.19,2.325-2.656,2.325H2.656
			c-1.467,0-2.656,1.04-2.656,2.324c0,1.283,1.189,2.324,2.656,2.324h5.106H55.944z"/>
		<path id="path-3_99_" style="fill:#0CB04A;" d="M57.267,170.578c3.125,0,5.659,1.439,5.659,3.215s-2.534,3.216-5.659,3.216H39.922
			c-3.125,0-5.66-1.44-5.66-3.216s2.535-3.215,5.66-3.215H57.267z"/>
		<path id="path-4_99_" style="fill:#FF3A2F;" d="M211.549,105.007c3.604-7.11,5.679-15.126,5.679-23.642
			c0-28.954-23.471-52.424-52.425-52.424c-17.918,0-33.719,9.001-43.174,22.714c-9.456-13.713-25.257-22.714-43.174-22.714
			c-28.954,0-52.426,23.47-52.426,52.424c0,10.106,2.909,19.511,7.864,27.517c12.098,23.813,41.848,47.184,88.365,70.136
			c31.981-16.683,58.387-36.516,78.725-59.775C204.064,116.299,211.549,105.007,211.549,105.007z"/>
		<path id="path-5_98_" style="opacity:0.35;enable-background:new    ;" d="M115.653,58.858c1.777-2.578,3.779-4.988,5.976-7.203
			C109.46,34.72,93.005,28.941,78.455,28.941c-2.008,0-3.982,0.138-5.931,0.357C87.929,31.064,107.273,46.704,115.653,58.858z"/>
		<path id="path-6_95_" style="opacity:0.35;enable-background:new    ;" d="M164.803,28.941c-2.038,0-4.043,0.132-6.019,0.357
			c26.157,2.95,46.494,25.122,46.494,52.067c0,8.517-2.075,16.531-5.679,23.642c0,0-7.485,11.292-10.566,14.237
			c-19.093,21.835-43.599,40.613-72.98,56.637c2.047,1.046,4.089,2.092,6.205,3.137c31.981-16.683,58.387-36.516,78.725-59.774
			c3.081-2.945,10.566-14.237,10.566-14.237c3.604-7.111,5.679-15.125,5.679-23.642C217.228,52.412,193.757,28.941,164.803,28.941z"
			/>
	</g>
</g>
<g>
</g>
<g>
</g>
<g>
</g>
<g>
</g>
<g>
</g>
<g>
</g>
<g>
</g>
<g>
</g>
<g>
</g>
<g>
</g>
<g>
</g>
<g>
</g>
<g>
</g>
<g>
</g>
<g>
</g>
</svg>
