<?xml version="1.0" encoding="iso-8859-1"?>
<!-- Generator: Adobe Illustrator 19.1.0, SVG Export Plug-In . SVG Version: 6.00 Build 0)  -->
<svg version="1.1" id="Capa_1" xmlns="http://www.w3.org/2000/svg" xmlns:xlink="http://www.w3.org/1999/xlink" x="0px" y="0px"
	 viewBox="0 0 218.332 218.332" style="enable-background:new 0 0 218.332 218.332;" xml:space="preserve">
<g>
	<g id="group-22svg">
		<path id="path-1_83_" style="fill:#2476FF;" d="M75.789,169.518h14.675c2.829,0,5.123,1.441,5.123,3.216
			c0,1.776-2.294,3.216-5.123,3.216h-0.683c-2.829,0-5.123,1.44-5.123,3.216c0,1.775,2.294,3.215,5.123,3.215h31.547
			c2.829,0,5.123,1.439,5.123,3.216c0,1.776-2.294,3.215-5.123,3.215H83.416H41.748c-2.829,0-5.123-1.439-5.123-3.215
			c0-1.777,2.294-3.216,5.123-3.216h8.756c2.828,0,5.123-1.44,5.123-3.215c0-1.776-2.295-3.216-5.123-3.216H8.835
			c-2.829,0-5.123-1.44-5.123-3.216c0-1.775,2.294-3.216,5.123-3.216h9.848H75.789z"/>
		<path id="path-2_83_" style="fill:#2476FF;" d="M31.234,145.883c4.244,0,7.684-2.16,7.684-4.823c0-2.664-3.44-4.823-7.684-4.823
			H7.684c-4.244,0-7.684,2.159-7.684,4.823c0,2.663,3.44,4.823,7.684,4.823H31.234z"/>
		<path id="path-3_83_" style="fill:#2476FF;" d="M174.869,192.128c4.244,0,7.685-2.16,7.685-4.824c0-2.663-3.441-4.824-7.685-4.824
			h-23.55c-4.244,0-7.685,2.161-7.685,4.824c0,2.664,3.441,4.824,7.685,4.824H174.869z"/>
		<path id="path-4_82_" style="fill:#142A3B;" d="M132.198,198.098h-7.278v-74.092h7.278V198.098z"/>
		<path id="path-5_82_" style="fill:#142A3B;" d="M132.198,92.563h-7.278v-72.33h7.278V92.563z"/>
		<path id="path-6_81_" style="fill:#142A3B;" d="M113.582,112.771H38.788v-7.209h74.794V112.771z"/>
		<path id="path-7_81_" style="fill:#142A3B;" d="M218.332,112.771h-76.511v-7.209h76.511V112.771z"/>
		<path id="path-8_78_" style="fill:#142A3B;" d="M112.728,98.579l-50.22-49.75l5.146-5.098l50.219,49.75L112.728,98.579z"/>
		<path id="path-9_74_" style="fill:#142A3B;" d="M189.465,174.6l-50.222-49.754l5.145-5.098l50.224,49.752L189.465,174.6z"/>
		<path id="path-10_68_" style="fill:#142A3B;" d="M67.654,174.6l-5.146-5.1l48.5-48.044l5.146,5.099L67.654,174.6z"/>
		<path id="path-11_59_" style="fill:#142A3B;" d="M144.395,98.576l-5.145-5.099l50.215-49.746l5.147,5.098L144.395,98.576z"/>
		<path id="path-12_50_" style="fill:#FF3A2F;" d="M127.86,39.206c-39.664,0-71.818,31.853-71.818,71.146
			c0,39.292,32.154,71.146,71.818,71.146s71.818-31.854,71.818-71.146C199.678,71.059,167.524,39.206,127.86,39.206z
			 M127.86,167.344c-31.774,0-57.531-25.517-57.531-56.993s25.757-56.994,57.531-56.994s57.531,25.518,57.531,56.994
			S159.634,167.344,127.86,167.344z"/>
		<path id="path-13_41_" style="fill:#FF3A2F;" d="M127.86,86.984c-13.027,0-23.587,10.462-23.587,23.367
			s10.56,23.366,23.587,23.366c13.026,0,23.587-10.461,23.587-23.366S140.886,86.984,127.86,86.984z M127.86,119.594
			c-5.154,0-9.332-4.137-9.332-9.243c0-5.106,4.178-9.245,9.332-9.245c5.154,0,9.331,4.139,9.331,9.245
			C137.191,115.457,133.014,119.594,127.86,119.594z"/>
		<path id="path-14_34_" style="opacity:0.35;fill:#020403;enable-background:new    ;" d="M136.51,104.631
			c0.88,1.52,1.422,3.258,1.422,5.135c0,5.74-4.697,10.392-10.49,10.392c-1.896,0-3.649-0.537-5.183-1.408
			c1.807,3.125,5.17,5.256,9.067,5.256c5.794,0,10.49-4.653,10.49-10.392C141.816,109.753,139.665,106.423,136.51,104.631z"/>
	</g>
</g>
<g>
</g>
<g>
</g>
<g>
</g>
<g>
</g>
<g>
</g>
<g>
</g>
<g>
</g>
<g>
</g>
<g>
</g>
<g>
</g>
<g>
</g>
<g>
</g>
<g>
</g>
<g>
</g>
<g>
</g>
</svg>
