<?xml version="1.0" encoding="iso-8859-1"?>
<!-- Generator: Adobe Illustrator 19.1.0, SVG Export Plug-In . SVG Version: 6.00 Build 0)  -->
<svg version="1.1" id="Capa_1" xmlns="http://www.w3.org/2000/svg" xmlns:xlink="http://www.w3.org/1999/xlink" x="0px" y="0px"
	 viewBox="0 0 217.229 217.229" style="enable-background:new 0 0 217.229 217.229;" xml:space="preserve">
<g>
	<g id="group-12svg">
		<path id="path-1_23_" style="fill:#142A3B;" d="M69.22,138.546H49.169c-3.866,0-6.999,2.285-6.999,5.102
			c0,2.819,3.133,5.103,6.999,5.103h0.933c3.866,0,7,2.285,7,5.102c0,2.818-3.134,5.102-7,5.102H7c-3.866,0-7,2.286-7,5.103
			c0,2.818,3.134,5.103,7,5.103h51.798h105.875c3.866,0,7-2.285,7-5.103c0-2.817-3.134-5.103-7-5.103h-11.962
			c-3.866,0-7-2.284-7-5.102c0-2.817,3.134-5.102,7-5.102h46.983c3.866,0,7-2.284,7-5.103c0-2.817-3.134-5.102-7-5.102h-3.507H69.22
			z"/>
		<path id="path-2_23_" style="fill:#142A3B;" d="M192.472,169.618c-2.723,0-4.931-1.616-4.931-3.609
			c0-1.993,2.208-3.609,4.931-3.609h15.111c2.723,0,4.931,1.616,4.931,3.609c0,1.993-2.208,3.609-4.931,3.609H192.472z"/>
		<path id="path-3_23_" style="fill:#FBB713;" d="M211.377,141.594H31.105c-3.231,0-5.852-2.62-5.852-5.852l0,0
			c0-3.231,2.621-5.851,5.852-5.851h180.272c3.231,0,5.852,2.62,5.852,5.851l0,0C217.229,138.975,214.608,141.594,211.377,141.594z"
			/>
		<path id="path-4_23_" style="fill:#FBB713;" d="M202.548,129.891c-2.687-42.577-38.052-76.282-81.307-76.282
			s-78.62,33.705-81.307,76.282H202.548z"/>
		<path id="path-5_23_" style="fill:#EDEDED;" d="M55.834,107.947c-0.52,0-1.047-0.11-1.546-0.347
			c-1.81-0.858-2.58-3.016-1.722-4.823c6.891-14.545,18.711-26.351,33.278-33.246c1.81-0.858,3.97-0.081,4.823,1.724
			c0.855,1.806,0.081,3.965-1.726,4.82c-13.061,6.182-23.653,16.766-29.833,29.803C58.489,107.184,57.191,107.947,55.834,107.947z"
			/>
		<path id="path-6_23_" style="opacity:0.25;fill:#090908;enable-background:new    ;" d="M146.724,57.753
			c19.817,13.792,32.751,30.774,34.364,56.346l-140.394,8.749c-0.669,3.428-0.534,3.476-0.76,7.043h162.614
			C200.415,96.086,177.65,67.944,146.724,57.753z"/>
		<path id="path-7_22_" style="opacity:0.25;fill:#090908;enable-background:new    ;" d="M113.306,94.101
			c3.52,0,6.374-2.853,6.374-6.374V53.983c0-0.102-0.025-0.197-0.03-0.298c-4.332,0.084-8.578,0.501-12.718,1.235v32.807
			C106.932,91.248,109.785,94.101,113.306,94.101z"/>
		<path id="path-8_16_" style="opacity:0.25;fill:#090908;enable-background:new    ;" d="M144.72,94.101
			c3.52,0,6.374-2.853,6.374-6.374V59.286c-4.096-1.614-8.359-2.885-12.748-3.824v32.265
			C138.346,91.248,141.199,94.101,144.72,94.101z"/>
		<path id="path-9_15_" style="fill:#FBB713;" d="M137.739,94.101L137.739,94.101c-3.521,0-6.374-2.853-6.374-6.374V53.984
			c0-3.521,2.853-6.374,6.374-6.374l0,0c3.52,0,6.374,2.853,6.374,6.374v33.743C144.113,91.248,141.259,94.101,137.739,94.101z"/>
		<path id="path-10_13_" style="fill:#FBB713;" d="M104.743,94.101L104.743,94.101c-3.52,0-6.374-2.853-6.374-6.374V53.984
			c0-3.521,2.854-6.374,6.374-6.374l0,0c3.521,0,6.375,2.853,6.375,6.374v33.743C111.118,91.248,108.264,94.101,104.743,94.101z"/>
		<path id="path-11_11_" style="opacity:0.25;fill:#090908;enable-background:new    ;" d="M31.105,141.596h180.271
			c3.232,0,5.853-2.621,5.853-5.854H25.253C25.253,138.975,27.874,141.596,31.105,141.596z"/>
	</g>
</g>
<g>
</g>
<g>
</g>
<g>
</g>
<g>
</g>
<g>
</g>
<g>
</g>
<g>
</g>
<g>
</g>
<g>
</g>
<g>
</g>
<g>
</g>
<g>
</g>
<g>
</g>
<g>
</g>
<g>
</g>
</svg>
