<?xml version="1.0" encoding="iso-8859-1"?>
<!-- Generator: Adobe Illustrator 19.1.0, SVG Export Plug-In . SVG Version: 6.00 Build 0)  -->
<svg version="1.1" id="Capa_1" xmlns="http://www.w3.org/2000/svg" xmlns:xlink="http://www.w3.org/1999/xlink" x="0px" y="0px"
	 viewBox="0 0 218.332 218.332" style="enable-background:new 0 0 218.332 218.332;" xml:space="preserve">
<g>
	<g id="group-115svg">
		<path id="path-1_18_" style="fill:#0CB04A;" d="M91.683,178.166h15.79c3.044,0,5.513,1.097,5.513,2.452
			c0,1.354-2.469,2.452-5.513,2.452h-0.735c-3.045,0-5.512,1.097-5.512,2.45c0,1.355,2.467,2.453,5.512,2.453h33.944
			c3.044,0,5.513,1.097,5.513,2.452c0,1.354-2.469,2.453-5.513,2.453H99.89H55.054c-3.043,0-5.512-1.099-5.512-2.453
			c0-1.355,2.469-2.452,5.512-2.452h9.422c3.044,0,5.512-1.098,5.512-2.453c0-1.353-2.468-2.45-5.512-2.45H19.64
			c-3.044,0-5.512-1.098-5.512-2.452c0-1.355,2.468-2.452,5.512-2.452h10.597H91.683z"/>
		<path id="path-2_18_" style="fill:#0CB04A;" d="M189.414,194.998c3.475,0,6.294-1.254,6.294-2.799c0-1.547-2.819-2.8-6.294-2.8
			h-19.288c-3.476,0-6.295,1.253-6.295,2.8c0,1.545,2.819,2.799,6.295,2.799H189.414z"/>
		<path id="path-3_18_" style="fill:#0CB04A;" d="M187.042,163.094h7.25c1.399,0,2.532,0.624,2.532,1.392
			c0,0.767-1.133,1.391-2.532,1.391h-0.338c-1.397,0-2.53,0.622-2.53,1.39c0,0.768,1.133,1.392,2.53,1.392h15.587
			c1.399,0,2.532,0.621,2.532,1.39s-1.133,1.392-2.532,1.392H190.81h-38.285c-1.398,0-2.531-0.623-2.531-1.392
			s1.133-1.39,2.531-1.39h4.325c1.399,0,2.531-0.624,2.531-1.392c0-0.768-1.132-1.39-2.531-1.39h-20.586
			c-1.399,0-2.533-0.624-2.533-1.391c0-0.768,1.134-1.392,2.533-1.392h4.865H187.042z"/>
		<path id="path-4_18_" style="fill:#FF3A2F;" d="M29.274,101.24c1.439,13.167,10.102,44.791,132.786,63.299
			c0,0,46.872,6.28,55.184-7.003c8.307-13.279-33.444-20.228-41.549-23.226C126.852,116.244,91.853,60.913,72.28,54.431
			c-11.986-3.969-36.191-3.776-36.191-3.776l-21.53-27.322L0,41.001l28.46,20.395C28.46,61.396,28.398,93.225,29.274,101.24z"/>
		<path id="path-5_18_" style="opacity:0.35;fill:#010101;enable-background:new    ;" d="M217.244,157.536
			c0.278-0.443,0.493-0.878,0.66-1.307c0.03-0.079,0.042-0.154,0.069-0.233c0.125-0.36,0.227-0.716,0.279-1.066
			c0.008-0.05,0.006-0.1,0.012-0.15c0.045-0.381,0.058-0.757,0.023-1.127c0,0-0.006-0.034-0.007-0.052
			c-0.042-0.397-0.126-0.791-0.255-1.176v-0.003c-13.589,8.734-51.684,3.633-51.684,3.633
			C69.124,141.391,51.163,110.22,44.34,97.911c-1.191-2.15-0.47-4.804,1.613-6.126c9.759-6.202,25.49-31.972,23.304-38.199
			c-8.726-2.138-21.216-2.721-28.114-2.875c-2.553,0.576-4.755,1.153-6.253,1.574c-1.388,0.387-2.859,0.119-4.027-0.718
			L9.594,36.325c-2.026-1.452-4.844-1.087-6.427,0.831v0.001c-1.718,2.085-1.311,5.173,0.89,6.75l20.626,14.781l3.777,2.708
			c0,0-0.002,0.989,0,2.583c0,0.275,0,0.589,0.001,0.901c0,0.295,0.001,0.615,0.002,0.94c0,0.367,0.001,0.749,0.003,1.154
			c0.001,0.396,0.002,0.816,0.004,1.241c0.001,0.322,0.002,0.638,0.003,0.977c0.003,0.762,0.007,1.569,0.012,2.399
			c0.001,0.223,0.003,0.447,0.005,0.674c0.004,0.796,0.009,1.612,0.016,2.449c0.002,0.343,0.006,0.698,0.009,1.046
			c0.006,0.667,0.012,1.341,0.018,2.025c0.005,0.392,0.009,0.788,0.013,1.183c0.007,0.638,0.015,1.281,0.024,1.924
			c0.005,0.452,0.011,0.903,0.017,1.355c0.01,0.699,0.02,1.394,0.033,2.089c0.005,0.322,0.009,0.645,0.015,0.964
			c0.018,0.984,0.036,1.954,0.058,2.909c0.003,0.172,0.007,0.34,0.01,0.51c0.021,0.896,0.044,1.773,0.067,2.624
			c0.01,0.347,0.02,0.675,0.03,1.013c0.019,0.601,0.037,1.194,0.059,1.765c0.011,0.337,0.024,0.664,0.037,0.989
			c0.021,0.541,0.044,1.059,0.067,1.559c0.014,0.295,0.029,0.588,0.042,0.867c0.028,0.505,0.056,0.97,0.085,1.417
			c0.014,0.214,0.027,0.444,0.041,0.643c0.044,0.61,0.091,1.167,0.142,1.628l0.001,0.015c0.764,6.995,3.567,19.2,24.422,31.88
			c1.227,0.747,2.516,1.494,3.871,2.241c8.129,4.488,18.625,9.003,32.19,13.332c2.26,0.721,4.608,1.438,7.042,2.149
			c17.043,4.973,38.424,9.649,65.261,13.698C162.06,164.539,208.932,170.819,217.244,157.536z"/>
		<path id="path-6_18_" style="fill:#FFFFFF;" d="M99.265,97.05c-1.429,0-2.783-0.84-3.361-2.23l0,0
			c-0.065-0.143-6.283-14.598-20.572-18.66c-1.934-0.55-3.05-2.546-2.495-4.46c0.554-1.912,2.562-3.022,4.498-2.471
			c17.741,5.043,24.997,22.121,25.295,22.846c0.764,1.842-0.124,3.947-1.983,4.703C100.195,96.962,99.726,97.05,99.265,97.05z"/>
		<path id="path-7_18_" style="fill:#0CB04A;" d="M62.253,52.273c-12.017-1.725-26.164-1.617-26.164-1.617l-21.53-27.323L0,40.999
			l28.46,20.397c0,0-0.029,15.086,0.239,27.103C46.147,80.441,57.547,68.505,62.253,52.273z"/>
		<path id="path-8_18_" style="opacity:0.35;fill:#010101;enable-background:new    ;" d="M32.98,80.015
			c-0.268-12.016-0.239-27.103-0.239-27.103L5.985,33.739L0,40.999l28.46,20.397c0,0-0.029,15.086,0.239,27.103
			c15.717-7.258,26.477-17.698,31.906-31.555C54.543,66.652,45.305,74.324,32.98,80.015z"/>
	</g>
</g>
<g>
</g>
<g>
</g>
<g>
</g>
<g>
</g>
<g>
</g>
<g>
</g>
<g>
</g>
<g>
</g>
<g>
</g>
<g>
</g>
<g>
</g>
<g>
</g>
<g>
</g>
<g>
</g>
<g>
</g>
</svg>
