<?xml version="1.0" encoding="iso-8859-1"?>
<!-- Generator: Adobe Illustrator 19.1.0, SVG Export Plug-In . SVG Version: 6.00 Build 0)  -->
<svg version="1.1" id="Capa_1" xmlns="http://www.w3.org/2000/svg" xmlns:xlink="http://www.w3.org/1999/xlink" x="0px" y="0px"
	 viewBox="0 0 217.221 217.221" style="enable-background:new 0 0 217.221 217.221;" xml:space="preserve">
<g>
	<g id="group-18svg">
		<path id="path-1_70_" style="fill:#0CB04A;" d="M71.078,193.586H52.214c-3.637,0-6.585,1.689-6.585,3.771
			c0,2.083,2.948,3.771,6.585,3.771h0.878c3.637,0,6.586,1.689,6.586,3.771c0,2.083-2.949,3.77-6.586,3.77h-40.55
			c-3.638,0-6.586,1.689-6.586,3.772c0,2.082,2.948,3.77,6.586,3.77h48.731h99.607c3.638,0,6.585-1.688,6.585-3.77
			c0-2.083-2.947-3.772-6.585-3.772h-11.254c-3.637,0-6.586-1.687-6.586-3.77c0-2.082,2.949-3.771,6.586-3.771h44.201
			c3.637,0,6.586-1.688,6.586-3.771c0-2.082-2.949-3.771-6.586-3.771h-3.299H71.078z"/>
		<path id="path-2_70_" style="fill:#0CB04A;" d="M188.069,217.221c-3.05,0-5.521-1.809-5.521-4.041
			c0-2.232,2.471-4.041,5.521-4.041h16.919c3.049,0,5.521,1.809,5.521,4.041c0,2.232-2.472,4.041-5.521,4.041H188.069z"/>
		<path id="path-3_70_" style="fill:#142A3B;" d="M170.1,56.364h-26.99V19.718h26.99V56.364z"/>
		<path id="path-4_70_" style="opacity:0.35;fill:#090908;enable-background:new    ;" d="M143.11,56.365h26.989V38.673
			L143.11,20.981V56.365z"/>
		<path id="path-5_69_" style="fill:#FBB713;" d="M176.501,193.586H51.415V70.063h125.086V193.586z"/>
		<path id="path-6_66_" style="opacity:0.25;fill:#090908;enable-background:new    ;" d="M51.415,70.063v21.23l107.394,10.614
			l7.077,91.679h10.615V70.063H51.415z"/>
		<path id="path-7_65_" style="fill:#142A3B;" d="M134.2,193.586H93.716v-59.167H134.2V193.586z"/>
		<path id="path-8_50_" style="opacity:0.35;fill:#090908;enable-background:new    ;" d="M93.716,134.42v10.615h26.33v48.551H134.2
			V134.42H93.716z"/>
		<path id="path-9_43_" style="fill:#2476FF;" d="M16.651,84.268L113.958,0l97.307,84.268H16.651z"/>
		<path id="path-10_39_" style="opacity:0.35;fill:#090908;enable-background:new    ;" d="M113.958,0l-6.803,5.892l67.51,58.463
			c6.527,5.653,2.53,16.374-6.105,16.374H20.737l-4.086,3.539h194.614L113.958,0z"/>
		<path id="path-11_32_" style="fill:#EDEDED;" d="M60.583,174.03c-1.999,0-3.62-1.621-3.62-3.62v-61.921
			c0-2,1.621-3.621,3.62-3.621c2,0,3.621,1.621,3.621,3.621v61.921C64.204,172.409,62.583,174.03,60.583,174.03z"/>
		<path id="path-12_28_" style="fill:#EDEDED;" d="M49.852,72.001c-1.015,0-2.025-0.425-2.741-1.251
			c-1.308-1.514-1.142-3.8,0.37-5.108l48.064-41.566c1.518-1.309,3.8-1.145,5.108,0.369c1.308,1.512,1.142,3.798-0.37,5.106
			L52.219,71.119C51.532,71.711,50.691,72.001,49.852,72.001z"/>
	</g>
</g>
<g>
</g>
<g>
</g>
<g>
</g>
<g>
</g>
<g>
</g>
<g>
</g>
<g>
</g>
<g>
</g>
<g>
</g>
<g>
</g>
<g>
</g>
<g>
</g>
<g>
</g>
<g>
</g>
<g>
</g>
</svg>
