<?xml version="1.0" encoding="iso-8859-1"?>
<!-- Generator: Adobe Illustrator 19.1.0, SVG Export Plug-In . SVG Version: 6.00 Build 0)  -->
<svg version="1.1" id="Capa_1" xmlns="http://www.w3.org/2000/svg" xmlns:xlink="http://www.w3.org/1999/xlink" x="0px" y="0px"
	 viewBox="0 0 218.333 218.333" style="enable-background:new 0 0 218.333 218.333;" xml:space="preserve">
<g>
	<g id="group-64svg">
		<path id="path-1_129_" style="fill:#0CB04A;" d="M176.111,193.736h15.293c2.948,0,5.339,1.501,5.339,3.351
			c0,1.851-2.391,3.352-5.339,3.352h-0.712c-2.949,0-5.339,1.5-5.339,3.351c0,1.851,2.39,3.351,5.339,3.351h22.302
			c2.948,0,5.339,1.5,5.339,3.351c0,1.85-2.391,3.351-5.339,3.351H184.06h-43.423c-2.949,0-5.339-1.501-5.339-3.351
			c0-1.851,2.39-3.351,5.339-3.351h9.124c2.948,0,5.339-1.5,5.339-3.351c0-1.851-2.391-3.351-5.339-3.351h-43.423
			c-2.948,0-5.338-1.501-5.338-3.352c0-1.85,2.39-3.351,5.338-3.351h10.263H176.111z"/>
		<path id="path-2_129_" style="fill:#0CB04A;" d="M200.329,153.467h4.924c0.949,0,1.719,0.823,1.719,1.84
			c0,1.016-0.77,1.841-1.719,1.841h-0.229c-0.949,0-1.719,0.823-1.719,1.841c0,1.016,0.77,1.84,1.719,1.84h10.584
			c0.95,0,1.719,0.824,1.719,1.841c0,1.017-0.769,1.84-1.719,1.84h-12.72h-13.98c-0.949,0-1.718-0.823-1.718-1.84
			c0-1.017,0.769-1.841,1.718-1.841h2.938c0.949,0,1.719-0.824,1.719-1.84c0-1.018-0.77-1.841-1.719-1.841h-13.981
			c-0.949,0-1.718-0.825-1.718-1.841c0-1.017,0.769-1.84,1.718-1.84h3.304H200.329z"/>
		<path id="path-3_129_" style="fill:#0CB04A;" d="M24.777,144.743c3.366,0,6.096-1.714,6.096-3.826c0-2.113-2.73-3.826-6.096-3.826
			H6.096c-3.367,0-6.096,1.713-6.096,3.826c0,2.112,2.729,3.826,6.096,3.826H24.777z"/>
		<path id="path-4_128_" style="fill:#0CB04A;" d="M62.899,166.644c6.441-0.109,11.631-1.912,11.594-4.025
			c-0.036-2.113-5.287-3.736-11.727-3.625l-35.735,0.613c-6.441,0.11-11.631,1.913-11.595,4.026
			c0.038,2.113,5.288,3.736,11.729,3.626L62.899,166.644z"/>
		<path id="path-5_128_" style="fill:#142A3B;" d="M161.232,140.917c11.454,0,20.772-9.235,20.772-20.586
			c0-11.343-9.318-20.569-20.772-20.569V140.917z"/>
		<path id="path-6_126_" style="fill:#142A3B;" d="M65.737,140.917c-11.454,0-20.772-9.235-20.772-20.586
			c0-11.343,9.318-20.569,20.772-20.569V140.917z"/>
		<path id="path-7_126_" style="fill:#FF3A2F;" d="M91.436,148.712H67.312c-2.223,0-4.022-1.781-4.022-3.984V96.929
			c0-2.201,1.799-3.982,4.022-3.982h24.124c2.223,0,4.022,1.781,4.022,3.982v47.799C95.458,146.93,93.659,148.712,91.436,148.712z"
			/>
		<path id="path-8_123_" style="opacity:0.35;fill:#020403;enable-background:new    ;" d="M86.138,92.946H83.68v44.8
			c0,2.203-1.459,3.983-3.264,3.983H63.29v2.999c0,2.203,1.46,3.984,3.264,3.984h19.584c1.804,0,3.264-1.781,3.264-3.984V96.929
			C89.402,94.728,87.942,92.946,86.138,92.946z"/>
		<path id="path-9_117_" style="fill:#FF3A2F;" d="M163.812,148.712h-24.125c-2.223,0-4.021-1.781-4.021-3.984V96.929
			c0-2.201,1.798-3.982,4.021-3.982h24.125c2.223,0,4.021,1.781,4.021,3.982v47.799C167.833,146.93,166.035,148.712,163.812,148.712
			z"/>
		<path id="path-10_108_" style="fill:#FF3A2F;" d="M139.687,180.577H91.436c-2.222,0-4.02-1.782-4.02-3.984V80.997
			c0-2.203,1.798-3.984,4.02-3.984h48.251c2.222,0,4.021,1.781,4.021,3.984v95.597C143.708,178.796,141.909,180.577,139.687,180.577
			z"/>
		<path id="path-11_95_" style="opacity:0.25;fill:#020403;enable-background:new    ;" d="M139.687,77.013H91.436
			c-2.223,0-4.02,1.781-4.02,3.984v2.999h34.65c2.222,0,4.02,1.781,4.02,3.983v92.599h13.601c2.222,0,4.02-1.782,4.02-3.984V80.997
			C143.707,78.794,141.909,77.013,139.687,77.013z"/>
		<path id="path-12_83_" style="fill:#FF3A2F;" d="M171.853,196.51H59.27c-2.223,0-4.022-1.78-4.022-3.983v-15.934
			c0-2.2,1.799-3.983,4.022-3.983h112.583c2.223,0,4.021,1.783,4.021,3.983v15.934C175.874,194.73,174.076,196.51,171.853,196.51z"
			/>
		<path id="path-13_71_" style="opacity:0.25;fill:#020403;enable-background:new    ;" d="M171.853,172.611h-10.075v12.934
			c0,2.201-1.799,3.984-4.021,3.984H55.248v2.999c0,2.202,1.799,3.983,4.022,3.983h112.583c2.223,0,4.021-1.781,4.021-3.983v-15.934
			C175.874,174.394,174.076,172.611,171.853,172.611z"/>
		<path id="path-14_58_" style="fill:#142A3B;" d="M137.616,25.067c0-11.342-9.319-20.577-20.772-20.577
			c-11.454,0-20.771,9.235-20.771,20.577H137.616z"/>
		<path id="path-15_49_" style="fill:#FF3A2F;" d="M155.77,81.489H75.353c-2.223,0-4.021-1.781-4.021-3.984V59.581
			c0-23.542,19.429-41.987,44.229-41.987c24.801,0,44.23,18.585,44.23,42.313v17.598C159.791,79.708,157.993,81.489,155.77,81.489z"
			/>
		<path id="path-16_40_" style="opacity:0.25;fill:#020403;enable-background:new    ;" d="M115.561,17.594
			c-3.034,0-5.984,0.284-8.832,0.811c20.451,3.799,35.441,20.663,35.441,41.503v17.597c0,2.203-1.799,3.984-4.021,3.984h17.621
			c2.223,0,4.021-1.781,4.021-3.984V59.908C159.791,36.18,140.362,17.594,115.561,17.594z"/>
		<path id="path-17_35_" style="opacity:0.45;fill:#020403;enable-background:new    ;" d="M151.749,148.712h-8.042V92.946h8.042
			V148.712z"/>
		<path id="path-18_26_" style="fill:#FFFFFF;" d="M79.38,63.689c-0.177,0-0.354-0.014-0.534-0.039
			c-1.988-0.29-3.365-2.121-3.071-4.091c0.184-1.244,4.781-30.437,25.587-28.376c1.999,0.198,3.457,1.966,3.259,3.946
			c-0.202,1.981-1.959,3.43-3.984,3.228c-13.968-1.389-17.628,22.014-17.663,22.248C82.709,62.397,81.155,63.689,79.38,63.689z"/>
	</g>
</g>
<g>
</g>
<g>
</g>
<g>
</g>
<g>
</g>
<g>
</g>
<g>
</g>
<g>
</g>
<g>
</g>
<g>
</g>
<g>
</g>
<g>
</g>
<g>
</g>
<g>
</g>
<g>
</g>
<g>
</g>
</svg>
