<?xml version="1.0" encoding="iso-8859-1"?>
<!-- Generator: Adobe Illustrator 19.1.0, SVG Export Plug-In . SVG Version: 6.00 Build 0)  -->
<svg version="1.1" id="Capa_1" xmlns="http://www.w3.org/2000/svg" xmlns:xlink="http://www.w3.org/1999/xlink" x="0px" y="0px"
	 viewBox="0 0 218.332 218.332" style="enable-background:new 0 0 218.332 218.332;" xml:space="preserve">
<g>
	<g id="group-143svg">
		<path id="path-1_49_" style="fill:#FF3A2F;" d="M122.941,153.34c0.164,0.578,0.137,39.26,0.137,39.26
			c0,6.197-4.832,11.415-11.088,11.415h-3.224c-6.255,0-10.508-5.218-10.508-11.415c0,0-0.376-38.682-0.213-39.26H122.941z"/>
		<path id="path-2_49_" style="opacity:0.35;fill:#020403;enable-background:new    ;" d="M123.078,172.109
			c0,0,0.027-18.191-0.137-18.769H98.045c-0.163,0.578,0.213,18.769,0.213,18.769H123.078z"/>
		<path id="path-3_49_" style="fill:#FBB713;" d="M156.697,158.936c0.596-4.099-0.523-114.943-0.523-114.943
			c0-22.633-17.061-40.788-39.908-40.788H104.49c-22.847,0-39.327,18.155-39.327,40.788c0,0-1.699,110.844-1.103,114.943H156.697z"
			/>
		<path id="path-4_49_" style="fill:#FFFFFF;" d="M75.434,81.289c-0.024,0-0.049,0-0.074,0c-2.012-0.043-3.603-1.69-3.564-3.68
			c0.269-12.956,0.533-23.822,0.533-23.822c0-16.039,8.532-30.064,22.266-36.515c1.82-0.852,3.989-0.084,4.848,1.714
			c0.863,1.799,0.088,3.949-1.727,4.802c-11.169,5.246-18.11,16.772-18.11,30.084c0,0.09-0.262,10.944-0.532,23.886
			C79.03,79.724,77.411,81.289,75.434,81.289z"/>
		<path id="path-5_49_" style="opacity:0.25;fill:#020403;enable-background:new    ;" d="M156.173,43.993
			c0-22.633-17.06-40.788-39.907-40.788H104.49c-9.921,0-18.636,3.432-25.327,9.159c2.8-0.615,5.728-0.963,8.78-0.963h11.776
			c22.847,0,39.907,18.155,39.907,40.79c0,0,0.811,80.367,0.684,106.745h16.387C157.293,154.837,156.173,43.993,156.173,43.993z"/>
		<path id="path-6_49_" style="opacity:0.35;fill:#020403;enable-background:new    ;" d="M123.078,127.706
			c-2.012,0-3.64-1.614-3.64-3.606V46.236c0-1.991,1.628-3.605,3.64-3.605s3.638,1.614,3.638,3.605v77.864
			C126.716,126.092,125.09,127.706,123.078,127.706z"/>
		<path id="path-7_49_" style="opacity:0.35;fill:#020403;enable-background:new    ;" d="M94.119,127.706
			c-2.011,0-3.639-1.614-3.639-3.606V46.236c0-1.991,1.628-3.605,3.639-3.605c2.012,0,3.639,1.614,3.639,3.605v77.864
			C97.758,126.092,96.131,127.706,94.119,127.706z"/>
		<path id="path-8_49_" style="fill:#FF3A2F;" d="M16.953,151.824h3.453c0.664,0,1.204,0.682,1.204,1.523
			c0,0.842-0.54,1.523-1.204,1.523h-0.161c-0.666,0-1.206,0.683-1.206,1.525c0,0.84,0.54,1.524,1.206,1.524h7.42
			c0.665,0,1.205,0.681,1.205,1.522c0,0.842-0.54,1.524-1.205,1.524h-8.917H8.947c-0.666,0-1.205-0.682-1.205-1.524
			c0-0.841,0.539-1.522,1.205-1.522h2.059c0.665,0,1.205-0.684,1.205-1.524c0-0.842-0.54-1.525-1.205-1.525H1.205
			c-0.666,0-1.205-0.681-1.205-1.523c0-0.841,0.539-1.523,1.205-1.523h2.317H16.953z"/>
		<path id="path-9_46_" style="fill:#FF3A2F;" d="M198.521,166.779h5.739c1.106,0,2.003,0.896,2.003,1.999
			c0,1.104-0.897,1.999-2.003,1.999h-0.268c-1.106,0-2.003,0.894-2.003,1.998c0,1.103,0.897,1.997,2.003,1.997h12.336
			c1.108,0,2.004,0.895,2.004,1.998c0,1.104-0.896,1.998-2.004,1.998h-14.825h-16.294c-1.106,0-2.004-0.894-2.004-1.998
			c0-1.103,0.898-1.998,2.004-1.998h3.424c1.106,0,2.003-0.894,2.003-1.997c0-1.104-0.897-1.998-2.003-1.998h-16.295
			c-1.107,0-2.003-0.895-2.003-1.999c0-1.103,0.896-1.999,2.003-1.999h3.851H198.521z"/>
		<path id="path-10_42_" style="fill:#FBB713;" d="M130.436,197.372h17.435c3.363,0,6.087,1.326,6.087,2.96
			s-2.724,2.959-6.087,2.959h-0.811c-3.362,0-6.087,1.325-6.087,2.96c0,1.634,2.725,2.957,6.087,2.957h37.481
			c3.361,0,6.087,1.326,6.087,2.96c0,1.635-2.726,2.96-6.087,2.96h-45.043H89.992c-3.361,0-6.087-1.325-6.087-2.96
			c0-1.634,2.726-2.96,6.087-2.96h10.402c3.361,0,6.087-1.323,6.087-2.957c0-1.635-2.726-2.96-6.087-2.96H50.888
			c-3.361,0-6.087-1.325-6.087-2.959s2.726-2.96,6.087-2.96h11.7H130.436z"/>
		<path id="path-11_36_" style="fill:#FBB713;" d="M72.995,163.083v5.684c0,1.097-1.334,1.985-2.979,1.985
			c-1.644,0-2.978-0.888-2.978-1.985v-0.264c0-1.096-1.334-1.985-2.978-1.985c-1.646,0-2.979,0.889-2.979,1.985v12.221
			c0,1.097-1.333,1.985-2.979,1.985c-1.645,0-2.979-0.888-2.979-1.985v-14.686v-16.143c0-1.095,1.334-1.985,2.979-1.985
			c1.646,0,2.979,0.89,2.979,1.985v3.392c0,1.096,1.333,1.985,2.979,1.985c1.644,0,2.978-0.889,2.978-1.985v-16.142
			c0-1.096,1.334-1.985,2.978-1.985c1.645,0,2.979,0.889,2.979,1.985v3.815V163.083z"/>
	</g>
</g>
<g>
</g>
<g>
</g>
<g>
</g>
<g>
</g>
<g>
</g>
<g>
</g>
<g>
</g>
<g>
</g>
<g>
</g>
<g>
</g>
<g>
</g>
<g>
</g>
<g>
</g>
<g>
</g>
<g>
</g>
</svg>
