<?xml version="1.0" encoding="iso-8859-1"?>
<!-- Generator: Adobe Illustrator 19.1.0, SVG Export Plug-In . SVG Version: 6.00 Build 0)  -->
<svg version="1.1" id="Capa_1" xmlns="http://www.w3.org/2000/svg" xmlns:xlink="http://www.w3.org/1999/xlink" x="0px" y="0px"
	 viewBox="0 0 216.291 216.291" style="enable-background:new 0 0 216.291 216.291;" xml:space="preserve">
<g>
	<g id="group-38svg">
		<path id="path-1_100_" style="fill:#0CB04A;" d="M71.678,146.567h13.691c2.639,0,4.78,1.784,4.78,3.986
			c0,2.201-2.141,3.986-4.78,3.986h-0.638c-2.639,0-4.779,1.785-4.779,3.986c0,2.201,2.14,3.986,4.779,3.986h29.433
			c2.64,0,4.779,1.785,4.779,3.986c0,2.201-2.139,3.986-4.779,3.986h-35.37H39.918c-2.639,0-4.779-1.785-4.779-3.986
			c0-2.201,2.14-3.986,4.779-3.986h8.169c2.64,0,4.779-1.785,4.779-3.986c0-2.201-2.139-3.986-4.779-3.986H9.211
			c-2.639,0-4.779-1.785-4.779-3.986c0-2.202,2.14-3.986,4.779-3.986h9.188H71.678z"/>
		<path id="path-2_100_" style="fill:#0CB04A;" d="M189.561,161.746h6.459c1.245,0,2.255,1.839,2.255,4.104
			c0,2.268-1.01,4.105-2.255,4.105h-0.301c-1.246,0-2.254,1.837-2.254,4.105c0,2.266,1.008,4.105,2.254,4.105h13.886
			c1.245,0,2.254,1.837,2.254,4.104c0,2.267-1.009,4.104-2.254,4.104h-16.687h-18.34c-1.246,0-2.256-1.837-2.256-4.104
			c0-2.267,1.01-4.104,2.256-4.104h3.853c1.245,0,2.255-1.839,2.255-4.105c0-2.268-1.01-4.105-2.255-4.105h-18.34
			c-1.245,0-2.255-1.837-2.255-4.105c0-2.265,1.01-4.104,2.255-4.104h4.334H189.561z"/>
		<path id="path-3_100_" style="fill:#0CB04A;" d="M54.087,198.035c3.961,0,7.17-1.961,7.17-4.38c0-2.418-3.209-4.38-7.17-4.38
			H32.116c-3.96,0-7.169,1.962-7.169,4.38c0,2.419,3.209,4.38,7.169,4.38H54.087z"/>
		<path id="path-4_99_" style="fill:#142A3B;" d="M161.253,30.157c0,16.655-13.629,30.157-30.44,30.157
			c-16.813,0-30.443-13.502-30.443-30.157S114,0,130.813,0C147.624,0,161.253,13.502,161.253,30.157z"/>
		<path id="path-5_99_" style="fill:#0CB04A;" d="M137.825,61.306c0,16.655-13.629,30.157-30.442,30.157
			c-16.812,0-30.441-13.502-30.441-30.157c0-16.656,13.629-30.157,30.441-30.157C124.196,31.149,137.825,44.65,137.825,61.306z"/>
		<path id="path-6_98_" style="opacity:0.35;fill:#020403;enable-background:new    ;" d="M131.127,36.255
			c-12.887,3.508-22.368,15.169-22.368,29.05s9.481,25.542,22.368,29.05c12.888-3.508,22.368-15.169,22.368-29.05
			S144.015,39.763,131.127,36.255z"/>
		<path id="path-7_98_" style="fill:#FF3A2F;" d="M181.753,61.306c0,16.655-13.628,30.157-30.441,30.157
			c-16.812,0-30.442-13.502-30.442-30.157c0-16.656,13.63-30.157,30.442-30.157C168.125,31.149,181.753,44.65,181.753,61.306z"/>
		<path id="path-8_95_" style="fill:#FFFFFF;" d="M127.538,70.304c-2.011,0-3.639-1.614-3.639-3.605
			c0-15.743,12.928-28.551,28.82-28.551c2.011,0,3.639,1.614,3.639,3.605c0,1.99-1.628,3.604-3.639,3.604
			c-11.879,0-21.542,9.575-21.542,21.342C131.177,68.69,129.549,70.304,127.538,70.304z"/>
		<path id="path-9_90_" style="fill:#FFFFFF;" d="M87.169,70.304c-2.012,0-3.638-1.614-3.638-3.605
			c0-9.271,4.569-17.999,12.227-23.347c1.639-1.147,3.909-0.758,5.071,0.868c1.158,1.628,0.765,3.876-0.878,5.024
			c-5.724,4-9.143,10.525-9.143,17.455C90.808,68.69,89.181,70.304,87.169,70.304z"/>
		<path id="path-10_83_" style="opacity:0.25;fill:#020403;enable-background:new    ;" d="M154.616,31.333
			c8.982,5.244,15.026,14.899,15.026,25.973c0,16.655-13.628,30.158-30.441,30.158c-1.117,0-2.217-0.069-3.303-0.185
			c4.526,2.642,9.782,4.184,15.414,4.184c16.813,0,30.441-13.502,30.441-30.157C181.753,45.757,169.873,32.966,154.616,31.333z"/>
		<path id="path-11_73_" style="fill:#FBB713;" d="M144.652,216.291l38.27-139.237H76.542l38.271,139.237H144.652z"/>
		<path id="path-12_62_" style="opacity:0.25;fill:#020403;enable-background:new    ;" d="M101.522,97.566v3.916
			c0,0.754,1.478,1.366,3.3,1.366s3.298-0.612,3.298-1.366v-0.183c0-0.755,1.478-1.367,3.301-1.367c1.821,0,3.299,0.612,3.299,1.367
			v8.416c0,0.754,1.477,1.367,3.299,1.367c1.823,0,3.299-0.613,3.299-1.367V99.601V88.486c0-0.756-1.476-1.366-3.299-1.366
			c-1.822,0-3.299,0.61-3.299,1.366v2.335c0,0.755-1.478,1.367-3.299,1.367c-1.823,0-3.301-0.612-3.301-1.367V79.706
			c0-0.754-1.476-1.367-3.298-1.367s-3.3,0.613-3.3,1.367v2.627V97.566z"/>
		<path id="path-13_50_" style="fill:#0CB04A;" d="M97.486,89.569v3.914c0,0.755,1.477,1.366,3.299,1.366
			c1.823,0,3.299-0.611,3.299-1.366v-0.182c0-0.755,1.477-1.367,3.299-1.367c1.823,0,3.3,0.612,3.3,1.367v8.416
			c0,0.754,1.476,1.366,3.299,1.366c1.822,0,3.299-0.612,3.299-1.366V91.603V80.487c0-0.754-1.477-1.366-3.299-1.366
			c-1.823,0-3.299,0.612-3.299,1.366v2.336c0,0.755-1.477,1.367-3.3,1.367c-1.822,0-3.299-0.612-3.299-1.367V71.708
			c0-0.756-1.476-1.367-3.299-1.367c-1.822,0-3.299,0.611-3.299,1.367v2.627V89.569z"/>
		<path id="path-14_40_" style="opacity:0.2;fill:#020403;enable-background:new    ;" d="M163.477,77.054l-34.974,127.24h-16.988
			l3.298,11.997h29.839l38.27-139.237H163.477z"/>
		<path id="path-15_34_" style="fill:#FFFFFF;" d="M117.976,180.653c-1.596,0-3.061-1.048-3.504-2.647l-20.117-72.251
			c-0.537-1.919,0.604-3.904,2.541-4.434c1.921-0.522,3.94,0.594,4.473,2.518l20.117,72.251c0.536,1.919-0.604,3.904-2.541,4.433
			C118.622,180.611,118.299,180.653,117.976,180.653z"/>
	</g>
</g>
<g>
</g>
<g>
</g>
<g>
</g>
<g>
</g>
<g>
</g>
<g>
</g>
<g>
</g>
<g>
</g>
<g>
</g>
<g>
</g>
<g>
</g>
<g>
</g>
<g>
</g>
<g>
</g>
<g>
</g>
</svg>
