<?xml version="1.0" encoding="iso-8859-1"?>
<!-- Generator: Adobe Illustrator 19.1.0, SVG Export Plug-In . SVG Version: 6.00 Build 0)  -->
<svg version="1.1" id="Capa_1" xmlns="http://www.w3.org/2000/svg" xmlns:xlink="http://www.w3.org/1999/xlink" x="0px" y="0px"
	 viewBox="0 0 218.332 218.332" style="enable-background:new 0 0 218.332 218.332;" xml:space="preserve">
<g>
	<g id="group-67svg">
		<path id="path-1_132_" style="fill:#020403;" d="M98.738,44.594c-0.007,0.053-0.011,0.105-0.017,0.158
			c0.086,0.052,0.179,0.091,0.263,0.146C98.899,44.801,98.822,44.692,98.738,44.594z"/>
		<path id="path-2_132_" style="fill:#FF3A2F;" d="M166.557,88.068c-0.725-0.355-1.475-0.597-2.231-0.757
			c0.728-1.226,1.429-2.49,2.09-3.81c2.308-4.616,0.402-10.21-4.255-12.495c-0.286-0.141-0.574-0.264-0.866-0.372
			c0.311-0.526,0.636-1.032,0.933-1.574c2.479-4.526,0.788-10.19-3.781-12.647c-0.62-0.333-1.261-0.584-1.914-0.769
			c0.324-0.453,0.653-0.881,0.972-1.356c2.873-4.29,1.689-10.077-2.641-12.923c-1.065-0.7-2.222-1.153-3.403-1.382
			c0.381-0.773,0.753-1.575,1.11-2.413c2.014-4.74-0.225-10.197-4.999-12.203c-1.275-1.282-2.911-2.243-4.809-2.686l-4.871-1.141
			c0,0-0.14-0.033-0.377-0.074c-0.23-0.039-0.564-0.096-0.991-0.171c-0.409-0.069-0.885-0.158-1.391-0.257
			c-0.507-0.102-1.049-0.223-1.569-0.367c-0.516-0.139-1.885-1.086-2.122-2.09c-0.046-0.301-0.069-0.603-0.073-0.915
			c-0.013-1.224,0.319-2.515,0.903-3.561c0.577-1.064,1.365-1.903,2.148-2.521c0.783-0.625,1.567-1.037,2.227-1.289
			c0.665-0.26,1.206-0.369,1.569-0.41c0.366-0.044,0.542-0.021,0.527-0.024c0.653,0.07,1.239-0.395,1.312-1.042
			c0.074-0.647-2.766-1.612-3.57-1.8c-0.803-0.184-1.8-0.427-3.03-0.693c-1.206-0.254-2.636-0.521-4.367-0.695
			c-0.034-0.004-0.064-0.009-0.098-0.011c-1.763-0.155-3.886-0.214-6.242,0.235c-0.584,0.113-1.189,0.251-1.796,0.428
			c-0.613,0.17-1.215,0.395-1.833,0.64c-0.601,0.264-1.214,0.549-1.806,0.884c-0.293,0.166-0.591,0.341-0.873,0.529
			c-0.293,0.186-0.572,0.387-0.847,0.59c-2.24,1.643-4.019,3.906-5.171,6.301l-0.213,0.452l-0.013,0.03
			c0.009-0.036-0.134,0.406-0.078,0.228l-0.015,0.036l-0.036,0.069l-0.068,0.14l-0.137,0.28l-0.23,0.628l-0.216,0.63l-0.179,0.55
			c-0.12,0.363-0.224,0.755-0.321,1.142c-0.393,1.561-0.659,3.32-0.646,5.227c-0.012,1.899,0.296,3.972,0.934,6.002
			c0.653,2.027,1.651,4,2.899,5.692c0.381,0.52,0.785,1.005,1.198,1.474c-1.491-0.964-3.256-1.546-5.169-1.546
			c-5.25,0-9.505,4.218-9.505,9.417c0,2.959,1.386,5.585,3.537,7.312c-4.568,0.686-8.071,4.579-8.071,9.296
			c0,3.081,1.496,5.813,3.809,7.532c-4.749,0.523-8.442,4.507-8.442,9.353c0,2.645,1.121,5.018,2.894,6.729
			c-4.672,0.592-8.287,4.538-8.287,9.328c0,3.522,1.955,6.581,4.844,8.197c-1.09,3.455,1.074,6.31,4.787,8.631h35.39h35.388
			c0,0.071-0.003,0.142-0.003,0.212c2.38-2.624,4.508-5.722,6.364-9.43C173.146,98.223,171.217,90.357,166.557,88.068z"/>
		<path id="path-3_132_" style="fill:#FFFFFF;" d="M99.645,107.031c-0.604,0-1.219-0.151-1.784-0.466
			c-4.129-2.309-6.695-6.654-6.695-11.337c0-4.676,2.531-8.851,6.368-11.146c-0.64-1.54-0.973-3.2-0.973-4.91
			c0-4.581,2.388-8.647,6.051-10.97c-0.924-1.801-1.421-3.815-1.421-5.916c0-4.529,2.292-8.534,5.885-10.867
			c-0.881-1.762-1.351-3.718-1.351-5.741c0-1.991,1.628-3.605,3.64-3.605c2.01,0,3.638,1.614,3.638,3.605
			c0,1.75,0.8,3.394,2.189,4.51l6.414,5.14l-8.155,1.225c-2.84,0.426-4.982,2.891-4.982,5.733c0,1.843,0.856,3.537,2.353,4.648
			l7.352,5.461l-9.134,1.006c-2.966,0.326-5.201,2.807-5.201,5.771c0,1.557,0.636,3.03,1.791,4.145l5.4,5.209l-7.476,0.949
			c-2.914,0.37-5.11,2.842-5.11,5.753c0,2.089,1.148,4.026,2.992,5.058c1.752,0.978,2.371,3.178,1.382,4.912
			C102.147,106.371,100.914,107.031,99.645,107.031z"/>
		<path id="path-4_131_" style="opacity:0.25;fill:#020403;enable-background:new    ;" d="M166.557,88.068
			c-0.725-0.355-1.475-0.597-2.231-0.757c0.728-1.227,1.429-2.491,2.09-3.811c2.308-4.615,0.402-10.21-4.255-12.494
			c-0.286-0.141-0.574-0.264-0.866-0.372c0.311-0.526,0.636-1.032,0.933-1.574c2.479-4.526,0.788-10.19-3.781-12.647
			c-0.62-0.333-1.261-0.584-1.914-0.769c0.324-0.453,0.653-0.881,0.972-1.356c2.873-4.29,1.689-10.077-2.641-12.923
			c-1.065-0.7-2.222-1.153-3.403-1.382c0.381-0.773,0.753-1.575,1.11-2.414c2.014-4.739-0.225-10.196-4.999-12.203
			c-1.275-1.281-2.911-2.242-4.809-2.685l-4.871-1.141c0,0-0.14-0.033-0.377-0.074c-0.23-0.039-0.564-0.096-0.991-0.171
			c-0.409-0.07-0.885-0.158-1.391-0.257c-0.507-0.102-1.049-0.223-1.569-0.367c-0.516-0.139-1.885-1.086-2.122-2.09
			c-0.046-0.302-0.069-0.603-0.073-0.915c-0.013-1.224,0.319-2.515,0.903-3.562c0.577-1.063,1.365-1.902,2.148-2.52
			c0.783-0.626,1.567-1.037,2.227-1.289c0.665-0.26,1.206-0.369,1.569-0.41c0.366-0.044,0.542-0.021,0.527-0.024
			c0.653,0.07,1.239-0.396,1.312-1.042c0.074-0.647-2.766-1.612-3.57-1.8c-0.803-0.184-1.8-0.427-3.03-0.693
			c-1.206-0.254-2.636-0.521-4.367-0.695c-0.034-0.004-0.064-0.01-0.098-0.011c-1.763-0.155-3.886-0.214-6.242,0.235
			c-0.584,0.112-1.189,0.251-1.796,0.428c-0.613,0.17-1.215,0.395-1.833,0.64c-0.601,0.264-1.214,0.549-1.806,0.883
			c-0.293,0.167-0.591,0.342-0.873,0.53c-0.293,0.186-0.572,0.387-0.847,0.59c-1.395,1.022-2.583,2.3-3.58,3.685
			c0.948-0.009,1.851,0.029,2.661,0.1c0.033,0.002,0.063,0.007,0.098,0.011c1.73,0.175,3.16,0.441,4.367,0.695
			c1.23,0.266,2.226,0.509,3.029,0.693c0.804,0.188,3.643,1.153,3.571,1.801c-0.074,0.645-0.659,1.112-1.313,1.042
			c0.015,0.002-0.161-0.022-0.526,0.023c-0.362,0.041-0.905,0.15-1.57,0.41c-0.659,0.253-1.443,0.664-2.227,1.29
			c-0.784,0.619-1.571,1.457-2.147,2.52c-0.584,1.047-0.916,2.337-0.904,3.562c0.005,0.311,0.028,0.613,0.074,0.915
			c0.236,1.004,1.605,1.951,2.121,2.089c0.521,0.145,1.061,0.264,1.568,0.367c0.508,0.1,0.983,0.187,1.392,0.257
			c0.426,0.075,0.761,0.133,0.991,0.172c0.237,0.04,0.377,0.073,0.377,0.073l4.871,1.142c1.899,0.443,3.534,1.402,4.81,2.685
			c4.773,2.007,7.012,7.464,4.998,12.202c-0.357,0.838-0.729,1.64-1.11,2.413c1.182,0.23,2.338,0.683,3.402,1.384
			c4.331,2.846,5.516,8.632,2.642,12.922c-0.319,0.476-0.648,0.903-0.972,1.356c0.653,0.185,1.293,0.437,1.914,0.77
			c4.569,2.457,6.261,8.12,3.781,12.646c-0.297,0.542-0.623,1.048-0.934,1.573c0.293,0.11,0.581,0.233,0.867,0.373
			c4.657,2.285,6.563,7.879,4.254,12.495c-0.661,1.321-1.361,2.584-2.089,3.812c0.757,0.159,1.505,0.4,2.231,0.755
			c4.66,2.29,6.589,10.155,4.279,14.77c-0.369,0.739-0.758,1.436-1.149,2.127h9.106c0,0.071-0.003,0.142-0.003,0.212
			c2.38-2.624,4.508-5.722,6.364-9.431C173.146,98.223,171.217,90.357,166.557,88.068z"/>
		<path id="path-5_131_" style="fill:#FBB713;" d="M129.088,112.056h-35.39c0,11.394,2.818,21.312,13.865,26.487l5.367,50.604h0.155
			c0,6.283,7.164,11.376,16.003,11.376c8.838,0,16.003-5.093,16.003-11.376h0.156l5.418-51.104
			c10.16-5.263,13.763-14.83,13.808-25.775c0-0.07,0.003-0.141,0.003-0.212H129.088z"/>
		<path id="path-6_129_" style="fill:#FFFFFF;" d="M123.824,192.753h-3.216l-0.551-3.162l-6.652-53.25
			c-9.215-2.712-13.191-8.883-13.191-20.175c0-1.991,1.628-3.605,3.639-3.605s3.639,1.614,3.639,3.605
			c0,9.872,3.358,12.378,9.968,13.757l2.541,0.529l7.192,57.561c0.124,0.356,0.192,0.738,0.192,1.135
			C127.385,191.139,125.835,192.753,123.824,192.753z"/>
		<path id="path-7_129_" style="opacity:0.25;fill:#020403;enable-background:new    ;" d="M153.74,112.056
			c0,0.071-0.005,0.142-0.005,0.212c-0.045,10.945-3.648,20.512-13.808,25.775l-5.417,51.104h-0.157
			c0,4.937-4.451,9.099-10.634,10.672c1.686,0.428,3.476,0.704,5.369,0.704c8.838,0,16.003-5.093,16.003-11.376h0.156l5.418-51.104
			c10.16-5.263,13.763-14.83,13.808-25.775c0-0.07,0.003-0.141,0.003-0.212H153.74z"/>
		<path id="path-8_126_" style="fill:#FF3A2F;" d="M116.013,189.462h15.531c2.995,0,5.422,1.523,5.422,3.402
			c0,1.88-2.427,3.404-5.422,3.404h-0.724c-2.994,0-5.421,1.523-5.421,3.404c0,1.878,2.427,3.402,5.421,3.402h33.389
			c2.994,0,5.422,1.524,5.422,3.404c0,1.88-2.428,3.403-5.422,3.403h-40.124h-44.1c-2.994,0-5.422-1.523-5.422-3.403
			c0-1.88,2.428-3.404,5.422-3.404h9.267c2.994,0,5.421-1.524,5.421-3.402c0-1.881-2.427-3.404-5.421-3.404h-44.1
			c-2.995,0-5.422-1.524-5.422-3.404c0-1.879,2.427-3.402,5.422-3.402h10.423H116.013z"/>
		<path id="path-9_120_" style="fill:#FF3A2F;" d="M24.56,157.369h5c0.964,0,1.747,0.838,1.747,1.869c0,1.032-0.783,1.87-1.747,1.87
			h-0.232c-0.964,0-1.746,0.836-1.746,1.868c0,1.033,0.782,1.871,1.746,1.871h10.749c0.965,0,1.745,0.837,1.745,1.869
			c0,1.033-0.78,1.869-1.745,1.869H27.159H12.961c-0.964,0-1.746-0.836-1.746-1.869c0-1.032,0.782-1.869,1.746-1.869h2.983
			c0.964,0,1.745-0.838,1.745-1.871c0-1.032-0.781-1.868-1.745-1.868H1.746c-0.965,0-1.746-0.838-1.746-1.87
			c0-1.031,0.781-1.869,1.746-1.869h3.355H24.56z"/>
		<path id="path-10_111_" style="fill:#FF3A2F;" d="M212.142,212.826c3.418,0,6.19-1.741,6.19-3.886c0-2.147-2.772-3.886-6.19-3.886
			h-18.971c-3.42,0-6.193,1.739-6.193,3.886c0,2.145,2.773,3.886,6.193,3.886H212.142z"/>
	</g>
</g>
<g>
</g>
<g>
</g>
<g>
</g>
<g>
</g>
<g>
</g>
<g>
</g>
<g>
</g>
<g>
</g>
<g>
</g>
<g>
</g>
<g>
</g>
<g>
</g>
<g>
</g>
<g>
</g>
<g>
</g>
</svg>
