<?xml version="1.0" encoding="iso-8859-1"?>
<!-- Generator: Adobe Illustrator 19.1.0, SVG Export Plug-In . SVG Version: 6.00 Build 0)  -->
<svg version="1.1" id="Capa_1" xmlns="http://www.w3.org/2000/svg" xmlns:xlink="http://www.w3.org/1999/xlink" x="0px" y="0px"
	 viewBox="0 0 217.229 217.229" style="enable-background:new 0 0 217.229 217.229;" xml:space="preserve">
<g>
	<g id="group-105svg">
		<path id="path-1_7_" style="fill:#FF3A2F;" d="M49.962,151.386H35.49c-2.791,0-5.053,1.712-5.053,3.824s2.262,3.823,5.053,3.823
			h0.673c2.791,0,5.053,1.713,5.053,3.824c0,2.112-2.262,3.825-5.053,3.825H5.053c-2.791,0-5.053,1.711-5.053,3.822
			c0,2.113,2.262,3.825,5.053,3.825H42.44h76.419c2.79,0,5.052-1.712,5.052-3.825c0-2.111-2.262-3.822-5.052-3.822h-8.634
			c-2.791,0-5.053-1.713-5.053-3.825c0-2.111,2.262-3.824,5.053-3.824h33.911c2.79,0,5.053-1.711,5.053-3.823
			s-2.263-3.824-5.053-3.824h-2.531H49.962z"/>
		<path id="path-2_7_" style="fill:#FF3A2F;" d="M139.718,175.352c-2.339,0-4.236-1.834-4.236-4.097s1.897-4.098,4.236-4.098h12.981
			c2.339,0,4.236,1.835,4.236,4.098s-1.897,4.097-4.236,4.097H139.718z"/>
		<path id="path-3_7_" style="fill:#142A3B;" d="M181.257,41.876H88.782L52.553,81.397v72.456h164.675V81.397L181.257,41.876z"/>
		<path id="path-4_7_" style="opacity:0.35;enable-background:new    ;" d="M181.257,41.876h-6.533l21.92,24.083v37.557
			c0,19.273-15.625,34.898-34.899,34.898H52.553v15.438h164.676V81.397L181.257,41.876z"/>
		<path id="path-5_7_" style="fill:#FBB713;" d="M91.676,48.464h86.673l29.97,32.933h-50.374c0,12.331-10.717,22.301-23.054,22.301
			c-12.339,0-23.055-9.97-23.055-22.301H61.494L91.676,48.464z"/>
		<path id="path-6_7_" style="opacity:0.35;enable-background:new    ;" d="M178.349,48.464h-5.841l22.946,25.214H145.08
			c0,12.331-10.717,22.302-23.054,22.302c-1.681,0-3.326-0.2-4.924-0.551c4.295,5.043,10.777,8.269,17.789,8.269
			c12.337,0,23.054-9.97,23.054-22.301h50.374L178.349,48.464z"/>
		<path id="path-7_7_" style="opacity:0.35;enable-background:new    ;" d="M98.971,73.678H68.568l-7.074,7.719h38.968
			C99.517,78.99,98.971,76.397,98.971,73.678z"/>
	</g>
</g>
<g>
</g>
<g>
</g>
<g>
</g>
<g>
</g>
<g>
</g>
<g>
</g>
<g>
</g>
<g>
</g>
<g>
</g>
<g>
</g>
<g>
</g>
<g>
</g>
<g>
</g>
<g>
</g>
<g>
</g>
</svg>
