<?xml version="1.0" encoding="iso-8859-1"?>
<!-- Generator: Adobe Illustrator 19.1.0, SVG Export Plug-In . SVG Version: 6.00 Build 0)  -->
<svg version="1.1" id="Capa_1" xmlns="http://www.w3.org/2000/svg" xmlns:xlink="http://www.w3.org/1999/xlink" x="0px" y="0px"
	 viewBox="0 0 218.333 218.333" style="enable-background:new 0 0 218.333 218.333;" xml:space="preserve">
<g>
	<g id="group-131svg">
		<path id="path-1_36_" style="fill:#FF3A2F;" d="M76.05,170.022H55.297c-4.001,0-7.244,2.48-7.244,5.539s3.243,5.54,7.244,5.54
			h0.967c4,0,7.243,2.48,7.243,5.539c0,3.06-3.243,5.541-7.243,5.541H11.652c-4.001,0-7.244,2.478-7.244,5.538
			c0,3.059,3.243,5.539,7.244,5.539h53.611h109.58c4,0,7.243-2.48,7.243-5.539c0-3.06-3.243-5.538-7.243-5.538h-12.381
			c-4.002,0-7.245-2.481-7.245-5.541c0-3.059,3.243-5.539,7.245-5.539h48.626c4.001,0,7.245-2.481,7.245-5.54
			s-3.244-5.539-7.245-5.539h-3.63H76.05z"/>
		<path id="path-2_36_" style="fill:#FF3A2F;" d="M6.074,176.328C2.72,176.328,0,175,0,173.36s2.72-2.968,6.074-2.968h18.613
			c3.354,0,6.074,1.328,6.074,2.968s-2.72,2.968-6.074,2.968H6.074z"/>
		<path id="path-3_36_" style="fill:#FF3A2F;" d="M205.371,123.172h3.685c0.711,0,1.287,0.991,1.287,2.212
			c0,1.222-0.576,2.213-1.287,2.213h-0.171c-0.711,0-1.286,0.991-1.286,2.212c0,1.222,0.575,2.213,1.286,2.213h7.922
			c0.71,0,1.286,0.99,1.286,2.212s-0.576,2.213-1.286,2.213h-9.521h-19.46c-0.71,0-1.286-0.991-1.286-2.213s0.576-2.212,1.286-2.212
			h2.199c0.711,0,1.287-0.991,1.287-2.213c0-1.221-0.576-2.212-1.287-2.212h-10.464c-0.711,0-1.287-0.991-1.287-2.213
			c0-1.221,0.576-2.212,1.287-2.212h2.472H205.371z"/>
		<path id="path-4_36_" style="fill:#FF3A2F;" d="M177.422,138.84c1.325,0,2.4-0.82,2.4-1.831c0-1.011-1.075-1.831-2.4-1.831h-7.357
			c-1.324,0-2.4,0.82-2.4,1.831c0,1.011,1.076,1.831,2.4,1.831H177.422z"/>
		<path id="path-5_36_" style="fill:#FF3A2F;" d="M40.13,138.84c1.326,0,2.4-0.82,2.4-1.831c0-1.011-1.074-1.831-2.4-1.831h-7.356
			c-1.325,0-2.4,0.82-2.4,1.831c0,1.011,1.075,1.831,2.4,1.831H40.13z"/>
		<path id="path-6_36_" style="fill:#FBB713;" d="M131.025,30.614h-44.62L58.947,54.415v36.621v69.754
			c0,10.732,8.782,19.432,19.616,19.432h60.304c10.834,0,19.616-8.7,19.616-19.432V54.415L131.025,30.614z"/>
		<path id="path-7_36_" style="opacity:0.25;fill:#010101;enable-background:new    ;" d="M131.025,30.614H84.444l35.789,15.314
			c8.348,3.572,14.176,11.573,14.223,20.584c0,0.057,0.001,0.115,0.001,0.174v83.904c0,10.732-8.782,19.432-19.616,19.432H61.299
			c3.315,6.075,9.803,10.2,17.264,10.2h60.304c10.834,0,19.616-8.7,19.616-19.432V54.415L131.025,30.614z"/>
		<path id="path-8_36_" style="fill:#142A3B;" d="M90.336,93.425H64.863c-2.01,0-3.638-2.009-3.638-4c0-1.99,1.628-4,3.638-4h25.473
			c2.011,0,3.638,2.01,3.638,4C93.974,91.416,92.347,93.425,90.336,93.425z"/>
		<path id="path-9_33_" style="fill:#142A3B;" d="M90.336,137.425H64.863c-2.01,0-3.638-2.011-3.638-4
			c0-1.991,1.628-4.001,3.638-4.001h25.473c2.011,0,3.638,2.01,3.638,4.001C93.974,135.415,92.347,137.425,90.336,137.425z"/>
		<path id="path-10_31_" style="fill:#142A3B;" d="M90.336,115.424H64.863c-2.01,0-3.638-2.01-3.638-4
			c0-1.99,1.628-3.999,3.638-3.999h25.473c2.011,0,3.638,2.009,3.638,3.999C93.974,113.414,92.347,115.424,90.336,115.424z"/>
		<path id="path-11_27_" style="fill:#FF3A2F;" d="M136.811,32.858H80.619c-4.957,0-8.976-3.981-8.976-8.893l0,0
			c0-4.91,4.019-8.891,8.976-8.891h56.192c4.957,0,8.974,3.981,8.974,8.891l0,0C145.785,28.877,141.768,32.858,136.811,32.858z"/>
		<path id="path-12_23_" style="opacity:0.35;fill:#010101;enable-background:new    ;" d="M136.969,15.089
			c1.204,1.514,1.953,3.4,1.953,5.475c0,4.913-4.018,8.893-8.976,8.893H73.755c-0.055,0-0.105-0.015-0.159-0.016
			c1.644,2.066,4.163,3.416,7.023,3.416h56.192c4.957,0,8.974-3.981,8.974-8.892C145.785,19.11,141.851,15.175,136.969,15.089z"/>
		<path id="path-13_18_" style="fill:#FFFFFF;" d="M76.012,80.765c-3.014,0-5.458-2.421-5.458-5.409v-18.84l14.455-15.164
			c2.072-2.171,5.526-2.269,7.718-0.218c2.19,2.051,2.288,5.473,0.222,7.642l-11.48,12.038v14.542
			C81.469,78.344,79.025,80.765,76.012,80.765z"/>
	</g>
</g>
<g>
</g>
<g>
</g>
<g>
</g>
<g>
</g>
<g>
</g>
<g>
</g>
<g>
</g>
<g>
</g>
<g>
</g>
<g>
</g>
<g>
</g>
<g>
</g>
<g>
</g>
<g>
</g>
<g>
</g>
</svg>
