<?xml version="1.0" encoding="iso-8859-1"?>
<!-- Generator: Adobe Illustrator 19.1.0, SVG Export Plug-In . SVG Version: 6.00 Build 0)  -->
<svg version="1.1" id="Capa_1" xmlns="http://www.w3.org/2000/svg" xmlns:xlink="http://www.w3.org/1999/xlink" x="0px" y="0px"
	 viewBox="0 0 218.332 218.332" style="enable-background:new 0 0 218.332 218.332;" xml:space="preserve">
<g>
	<g id="group-18svg">
		<path id="path-1_78_" style="fill:#0CB04A;" d="M210.37,204.105c4.397,0,7.962-2.237,7.962-4.998c0-2.759-3.565-4.997-7.962-4.997
			h-24.4c-4.397,0-7.961,2.238-7.961,4.997c0,2.761,3.564,4.998,7.961,4.998H210.37z"/>
		<path id="path-2_78_" style="fill:#0CB04A;" d="M103.13,175.174c0,2.617-2.142,4.739-4.783,4.739
			c-2.643,0-4.784-2.122-4.784-4.739c0-2.617,2.141-4.739,4.784-4.739C100.988,170.435,103.13,172.557,103.13,175.174z"/>
		<path id="path-3_78_" style="fill:#0CB04A;" d="M49.257,160.441h10.029c1.933,0,3.501,1.491,3.501,3.33
			c0,1.84-1.568,3.333-3.501,3.333h-0.467c-1.933,0-3.501,1.491-3.501,3.332c0,1.84,1.568,3.331,3.501,3.331h21.559
			c1.934,0,3.502,1.492,3.502,3.332s-1.568,3.331-3.502,3.331H54.47H25.994c-1.934,0-3.501-1.491-3.501-3.331
			s1.567-3.332,3.501-3.332h5.982c1.934,0,3.502-1.491,3.502-3.331c0-1.841-1.568-3.332-3.502-3.332H3.5
			c-1.933,0-3.5-1.493-3.5-3.333c0-1.839,1.567-3.33,3.5-3.33h6.731H49.257z"/>
		<path id="path-4_78_" style="fill:#FF3A2F;" d="M100.632,105.783c-27.683,27.424-64.726,35.192-82.737,17.351
			c-18.01-17.843-10.17-54.54,17.514-81.965s64.726-35.192,82.738-17.35C136.158,41.662,128.316,78.359,100.632,105.783z"/>
		<path id="path-5_78_" style="opacity:0.25;enable-background:new    ;" d="M118.147,23.819
			c-18.012-17.842-55.054-10.075-82.738,17.35s-35.524,64.122-17.514,81.965c0,0,30.473-2.972,45.285-46.107
			c0,0,7.37-47.435,47.675-45.592L118.147,23.819z"/>
		<path id="path-6_77_" style="fill:#FFFFFF;" d="M27.215,78.485c-0.543,0-1.096-0.121-1.617-0.378
			c-1.798-0.885-2.532-3.049-1.638-4.832c4.921-9.809,11.664-18.988,20.038-27.283c8.616-8.536,18.566-15.606,28.776-20.446
			c1.812-0.861,3.983-0.101,4.854,1.694c0.867,1.796,0.1,3.949-1.713,4.808c-9.474,4.493-18.731,11.077-26.771,19.041
			c-7.706,7.634-14.161,16.414-18.667,25.394C29.841,77.751,28.553,78.485,27.215,78.485z"/>
		<path id="path-7_77_" style="fill:#FBB713;" d="M177.174,170.553c-16.861,16.702-39.422,21.433-50.391,10.565
			c-10.97-10.866-6.194-33.216,10.666-49.919c16.861-16.703,39.422-21.434,50.391-10.568
			C198.811,131.498,194.035,153.849,177.174,170.553z"/>
		<path id="path-8_74_" style="opacity:0.25;enable-background:new    ;" d="M187.84,120.631
			c-10.969-10.866-33.53-6.135-50.391,10.568c-16.86,16.703-21.636,39.053-10.666,49.919c0,0,18.559-1.809,27.58-28.08
			c0,0,4.489-28.891,29.037-27.768L187.84,120.631z"/>
		<path id="path-9_71_" style="fill:#FF3A2F;" d="M185.094,45.954c10.951,10.848,14.053,25.365,6.928,32.423
			s-21.778,3.986-32.729-6.864c-10.951-10.849-14.053-25.365-6.928-32.423C159.49,32.033,174.143,35.104,185.094,45.954z"/>
		<path id="path-10_65_" style="opacity:0.25;enable-background:new    ;" d="M152.365,39.09
			c-7.125,7.058-4.023,21.574,6.928,32.423c10.951,10.85,25.604,13.922,32.729,6.864c0,0-1.186-11.942-18.41-17.746
			c0,0-18.942-2.888-18.206-18.684L152.365,39.09z"/>
	</g>
</g>
<g>
</g>
<g>
</g>
<g>
</g>
<g>
</g>
<g>
</g>
<g>
</g>
<g>
</g>
<g>
</g>
<g>
</g>
<g>
</g>
<g>
</g>
<g>
</g>
<g>
</g>
<g>
</g>
<g>
</g>
</svg>
