<?xml version="1.0" encoding="iso-8859-1"?>
<!-- Generator: Adobe Illustrator 19.1.0, SVG Export Plug-In . SVG Version: 6.00 Build 0)  -->
<svg version="1.1" id="Capa_1" xmlns="http://www.w3.org/2000/svg" xmlns:xlink="http://www.w3.org/1999/xlink" x="0px" y="0px"
	 viewBox="0 0 218.332 218.332" style="enable-background:new 0 0 218.332 218.332;" xml:space="preserve">
<g>
	<g id="group-62svg">
		<path id="path-1_127_" style="fill:#FF3A2F;" d="M137.178,67.38v-9.533c0-4.256-3.485-7.704-7.779-7.704h-8.974l-4.836-38.485
			h-6.422h-6.423l-4.837,38.485h-8.972c-4.295,0-7.779,3.448-7.779,7.704v9.533c-7.049,1.728-12.283,8.019-12.283,15.536v107.739
			c0,8.846,7.241,16.019,16.171,16.019h48.244c1.736,0,3.404-0.277,4.972-0.778c6.497-2.081,11.2-8.114,11.2-15.241V82.916
			C149.46,75.399,144.227,69.109,137.178,67.38z"/>
		<path id="path-2_127_" style="opacity:0.25;fill:#020403;enable-background:new    ;" d="M137.178,67.379v-9.532
			c0-4.257-3.485-7.704-7.779-7.704h-8.974l-4.836-38.485h-6.422h-6.423l-0.736,5.859l4.1,32.626h8.974
			c4.294,0,7.779,3.447,7.779,7.704v9.532c7.049,1.73,12.282,8.019,12.282,15.537v107.738c0,7.127-4.702,13.161-11.201,15.242
			c-1.566,0.501-3.234,0.778-4.97,0.778h14.316c1.736,0,3.404-0.277,4.972-0.778c6.497-2.081,11.2-8.115,11.2-15.242V82.916
			C149.46,75.398,144.227,69.109,137.178,67.379z"/>
		<path id="path-3_127_" style="fill:#FBB713;" d="M116.013,113.53h15.531c2.995,0,5.422,1.524,5.422,3.405
			c0,1.878-2.427,3.402-5.422,3.402h-0.723c-2.995,0-5.422,1.524-5.422,3.403c0,1.879,2.427,3.404,5.422,3.404h33.387
			c2.995,0,5.423,1.523,5.423,3.403s-2.428,3.403-5.423,3.403h-40.123h-44.1c-2.994,0-5.421-1.523-5.421-3.403
			s2.427-3.403,5.421-3.403h9.267c2.994,0,5.422-1.525,5.422-3.404c0-1.879-2.428-3.403-5.422-3.403h-44.1
			c-2.995,0-5.423-1.524-5.423-3.402c0-1.881,2.428-3.405,5.423-3.405h10.423H116.013z"/>
		<path id="path-4_126_" style="fill:#FBB713;" d="M24.56,81.437h5c0.965,0,1.746,0.837,1.746,1.87c0,1.034-0.781,1.871-1.746,1.871
			h-0.232c-0.964,0-1.746,0.836-1.746,1.868c0,1.033,0.782,1.87,1.746,1.87h10.749c0.964,0,1.746,0.836,1.746,1.869
			c0,1.034-0.782,1.87-1.746,1.87H27.159H12.961c-0.965,0-1.746-0.836-1.746-1.87c0-1.033,0.781-1.869,1.746-1.869h2.983
			c0.964,0,1.746-0.837,1.746-1.87c0-1.032-0.782-1.868-1.746-1.868H1.745C0.782,85.178,0,84.341,0,83.307
			c0-1.033,0.782-1.87,1.745-1.87h3.356H24.56z"/>
		<path id="path-5_126_" style="fill:#FBB713;" d="M212.142,136.895c3.419,0,6.19-1.739,6.19-3.886c0-2.146-2.771-3.886-6.19-3.886
			H193.17c-3.42,0-6.191,1.74-6.191,3.886c0,2.147,2.771,3.886,6.191,3.886H212.142z"/>
	</g>
</g>
<g>
</g>
<g>
</g>
<g>
</g>
<g>
</g>
<g>
</g>
<g>
</g>
<g>
</g>
<g>
</g>
<g>
</g>
<g>
</g>
<g>
</g>
<g>
</g>
<g>
</g>
<g>
</g>
<g>
</g>
</svg>
