<?xml version="1.0" encoding="iso-8859-1"?>
<!-- Generator: Adobe Illustrator 19.1.0, SVG Export Plug-In . SVG Version: 6.00 Build 0)  -->
<svg version="1.1" id="Capa_1" xmlns="http://www.w3.org/2000/svg" xmlns:xlink="http://www.w3.org/1999/xlink" x="0px" y="0px"
	 viewBox="0 0 217.228 217.228" style="enable-background:new 0 0 217.228 217.228;" xml:space="preserve">
<g>
	<g id="group-60svg">
		<path id="path-1_117_" style="fill:#FF3A2F;" d="M76.208,185.831H57.13c-3.679,0-6.662,1.589-6.662,3.549
			c0,1.959,2.983,3.548,6.662,3.548h0.888c3.678,0,6.66,1.587,6.66,3.548c0,1.959-2.982,3.547-6.66,3.547H17.005
			c-3.679,0-6.661,1.588-6.661,3.547c0,1.96,2.982,3.549,6.661,3.549h49.287h100.741c3.68,0,6.661-1.589,6.661-3.549
			c0-1.959-2.981-3.547-6.661-3.547h-11.382c-3.678,0-6.66-1.588-6.66-3.547c0-1.961,2.982-3.548,6.66-3.548h44.706
			c3.678,0,6.66-1.589,6.66-3.548c0-1.96-2.982-3.549-6.66-3.549h-3.337H76.208z"/>
		<path id="path-2_117_" style="fill:#FF3A2F;" d="M194.533,208.07c-3.084,0-5.585-1.703-5.585-3.803c0-2.1,2.501-3.801,5.585-3.801
			h17.111c3.084,0,5.584,1.701,5.584,3.801c0,2.1-2.5,3.803-5.584,3.803H194.533z"/>
		<path id="path-3_117_" style="fill:#FBB713;" d="M39.144,33.319h89.208V9.159H39.144V33.319z"/>
		<path id="path-4_117_" style="opacity:0.35;enable-background:new    ;" d="M113.787,9.159v24.16h14.565V9.159H113.787z"/>
		<path id="path-5_116_" style="fill:#FBB713;" d="M128.352,174.56H39.144V33.319h89.208V174.56z"/>
		<path id="path-6_113_" style="opacity:0.25;enable-background:new    ;" d="M41.816,33.319l61.947,4.324
			c7.286,0.509,12.936,6.566,12.936,13.871v88.49c0,6.214-5.037,11.252-11.251,11.252H39.144v11.652h89.208V33.319H41.816z"/>
		<path id="path-7_110_" style="fill:#142A3B;" d="M135.786,192.678H31.71v-30.663h104.076V192.678z"/>
		<path id="path-8_87_" style="fill:#142A3B;" d="M150.036,47.156h-22.729v12.599h8.201c4.107,0,7.435,2.507,7.435,5.6v50.394
			c0,3.093-3.328,5.6-7.435,5.6h-8.201v12.599h22.729c4.105,0,7.434-2.507,7.434-5.6V52.755
			C157.47,49.663,154.141,47.156,150.036,47.156z"/>
		<path id="path-9_75_" style="fill:#FBB713;" d="M41.816,33.319H0c0,0,9.292,30.665,40.886,53.894L41.816,33.319z"/>
		<path id="path-10_69_" style="opacity:0.35;enable-background:new    ;" d="M32.825,33.319l-0.678,39.329
			C19.962,63.69,11.105,53.628,4.808,44.642c5.563,11.043,16.562,28.222,36.078,42.571l0.93-53.894H32.825z"/>
		<path id="path-11_59_" style="fill:#EDEDED;" d="M83.748,142.967L83.748,142.967c-4.363,0-7.899-3.536-7.899-7.899V72.811
			c0-4.363,3.536-7.898,7.899-7.898l0,0c4.362,0,7.899,3.535,7.899,7.898v62.257C91.647,139.431,88.11,142.967,83.748,142.967z"/>
		<path id="path-12_51_" style="opacity:0.35;enable-background:new    ;" d="M83.874,64.913h-0.251
			c-0.457,0-0.897,0.058-1.332,0.134c3.656,0.635,6.442,3.802,6.442,7.638v62.508c0,3.838-2.786,7.005-6.442,7.639
			c0.435,0.076,0.875,0.134,1.332,0.134h0.251c4.292,0,7.773-3.48,7.773-7.773V72.685C91.647,68.392,88.166,64.913,83.874,64.913z"
			/>
		<path id="path-13_40_" style="fill:#FF3A2F;" d="M83.696,138.307c-1,0-1.811-0.81-1.811-1.81V74.96c0-1,0.811-1.811,1.811-1.811
			c1.001,0,1.81,0.811,1.81,1.811v61.537C85.506,137.497,84.697,138.307,83.696,138.307z"/>
		<path id="path-14_33_" style="fill:#EDEDED;" d="M49.234,140.729c-1.999,0-3.62-1.621-3.62-3.62v-31.382
			c0-1.999,1.621-3.62,3.62-3.62s3.621,1.621,3.621,3.62v31.382C52.855,139.107,51.233,140.729,49.234,140.729z"/>
	</g>
</g>
<g>
</g>
<g>
</g>
<g>
</g>
<g>
</g>
<g>
</g>
<g>
</g>
<g>
</g>
<g>
</g>
<g>
</g>
<g>
</g>
<g>
</g>
<g>
</g>
<g>
</g>
<g>
</g>
<g>
</g>
</svg>
