<?xml version="1.0" encoding="iso-8859-1"?>
<!-- Generator: Adobe Illustrator 19.1.0, SVG Export Plug-In . SVG Version: 6.00 Build 0)  -->
<svg version="1.1" id="Capa_1" xmlns="http://www.w3.org/2000/svg" xmlns:xlink="http://www.w3.org/1999/xlink" x="0px" y="0px"
	 viewBox="0 0 218.333 218.333" style="enable-background:new 0 0 218.333 218.333;" xml:space="preserve">
<g>
	<g id="group-8svg">
		<path id="path-1_146_" style="fill:#FBB713;" d="M194.687,211.306c4.387,0,7.943-2.232,7.943-4.985
			c0-2.754-3.556-4.986-7.943-4.986h-24.344c-4.386,0-7.944,2.232-7.944,4.986c0,2.753,3.558,4.985,7.944,4.985H194.687z"/>
		<path id="path-2_146_" style="fill:#FBB713;" d="M74.509,181.639h15.17c2.925,0,5.295,1.488,5.295,3.325
			c0,1.835-2.37,3.323-5.295,3.323h-0.707c-2.925,0-5.296,1.488-5.296,3.325c0,1.836,2.371,3.324,5.296,3.324h32.612
			c2.924,0,5.295,1.488,5.295,3.324s-2.371,3.324-5.295,3.324H82.393H39.319c-2.925,0-5.296-1.488-5.296-3.324
			s2.371-3.324,5.296-3.324h9.051c2.925,0,5.296-1.488,5.296-3.324c0-1.837-2.371-3.325-5.296-3.325H5.296
			c-2.925,0-5.296-1.488-5.296-3.323c0-1.837,2.371-3.325,5.296-3.325h10.181H74.509z"/>
		<path id="path-3_146_" style="fill:#0CB04A;" d="M105.979,14.456c29.571-9.624,60.1-10.163,91.755,0l-12.171,38.918l32.77,105.7
			c0,15-133.887,15-133.887,0l33.705-107.028L105.979,14.456z"/>
		<path id="path-4_145_" style="opacity:0.25;fill:#020403;enable-background:new    ;" d="M185.563,53.422l12.171-38.997
			c-5.301-1.701-10.567-3.076-15.806-4.186l-11.213,37.098l32.771,107.048c0,11.665-84.148,11.303-119.004,4.467l-0.036,0.122
			c0,14.709,133.887,14.935,133.887,0.226L185.563,53.422z"/>
		<path id="path-5_145_" style="opacity:0.35;enable-background:new    ;" d="M182.018,56.531c-0.26,0-0.521-0.029-0.789-0.087
			c-6.702-1.465-18.456-2.231-26.233-2.738l-3.236-0.214c-2.005-0.139-3.518-1.859-3.38-3.846c0.142-1.986,1.876-3.49,3.884-3.347
			l3.208,0.213c8,0.522,20.086,1.309,27.328,2.893c1.962,0.429,3.202,2.353,2.769,4.297
			C185.192,55.384,183.689,56.531,182.018,56.531z"/>
		<path id="path-6_143_" style="opacity:0.35;enable-background:new    ;" d="M121.203,56.531c-1.638,0-3.128-1.106-3.533-2.754
			c-0.476-1.936,0.725-3.885,2.675-4.354c10.541-2.539,16.774-2.84,21.322-3.058l1.373-0.069c1.976-0.11,3.72,1.416,3.829,3.405
			c0.108,1.988-1.431,3.687-3.439,3.794l-1.41,0.07c-4.492,0.217-10.086,0.487-19.954,2.862
			C121.777,56.497,121.486,56.531,121.203,56.531z"/>
		<path id="path-7_143_" style="opacity:0.45;fill:#020403;enable-background:new    ;" d="M152.011,43.649v21.602
			c0,2.153,0.991,3.899,3.712,3.899s3.712-1.746,3.712-3.899V42.473c0-2.153,3.712-3.897,7.424-3.897V7.836
			c-12.546-1.337-24.915-1.005-37.119,0.896v9.381v21.603c0,2.153,2.845,3.898,5.568,3.898c2.72,0,5.568-1.745,5.568-3.898V16.938
			c0-2.154,2.846-3.898,5.568-3.898c2.72,0,5.567,1.744,5.567,3.898v9.567V43.649z"/>
		<path id="path-8_140_" style="fill:#FBB713;" d="M152.011,42.473c0-2.153,3.712-3.897,7.424-3.897V7.244
			c-12.544-0.684-24.915,0.281-37.121,2.826v8.043v21.603c0,2.153,2.848,3.898,5.57,3.898c2.721,0,5.566-1.745,5.566-3.898V16.938
			c0-2.154,2.848-3.898,5.569-3.898c2.722,0,5.568,1.744,5.568,3.898v9.567v17.144v21.602c0,2.153,0.991,3.899,3.712,3.899
			c2.721,0,3.712-1.746,3.712-3.899V42.473z"/>
		<path id="path-9_134_" style="fill:#FFFFFF;" d="M106.85,137.928c-0.374,0-0.75-0.057-1.123-0.177
			c-1.913-0.615-2.96-2.648-2.339-4.542l20.032-61.108c0.622-1.894,2.675-2.932,4.584-2.315c1.911,0.616,2.96,2.648,2.338,4.542
			l-20.031,61.108C109.81,136.96,108.385,137.928,106.85,137.928z"/>
		<path id="path-10_122_" style="fill:#FF3A2F;" d="M80.758,61.589L26.779,43.073c-3.184-1.091-6.977,1.886-8.377,6.576l0,0
			c-1.402,4.69,0.145,9.233,3.416,10.033l55.458,13.563L80.758,61.589z"/>
		<path id="path-11_107_" style="opacity:0.35;enable-background:new    ;" d="M65.169,70.193l0.639,0.217l11.468,2.804
			l3.482-11.656l-5.763-1.977L65.169,70.193z"/>
		<path id="path-12_91_" style="fill:#0CB04A;" d="M113.354,70.841L84.435,59.074c-2.562-1.042-5.715,1.341-6.864,5.188
			l-2.162,7.241c-1.125,3.766,0.131,7.409,2.764,8.022l30.471,7.087L113.354,70.841z"/>
		<path id="path-13_78_" style="opacity:0.35;fill:#020403;enable-background:new    ;" d="M108.644,86.581l4.71-15.771
			l-6.453-2.625L98.55,84.232L108.644,86.581z"/>
	</g>
</g>
<g>
</g>
<g>
</g>
<g>
</g>
<g>
</g>
<g>
</g>
<g>
</g>
<g>
</g>
<g>
</g>
<g>
</g>
<g>
</g>
<g>
</g>
<g>
</g>
<g>
</g>
<g>
</g>
<g>
</g>
</svg>
