<?xml version="1.0" encoding="iso-8859-1"?>
<!-- Generator: Adobe Illustrator 19.1.0, SVG Export Plug-In . SVG Version: 6.00 Build 0)  -->
<svg version="1.1" id="Capa_1" xmlns="http://www.w3.org/2000/svg" xmlns:xlink="http://www.w3.org/1999/xlink" x="0px" y="0px"
	 viewBox="0 0 218.333 218.333" style="enable-background:new 0 0 218.333 218.333;" xml:space="preserve">
<g>
	<g id="group-103svg">
		<path id="path-1_5_" style="fill:#FBB713;" d="M171.692,145.539h13.511c2.604,0,4.716,2.163,4.716,4.829
			c0,2.668-2.112,4.83-4.716,4.83h-0.629c-2.606,0-4.718,2.162-4.718,4.83c0,2.667,2.112,4.831,4.718,4.831h29.042
			c2.605,0,4.717,2.161,4.717,4.827c0,2.668-2.112,4.831-4.717,4.831h-34.903h-71.338c-2.604,0-4.717-2.163-4.717-4.831
			c0-2.666,2.113-4.827,4.717-4.827h8.061c2.604,0,4.716-2.164,4.716-4.831c0-2.668-2.112-4.83-4.716-4.83H77.075
			c-2.605,0-4.717-2.162-4.717-4.83c0-2.666,2.112-4.829,4.717-4.829h9.066H171.692z"/>
		<path id="path-2_5_" style="fill:#FBB713;" d="M55.416,174.95c3.222,0,5.836-1.112,5.836-2.484c0-1.371-2.614-2.484-5.836-2.484
			H37.531c-3.222,0-5.835,1.113-5.835,2.484c0,1.372,2.613,2.484,5.835,2.484H55.416z"/>
		<path id="path-3_5_" style="fill:#FBB713;" d="M191.997,97.225h5.313c1.026,0,1.856,1.075,1.856,2.402
			c0,1.327-0.83,2.402-1.856,2.402h-0.246c-1.026,0-1.856,1.075-1.856,2.401c0,1.328,0.83,2.403,1.856,2.403h11.423
			c1.024,0,1.854,1.074,1.854,2.401c0,1.327-0.83,2.402-1.854,2.402h-13.728H166.7c-1.025,0-1.855-1.075-1.855-2.402
			c0-1.327,0.83-2.401,1.855-2.401h3.17c1.025,0,1.855-1.075,1.855-2.403c0-1.326-0.83-2.401-1.855-2.401h-15.088
			c-1.024,0-1.855-1.075-1.855-2.402c0-1.327,0.831-2.402,1.855-2.402h3.566H191.997z"/>
		<path id="path-4_5_" style="fill:#FBB713;" d="M30.467,43.382h4.144c0.797,0,1.445,0.839,1.445,1.873
			c0,1.035-0.648,1.874-1.445,1.874h-0.194c-0.798,0-1.447,0.839-1.447,1.873s0.649,1.873,1.447,1.873h8.908
			c0.799,0,1.446,0.838,1.446,1.872s-0.647,1.873-1.446,1.873H32.619H10.74c-0.799,0-1.446-0.839-1.446-1.873
			s0.647-1.872,1.446-1.872h2.472c0.799,0,1.447-0.839,1.447-1.873s-0.648-1.873-1.447-1.873H1.446C0.648,47.129,0,46.29,0,45.255
			c0-1.034,0.648-1.873,1.446-1.873h2.782H30.467z"/>
		<path id="path-5_5_" style="fill:#FF3A2F;" d="M194.497,31.778c-19.652-19.47-51.624-19.471-71.276-0.003
			c-17.72,17.554-19.309,44.941-5.078,64.443l-49.848,49.38l-9.34-9.252l-11.306,11.198l9.341,9.254l-12.254,12.138l-24.334-24.105
			L9.098,156.03l24.333,24.107l-9.915,9.823l11.305,11.199l94.627-93.742c19.684,14.098,47.329,12.523,65.05-5.033
			C214.149,82.916,214.147,51.244,194.497,31.778z M139.783,85.977c-10.627-10.528-10.628-27.598,0-38.127
			c10.629-10.528,27.859-10.528,38.487,0c10.628,10.529,10.628,27.599,0,38.127C167.642,96.506,150.412,96.506,139.783,85.977z"/>
		<path id="path-6_5_" style="opacity:0.35;fill:#020403;enable-background:new    ;" d="M137.283,82.946
			c-7.941-10.557-7.175-25.51,2.5-35.096c9.676-9.585,24.769-10.343,35.426-2.477c-0.782-1.04-1.548-2.088-2.5-3.033
			c-10.628-10.527-27.859-10.527-38.487,0c-10.628,10.529-10.628,27.599,0,38.128C135.175,81.411,136.234,82.17,137.283,82.946z"/>
		<path id="path-7_5_" style="opacity:0.35;fill:#020403;enable-background:new    ;" d="M57.853,155.863l-9.339-9.252l2.573-2.55
			l9.339,9.255L57.853,155.863z"/>
		<path id="path-8_5_" style="opacity:0.35;fill:#020403;enable-background:new    ;" d="M41.944,172.599l-24.833-24.5l2.484-2.632
			l0.832,0.724l24.089,23.86L41.944,172.599z"/>
		<path id="path-9_4_" style="opacity:0.35;fill:#020403;enable-background:new    ;" d="M194.497,31.777
			c-0.939-0.93-1.93-1.775-2.922-2.616c16.926,19.594,16.074,49.176-2.639,67.715c-17.72,17.554-45.365,19.13-65.049,5.032
			L29.26,195.649l5.561,5.51l94.627-93.742c19.684,14.098,47.329,12.523,65.05-5.033C214.149,82.916,214.147,51.244,194.497,31.777z
			"/>
	</g>
</g>
<g>
</g>
<g>
</g>
<g>
</g>
<g>
</g>
<g>
</g>
<g>
</g>
<g>
</g>
<g>
</g>
<g>
</g>
<g>
</g>
<g>
</g>
<g>
</g>
<g>
</g>
<g>
</g>
<g>
</g>
</svg>
