<?xml version="1.0" encoding="iso-8859-1"?>
<!-- Generator: Adobe Illustrator 19.1.0, SVG Export Plug-In . SVG Version: 6.00 Build 0)  -->
<svg version="1.1" id="Capa_1" xmlns="http://www.w3.org/2000/svg" xmlns:xlink="http://www.w3.org/1999/xlink" x="0px" y="0px"
	 viewBox="0 0 218.333 218.333" style="enable-background:new 0 0 218.333 218.333;" xml:space="preserve">
<g>
	<g id="group-160svg">
		<path id="path-1_68_" style="fill:#FF3A2F;" d="M58.536,190.933H38.419c-3.88,0-7.024,1.783-7.024,3.983
			c0,2.202,3.144,3.985,7.024,3.985h0.936c3.879,0,7.023,1.784,7.023,3.984c0,2.201-3.144,3.985-7.023,3.985H7.024
			c-3.879,0-7.024,1.783-7.024,3.983c0,2.201,3.145,3.985,7.024,3.985H48.08h106.231c3.879,0,7.023-1.784,7.023-3.985
			c0-2.2-3.144-3.983-7.023-3.983h-12.003c-3.879,0-7.023-1.784-7.023-3.985c0-2.2,3.144-3.984,7.023-3.984h47.141
			c3.879,0,7.023-1.783,7.023-3.985c0-2.2-3.144-3.983-7.023-3.983h-3.518H58.536z"/>
		<path id="path-2_68_" style="fill:#FF3A2F;" d="M194.4,215.904c-3.252,0-5.888-1.911-5.888-4.27c0-2.357,2.636-4.269,5.888-4.269
			h18.044c3.252,0,5.889,1.912,5.889,4.269c0,2.359-2.637,4.27-5.889,4.27H194.4z"/>
		<path id="path-3_68_" style="fill:#2476FF;" d="M210.505,99.759c0,53.754-43.988,97.332-98.25,97.332
			s-98.249-43.578-98.249-97.332c0-53.755,43.987-97.329,98.249-97.329S210.505,46.004,210.505,99.759z"/>
		<path id="path-4_68_" style="fill:#FFFFFF;" d="M36.635,93.562c-3.015,0-5.458-2.419-5.458-5.405
			c0-39.881,32.75-72.326,73.005-72.326c3.015,0,5.458,2.421,5.458,5.409c0,2.986-2.443,5.407-5.458,5.407
			c-34.235,0-62.088,27.593-62.088,61.51C42.094,91.144,39.651,93.562,36.635,93.562z"/>
		<path id="path-5_68_" style="opacity:0.2;fill:#020403;enable-background:new    ;" d="M148.293,9.215
			c20.295,17.831,33.101,43.842,33.101,72.829c0,53.755-43.988,97.332-98.25,97.332c-12.727,0-24.876-2.424-36.037-6.787
			c17.341,15.234,40.146,24.502,65.148,24.502c54.262,0,98.25-43.578,98.25-97.332C210.505,58.613,184.719,23.457,148.293,9.215z"/>
		<path id="path-6_67_" style="fill:#142A3B;" d="M137.727,78.13c0-13.936-11.404-25.234-25.472-25.234S86.783,64.194,86.783,78.13
			c0,10.211,6.133,18.984,14.939,22.955l-7.661,45.537h36.389l-7.662-45.537C131.594,97.114,137.727,88.34,137.727,78.13z"/>
		<path id="path-7_67_" style="opacity:0.3;fill:#020403;enable-background:new    ;" d="M137.727,78.13
			c0-13.937-11.404-25.233-25.472-25.233c-1.876,0-3.698,0.214-5.458,0.594c11.442,2.478,20.013,12.561,20.013,24.639
			c0,10.21-6.133,18.984-14.938,22.955l7.661,45.537h10.917l-7.662-45.537C131.594,97.114,137.727,88.34,137.727,78.13z"/>
	</g>
</g>
<g>
</g>
<g>
</g>
<g>
</g>
<g>
</g>
<g>
</g>
<g>
</g>
<g>
</g>
<g>
</g>
<g>
</g>
<g>
</g>
<g>
</g>
<g>
</g>
<g>
</g>
<g>
</g>
<g>
</g>
</svg>
