<?xml version="1.0" encoding="iso-8859-1"?>
<!-- Generator: Adobe Illustrator 19.1.0, SVG Export Plug-In . SVG Version: 6.00 Build 0)  -->
<svg version="1.1" id="Capa_1" xmlns="http://www.w3.org/2000/svg" xmlns:xlink="http://www.w3.org/1999/xlink" x="0px" y="0px"
	 viewBox="0 0 217.22 217.22" style="enable-background:new 0 0 217.22 217.22;" xml:space="preserve">
<g>
	<g id="group-68svg">
		<path id="path-1_125_" style="fill:#FF3A2F;" d="M119.773,214.945h15.528c2.994,0,5.421-1.665,5.421-3.717
			s-2.427-3.717-5.421-3.717h-0.723c-2.994,0-5.421-1.663-5.421-3.716c0-2.053,2.427-3.717,5.421-3.717h33.381
			c2.993,0,5.42-1.663,5.42-3.715c0-2.053-2.427-3.717-5.42-3.717h-40.115H45.851c-2.994,0-5.421,1.664-5.421,3.717
			c0,2.052,2.427,3.715,5.421,3.715h9.263c2.995,0,5.421,1.664,5.421,3.717c0,2.053-2.426,3.716-5.421,3.716H11.025
			c-2.994,0-5.421,1.665-5.421,3.717s2.427,3.717,5.421,3.717h10.42H119.773z"/>
		<path id="path-2_125_" style="fill:#FF3A2F;" d="M185.191,208.699c3.508,0,6.352,1.908,6.352,4.261c0,2.353-2.844,4.26-6.352,4.26
			H165.73c-3.507,0-6.351-1.907-6.351-4.26c0-2.353,2.844-4.261,6.351-4.261H185.191z"/>
		<path id="path-3_125_" style="fill:#FBB713;" d="M170.327,201.274c22.804,0,41.289-18.484,41.289-41.287H129.04
			C129.04,182.79,147.525,201.274,170.327,201.274z"/>
		<path id="path-4_125_" style="opacity:0.35;enable-background:new    ;" d="M196.978,159.987c0,20.3-14.663,37.141-33.969,40.601
			c2.38,0.426,4.817,0.686,7.319,0.686c22.803,0,41.289-18.485,41.289-41.287H196.978z"/>
		<path id="path-5_124_" style="fill:#142A3B;" d="M139.361,162.051H129.04V7.224h10.322V162.051z"/>
		<path id="path-6_121_" style="fill:#142A3B;" d="M119.201,20.656l-0.102-0.101c-2.592-2.591-2.592-6.794,0-9.387l8.861-8.86
			c2.591-2.591,6.794-2.591,9.386,0l0.102,0.103c2.592,2.591,2.592,6.793,0,9.386l-8.86,8.859
			C125.996,23.249,121.793,23.249,119.201,20.656z"/>
		<path id="path-7_118_" style="fill:#142A3B;" d="M76.683,118.563H64.132V73.009h12.551V118.563z"/>
		<path id="path-8_95_" style="fill:#142A3B;" d="M61.641,114.942v74.469c0,4.842,3.925,8.766,8.766,8.766
			c4.842,0,8.766-3.924,8.766-8.766v-74.469H61.641z"/>
		<path id="path-9_82_" style="fill:#FBB713;" d="M43.653,0v38.115c0,25.901,10.227,46.899,22.841,46.899h7.826
			c12.615,0,22.841-20.998,22.841-46.899V0H43.653z"/>
		<path id="path-10_75_" style="opacity:0.35;enable-background:new    ;" d="M89.84,0v34.456c0,25.9-10.226,46.898-22.84,46.898
			h-7.827c-0.582,0-1.153-0.09-1.725-0.179c2.775,2.461,5.831,3.839,9.045,3.839h7.826c12.615,0,22.841-20.998,22.841-46.899V0
			H89.84z"/>
		<path id="path-11_64_" style="fill:#EDEDED;" d="M54.497,49.307c-2.001,0-3.621-1.621-3.621-3.62V11.483
			c0-2.001,1.62-3.622,3.621-3.622s3.62,1.621,3.62,3.622v34.204C58.117,47.686,56.498,49.307,54.497,49.307z"/>
	</g>
</g>
<g>
</g>
<g>
</g>
<g>
</g>
<g>
</g>
<g>
</g>
<g>
</g>
<g>
</g>
<g>
</g>
<g>
</g>
<g>
</g>
<g>
</g>
<g>
</g>
<g>
</g>
<g>
</g>
<g>
</g>
</svg>
