<?xml version="1.0" encoding="iso-8859-1"?>
<!-- Generator: Adobe Illustrator 19.1.0, SVG Export Plug-In . SVG Version: 6.00 Build 0)  -->
<svg version="1.1" id="Capa_1" xmlns="http://www.w3.org/2000/svg" xmlns:xlink="http://www.w3.org/1999/xlink" x="0px" y="0px"
	 viewBox="0 0 218.332 218.332" style="enable-background:new 0 0 218.332 218.332;" xml:space="preserve">
<g>
	<g id="group-120svg">
		<path id="path-1_24_" style="fill:#142A3B;" d="M182.952,168.438c3.257,0,5.895-1.175,5.895-2.623s-2.638-2.623-5.895-2.623
			h-18.066c-3.256,0-5.895,1.175-5.895,2.623s2.639,2.623,5.895,2.623H182.952z"/>
		<path id="path-2_24_" style="fill:#142A3B;" d="M69.484,163.824h6.791c1.31,0,2.372,0.583,2.372,1.302
			c0,0.721-1.062,1.304-2.372,1.304H75.96c-1.31,0-2.372,0.583-2.372,1.302c0,0.72,1.062,1.304,2.372,1.304h14.598
			c1.31,0,2.371,0.584,2.371,1.302c0,0.72-1.061,1.302-2.371,1.302H73.013h-35.86c-1.309,0-2.371-0.582-2.371-1.302
			c0-0.718,1.062-1.302,2.371-1.302h4.053c1.308,0,2.37-0.584,2.37-1.304c0-0.719-1.062-1.302-2.37-1.302H21.922
			c-1.31,0-2.372-0.583-2.372-1.304c0-0.719,1.062-1.302,2.372-1.302h4.557H69.484z"/>
		<path id="path-3_24_" style="fill:#142A3B;" d="M17.979,173.05c2.443,0,4.422-0.482,4.422-1.078c0-0.596-1.979-1.078-4.422-1.078
			H4.423c-2.443,0-4.423,0.482-4.423,1.078c0,0.596,1.98,1.078,4.423,1.078H17.979z"/>
		<path id="path-4_24_" style="fill:#142A3B;" d="M211.848,213.506c3.582,0,6.484-1.293,6.484-2.885
			c0-1.593-2.902-2.884-6.484-2.884h-19.869c-3.581,0-6.484,1.291-6.484,2.884c0,1.592,2.903,2.885,6.484,2.885H211.848z"/>
		<path id="path-5_24_" style="fill:#142A3B;" d="M77.758,191.586H57.74c-3.859,0-6.988,1.775-6.988,3.964
			c0,2.19,3.129,3.964,6.988,3.964h0.932c3.859,0,6.988,1.775,6.988,3.964c0,2.19-3.129,3.965-6.988,3.965H15.639
			c-3.86,0-6.989,1.775-6.989,3.964c0,2.19,3.129,3.964,6.989,3.964h51.714h105.705c3.86,0,6.989-1.774,6.989-3.964
			c0-2.189-3.129-3.964-6.989-3.964h-11.943c-3.859,0-6.988-1.775-6.988-3.965c0-2.189,3.129-3.964,6.988-3.964h46.907
			c3.859,0,6.989-1.774,6.989-3.964c0-2.189-3.13-3.964-6.989-3.964h-3.5H77.758z"/>
		<path id="path-6_24_" style="fill:#FBB713;" d="M186.648,138.022H33.517L72.449,2.961h75.268L186.648,138.022z"/>
		<path id="path-7_24_" style="opacity:0.25;fill:#020403;enable-background:new    ;" d="M147.717,2.961h-8.278l36.984,128.308
			H35.464l-1.947,6.753h153.131L147.717,2.961z"/>
		<path id="path-8_24_" style="fill:#FF3A2F;" d="M116.899,205.553h-13.632v-67.531h13.632V205.553z"/>
		<path id="path-9_22_" style="opacity:0.35;enable-background:new    ;" d="M116.899,154.904h-13.632v-16.882h13.632V154.904z"/>
		<path id="path-10_20_" style="fill:#FF3A2F;" d="M75.998,205.553v-6.752h68.168v6.752H75.998z"/>
		<path id="path-11_17_" style="fill:#FFFFFF;" d="M62.083,99.421c-0.338,0-0.678-0.047-1.019-0.146
			c-1.93-0.559-3.039-2.56-2.473-4.472l20.45-69.283c0.565-1.909,2.58-3.009,4.514-2.446c1.929,0.557,3.038,2.558,2.472,4.47
			l-20.45,69.283C65.111,98.4,63.661,99.421,62.083,99.421z"/>
	</g>
</g>
<g>
</g>
<g>
</g>
<g>
</g>
<g>
</g>
<g>
</g>
<g>
</g>
<g>
</g>
<g>
</g>
<g>
</g>
<g>
</g>
<g>
</g>
<g>
</g>
<g>
</g>
<g>
</g>
<g>
</g>
</svg>
