<?xml version="1.0" encoding="iso-8859-1"?>
<!-- Generator: Adobe Illustrator 19.1.0, SVG Export Plug-In . SVG Version: 6.00 Build 0)  -->
<svg version="1.1" id="Capa_1" xmlns="http://www.w3.org/2000/svg" xmlns:xlink="http://www.w3.org/1999/xlink" x="0px" y="0px"
	 viewBox="0 0 217.228 217.228" style="enable-background:new 0 0 217.228 217.228;" xml:space="preserve">
<g>
	<g id="group-96svg">
		<path id="path-1_156_" style="fill:#142A3B;" d="M109.619,154.833H95.061c-2.807,0-5.083,1.723-5.083,3.847
			c0,2.124,2.276,3.847,5.083,3.847h0.677c2.807,0,5.083,1.722,5.083,3.847s-2.276,3.846-5.083,3.846H64.442
			c-2.807,0-5.082,1.723-5.082,3.846c0,2.125,2.275,3.847,5.082,3.847h37.611h76.873c2.807,0,5.083-1.722,5.083-3.847
			c0-2.123-2.276-3.846-5.083-3.846h-8.686c-2.807,0-5.082-1.721-5.082-3.846s2.275-3.847,5.082-3.847h34.114
			c2.807,0,5.082-1.723,5.082-3.847c0-2.124-2.275-3.847-5.082-3.847h-2.547H109.619z"/>
		<path id="path-2_156_" style="fill:#142A3B;" d="M199.909,178.943c-2.353,0-4.26-1.845-4.26-4.121c0-2.278,1.907-4.124,4.26-4.124
			h13.059c2.352,0,4.26,1.846,4.26,4.124c0,2.276-1.908,4.121-4.26,4.121H199.909z"/>
		<path id="path-3_156_" style="fill:#142A3B;" d="M7.202,146.681V49.9c0-6.416,4.839-11.614,10.804-11.614h129.643
			c5.965,0,10.803,5.198,10.803,11.614v96.781l0,0"/>
		<path id="path-4_156_" style="fill:#EDEDED;" d="M144.048,124.711H82.827h-61.22V52.689h122.441V124.711z"/>
		<path id="path-5_155_" style="opacity:0.35;enable-background:new    ;" d="M26.784,57.866h117.264v-5.177H21.607v72.022h5.177
			V57.866z"/>
		<path id="path-6_152_" style="opacity:0.35;enable-background:new    ;" d="M158.452,136.528H98.245v7.202H62.233v-7.202H7.203
			v10.153h151.249V136.528z"/>
		<path id="path-7_148_" style="fill:#FBB713;" d="M100.833,139.116v7.201H64.821v-7.201H0v14.404c0,3.978,3.228,7.202,7.202,7.202
			h151.25c3.981,0,7.203-3.224,7.203-7.202v-14.404H100.833z"/>
		<path id="path-8_124_" style="opacity:0.35;enable-background:new    ;" d="M160.478,139.116v9.228
			c0,3.976-3.221,7.202-7.202,7.202H2.026c-0.617,0-1.206-0.102-1.778-0.249c0.796,3.113,3.597,5.425,6.955,5.425h151.249
			c3.982,0,7.203-3.224,7.203-7.201v-14.405H160.478z"/>
	</g>
</g>
<g>
</g>
<g>
</g>
<g>
</g>
<g>
</g>
<g>
</g>
<g>
</g>
<g>
</g>
<g>
</g>
<g>
</g>
<g>
</g>
<g>
</g>
<g>
</g>
<g>
</g>
<g>
</g>
<g>
</g>
</svg>
