<?xml version="1.0" encoding="iso-8859-1"?>
<!-- Generator: Adobe Illustrator 19.1.0, SVG Export Plug-In . SVG Version: 6.00 Build 0)  -->
<svg version="1.1" id="Capa_1" xmlns="http://www.w3.org/2000/svg" xmlns:xlink="http://www.w3.org/1999/xlink" x="0px" y="0px"
	 viewBox="0 0 217.229 217.229" style="enable-background:new 0 0 217.229 217.229;" xml:space="preserve">
<g>
	<g id="group-160svg">
		<path id="path-1_68_" style="fill:#FBB713;" d="M134.241,149.342h4.353c0.84,0,1.521,0.512,1.521,1.144
			c0,0.632-0.681,1.145-1.521,1.145h-0.202c-0.84,0-1.52,0.513-1.52,1.145c0,0.631,0.68,1.144,1.52,1.144h9.359
			c0.84,0,1.52,0.512,1.52,1.144c0,0.633-0.68,1.144-1.52,1.144h-11.247h-22.99c-0.839,0-1.52-0.511-1.52-1.144
			c0-0.632,0.681-1.144,1.52-1.144h2.598c0.839,0,1.519-0.513,1.519-1.144c0-0.632-0.68-1.145-1.519-1.145h-12.363
			c-0.839,0-1.52-0.513-1.52-1.145c0-0.632,0.681-1.144,1.52-1.144h2.921H134.241z"/>
		<path id="path-2_68_" style="fill:#FBB713;" d="M46.046,167.415H32.708c-2.571,0-4.656,1.519-4.656,3.394s2.085,3.394,4.656,3.394
			h0.621c2.572,0,4.656,1.52,4.656,3.395c0,1.874-2.084,3.394-4.656,3.394H4.656c-2.571,0-4.656,1.52-4.656,3.394
			c0,1.875,2.085,3.395,4.656,3.395h34.458h70.43c2.572,0,4.657-1.52,4.657-3.395c0-1.874-2.085-3.394-4.657-3.394h-7.958
			c-2.571,0-4.656-1.52-4.656-3.394c0-1.875,2.085-3.395,4.656-3.395h31.254c2.572,0,4.657-1.519,4.657-3.394
			s-2.085-3.394-4.657-3.394h-2.332H46.046z"/>
		<path id="path-3_68_" style="fill:#FBB713;" d="M128.036,188.086c-1.811,0-3.28-1.076-3.28-2.401c0-1.327,1.469-2.401,3.28-2.401
			h10.052c1.812,0,3.281,1.074,3.281,2.401c0,1.325-1.469,2.401-3.281,2.401H128.036z"/>
		<path id="path-4_68_" style="fill:#0CB04A;" d="M93.495,77.713c-20.808,20.89,0,75.651,0,75.651s54.546,20.891,75.354,0
			c20.809-20.89,48.38-124.221,48.38-124.221S114.303,56.822,93.495,77.713z"/>
		<path id="path-5_67_" style="fill:#EDEDED;" d="M98.661,125.217c-1.7,0-3.218-1.203-3.55-2.934
			c-2.81-14.505-3.925-34.042,6.732-44.737c1.411-1.414,3.702-1.421,5.12-0.011c1.413,1.41,1.42,3.704,0.006,5.12
			c-8.41,8.448-7.226,25.466-4.751,38.254c0.382,1.962-0.902,3.863-2.864,4.242C99.12,125.196,98.887,125.217,98.661,125.217z"/>
		<path id="path-6_64_" style="opacity:0.35;fill:#090908;enable-background:new    ;" d="M200.481,33.894
			c-9.122,31.044-27.731,89.39-42.801,104.52c-16.156,16.219-64.185,14.95-64.185,14.95s54.546,20.891,75.354,0
			c20.809-20.891,48.38-124.221,48.38-124.221S210.642,30.915,200.481,33.894z"/>
		<path id="path-7_63_" style="fill:#142A3B;" d="M61.682,180.585c-5.074,0-10.239-1.251-15.444-3.751
			c-1.803-0.865-2.563-3.029-1.697-4.83c0.863-1.802,3.019-2.565,4.83-1.697c7.014,3.369,13.849,3.921,20.315,1.642
			c14.362-5.068,22.649-22.172,22.735-22.344l0.261-0.464c29.876-44.415,65.36-80.033,105.475-105.863
			c1.679-1.082,3.921-0.596,5.002,1.083c1.082,1.682,0.598,3.922-1.085,5.005c-39.217,25.254-73.951,60.114-103.243,103.61
			c-1.217,2.449-10.43,20.048-26.737,25.8C68.679,179.982,65.203,180.585,61.682,180.585z"/>
	</g>
</g>
<g>
</g>
<g>
</g>
<g>
</g>
<g>
</g>
<g>
</g>
<g>
</g>
<g>
</g>
<g>
</g>
<g>
</g>
<g>
</g>
<g>
</g>
<g>
</g>
<g>
</g>
<g>
</g>
<g>
</g>
</svg>
