<?xml version="1.0" encoding="iso-8859-1"?>
<!-- Generator: Adobe Illustrator 19.1.0, SVG Export Plug-In . SVG Version: 6.00 Build 0)  -->
<svg version="1.1" id="Capa_1" xmlns="http://www.w3.org/2000/svg" xmlns:xlink="http://www.w3.org/1999/xlink" x="0px" y="0px"
	 viewBox="0 0 216.29 216.29" style="enable-background:new 0 0 216.29 216.29;" xml:space="preserve">
<g>
	<g id="group-78svg">
		<path id="path-1_144_" style="fill:#0CB04A;" d="M95.967,72.91c9.92,5.489,27.996-7.854,27.996-7.854s1.993-22.244-7.926-27.733
			c-9.92-5.49-38.395,2.096-38.395,2.096S86.048,67.419,95.967,72.91z"/>
		<path id="path-2_144_" style="opacity:0.35;fill:#010101;enable-background:new    ;" d="M116.037,37.323
			c-5.139-2.845-15.242-2.175-23.801-0.872c-1.137,2.774-1.868,5.409-1.868,7.709c0,13.535,23.486,24.613,25.785,25.664
			c4.524-2.352,7.81-4.768,7.81-4.768S125.956,42.813,116.037,37.323z"/>
		<path id="path-3_144_" style="fill:#0CB04A;" d="M152.905,40.688c0,14.232-26.013,25.769-26.013,25.769
			s-26.013-11.537-26.013-25.769S126.892,0,126.892,0S152.905,26.456,152.905,40.688z"/>
		<path id="path-4_143_" style="opacity:0.25;fill:#010101;enable-background:new    ;" d="M126.892,0c0,0-1.489,1.519-3.72,3.978
			c7.707,8.896,19.222,23.762,19.222,33.238c0,11.752-17.699,21.646-23.882,24.746c4.64,2.833,8.38,4.495,8.38,4.495
			s26.013-11.537,26.013-25.769S126.892,0,126.892,0z"/>
		<path id="path-5_143_" style="fill:#142A3B;" d="M127.565,76.394c-0.199,0-0.405-0.017-0.608-0.053
			c-1.984-0.33-3.319-2.19-2.986-4.154c4.579-26.856-0.55-47.124-0.599-47.325c-0.502-1.927,0.668-3.893,2.611-4.391
			c1.938-0.494,3.931,0.657,4.432,2.584c0.23,0.88,5.582,21.871,0.736,50.332C130.848,75.148,129.309,76.394,127.565,76.394z"/>
		<path id="path-6_141_" style="fill:#FBB713;" d="M186.999,126.785c0,35.409-28.974,64.113-64.719,64.113
			c-35.743,0-64.719-28.704-64.719-64.113S86.537,62.67,122.28,62.67C158.025,62.67,186.999,91.376,186.999,126.785z"/>
		<path id="path-7_141_" style="fill:#FFFFFF;" d="M70.408,130.389c-2.01,0-3.638-1.613-3.638-3.605
			c0-30.323,24.904-54.992,55.51-54.992c2.012,0,3.64,1.615,3.64,3.606c0,1.991-1.628,3.604-3.64,3.604
			c-26.595,0-48.232,21.435-48.232,47.782C74.048,128.776,72.42,130.389,70.408,130.389z"/>
		<path id="path-8_138_" style="opacity:0.15;fill:#010101;enable-background:new    ;" d="M134.884,63.906
			c16.668,11.599,27.59,30.754,27.59,52.466c0,35.409-28.976,64.114-64.719,64.114c-4.315,0-8.525-0.438-12.603-1.237
			c10.515,7.318,23.302,11.649,37.128,11.649c35.745,0,64.719-28.704,64.719-64.114C186.999,95.65,164.591,69.719,134.884,63.906z"
			/>
		<path id="path-9_132_" style="fill:#FF3A2F;" d="M141.105,181.981h19.396c3.74,0,6.771,2.549,6.771,5.693
			s-3.031,5.693-6.771,5.693h-0.903c-3.74,0-6.772,2.549-6.772,5.693c0,3.145,3.032,5.693,6.772,5.693h41.695
			c3.74,0,6.771,2.55,6.771,5.694s-3.031,5.693-6.771,5.693h-50.108H61.077c-3.741,0-6.771-2.549-6.771-5.693
			s3.03-5.694,6.771-5.694h11.571c3.741,0,6.772-2.548,6.772-5.693c0-3.144-3.031-5.693-6.772-5.693H17.576
			c-3.741,0-6.772-2.549-6.772-5.693s3.031-5.693,6.772-5.693h48.052H141.105z"/>
		<path id="path-10_120_" style="fill:#FF3A2F;" d="M32.857,216.29c3.346,0,6.06-1.704,6.06-3.804s-2.714-3.804-6.06-3.804H14.285
			c-3.346,0-6.059,1.704-6.059,3.804s2.713,3.804,6.059,3.804H32.857z"/>
	</g>
</g>
<g>
</g>
<g>
</g>
<g>
</g>
<g>
</g>
<g>
</g>
<g>
</g>
<g>
</g>
<g>
</g>
<g>
</g>
<g>
</g>
<g>
</g>
<g>
</g>
<g>
</g>
<g>
</g>
<g>
</g>
</svg>
