<?xml version="1.0" encoding="iso-8859-1"?>
<!-- Generator: Adobe Illustrator 19.1.0, SVG Export Plug-In . SVG Version: 6.00 Build 0)  -->
<svg version="1.1" id="Capa_1" xmlns="http://www.w3.org/2000/svg" xmlns:xlink="http://www.w3.org/1999/xlink" x="0px" y="0px"
	 viewBox="0 0 217.228 217.228" style="enable-background:new 0 0 217.228 217.228;" xml:space="preserve">
<g>
	<g id="group-49svg">
		<path id="path-1_104_" style="fill:#FF3A2F;" d="M100.75,175.098h13.703c2.642,0,4.784-1.243,4.784-2.777
			c0-1.535-2.142-2.777-4.784-2.777h-0.638c-2.642,0-4.784-1.244-4.784-2.778s2.142-2.777,4.784-2.777h29.457
			c2.642,0,4.784-1.243,4.784-2.777s-2.142-2.778-4.784-2.778h-35.4H35.516c-2.642,0-4.784,1.244-4.784,2.778
			s2.142,2.777,4.784,2.777h8.175c2.642,0,4.784,1.243,4.784,2.777s-2.142,2.778-4.784,2.778H4.783
			c-2.641,0-4.783,1.242-4.783,2.777c0,1.534,2.142,2.777,4.783,2.777h9.196H100.75z"/>
		<path id="path-2_104_" style="fill:#FF3A2F;" d="M156.31,170.077c2.975,0,5.387,1.37,5.387,3.06c0,1.691-2.412,3.061-5.387,3.061
			h-16.509c-2.974,0-5.387-1.37-5.387-3.061c0-1.69,2.413-3.06,5.387-3.06H156.31z"/>
		<path id="path-3_104_" style="fill:#0CB04A;" d="M198.508,41.03H56.233c-10.322,0-18.72,8.394-18.72,18.72v82.367
			c0,10.325,8.398,18.72,18.72,18.72h142.275c10.321,0,18.72-8.395,18.72-18.72V59.75C217.228,49.424,208.829,41.03,198.508,41.03z"
			/>
		<path id="path-4_104_" style="opacity:0.35;enable-background:new    ;" d="M208.051,43.673c1.667,2.799,2.642,6.054,2.642,9.542
			v82.367c0,10.325-8.398,18.719-18.721,18.719H49.697c-3.487,0-6.743-0.974-9.541-2.642c3.267,5.484,9.241,9.178,16.077,9.178
			h142.275c10.321,0,18.72-8.395,18.72-18.72V59.75C217.228,52.913,213.535,46.94,208.051,43.673z"/>
		<path id="path-5_103_" style="fill:#FF3A2F;" d="M67.465,115.909h29.952c2.07,0,3.745,1.676,3.745,3.744
			c0,2.07-1.675,3.744-3.745,3.744H67.465c-2.07,0-3.744-1.674-3.744-3.744C63.721,117.585,65.395,115.909,67.465,115.909z"/>
		<path id="path-6_100_" style="fill:#142A3B;" d="M112.394,138.373H67.465c-2.07,0-3.744-1.674-3.744-3.744
			c0-2.07,1.674-3.744,3.744-3.744h44.929c2.07,0,3.744,1.674,3.744,3.744C116.138,136.699,114.464,138.373,112.394,138.373z"/>
		<path id="path-7_97_" style="fill:#EDEDED;" d="M194.764,97.189c0,2.07-1.674,3.745-3.744,3.745h-29.953
			c-2.07,0-3.745-1.675-3.745-3.745V67.237c0-2.068,1.675-3.743,3.745-3.743h29.953c2.07,0,3.744,1.675,3.744,3.743V97.189z"/>
		<path id="path-8_76_" style="opacity:0.35;enable-background:new    ;" d="M197.555,70.028h-2.791v27.161
			c0,2.07-1.674,3.745-3.744,3.745h-27.162v2.791c0,2.069,1.674,3.743,3.744,3.743h29.953c2.069,0,3.744-1.674,3.744-3.743V73.773
			C201.299,71.704,199.624,70.028,197.555,70.028z"/>
	</g>
</g>
<g>
</g>
<g>
</g>
<g>
</g>
<g>
</g>
<g>
</g>
<g>
</g>
<g>
</g>
<g>
</g>
<g>
</g>
<g>
</g>
<g>
</g>
<g>
</g>
<g>
</g>
<g>
</g>
<g>
</g>
</svg>
