<?xml version="1.0" encoding="iso-8859-1"?>
<!-- Generator: Adobe Illustrator 19.1.0, SVG Export Plug-In . SVG Version: 6.00 Build 0)  -->
<svg version="1.1" id="Capa_1" xmlns="http://www.w3.org/2000/svg" xmlns:xlink="http://www.w3.org/1999/xlink" x="0px" y="0px"
	 viewBox="0 0 218.332 218.332" style="enable-background:new 0 0 218.332 218.332;" xml:space="preserve">
<g>
	<g id="group-33svg">
		<path id="path-1_95_" style="fill:#2476FF;" d="M62.28,158.94h12.679c2.446,0,4.428,1.245,4.428,2.78
			c0,1.534-1.982,2.777-4.428,2.777H74.37c-2.445,0-4.427,1.245-4.427,2.779c0,1.535,1.982,2.778,4.427,2.778h27.259
			c2.444,0,4.427,1.245,4.427,2.779c0,1.535-1.983,2.779-4.427,2.779H68.87H32.866c-2.445,0-4.427-1.244-4.427-2.779
			c0-1.534,1.982-2.779,4.427-2.779h7.565c2.445,0,4.427-1.243,4.427-2.778c0-1.534-1.982-2.779-4.427-2.779H4.426
			c-2.445,0-4.426-1.243-4.426-2.777c0-1.535,1.981-2.78,4.426-2.78h8.51H62.28z"/>
		<path id="path-2_95_" style="fill:#2476FF;" d="M211.692,161.008c3.668,0,6.64-1.867,6.64-4.168c0-2.302-2.972-4.168-6.64-4.168
			h-20.348c-3.668,0-6.641,1.866-6.641,4.168c0,2.301,2.973,4.168,6.641,4.168H211.692z"/>
		<path id="path-3_95_" style="fill:#2476FF;" d="M168.073,201.762c3.668,0,6.641-1.864,6.641-4.166
			c0-2.303-2.973-4.168-6.641-4.168h-20.348c-3.668,0-6.641,1.865-6.641,4.168c0,2.302,2.973,4.166,6.641,4.166H168.073z"/>
		<path id="path-4_94_" style="fill:#EDEDED;" d="M127.101,22.24c-42.839,0-77.569,34.404-77.569,76.844s34.73,76.843,77.569,76.843
			c42.841,0,77.57-34.403,77.57-76.843S169.942,22.24,127.101,22.24z M127.101,141.091c-23.419,0-42.404-18.809-42.404-42.008
			c0-23.201,18.985-42.008,42.404-42.008c23.421,0,42.405,18.807,42.405,42.008C169.506,122.283,150.522,141.091,127.101,141.091z"
			/>
		<path id="path-5_94_" style="opacity:0.25;enable-background:new    ;" d="M199.202,70.87l-38.365,2.836
			c3.615,4.707,6.256,10.175,7.608,16.141l35.213-2.603C202.767,81.557,201.28,76.075,199.202,70.87z"/>
		<path id="path-6_93_" style="opacity:0.25;enable-background:new    ;" d="M139.05,58.795c6.72,1.954,12.745,5.503,17.63,10.218
			l-3.172-42.108c-5.471-1.965-11.203-3.368-17.167-4.071L139.05,58.795z"/>
		<path id="path-7_93_" style="opacity:0.25;enable-background:new    ;" d="M152.639,132.562c-4.59,3.44-9.894,5.973-15.672,7.339
			l6.851,34.189c5.611-1.223,10.97-3.077,16.054-5.431L152.639,132.562z"/>
		<path id="path-8_90_" style="fill:#FF3A2F;" d="M134.571,64.494h-11.792c-4.793,0-8.838-3.527-9.449-8.237l-3.761-29.05
			c-0.731-5.642,3.707-10.638,9.449-10.638h19.315c5.742,0,10.179,4.996,9.449,10.638l-3.762,29.05
			C143.411,60.968,139.364,64.494,134.571,64.494z"/>
		<path id="path-9_86_" style="fill:#FF3A2F;" d="M122.779,133.372h11.792c4.793,0,8.84,3.527,9.449,8.237l3.762,29.05
			c0.73,5.642-3.707,10.638-9.449,10.638h-19.315c-5.742,0-10.18-4.996-9.449-10.638l3.761-29.05
			C113.941,136.9,117.986,133.372,122.779,133.372z"/>
		<path id="path-10_79_" style="fill:#FF3A2F;" d="M163.439,104.773V93.092c0-4.748,3.561-8.756,8.315-9.36l29.324-3.727
			c5.696-0.724,10.739,3.672,10.739,9.36v19.135c0,5.689-5.043,10.085-10.739,9.361l-29.324-3.727
			C167,113.531,163.439,109.521,163.439,104.773z"/>
		<path id="path-11_70_" style="fill:#FF3A2F;" d="M93.912,93.092v11.681c0,4.748-3.561,8.757-8.315,9.361l-29.325,3.727
			c-5.695,0.724-10.739-3.672-10.739-9.361V89.366c0-5.688,5.044-10.084,10.739-9.36l29.325,3.727
			C90.351,84.337,93.912,88.345,93.912,93.092z"/>
	</g>
</g>
<g>
</g>
<g>
</g>
<g>
</g>
<g>
</g>
<g>
</g>
<g>
</g>
<g>
</g>
<g>
</g>
<g>
</g>
<g>
</g>
<g>
</g>
<g>
</g>
<g>
</g>
<g>
</g>
<g>
</g>
</svg>
