<?xml version="1.0" encoding="iso-8859-1"?>
<!-- Generator: Adobe Illustrator 19.1.0, SVG Export Plug-In . SVG Version: 6.00 Build 0)  -->
<svg version="1.1" id="Capa_1" xmlns="http://www.w3.org/2000/svg" xmlns:xlink="http://www.w3.org/1999/xlink" x="0px" y="0px"
	 viewBox="0 0 218.332 218.332" style="enable-background:new 0 0 218.332 218.332;" xml:space="preserve">
<g>
	<g id="group-35svg">
		<path id="path-1_97_" style="fill:#2476FF;" d="M169.3,170.391h14.203c2.739,0,4.959,1.906,4.959,4.258
			c0,2.351-2.22,4.258-4.959,4.258h-0.661c-2.738,0-4.958,1.906-4.958,4.257c0,2.352,2.22,4.259,4.958,4.259h30.532
			c2.738,0,4.958,1.906,4.958,4.258c0,2.351-2.22,4.257-4.958,4.257h-36.691h-40.328c-2.739,0-4.959-1.906-4.959-4.257
			c0-2.352,2.22-4.258,4.959-4.258h8.473c2.738,0,4.959-1.907,4.959-4.259c0-2.351-2.221-4.257-4.959-4.257h-40.327
			c-2.738,0-4.959-1.907-4.959-4.258c0-2.352,2.221-4.258,4.959-4.258h9.531H169.3z"/>
		<path id="path-2_97_" style="fill:#2476FF;" d="M25.94,199.109c3.296,0,5.969-2.86,5.969-6.387c0-3.528-2.673-6.387-5.969-6.387
			H7.648c-3.296,0-5.969,2.859-5.969,6.387c0,3.527,2.673,6.387,5.969,6.387H25.94z"/>
		<path id="path-3_97_" style="fill:#2476FF;" d="M100.31,211.12c4.108,0,7.437-2.035,7.437-4.544s-3.329-4.543-7.437-4.543H77.519
			c-4.108,0-7.437,2.034-7.437,4.543s3.329,4.544,7.437,4.544H100.31z"/>
		<path id="path-4_96_" style="fill:#FF3A2F;" d="M146.572,54.921V7.212h-37.795c0.062,0.684,0.105,1.374,0.105,2.075
			c0,12.601-10.312,22.817-23.033,22.817c-12.72,0-23.033-10.216-23.033-22.817c0-0.701,0.043-1.391,0.106-2.075H29.314v47.709
			c0,14.831-12.249,26.966-27.221,26.966c-0.706,0-1.4-0.053-2.093-0.105v89.3h171.699v-89.3
			C157.699,80.711,146.572,69.052,146.572,54.921z"/>
		<path id="path-5_96_" style="opacity:0.25;fill:#020403;enable-background:new    ;" d="M50.359,11.36
			c-0.063,0.685-0.105,1.375-0.105,2.074c0,12.602,10.312,22.819,23.031,22.819c4.945,0,9.514-1.557,13.266-4.185
			c-0.236,0.007-0.464,0.036-0.702,0.036c-12.72,0-23.033-10.216-23.033-22.817c0-0.701,0.043-1.391,0.106-2.075H29.314v4.148
			H50.359z"/>
		<path id="path-6_95_" style="opacity:0.25;fill:#020403;enable-background:new    ;" d="M146.572,54.921V7.212h-37.795
			c0.062,0.684,0.105,1.374,0.105,2.075c0,0.7-0.043,1.389-0.105,2.073h9.552c8.659,0,15.68,6.955,15.68,15.533v32.176
			c0,9.421,4.945,17.744,12.39,22.562c8.215,5.316,12.736,14.763,12.736,24.485v64.966h12.564v-89.3
			C157.699,80.711,146.572,69.052,146.572,54.921z"/>
		<path id="path-7_95_" style="fill:#EDEDED;" d="M171.699,152.413H0v-33.189h171.699V152.413z"/>
		<path id="path-8_92_" style="opacity:0.25;fill:#020403;enable-background:new    ;" d="M159.135,119.225v33.189h12.564v-33.189
			H159.135z"/>
		<path id="path-9_88_" style="fill:#142A3B;" d="M89.489,171.081h-7.277V32.104h7.277V171.081z"/>
		<path id="path-10_81_" style="fill:#142A3B;" d="M101.205,139.424H73.284v-7.21h27.921V139.424z"/>
	</g>
</g>
<g>
</g>
<g>
</g>
<g>
</g>
<g>
</g>
<g>
</g>
<g>
</g>
<g>
</g>
<g>
</g>
<g>
</g>
<g>
</g>
<g>
</g>
<g>
</g>
<g>
</g>
<g>
</g>
<g>
</g>
</svg>
