<?xml version="1.0" encoding="iso-8859-1"?>
<!-- Generator: Adobe Illustrator 19.1.0, SVG Export Plug-In . SVG Version: 6.00 Build 0)  -->
<svg version="1.1" id="Capa_1" xmlns="http://www.w3.org/2000/svg" xmlns:xlink="http://www.w3.org/1999/xlink" x="0px" y="0px"
	 viewBox="0 0 217.229 217.229" style="enable-background:new 0 0 217.229 217.229;" xml:space="preserve">
<g>
	<g id="group-135svg">
		<path id="path-1_40_" style="fill:#FF3A2F;" d="M44.179,172.617H31.382c-2.468,0-4.468,1.513-4.468,3.381s2,3.382,4.468,3.382
			h0.595c2.468,0,4.468,1.513,4.468,3.381c0,1.867-2,3.38-4.468,3.38H4.468C2,186.14,0,187.654,0,189.522s2,3.382,4.468,3.382h33.06
			h67.573c2.467,0,4.467-1.514,4.467-3.382s-2-3.382-4.467-3.382h-7.635c-2.468,0-4.468-1.513-4.468-3.38
			c0-1.868,2-3.381,4.468-3.381h29.986c2.467,0,4.467-1.514,4.467-3.382s-2-3.381-4.467-3.381h-2.238H44.179z"/>
		<path id="path-2_40_" style="fill:#FF3A2F;" d="M123.545,193.809c-2.068,0-3.745-1.621-3.745-3.624
			c0-2.001,1.677-3.623,3.745-3.623h11.478c2.069,0,3.746,1.622,3.746,3.623c0,2.003-1.677,3.624-3.746,3.624H123.545z"/>
		<path id="path-3_40_" style="fill:#EDEDED;" d="M188.12,167.803h-66.731c-6.659,0-16.2-8.461-16.2-14.371V94.519
			c0-1.307,0.707-2.513,1.851-3.157c13.311-7.441,20.048-20.654,27.074-40.912V31.039c0-0.658,0.176-1.299,0.516-1.865
			c2.195-3.658,5.91-5.754,10.189-5.754c5.268,0,10.607,3.064,14.653,8.409c7.274,9.617,9.074,24.736,5.12,41.972h30.463
			c6.773,0,22.174,6.977,22.174,18.459c0,3.792-0.445,9.561-2.853,12.929c1.9,5.303,2.26,13.891-3.559,19.941
			c0.48,10.211-2.097,17.634-7.513,21.694c-0.093,5.4-2.585,12.011-6.321,16.29C194.307,166.178,191.243,167.803,188.12,167.803z"/>
		<path id="path-4_40_" style="opacity:0.35;enable-background:new    ;" d="M214.376,105.189c2.408-3.368,2.852-9.137,2.852-12.929
			c0-6.022-4.243-10.788-9.25-13.976c0.089,0.604,0.153,1.215,0.153,1.847c0,3.792-0.445,9.561-2.852,12.929
			c1.899,5.303,2.259,13.89-3.559,19.942c0.48,10.21-2.097,17.632-7.514,21.692c-0.092,5.403-2.585,12.012-6.32,16.29
			c-2.677,3.064-5.741,4.689-8.863,4.689h-66.732c-2.202,0-4.717-0.938-7.102-2.39v0.149c0,5.91,9.541,14.371,16.2,14.371h66.731
			c3.122,0,6.187-1.625,8.863-4.689c3.736-4.279,6.228-10.89,6.321-16.29c5.415-4.062,7.993-11.483,7.513-21.694
			C216.636,119.08,216.276,110.492,214.376,105.189z"/>
		<path id="path-5_40_" style="opacity:0.35;enable-background:new    ;" d="M153.401,73.801h10.949
			c2-9.708,6.065-22.595-4.878-41.972c-1.278-2.262-3.334-3.789-5.211-5.131C158.106,35.98,156.502,60.281,153.401,73.801z"/>
		<path id="path-6_39_" style="fill:#2476FF;" d="M99.738,175.035H60.023c-6.991,0-12.682-5.685-12.682-12.676V86.478
			c0-6.991,5.691-12.676,12.682-12.676h39.715c6.991,0,12.683,5.685,12.683,12.676v75.881
			C112.421,169.35,106.729,175.035,99.738,175.035z"/>
		<path id="path-7_38_" style="opacity:0.35;enable-background:new    ;" d="M101.508,73.98c1.126,1.893,1.816,4.075,1.816,6.432
			v75.882c0,6.991-5.692,12.675-12.683,12.675H50.926c-0.606,0-1.186-0.097-1.769-0.179c2.213,3.72,6.233,6.244,10.866,6.244h39.715
			c6.991,0,12.683-5.685,12.683-12.676V86.478C112.421,80.091,107.657,74.85,101.508,73.98z"/>
	</g>
</g>
<g>
</g>
<g>
</g>
<g>
</g>
<g>
</g>
<g>
</g>
<g>
</g>
<g>
</g>
<g>
</g>
<g>
</g>
<g>
</g>
<g>
</g>
<g>
</g>
<g>
</g>
<g>
</g>
<g>
</g>
</svg>
