<?xml version="1.0" encoding="iso-8859-1"?>
<!-- Generator: Adobe Illustrator 19.1.0, SVG Export Plug-In . SVG Version: 6.00 Build 0)  -->
<svg version="1.1" id="Capa_1" xmlns="http://www.w3.org/2000/svg" xmlns:xlink="http://www.w3.org/1999/xlink" x="0px" y="0px"
	 viewBox="0 0 217.238 217.238" style="enable-background:new 0 0 217.238 217.238;" xml:space="preserve">
<g>
	<g id="group-150svg">
		<path id="path-1_57_" style="fill:#0CB04A;" d="M111.749,175.597h15.118c2.915,0,5.278-1.787,5.278-3.991
			c0-2.206-2.363-3.994-5.278-3.994h-0.704c-2.915,0-5.278-1.786-5.278-3.99c0-2.205,2.363-3.993,5.278-3.993h32.5
			c2.915,0,5.278-1.786,5.278-3.992c0-2.205-2.363-3.993-5.278-3.993h-39.056H39.775c-2.914,0-5.278,1.788-5.278,3.993
			c0,2.206,2.364,3.992,5.278,3.992h9.02c2.915,0,5.278,1.788,5.278,3.993c0,2.204-2.363,3.99-5.278,3.99H13.37
			c-2.916,0-5.279,1.788-5.279,3.994c0,2.204,2.363,3.991,5.279,3.991h2.643H111.749z"/>
		<path id="path-2_57_" style="fill:#0CB04A;" d="M17.985,150.575c2.444,0,4.425,1.915,4.425,4.279c0,2.363-1.981,4.278-4.425,4.278
			H4.425c-2.444,0-4.425-1.915-4.425-4.278c0-2.364,1.981-4.279,4.425-4.279H17.985z"/>
		<path id="path-3_57_" style="fill:#FF3A2F;" d="M62.785,148.092c-10.593,0-20.907-5.489-26.575-15.297l-1.314-2.281
			c-4.091-7.076-5.176-15.328-3.059-23.228c2.118-7.899,7.185-14.5,14.273-18.588l59.166-34.139
			c14.627-8.431,33.39-3.414,41.837,11.205l1.315,2.272c4.09,7.086,5.179,15.335,3.058,23.236
			c-2.118,7.898-7.184,14.498-14.273,18.586l-5.229,3.021l-7.241-12.54l5.233-3.021c3.737-2.157,6.406-5.636,7.523-9.798
			c1.118-4.161,0.545-8.508-1.612-12.24l-1.312-2.271c-4.451-7.708-14.351-10.351-22.062-5.906l-59.165,34.139
			c-3.737,2.155-6.407,5.634-7.524,9.795c-1.117,4.16-0.541,8.506,1.612,12.238l1.316,2.281c4.447,7.694,14.337,10.351,22.058,5.898
			l13.217-7.624l7.233,12.543l-13.216,7.625C73.236,146.772,67.978,148.092,62.785,148.092z"/>
		<path id="path-4_57_" style="fill:#142A3B;" d="M127.479,139.271c-10.596,0-20.91-5.491-26.577-15.301l-1.312-2.269
			c-4.094-7.084-5.18-15.337-3.062-23.237c2.119-7.898,7.185-14.499,14.274-18.588l5.236-3.021c3.458-2.002,7.891-0.813,9.889,2.654
			c1.998,3.463,0.81,7.891-2.655,9.89l-5.236,3.022c-3.734,2.155-6.403,5.634-7.521,9.796c-1.117,4.159-0.541,8.506,1.613,12.236
			l1.315,2.271c4.454,7.714,14.351,10.357,22.062,5.909l59.165-34.141c3.737-2.155,6.407-5.633,7.524-9.794
			c1.117-4.162,0.541-8.506-1.612-12.238l-1.315-2.27c-4.452-7.711-14.345-10.358-22.063-5.91l-13.209,7.625
			c-3.472,2.005-7.891,0.809-9.892-2.65c-1.998-3.466-0.81-7.893,2.651-9.891l13.213-7.626c14.634-8.443,33.397-3.413,41.84,11.206
			l1.312,2.267c4.094,7.087,5.18,15.338,3.062,23.238c-2.118,7.898-7.184,14.499-14.274,18.588l-59.164,34.14
			C137.93,137.953,132.669,139.271,127.479,139.271z"/>
	</g>
</g>
<g>
</g>
<g>
</g>
<g>
</g>
<g>
</g>
<g>
</g>
<g>
</g>
<g>
</g>
<g>
</g>
<g>
</g>
<g>
</g>
<g>
</g>
<g>
</g>
<g>
</g>
<g>
</g>
<g>
</g>
</svg>
