<?xml version="1.0" encoding="iso-8859-1"?>
<!-- Generator: Adobe Illustrator 19.1.0, SVG Export Plug-In . SVG Version: 6.00 Build 0)  -->
<svg version="1.1" id="Capa_1" xmlns="http://www.w3.org/2000/svg" xmlns:xlink="http://www.w3.org/1999/xlink" x="0px" y="0px"
	 viewBox="0 0 218.333 218.333" style="enable-background:new 0 0 218.333 218.333;" xml:space="preserve">
<g>
	<g id="group-1svg">
		<path id="path-1" style="fill:#2476FF;" d="M185.553,169.535h9.495c1.831,0,3.315,1.731,3.315,3.868
			c0,2.137-1.484,3.869-3.315,3.869h-0.442c-1.83,0-3.315,1.731-3.315,3.868s1.485,3.869,3.315,3.869h20.412
			c1.831,0,3.315,1.732,3.315,3.868c0,2.138-1.484,3.87-3.315,3.87h-24.53h-26.96c-1.831,0-3.316-1.732-3.316-3.87
			c0-2.136,1.485-3.868,3.316-3.868h5.664c1.832,0,3.315-1.732,3.315-3.869s-1.483-3.868-3.315-3.868h-26.961
			c-1.83,0-3.314-1.732-3.314-3.869c0-2.137,1.484-3.868,3.314-3.868h6.373H185.553z"/>
		<path id="path-2" style="fill:#FF3A2F;" d="M115.82,217.423c5.106,0,9.246-2.598,9.246-5.803s-4.14-5.803-9.246-5.803H87.488
			c-5.106,0-9.245,2.598-9.245,5.803s4.139,5.803,9.245,5.803H115.82z"/>
		<path id="path-3" style="fill:#FCCB56;" d="M192.694,116.332c0,33.228-27.19,60.164-60.731,60.164
			c-33.542,0-60.732-26.936-60.732-60.164c0-33.227,27.19-60.164,60.732-60.164C165.504,56.168,192.694,83.105,192.694,116.332z"/>
		<path id="path-4" style="fill:#FBB713;" d="M176.21,116.332c0,24.209-19.81,43.834-44.247,43.834
			c-24.438,0-44.248-19.625-44.248-43.834c0-24.208,19.81-43.833,44.248-43.833C156.4,72.499,176.21,92.124,176.21,116.332z"/>
		<path id="path-5" style="fill:#FFFFFF;" d="M131.962,151.952c-2.01,0-3.639-1.615-3.639-3.605c0-1.991,1.629-3.606,3.639-3.606
			c15.813,0,28.679-12.743,28.679-28.409c0-1.99,1.63-3.604,3.639-3.604c2.01,0,3.639,1.614,3.639,3.604
			C167.919,135.973,151.789,151.952,131.962,151.952z"/>
		<path id="path-6" style="opacity:0.35;enable-background:new    ;" d="M102.642,149.099c-6.93-7.738-11.173-17.89-11.173-29.047
			c0-24.21,19.811-43.835,44.248-43.835c11.262,0,21.51,4.205,29.321,11.069c-8.106-9.051-19.901-14.787-33.075-14.787
			c-24.438,0-44.248,19.625-44.248,43.833C87.715,129.383,93.505,141.068,102.642,149.099z"/>
		<path id="path-7" style="opacity:0.25;enable-background:new    ;" d="M101.18,168.131c4.92,2.875,10.275,5.069,15.958,6.485
			V58.049c-5.683,1.415-11.038,3.609-15.958,6.485V168.131z"/>
		<path id="path-8" style="fill:#2476FF;" d="M57.584,41.163h-13.33c-0.73,0-1.322-0.592-1.322-1.323V10.835
			c0-0.731,0.592-1.322,1.322-1.322h13.33c0.73,0,1.322,0.591,1.322,1.322V39.84C58.906,40.571,58.314,41.163,57.584,41.163z"/>
		<path id="path-9" style="fill:#FF3A2F;" d="M73.059,61.61H28.778c-0.73,0-1.322-0.592-1.322-1.323V38.206
			c0-0.731,0.592-1.322,1.322-1.322H73.06c0.729,0,1.321,0.591,1.321,1.322v22.081C74.381,61.018,73.789,61.61,73.059,61.61z"/>
		<path id="path-10" style="fill:#2476FF;" d="M100.516,193.498H1.322c-0.73,0-1.322-0.592-1.322-1.322V54.373
			c0-0.731,0.592-1.322,1.322-1.322h99.194c0.73,0,1.321,0.591,1.321,1.322v137.803
			C101.837,192.906,101.246,193.498,100.516,193.498z"/>
		<path id="path-11" style="fill:#2476FF;" d="M92.065,18.072h-58.33c-2.916,0-5.28-2.342-5.28-5.231v-6.7
			c0-3.127,2.752-5.556,5.888-5.196l58.33,6.7c2.663,0.306,4.672,2.54,4.672,5.196l0,0C97.345,15.73,94.98,18.072,92.065,18.072z"/>
		<path id="path-12" style="fill:#FFFFFF;" d="M94.378,91.449H72.412c-1.005,0-1.819-0.807-1.819-1.802
			c0-0.996,0.814-1.803,1.819-1.803h21.966c1.005,0,1.819,0.807,1.819,1.803C96.197,90.642,95.383,91.449,94.378,91.449z"/>
		<path id="path-13" style="fill:#FFFFFF;" d="M94.378,131.012H72.412c-1.005,0-1.819-0.807-1.819-1.803
			c0-0.995,0.814-1.803,1.819-1.803h21.966c1.005,0,1.819,0.808,1.819,1.803C96.197,130.205,95.383,131.012,94.378,131.012z"/>
		<path id="path-14" style="fill:#FFFFFF;" d="M94.378,170.575H72.412c-1.005,0-1.819-0.807-1.819-1.803
			c0-0.995,0.814-1.803,1.819-1.803h21.966c1.005,0,1.819,0.808,1.819,1.803C96.197,169.768,95.383,170.575,94.378,170.575z"/>
		<path id="path-15" style="fill:#FFFFFF;" d="M18.593,175.821c-2.009,0-3.638-1.614-3.638-3.604V91.423
			c0-1.992,1.629-3.605,3.638-3.605c2.01,0,3.64,1.613,3.64,3.605v80.794C22.233,174.207,20.603,175.821,18.593,175.821z"/>
		<path id="path-16" style="opacity:0.35;fill:#060606;enable-background:new    ;" d="M58.906,27.757v-9.118H42.932v4.839
			L58.906,27.757z"/>
	</g>
</g>
<g>
</g>
<g>
</g>
<g>
</g>
<g>
</g>
<g>
</g>
<g>
</g>
<g>
</g>
<g>
</g>
<g>
</g>
<g>
</g>
<g>
</g>
<g>
</g>
<g>
</g>
<g>
</g>
<g>
</g>
</svg>
