<?xml version="1.0" encoding="iso-8859-1"?>
<!-- Generator: Adobe Illustrator 19.1.0, SVG Export Plug-In . SVG Version: 6.00 Build 0)  -->
<svg version="1.1" id="Capa_1" xmlns="http://www.w3.org/2000/svg" xmlns:xlink="http://www.w3.org/1999/xlink" x="0px" y="0px"
	 viewBox="0 0 217.237 217.237" style="enable-background:new 0 0 217.237 217.237;" xml:space="preserve">
<g>
	<g id="group-149svg">
		<path id="path-1_55_" style="fill:#0CB04A;" d="M104.159,31.793H88.862c-2.95,0-5.341,1.811-5.341,4.043
			c0,2.232,2.391,4.043,5.341,4.043h0.712c2.95,0,5.341,1.809,5.341,4.042c0,2.232-2.391,4.041-5.341,4.041H56.688
			c-2.95,0-5.341,1.81-5.341,4.043c0,2.232,2.391,4.042,5.341,4.042h39.52h80.78c2.95,0,5.341-1.81,5.341-4.042
			c0-2.233-2.391-4.043-5.341-4.043h-9.127c-2.949,0-5.34-1.809-5.34-4.041c0-2.233,2.391-4.042,5.34-4.042h35.847
			c2.949,0,5.341-1.811,5.341-4.043c0-2.232-2.392-4.043-5.341-4.043h-2.675H104.159z"/>
		<path id="path-2_55_" style="fill:#0CB04A;" d="M199.038,57.13c-2.473,0-4.478-1.94-4.478-4.333c0-2.391,2.005-4.331,4.478-4.331
			h13.721c2.473,0,4.478,1.94,4.478,4.331c0,2.393-2.005,4.333-4.478,4.333H199.038z"/>
		<path id="path-3_55_" style="fill:#0CB04A;" d="M104.159,89.792H88.862c-2.95,0-5.341,1.811-5.341,4.043
			c0,2.232,2.391,4.042,5.341,4.042h0.712c2.95,0,5.341,1.811,5.341,4.043c0,2.232-2.391,4.041-5.341,4.041H56.688
			c-2.95,0-5.341,1.81-5.341,4.043c0,2.232,2.391,4.04,5.341,4.04h39.52h80.78c2.95,0,5.341-1.808,5.341-4.04
			c0-2.233-2.391-4.043-5.341-4.043h-9.127c-2.949,0-5.34-1.809-5.34-4.041c0-2.232,2.391-4.043,5.34-4.043h35.847
			c2.949,0,5.341-1.81,5.341-4.042c0-2.232-2.392-4.043-5.341-4.043h-2.675H104.159z"/>
		<path id="path-4_55_" style="fill:#0CB04A;" d="M199.038,115.127c-2.473,0-4.478-1.938-4.478-4.33s2.005-4.332,4.478-4.332h13.721
			c2.473,0,4.478,1.94,4.478,4.332s-2.005,4.33-4.478,4.33H199.038z"/>
		<path id="path-5_55_" style="fill:#0CB04A;" d="M104.159,155.042H88.862c-2.95,0-5.341,1.811-5.341,4.042
			c0,2.233,2.391,4.043,5.341,4.043h0.712c2.95,0,5.341,1.808,5.341,4.041c0,2.232-2.391,4.043-5.341,4.043H56.688
			c-2.95,0-5.341,1.81-5.341,4.042c0,2.232,2.391,4.042,5.341,4.042h39.52h80.78c2.95,0,5.341-1.81,5.341-4.042
			c0-2.232-2.391-4.042-5.341-4.042h-9.127c-2.949,0-5.34-1.811-5.34-4.043c0-2.233,2.391-4.041,5.34-4.041h35.847
			c2.949,0,5.341-1.81,5.341-4.043c0-2.231-2.392-4.042-5.341-4.042h-2.675H104.159z"/>
		<path id="path-6_53_" style="fill:#0CB04A;" d="M199.038,180.376c-2.473,0-4.478-1.94-4.478-4.332s2.005-4.332,4.478-4.332h13.721
			c2.473,0,4.478,1.94,4.478,4.332s-2.005,4.332-4.478,4.332H199.038z"/>
		<circle id="circle-1_5_" style="fill:#FF3A2F;" cx="17" cy="44.618" r="16"/>
		<path id="path-7_52_" style="fill:#FF3A2F;" d="M15.847,91.978c-8.747,0-15.839,7.092-15.839,15.839
			c0,8.746,7.092,15.838,15.839,15.838c8.748,0,15.839-7.092,15.839-15.838C31.686,99.069,24.595,91.978,15.847,91.978z"/>
		<circle id="circle-2_4_" style="fill:#FF3A2F;" cx="17" cy="171.618" r="17"/>
	</g>
</g>
<g>
</g>
<g>
</g>
<g>
</g>
<g>
</g>
<g>
</g>
<g>
</g>
<g>
</g>
<g>
</g>
<g>
</g>
<g>
</g>
<g>
</g>
<g>
</g>
<g>
</g>
<g>
</g>
<g>
</g>
</svg>
