<?xml version="1.0" encoding="iso-8859-1"?>
<!-- Generator: Adobe Illustrator 19.1.0, SVG Export Plug-In . SVG Version: 6.00 Build 0)  -->
<svg version="1.1" id="Capa_1" xmlns="http://www.w3.org/2000/svg" xmlns:xlink="http://www.w3.org/1999/xlink" x="0px" y="0px"
	 viewBox="0 0 218.332 218.332" style="enable-background:new 0 0 218.332 218.332;" xml:space="preserve">
<g>
	<g id="group-28svg">
		<path id="path-1_89_" style="fill:#2476FF;" d="M163.471,173.756h15.892c3.064,0,5.547,1.631,5.547,3.643
			c0,2.011-2.483,3.642-5.547,3.642h-0.74c-3.064,0-5.548,1.63-5.548,3.643c0,2.011,2.484,3.641,5.548,3.641h34.162
			c3.063,0,5.547,1.631,5.547,3.642c0,2.012-2.484,3.643-5.547,3.643h-41.054h-45.122c-3.064,0-5.547-1.631-5.547-3.643
			c0-2.011,2.483-3.642,5.547-3.642h9.481c3.064,0,5.548-1.63,5.548-3.641c0-2.013-2.484-3.643-5.548-3.643H90.968
			c-3.064,0-5.548-1.631-5.548-3.642c0-2.012,2.484-3.643,5.548-3.643h10.664H163.471z"/>
		<path id="path-2_89_" style="fill:#2476FF;" d="M94.498,197.824c3.514,0,6.362-1.74,6.362-3.887c0-2.146-2.848-3.887-6.362-3.887
			H75.002c-3.514,0-6.363,1.741-6.363,3.887c0,2.147,2.849,3.887,6.363,3.887H94.498z"/>
		<path id="path-3_89_" style="fill:#142A3B;" d="M140.546,54.1H78.047V29.308h62.499V54.1z M85.325,46.89h47.943V36.517H85.325
			V46.89z"/>
		<path id="path-4_88_" style="fill:#0CB04A;" d="M158.159,132.953H60.434c-12.511,0-22.653-10.143-22.653-22.653V69.6
			c0-12.512,10.142-22.654,22.653-22.654h97.725c12.51,0,22.652,10.142,22.652,22.654v40.7
			C180.811,122.81,170.669,132.953,158.159,132.953z"/>
		<path id="path-5_88_" style="opacity:0.25;fill:#020403;enable-background:new    ;" d="M157.79,46.946h-1.25
			c3.931,4.091,6.359,9.614,6.359,15.709v40.394c0,12.595-10.307,22.806-23.021,22.806H44.141
			c4.193,4.364,10.099,7.098,16.662,7.098h96.987c12.714,0,23.021-10.211,23.021-22.807V69.752
			C180.811,57.156,170.504,46.946,157.79,46.946z"/>
		<path id="path-6_87_" style="fill:#FF3A2F;" d="M63.273,157.336c-1.37,2.029-2.174,4.464-2.174,7.087
			c0,7.047,5.766,12.759,12.879,12.759c7.112,0,12.878-5.712,12.878-12.759c0-2.623-0.803-5.058-2.173-7.087H63.273z"/>
		<path id="path-7_87_" style="fill:#FF3A2F;" d="M127.665,157.336c-1.371,2.029-2.174,4.464-2.174,7.087
			c0,7.047,5.765,12.759,12.879,12.759c7.112,0,12.878-5.712,12.878-12.759c0-2.623-0.803-5.058-2.174-7.087H127.665z"/>
		<path id="path-8_84_" style="opacity:0.35;fill:#020403;enable-background:new    ;" d="M63.273,157.336
			c-1.37,2.029-2.174,4.465-2.174,7.087c0,0.978,0.134,1.92,0.345,2.836h25.068c0.21-0.916,0.344-1.858,0.344-2.836
			c0-2.622-0.803-5.058-2.173-7.087H63.273z"/>
		<path id="path-9_80_" style="opacity:0.35;fill:#020403;enable-background:new    ;" d="M127.665,157.336
			c-1.371,2.029-2.174,4.465-2.174,7.087c0,0.978,0.134,1.92,0.344,2.836h25.068c0.21-0.916,0.345-1.858,0.345-2.836
			c0-2.622-0.803-5.058-2.174-7.087H127.665z"/>
		<path id="path-10_73_" style="fill:#142A3B;" d="M39.845,160.595c-16.479,0-29.838-13.235-29.838-29.56V49.654
			c0-5.379-2.529-10.174-6.474-13.279C-0.701,33.04-1.26,26.908,2.565,23.12l0,0c2.444-2.421,6.111-3.284,9.337-2.057
			c6.423,2.442,10.983,8.61,10.983,15.833v81.381c0,16.326,13.359,29.56,29.839,29.56h137.728c3.633,0,6.578,2.918,6.578,6.517l0,0
			c0,3.605-2.953,6.525-6.592,6.517L39.845,160.595z"/>
		<path id="path-11_64_" style="fill:#142A3B;" d="M154.886,132.953h-7.278V48.647h7.278V132.953z"/>
		<path id="path-12_54_" style="fill:#142A3B;" d="M71.178,132.953H63.9V48.647h7.278V132.953z"/>
	</g>
</g>
<g>
</g>
<g>
</g>
<g>
</g>
<g>
</g>
<g>
</g>
<g>
</g>
<g>
</g>
<g>
</g>
<g>
</g>
<g>
</g>
<g>
</g>
<g>
</g>
<g>
</g>
<g>
</g>
<g>
</g>
</svg>
