<?xml version="1.0" encoding="iso-8859-1"?>
<!-- Generator: Adobe Illustrator 19.1.0, SVG Export Plug-In . SVG Version: 6.00 Build 0)  -->
<svg version="1.1" id="Capa_1" xmlns="http://www.w3.org/2000/svg" xmlns:xlink="http://www.w3.org/1999/xlink" x="0px" y="0px"
	 viewBox="0 0 216.291 216.291" style="enable-background:new 0 0 216.291 216.291;" xml:space="preserve">
<g>
	<g id="group-32svg">
		<path id="path-1_94_" style="fill:#2476FF;" d="M139.539,205.611h15.532c2.994,0,5.422,0.797,5.422,1.781
			c0,0.983-2.428,1.779-5.422,1.779h-0.723c-2.995,0-5.423,0.798-5.423,1.78c0,0.984,2.428,1.781,5.423,1.781h33.388
			c2.995,0,5.423,0.797,5.423,1.779c0,0.983-2.428,1.78-5.423,1.78h-40.124H103.51c-2.994,0-5.422-0.797-5.422-1.78
			c0-0.982,2.428-1.779,5.422-1.779h9.267c2.995,0,5.422-0.797,5.422-1.781c0-0.982-2.427-1.78-5.422-1.78H68.676
			c-2.995,0-5.423-0.796-5.423-1.779c0-0.984,2.428-1.781,5.423-1.781h10.423H139.539z"/>
		<path id="path-2_94_" style="fill:#2476FF;" d="M41.716,207.538c3.435,0,6.218-1.351,6.218-3.019c0-1.667-2.783-3.017-6.218-3.017
			H22.66c-3.434,0-6.218,1.35-6.218,3.017c0,1.668,2.784,3.019,6.218,3.019H41.716z"/>
		<path id="path-3_94_" style="fill:#2476FF;" d="M190.789,177.671h5.112c0.986,0,1.785,0.797,1.785,1.779
			c0,0.984-0.799,1.78-1.785,1.78h-0.238c-0.986,0-1.784,0.797-1.784,1.78s0.798,1.781,1.784,1.781h10.99
			c0.986,0,1.784,0.797,1.784,1.779c0,0.984-0.798,1.781-1.784,1.781h-13.207H178.93c-0.986,0-1.784-0.797-1.784-1.781
			c0-0.982,0.798-1.779,1.784-1.779h3.05c0.986,0,1.785-0.798,1.785-1.781s-0.799-1.78-1.785-1.78h-14.515
			c-0.986,0-1.785-0.796-1.785-1.78c0-0.982,0.799-1.779,1.785-1.779h3.43H190.789z"/>
		<path id="path-4_93_" style="fill:#2476FF;" d="M23.299,155.446h3.145c0.606,0,1.098,0.49,1.098,1.095
			c0,0.605-0.492,1.095-1.098,1.095h-0.147c-0.606,0-1.098,0.49-1.098,1.094c0,0.605,0.492,1.095,1.098,1.095h6.76
			c0.607,0,1.099,0.49,1.099,1.095c0,0.605-0.492,1.095-1.099,1.095h-8.124h-8.928c-0.607,0-1.098-0.49-1.098-1.095
			c0-0.605,0.491-1.095,1.098-1.095h1.876c0.606,0,1.098-0.49,1.098-1.095c0-0.604-0.492-1.094-1.098-1.094H8.952
			c-0.606,0-1.098-0.49-1.098-1.095c0-0.605,0.492-1.095,1.098-1.095h2.11H23.299z"/>
		<path id="path-5_93_" style="fill:#FF3A2F;" d="M49.997,174.239V86.228c0-11.608,9.41-21.018,21.018-21.018h50.041
			c11.608,0,21.018,9.41,21.018,21.018v88.011c0,11.609-9.41,21.019-21.018,21.019H71.015
			C59.407,195.258,49.997,185.848,49.997,174.239z"/>
		<path id="path-6_92_" style="opacity:0.25;fill:#020403;enable-background:new    ;" d="M121.972,65.34
			c3.771,3.985,6.097,9.329,6.097,15.223v85.467c0,12.31-10.074,22.291-22.501,22.291H58.492c-0.811,0-1.61-0.049-2.399-0.131
			c4.106,4.34,9.927,7.068,16.405,7.068h47.075c12.427,0,22.501-9.98,22.501-22.29V87.5C142.074,75.992,133.27,66.527,121.972,65.34
			z"/>
		<path id="path-7_92_" style="fill:#142A3B;" d="M120.53,69.13H71.54V3.303h48.99V69.13z M78.818,61.92h34.434V10.514H78.818V61.92
			z"/>
		<path id="path-8_89_" style="fill:#FF3A2F;" d="M112.499,11.454H79.572V0h32.927V11.454z"/>
		<path id="path-9_85_" style="fill:#FFFFFF;" d="M118.074,103.165H73.996c-2.01,0-3.639-1.615-3.639-3.606
			c0-1.99,1.629-3.605,3.639-3.605h44.078c2.012,0,3.64,1.615,3.64,3.605C121.714,101.55,120.086,103.165,118.074,103.165z"/>
		<path id="path-10_78_" style="fill:#FFFFFF;" d="M120.562,132.796H71.51c-2.009,0-3.639-1.614-3.639-3.605
			c0-1.991,1.63-3.604,3.639-3.604h49.052c2.011,0,3.639,1.613,3.639,3.604C124.201,131.182,122.573,132.796,120.562,132.796z"/>
		<path id="path-11_69_" style="fill:#FFFFFF;" d="M120.562,166.622H71.51c-2.009,0-3.639-1.614-3.639-3.604
			c0-1.991,1.63-3.606,3.639-3.606h49.052c2.011,0,3.639,1.615,3.639,3.606C124.201,165.008,122.573,166.622,120.562,166.622z"/>
		<path id="path-12_59_" style="fill:#142A3B;" d="M82.418,208.252H71.94v-12.994h10.478V208.252z"/>
		<path id="path-13_48_" style="fill:#142A3B;" d="M119.979,208.252h-10.478v-12.994h10.478V208.252z"/>
	</g>
</g>
<g>
</g>
<g>
</g>
<g>
</g>
<g>
</g>
<g>
</g>
<g>
</g>
<g>
</g>
<g>
</g>
<g>
</g>
<g>
</g>
<g>
</g>
<g>
</g>
<g>
</g>
<g>
</g>
<g>
</g>
</svg>
