<?xml version="1.0" encoding="iso-8859-1"?>
<!-- Generator: Adobe Illustrator 19.1.0, SVG Export Plug-In . SVG Version: 6.00 Build 0)  -->
<svg version="1.1" id="Capa_1" xmlns="http://www.w3.org/2000/svg" xmlns:xlink="http://www.w3.org/1999/xlink" x="0px" y="0px"
	 viewBox="0 0 217.228 217.228" style="enable-background:new 0 0 217.228 217.228;" xml:space="preserve">
<g>
	<g id="group-120svg">
		<path id="path-1_24_" style="fill:#FF3A2F;" d="M114,166.404h-13.966c-2.692,0-4.875,1.652-4.875,3.69
			c0,2.037,2.183,3.689,4.875,3.689h0.651c2.692,0,4.875,1.652,4.875,3.69c0,2.039-2.183,3.691-4.875,3.691H70.662
			c-2.692,0-4.875,1.653-4.875,3.69c0,2.037,2.183,3.689,4.875,3.689h36.079h73.745c2.692,0,4.875-1.652,4.875-3.689
			c0-2.037-2.183-3.69-4.875-3.69h-8.332c-2.693,0-4.876-1.652-4.876-3.691c0-2.038,2.183-3.69,4.876-3.69h32.724
			c2.692,0,4.876-1.652,4.876-3.689c0-2.038-2.184-3.69-4.876-3.69h-2.443H114z"/>
		<path id="path-2_24_" style="fill:#FF3A2F;" d="M200.615,189.533c-2.258,0-4.088-1.771-4.088-3.954
			c0-2.184,1.83-3.955,4.088-3.955h12.526c2.257,0,4.087,1.771,4.087,3.955c0,2.183-1.83,3.954-4.087,3.954H200.615z"/>
		<path id="path-3_24_" style="fill:#142A3B;" d="M148.796,181.589c-0.933,0-1.865-0.359-2.572-1.074L57.641,91.033
			c-1.408-1.423-1.397-3.716,0.024-5.12c1.422-1.409,3.716-1.394,5.12,0.024l88.583,89.483c1.407,1.422,1.397,3.714-0.025,5.12
			C150.638,181.24,149.717,181.589,148.796,181.589z"/>
		<path id="path-4_24_" style="fill:#FBB713;" d="M12.082,39.9l36.247,12.205l24.164-24.409l-4.027,36.615l36.247,20.339
			l-39.274,9.148l-9.055,39.67L36.247,96.854L0,100.924l24.164-24.41L12.082,39.9z"/>
		<path id="path-5_24_" style="opacity:0.35;enable-background:new    ;" d="M63.5,59.343l5.192,2.915l3.801-34.562l-6.201,6.264
			L63.5,59.343z"/>
		<path id="path-6_24_" style="opacity:0.35;enable-background:new    ;" d="M97.003,80.323l-36.53,8.509l-8.4,36.8l4.311,7.836
			l9.055-39.67l39.273-9.148L97.003,80.323z"/>
		<path id="path-7_23_" style="opacity:0.35;enable-background:new    ;" d="M31.28,91.888L6.151,94.71L0,100.924l34.141-3.833
			L31.28,91.888z"/>
	</g>
</g>
<g>
</g>
<g>
</g>
<g>
</g>
<g>
</g>
<g>
</g>
<g>
</g>
<g>
</g>
<g>
</g>
<g>
</g>
<g>
</g>
<g>
</g>
<g>
</g>
<g>
</g>
<g>
</g>
<g>
</g>
</svg>
