<?xml version="1.0" encoding="iso-8859-1"?>
<!-- Generator: Adobe Illustrator 19.1.0, SVG Export Plug-In . SVG Version: 6.00 Build 0)  -->
<svg version="1.1" id="Capa_1" xmlns="http://www.w3.org/2000/svg" xmlns:xlink="http://www.w3.org/1999/xlink" x="0px" y="0px"
	 viewBox="0 0 216.292 216.292" style="enable-background:new 0 0 216.292 216.292;" xml:space="preserve">
<g>
	<g id="group-95svg">
		<path id="path-1_163_" style="fill:#0CB04A;" d="M112.179,199.227h-10.688c-2.06,0-3.731,1.262-3.731,2.818
			c0,1.557,1.671,2.82,3.731,2.82h0.498c2.06,0,3.731,1.261,3.731,2.818c0,1.558-1.671,2.819-3.731,2.819H79.014
			c-2.061,0-3.731,1.262-3.731,2.82c0,1.556,1.67,2.817,3.731,2.817h27.61h56.434c2.061,0,3.732-1.261,3.732-2.817
			c0-1.558-1.671-2.82-3.732-2.82h-6.376c-2.061,0-3.732-1.261-3.732-2.819c0-1.557,1.671-2.818,3.732-2.818h30.347
			c2.06,0,3.73-1.263,3.73-2.82c0-1.556-1.67-2.818-3.73-2.818h-7.173H112.179z"/>
		<path id="path-2_163_" style="fill:#0CB04A;" d="M57.406,139.54h-5.985c-1.155,0-2.09,1.262-2.09,2.818
			c0,1.557,0.935,2.818,2.09,2.818h0.278c1.154,0,2.09,1.263,2.09,2.82c0,1.557-0.936,2.819-2.09,2.819H38.831
			c-1.154,0-2.09,1.262-2.09,2.819c0,1.557,0.936,2.82,2.09,2.82h15.464h31.608c1.154,0,2.09-1.263,2.09-2.82
			c0-1.557-0.936-2.819-2.09-2.819h-3.571c-1.155,0-2.09-1.262-2.09-2.819c0-1.557,0.935-2.82,2.09-2.82h16.996
			c1.154,0,2.09-1.261,2.09-2.818c0-1.556-0.936-2.818-2.09-2.818h-4.017H57.406z"/>
		<path id="path-3_163_" style="fill:#0CB04A;" d="M187.139,216.292c-2.55,0-4.617-0.879-4.617-1.966
			c0-1.084,2.067-1.964,4.617-1.964h14.147c2.55,0,4.617,0.88,4.617,1.964c0,1.087-2.067,1.966-4.617,1.966H187.139z"/>
		<path id="path-4_162_" style="fill:#0CB04A;" d="M23.71,216.292c-2.55,0-4.617-0.879-4.617-1.966c0-1.084,2.067-1.964,4.617-1.964
			h14.147c2.55,0,4.617,0.88,4.617,1.964c0,1.087-2.067,1.966-4.617,1.966H23.71z"/>
		<path id="path-5_162_" style="fill:#DDC100;" d="M174.915,79.534l-0.767,1.912c-0.147,0.368,0.189,0.847,0.753,1.068
			c0.564,0.222,1.141,0.102,1.289-0.265l0.035-0.09c0.147-0.369,0.724-0.487,1.288-0.266c0.563,0.223,0.901,0.7,0.753,1.069
			l-1.647,4.11c-0.148,0.368,0.189,0.847,0.752,1.068c0.564,0.222,1.141,0.103,1.288-0.266l1.98-4.938l4.046-10.094
			c0.149-0.369-0.189-0.848-0.752-1.069c-0.564-0.222-1.141-0.103-1.288,0.266l-0.457,1.14c-0.148,0.369-0.725,0.488-1.289,0.266
			c-0.563-0.222-0.9-0.7-0.752-1.069l2.175-5.427c0.148-0.369-0.189-0.847-0.753-1.069c-0.563-0.222-1.14-0.103-1.288,0.265
			l-0.514,1.283L174.915,79.534z"/>
		<path id="path-6_160_" style="fill:#DDC100;" d="M169.973,101.248c-0.684,1.709-2.139,2.74-3.247,2.305
			c-1.11-0.437-1.453-2.176-0.768-3.885l3.802-9.483c0.685-1.709,2.139-2.741,3.247-2.305c1.109,0.436,1.452,2.176,0.768,3.885
			L169.973,101.248z"/>
		<path id="path-7_159_" style="fill:#DDC100;" d="M200.816,100.379l-1.906,0.814c-0.368,0.157-0.472,0.732-0.231,1.283
			c0.241,0.553,0.733,0.872,1.101,0.715l0.088-0.038c0.368-0.157,0.861,0.162,1.101,0.714c0.24,0.551,0.137,1.126-0.23,1.284
			l-4.099,1.751c-0.367,0.157-0.47,0.732-0.23,1.284s0.733,0.871,1.101,0.714l4.924-2.105l10.067-4.304
			c0.367-0.157,0.471-0.732,0.23-1.284c-0.24-0.551-0.733-0.87-1.1-0.713l-1.138,0.485c-0.367,0.158-0.86-0.162-1.1-0.713
			c-0.241-0.552-0.137-1.127,0.231-1.284l5.412-2.313c0.368-0.157,0.471-0.732,0.231-1.284c-0.24-0.551-0.733-0.872-1.101-0.714
			l-1.279,0.547L200.816,100.379z"/>
		<path id="path-8_155_" style="fill:#DDC100;" d="M181.824,112.272c-1.705,0.728-3.469,0.439-3.942-0.645
			c-0.472-1.086,0.525-2.555,2.23-3.284l9.457-4.043c1.704-0.729,3.469-0.44,3.942,0.646c0.472,1.084-0.526,2.554-2.231,3.283
			L181.824,112.272z"/>
		<path id="path-9_149_" style="fill:#DDC100;" d="M102.203,13.767l-0.766,1.911c-0.148,0.368,0.189,0.847,0.752,1.069
			c0.564,0.222,1.141,0.103,1.289-0.266l0.036-0.089c0.147-0.369,0.724-0.488,1.288-0.266c0.563,0.222,0.9,0.701,0.752,1.068
			l-1.647,4.11c-0.148,0.369,0.189,0.848,0.753,1.07c0.564,0.221,1.14,0.102,1.288-0.266l1.98-4.939l4.046-10.094
			c0.148-0.369-0.189-0.847-0.753-1.069c-0.563-0.222-1.14-0.103-1.288,0.266l-0.457,1.141c-0.148,0.368-0.725,0.487-1.288,0.265
			c-0.564-0.222-0.901-0.7-0.753-1.069l2.176-5.427c0.147-0.369-0.19-0.848-0.753-1.07c-0.564-0.222-1.141-0.103-1.289,0.266
			l-0.514,1.283L102.203,13.767z"/>
		<path id="path-10_134_" style="fill:#DDC100;" d="M97.262,35.481c-0.684,1.709-2.138,2.74-3.247,2.305
			c-1.109-0.437-1.452-2.176-0.767-3.884l3.801-9.484c0.686-1.708,2.139-2.741,3.248-2.304c1.108,0.435,1.452,2.174,0.767,3.883
			L97.262,35.481z"/>
		<path id="path-11_118_" style="fill:#DDC100;" d="M128.105,34.612l-1.906,0.814c-0.368,0.158-0.471,0.732-0.23,1.284
			c0.24,0.551,0.733,0.871,1.1,0.714l0.089-0.038c0.367-0.157,0.86,0.163,1.101,0.713c0.24,0.552,0.136,1.127-0.231,1.284
			l-4.098,1.752c-0.368,0.158-0.471,0.731-0.23,1.284c0.239,0.551,0.732,0.871,1.1,0.714l4.925-2.106l10.066-4.303
			c0.368-0.157,0.471-0.732,0.231-1.282c-0.241-0.554-0.733-0.873-1.1-0.716l-1.138,0.487c-0.368,0.157-0.86-0.163-1.101-0.715
			c-0.24-0.551-0.137-1.125,0.231-1.283l5.413-2.313c0.367-0.157,0.47-0.733,0.23-1.284c-0.24-0.552-0.733-0.871-1.1-0.713
			l-1.28,0.545L128.105,34.612z"/>
		<path id="path-12_101_" style="fill:#DDC100;" d="M109.112,46.505c-1.704,0.728-3.469,0.439-3.941-0.645
			c-0.473-1.085,0.525-2.556,2.23-3.284l9.456-4.043c1.705-0.729,3.469-0.44,3.942,0.645c0.473,1.086-0.526,2.555-2.23,3.284
			L109.112,46.505z"/>
		<path id="path-13_85_" style="fill:#EDEDED;" d="M82.047,80.333L60.326,58.817l22.132-21.925l21.72,21.517L82.047,80.333z"/>
		<path id="path-14_67_" style="fill:#EDEDED;" d="M152.637,150.263l-21.72-21.517l22.131-21.923l21.72,21.516L152.637,150.263z"/>
		<path id="path-15_56_" style="fill:#FF3A2F;" d="M130.917,128.746l-34.885,34.56c-13.499,13.369-35.377,13.369-48.872,0
			c-13.495-13.37-13.495-35.044,0-48.416l34.886-34.557L60.326,58.815L20.009,98.753c-25.485,25.253-25.485,66.199,0,91.449
			c25.496,25.253,66.827,25.253,92.313-0.002l40.316-39.935L130.917,128.746z"/>
		<path id="path-16_45_" style="opacity:0.25;fill:#020403;enable-background:new    ;" d="M94.578,48.9L78.206,65.118
			l-17.881-6.301l21.721,21.516l22.131-21.924L94.578,48.9z"/>
		<path id="path-17_38_" style="opacity:0.25;fill:#020403;enable-background:new    ;" d="M165.169,118.83l-16.372,16.219
			l-17.88-6.303l21.72,21.517l22.131-21.924L165.169,118.83z"/>
		<path id="path-18_29_" style="opacity:0.35;fill:#020403;enable-background:new    ;" d="M43.321,99.675
			c-10.912,10.814-12.991,27.051-6.257,39.939c-0.135-8.933,3.217-17.907,10.097-24.724l34.886-34.557l-9.6-9.51L43.321,99.675z"/>
		<path id="path-19_23_" style="opacity:0.35;fill:#020403;enable-background:new    ;" d="M143.038,140.755l-34.557,34.23
			c-25.487,25.255-66.816,25.255-92.312,0c-6.65-6.588-11.523-14.257-14.702-22.426c1.74,13.76,7.879,27.078,18.541,37.641
			c25.496,25.255,66.827,25.255,92.313,0l40.316-39.935L143.038,140.755z"/>
	</g>
</g>
<g>
</g>
<g>
</g>
<g>
</g>
<g>
</g>
<g>
</g>
<g>
</g>
<g>
</g>
<g>
</g>
<g>
</g>
<g>
</g>
<g>
</g>
<g>
</g>
<g>
</g>
<g>
</g>
<g>
</g>
</svg>
