<?xml version="1.0" encoding="iso-8859-1"?>
<!-- Generator: Adobe Illustrator 19.1.0, SVG Export Plug-In . SVG Version: 6.00 Build 0)  -->
<svg version="1.1" id="Capa_1" xmlns="http://www.w3.org/2000/svg" xmlns:xlink="http://www.w3.org/1999/xlink" x="0px" y="0px"
	 viewBox="0 0 217.229 217.229" style="enable-background:new 0 0 217.229 217.229;" xml:space="preserve">
<g>
	<g id="group-53svg">
		<path id="path-1_109_" style="fill:#2476FF;" d="M70.756,165.48H50.261c-3.952,0-7.156,1.716-7.156,3.835
			c0,2.117,3.204,3.833,7.156,3.833h0.953c3.952,0,7.156,1.717,7.156,3.835c0,2.118-3.204,3.833-7.156,3.833H7.155
			c-3.951,0-7.155,1.718-7.155,3.837c0,2.117,3.204,3.833,7.155,3.833h52.948h108.224c3.952,0,7.155-1.716,7.155-3.833
			c0-2.119-3.203-3.837-7.155-3.837h-12.228c-3.951,0-7.155-1.715-7.155-3.833c0-2.118,3.204-3.835,7.155-3.835h48.025
			c3.952,0,7.156-1.716,7.156-3.833c0-2.119-3.204-3.835-7.156-3.835h-3.584H70.756z"/>
		<path id="path-2_109_" style="fill:#2476FF;" d="M196.743,188.831c-2.784,0-5.04-1.214-5.04-2.713c0-1.497,2.256-2.711,5.04-2.711
			h15.445c2.784,0,5.041,1.214,5.041,2.711c0,1.499-2.257,2.713-5.041,2.713H196.743z"/>
		<path id="path-3_109_" style="fill:#142A3B;" d="M172.08,170.062L172.08,170.062c-0.901,0-1.632-0.729-1.632-1.631v-11.055
			c0-0.901,0.731-1.631,1.632-1.631l0,0c0.902,0,1.632,0.73,1.632,1.631v11.055C173.712,169.333,172.982,170.062,172.08,170.062z"/>
		<path id="path-4_109_" style="fill:#142A3B;" d="M61.624,170.062L61.624,170.062c-0.901,0-1.632-0.729-1.632-1.631v-11.055
			c0-0.901,0.731-1.631,1.632-1.631l0,0c0.902,0,1.632,0.73,1.632,1.631v11.055C63.256,169.333,62.526,170.062,61.624,170.062z"/>
		<path id="path-5_108_" style="fill:#142A3B;" d="M116.852,170.062L116.852,170.062c-0.901,0-1.632-0.729-1.632-1.631v-11.055
			c0-0.901,0.731-1.631,1.632-1.631l0,0c0.901,0,1.633,0.73,1.633,1.631v11.055C118.485,169.333,117.753,170.062,116.852,170.062z"
			/>
		<path id="path-6_105_" style="fill:#0CB04A;" d="M114.959,61.428v97.385h71.81v-2.729v-3.265V61.428
			c0-21.227-18.686-33.03-40.801-33.03l-67.385,0.595C100.182,28.993,114.959,39.83,114.959,61.428z"/>
		<path id="path-7_102_" style="opacity:0.35;enable-background:new    ;" d="M114.959,61.428v97.385h71.81v-2.729v-3.265V61.428
			H114.959z"/>
		<path id="path-8_80_" style="fill:#FBB713;" d="M117.635,158.813V61.428c0-17.996-14.643-32.638-32.64-32.638H63.39
			c-10.574,7.024-17.564,19.022-17.564,32.638v91.391v3.265v2.729H117.635z"/>
		<path id="path-9_68_" style="opacity:0.2;enable-background:new    ;" d="M84.995,28.79H69.654
			c17.997,0,32.64,14.641,32.64,32.638v97.385h15.341V61.428C117.635,43.431,102.992,28.79,84.995,28.79z"/>
		<path id="path-10_62_" style="fill:#142A3B;" d="M99.02,67.957H70.97L84.995,79.98L99.02,67.957z"/>
		<path id="path-11_52_" style="fill:#142A3B;" d="M87.118,86.756c-0.61,0.523-1.368,0.784-2.123,0.784
			c-0.756,0-1.514-0.261-2.123-0.784L65.41,71.795v28.801h39.169V71.795L87.118,86.756z"/>
		<path id="path-12_45_" style="fill:#142A3B;" d="M108.04,103.861c0,1.803-1.46,3.263-3.265,3.263H59.078
			c-1.804,0-3.264-1.46-3.264-3.263V64.692c0-0.158,0.07-0.293,0.089-0.445c0.033-0.229,0.058-0.459,0.138-0.675
			c0.085-0.23,0.217-0.422,0.347-0.626c0.082-0.12,0.115-0.261,0.214-0.376c0.025-0.032,0.064-0.044,0.092-0.07
			c0.166-0.185,0.376-0.319,0.58-0.459c0.15-0.102,0.28-0.216,0.443-0.293c0.182-0.089,0.385-0.115,0.583-0.16
			c0.217-0.057,0.428-0.122,0.651-0.133c0.044,0,0.083-0.027,0.127-0.027h45.697c0.045,0,0.083,0.027,0.127,0.027
			c0.23,0.011,0.44,0.076,0.663,0.133c0.192,0.051,0.393,0.071,0.571,0.16c0.163,0.077,0.296,0.197,0.45,0.305
			c0.204,0.134,0.408,0.268,0.573,0.447c0.029,0.026,0.067,0.038,0.093,0.07c0.098,0.115,0.13,0.256,0.213,0.376
			c0.131,0.204,0.262,0.396,0.347,0.626c0.081,0.216,0.107,0.446,0.138,0.675c0.019,0.152,0.09,0.287,0.09,0.445V103.861z"/>
		<path id="path-13_35_" style="fill:#142A3B;" d="M128.015,61.428h39.169c1.805,0,3.264,1.461,3.264,3.264
			c0,1.805-1.459,3.265-3.264,3.265h-39.169c-1.804,0-3.264-1.46-3.264-3.265C124.751,62.889,126.211,61.428,128.015,61.428z"/>
		<path id="path-14_30_" style="fill:#142A3B;" d="M170.448,81.013h-45.697c-1.804,0-3.264,1.46-3.264,3.263v39.168
			c0,1.804,1.46,3.265,3.264,3.265h45.697c1.804,0,3.264-1.461,3.264-3.265V84.276C173.712,82.473,172.252,81.013,170.448,81.013z
			 M167.184,120.18h-39.169V87.54h39.169V120.18z"/>
	</g>
</g>
<g>
</g>
<g>
</g>
<g>
</g>
<g>
</g>
<g>
</g>
<g>
</g>
<g>
</g>
<g>
</g>
<g>
</g>
<g>
</g>
<g>
</g>
<g>
</g>
<g>
</g>
<g>
</g>
<g>
</g>
</svg>
