<?xml version="1.0" encoding="iso-8859-1"?>
<!-- Generator: Adobe Illustrator 19.1.0, SVG Export Plug-In . SVG Version: 6.00 Build 0)  -->
<svg version="1.1" id="Capa_1" xmlns="http://www.w3.org/2000/svg" xmlns:xlink="http://www.w3.org/1999/xlink" x="0px" y="0px"
	 viewBox="0 0 217.229 217.229" style="enable-background:new 0 0 217.229 217.229;" xml:space="preserve">
<g>
	<g id="group-144svg">
		<path id="path-1_50_" style="fill:#FF3A2F;" d="M161.056,205.499h16.271c3.137,0,5.681-1.924,5.681-4.298
			c0-2.376-2.544-4.3-5.681-4.3h-0.757c-3.138,0-5.681-1.925-5.681-4.3c0-2.374,2.543-4.299,5.681-4.299h34.978
			c3.138,0,5.681-1.923,5.681-4.299c0-2.374-2.543-4.298-5.681-4.298h-42.035H83.594c-3.138,0-5.68,1.924-5.68,4.298
			c0,2.376,2.542,4.299,5.68,4.299h9.707c3.138,0,5.681,1.925,5.681,4.299c0,2.375-2.543,4.3-5.681,4.3H55.174
			c-3.137,0-5.68,1.924-5.68,4.3c0,2.374,2.543,4.298,5.68,4.298h2.846H161.056z"/>
		<path id="path-2_50_" style="fill:#FF3A2F;" d="M60.142,178.553c2.629,0,4.762,2.063,4.762,4.608c0,2.545-2.133,4.606-4.762,4.606
			H45.547c-2.63,0-4.762-2.061-4.762-4.606c0-2.545,2.132-4.608,4.762-4.608H60.142z"/>
		<path id="path-3_50_" style="fill:#0CB04A;" d="M61.691,11.73L0,27.153v146.51l61.691-15.423l53.979,30.844l61.691-15.421V27.153
			L115.67,42.575L61.691,11.73L61.691,11.73z"/>
		<path id="path-4_50_" style="fill:#0CB04A;" d="M115.67,189.084V42.575L61.691,11.73v146.51L115.67,189.084z"/>
		<path id="path-5_50_" style="opacity:0.35;enable-background:new    ;" d="M115.67,189.084V42.575L61.691,11.73v146.51
			L115.67,189.084z"/>
	</g>
</g>
<g>
</g>
<g>
</g>
<g>
</g>
<g>
</g>
<g>
</g>
<g>
</g>
<g>
</g>
<g>
</g>
<g>
</g>
<g>
</g>
<g>
</g>
<g>
</g>
<g>
</g>
<g>
</g>
<g>
</g>
</svg>
