<?xml version="1.0" encoding="iso-8859-1"?>
<!-- Generator: Adobe Illustrator 19.1.0, SVG Export Plug-In . SVG Version: 6.00 Build 0)  -->
<svg version="1.1" id="Capa_1" xmlns="http://www.w3.org/2000/svg" xmlns:xlink="http://www.w3.org/1999/xlink" x="0px" y="0px"
	 viewBox="0 0 218.332 218.332" style="enable-background:new 0 0 218.332 218.332;" xml:space="preserve">
<g>
	<g id="group-16svg">
		<path id="path-1_67_" style="fill:#FBB713;" d="M157.707,162.99h9.999h21.43c2.136,0,3.866-0.649,3.866,2.001
			c0,2.649-1.73,1.999-3.866,1.999h-22.597c-2.135,0-3.866,4.351-3.866,7s1.731,7,3.866,7h9.491h17.007h21.429
			c2.135,0,3.866,2.851,3.866,5.5c0,2.648-1.731,5.5-3.866,5.5H191.87c-1.489,0-2.782,1.466-3.427,3.174
			c-0.49,1.294-1.707,2.406-3.102,2.405c-18.053-0.005-120.924,6.194-122.192,0.054c-0.947-4.588-34.718-5.633-36.687-5.633H3.866
			c-2.135,0-3.866-2.852-3.866-5.5c0-2.649,1.731-5.5,3.866-5.5h21.429h17.009h9.489c2.135,0,3.867-4.351,3.867-7s-1.732-7-3.867-7
			H29.197c-2.135,0-3.866,0.65-3.866-1.999c0-2.65,1.731-2.001,3.866-2.001h21.429h8.742H157.707z"/>
		<path id="path-2_67_" style="fill:#FF3A2F;" d="M151.749,59.968l0.099,1.007c-3.148,3.119-7.67,3.193-10.91,0.168l-2.47-2.568
			c-3.091-2.886-7.752-2.969-10.942-0.19l-2.44,2.185c-2.985,2.599-7.382,2.714-10.501,0.276l-5.18-4.066
			c-2.799-2.188-6.692-2.344-9.658-0.384l-4.421,2.921c-3.013,1.991-6.982,1.796-9.783-0.478l-3.406-2.766
			c-3.051-2.477-7.446-2.463-10.48,0.035l-5.118,4.214c-2.01,1.656-5.706,1.974-8.007,0.742c-1.088-0.582-1.593-0.99-4.593-1.268
			v84.908c0,16.548,13.244,25.286,27.453,25.286h56.277c14.209,0,21.264-8.738,21.264-25.286V58.406
			C158.933,56.933,154.304,57.438,151.749,59.968z"/>
		<path id="path-3_67_" style="fill:#DDC100;" d="M163.396,36.086h-0.649c0.217,0,0.433,0.018,0.649,0.035V36.086z"/>
		<path id="path-4_67_" style="opacity:0.25;fill:#020403;enable-background:new    ;" d="M151.602,57.833l-0.611,1.007
			c-1.852,1.837-4.303,2.588-6.668,2.301v73.563c0,16.549-9.889,28.002-24.098,28.002H63.949c-1.045,0-2.077-0.079-3.099-0.201
			c4.948,5.091,11.748,8.067,18.976,8.067h56.278c15.714,0,23.447-7.209,24.098-28.003V56.271
			C160.202,54.799,154.155,55.302,151.602,57.833z"/>
		<path id="path-5_67_" style="opacity:0.35;fill:#020403;enable-background:new    ;" d="M108.936,42.392v41.724
			c0,0-4.999,1.715-4.999,3.83v22.384c0,2.116-2.327,3.831-5,3.831c-2.675,0-5-1.715-5-3.831V89.103V72.254v-9.402
			c0-2.115-2.826-3.83-5.5-3.83c-2.674,0-5.499,1.715-5.499,3.83v22.386c0,2.115-0.827,3.83-3.5,3.83c-2.675,0-3.5-1.715-3.5-3.83
			v-21.23V39.522L108.936,42.392z"/>
		<path id="path-6_66_" style="fill:#FBB713;" d="M100.937,42.392v49.59c0,0-3,1.714-3,3.829v22.385c0,2.116-4.826,3.831-7.5,3.831
			c-2.675,0-7.499-1.715-7.499-3.831V96.967V80.118v-9.4c0-2.116-0.827-3.831-3.5-3.831c-2.675,0-3.5,1.715-3.5,3.831v22.384
			c0,2.115-1.326,3.83-3.999,3.83c-2.675,0-4-1.715-4-3.83V71.873V47.388L100.937,42.392z"/>
		<path id="path-7_66_" style="opacity:0.35;fill:#020403;enable-background:new    ;" d="M160.006,72.865V61.068
			c-2.9-1.032-4.506-1.126-6.84,1.186l-1.017,1.007c-3.148,3.119-8.229,3.192-11.469,0.167l-2.748-2.567
			c-3.091-2.886-7.892-2.97-11.082-0.19l-2.509,2.184c-2.985,2.599-7.417,2.715-10.536,0.276l-5.198-4.066
			c-2.799-2.189-6.701-2.345-9.668-0.386l-4.424,2.92c-3.013,1.99-6.985,1.792-9.786-0.481l-3.407-2.775
			c-3.05-2.478-7.446-2.479-10.479,0.019l-5.119,4.182c-2.011,1.656-4.844,1.911-7.144,0.68c-1.151-0.617-2.524-1.006-3.994-1.287
			v11.756c1.48,0.28,2.836,0.708,3.994,1.327c2.3,1.233,5.133,0.978,7.144-0.678l5.119-4.183c3.033-2.497,7.429-2.496,10.479-0.019
			l3.407,2.775c2.801,2.274,6.773,2.472,9.786,0.483l4.424-2.921c2.967-1.959,6.869-1.803,9.668,0.385l5.198,4.066
			c3.119,2.44,7.551,2.323,10.536-0.275l2.509-2.186c3.19-2.777,7.991-2.695,11.082,0.192l2.748,2.567
			c3.24,3.025,8.321,2.95,11.469-0.168l1.017-1.007C155.5,71.739,157.106,71.834,160.006,72.865z"/>
		<path id="path-8_64_" style="fill:#142A3B;" d="M52.14,40.895L26.816,66.74c0,0,22.332-7.169,31.764-2.121
			c2.3,1.232,5.132,1.103,7.144-0.553l5.119-4.12c3.033-2.497,7.429-2.465,10.479,0.013l3.407,2.789
			c2.801,2.274,6.773,2.48,9.786,0.491l4.424-2.917c2.967-1.959,6.869-1.801,9.668,0.388l5.198,4.066
			c3.119,2.439,7.551,2.325,10.536-0.274l2.509-2.186c3.19-2.777,7.991-2.694,11.082,0.192l2.748,2.567
			c3.24,3.026,8.32,2.951,11.469-0.167l1.017-1.008c3.288-3.257,8.646-3.172,11.827,0.19l2.814,2.975
			c1.905,2.013,4.837,2.755,7.459,1.822c4.65-1.656,12.231-3.209,16.979,1.762l-24.066-29.297c-1.564-1.807-3.846-4.358-6.247-4.358
			H57.962C55.779,36.994,53.685,39.365,52.14,40.895z"/>
		<path id="path-9_61_" style="fill:#142A3B;" d="M173.933,32c0,6.516-5.481,10.995-12.058,10.995H51.055
			c-6.578,0-11.115-4.479-11.115-10.995v-1.64c0-6.516,4.537-12.365,11.115-12.365h110.82c6.577,0,12.058,5.849,12.058,12.365V32z"
			/>
		<path id="path-10_56_" style="opacity:0.25;fill:#020403;enable-background:new    ;" d="M162.454,19.942h-0.73
			c0.444,1.235,0.73,2.546,0.73,3.932c0,6.516-5.332,11.798-11.909,11.798H40.124c1.639,4.572,6.001,7.865,11.179,7.865h111.151
			c6.576,0,11.909-5.282,11.909-11.797C174.363,25.224,169.03,19.942,162.454,19.942z"/>
		<path id="path-11_48_" style="fill:#FFFFFF;" d="M67.105,152.199c-2.011,0-3.639-1.614-3.639-3.605v-29.895
			c0-1.991,1.628-3.604,3.639-3.604s3.639,1.613,3.639,3.604v29.895C70.744,150.585,69.116,152.199,67.105,152.199z"/>
	</g>
</g>
<g>
</g>
<g>
</g>
<g>
</g>
<g>
</g>
<g>
</g>
<g>
</g>
<g>
</g>
<g>
</g>
<g>
</g>
<g>
</g>
<g>
</g>
<g>
</g>
<g>
</g>
<g>
</g>
<g>
</g>
</svg>
