<?xml version="1.0" encoding="iso-8859-1"?>
<!-- Generator: Adobe Illustrator 19.1.0, SVG Export Plug-In . SVG Version: 6.00 Build 0)  -->
<svg version="1.1" id="Capa_1" xmlns="http://www.w3.org/2000/svg" xmlns:xlink="http://www.w3.org/1999/xlink" x="0px" y="0px"
	 viewBox="0 0 221.71 221.71" style="enable-background:new 0 0 221.71 221.71;" xml:space="preserve">
<g>
	<g id="group-75svg">
		<path id="path-1_141_" style="fill:#FF3A2F;" d="M206.191,185.369H20.914V67.845h185.277V185.369z"/>
		<path id="path-2_141_" style="opacity:0.35;fill:#020403;enable-background:new    ;" d="M206.191,174.555H20.915v10.814h185.276
			V174.555z"/>
		<path id="path-3_141_" style="fill:#142A3B;" d="M170.995,163.043H56.109V90.17h114.886V163.043z"/>
		<path id="path-4_140_" style="fill:#FFE56D;" d="M100.727,142.829c0,0-13.591-5.896,0-27.871c0,0,1.285,8.576,3.921,10.719
			c0,0,3.996-10.719,8.996-10.719c0,0,3.496,1.072,0.462-8.575c0,0,4.028,2.144,5.637,10.183c0,0,1.096,2.68,0,8.039
			c0,0,7.191-3.214,7.106-12.327c0,0,12.531,16.08,0.001,30.551C118.689,148.127,109.99,148.206,100.727,142.829z"/>
		<path id="path-5_140_" style="fill:#FF3A2F;" d="M105.839,147.179c0,0-8.174-3.547,0-16.763c0,0,0.772,5.158,2.358,6.447
			c0,0,2.403-6.447,5.411-6.447c0,0,2.103,0.644,0.277-5.159c0,0,2.423,1.29,3.391,6.126c0,0,0.659,1.611,0,4.835
			c0,0,4.325-1.934,4.273-7.415c0,0,7.537,9.672,0,18.376C116.642,150.364,111.409,150.412,105.839,147.179z"/>
		<path id="path-6_138_" style="fill:#142A3B;" d="M206.191,45.982H56.109v-7.454h150.082V45.982z"/>
		<path id="path-7_138_" style="fill:#FF3A2F;" d="M58.441,35.913c-8.823-2.958-18.884-5.84-24.627-5.84
			c-11.814,0-21.392,5.455-21.392,12.183c0,6.727,9.578,12.18,21.392,12.18c5.743,0,15.804-2.881,24.627-5.84V35.913z"/>
		<path id="path-8_135_" style="opacity:0.35;fill:#020403;enable-background:new    ;" d="M13.376,38.649
			c-0.617,1.141-0.954,2.35-0.954,3.607c0,6.727,9.578,12.18,21.392,12.18c5.743,0,15.804-2.881,24.627-5.84v-7.21
			c-8.823,2.96-18.884,5.841-24.627,5.841C24.203,47.227,16.075,43.617,13.376,38.649z"/>
		<path id="path-9_129_" style="fill:#2476FF;" d="M182.782,10.58h8.79c1.696,0,3.071,0.756,3.071,1.689
			c0,0.933-1.375,1.688-3.071,1.688h-0.409c-1.694,0-3.069,0.757-3.069,1.691c0,0.931,1.375,1.688,3.069,1.688h12.805
			c1.695,0,3.069,0.756,3.069,1.69c0,0.933-1.374,1.689-3.069,1.689h-16.617h-24.962c-1.696,0-3.07-0.756-3.07-1.689
			c0-0.934,1.374-1.69,3.07-1.69h5.245c1.694,0,3.069-0.757,3.069-1.688c0-0.934-1.375-1.691-3.069-1.691h-24.963
			c-1.695,0-3.069-0.755-3.069-1.688c0-0.933,1.374-1.689,3.069-1.689h5.899H182.782z"/>
		<path id="path-10_118_" style="fill:#2476FF;" d="M211.154,199.279h3.826c0.737,0,1.335,0.756,1.335,1.689s-0.598,1.69-1.335,1.69
			h-0.179c-0.737,0-1.335,0.755-1.335,1.688s0.598,1.689,1.335,1.689h5.572c0.738,0,1.337,0.757,1.337,1.69
			c0,0.932-0.599,1.688-1.337,1.688h-7.23h-10.862c-0.738,0-1.336-0.756-1.336-1.688c0-0.933,0.598-1.69,1.336-1.69h2.282
			c0.738,0,1.336-0.756,1.336-1.689s-0.598-1.688-1.336-1.688h-10.862c-0.738,0-1.336-0.757-1.336-1.69s0.598-1.689,1.336-1.689
			h2.567H211.154z"/>
		<path id="path-11_104_" style="fill:#2476FF;" d="M61.109,197.559h12.443c2.398,0,4.343,1.012,4.343,2.261
			c0,1.249-1.945,2.262-4.343,2.262h-0.579c-2.399,0-4.345,1.013-4.345,2.262c0,1.249,1.946,2.262,4.345,2.262h18.122
			c2.398,0,4.342,1.012,4.342,2.262c0,1.249-1.944,2.262-4.342,2.262H67.577h-35.33c-2.398,0-4.343-1.013-4.343-2.262
			c0-1.25,1.945-2.262,4.343-2.262h7.424c2.399,0,4.343-1.013,4.343-2.262c0-1.249-1.944-2.262-4.343-2.262H4.343
			c-2.399,0-4.343-1.013-4.343-2.262c0-1.249,1.944-2.261,4.343-2.261h8.349H61.109z"/>
		<path id="path-12_89_" style="fill:#2476FF;" d="M145.339,21.922c1.41,0,2.554-0.629,2.554-1.406c0-0.776-1.144-1.406-2.554-1.406
			h-7.831c-1.411,0-2.555,0.63-2.555,1.406c0,0.777,1.144,1.406,2.555,1.406H145.339z"/>
	</g>
</g>
<g>
</g>
<g>
</g>
<g>
</g>
<g>
</g>
<g>
</g>
<g>
</g>
<g>
</g>
<g>
</g>
<g>
</g>
<g>
</g>
<g>
</g>
<g>
</g>
<g>
</g>
<g>
</g>
<g>
</g>
</svg>
