<?xml version="1.0" encoding="iso-8859-1"?>
<!-- Generator: Adobe Illustrator 19.1.0, SVG Export Plug-In . SVG Version: 6.00 Build 0)  -->
<svg version="1.1" id="Capa_1" xmlns="http://www.w3.org/2000/svg" xmlns:xlink="http://www.w3.org/1999/xlink" x="0px" y="0px"
	 viewBox="0 0 217.228 217.228" style="enable-background:new 0 0 217.228 217.228;" xml:space="preserve">
<g>
	<g id="group-108svg">
		<path id="path-1_10_" style="fill:#FBB713;" d="M101.502,135.746H85.845c-3.019,0-5.466,1.851-5.466,4.137
			c0,2.285,2.447,4.136,5.466,4.136h0.729c3.019,0,5.466,1.853,5.466,4.137c0,2.285-2.447,4.138-5.466,4.138H52.917
			c-3.019,0-5.466,1.851-5.466,4.137c0,2.283,2.447,4.136,5.466,4.136h40.447h82.672c3.019,0,5.466-1.853,5.466-4.136
			c0-2.286-2.447-4.137-5.466-4.137h-9.341c-3.018,0-5.465-1.853-5.465-4.138c0-2.284,2.447-4.137,5.465-4.137h36.687
			c3.019,0,5.466-1.851,5.466-4.136c0-2.286-2.447-4.137-5.466-4.137h-2.738H101.502z"/>
		<path id="path-2_10_" style="fill:#FBB713;" d="M198.603,161.674c-2.532,0-4.583-1.985-4.583-4.433s2.051-4.433,4.583-4.433
			h14.042c2.531,0,4.583,1.985,4.583,4.433s-2.052,4.433-4.583,4.433H198.603z"/>
		<path id="path-3_10_" style="fill:#FBB713;" d="M4.581,161.674c-2.53,0-4.581-1.985-4.581-4.433s2.051-4.433,4.581-4.433h14.043
			c2.531,0,4.583,1.985,4.583,4.433s-2.052,4.433-4.583,4.433H4.581z"/>
		<path id="path-4_10_" style="fill:#FF3A2F;" d="M33.306,79.695c0,0-16.726,41.165,82.709,40.862
			c99.437-0.299,98.83-34.852,91.526-40.862c-7.294-6.01-10.637-9.017-43.782-8.416c-27.691-1.055-40.913-11.319-60.691-14.363
			C79.62,53.306,43.03,55.592,33.306,79.695z"/>
		<path id="path-5_10_" style="fill:#FF3A2F;" d="M32.251,88.382v17.044c0.035,11.615,9.52,34.505,83.767,34.282
			c79.429-0.24,95.013-22.334,94.355-34.282V88.382l0,0"/>
		<path id="path-6_10_" style="opacity:0.35;enable-background:new    ;" d="M210.373,88.382v17.044
			c0.658,11.948-14.926,34.042-94.355,34.282c-74.247,0.223-83.732-22.667-83.767-34.282V88.382c0,0,4.509,42.434,123.318,25.663
			C155.569,114.045,206.914,109.761,210.373,88.382z"/>
		<path id="path-7_10_" style="fill:#FBB713;" d="M88.747,83.766c0,5.143-7.081,9.317-15.81,9.317
			c-8.734,0-15.813-4.174-15.813-9.317s7.079-9.314,15.813-9.314C81.666,74.452,88.747,78.623,88.747,83.766z"/>
	</g>
</g>
<g>
</g>
<g>
</g>
<g>
</g>
<g>
</g>
<g>
</g>
<g>
</g>
<g>
</g>
<g>
</g>
<g>
</g>
<g>
</g>
<g>
</g>
<g>
</g>
<g>
</g>
<g>
</g>
<g>
</g>
</svg>
