<?xml version="1.0" encoding="iso-8859-1"?>
<!-- Generator: Adobe Illustrator 19.1.0, SVG Export Plug-In . SVG Version: 6.00 Build 0)  -->
<svg version="1.1" id="Capa_1" xmlns="http://www.w3.org/2000/svg" xmlns:xlink="http://www.w3.org/1999/xlink" x="0px" y="0px"
	 viewBox="0 0 218.332 218.332" style="enable-background:new 0 0 218.332 218.332;" xml:space="preserve">
<g>
	<g id="group-116svg">
		<path id="path-1_19_" style="fill:#FF3A2F;" d="M101.658,108.964l-58.084,87.892l27.42-4.11l12.29,22.899l29.041-102.163
			L101.658,108.964z"/>
		<path id="path-2_19_" style="fill:#FF3A2F;" d="M121.808,108.964l58.084,87.892l-27.42-4.11l-12.291,22.899L111.14,113.482
			L121.808,108.964z"/>
		<path id="path-3_19_" style="opacity:0.35;fill:#010101;enable-background:new    ;" d="M89.557,127.273l14.12,16.632
			l7.268-25.563H95.461L89.557,127.273z"/>
		<path id="path-4_19_" style="opacity:0.35;fill:#010101;enable-background:new    ;" d="M116.751,133.218l28.149,10.687
			l-16.895-25.563h-15.483L116.751,133.218z"/>
		<path id="path-5_19_" style="fill:#FBB713;" d="M172.922,63.01c0,33.312-27.261,60.321-60.89,60.321S51.141,96.322,51.141,63.01
			c0-33.316,27.262-60.323,60.891-60.323S172.922,29.694,172.922,63.01z"/>
		<path id="path-6_19_" style="opacity:0.25;fill:#010101;enable-background:new    ;" d="M128.425,4.962
			c18.087,10.459,30.274,29.84,30.274,52.083c0,33.315-27.262,60.321-60.892,60.321c-5.687,0-11.17-0.831-16.392-2.275
			c9.003,5.205,19.44,8.24,30.617,8.24c33.629,0,60.89-27.009,60.89-60.321C172.922,35.329,154.08,12.06,128.425,4.962z"/>
		<path id="path-7_19_" style="fill:#EDEDED;" d="M125.369,94.486l-9.467-4.803c-2.215-1.123-4.846-1.097-7.037,0.075l-9.361,5.002
			c-5.515,2.947-12.05-1.651-11.056-7.782l1.686-10.402c0.394-2.436-0.446-4.907-2.246-6.608l-7.695-7.274
			c-4.535-4.285-2.139-11.864,4.054-12.821l10.508-1.627c2.459-0.379,4.571-1.934,5.649-4.158l4.605-9.497
			c2.714-5.596,10.728-5.681,13.562-0.143l4.809,9.397c1.125,2.2,3.27,3.709,5.737,4.039l10.541,1.404
			c6.212,0.827,8.769,8.351,4.328,12.733l-7.537,7.433c-1.764,1.74-2.55,4.228-2.104,6.655l1.91,10.364
			C137.381,92.582,130.947,97.317,125.369,94.486z"/>
		<path id="path-8_19_" style="fill:#FF3A2F;" d="M42.099,132.688h4.39c0.847,0,1.533,0.888,1.533,1.984
			c0,1.097-0.686,1.985-1.533,1.985h-0.204c-0.847,0-1.533,0.889-1.533,1.985c0,1.096,0.686,1.985,1.533,1.985h9.438
			c0.846,0,1.533,0.888,1.533,1.984c0,1.096-0.687,1.984-1.533,1.984H44.38H21.198c-0.847,0-1.533-0.888-1.533-1.984
			c0-1.096,0.686-1.984,1.533-1.984h2.619c0.847,0,1.533-0.889,1.533-1.985c0-1.096-0.686-1.985-1.533-1.985H11.351
			c-0.846,0-1.532-0.888-1.532-1.985c0-1.096,0.686-1.984,1.532-1.984h2.947H42.099z"/>
		<path id="path-9_17_" style="fill:#FF3A2F;" d="M200.219,72.293c3.397,0,6.151-1.226,6.151-2.737c0-1.511-2.754-2.736-6.151-2.736
			H181.37c-3.397,0-6.151,1.225-6.151,2.736c0,1.511,2.754,2.737,6.151,2.737H200.219z"/>
		<path id="path-10_15_" style="fill:#FF3A2F;" d="M193.871,14.451h7.086c1.365,0,2.474,0.969,2.474,2.163
			c0,1.192-1.109,2.16-2.474,2.16h-0.33c-1.366,0-2.474,0.968-2.474,2.161c0,1.193,1.108,2.161,2.474,2.161h15.231
			c1.367,0,2.474,0.968,2.474,2.161c0,1.195-1.107,2.162-2.474,2.162h-18.304h-37.415c-1.366,0-2.473-0.967-2.473-2.162
			c0-1.193,1.107-2.161,2.473-2.161h4.227c1.366,0,2.474-0.968,2.474-2.161c0-1.193-1.108-2.161-2.474-2.161h-20.119
			c-1.366,0-2.473-0.968-2.473-2.16c0-1.194,1.107-2.163,2.473-2.163h4.756H193.871z"/>
		<path id="path-11_14_" style="fill:#FF3A2F;" d="M75.789,31.277h15.432c2.974,0,5.386,1.073,5.386,2.396
			c0,1.325-2.412,2.397-5.386,2.397h-0.719c-2.975,0-5.387,1.072-5.387,2.395c0,1.323,2.412,2.397,5.387,2.397h33.172
			c2.976,0,5.387,1.072,5.387,2.396s-2.411,2.396-5.387,2.396H83.809H39.995c-2.975,0-5.387-1.072-5.387-2.396
			s2.412-2.396,5.387-2.396h9.207c2.974,0,5.387-1.074,5.387-2.397c0-1.323-2.413-2.395-5.387-2.395H5.387
			C2.412,36.07,0,34.998,0,33.673c0-1.323,2.412-2.396,5.387-2.396h10.355H75.789z"/>
	</g>
</g>
<g>
</g>
<g>
</g>
<g>
</g>
<g>
</g>
<g>
</g>
<g>
</g>
<g>
</g>
<g>
</g>
<g>
</g>
<g>
</g>
<g>
</g>
<g>
</g>
<g>
</g>
<g>
</g>
<g>
</g>
</svg>
