<?xml version="1.0" encoding="iso-8859-1"?>
<!-- Generator: Adobe Illustrator 19.1.0, SVG Export Plug-In . SVG Version: 6.00 Build 0)  -->
<svg version="1.1" id="Capa_1" xmlns="http://www.w3.org/2000/svg" xmlns:xlink="http://www.w3.org/1999/xlink" x="0px" y="0px"
	 viewBox="0 0 218.787 218.787" style="enable-background:new 0 0 218.787 218.787;" xml:space="preserve">
<g>
	<g id="group-140svg">
		<path id="path-1_46_" style="fill:#2476FF;" d="M78.829,200.429H94.88c3.094,0,5.603,1.116,5.603,2.492
			c0,1.377-2.509,2.492-5.603,2.492h-0.748c-3.094,0-5.603,1.117-5.603,2.493c0,1.377,2.509,2.493,5.603,2.493h34.502
			c3.095,0,5.604,1.114,5.604,2.491c0,1.376-2.509,2.493-5.604,2.493H87.172H41.6c-3.095,0-5.603-1.117-5.603-2.493
			c0-1.377,2.508-2.491,5.603-2.491h9.576c3.093,0,5.602-1.116,5.602-2.493c0-1.376-2.509-2.493-5.602-2.493H5.603
			c-3.094,0-5.603-1.115-5.603-2.492c0-1.376,2.509-2.492,5.603-2.492h10.771H78.829z"/>
		<path id="path-2_46_" style="fill:#2476FF;" d="M178.168,217.539c3.533,0,6.397-1.274,6.397-2.846
			c0-1.572-2.864-2.846-6.397-2.846h-19.606c-3.533,0-6.397,1.274-6.397,2.846c0,1.572,2.864,2.846,6.397,2.846H178.168z"/>
		<path id="path-3_46_" style="fill:#2476FF;" d="M193.345,178.041h7.37c1.42,0,2.573,0.634,2.573,1.414
			c0,0.781-1.153,1.413-2.573,1.413h-0.343c-1.422,0-2.573,0.633-2.573,1.414c0,0.78,1.151,1.413,2.573,1.413h15.843
			c1.421,0,2.572,0.634,2.572,1.415c0,0.781-1.151,1.413-2.572,1.413h-19.04h-38.914c-1.422,0-2.574-0.632-2.574-1.413
			c0-0.781,1.152-1.415,2.574-1.415h4.397c1.42,0,2.572-0.633,2.572-1.413c0-0.781-1.152-1.414-2.572-1.414h-20.927
			c-1.421,0-2.572-0.632-2.572-1.413c0-0.78,1.151-1.414,2.572-1.414h4.946H193.345z"/>
		<path id="path-4_46_" style="fill:#142A3B;" d="M74.295,184.464c-13.182,0-23.91-10.626-23.91-23.692v-43.707h47.819v43.707
			C98.204,173.838,87.477,184.464,74.295,184.464z"/>
		<path id="path-5_46_" style="opacity:0.3;fill:#010101;enable-background:new    ;" d="M87.107,117.066v36.378
			c0,13.065-10.727,23.692-23.908,23.692c-2.489,0-4.889-0.38-7.147-1.082c4.391,5.136,10.934,8.41,18.243,8.41
			c13.182,0,23.909-10.627,23.909-23.692v-43.706H87.107z"/>
		<path id="path-6_46_" style="fill:#FF3A2F;" d="M102.486,130.112H51.89c-25.915,0-47.007-20.896-47.007-46.575
			c0-12.506,4.926-24.19,13.864-32.911C27.48,41.84,39.273,36.967,51.89,36.967h50.596l0,0"/>
		<path id="path-7_46_" style="fill:#EDEDED;" d="M152.375,130.112H93.007V36.967h59.368V130.112z"/>
		<path id="path-8_46_" style="opacity:0.3;fill:#010101;enable-background:new    ;" d="M84.174,36.967l-8.967,57.502
			c-1.224,7.858-8.052,13.657-16.079,13.657H27.64c-6.496,0-12.629-1.675-18.132-4.58c6.802,15.682,21.285,26.565,38.061,26.565
			h45.438V36.967H84.174z"/>
		<path id="path-9_43_" style="opacity:0.2;fill:#010101;enable-background:new    ;" d="M133.882,36.967l-2.871,60.916
			c-0.463,9.835-8.646,17.572-18.584,17.572h-19.42v14.656h59.368V36.967H133.882z"/>
		<path id="path-10_39_" style="fill:#EDEDED;" d="M194.252,165.901l-55.046-38.956V36.967l55.046-35.719V165.901z"/>
		<path id="path-11_34_" style="opacity:0.2;fill:#010101;enable-background:new    ;" d="M179.457,11.698v94.835
			c0,12.581-14.353,19.896-24.685,12.584l-15.566-11.015v18.843l55.046,38.955V1.248L179.457,11.698z"/>
	</g>
</g>
<g>
</g>
<g>
</g>
<g>
</g>
<g>
</g>
<g>
</g>
<g>
</g>
<g>
</g>
<g>
</g>
<g>
</g>
<g>
</g>
<g>
</g>
<g>
</g>
<g>
</g>
<g>
</g>
<g>
</g>
</svg>
