<?xml version="1.0" encoding="iso-8859-1"?>
<!-- Generator: Adobe Illustrator 19.1.0, SVG Export Plug-In . SVG Version: 6.00 Build 0)  -->
<svg version="1.1" id="Capa_1" xmlns="http://www.w3.org/2000/svg" xmlns:xlink="http://www.w3.org/1999/xlink" x="0px" y="0px"
	 viewBox="0 0 217.22 217.22" style="enable-background:new 0 0 217.22 217.22;" xml:space="preserve">
<g>
	<g id="group-137svg">
		<path id="path-1_42_" style="fill:#142A3B;" d="M79.735,186.748h-18.4c-3.548,0-6.424,2.176-6.424,4.861
			c0,2.687,2.876,4.863,6.424,4.863h0.856c3.548,0,6.424,2.177,6.424,4.862s-2.876,4.861-6.424,4.861H22.636
			c-3.547,0-6.423,2.177-6.423,4.862s2.876,4.861,6.423,4.861h47.535h97.161c3.548,0,6.424-2.176,6.424-4.861
			s-2.876-4.862-6.424-4.862h-10.978c-3.547,0-6.423-2.176-6.423-4.861s2.876-4.862,6.423-4.862h43.116
			c3.548,0,6.424-2.176,6.424-4.863c0-2.685-2.876-4.861-6.424-4.861h-3.218H79.735z"/>
		<path id="path-2_42_" style="fill:#142A3B;" d="M193.853,217.22c-2.975,0-5.386-2.332-5.386-5.21c0-2.877,2.411-5.209,5.386-5.209
			h16.503c2.975,0,5.386,2.332,5.386,5.209c0,2.878-2.411,5.21-5.386,5.21H193.853z"/>
		<path id="path-3_42_" style="fill:#0CB04A;" d="M139.963,189.916H5.434c-2.187,0-3.956-1.77-3.956-3.957V3.955
			C1.478,1.77,3.247,0,5.434,0h96.048c1.132,0,2.214,0.486,2.963,1.336l38.482,43.522c0.642,0.721,0.992,1.655,0.992,2.62v138.481
			C143.919,188.146,142.15,189.916,139.963,189.916z"/>
		<path id="path-4_42_" style="opacity:0.35;enable-background:new    ;" d="M142.927,44.858L104.445,1.336
			C103.696,0.486,102.614,0,101.482,0H5.434C3.303,0,1.597,1.69,1.509,3.798h92.376c1.132,0,2.214,0.486,2.963,1.336l38.481,43.523
			c0.642,0.72,0.993,1.653,0.993,2.62v138.481c0,0.057-0.029,0.102-0.031,0.158h3.672c2.187,0,3.956-1.77,3.956-3.957V47.478
			C143.919,46.513,143.568,45.579,142.927,44.858z"/>
		<path id="path-5_42_" style="fill:#142A3B;" d="M28.839,31.474h-7.241V0.494h7.241V31.474z"/>
		<path id="path-6_41_" style="fill:#142A3B;" d="M52.578,31.474h-7.24V0.494h7.24V31.474z"/>
		<path id="path-7_40_" style="fill:#142A3B;" d="M76.319,31.474h-7.241V0.494h7.241V31.474z"/>
		<path id="path-8_29_" style="fill:#142A3B;" d="M100.06,31.474h-7.241V0.494h7.241V31.474z"/>
		<path id="path-9_25_" style="fill:#EDEDED;" d="M116.223,189.916H29.175c-2.188,0-3.957-1.77-3.957-3.957v-63.306
			c0-11.645,7.23-19.782,17.577-19.782h55.394c10.379,0,21.99,8.462,21.99,19.782v63.306
			C120.179,188.146,118.41,189.916,116.223,189.916z"/>
		<path id="path-10_22_" style="opacity:0.35;enable-background:new    ;" d="M98.189,102.871H42.795
			c-4.415,0-8.207,1.551-11.168,4.156c1.143-0.226,2.331-0.357,3.571-0.357h55.395c10.378,0,21.989,8.461,21.989,19.782v63.306
			c0,0.057-0.029,0.102-0.031,0.158h3.672c2.187,0,3.957-1.77,3.957-3.957v-63.306C120.18,111.333,108.568,102.871,98.189,102.871z"
			/>
	</g>
</g>
<g>
</g>
<g>
</g>
<g>
</g>
<g>
</g>
<g>
</g>
<g>
</g>
<g>
</g>
<g>
</g>
<g>
</g>
<g>
</g>
<g>
</g>
<g>
</g>
<g>
</g>
<g>
</g>
<g>
</g>
</svg>
