<?xml version="1.0" encoding="iso-8859-1"?>
<!-- Generator: Adobe Illustrator 19.1.0, SVG Export Plug-In . SVG Version: 6.00 Build 0)  -->
<svg version="1.1" id="Capa_1" xmlns="http://www.w3.org/2000/svg" xmlns:xlink="http://www.w3.org/1999/xlink" x="0px" y="0px"
	 viewBox="0 0 217.22 217.22" style="enable-background:new 0 0 217.22 217.22;" xml:space="preserve">
<g>
	<g id="group-156svg">
		<path id="path-1_63_" style="fill:#FF3A2F;" d="M112.569,201.803h-6.577c-1.269,0-2.297,1.103-2.297,2.46
			c0,1.36,1.028,2.46,2.297,2.46h0.306c1.268,0,2.296,1.102,2.296,2.46c0,1.359-1.028,2.46-2.296,2.46h-14.14
			c-1.268,0-2.296,1.099-2.296,2.459c0,1.358,1.028,2.46,2.296,2.46h16.993h34.732c1.268,0,2.296-1.102,2.296-2.46
			c0-1.36-1.028-2.459-2.296-2.459h-3.925c-1.268,0-2.297-1.101-2.297-2.46c0-1.358,1.029-2.46,2.297-2.46h15.412
			c1.269,0,2.297-1.1,2.297-2.46c0-1.357-1.028-2.46-2.297-2.46h-1.15H112.569z"/>
		<path id="path-2_63_" style="fill:#FF3A2F;" d="M153.363,217.22c-1.063,0-1.926-1.181-1.926-2.635
			c0-1.457,0.863-2.636,1.926-2.636h5.899c1.064,0,1.926,1.179,1.926,2.636c0,1.454-0.862,2.635-1.926,2.635H153.363z"/>
		<path id="path-3_63_" style="fill:#FF3A2F;" d="M142.716,175.134h-2.618c-0.505,0-0.914,0.438-0.914,0.98
			c0,0.54,0.409,0.979,0.914,0.979h0.121c0.505,0,0.915,0.437,0.915,0.978s-0.41,0.98-0.915,0.98h-5.628
			c-0.505,0-0.914,0.438-0.914,0.978c0,0.542,0.409,0.98,0.914,0.98h6.764h13.826c0.505,0,0.914-0.438,0.914-0.98
			c0-0.54-0.409-0.978-0.914-0.978h-1.562c-0.505,0-0.914-0.439-0.914-0.98s0.409-0.978,0.914-0.978h6.135
			c0.505,0,0.914-0.439,0.914-0.979c0-0.542-0.409-0.98-0.914-0.98h-0.458H142.716z"/>
		<path id="path-4_63_" style="fill:#FF3A2F;" d="M141.102,112.575h-4.182c-0.806,0-1.46,0.551-1.46,1.23s0.654,1.23,1.46,1.23
			h0.195c0.806,0,1.46,0.55,1.46,1.23c0,0.678-0.654,1.229-1.46,1.229h-8.991c-0.806,0-1.46,0.551-1.46,1.231
			c0,0.678,0.654,1.229,1.46,1.229h10.804h22.085c0.806,0,1.46-0.551,1.46-1.229c0-0.68-0.654-1.231-1.46-1.231h-2.495
			c-0.807,0-1.461-0.551-1.461-1.229c0-0.68,0.654-1.23,1.461-1.23h9.799c0.807,0,1.46-0.551,1.46-1.23s-0.653-1.23-1.46-1.23
			h-0.731H141.102z"/>
		<path id="path-5_62_" style="fill:#142A3B;" d="M75.081,178.071h29.817c-17.734-7.976-30.55-30.898-30.55-57.947
			c0-12.928,2.929-24.91,7.922-34.769H71.074c-8.801,11.136-14.317,27.101-14.317,44.846c0,20.304,7.224,38.278,18.324,49.36
			V178.071z"/>
		<path id="path-6_60_" d="M75.081,179.561v-1.49h-1.324C74.205,178.557,74.619,179.099,75.081,179.561z"/>
		<path id="path-7_59_" style="opacity:0.35;enable-background:new    ;" d="M74.348,120.124c0-12.928,2.929-24.91,7.922-34.769
			h-9.523c-4.993,9.859-7.923,21.841-7.923,34.769c0,27.049,12.816,49.971,30.551,57.947h9.523
			C87.164,170.095,74.348,147.173,74.348,120.124z"/>
		<path id="path-8_45_" style="fill:#142A3B;" d="M135.79,132.456v23.47h-31.06v6.017h46.706v-1.203v-4.814v-23.47H135.79z"/>
		<path id="path-9_38_" style="fill:#142A3B;" d="M122.35,192.031H71.801l6.727-33.634c1.687-8.434,9.094-14.507,17.696-14.507l0,0
			c8.281,0,15.5,5.637,17.508,13.67L122.35,192.031z"/>
		<path id="path-10_34_" style="opacity:0.35;enable-background:new    ;" d="M113.732,157.56
			c-1.205-4.821-4.307-8.746-8.369-11.141c0.873,1.474,1.588,3.064,2.02,4.792l8.618,34.471h-42.93l-1.27,6.348h50.549
			L113.732,157.56z"/>
		<path id="path-11_27_" style="fill:#142A3B;" d="M107.234,78.299c0,12.259-9.936,22.194-22.195,22.194
			c-12.256,0-22.194-9.935-22.194-22.194c0-12.257,9.938-22.193,22.194-22.193C97.298,56.106,107.234,66.042,107.234,78.299z"/>
		<path id="path-12_23_" style="fill:#EDEDED;" d="M107.306,172.173c0,5.65-4.58,10.231-10.23,10.231s-10.231-4.581-10.231-10.231
			c0-5.65,4.581-10.23,10.231-10.23S107.306,166.523,107.306,172.173z"/>
		<path id="path-13_18_" style="fill:#EDEDED;" d="M96.04,78.299c0,6.076-4.924,11-11.001,11c-6.074,0-10.999-4.924-10.999-11
			c0-6.075,4.925-11,10.999-11C91.116,67.299,96.04,72.224,96.04,78.299z"/>
		<path id="path-14_15_" style="fill:#142A3B;" d="M182.728,127.041h-77.83v-8.424h77.83V127.041z"/>
		<path id="path-15_14_" style="fill:#142A3B;" d="M168.286,134.045h-46.437v-7.991h46.437V134.045z"/>
		<path id="path-16_11_" style="opacity:0.35;enable-background:new    ;" d="M168.286,130.953l-46.437-3.175v-1.724h46.437V130.953
			z"/>
		<path id="path-17_9_" style="fill:#FBB713;" d="M152.149,84.696l-27.518,27.516L47.137,34.72L74.654,7.203L152.149,84.696z"/>
		<path id="path-18_8_" style="fill:#2476FF;" d="M69.051,12.806L52.74,29.117L39.932,16.31L56.244,0L69.051,12.806z"/>
		<path id="path-19_6_" style="opacity:0.25;enable-background:new    ;" d="M109.966,88.023L51.899,29.958l-4.762,4.762
			l77.494,77.492l27.517-27.516l-4.761-4.762l-8.089,8.089C131.198,96.122,118.066,96.122,109.966,88.023z"/>
		<path id="path-20_5_" style="opacity:0.35;enable-background:new    ;" d="M47.084,17.112l-3.977-3.976l-3.175,3.174L52.74,29.117
			l16.311-16.311l-3.175-3.174l-7.48,7.48C55.272,20.236,50.208,20.236,47.084,17.112z"/>
		<path id="path-21_3_" style="fill:#2476FF;" d="M151.581,95.333l-16.312,16.311l-5.127-5.126l16.312-16.311L151.581,95.333z"/>
		<path id="path-22_3_" style="fill:#142A3B;" d="M150.032,189.323H44.12c-5.318,0-9.628,6.197-9.628,13.841H159.66
			C159.66,195.52,155.349,189.323,150.032,189.323z"/>
		<path id="path-23_3_" style="opacity:0.35;enable-background:new    ;" d="M34.492,203.164H159.66
			c0-2.534-0.508-4.878-1.335-6.921H35.827C34.999,198.286,34.492,200.63,34.492,203.164z"/>
		<path id="path-24_3_" style="opacity:0.35;enable-background:new    ;" d="M66.607,65.937l35.128,27.238
			c1.589-2.304,0,0,1.589-2.304L72.47,60.016C70.164,61.606,68.17,63.613,66.607,65.937z"/>
		<path id="path-25_3_" style="opacity:0.35;enable-background:new    ;" d="M151.436,141.344l-15.435-3.174v-4.125h15.435V141.344z
			"/>
		<path id="path-26_3_" style="opacity:0.35;enable-background:new    ;" d="M147.172,90.882l-14.147,18.519l-2.934-3.047
			l16.278-16.277L147.172,90.882z"/>
		<path id="path-27_3_" style="fill:#EDEDED;" d="M128.084,74.705c-0.926,0-1.849-0.351-2.556-1.057l-41.24-41.126
			c-1.417-1.413-1.417-3.704-0.007-5.119c1.415-1.413,3.706-1.42,5.12-0.007l41.24,41.125c1.417,1.413,1.417,3.704,0.007,5.12
			C129.94,74.349,129.014,74.705,128.084,74.705z"/>
	</g>
</g>
<g>
</g>
<g>
</g>
<g>
</g>
<g>
</g>
<g>
</g>
<g>
</g>
<g>
</g>
<g>
</g>
<g>
</g>
<g>
</g>
<g>
</g>
<g>
</g>
<g>
</g>
<g>
</g>
<g>
</g>
</svg>
