<?xml version="1.0" encoding="iso-8859-1"?>
<!-- Generator: Adobe Illustrator 19.1.0, SVG Export Plug-In . SVG Version: 6.00 Build 0)  -->
<svg version="1.1" id="Capa_1" xmlns="http://www.w3.org/2000/svg" xmlns:xlink="http://www.w3.org/1999/xlink" x="0px" y="0px"
	 viewBox="0 0 217.229 217.229" style="enable-background:new 0 0 217.229 217.229;" xml:space="preserve">
<g>
	<g id="group-57svg">
		<path id="path-1_113_" style="fill:#FBB713;" d="M109.304,178.923h14.866c2.867,0,5.19-1.593,5.19-3.559
			c0-1.965-2.323-3.558-5.19-3.558h-0.692c-2.866,0-5.19-1.592-5.19-3.557c0-1.966,2.324-3.559,5.19-3.559h31.958
			c2.866,0,5.19-1.593,5.19-3.559c0-1.964-2.324-3.557-5.19-3.557h-38.405H38.532c-2.867,0-5.19,1.593-5.19,3.557
			c0,1.966,2.323,3.559,5.19,3.559h8.869c2.866,0,5.19,1.593,5.19,3.559c0,1.965-2.324,3.557-5.19,3.557H5.19
			c-2.866,0-5.19,1.593-5.19,3.558c0,1.966,2.324,3.559,5.19,3.559h9.976H109.304z"/>
		<path id="path-2_113_" style="fill:#FBB713;" d="M171.935,172.943c3.358,0,6.081,1.827,6.081,4.08c0,2.253-2.723,4.08-6.081,4.08
			h-18.633c-3.358,0-6.08-1.827-6.08-4.08c0-2.253,2.722-4.08,6.08-4.08H171.935z"/>
		<path id="path-3_113_" style="fill:#142A3B;" d="M217.229,157.129H36.472V36.127h180.757V157.129z"/>
		<path id="path-4_113_" style="fill:#EDEDED;" d="M168.411,141.18H55.518V52.075h112.893V141.18z"/>
		<path id="path-5_112_" style="opacity:0.35;enable-background:new    ;" d="M61.898,58.455h106.513v-6.381H55.518v89.106h6.38
			V58.455z"/>
		<path id="path-6_109_" style="fill:#FF3A2F;" d="M208.722,70.681h-28.708V52.075h28.708V70.681z"/>
		<path id="path-7_106_" style="fill:#EDEDED;" d="M208.722,107.363h-28.708v-4.785h28.708V107.363z"/>
		<path id="path-8_83_" style="fill:#EDEDED;" d="M208.722,139.26h-28.708v-4.785h28.708V139.26z"/>
		<path id="path-9_71_" style="fill:#EDEDED;" d="M208.722,123.312h-28.708v-4.783h28.708V123.312z"/>
		<path id="path-10_65_" style="fill:#142A3B;" d="M171.6,120.92h-17.105V70.681H171.6V120.92z"/>
		<path id="path-11_55_" style="opacity:0.35;enable-background:new    ;" d="M154.495,120.92V77.062h-6.379v50.238h17.105v-6.38
			H154.495z"/>
	</g>
</g>
<g>
</g>
<g>
</g>
<g>
</g>
<g>
</g>
<g>
</g>
<g>
</g>
<g>
</g>
<g>
</g>
<g>
</g>
<g>
</g>
<g>
</g>
<g>
</g>
<g>
</g>
<g>
</g>
<g>
</g>
</svg>
