<?xml version="1.0" encoding="iso-8859-1"?>
<!-- Generator: Adobe Illustrator 19.1.0, SVG Export Plug-In . SVG Version: 6.00 Build 0)  -->
<svg version="1.1" id="Capa_1" xmlns="http://www.w3.org/2000/svg" xmlns:xlink="http://www.w3.org/1999/xlink" x="0px" y="0px"
	 viewBox="0 0 217.221 217.221" style="enable-background:new 0 0 217.221 217.221;" xml:space="preserve">
<g>
	<g id="group-148svg">
		<path id="path-1_54_" style="fill:#FF3A2F;" d="M77.508,191.069H61.718c-3.045,0-5.513,1.869-5.513,4.173
			c0,2.303,2.468,4.171,5.513,4.171h0.735c3.044,0,5.512,1.868,5.512,4.173c0,2.304-2.468,4.173-5.512,4.173H28.507
			c-3.045,0-5.514,1.868-5.514,4.172c0,2.305,2.469,4.173,5.514,4.173H69.3h83.383c3.045,0,5.513-1.868,5.513-4.173
			c0-2.304-2.468-4.172-5.513-4.172h-9.421c-3.045,0-5.513-1.869-5.513-4.173c0-2.305,2.468-4.173,5.513-4.173h37.002
			c3.044,0,5.513-1.868,5.513-4.171c0-2.304-2.469-4.173-5.513-4.173h-2.762H77.508z"/>
		<path id="path-2_54_" style="fill:#FF3A2F;" d="M175.444,217.221c-2.552,0-4.622-2.002-4.622-4.472
			c0-2.469,2.07-4.471,4.622-4.471h14.164c2.552,0,4.621,2.002,4.621,4.471c0,2.47-2.069,4.472-4.621,4.472H175.444z"/>
		<path id="path-3_54_" style="fill:#142A3B;" d="M101.269,161.104c-37.418,0-68.231-30.139-68.691-67.183l-0.003-0.915
			c0-3.001,2.432-5.43,5.431-5.43c2.998,0,5.431,2.429,5.431,5.43l0.003,0.773c0.385,31.138,26.326,56.464,57.829,56.464
			c33.553,0,57.333-20.751,57.828-50.46c0.004-0.478,0.007-12.182,0.007-12.53c0-3,2.433-5.431,5.431-5.431s5.431,2.431,5.431,5.431
			c0,0.355-0.004,12.308-0.007,12.673C169.365,135.388,140.479,161.104,101.269,161.104z"/>
		<path id="path-4_54_" style="fill:#142A3B;" d="M101.269,191.156c-2.999,0-5.432-2.431-5.432-5.431v-26.277
			c0-3.001,2.433-5.43,5.432-5.43c2.998,0,5.43,2.429,5.43,5.43v26.277C106.699,188.725,104.266,191.156,101.269,191.156z"/>
		<path id="path-5_54_" style="fill:#142A3B;" d="M115.912,195.802H86.628c-2.998,0-5.431-2.43-5.431-5.43
			c0-2.999,2.433-5.431,5.431-5.431h29.285c2.998,0,5.431,2.432,5.431,5.431C121.343,193.372,118.91,195.802,115.912,195.802z"/>
		<path id="path-6_52_" style="fill:#2476FF;" d="M141.111,97.776c0,21.773-17.838,39.424-39.842,39.424l0,0
			c-22.004,0-39.842-17.651-39.842-39.424V39.424C61.428,17.65,79.266,0,101.27,0l0,0c22.004,0,39.842,17.65,39.842,39.424V97.776z"
			/>
		<path id="path-7_51_" style="opacity:0.35;enable-background:new    ;" d="M138.223,53.244h-17.781
			c-2.001,0-3.62-1.621-3.62-3.621s1.619-3.62,3.62-3.62h17.781c2.001,0,3.621,1.62,3.621,3.62S140.223,53.244,138.223,53.244z"/>
		<path id="path-8_38_" style="opacity:0.35;enable-background:new    ;" d="M138.223,72.219h-17.781c-2.001,0-3.62-1.621-3.62-3.62
			s1.619-3.62,3.62-3.62h17.781c2.001,0,3.621,1.621,3.621,3.62S140.223,72.219,138.223,72.219z"/>
		<path id="path-9_32_" style="opacity:0.35;enable-background:new    ;" d="M138.223,90.875h-17.781
			c-2.001,0-3.62-1.621-3.62-3.622c0-1.999,1.619-3.62,3.62-3.62h17.781c2.001,0,3.621,1.621,3.621,3.62
			C141.844,89.254,140.223,90.875,138.223,90.875z"/>
		<path id="path-10_29_" style="opacity:0.35;enable-background:new    ;" d="M84.545,53.405H66.76
			c-2.002,0-3.621-1.622-3.621-3.621c0-2,1.619-3.621,3.621-3.621h17.784c2.001,0,3.62,1.621,3.62,3.621
			C88.164,51.783,86.546,53.405,84.545,53.405z"/>
		<path id="path-11_22_" style="opacity:0.35;enable-background:new    ;" d="M84.545,72.38H66.76c-2.002,0-3.621-1.621-3.621-3.62
			s1.619-3.621,3.621-3.621h17.784c2.001,0,3.62,1.622,3.62,3.621S86.546,72.38,84.545,72.38z"/>
		<path id="path-12_18_" style="opacity:0.35;enable-background:new    ;" d="M84.545,91.035H66.76
			c-2.002,0-3.621-1.621-3.621-3.621c0-1.998,1.619-3.619,3.621-3.619h17.784c2.001,0,3.62,1.621,3.62,3.619
			C88.164,89.414,86.546,91.035,84.545,91.035z"/>
	</g>
</g>
<g>
</g>
<g>
</g>
<g>
</g>
<g>
</g>
<g>
</g>
<g>
</g>
<g>
</g>
<g>
</g>
<g>
</g>
<g>
</g>
<g>
</g>
<g>
</g>
<g>
</g>
<g>
</g>
<g>
</g>
</svg>
