<?xml version="1.0" encoding="iso-8859-1"?>
<!-- Generator: Adobe Illustrator 19.1.0, SVG Export Plug-In . SVG Version: 6.00 Build 0)  -->
<svg version="1.1" id="Capa_1" xmlns="http://www.w3.org/2000/svg" xmlns:xlink="http://www.w3.org/1999/xlink" x="0px" y="0px"
	 viewBox="0 0 217.221 217.221" style="enable-background:new 0 0 217.221 217.221;" xml:space="preserve">
<g>
	<g id="group-141svg">
		<path id="path-1_47_" style="fill:#2476FF;" d="M148.529,192.636h-8.189c-1.579,0-2.858,0.969-2.858,2.163
			c0,1.195,1.279,2.164,2.858,2.164h0.382c1.578,0,2.858,0.968,2.858,2.162c0,1.196-1.28,2.163-2.858,2.163h-17.604
			c-1.579,0-2.859,0.969-2.859,2.163c0,1.195,1.28,2.164,2.859,2.164h21.156h43.24c1.579,0,2.859-0.969,2.859-2.164
			c0-1.194-1.28-2.163-2.859-2.163h-4.885c-1.579,0-2.859-0.967-2.859-2.163c0-1.194,1.28-2.162,2.859-2.162h19.188
			c1.578,0,2.858-0.969,2.858-2.164c0-1.194-1.28-2.163-2.858-2.163h-1.433H148.529z"/>
		<path id="path-2_47_" style="fill:#2476FF;" d="M199.317,206.194c-1.324,0-2.397-1.037-2.397-2.318
			c0-1.28,1.073-2.319,2.397-2.319h7.345c1.323,0,2.396,1.039,2.396,2.319c0,1.281-1.073,2.318-2.396,2.318H199.317z"/>
		<path id="path-3_47_" style="fill:#2476FF;" d="M77.834,217.221h8.189c1.579,0,2.858-0.969,2.858-2.162
			c0-1.195-1.279-2.164-2.858-2.164h-0.381c-1.58,0-2.859-0.968-2.859-2.162c0-1.196,1.279-2.163,2.859-2.163h17.603
			c1.579,0,2.859-0.97,2.859-2.164s-1.28-2.164-2.859-2.164H82.09H38.85c-1.579,0-2.86,0.97-2.86,2.164s1.281,2.164,2.86,2.164
			h4.885c1.579,0,2.859,0.967,2.859,2.163c0,1.194-1.28,2.162-2.859,2.162H24.546c-1.579,0-2.858,0.969-2.858,2.164
			c0,1.193,1.279,2.162,2.858,2.162h1.433H77.834z"/>
		<path id="path-4_47_" style="fill:#2476FF;" d="M27.046,203.664c1.324,0,2.397,1.038,2.397,2.318s-1.073,2.318-2.397,2.318h-7.345
			c-1.323,0-2.396-1.038-2.396-2.318s1.073-2.318,2.396-2.318H27.046z"/>
		<path id="path-5_47_" style="fill:#2476FF;" d="M170.06,166.024H36.352c-2.31,0-4.178-1.868-4.178-4.178V28.182
			c0-2.309,1.868-4.178,4.178-4.178H170.06c2.309,0,4.178,1.869,4.178,4.178v133.664
			C174.238,164.156,172.369,166.024,170.06,166.024z"/>
		<path id="path-6_46_" style="fill:#EDEDED;" d="M144.989,140.962H61.422c-2.31,0-4.178-1.869-4.178-4.178V53.243
			c0-2.308,1.868-4.176,4.178-4.176h83.567c2.31,0,4.179,1.868,4.179,4.176v83.541C149.168,139.093,147.299,140.962,144.989,140.962
			z"/>
		<path id="path-7_45_" style="opacity:0.35;enable-background:new    ;" d="M61.422,140.962h6.853V60.596
			c0-2.309,1.869-4.178,4.179-4.178h76.714v-3.175c0-2.308-1.869-4.176-4.179-4.176H61.422c-2.309,0-4.178,1.868-4.178,4.176v83.541
			C57.244,139.093,59.113,140.962,61.422,140.962z"/>
		<path id="path-8_34_" style="fill:#142A3B;" d="M47.828,23.948h-7.241V0h7.241V23.948z"/>
		<path id="path-9_29_" style="fill:#142A3B;" d="M64.542,23.948h-7.24V0h7.24V23.948z"/>
		<path id="path-10_26_" style="fill:#142A3B;" d="M81.255,23.948h-7.24V0h7.24V23.948z"/>
		<path id="path-11_20_" style="fill:#142A3B;" d="M97.968,23.948h-7.241V0h7.241V23.948z"/>
		<path id="path-12_16_" style="fill:#142A3B;" d="M114.681,23.948h-7.241V0h7.241V23.948z"/>
		<path id="path-13_14_" style="fill:#142A3B;" d="M131.396,23.948h-7.242V0h7.242V23.948z"/>
		<path id="path-14_12_" style="fill:#142A3B;" d="M148.108,23.948h-7.24V0h7.24V23.948z"/>
		<path id="path-15_11_" style="fill:#142A3B;" d="M164.821,23.948h-7.241V0h7.241V23.948z"/>
		<path id="path-16_9_" style="fill:#142A3B;" d="M47.828,190.026h-7.241v-23.947h7.241V190.026z"/>
		<path id="path-17_7_" style="fill:#142A3B;" d="M64.542,190.026h-7.24v-23.947h7.24V190.026z"/>
		<path id="path-18_6_" style="fill:#142A3B;" d="M81.255,190.026h-7.24v-23.947h7.24V190.026z"/>
		<path id="path-19_4_" style="fill:#142A3B;" d="M97.968,190.026h-7.241v-23.947h7.241V190.026z"/>
		<path id="path-20_4_" style="fill:#142A3B;" d="M114.681,190.026h-7.241v-23.947h7.241V190.026z"/>
		<path id="path-21_2_" style="fill:#142A3B;" d="M131.396,190.026h-7.242v-23.947h7.242V190.026z"/>
		<path id="path-22_2_" style="fill:#142A3B;" d="M148.108,190.026h-7.24v-23.947h7.24V190.026z"/>
		<path id="path-23_2_" style="fill:#142A3B;" d="M164.821,190.026h-7.241v-23.947h7.241V190.026z"/>
		<path id="path-24_2_" style="fill:#142A3B;" d="M32.117,156.611H8.163v-7.24h23.954V156.611z"/>
		<path id="path-25_2_" style="fill:#142A3B;" d="M32.117,139.902H8.163v-7.24h23.954V139.902z"/>
		<path id="path-26_2_" style="fill:#142A3B;" d="M32.117,123.195H8.163v-7.24h23.954V123.195z"/>
		<path id="path-27_2_" style="fill:#142A3B;" d="M32.117,106.486H8.163v-7.24h23.954V106.486z"/>
		<path id="path-28_2_" style="fill:#142A3B;" d="M32.117,89.778H8.163v-7.24h23.954V89.778z"/>
		<path id="path-29_2_" style="fill:#142A3B;" d="M32.117,73.07H8.163v-7.239h23.954V73.07z"/>
		<path id="path-30_1_" style="fill:#142A3B;" d="M32.117,56.362H8.163v-7.24h23.954V56.362z"/>
		<path id="path-31_1_" style="fill:#142A3B;" d="M32.117,39.654H8.163v-7.239h23.954V39.654z"/>
		<path id="path-32" style="fill:#142A3B;" d="M198.249,156.611h-23.954v-7.24h23.954V156.611z"/>
		<path id="path-33" style="fill:#142A3B;" d="M198.249,139.902h-23.954v-7.24h23.954V139.902z"/>
		<path id="path-34" style="fill:#142A3B;" d="M198.249,123.195h-23.954v-7.24h23.954V123.195z"/>
		<path id="path-35" style="fill:#142A3B;" d="M198.249,106.486h-23.954v-7.24h23.954V106.486z"/>
		<path id="path-36" style="fill:#142A3B;" d="M198.249,89.778h-23.954v-7.24h23.954V89.778z"/>
		<path id="path-37" style="fill:#142A3B;" d="M198.249,73.07h-23.954v-7.239h23.954V73.07z"/>
		<path id="path-38" style="fill:#142A3B;" d="M198.249,56.362h-23.954v-7.24h23.954V56.362z"/>
		<path id="path-39" style="fill:#142A3B;" d="M198.249,39.654h-23.954v-7.239h23.954V39.654z"/>
	</g>
</g>
<g>
</g>
<g>
</g>
<g>
</g>
<g>
</g>
<g>
</g>
<g>
</g>
<g>
</g>
<g>
</g>
<g>
</g>
<g>
</g>
<g>
</g>
<g>
</g>
<g>
</g>
<g>
</g>
<g>
</g>
</svg>
