<?xml version="1.0" encoding="iso-8859-1"?>
<!-- Generator: Adobe Illustrator 19.1.0, SVG Export Plug-In . SVG Version: 6.00 Build 0)  -->
<svg version="1.1" id="Capa_1" xmlns="http://www.w3.org/2000/svg" xmlns:xlink="http://www.w3.org/1999/xlink" x="0px" y="0px"
	 viewBox="0 0 217.229 217.229" style="enable-background:new 0 0 217.229 217.229;" xml:space="preserve">
<g>
	<g id="group-127svg">
		<path id="path-1_31_" style="fill:#0CB04A;" d="M115.425,184.469h15.615c3.011,0,5.452-1.848,5.452-4.127
			c0-2.278-2.441-4.126-5.452-4.126h-0.726c-3.011,0-5.452-1.847-5.452-4.126c0-2.279,2.441-4.126,5.452-4.126h33.569
			c3.01,0,5.451-1.847,5.451-4.125c0-2.28-2.441-4.126-5.451-4.126h-40.342H41.084c-3.011,0-5.452,1.846-5.452,4.126
			c0,2.278,2.441,4.125,5.452,4.125H50.4c3.011,0,5.452,1.847,5.452,4.126c0,2.279-2.441,4.126-5.452,4.126H13.809
			c-3.011,0-5.451,1.848-5.451,4.126c0,2.279,2.44,4.127,5.451,4.127h2.731H115.425z"/>
		<path id="path-2_31_" style="fill:#0CB04A;" d="M18.577,158.608c2.524,0,4.57,1.979,4.57,4.419c0,2.444-2.046,4.424-4.57,4.424
			H4.571c-2.524,0-4.571-1.98-4.571-4.424c0-2.44,2.047-4.419,4.571-4.419H18.577z"/>
		<path id="path-3_31_" style="fill:#FBB713;" d="M217.197,124.12c-0.339-15.854-41.515-20.103-65.902-20.103
			c-24.386,0-65.563,4.249-65.902,20.103h-0.031v20.475c0,15.978,41.446,20.237,65.933,20.237c24.488,0,65.934-4.283,65.934-20.331
			V124.12H217.197z"/>
		<path id="path-4_31_" style="opacity:0.35;enable-background:new    ;" d="M217.197,124.12
			c-0.339-15.854-41.515-20.103-65.902-20.103c-24.386,0-65.563,4.249-65.902,20.103h-0.031v20.475
			c0,15.978,41.446,20.237,65.933,20.237c24.488,0,65.934-4.283,65.934-20.331V124.12H217.197z"/>
		<path id="path-5_31_" style="fill:#FBB713;" d="M151.295,144.591c-24.487,0-65.933-4.269-65.933-20.282
			c0-16.017,41.446-20.292,65.933-20.292c24.488,0,65.933,4.275,65.933,20.292C217.228,140.322,175.783,144.591,151.295,144.591z"/>
		<path id="path-6_31_" style="fill:#FBB713;" d="M192,87.114c-0.339-15.855-41.515-20.102-65.902-20.102
			c-24.386,0-65.563,4.247-65.901,20.102h-0.032v20.474c0,15.978,41.446,20.238,65.933,20.238c24.488,0,65.934-4.284,65.934-20.332
			v-20.38H192z"/>
		<path id="path-7_30_" style="opacity:0.35;enable-background:new    ;" d="M192,87.114c-0.339-15.855-41.515-20.102-65.902-20.102
			c-24.386,0-65.563,4.247-65.901,20.102h-0.032v20.474c0,15.978,41.446,20.238,65.933,20.238c24.488,0,65.934-4.284,65.934-20.332
			v-20.38H192z"/>
		<path id="path-8_22_" style="fill:#FBB713;" d="M126.098,107.584c-24.487,0-65.933-4.27-65.933-20.282
			c0-16.016,41.446-20.29,65.933-20.29c24.488,0,65.934,4.274,65.934,20.29C192.032,103.314,150.586,107.584,126.098,107.584z"/>
		<path id="path-9_20_" style="fill:#FBB713;" d="M164.048,52.863c-0.339-15.854-41.516-20.103-65.902-20.103
			c-24.387,0-65.563,4.249-65.902,20.103h-0.032v20.474c0,15.979,41.446,20.238,65.934,20.238c24.487,0,65.933-4.284,65.933-20.331
			V52.863H164.048z"/>
		<path id="path-10_18_" style="opacity:0.35;enable-background:new    ;" d="M164.048,52.863
			c-0.339-15.854-41.516-20.103-65.902-20.103c-24.387,0-65.563,4.249-65.902,20.103h-0.032v20.474
			c0,15.979,41.446,20.238,65.934,20.238c24.487,0,65.933-4.284,65.933-20.331V52.863H164.048z"/>
		<path id="path-11_14_" style="fill:#FBB713;" d="M98.146,73.333c-24.488,0-65.934-4.268-65.934-20.282
			c0-16.016,41.446-20.291,65.934-20.291c24.487,0,65.933,4.275,65.933,20.291C164.079,69.065,122.633,73.333,98.146,73.333z"/>
		<path id="path-12_11_" style="fill:#EDEDED;" d="M48.681,61.289c-2.001,0-3.621-1.621-3.621-3.621
			c0-17.596,40.936-18.964,53.48-18.964c2.002,0,3.621,1.621,3.621,3.621c0,1.998-1.619,3.619-3.621,3.619
			c-25.495,0-46.238,5.259-46.238,11.724C52.302,59.668,50.682,61.289,48.681,61.289z"/>
	</g>
</g>
<g>
</g>
<g>
</g>
<g>
</g>
<g>
</g>
<g>
</g>
<g>
</g>
<g>
</g>
<g>
</g>
<g>
</g>
<g>
</g>
<g>
</g>
<g>
</g>
<g>
</g>
<g>
</g>
<g>
</g>
</svg>
