<?xml version="1.0" encoding="iso-8859-1"?>
<!-- Generator: Adobe Illustrator 19.1.0, SVG Export Plug-In . SVG Version: 6.00 Build 0)  -->
<svg version="1.1" id="Capa_1" xmlns="http://www.w3.org/2000/svg" xmlns:xlink="http://www.w3.org/1999/xlink" x="0px" y="0px"
	 viewBox="0 0 217.229 217.229" style="enable-background:new 0 0 217.229 217.229;" xml:space="preserve">
<g>
	<g id="group-72svg">
		<path id="path-1_130_" style="fill:#142A3B;" d="M130.79,197.768H86.439v-27.266h44.351V197.768z"/>
		<path id="path-2_130_" style="opacity:0.35;enable-background:new    ;" d="M86.439,170.502v3.62l37.11,7.241v7.804l-37.11,4.98
			l44.351-0.001v-23.644H86.439z"/>
		<path id="path-3_130_" style="fill:#142A3B;" d="M217.229,174.46H0V16.974h217.229V174.46z"/>
		<path id="path-4_130_" style="opacity:0.35;enable-background:new    ;" d="M209.988,16.974v150.245H0v7.241h217.229V16.974
			H209.988z"/>
		<path id="path-5_129_" style="fill:#FFFFFF;" d="M197.316,155.498H19.913V35.936h177.403V155.498z"/>
		<path id="path-6_126_" style="opacity:0.35;enable-background:new    ;" d="M27.154,43.178h170.162v-7.242H19.913v119.562h7.241
			V43.178z"/>
		<path id="path-7_123_" style="fill:#142A3B;" d="M152.513,200.255H64.716v-5.431h87.797V200.255z"/>
		<path id="path-8_100_" style="fill:#0CB04A;" d="M109.723,90.815H98.948c-2.077,0-3.762,2.412-3.762,5.388
			c0,2.977,1.685,5.39,3.762,5.39h0.501c2.078,0,3.762,2.414,3.762,5.39c0,2.976-1.684,5.389-3.762,5.389H76.286
			c-2.077,0-3.762,2.413-3.762,5.39c0,2.976,1.685,5.389,3.762,5.389h27.837h56.897c2.078,0,3.761-2.413,3.761-5.389
			c0-2.977-1.683-5.39-3.761-5.39h-6.429c-2.077,0-3.761-2.413-3.761-5.389c0-2.976,1.684-5.39,3.761-5.39h25.249
			c2.078,0,3.762-2.413,3.762-5.39c0-2.976-1.684-5.388-3.762-5.388h-1.884H109.723z"/>
		<path id="path-9_86_" style="fill:#0CB04A;" d="M175.959,123.636c-1.463,0-2.65-1.707-2.65-3.813s1.187-3.812,2.65-3.812h8.12
			c1.464,0,2.651,1.706,2.651,3.812s-1.187,3.813-2.651,3.813H175.959z"/>
		<path id="path-10_78_" style="fill:#0CB04A;" d="M50.511,122.511c-1.464,0-2.65-1.708-2.65-3.812c0-2.105,1.186-3.812,2.65-3.812
			h8.121c1.463,0,2.649,1.707,2.649,3.812c0,2.104-1.186,3.812-2.649,3.812H50.511z"/>
		<path id="path-11_67_" style="fill:#FF3A2F;" d="M91.118,61.122h-8.185c-1.578,0-2.858,1.72-2.858,3.841
			c0,2.121,1.28,3.84,2.858,3.84h0.381c1.578,0,2.858,1.72,2.858,3.84c0,2.122-1.28,3.841-2.858,3.841H65.719
			c-1.577,0-2.857,1.719-2.857,3.84c0,2.121,1.28,3.841,2.857,3.841h21.144h43.217c1.579,0,2.858-1.72,2.858-3.841
			c0-2.121-1.279-3.84-2.858-3.84h-4.883c-1.577,0-2.857-1.719-2.857-3.841c0-2.12,1.28-3.84,2.857-3.84h23.24
			c1.578,0,2.857-1.719,2.857-3.84c0-2.121-1.279-3.841-2.857-3.841h-5.493H91.118z"/>
		<path id="path-12_57_" style="fill:#FF3A2F;" d="M56.636,67.576c-1.849,0-3.347-1.97-3.347-4.403c0-2.431,1.498-4.402,3.347-4.402
			h10.258c1.849,0,3.348,1.971,3.348,4.402c0,2.433-1.499,4.403-3.348,4.403H56.636z"/>
	</g>
</g>
<g>
</g>
<g>
</g>
<g>
</g>
<g>
</g>
<g>
</g>
<g>
</g>
<g>
</g>
<g>
</g>
<g>
</g>
<g>
</g>
<g>
</g>
<g>
</g>
<g>
</g>
<g>
</g>
<g>
</g>
</svg>
