<?xml version="1.0" encoding="iso-8859-1"?>
<!-- Generator: Adobe Illustrator 19.1.0, SVG Export Plug-In . SVG Version: 6.00 Build 0)  -->
<svg version="1.1" id="Capa_1" xmlns="http://www.w3.org/2000/svg" xmlns:xlink="http://www.w3.org/1999/xlink" x="0px" y="0px"
	 viewBox="0 0 217.229 217.229" style="enable-background:new 0 0 217.229 217.229;" xml:space="preserve">
<g>
	<g id="group-110svg">
		<path id="path-1_13_" style="fill:#142A3B;" d="M108.616,205.419c-2,0-3.621-1.621-3.621-3.62V182.8
			c0-1.998,1.621-3.619,3.621-3.619c1.999,0,3.62,1.621,3.62,3.619v18.999C112.236,203.798,110.615,205.419,108.616,205.419z"/>
		<path id="path-2_13_" style="fill:#FBB713;" d="M217.229,145.642v22.069c0,8.334-6.342,15.089-14.167,15.089H14.167
			C6.341,182.8,0,176.045,0,167.711v-22.069H217.229z"/>
		<path id="path-3_13_" style="fill:#142A3B;" d="M174.728,205.419H42.501c-1.999,0-3.621-1.621-3.621-3.62
			c0-1.999,1.622-3.62,3.621-3.62h132.227c1.999,0,3.62,1.621,3.62,3.62C178.348,203.798,176.727,205.419,174.728,205.419z"/>
		<path id="path-4_13_" style="fill:#142A3B;" d="M115.108,163.801c0,3.603-2.908,6.531-6.494,6.531
			c-3.588,0-6.492-2.928-6.492-6.531c0-3.61,2.904-6.531,6.492-6.531C112.2,157.27,115.108,160.191,115.108,163.801z"/>
		<path id="path-5_13_" style="opacity:0.35;enable-background:new    ;" d="M114.558,161.185c0.35,0.802,0.55,1.684,0.55,2.616
			c0,3.603-2.908,6.531-6.494,6.531c-0.904,0-1.765-0.187-2.548-0.524c1.004,2.301,3.282,3.914,5.942,3.914
			c3.586,0,6.494-2.927,6.494-6.531C118.502,164.492,116.876,162.181,114.558,161.185z"/>
		<path id="path-6_13_" style="fill:#EDEDED;" d="M217.229,148.712V26.899c0-8.336-6.342-15.09-14.167-15.09H14.167
			C6.341,11.809,0,18.563,0,26.899v121.813H217.229z"/>
		<path id="path-7_13_" style="opacity:0.35;enable-background:new    ;" d="M200.258,148.712v20.246
			c0,7.645-6.341,13.842-14.167,13.842h16.971c7.825,0,14.167-6.197,14.167-13.842v-20.246H200.258z"/>
		<path id="path-8_9_" style="opacity:0.25;enable-background:new    ;" d="M203.062,11.809h-5.158
			c1.481,2.385,2.354,5.235,2.354,8.31v121.813H0v6.78h217.229V26.899C217.229,18.563,210.887,11.809,203.062,11.809z"/>
		<path id="path-9_8_" style="fill:#FF3A2F;" d="M101.519,70.789H91.89c-1.855,0-3.361,2.255-3.361,5.037
			c0,2.784,1.506,5.04,3.361,5.04h0.449c1.857,0,3.361,2.256,3.361,5.038c0,2.783-1.504,5.039-3.361,5.039H71.64
			c-1.856,0-3.361,2.254-3.361,5.037c0,2.782,1.505,5.037,3.361,5.037h24.874h50.843c1.856,0,3.361-2.255,3.361-5.037
			c0-2.783-1.505-5.037-3.361-5.037h-5.744c-1.857,0-3.362-2.256-3.362-5.039c0-2.782,1.505-5.038,3.362-5.038h22.562
			c1.856,0,3.361-2.256,3.361-5.04c0-2.782-1.505-5.037-3.361-5.037h-1.684H101.519z"/>
		<path id="path-10_8_" style="fill:#FF3A2F;" d="M161.235,102.368c-1.557,0-2.818-2.417-2.818-5.399s1.261-5.399,2.818-5.399h8.636
			c1.557,0,2.818,2.417,2.818,5.399s-1.261,5.399-2.818,5.399H161.235z"/>
		<path id="path-11_6_" style="fill:#FF3A2F;" d="M41.915,102.368c-1.557,0-2.819-2.417-2.819-5.399s1.262-5.399,2.819-5.399h8.635
			c1.557,0,2.819,2.417,2.819,5.399s-1.262,5.399-2.819,5.399H41.915z"/>
	</g>
</g>
<g>
</g>
<g>
</g>
<g>
</g>
<g>
</g>
<g>
</g>
<g>
</g>
<g>
</g>
<g>
</g>
<g>
</g>
<g>
</g>
<g>
</g>
<g>
</g>
<g>
</g>
<g>
</g>
<g>
</g>
</svg>
