<?xml version="1.0" encoding="iso-8859-1"?>
<!-- Generator: Adobe Illustrator 19.1.0, SVG Export Plug-In . SVG Version: 6.00 Build 0)  -->
<svg version="1.1" id="Capa_1" xmlns="http://www.w3.org/2000/svg" xmlns:xlink="http://www.w3.org/1999/xlink" x="0px" y="0px"
	 viewBox="0 0 218.333 218.333" style="enable-background:new 0 0 218.333 218.333;" xml:space="preserve">
<g>
	<g id="group-37svg">
		<path id="path-1_99_" style="fill:#FBB713;" d="M167.745,44.999h14.654c2.825,0,5.114,1.706,5.114,3.81
			c0,2.106-2.289,3.811-5.114,3.811h-0.683c-2.825,0-5.115,1.707-5.115,3.811s2.29,3.811,5.115,3.811h31.501
			c2.825,0,5.116,1.706,5.116,3.811c0,2.105-2.291,3.81-5.116,3.81h-37.856h-41.608c-2.825,0-5.115-1.705-5.115-3.81
			c0-2.105,2.29-3.811,5.115-3.811h8.743c2.825,0,5.116-1.707,5.116-3.811s-2.291-3.811-5.116-3.811h-41.607
			c-2.825,0-5.116-1.705-5.116-3.811c0-2.104,2.291-3.81,5.116-3.81h9.833H167.745z"/>
		<path id="path-2_99_" style="fill:#FBB713;" d="M29.456,39.938h5.997c1.156,0,2.094,1.706,2.094,3.811s-0.938,3.811-2.094,3.811
			h-0.279c-1.156,0-2.094,1.706-2.094,3.81c0,2.106,0.938,3.812,2.094,3.812h12.892c1.157,0,2.094,1.706,2.094,3.811
			c0,2.104-0.937,3.811-2.094,3.811H32.573H15.544c-1.156,0-2.093-1.707-2.093-3.811c0-2.105,0.937-3.811,2.093-3.811h3.578
			c1.158,0,2.095-1.706,2.095-3.812c0-2.104-0.937-3.81-2.095-3.81H2.094C0.938,47.559,0,45.853,0,43.748s0.938-3.811,2.094-3.811
			h4.024H29.456z"/>
		<path id="path-3_99_" style="fill:#FBB713;" d="M131.807,15.216c3.677,0,6.657-1.82,6.657-4.067c0-2.245-2.98-4.066-6.657-4.066
			h-20.399c-3.676,0-6.657,1.821-6.657,4.066c0,2.247,2.981,4.067,6.657,4.067H131.807z"/>
		<path id="path-4_98_" style="fill:#142A3B;" d="M169.504,206.188l44.254-1.994l-50.444-106.42l-18.303,49.972L169.504,206.188z"/>
		<path id="path-5_98_" style="opacity:0.35;fill:#020403;enable-background:new    ;" d="M166.081,177.934l-17.146-40.905
			l-3.924,10.716l24.493,58.442l44.254-1.994l-5.091-10.741l-16.729,0.753C180.721,194.712,170.386,188.207,166.081,177.934z"/>
		<path id="path-6_97_" style="fill:#0CB04A;" d="M10.056,211.249L90.841,18.502l80.785,192.747H10.056z"/>
		<path id="path-7_97_" style="fill:#FBB713;" d="M104.388,50.824L90.841,18.502L77.295,50.824l4.277,2.621
			c1.028,0.63,2.366,0.431,3.162-0.47l3.622-4.101c0.873-0.986,2.372-1.117,3.405-0.299l6.043,4.789
			c0.873,0.691,2.107,0.717,3.009,0.061L104.388,50.824z"/>
		<path id="path-8_94_" style="fill:#FBB713;" d="M173.328,118.899l-10.014-21.126l-6.998,19.105
			c-0.445,1.217-0.09,2.581,0.896,3.432l2.665,2.301l1.074-2.319c1.032-2.231,4.134-2.474,5.509-0.433l0,0
			c1.006,1.496,3.074,1.849,4.526,0.772L173.328,118.899z"/>
	</g>
</g>
<g>
</g>
<g>
</g>
<g>
</g>
<g>
</g>
<g>
</g>
<g>
</g>
<g>
</g>
<g>
</g>
<g>
</g>
<g>
</g>
<g>
</g>
<g>
</g>
<g>
</g>
<g>
</g>
<g>
</g>
</svg>
