<?xml version="1.0" encoding="iso-8859-1"?>
<!-- Generator: Adobe Illustrator 19.1.0, SVG Export Plug-In . SVG Version: 6.00 Build 0)  -->
<svg version="1.1" id="Capa_1" xmlns="http://www.w3.org/2000/svg" xmlns:xlink="http://www.w3.org/1999/xlink" x="0px" y="0px"
	 viewBox="0 0 217.229 217.229" style="enable-background:new 0 0 217.229 217.229;" xml:space="preserve">
<g>
	<g id="group-69svg">
		<path id="path-1_126_" style="fill:#0CB04A;" d="M70.756,170.275H50.261c-3.952,0-7.156,2.336-7.156,5.216
			c0,2.882,3.204,5.217,7.156,5.217h0.953c3.952,0,7.156,2.334,7.156,5.214c0,2.881-3.204,5.216-7.156,5.216H7.155
			c-3.951,0-7.155,2.335-7.155,5.217c0,2.88,3.204,5.214,7.155,5.214h52.948h108.224c3.952,0,7.155-2.334,7.155-5.214
			c0-2.882-3.203-5.217-7.155-5.217h-12.228c-3.951,0-7.155-2.335-7.155-5.216c0-2.88,3.204-5.214,7.155-5.214h48.025
			c3.952,0,7.156-2.335,7.156-5.217c0-2.88-3.204-5.216-7.156-5.216h-3.584H70.756z"/>
		<path id="path-2_126_" style="fill:#0CB04A;" d="M196.743,202.039c-2.784,0-5.04-1.652-5.04-3.689c0-2.038,2.256-3.689,5.04-3.689
			h15.445c2.784,0,5.041,1.651,5.041,3.689c0,2.037-2.257,3.689-5.041,3.689H196.743z"/>
		<path id="path-3_126_" style="fill:#FBB713;" d="M147.283,53.857c0-21.355-17.313-38.667-38.669-38.667
			S69.946,32.502,69.946,53.857c0,1.055-58.829,29.803-58.829,45.75c0,21.355,43.635,28.519,97.655,28.519
			c23.149,0,97.655-3.248,97.655-26.322C206.427,85.855,147.283,54.912,147.283,53.857z"/>
		<path id="path-4_126_" style="fill:#EDEDED;" d="M81.023,46.632c-0.562,0-1.131-0.131-1.665-0.408
			c-1.775-0.923-2.465-3.108-1.545-4.883c6.007-11.552,17.822-18.729,30.834-18.729c2.001,0,3.62,1.621,3.62,3.621
			c0,1.998-1.619,3.619-3.62,3.619c-10.3,0-19.651,5.682-24.407,14.831C83.594,45.922,82.33,46.632,81.023,46.632z"/>
		<path id="path-5_125_" style="opacity:0.2;enable-background:new    ;" d="M147.283,53.857c0-21.356-17.313-38.667-38.669-38.667
			c-3.205,0-6.302,0.432-9.28,1.167c16.865,4.163,29.388,19.35,29.388,37.5c0,1.053,59.144,31.998,59.144,47.947
			c0,20.878-60.982,25.522-89.744,26.219c3.5,0.064,7.047,0.103,10.65,0.103c23.149,0,97.655-3.248,97.655-26.322
			C206.427,85.855,147.283,54.91,147.283,53.857z"/>
		<path id="path-6_122_" style="fill:#FBB713;" d="M206.427,101.804c0,15.802-43.634,30.614-97.655,30.614
			c-54.02,0-97.97-14.812-97.97-30.614c0-15.803,43.792-28.614,97.812-28.614C162.635,73.19,206.427,86.001,206.427,101.804z"/>
		<path id="path-7_119_" style="opacity:0.35;enable-background:new    ;" d="M206.427,101.804
			c0,15.802-43.634,30.614-97.655,30.614c-54.02,0-97.97-14.812-97.97-30.614c0-15.803,43.792-28.614,97.812-28.614
			C162.635,73.19,206.427,86.001,206.427,101.804z"/>
		<path id="path-8_96_" style="fill:#FBB713;" d="M142.044,180.262c-23.334,8.558-46.084,6.92-68.53,0
			c9.819-23.522,15.465-50.693,13.92-84.148c12.205-3.392,25.478-4.116,40.689,0C141.565,126.154,146.678,154.311,142.044,180.262z"
			/>
		<path id="path-9_83_" style="opacity:0.2;enable-background:new    ;" d="M128.123,96.113c-15.211-4.115-28.484-3.392-40.689,0
			c0.115,2.48,0.11,4.854,0.147,7.264c9.578-1.432,19.877-1.064,31.261,2.017c12.309,27.507,17.534,53.411,14.788,77.513
			c2.796-0.745,5.6-1.612,8.414-2.645C146.678,154.311,141.565,126.154,128.123,96.113z"/>
	</g>
</g>
<g>
</g>
<g>
</g>
<g>
</g>
<g>
</g>
<g>
</g>
<g>
</g>
<g>
</g>
<g>
</g>
<g>
</g>
<g>
</g>
<g>
</g>
<g>
</g>
<g>
</g>
<g>
</g>
<g>
</g>
</svg>
