<?xml version="1.0" encoding="iso-8859-1"?>
<!-- Generator: Adobe Illustrator 19.1.0, SVG Export Plug-In . SVG Version: 6.00 Build 0)  -->
<svg version="1.1" id="Capa_1" xmlns="http://www.w3.org/2000/svg" xmlns:xlink="http://www.w3.org/1999/xlink" x="0px" y="0px"
	 viewBox="0 0 216.632 216.632" style="enable-background:new 0 0 216.632 216.632;" xml:space="preserve">
<g>
	<g id="group-56svg">
		<path id="path-1_112_" style="fill:#FF3A2F;" d="M96.145,184.531H84.605c-2.225,0-4.029,2.36-4.029,5.271
			c0,2.912,1.804,5.272,4.029,5.272h0.537c2.225,0,4.029,2.36,4.029,5.27c0,2.912-1.804,5.272-4.029,5.272H60.335
			c-2.225,0-4.028,2.36-4.028,5.272c0,2.91,1.803,5.271,4.028,5.271h29.812h60.934c2.225,0,4.029-2.361,4.029-5.271
			c0-2.912-1.804-5.272-4.029-5.272h-6.885c-2.224,0-4.028-2.36-4.028-5.272c0-2.91,1.804-5.27,4.028-5.27h27.041
			c2.224,0,4.028-2.36,4.028-5.272c0-2.911-1.804-5.271-4.028-5.271h-2.019H96.145z"/>
		<path id="path-2_112_" style="fill:#FF3A2F;" d="M167.081,216.632c-1.568,0-2.838-1.67-2.838-3.728c0-2.06,1.27-3.729,2.838-3.729
			h8.696c1.568,0,2.838,1.669,2.838,3.729c0,2.058-1.27,3.728-2.838,3.728H167.081z"/>
		<path id="path-3_112_" style="fill:#142A3B;" d="M119.006,194.236H16.118V50.068h102.887V194.236z"/>
		<path id="path-4_112_" style="opacity:0.35;enable-background:new    ;" d="M105.179,50.068v144.168h13.826V50.068H105.179z"/>
		<path id="path-5_111_" style="fill:#EDEDED;" d="M98.668,140.536c0,17.195-13.927,31.133-31.107,31.133
			s-31.107-13.938-31.107-31.133s13.927-31.133,31.107-31.133S98.668,123.341,98.668,140.536z"/>
		<path id="path-6_108_" style="fill:#FBB713;" d="M83.115,140.536c0,8.597-6.963,15.566-15.553,15.566s-15.553-6.969-15.553-15.566
			s6.963-15.567,15.553-15.567S83.115,131.939,83.115,140.536z"/>
		<path id="path-7_105_" style="opacity:0.35;enable-background:new    ;" d="M80.121,131.424c1.863,2.566,2.993,5.697,2.993,9.111
			c0,8.598-6.963,15.567-15.553,15.567c-3.411,0-6.539-1.131-9.104-2.995c2.827,3.895,7.382,6.455,12.561,6.455
			c8.589,0,15.553-6.969,15.553-15.568C86.571,138.813,84.014,134.252,80.121,131.424z"/>
		<path id="path-8_82_" style="fill:#EDEDED;" d="M77.354,71.35c0,5.413-4.384,9.802-9.793,9.802c-5.408,0-9.793-4.389-9.793-9.802
			c0-5.412,4.385-9.802,9.793-9.802C72.97,61.548,77.354,65.938,77.354,71.35z"/>
		<path id="path-9_70_" style="fill:#142A3B;" d="M197.014,137.045c-2.001,0-3.5-1.621-3.5-3.62V88.996h-29V5.999h-94v44.158
			c0,1.999-1.999,3.62-4,3.62s-4-1.621-4-3.62V0h109v82.996h29v50.429C200.514,135.424,199.014,137.045,197.014,137.045z"/>
		<path id="path-10_64_" style="fill:#142A3B;" d="M146.014,158.767c-2.001,0-3.5-1.621-3.5-3.62V82.996h25.288
			c2.001,0,3.62,1.002,3.62,3c0,1.999-1.619,3-3.62,3h-18.288v66.151C149.514,157.146,148.014,158.767,146.014,158.767z"/>
		<path id="path-11_54_" style="fill:#142A3B;" d="M164.514,168.995h-22v-36h22V168.995z M149.514,161.994h7v-20.999h-7V161.994z"/>
		<path id="path-12_47_" style="fill:#142A3B;" d="M200.514,168.995h-22v-36h22V168.995z M185.514,161.994h8v-20.999h-8V161.994z"/>
	</g>
</g>
<g>
</g>
<g>
</g>
<g>
</g>
<g>
</g>
<g>
</g>
<g>
</g>
<g>
</g>
<g>
</g>
<g>
</g>
<g>
</g>
<g>
</g>
<g>
</g>
<g>
</g>
<g>
</g>
<g>
</g>
</svg>
