<?xml version="1.0" encoding="iso-8859-1"?>
<!-- Generator: Adobe Illustrator 19.1.0, SVG Export Plug-In . SVG Version: 6.00 Build 0)  -->
<svg version="1.1" id="Capa_1" xmlns="http://www.w3.org/2000/svg" xmlns:xlink="http://www.w3.org/1999/xlink" x="0px" y="0px"
	 viewBox="0 0 217.223 217.223" style="enable-background:new 0 0 217.223 217.223;" xml:space="preserve">
<g>
	<g id="group-121svg">
		<path id="path-1_25_" style="fill:#142A3B;" d="M65.066,187.846H47.327c-3.419,0-6.192,2.097-6.192,4.686
			c0,2.588,2.773,4.687,6.192,4.687h0.826c3.421,0,6.193,2.099,6.193,4.686c0,2.59-2.772,4.688-6.193,4.688H10.02
			c-3.42,0-6.192,2.099-6.192,4.688c0,2.588,2.772,4.686,6.192,4.686h45.827h93.667c3.421,0,6.193-2.098,6.193-4.686
			c0-2.589-2.772-4.688-6.193-4.688h-10.583c-3.42,0-6.193-2.098-6.193-4.688c0-2.587,2.773-4.686,6.193-4.686h41.566
			c3.42,0,6.192-2.099,6.192-4.687c0-2.589-2.772-4.686-6.192-4.686h-3.102H65.066z"/>
		<path id="path-2_25_" style="fill:#142A3B;" d="M175.081,217.223c-2.867,0-5.191-2.249-5.191-5.024
			c0-2.773,2.324-5.023,5.191-5.023h15.911c2.868,0,5.192,2.25,5.192,5.023c0,2.775-2.324,5.024-5.192,5.024H175.081z"/>
		<path id="path-3_25_" style="fill:#142A3B;" d="M112.631,162.346c-1.999,0-3.62-1.621-3.62-3.62V42.392L212.637,0v132.441
			c0,1.999-1.622,3.619-3.621,3.619c-1.999,0-3.621-1.62-3.621-3.619V10.787l-89.143,36.465v111.474
			C116.252,160.725,114.631,162.346,112.631,162.346z"/>
		<path id="path-4_25_" style="fill:#FF3A2F;" d="M117.013,176.249c0,13.144-11.766,26.285-26.286,26.285
			c-14.512,0-26.286-11.769-26.286-26.285c0-14.516,11.774-26.285,26.286-26.285c4.791,0,21.905,0,26.286,0
			C117.013,158.726,117.013,166.524,117.013,176.249z"/>
		<path id="path-5_25_" style="fill:#FF3A2F;" d="M213.396,141.201c0,13.143-11.767,26.286-26.286,26.286
			c-14.512,0-26.286-11.77-26.286-26.286c0-14.515,11.774-26.286,26.286-26.286c4.791,0,21.905,0,26.286,0
			C213.396,123.678,213.396,132.439,213.396,141.201z"/>
		<path id="path-6_25_" style="opacity:0.35;enable-background:new    ;" d="M107.552,149.964c0,6.39,0,12.635,0,19.978
			c0,13.142-11.767,26.284-26.286,26.284c-3.351,0-6.543-0.651-9.491-1.795c4.785,4.986,11.499,8.103,18.952,8.103
			c14.52,0,26.286-13.141,26.286-26.285c0-9.725,0-17.523,0-26.285C115.304,149.964,111.65,149.964,107.552,149.964z"/>
		<path id="path-7_24_" style="opacity:0.35;enable-background:new    ;" d="M203.935,114.915c0,6.661,0,13.32,0,19.979
			c0,13.143-11.767,26.286-26.287,26.286c-3.35,0-6.543-0.652-9.49-1.796c4.784,4.985,11.5,8.103,18.952,8.103
			c14.519,0,26.286-13.143,26.286-26.286c0-8.762,0-17.523,0-26.286C211.687,114.915,208.033,114.915,203.935,114.915z"/>
		<path id="path-8_17_" style="fill:#142A3B;" d="M112.633,79.111c-1.426,0-2.779-0.849-3.353-2.253
			c-0.757-1.848,0.13-3.962,1.981-4.721l96.385-39.427c1.849-0.747,3.963,0.129,4.722,1.981c0.756,1.849-0.131,3.964-1.982,4.722
			L114.001,78.84C113.554,79.022,113.089,79.111,112.633,79.111z"/>
	</g>
</g>
<g>
</g>
<g>
</g>
<g>
</g>
<g>
</g>
<g>
</g>
<g>
</g>
<g>
</g>
<g>
</g>
<g>
</g>
<g>
</g>
<g>
</g>
<g>
</g>
<g>
</g>
<g>
</g>
<g>
</g>
</svg>
