<?xml version="1.0" encoding="iso-8859-1"?>
<!-- Generator: Adobe Illustrator 19.1.0, SVG Export Plug-In . SVG Version: 6.00 Build 0)  -->
<svg version="1.1" id="Capa_1" xmlns="http://www.w3.org/2000/svg" xmlns:xlink="http://www.w3.org/1999/xlink" x="0px" y="0px"
	 viewBox="0 0 218.333 218.333" style="enable-background:new 0 0 218.333 218.333;" xml:space="preserve">
<g>
	<g id="group-71svg">
		<path id="path-1_137_" style="fill:#2476FF;" d="M135.719,208.474c1.706,0,3.089-0.868,3.089-1.939
			c0-1.072-1.383-1.941-3.089-1.941h-9.468c-1.706,0-3.091,0.869-3.091,1.941c0,1.071,1.385,1.939,3.091,1.939H135.719z"/>
		<path id="path-2_137_" style="fill:#2476FF;" d="M63.464,191.058h11.287c2.176,0,3.94,1.3,3.94,2.903
			c0,1.603-1.764,2.902-3.94,2.902h-0.525c-2.176,0-3.941,1.3-3.941,2.903s1.765,2.903,3.941,2.903h24.262
			c2.175,0,3.939,1.298,3.939,2.902c0,1.602-1.764,2.903-3.939,2.903H69.331H16.897c-2.176,0-3.941-1.301-3.941-2.903
			c0-1.604,1.765-2.902,3.941-2.902h6.734c2.175,0,3.939-1.3,3.939-2.903s-1.764-2.903-3.939-2.903H5.798
			c-2.176,0-3.94-1.299-3.94-2.902c0-1.603,1.764-2.903,3.94-2.903h13.747H63.464z"/>
		<path id="path-3_137_" style="fill:#2476FF;" d="M38.128,134.924h5.676c1.094,0,1.982,0.746,1.982,1.666
			c0,0.92-0.888,1.666-1.982,1.666H43.54c-1.094,0-1.982,0.746-1.982,1.666s0.888,1.666,1.982,1.666h12.2
			c1.095,0,1.981,0.745,1.981,1.665c0,0.921-0.886,1.666-1.981,1.666H41.079H14.71c-1.095,0-1.981-0.745-1.981-1.666
			c0-0.92,0.886-1.665,1.981-1.665h3.387c1.094,0,1.981-0.746,1.981-1.666s-0.887-1.666-1.981-1.666H1.982
			c-1.095,0-1.982-0.746-1.982-1.666c0-0.92,0.887-1.666,1.982-1.666h14.06H38.128z"/>
		<path id="path-4_136_" style="fill:#FBB713;" d="M122.101,88.153c-43.534,0-78.827,34.962-78.827,78.092h157.657
			C200.931,123.115,165.638,88.153,122.101,88.153z"/>
		<path id="path-5_136_" style="opacity:0.25;fill:#010101;enable-background:new    ;" d="M126.338,88.268
			c16.351,9.488,28.949,24.637,35.036,42.734c4.096,12.179-5.508,24.682-18.466,24.682H44.011
			c-0.471,3.455-0.737,6.976-0.737,10.561h157.657C200.931,124.524,167.904,90.449,126.338,88.268z"/>
		<path id="path-6_134_" style="fill:#FF3A2F;" d="M218.333,196.245H25.872v-29.999h192.461V196.245z"/>
		<path id="path-7_134_" style="opacity:0.25;fill:#010101;enable-background:new    ;" d="M200.565,166.245v7.683
			c0,8.437-6.905,15.275-15.42,15.275H25.872v7.04h192.461v-29.998H200.565z"/>
		<path id="path-8_131_" style="fill:#33485D;" d="M201.638,40.76l-37.876,75.351l24.337-80.65L201.638,40.76z"/>
		<path id="path-9_125_" style="fill:#33485D;" d="M143.42,26.382l-12.921,83.197l-1.602-84.161L143.42,26.382z"/>
		<path id="path-10_115_" style="fill:#33485D;" d="M55.357,37.463l24.338,80.649L41.82,42.76L55.357,37.463z"/>
		<path id="path-11_101_" style="fill:#FF3A2F;" d="M217.326,30.104c0,10.075-8.245,18.244-18.416,18.244
			c-10.17,0-18.416-8.169-18.416-18.244s8.246-18.243,18.416-18.243C209.081,11.861,217.326,20.029,217.326,30.104z"/>
		<path id="path-12_87_" style="fill:#FF3A2F;" d="M154.687,28.103c0,10.074-8.245,18.242-18.414,18.242
			c-10.172,0-18.417-8.168-18.417-18.242c0-10.076,8.245-18.244,18.417-18.244C146.442,9.859,154.687,18.027,154.687,28.103z"/>
		<path id="path-13_75_" style="opacity:0.25;fill:#010101;enable-background:new    ;" d="M198.91,11.86
			c-1.217,0-2.403,0.132-3.553,0.355c8.468,1.642,14.861,9.019,14.861,17.889s-6.393,16.247-14.861,17.888
			c1.15,0.224,2.336,0.356,3.553,0.356c10.171,0,18.416-8.168,18.416-18.244S209.081,11.86,198.91,11.86z"/>
		<path id="path-14_61_" style="opacity:0.25;fill:#010101;enable-background:new    ;" d="M136.272,9.859
			c-1.217,0-2.402,0.132-3.554,0.355c8.468,1.641,14.862,9.018,14.862,17.888s-6.394,16.246-14.862,17.889
			c1.152,0.223,2.337,0.354,3.554,0.354c10.17,0,18.415-8.168,18.415-18.243C154.687,18.026,146.442,9.859,136.272,9.859z"/>
		<path id="path-15_51_" style="fill:#FF3A2F;" d="M63.273,34.108c0,10.075-8.245,18.243-18.415,18.243s-18.416-8.168-18.416-18.243
			c0-10.076,8.246-18.244,18.416-18.244S63.273,24.032,63.273,34.108z"/>
		<path id="path-16_41_" style="opacity:0.25;fill:#010101;enable-background:new    ;" d="M44.858,15.864
			c-1.217,0-2.402,0.132-3.554,0.355c8.468,1.642,14.863,9.019,14.863,17.889c0,8.869-6.395,16.246-14.863,17.887
			c1.152,0.224,2.337,0.356,3.554,0.356c10.17,0,18.416-8.168,18.416-18.243C63.274,24.032,55.028,15.864,44.858,15.864z"/>
		<path id="path-17_36_" style="opacity:0.4;fill:#020200;enable-background:new    ;" d="M123.878,104.515
			c0,3.109-2.544,5.628-5.68,5.628c-3.138,0-5.682-2.519-5.682-5.628s2.544-5.627,5.682-5.627
			C121.334,98.888,123.878,101.406,123.878,104.515z"/>
		<path id="path-18_27_" style="opacity:0.4;fill:#020200;enable-background:new    ;" d="M120.324,146.758
			c0,3.108-2.542,5.628-5.681,5.628c-3.136,0-5.679-2.52-5.679-5.628c0-3.107,2.543-5.626,5.679-5.626
			C117.782,141.133,120.324,143.652,120.324,146.758z"/>
		<path id="path-19_21_" style="opacity:0.4;fill:#020200;enable-background:new    ;" d="M84.813,121.205
			c-2.219,2.199-5.816,2.199-8.033,0c-2.219-2.197-2.219-5.759,0-7.957c2.217-2.198,5.814-2.198,8.033,0
			C87.031,115.446,87.031,119.008,84.813,121.205z"/>
		<path id="path-20_16_" style="opacity:0.4;fill:#020200;enable-background:new    ;" d="M70.776,152.107
			c-2.217,2.198-5.814,2.198-8.032,0c-2.219-2.197-2.219-5.76,0-7.958c2.218-2.197,5.815-2.197,8.032,0
			C72.995,146.348,72.995,149.911,70.776,152.107z"/>
		<path id="path-21_12_" style="fill:#FFFFFF;" d="M39.641,38.087c-2.218,2.196-5.816,2.196-8.034,0
			c-2.218-2.198-2.218-5.761,0-7.959c2.218-2.197,5.816-2.197,8.034,0C41.859,32.326,41.859,35.889,39.641,38.087z"/>
		<path id="path-22_6_" style="fill:#FFFFFF;" d="M134.515,25.471c-2.218,2.197-5.814,2.197-8.033,0
			c-2.218-2.198-2.218-5.761,0-7.959c2.219-2.197,5.815-2.197,8.033,0C136.734,19.71,136.734,23.273,134.515,25.471z"/>
		<path id="path-23_3_" style="fill:#FFFFFF;" d="M197.245,25.471c-2.218,2.197-5.814,2.197-8.032,0
			c-2.218-2.198-2.218-5.761,0-7.959c2.218-2.197,5.814-2.197,8.032,0C199.464,19.71,199.464,23.273,197.245,25.471z"/>
		<path id="path-24_3_" style="opacity:0.4;fill:#020200;enable-background:new    ;" d="M170.074,146.758
			c0,3.108-2.543,5.628-5.681,5.628s-5.68-2.52-5.68-5.628c0-3.107,2.542-5.626,5.68-5.626S170.074,143.652,170.074,146.758z"/>
		<path id="path-25_3_" style="opacity:0.4;fill:#020200;enable-background:new    ;" d="M152.305,122.118
			c0,3.108-2.543,5.627-5.68,5.627c-3.137,0-5.681-2.519-5.681-5.627c0-3.108,2.544-5.628,5.681-5.628
			C149.762,116.489,152.305,119.009,152.305,122.118z"/>
	</g>
</g>
<g>
</g>
<g>
</g>
<g>
</g>
<g>
</g>
<g>
</g>
<g>
</g>
<g>
</g>
<g>
</g>
<g>
</g>
<g>
</g>
<g>
</g>
<g>
</g>
<g>
</g>
<g>
</g>
<g>
</g>
</svg>
