<?xml version="1.0" encoding="iso-8859-1"?>
<!-- Generator: Adobe Illustrator 19.1.0, SVG Export Plug-In . SVG Version: 6.00 Build 0)  -->
<svg version="1.1" id="Capa_1" xmlns="http://www.w3.org/2000/svg" xmlns:xlink="http://www.w3.org/1999/xlink" x="0px" y="0px"
	 viewBox="0 0 217.229 217.229" style="enable-background:new 0 0 217.229 217.229;" xml:space="preserve">
<g>
	<g id="group-22svg">
		<path id="path-1_75_" style="fill:#2476FF;" d="M149.91,134.89h4.863c0.937,0,1.697,0.572,1.697,1.278
			c0,0.706-0.76,1.279-1.697,1.279h-0.227c-0.937,0-1.697,0.572-1.697,1.277c0,0.706,0.76,1.279,1.697,1.279h10.452
			c0.937,0,1.697,0.572,1.697,1.278c0,0.705-0.76,1.278-1.697,1.278h-12.561h-25.673c-0.937,0-1.697-0.573-1.697-1.278
			c0-0.706,0.76-1.278,1.697-1.278h2.901c0.937,0,1.698-0.573,1.698-1.279c0-0.705-0.761-1.277-1.698-1.277H115.86
			c-0.938,0-1.698-0.573-1.698-1.279c0-0.706,0.76-1.278,1.698-1.278h3.262H149.91z"/>
		<path id="path-2_75_" style="fill:#2476FF;" d="M51.422,155.073H36.527c-2.872,0-5.201,1.697-5.201,3.791
			c0,2.093,2.329,3.79,5.201,3.79h0.693c2.871,0,5.2,1.696,5.2,3.79c0,2.094-2.329,3.791-5.2,3.791H5.2c-2.872,0-5.2,1.697-5.2,3.79
			c0,2.094,2.328,3.791,5.2,3.791h38.48h78.651c2.872,0,5.2-1.697,5.2-3.791c0-2.093-2.328-3.79-5.2-3.79h-8.887
			c-2.872,0-5.199-1.697-5.199-3.791c0-2.094,2.327-3.79,5.199-3.79h34.902c2.872,0,5.2-1.697,5.2-3.79
			c0-2.094-2.328-3.791-5.2-3.791h-2.605H51.422z"/>
		<path id="path-3_75_" style="fill:#2476FF;" d="M142.982,178.156c-2.023,0-3.664-1.199-3.664-2.68s1.641-2.682,3.664-2.682h11.225
			c2.023,0,3.663,1.201,3.663,2.682s-1.64,2.68-3.663,2.68H142.982z"/>
		<path id="path-4_75_" style="fill:#FF3A2F;" d="M73.975,39.489c-0.95-0.554-2.13-0.554-3.08,0c-0.951,0.547-1.54,1.563-1.54,2.666
			v119.283c0,1.101,0.589,2.118,1.54,2.671c0.481,0.271,1.011,0.409,1.54,0.409c0.535,0,1.071-0.138,1.54-0.409l103.313-59.65
			c0.957-0.554,1.54-1.571,1.54-2.672c0-1.1-0.583-2.116-1.54-2.672L73.975,39.489z"/>
		<path id="path-5_74_" style="fill:#142A3B;" d="M214.148,39.886h-30.807c-1.697,0-3.081,1.377-3.081,3.081V160.03
			c0,1.706,1.384,3.081,3.081,3.081h30.807c1.709,0,3.081-1.375,3.081-3.081V42.967C217.229,41.263,215.857,39.886,214.148,39.886z"
			/>
		<path id="path-6_71_" style="opacity:0.35;fill:#090908;enable-background:new    ;" d="M177.288,99.115l-6.015-3.471
			L69.355,154.49v6.948c0,1.101,0.589,2.119,1.54,2.671c0.481,0.271,1.011,0.409,1.54,0.409c0.535,0,1.071-0.138,1.54-0.409
			l103.313-59.649c0.957-0.556,1.54-1.572,1.54-2.673S178.245,99.671,177.288,99.115z"/>
		<path id="path-7_70_" style="opacity:0.35;fill:#090908;enable-background:new    ;" d="M214.148,39.886h-2.834v111.272
			c0,1.706-1.372,3.08-3.081,3.08H180.26v5.792c0,1.706,1.384,3.081,3.081,3.081h30.807c1.709,0,3.081-1.375,3.081-3.081V42.966
			C217.229,41.263,215.857,39.886,214.148,39.886z"/>
	</g>
</g>
<g>
</g>
<g>
</g>
<g>
</g>
<g>
</g>
<g>
</g>
<g>
</g>
<g>
</g>
<g>
</g>
<g>
</g>
<g>
</g>
<g>
</g>
<g>
</g>
<g>
</g>
<g>
</g>
<g>
</g>
</svg>
