<?xml version="1.0" encoding="iso-8859-1"?>
<!-- Generator: Adobe Illustrator 19.1.0, SVG Export Plug-In . SVG Version: 6.00 Build 0)  -->
<svg version="1.1" id="Capa_1" xmlns="http://www.w3.org/2000/svg" xmlns:xlink="http://www.w3.org/1999/xlink" x="0px" y="0px"
	 viewBox="0 0 217.221 217.221" style="enable-background:new 0 0 217.221 217.221;" xml:space="preserve">
<g>
	<g id="group-106svg">
		<path id="path-1_8_" style="fill:#142A3B;" d="M192.878,217.221H24.344V13.625h168.534V217.221z"/>
		<path id="path-2_8_" style="opacity:0.35;enable-background:new    ;" d="M181.975,202.638H48.823V41.784h133.152V202.638z"/>
		<path id="path-3_8_" style="fill:#EDEDED;" d="M175.186,195.849H42.034V34.996h133.153V195.849z"/>
		<path id="path-4_8_" style="opacity:0.35;enable-background:new    ;" d="M155.089,56.439H75.708V28.462h79.382V56.439z"/>
		<path id="path-5_8_" style="fill:#FBB713;" d="M148.301,49.651H68.92V21.674h79.382V49.651z"/>
		<path id="path-6_8_" style="fill:#FBB713;" d="M129.867,21.257c0,11.737-9.517,21.255-21.256,21.255
			c-11.74,0-21.257-9.518-21.257-21.255C87.354,9.517,96.87,0,108.61,0C120.35,0,129.867,9.517,129.867,21.257z"/>
		<path id="path-7_8_" style="fill:#142A3B;" d="M117.043,21.257c0,4.655-3.776,8.432-8.433,8.432c-4.658,0-8.433-3.777-8.433-8.432
			c0-4.658,3.775-8.434,8.433-8.434C113.268,12.823,117.043,16.599,117.043,21.257z"/>
		<path id="path-8_7_" style="opacity:0.35;enable-background:new    ;" d="M112.602,13.869c0.646,1.194,1.047,2.54,1.047,3.992
			c0,4.658-3.775,8.433-8.433,8.433c-1.452,0-2.798-0.401-3.991-1.048c1.427,2.634,4.181,4.443,7.385,4.443
			c4.658,0,8.434-3.776,8.434-8.434C117.043,18.05,115.234,15.296,112.602,13.869z"/>
		<path id="path-9_6_" style="fill:#FF3A2F;" d="M90.744,81.049h-9.07c-1.749,0-3.166,0.991-3.166,2.216
			c0,1.224,1.417,2.218,3.166,2.218h0.422c1.749,0,3.167,0.992,3.167,2.216c0,1.226-1.418,2.218-3.167,2.218H62.599
			c-1.749,0-3.166,0.993-3.166,2.218s1.417,2.216,3.166,2.216h23.432h47.895c1.748,0,3.166-0.991,3.166-2.216
			s-1.418-2.218-3.166-2.218h-5.412c-1.749,0-3.167-0.992-3.167-2.218c0-1.224,1.418-2.216,3.167-2.216h21.254
			c1.749,0,3.166-0.994,3.166-2.218c0-1.225-1.417-2.216-3.166-2.216h-1.587H90.744z"/>
		<path id="path-10_6_" style="fill:#FF3A2F;" d="M146.999,94.946c-1.466,0-2.655-1.064-2.655-2.376
			c0-1.313,1.189-2.378,2.655-2.378h8.135c1.466,0,2.655,1.065,2.655,2.378c0,1.312-1.189,2.376-2.655,2.376H146.999z"/>
		<path id="path-11_4_" style="fill:#FF3A2F;" d="M90.744,148.929h-9.07c-1.749,0-3.166,0.993-3.166,2.217
			c0,1.225,1.417,2.219,3.166,2.219h0.422c1.749,0,3.167,0.992,3.167,2.217c0,1.224-1.418,2.216-3.167,2.216H62.599
			c-1.749,0-3.166,0.994-3.166,2.218c0,1.225,1.417,2.217,3.166,2.217h23.432h47.895c1.748,0,3.166-0.992,3.166-2.217
			c0-1.224-1.418-2.218-3.166-2.218h-5.412c-1.749,0-3.167-0.992-3.167-2.216c0-1.225,1.418-2.217,3.167-2.217h21.254
			c1.749,0,3.166-0.994,3.166-2.219c0-1.224-1.417-2.217-3.166-2.217h-1.587H90.744z"/>
		<path id="path-12_4_" style="fill:#FF3A2F;" d="M146.999,162.827c-1.466,0-2.655-1.063-2.655-2.374
			c0-1.315,1.189-2.378,2.655-2.378h8.135c1.466,0,2.655,1.063,2.655,2.378c0,1.311-1.189,2.374-2.655,2.374H146.999z"/>
		<path id="path-13_3_" style="fill:#FF3A2F;" d="M126.476,114.988h9.07c1.749,0,3.167,0.992,3.167,2.217
			c0,1.224-1.418,2.218-3.167,2.218h-0.422c-1.749,0-3.167,0.993-3.167,2.217c0,1.225,1.418,2.218,3.167,2.218h19.498
			c1.749,0,3.167,0.993,3.167,2.217c0,1.225-1.418,2.218-3.167,2.218h-23.432H83.296c-1.749,0-3.167-0.993-3.167-2.218
			c0-1.224,1.418-2.217,3.167-2.217h5.411c1.749,0,3.167-0.993,3.167-2.218c0-1.224-1.418-2.217-3.167-2.217H67.452
			c-1.748,0-3.166-0.994-3.166-2.218c0-1.225,1.418-2.217,3.166-2.217h1.587H126.476z"/>
		<path id="path-14_3_" style="fill:#FF3A2F;" d="M70.223,128.886c1.466,0,2.655-1.063,2.655-2.375c0-1.313-1.189-2.377-2.655-2.377
			h-8.136c-1.466,0-2.654,1.064-2.654,2.377c0,1.312,1.188,2.375,2.654,2.375H70.223z"/>
	</g>
</g>
<g>
</g>
<g>
</g>
<g>
</g>
<g>
</g>
<g>
</g>
<g>
</g>
<g>
</g>
<g>
</g>
<g>
</g>
<g>
</g>
<g>
</g>
<g>
</g>
<g>
</g>
<g>
</g>
<g>
</g>
</svg>
