<?xml version="1.0" encoding="iso-8859-1"?>
<!-- Generator: Adobe Illustrator 19.1.0, SVG Export Plug-In . SVG Version: 6.00 Build 0)  -->
<svg version="1.1" id="Capa_1" xmlns="http://www.w3.org/2000/svg" xmlns:xlink="http://www.w3.org/1999/xlink" x="0px" y="0px"
	 viewBox="0 0 217.222 217.222" style="enable-background:new 0 0 217.222 217.222;" xml:space="preserve">
<g>
	<g id="group-97svg">
		<path id="path-1_157_" style="fill:#FBB713;" d="M79.438,189.068H61.679c-3.424,0-6.2,2.1-6.2,4.692
			c0,2.591,2.776,4.691,6.2,4.691h0.827c3.424,0,6.2,2.102,6.2,4.693s-2.776,4.692-6.2,4.692H24.329c-3.424,0-6.2,2.102-6.2,4.694
			c0,2.59,2.776,4.692,6.2,4.692h45.879h93.775c3.424,0,6.2-2.102,6.2-4.692c0-2.592-2.776-4.694-6.2-4.694h-10.595
			c-3.425,0-6.2-2.101-6.2-4.692s2.775-4.693,6.2-4.693h41.613c3.424,0,6.2-2.1,6.2-4.691c0-2.592-2.776-4.692-6.2-4.692h-3.106
			H79.438z"/>
		<path id="path-2_157_" style="fill:#FBB713;" d="M53.262,171.365h5.065c0.976,0,1.768-0.869,1.768-1.939
			c0-1.072-0.792-1.94-1.768-1.94h-0.236c-0.976,0-1.768-0.868-1.768-1.939c0-1.07,0.792-1.938,1.768-1.938h10.888
			c0.977,0,1.768-0.87,1.768-1.94c0-1.07-0.791-1.939-1.768-1.939H55.895H29.149c-0.976,0-1.768,0.869-1.768,1.939
			c0,1.07,0.792,1.94,1.768,1.94h3.022c0.977,0,1.768,0.868,1.768,1.938c0,1.071-0.791,1.939-1.768,1.939H17.79
			c-0.977,0-1.768,0.868-1.768,1.94c0,1.07,0.791,1.939,1.768,1.939h3.399H53.262z"/>
		<path id="path-3_157_" style="fill:#142A3B;" d="M175.374,193.099c-2.001,0-4-1.621-4-3.621v-7.24c0-1.999,1.999-3.62,4-3.62
			c2.001,0,4,1.621,4,3.62v7.24C179.374,191.478,177.374,193.099,175.374,193.099z"/>
		<path id="path-4_157_" style="fill:#FF3A2F;" d="M128.374,175.163v-24.999h-33v24.999H128.374z"/>
		<path id="path-5_156_" style="opacity:0.35;enable-background:new    ;" d="M96.564,149.527l0.025,3.459l25.26,6.315
			l-0.026,12.326l-25.259,3.157l0,0h31.574v-25.257H96.564z"/>
		<path id="path-6_153_" style="fill:#142A3B;" d="M171.665,189.162h-10.862c-2.001,0-3.62-2-3.62-3.999
			c0-1.999,1.619-3.999,3.62-3.999h10.862c2.001,0,3.62,2,3.62,3.999C175.286,187.162,173.667,189.162,171.665,189.162z"/>
		<path id="path-7_149_" style="fill:#2476FF;" d="M122.979,24.22V0h-22.103v24.22c0,0-42.334,80.458-14.174,120.856
			c2.903,4.163,7.804,6.476,12.88,6.476h30.615c5.484,0,10.58-2.809,13.553-7.418C169.975,103.49,122.979,24.22,122.979,24.22z"/>
		<path id="path-8_125_" style="fill:#FFFFFF;" d="M90.127,133.622c-1.234,0-2.432-0.63-3.111-1.763
			c-13.21-22.105-3.154-54.594,7.608-77.957c0.835-1.815,2.988-2.611,4.802-1.773c1.817,0.837,2.613,2.985,1.775,4.803
			c-8.213,17.831-20.171,50.793-7.97,71.21c1.025,1.717,0.467,3.94-1.251,4.966C91.4,133.457,90.759,133.622,90.127,133.622z"/>
		<path id="path-9_109_" style="opacity:0.25;enable-background:new    ;" d="M122.979,24.22V0h-9.473v21.064
			c0,0,46.996,79.268,20.772,119.912c-2.973,4.609-8.069,7.419-13.553,7.419H90.11c-0.053,0-0.106-0.009-0.159-0.01
			c2.736,2.046,6.134,3.167,9.631,3.167h30.615c5.484,0,10.58-2.809,13.553-7.418C169.975,103.49,122.979,24.22,122.979,24.22z"/>
		<path id="path-10_98_" style="fill:#142A3B;" d="M164.374,192.163H66.375v-17h97.999V192.163z"/>
		<path id="path-11_85_" style="opacity:0.35;enable-background:new    ;" d="M145.081,174.784v17.408h18.944v-17.408H145.081z"/>
		<path id="path-12_75_" style="fill:#142A3B;" d="M124.374,150.164h-7v-37.999h7V150.164z"/>
		<path id="path-13_59_" style="fill:#142A3B;" d="M110.374,150.164h-8v-37.999h8V150.164z"/>
	</g>
</g>
<g>
</g>
<g>
</g>
<g>
</g>
<g>
</g>
<g>
</g>
<g>
</g>
<g>
</g>
<g>
</g>
<g>
</g>
<g>
</g>
<g>
</g>
<g>
</g>
<g>
</g>
<g>
</g>
<g>
</g>
</svg>
