<?xml version="1.0" encoding="iso-8859-1"?>
<!-- Generator: Adobe Illustrator 19.1.0, SVG Export Plug-In . SVG Version: 6.00 Build 0)  -->
<svg version="1.1" id="Capa_1" xmlns="http://www.w3.org/2000/svg" xmlns:xlink="http://www.w3.org/1999/xlink" x="0px" y="0px"
	 viewBox="0 0 217.22 217.22" style="enable-background:new 0 0 217.22 217.22;" xml:space="preserve">
<g>
	<g id="group-113svg">
		<path id="path-1_16_" style="fill:#142A3B;" d="M72.208,186.613H53.726c-3.563,0-6.452,2.186-6.452,4.884
			c0,2.697,2.889,4.883,6.452,4.883h0.86c3.564,0,6.452,2.187,6.452,4.883c0,2.697-2.888,4.883-6.452,4.883h-39.73
			c-3.563,0-6.452,2.187-6.452,4.884c0,2.696,2.889,4.884,6.452,4.884h47.746h97.59c3.563,0,6.452-2.188,6.452-4.884
			c0-2.697-2.889-4.884-6.452-4.884h-11.027c-3.563,0-6.452-2.186-6.452-4.883c0-2.696,2.889-4.883,6.452-4.883h43.307
			c3.563,0,6.452-2.186,6.452-4.883c0-2.698-2.889-4.884-6.452-4.884h-3.232H72.208z"/>
		<path id="path-2_16_" style="fill:#142A3B;" d="M186.83,217.22c-2.988,0-5.41-2.343-5.41-5.232c0-2.89,2.422-5.233,5.41-5.233
			h16.577c2.987,0,5.409,2.343,5.409,5.233c0,2.889-2.422,5.232-5.409,5.232H186.83z"/>
		<path id="path-3_16_" style="fill:#0CB04A;" d="M33.035,19.702v155.942c0,10.879,27.955,19.702,62.432,19.702
			c34.474,0,62.431-8.823,62.431-19.702V19.702l0,0"/>
		<path id="path-4_16_" style="opacity:0.25;enable-background:new    ;" d="M33.035,19.702v155.942
			c0,10.879,27.955,19.702,62.432,19.702c34.474,0,62.431-8.823,62.431-19.702V19.702l0,0"/>
		<path id="path-5_16_" style="opacity:0.35;enable-background:new    ;" d="M157.898,19.702l-11.932,11.58
			c-11.126,3.703-36.606,11.037-68.54,6.207c-17.387-2.63-32.725-7.279-43.392-12.628c4.259,9.785,28.202,20.3,58.161,24.833
			c19.495,2.949,37.286,2.713,49.274-0.031v116.122c0,10.881-27.957,19.702-62.431,19.702c-17.585,0-33.446-2.303-44.794-5.995
			c5.676,9.036,30.922,15.854,61.223,15.854c34.474,0,62.431-8.823,62.431-19.702V32.765V19.702z"/>
		<path id="path-6_16_" style="fill:#0CB04A;" d="M157.898,19.702c0,10.88-27.957,19.702-62.431,19.702
			c-34.477,0-62.432-8.822-62.432-19.702C33.035,8.82,60.99,0,95.467,0C129.941,0,157.898,8.82,157.898,19.702z"/>
		<path id="path-7_16_" style="opacity:0.25;enable-background:new    ;" d="M95.467,0c-2.221,0-4.411,0.039-6.572,0.11
			c31.385,1.038,55.86,9.411,55.86,19.592c0,10.179-24.475,18.553-55.86,19.592c2.161,0.071,4.351,0.11,6.572,0.11
			c34.474,0,62.431-8.822,62.431-19.702C157.898,8.82,129.941,0,95.467,0z"/>
		<path id="path-8_12_" style="fill:#142A3B;" d="M72.98,19.702c0,1.807-4.645,3.273-10.372,3.273
			c-5.728,0-10.373-1.466-10.373-3.273s4.645-3.274,10.373-3.274C68.335,16.428,72.98,17.895,72.98,19.702z"/>
		<path id="path-9_11_" style="opacity:0.35;enable-background:new    ;" d="M72.619,20.515c-1.151,1.412-5.178,2.46-10.011,2.46
			c-2.58,0-4.91-0.308-6.726-0.8c-0.212,0.261-0.361,0.531-0.361,0.814c0,1.807,4.645,3.273,10.372,3.273
			c5.728,0,10.373-1.466,10.373-3.273C76.266,21.994,74.833,21.115,72.619,20.515z"/>
		<path id="path-10_10_" style="fill:#EDEDED;" d="M140.651,124.388c0,24.954-20.23,45.182-45.184,45.182
			c-24.955,0-45.185-20.228-45.185-45.182c0-24.955,20.23-45.183,45.185-45.183C120.421,79.205,140.651,99.433,140.651,124.388z"/>
		<path id="path-11_8_" style="opacity:0.35;enable-background:new    ;" d="M118.758,85.723
			c13.103,7.911,21.893,22.243,21.893,38.664c0,24.955-20.229,45.183-45.184,45.183c-5.913,0-11.544-1.168-16.72-3.232
			c6.808,4.11,14.759,6.519,23.291,6.519c24.955,0,45.185-20.229,45.185-45.185C147.223,108.632,135.428,92.374,118.758,85.723z"/>
		<path id="path-12_6_" style="fill:#142A3B;" d="M113.757,129.489c0,10.102-8.189,18.292-18.29,18.292
			c-10.102,0-18.291-8.19-18.291-18.292c0-10.1,18.291-30.543,18.291-30.543S113.757,119.389,113.757,129.489z"/>
		<path id="path-13_5_" style="opacity:0.35;enable-background:new    ;" d="M95.467,98.946c0,0-1.347,1.512-3.287,3.876
			c5.261,6.414,15.006,19.287,15.006,26.667c0,8.978-6.474,16.431-15.006,17.98c1.068,0.194,2.163,0.312,3.287,0.312
			c10.101,0,18.29-8.19,18.29-18.292C113.757,119.389,95.467,98.946,95.467,98.946z"/>
	</g>
</g>
<g>
</g>
<g>
</g>
<g>
</g>
<g>
</g>
<g>
</g>
<g>
</g>
<g>
</g>
<g>
</g>
<g>
</g>
<g>
</g>
<g>
</g>
<g>
</g>
<g>
</g>
<g>
</g>
<g>
</g>
</svg>
