<?xml version="1.0" encoding="iso-8859-1"?>
<!-- Generator: Adobe Illustrator 19.1.0, SVG Export Plug-In . SVG Version: 6.00 Build 0)  -->
<svg version="1.1" id="Capa_1" xmlns="http://www.w3.org/2000/svg" xmlns:xlink="http://www.w3.org/1999/xlink" x="0px" y="0px"
	 viewBox="0 0 218.333 218.333" style="enable-background:new 0 0 218.333 218.333;" xml:space="preserve">
<g>
	<g id="group-166svg">
		<path id="path-1_74_" style="fill:#2476FF;" d="M78.665,191.37h16.018c3.087,0,5.591,1.113,5.591,2.487
			c0,1.374-2.504,2.488-5.591,2.488h-0.745c-3.09,0-5.592,1.113-5.592,2.487c0,1.372,2.502,2.486,5.592,2.486h34.429
			c3.087,0,5.591,1.114,5.591,2.488c0,1.373-2.504,2.487-5.591,2.487H86.99H41.514c-3.089,0-5.592-1.114-5.592-2.487
			c0-1.374,2.503-2.488,5.592-2.488h9.555c3.087,0,5.591-1.114,5.591-2.486c0-1.374-2.504-2.487-5.591-2.487H5.591
			c-3.088,0-5.591-1.114-5.591-2.488c0-1.374,2.503-2.487,5.591-2.487H16.34H78.665z"/>
		<path id="path-2_74_" style="fill:#2476FF;" d="M177.798,208.445c3.525,0,6.384-1.272,6.384-2.841
			c0-1.567-2.859-2.839-6.384-2.839h-19.566c-3.525,0-6.383,1.272-6.383,2.839c0,1.569,2.858,2.841,6.383,2.841H177.798z"/>
		<path id="path-3_74_" style="fill:#2476FF;" d="M192.943,169.028h7.354c1.418,0,2.568,0.631,2.568,1.411
			c0,0.779-1.15,1.411-2.568,1.411h-0.342c-1.419,0-2.567,0.632-2.567,1.41c0,0.78,1.148,1.412,2.567,1.412h15.81
			c1.418,0,2.568,0.632,2.568,1.411c0,0.779-1.15,1.41-2.568,1.41h-19h-38.833c-1.418,0-2.569-0.631-2.569-1.41
			c0-0.779,1.151-1.411,2.569-1.411h4.386c1.419,0,2.568-0.632,2.568-1.412c0-0.778-1.149-1.41-2.568-1.41h-20.882
			c-1.418,0-2.567-0.632-2.567-1.411c0-0.78,1.149-1.411,2.567-1.411h4.935H192.943z"/>
		<path id="path-4_74_" style="fill:#2476FF;" d="M168.206,106.123v7.285c0,1.405-0.978,2.543-2.183,2.543
			c-1.206,0-2.184-1.138-2.184-2.543v-0.34c0-1.404-0.977-2.543-2.182-2.543c-1.206,0-2.183,1.139-2.183,2.543v15.662
			c0,1.405-0.978,2.544-2.183,2.544c-1.206,0-2.184-1.139-2.184-2.544v-18.821V71.438c0-1.405,0.978-2.544,2.184-2.544
			c1.205,0,2.183,1.139,2.183,2.544v4.346c0,1.406,0.977,2.545,2.183,2.545c1.205,0,2.182-1.139,2.182-2.545V55.097
			c0-1.405,0.978-2.543,2.184-2.543c1.205,0,2.183,1.138,2.183,2.543v4.89V106.123z"/>
		<path id="path-5_74_" style="fill:#2476FF;" d="M137.167,179.021c2.644,0,4.789-0.523,4.789-1.168
			c0-0.646-2.145-1.169-4.789-1.169h-14.68c-2.645,0-4.789,0.523-4.789,1.169c0,0.645,2.144,1.168,4.789,1.168H137.167z"/>
		<path id="path-6_73_" style="fill:#142A3B;" d="M51.361,171.349c-9.698,0-19.393-3.656-26.769-10.966
			c-7.165-7.094-11.142-16.541-11.198-26.601c-0.058-10.099,3.849-19.561,10.998-26.643c7.803-7.733,16.332-11.503,25.444-11.238
			l8.812-8.729c1.422-1.408,3.724-1.408,5.146,0c1.422,1.408,1.422,3.69,0,5.097l-11.161,11.058l-1.688-0.143
			c-7.595-0.649-14.606,2.313-21.408,9.052c-5.764,5.711-8.912,13.347-8.865,21.506c0.046,8.148,3.265,15.8,9.064,21.543
			c11.927,11.815,31.34,11.812,43.28-0.017c6.535-6.474,9.634-14.142,8.958-22.173l-0.142-1.666l10.746-10.645
			c1.422-1.408,3.724-1.408,5.146,0c1.422,1.408,1.422,3.691,0,5.098l-8.398,8.321c0.318,9.576-3.521,18.589-11.166,26.163
			C70.769,167.687,61.062,171.347,51.361,171.349z"/>
		<path id="path-7_73_" style="fill:#FF3A2F;" d="M136.446,120.472l-73.98-73.287c-3.976-3.94-11.053-3.315-15.029,0.624
			s-4.606,10.949-0.63,14.889l16.391,16.237l-7.83,7.757l41.758,41.368l7.83-7.755l15.83,15.68
			c3.976,3.939,11.053,3.316,15.03-0.623C139.792,131.422,140.423,124.411,136.446,120.472z"/>
		<path id="path-8_70_" style="opacity:0.45;fill:#010101;enable-background:new    ;" d="M63.816,79.063l-1.403,1.389
			l37.719,44.681l5.095-5.047L63.816,79.063z"/>
		<path id="path-9_67_" style="opacity:0.35;fill:#010101;enable-background:new    ;" d="M136.446,120.522l-73.98-73.287
			c-2.517-2.495-6.275-3.149-9.704-2.301l68.92,68.275c3.976,3.94,3.346,10.949-0.63,14.888c-1.458,1.446-3.339,2.435-5.326,2.925
			l5.06,5.012c3.975,3.94,11.053,3.317,15.03-0.623C139.792,131.472,140.423,124.461,136.446,120.522z"/>
		<path id="path-10_61_" style="fill:#2476FF;" d="M165.044,61.982c12.89-12.768,11.576-34.417-3.152-45.881
			c-8.771-6.829-20.901-8.008-31.145-3.635c-13.882,5.923-19.231,19.374-17.857,31.514c0.774,6.844-2.006,13.62-6.924,18.49
			L91.907,76.4l15.66,15.513l14.4-14.265c4.969-4.925,11.899-7.057,18.913-6.597C149.406,71.609,158.345,68.618,165.044,61.982z"/>
		<path id="path-11_53_" style="fill:#FFFFFF;" d="M126.285,37.373c-0.676,0-1.358-0.123-2.02-0.384
			c-2.801-1.105-4.167-4.251-3.052-7.025c3.334-8.295,10.784-14.087,19.449-15.116c3.02-0.361,5.709,1.759,6.069,4.723
			c0.359,2.965-1.776,5.657-4.769,6.013c-4.619,0.549-8.781,3.839-10.607,8.381C130.502,36.084,128.452,37.373,126.285,37.373z"/>
		<path id="path-12_44_" style="opacity:0.35;fill:#010101;enable-background:new    ;" d="M161.892,16.101
			c-4.232-3.296-9.251-5.242-14.457-5.919c1.171,0.67,2.305,1.42,3.384,2.262c14.727,11.465,16.041,33.113,3.153,45.883
			c-6.699,6.635-15.639,9.625-24.166,9.067c-7.013-0.46-13.942,1.672-18.913,6.597L100.185,84.6l7.382,7.313l14.4-14.265
			c4.969-4.925,11.899-7.057,18.913-6.597c8.526,0.559,17.465-2.433,24.164-9.069C177.934,49.213,176.62,27.564,161.892,16.101z"/>
	</g>
</g>
<g>
</g>
<g>
</g>
<g>
</g>
<g>
</g>
<g>
</g>
<g>
</g>
<g>
</g>
<g>
</g>
<g>
</g>
<g>
</g>
<g>
</g>
<g>
</g>
<g>
</g>
<g>
</g>
<g>
</g>
</svg>
