<?xml version="1.0" encoding="iso-8859-1"?>
<!-- Generator: Adobe Illustrator 19.1.0, SVG Export Plug-In . SVG Version: 6.00 Build 0)  -->
<svg version="1.1" id="Capa_1" xmlns="http://www.w3.org/2000/svg" xmlns:xlink="http://www.w3.org/1999/xlink" x="0px" y="0px"
	 viewBox="0 0 217.229 217.229" style="enable-background:new 0 0 217.229 217.229;" xml:space="preserve">
<g>
	<g id="group-123svg">
		<path id="path-1_27_" style="fill:#142A3B;" d="M55.249,164.18H39.245c-3.085,0-5.586,1.893-5.586,4.229
			c0,2.335,2.501,4.228,5.586,4.228h0.746c3.085,0,5.587,1.894,5.587,4.229c0,2.335-2.502,4.228-5.587,4.228H5.588
			c-3.086,0-5.588,1.894-5.588,4.23c0,2.334,2.502,4.228,5.588,4.228h41.343h84.506c3.086,0,5.587-1.894,5.587-4.228
			c0-2.336-2.501-4.23-5.587-4.23h-9.548c-3.085,0-5.587-1.893-5.587-4.228c0-2.335,2.502-4.229,5.587-4.229h37.5
			c3.086,0,5.587-1.893,5.587-4.228c0-2.336-2.501-4.229-5.587-4.229h-2.798H55.249z"/>
		<path id="path-2_27_" style="fill:#142A3B;" d="M154.504,190.684c-2.587,0-4.684-2.03-4.684-4.531
			c0-2.503,2.097-4.533,4.684-4.533h14.354c2.587,0,4.684,2.03,4.684,4.533c0,2.501-2.097,4.531-4.684,4.531H154.504z"/>
		<path id="path-3_27_" style="fill:#FBB713;" d="M185.566,63.081l31.374-36.536l0.289,83.993c0,0.677-0.178,1.347-0.514,1.931
			l-31.149,54.51V63.081L185.566,63.081z"/>
		<path id="path-4_27_" style="opacity:0.45;enable-background:new    ;" d="M185.566,63.081l31.374-36.536l0.289,83.993
			c0,0.677-0.178,1.347-0.514,1.931l-31.149,54.51V63.081L185.566,63.081z"/>
		<path id="path-5_27_" style="fill:#FBB713;" d="M61.481,63.081l46.192-36.536H216.94l-31.201,36.536H61.481z"/>
		<path id="path-6_27_" style="fill:#FBB713;" d="M185.566,166.979H61.481V63.081h124.085V166.979z"/>
		<path id="path-7_26_" style="opacity:0.2;enable-background:new    ;" d="M185.566,166.979H61.481V63.081h124.085V166.979z"/>
		<path id="path-8_19_" style="fill:#2476FF;" d="M115.766,63.081l36.306-36.306h17.386l-35.926,36.306H115.766z"/>
		<path id="path-9_17_" style="fill:#2476FF;" d="M133.532,63.081v103.898h-17.766V63.081H133.532z"/>
		<path id="path-10_15_" style="opacity:0.25;enable-background:new    ;" d="M133.532,63.081v103.898h-17.766V63.081H133.532z"/>
	</g>
</g>
<g>
</g>
<g>
</g>
<g>
</g>
<g>
</g>
<g>
</g>
<g>
</g>
<g>
</g>
<g>
</g>
<g>
</g>
<g>
</g>
<g>
</g>
<g>
</g>
<g>
</g>
<g>
</g>
<g>
</g>
</svg>
