<?xml version="1.0" encoding="iso-8859-1"?>
<!-- Generator: Adobe Illustrator 19.1.0, SVG Export Plug-In . SVG Version: 6.00 Build 0)  -->
<svg version="1.1" id="Capa_1" xmlns="http://www.w3.org/2000/svg" xmlns:xlink="http://www.w3.org/1999/xlink" x="0px" y="0px"
	 viewBox="0 0 217.229 217.229" style="enable-background:new 0 0 217.229 217.229;" xml:space="preserve">
<g>
	<g id="group-7svg">
		<path id="path-1_127_" style="fill:#FBB713;" d="M69.329,189.417h-18.62c-3.59,0-6.5,1.662-6.5,3.713c0,2.05,2.91,3.712,6.5,3.712
			h0.867c3.59,0,6.5,1.662,6.5,3.713c0,2.051-2.91,3.712-6.5,3.712H11.548c-3.59,0-6.5,1.664-6.5,3.714s2.91,3.713,6.5,3.713h48.103
			h98.323c3.589,0,6.5-1.663,6.5-3.713s-2.911-3.714-6.5-3.714h-11.11c-3.59,0-6.5-1.661-6.5-3.712c0-2.051,2.91-3.713,6.5-3.713
			h43.632c3.59,0,6.5-1.662,6.5-3.712c0-2.051-2.91-3.713-6.5-3.713h-3.257H69.329z"/>
		<path id="path-2_127_" style="fill:#FBB713;" d="M195.078,212.688c-3.01,0-5.45-1.781-5.45-3.979c0-2.197,2.44-3.98,5.45-3.98
			h16.701c3.01,0,5.45,1.783,5.45,3.98c0,2.198-2.44,3.979-5.45,3.979H195.078z"/>
		<path id="path-3_127_" style="fill:#142A3B;" d="M122.835,82.317c-3.998,0-7.241-3.241-7.241-7.241V65.007
			c0-25.356-20.69-45.984-46.122-45.984S23.35,39.651,23.35,65.007v10.069c0,4-3.242,7.241-7.241,7.241s-7.241-3.241-7.241-7.241
			V65.007c0-33.342,27.185-60.466,60.604-60.466s60.604,27.124,60.604,60.466v10.069C130.076,79.076,126.833,82.317,122.835,82.317z
			"/>
		<path id="path-4_127_" style="fill:#FF3A2F;" d="M138.946,189.826H0V67.955h138.946V189.826z"/>
		<path id="path-5_126_" style="opacity:0.35;fill:#090908;enable-background:new    ;" d="M117.85,67.955v121.871h21.096V67.955
			H117.85z"/>
		<path id="path-6_123_" style="fill:#062635;" d="M85.129,111.724c0-8.625-7.01-15.616-15.656-15.616s-15.655,6.991-15.655,15.616
			c0,4.598,2.005,8.719,5.178,11.577l-5.474,37.931h31.903l-6.281-37.246C82.784,121.128,85.129,116.703,85.129,111.724z"/>
		<path id="path-7_120_" style="opacity:0.35;fill:#090908;enable-background:new    ;" d="M79.144,123.986
			c3.64-2.858,5.984-7.283,5.984-12.262c0-8.625-7.009-15.616-15.655-15.616c-1.711,0-3.327,0.341-4.868,0.848
			c6.247,2.05,10.787,7.85,10.787,14.768c0,4.979-2.345,9.404-5.984,12.262l6.28,37.246h9.737L79.144,123.986z"/>
		<path id="path-8_97_" style="fill:#EDEDED;" d="M13.306,169.337c-2.002,0-3.621-1.622-3.621-3.621V99.435
			c0-2.001,1.619-3.621,3.621-3.621c2,0,3.619,1.62,3.619,3.621v66.281C16.925,167.715,15.306,169.337,13.306,169.337z"/>
	</g>
</g>
<g>
</g>
<g>
</g>
<g>
</g>
<g>
</g>
<g>
</g>
<g>
</g>
<g>
</g>
<g>
</g>
<g>
</g>
<g>
</g>
<g>
</g>
<g>
</g>
<g>
</g>
<g>
</g>
<g>
</g>
</svg>
