<?xml version="1.0" encoding="iso-8859-1"?>
<!-- Generator: Adobe Illustrator 19.1.0, SVG Export Plug-In . SVG Version: 6.00 Build 0)  -->
<svg version="1.1" id="Capa_1" xmlns="http://www.w3.org/2000/svg" xmlns:xlink="http://www.w3.org/1999/xlink" x="0px" y="0px"
	 viewBox="0 0 217.228 217.228" style="enable-background:new 0 0 217.228 217.228;" xml:space="preserve">
<g>
	<g id="group-45svg">
		<path id="path-1_100_" style="fill:#FF3A2F;" d="M166.504,191.896h14.692c2.833,0,5.13-1.333,5.13-2.978
			c0-1.644-2.297-2.978-5.13-2.978h-0.683c-2.833,0-5.129-1.333-5.129-2.978c0-1.644,2.296-2.978,5.129-2.978h31.585
			c2.833,0,5.13-1.333,5.13-2.977c0-1.645-2.297-2.979-5.13-2.979h-37.957H96.556c-2.833,0-5.129,1.334-5.129,2.979
			c0,1.644,2.296,2.977,5.129,2.977h8.766c2.833,0,5.129,1.334,5.129,2.978c0,1.645-2.296,2.978-5.129,2.978h-41.72
			c-2.833,0-5.129,1.334-5.129,2.978c0,1.645,2.296,2.978,5.129,2.978h9.86H166.504z"/>
		<path id="path-2_100_" style="fill:#FF3A2F;" d="M45.387,186.511c3.19,0,5.776,1.469,5.776,3.282s-2.586,3.282-5.776,3.282H27.686
			c-3.191,0-5.777-1.469-5.777-3.282s2.586-3.282,5.777-3.282H45.387z"/>
		<path id="path-3_100_" style="fill:#FF3A2F;" d="M28.433,143.303c0-7.852-14.217-29.766-14.217-29.766S0,135.451,0,143.303
			c0,7.851,6.365,14.216,14.216,14.216C22.068,157.519,28.433,151.154,28.433,143.303z"/>
		<path id="path-4_100_" style="opacity:0.35;enable-background:new    ;" d="M14.216,113.537c0,0-0.936,1.445-2.32,3.71
			c4.184,7.115,9.911,17.757,9.911,22.742c0,7.853-6.365,14.217-14.217,14.217c-0.935,0-1.844-0.103-2.729-0.275
			c2.505,2.206,5.755,3.588,9.355,3.588c7.852,0,14.217-6.364,14.217-14.217C28.433,135.451,14.216,113.537,14.216,113.537z"/>
		<path id="path-5_99_" style="fill:#142A3B;" d="M147.455,129.33l34.761,34.758l-16.152,16.151l-34.759-34.759L147.455,129.33z"/>
		<path id="path-6_96_" style="opacity:0.35;enable-background:new    ;" d="M147.455,129.33l8.808,8.807l-16.151,16.151
			l-8.807-8.808L147.455,129.33z"/>
		<path id="path-7_93_" style="fill:#FFFFFF;" d="M167.819,169.465c-0.927,0-1.852-0.354-2.56-1.062l-8.425-8.427
			c-1.415-1.413-1.415-3.706,0-5.119c1.414-1.414,3.705-1.414,5.119,0l8.426,8.427c1.414,1.414,1.414,3.707,0,5.119
			C169.672,169.111,168.745,169.465,167.819,169.465z"/>
		<path id="path-8_72_" style="fill:#FBB713;" d="M157.286,91.213l-67.413,67.411l-53.061-53.059l67.106-67.016L157.286,91.213z"/>
		<path id="path-9_63_" style="opacity:0.35;enable-background:new    ;" d="M76.443,66.022l-39.588,39.586l3.314,3.312
			l39.587-39.585L76.443,66.022z"/>
		<path id="path-10_57_" style="opacity:0.35;enable-background:new    ;" d="M93.593,55.12l13.638-13.259L92.835,27.465
			l-3.313,3.313l11.082,11.083L85.507,56.959l11.63,11.629c3.404,3.403,2.635,7.928-0.769,11.332
			c-0.846,0.847-3.045-0.383-4.093,0.042c4.093,3.565,8.931,3.559,11.488,1.002c3.404-3.403,5.567-7.513,1.46-14.214L93.593,55.12z"
			/>
		<path id="path-11_48_" style="fill:#FF3A2F;" d="M89.522,24.153L22.46,91.213l14.395,14.395l39.588-39.586l11.631,11.63
			c3.403,3.403,8.972,3.403,12.376,0c3.403-3.404,3.403-8.974,0-12.377L88.82,53.646l15.098-15.097L89.522,24.153z"/>
		<path id="path-12_42_" style="fill:#142A3B;" d="M172.735,106.661l-67.413,67.41l-16.151-16.149l67.413-67.411L172.735,106.661z"
			/>
		<path id="path-13_33_" style="opacity:0.35;enable-background:new    ;" d="M156.659,90.586l-67.414,67.411l-1.793-1.795
			l65.204-69.619L156.659,90.586z"/>
	</g>
</g>
<g>
</g>
<g>
</g>
<g>
</g>
<g>
</g>
<g>
</g>
<g>
</g>
<g>
</g>
<g>
</g>
<g>
</g>
<g>
</g>
<g>
</g>
<g>
</g>
<g>
</g>
<g>
</g>
<g>
</g>
</svg>
