<?xml version="1.0" encoding="iso-8859-1"?>
<!-- Generator: Adobe Illustrator 19.1.0, SVG Export Plug-In . SVG Version: 6.00 Build 0)  -->
<svg version="1.1" id="Capa_1" xmlns="http://www.w3.org/2000/svg" xmlns:xlink="http://www.w3.org/1999/xlink" x="0px" y="0px"
	 viewBox="0 0 218.333 218.333" style="enable-background:new 0 0 218.333 218.333;" xml:space="preserve">
<g>
	<g id="group-24svg">
		<path id="path-1_85_" style="fill:#FF3A2F;" d="M79.36,99.176c-2.01,0-3.639-1.614-3.639-3.605V77.81
			c0-15.315,12.578-27.776,28.038-27.776h54.139c11.375,0,20.641-9.109,20.758-20.35h-20.447c-2.01,0-3.639-1.614-3.639-3.604
			c0-1.991,1.629-3.605,3.639-3.605h27.726v6.993c0,15.315-12.577,27.775-28.037,27.775h-54.139c-11.448,0-20.76,9.226-20.76,20.567
			v17.761C82.999,97.562,81.37,99.176,79.36,99.176z"/>
		<path id="path-2_85_" style="fill:#142A3B;" d="M95.358,198.298H59.82V95.571h35.538V198.298z"/>
		<path id="path-3_85_" style="fill:#FF3A2F;" d="M18.061,29.684H5.521c-2.009,0-3.638-1.614-3.638-3.604
			c0-1.991,1.629-3.605,3.638-3.605h12.54c2.009,0,3.638,1.614,3.638,3.605C21.699,28.07,20.07,29.684,18.061,29.684z"/>
		<path id="path-4_84_" style="fill:#2476FF;" d="M159.245,44.208H18.061V7.951h141.184V44.208z"/>
		<path id="path-5_84_" style="opacity:0.35;enable-background:new    ;" d="M159.245,44.208H18.061V29.536h141.184V44.208z"/>
		<path id="path-6_83_" style="fill:#FF3A2F;" d="M87.749,210.383H67.428v-12.085h20.321V210.383z"/>
		<path id="path-7_83_" style="fill:#2476FF;" d="M35.548,162.492c4.831,0,8.747-2.457,8.747-5.49c0-3.032-3.916-5.489-8.747-5.489
			H8.746c-4.83,0-8.746,2.457-8.746,5.489c0,3.033,3.916,5.49,8.746,5.49H35.548z"/>
		<path id="path-8_80_" style="fill:#2476FF;" d="M95.68,169.838h64.993h16.702c3.22,0,5.831,1.638,5.831,3.659
			s-2.611,3.66-5.831,3.66h-0.777c-3.221,0-5.831,1.639-5.831,3.66c0,2.021,2.61,3.659,5.831,3.659h35.904
			c3.22,0,5.831,1.639,5.831,3.661c0,2.02-2.611,3.659-5.831,3.659h-43.148h-47.423c-3.22,0-5.831-1.639-5.831-3.659
			c0-2.022,2.611-3.661,5.831-3.661h9.964c3.22,0,5.83-1.638,5.83-3.659c0-2.021-2.61-3.66-5.83-3.66H84.472
			c-3.221,0-5.831-1.639-5.831-3.66s2.61-3.659,5.831-3.659H95.68L95.68,169.838z"/>
		<path id="path-9_76_" style="fill:#2476FF;" d="M43.469,77.915v8.345c0,1.609-2.24,2.913-5.004,2.913
			c-2.763,0-5.003-1.304-5.003-2.913v-0.389c0-1.608-2.24-2.913-5.003-2.913s-5.003,1.305-5.003,2.913v17.94
			c0,1.608-2.24,2.913-5.004,2.913c-2.763,0-5.003-1.305-5.003-2.913V82.252V58.556c0-1.607,2.24-2.913,5.003-2.913
			c2.764,0,5.004,1.306,5.004,2.913v4.98c0,1.609,2.24,2.914,5.003,2.914s5.003-1.305,5.003-2.914V39.84
			c0-1.608,2.24-2.913,5.003-2.913c2.764,0,5.004,1.305,5.004,2.913v5.6V77.915z"/>
	</g>
</g>
<g>
</g>
<g>
</g>
<g>
</g>
<g>
</g>
<g>
</g>
<g>
</g>
<g>
</g>
<g>
</g>
<g>
</g>
<g>
</g>
<g>
</g>
<g>
</g>
<g>
</g>
<g>
</g>
<g>
</g>
</svg>
