<?xml version="1.0" encoding="iso-8859-1"?>
<!-- Generator: Adobe Illustrator 19.1.0, SVG Export Plug-In . SVG Version: 6.00 Build 0)  -->
<svg version="1.1" id="Capa_1" xmlns="http://www.w3.org/2000/svg" xmlns:xlink="http://www.w3.org/1999/xlink" x="0px" y="0px"
	 viewBox="0 0 218.332 218.332" style="enable-background:new 0 0 218.332 218.332;" xml:space="preserve">
<g>
	<g id="group-65svg">
		<path id="path-1_130_" style="fill:#142A3B;" d="M154.269,175.976c12.384-15.42,9.121-64.204-8.55-97.829
			c0,0,36.15,3.674,34.304,49.589c0,0,31.518-62.446-21.326-74.383c0,0,16.688-39.493,57.476-23.882c0,0-32.821-36.495-79.879,6.382
			c-4.905-13.423-1.703-32.474-1.703-32.474c-19.431,9.384-22.897,26.776-22.724,38.672c-17.147-3.189-47.152,3.456-55.856,34.244
			c0,0,32.745-22.606,58.541-8.846c0,0-45.778,12.538-47.635,55.698c0,0,19.081-23.236,38.758-28.928
			c-1.596,1.51-2.602,3.616-2.602,5.974c0,4.565,3.739,8.263,8.341,8.263c1.673,0,3.227-0.494,4.53-1.339
			c-1.082,1.393-1.749,3.109-1.749,5.014c0,4.564,3.739,8.268,8.341,8.268c4.012,0,7.352-2.813,8.156-6.541
			c2.428,17.081,2.691,44.294-13.502,66.058C117.19,179.916,147.241,184.729,154.269,175.976z"/>
		<path id="path-2_130_" style="opacity:0.35;fill:#020403;enable-background:new    ;" d="M106.215,64.263
			c0.757-0.244,1.178-0.361,1.178-0.361c-16.474-8.786-35.769-2.743-47.572,2.773c-1.507,2.916-2.813,6.091-3.81,9.62
			C56.011,76.295,82.22,58.219,106.215,64.263z"/>
		<path id="path-3_130_" style="opacity:0.35;fill:#020403;enable-background:new    ;" d="M122.536,120.399
			c0.69,0,1.348-0.11,1.988-0.267c-0.216-3.522-0.566-6.832-0.991-9.819c-0.782,3.631-3.978,6.373-7.851,6.514
			C117.189,118.981,119.694,120.399,122.536,120.399z"/>
		<path id="path-4_129_" style="opacity:0.35;fill:#020403;enable-background:new    ;" d="M126.561,8.397
			c-0.382,6.741-0.23,16.238,2.575,23.91c1.749-1.593,3.473-3.045,5.181-4.426c-1.841-11.919,0.274-24.502,0.274-24.502
			C131.518,4.863,128.884,6.566,126.561,8.397z"/>
		<path id="path-5_129_" style="opacity:0.35;fill:#020403;enable-background:new    ;" d="M95.915,96.647
			c0-2.36,1.006-4.466,2.602-5.975c-11.099,3.21-22.004,12-29.407,19.057c-1.194,4.109-1.984,8.559-2.193,13.417
			c0,0,13.318-16.177,29.167-24.835C95.973,97.774,95.915,97.217,95.915,96.647z"/>
		<path id="path-6_127_" style="opacity:0.35;fill:#020403;enable-background:new    ;" d="M199.376,18.424
			c6.207,3.706,9.638,7.502,9.638,7.502c-40.787-15.612-57.475,23.88-57.475,23.88c2.823,0.638,5.358,1.448,7.718,2.357
			c3.176-6.437,20.363-36.682,56.916-22.692C216.173,29.471,210.071,22.707,199.376,18.424z"/>
		<path id="path-7_127_" style="opacity:0.35;fill:#020403;enable-background:new    ;" d="M108.787,103.571
			c-1.227,0.794-2.684,1.242-4.243,1.297c0.679,0.978,1.578,1.78,2.607,2.391C107.382,105.882,107.96,104.632,108.787,103.571z"/>
		<path id="path-8_124_" style="opacity:0.35;fill:#020403;enable-background:new    ;" d="M166.46,55.725
			c20.235,12.681,16.87,37.833,12.021,53.876c1.216,5.164,1.822,11.155,1.542,18.135C180.023,127.736,208.197,71.849,166.46,55.725z
			"/>
		<path id="path-9_118_" style="opacity:0.35;fill:#020403;enable-background:new    ;" d="M153.516,80.201
			c-7.788-4.861-14.956-5.601-14.956-5.601c17.671,33.625,20.935,82.409,8.551,97.83c-4.55,5.665-18.714,5.643-28.162,4.924
			c-0.578,0.857-1.135,1.719-1.759,2.561c0,0,30.051,4.813,37.079-3.94c12.384-15.42,9.121-64.204-8.551-97.829
			C145.718,78.146,148.996,78.49,153.516,80.201z"/>
		<path id="path-10_109_" style="fill:#FBB713;" d="M97.186,173.059c-28.595,2.088-48.499,6.699-48.499,12.066
			c0,7.325,37.098,13.272,82.857,13.272c45.76,0,82.856-5.947,82.856-13.272c-0.006-6.305-27.351-11.547-64.013-12.927l0,0"/>
		<path id="path-11_96_" style="fill:#2476FF;" d="M116.013,191.589h15.531c2.994,0,5.422,1.524,5.422,3.403
			c0,1.88-2.428,3.405-5.422,3.405h-0.723c-2.994,0-5.422,1.522-5.422,3.402c0,1.879,2.428,3.403,5.422,3.403h33.387
			c2.995,0,5.423,1.524,5.423,3.404c0,1.879-2.428,3.403-5.423,3.403h-40.124H79.986c-2.995,0-5.423-1.524-5.423-3.403
			c0-1.88,2.428-3.404,5.423-3.404h9.266c2.995,0,5.421-1.524,5.421-3.403c0-1.88-2.426-3.402-5.421-3.402h-44.1
			c-2.995,0-5.423-1.525-5.423-3.405c0-1.879,2.428-3.403,5.423-3.403h10.422H116.013z"/>
		<path id="path-12_84_" style="fill:#2476FF;" d="M24.56,159.496h5.001c0.964,0,1.745,0.837,1.745,1.87
			c0,1.031-0.781,1.869-1.745,1.869h-0.233c-0.965,0-1.746,0.838-1.746,1.87c0,1.033,0.781,1.869,1.746,1.869h10.749
			c0.964,0,1.746,0.838,1.746,1.87s-0.782,1.87-1.746,1.87H27.16H12.961c-0.965,0-1.746-0.838-1.746-1.87s0.781-1.87,1.746-1.87
			h2.983c0.964,0,1.745-0.836,1.745-1.869c0-1.032-0.781-1.87-1.745-1.87H1.746c-0.965,0-1.746-0.838-1.746-1.869
			c0-1.033,0.781-1.87,1.746-1.87h3.355H24.56z"/>
		<path id="path-13_72_" style="fill:#2476FF;" d="M196.363,167.591h5c0.964,0,1.746,0.837,1.746,1.87s-0.782,1.87-1.746,1.87
			h-0.233c-0.964,0-1.746,0.836-1.746,1.869s0.782,1.868,1.746,1.868h10.749c0.965,0,1.746,0.838,1.746,1.871
			c0,1.033-0.781,1.87-1.746,1.87h-12.917h-14.198c-0.965,0-1.746-0.837-1.746-1.87c0-1.033,0.781-1.871,1.746-1.871h2.983
			c0.964,0,1.745-0.835,1.745-1.868s-0.781-1.869-1.745-1.869h-14.199c-0.963,0-1.745-0.837-1.745-1.87s0.782-1.87,1.745-1.87h3.356
			H196.363z"/>
		<path id="path-14_59_" style="fill:#2476FF;" d="M212.141,214.954c3.42,0,6.191-1.74,6.191-3.886c0-2.145-2.771-3.886-6.191-3.886
			h-18.972c-3.418,0-6.19,1.741-6.19,3.886c0,2.146,2.772,3.886,6.19,3.886H212.141z"/>
	</g>
</g>
<g>
</g>
<g>
</g>
<g>
</g>
<g>
</g>
<g>
</g>
<g>
</g>
<g>
</g>
<g>
</g>
<g>
</g>
<g>
</g>
<g>
</g>
<g>
</g>
<g>
</g>
<g>
</g>
<g>
</g>
</svg>
