<?xml version="1.0" encoding="iso-8859-1"?>
<!-- Generator: Adobe Illustrator 19.1.0, SVG Export Plug-In . SVG Version: 6.00 Build 0)  -->
<svg version="1.1" id="Capa_1" xmlns="http://www.w3.org/2000/svg" xmlns:xlink="http://www.w3.org/1999/xlink" x="0px" y="0px"
	 viewBox="0 0 218.333 218.333" style="enable-background:new 0 0 218.333 218.333;" xml:space="preserve">
<g>
	<g id="group-130svg">
		<path id="path-1_35_" style="fill:#2476FF;" d="M129.55,174.825h9.688c1.868,0,3.383,1.275,3.383,2.847s-1.515,2.846-3.383,2.846
			h-0.45c-1.869,0-3.382,1.274-3.382,2.846c0,1.573,1.513,2.847,3.382,2.847h20.826c1.868,0,3.382,1.274,3.382,2.846
			c0,1.573-1.514,2.847-3.382,2.847h-25.028h-27.509c-1.867,0-3.381-1.274-3.381-2.847c0-1.572,1.514-2.846,3.381-2.846h5.781
			c1.868,0,3.383-1.274,3.383-2.847c0-1.572-1.515-2.846-3.383-2.846H85.35c-1.868,0-3.383-1.274-3.383-2.846
			s1.515-2.847,3.383-2.847h6.501H129.55z"/>
		<path id="path-2_35_" style="fill:#2476FF;" d="M180.912,49.27h10.84c2.09,0,3.785,1.573,3.785,3.511s-1.695,3.51-3.785,3.51
			h-0.504c-2.09,0-3.785,1.572-3.785,3.51s1.695,3.509,3.785,3.509h23.3c2.09,0,3.785,1.571,3.785,3.509
			c0,1.94-1.695,3.51-3.785,3.51h-28.001H155.77c-2.09,0-3.784-1.57-3.784-3.51c0-1.938,1.694-3.509,3.784-3.509h6.466
			c2.09,0,3.785-1.571,3.785-3.509s-1.695-3.51-3.785-3.51h-30.777c-2.089,0-3.783-1.572-3.783-3.51s1.694-3.511,3.783-3.511h7.274
			H180.912z"/>
		<path id="path-3_35_" style="fill:#2476FF;" d="M36.501,26.43h5.688c1.097,0,1.986,0.809,1.986,1.806
			c0,0.999-0.889,1.808-1.986,1.808h-0.264c-1.097,0-1.987,0.808-1.987,1.806c0,0.998,0.89,1.807,1.987,1.807H54.15
			c1.097,0,1.985,0.81,1.985,1.807c0,0.999-0.888,1.807-1.985,1.807H39.458H23.309c-1.097,0-1.986-0.808-1.986-1.807
			c0-0.997,0.889-1.807,1.986-1.807h3.393c1.096,0,1.985-0.809,1.985-1.807c0-0.998-0.889-1.806-1.985-1.806h-16.15
			c-1.096,0-1.985-0.809-1.985-1.808c0-0.997,0.889-1.806,1.985-1.806h3.818H36.501z"/>
		<path id="path-4_35_" style="fill:#2476FF;" d="M25.659,126.282c3.486,0,6.313-1.726,6.313-3.856c0-2.129-2.827-3.855-6.313-3.855
			H6.313c-3.487,0-6.313,1.726-6.313,3.855c0,2.13,2.826,3.856,6.313,3.856H25.659z"/>
		<path id="path-5_35_" style="fill:#FBB713;" d="M110.462,123.007l58.657-3.698c1.182-4.673,1.845-9.553,1.845-14.591
			c0-33.103-27.088-59.938-60.502-59.938c-33.415,0-60.504,26.835-60.504,59.938c0,5.038,0.663,9.918,1.847,14.591L110.462,123.007z
			"/>
		<path id="path-6_35_" style="fill:#FFFFFF;" d="M62.646,99.945c-0.309,0-0.625-0.039-0.938-0.121
			c-1.94-0.511-3.099-2.484-2.583-4.409c5.231-19.51,19.704-35.54,38.724-42.879c1.872-0.722,3.98,0.193,4.712,2.05
			c0.727,1.854-0.197,3.945-2.07,4.666c-16.861,6.509-29.696,20.719-34.33,38.014C65.728,98.88,64.256,99.945,62.646,99.945z"/>
		<path id="path-7_35_" style="fill:#2476FF;" d="M115.81,168.412c47.953-2.373,92.404-12.195,92.404-12.195
			c-5.281-21.086-38.282-36.959-38.282-36.959l-59.47,3.75l-59.471-3.75c0,0-33.002,15.873-38.282,36.959
			c0,0,44.449,9.822,92.403,12.195c0,0,3.569,0.3,5.35,0.234C112.243,168.712,115.81,168.412,115.81,168.412z"/>
		<path id="path-8_35_" style="fill:#FFFFFF;" d="M29.626,151.074c-0.763,0-1.535-0.239-2.192-0.731
			c-1.603-1.201-1.919-3.462-0.704-5.049c7.012-9.178,17.442-16.546,24.961-21.113c1.712-1.044,3.955-0.509,5.003,1.19
			c1.052,1.697,0.512,3.917-1.201,4.957c-6.983,4.243-16.635,11.035-22.963,19.315C31.816,150.579,30.728,151.074,29.626,151.074z"
			/>
		<path id="path-9_32_" style="opacity:0.25;fill:#020403;enable-background:new    ;" d="M110.462,44.781
			c-2.365,0-4.688,0.168-6.981,0.43c22.808,8.586,39.045,30.381,39.045,55.987c0,5.037-0.662,9.916-1.846,14.59l-58.656,3.699
			l-30.608-1.929c0.129,0.584,0.243,1.174,0.389,1.752l58.657,3.698l58.655-3.698c1.184-4.673,1.847-9.553,1.847-14.591
			C170.964,71.616,143.876,44.781,110.462,44.781z"/>
		<path id="path-10_30_" style="opacity:0.35;fill:#020403;enable-background:new    ;" d="M169.933,119.257l-39.265,2.477
			c10.147,6.481,24.455,17.683,27.781,30.96c0,0-44.451,9.822-92.405,12.195c0,0-0.183,0.016-0.451,0.036
			c12.238,1.504,25.73,2.802,39.519,3.486c0,0,3.569,0.3,5.35,0.234c1.781,0.066,5.347-0.234,5.347-0.234
			c47.954-2.373,92.405-12.195,92.405-12.195C202.933,135.131,169.933,119.257,169.933,119.257z"/>
		<path id="path-11_26_" style="opacity:0.35;fill:#020403;enable-background:new    ;" d="M180.561,125.335
			c-6.033-3.864-10.628-6.077-10.628-6.077l-2.523,0.159v43.909c0.322-0.045,0.642-0.091,0.963-0.137l6.694-21.443l5.494,19.477
			V125.335z"/>
		<path id="path-12_22_" style="fill:#020403;" d="M144.174,118.343c-7.536,1.602-12.333,8.956-10.714,16.422
			s9.041,12.218,16.578,10.613c7.536-1.603,14.993-17.334,14.993-17.334S151.709,116.739,144.174,118.343z M149.583,137.367
			c-3.216,0.684-6.381-1.342-7.073-4.528c-0.689-3.186,1.358-6.322,4.572-7.006c3.215-0.686,8.898,4.139,8.898,4.139
			S152.799,136.683,149.583,137.367z"/>
		<path id="path-13_17_" style="fill:#FF3A2F;" d="M189.222,103.423c-3.765-6.663-12.27-9.04-18.995-5.31
			c-6.726,3.732-9.18,20.94-9.18,20.94s16.093,6.919,22.818,3.188C190.589,118.513,192.989,110.087,189.222,103.423z
			 M179.864,117.199c-3.642,2.02-12.36-1.727-12.36-1.727s1.329-9.323,4.972-11.343c3.644-2.021,8.251-0.733,10.291,2.875
			C184.807,110.613,183.507,115.176,179.864,117.199z"/>
		<path id="path-14_14_" style="fill:#FF3A2F;" d="M144.174,107.78c-7.536,1.603-12.333,8.956-10.714,16.42
			c1.619,7.467,9.041,12.219,16.578,10.615c7.536-1.604,14.993-17.333,14.993-17.333S151.709,106.174,144.174,107.78z
			 M149.583,126.802c-3.216,0.684-6.381-1.344-7.073-4.529c-0.689-3.184,1.358-6.321,4.572-7.005
			c3.215-0.684,8.898,4.138,8.898,4.138S152.799,126.118,149.583,126.802z"/>
		<path id="path-15_12_" style="fill:#FF3A2F;" d="M173.451,117.854v46.891l-5.493-19.478l-7.657,24.527v-51.94H173.451z"/>
	</g>
</g>
<g>
</g>
<g>
</g>
<g>
</g>
<g>
</g>
<g>
</g>
<g>
</g>
<g>
</g>
<g>
</g>
<g>
</g>
<g>
</g>
<g>
</g>
<g>
</g>
<g>
</g>
<g>
</g>
<g>
</g>
</svg>
