<?xml version="1.0" encoding="iso-8859-1"?>
<!-- Generator: Adobe Illustrator 19.1.0, SVG Export Plug-In . SVG Version: 6.00 Build 0)  -->
<svg version="1.1" id="Capa_1" xmlns="http://www.w3.org/2000/svg" xmlns:xlink="http://www.w3.org/1999/xlink" x="0px" y="0px"
	 viewBox="0 0 217.221 217.221" style="enable-background:new 0 0 217.221 217.221;" xml:space="preserve">
<g>
	<g id="group-146svg">
		<path id="path-1_52_" style="fill:#0CB04A;" d="M78.338,190.004H61.904c-3.169,0-5.738,1.944-5.738,4.343s2.569,4.342,5.738,4.342
			h0.765c3.169,0,5.738,1.945,5.738,4.343s-2.569,4.342-5.738,4.342H27.34c-3.168,0-5.737,1.944-5.737,4.344
			c0,2.397,2.569,4.34,5.737,4.34h42.456h86.78c3.168,0,5.737-1.943,5.737-4.34c0-2.4-2.569-4.344-5.737-4.344h-9.806
			c-3.168,0-5.737-1.944-5.737-4.342s2.569-4.343,5.737-4.343h38.509c3.169,0,5.738-1.943,5.738-4.342s-2.569-4.343-5.738-4.343
			h-2.873H78.338z"/>
		<path id="path-2_52_" style="fill:#0CB04A;" d="M180.262,217.221c-2.656,0-4.81-2.083-4.81-4.653c0-2.57,2.154-4.654,4.81-4.654
			h14.741c2.656,0,4.81,2.084,4.81,4.654c0,2.57-2.154,4.653-4.81,4.653H180.262z"/>
		<path id="path-3_52_" style="fill:#FBB713;" d="M95.598,13.011C95.598,5.829,101.427,0,108.611,0
			c7.183,0,13.012,5.829,13.012,13.011v186.5H95.598V13.011z"/>
		<path id="path-4_52_" style="fill:#2476FF;" d="M175.84,69.395H26.201l8.674-21.686l-8.674-21.686H175.84l32.53,21.686
			L175.84,69.395z"/>
		<path id="path-5_52_" style="fill:#FF3A2F;" d="M41.382,86.745h149.639l-8.675,21.685l8.675,21.687H41.382L8.851,108.43
			L41.382,86.745z"/>
		<path id="path-6_50_" style="opacity:0.35;enable-background:new    ;" d="M175.84,26.023H26.202l1.595,3.991h140.062L200.39,51.7
			l-26.546,17.695h1.996l32.53-21.686L175.84,26.023z"/>
		<path id="path-7_49_" style="opacity:0.35;enable-background:new    ;" d="M191.021,86.745H41.381l-5.985,3.99h147.643
			l-8.674,21.686l7.079,17.696h9.577l-8.675-21.686L191.021,86.745z"/>
	</g>
</g>
<g>
</g>
<g>
</g>
<g>
</g>
<g>
</g>
<g>
</g>
<g>
</g>
<g>
</g>
<g>
</g>
<g>
</g>
<g>
</g>
<g>
</g>
<g>
</g>
<g>
</g>
<g>
</g>
<g>
</g>
</svg>
