<?xml version="1.0" encoding="iso-8859-1"?>
<!-- Generator: Adobe Illustrator 19.1.0, SVG Export Plug-In . SVG Version: 6.00 Build 0)  -->
<svg version="1.1" id="Capa_1" xmlns="http://www.w3.org/2000/svg" xmlns:xlink="http://www.w3.org/1999/xlink" x="0px" y="0px"
	 viewBox="0 0 218.332 218.332" style="enable-background:new 0 0 218.332 218.332;" xml:space="preserve">
<g>
	<g id="group-153svg">
		<path id="path-1_60_" style="fill:#2476FF;" d="M65.507,57.764h-7.805c-1.506,0-2.725,0.696-2.725,1.554
			c0,0.858,1.219,1.553,2.725,1.553h0.363c1.505,0,2.725,0.696,2.725,1.555c0,0.859-1.22,1.555-2.725,1.555H41.287
			c-1.505,0-2.724,0.695-2.724,1.552c0,0.86,1.219,1.556,2.724,1.556H61.45h41.213c1.504,0,2.724-0.696,2.724-1.556
			c0-0.857-1.22-1.552-2.724-1.552h-4.657c-1.505,0-2.724-0.696-2.724-1.555c0-0.859,1.219-1.555,2.724-1.555h22.161
			c1.505,0,2.725-0.695,2.725-1.553c0-0.858-1.22-1.554-2.725-1.554h-5.238H65.507z"/>
		<path id="path-2_60_" style="fill:#2476FF;" d="M21.04,94.489h-3.903c-0.752,0-1.362,0.456-1.362,1.02
			c0,0.563,0.61,1.019,1.362,1.019h0.182c0.753,0,1.363,0.457,1.363,1.02c0,0.563-0.61,1.02-1.363,1.02H8.93
			c-0.753,0-1.363,0.457-1.363,1.02c0,0.564,0.61,1.02,1.363,1.02h10.082h20.606c0.752,0,1.362-0.456,1.362-1.02
			c0-0.563-0.61-1.02-1.362-1.02h-2.329c-0.752,0-1.362-0.457-1.362-1.02c0-0.563,0.61-1.02,1.362-1.02H48.37
			c0.753,0,1.363-0.456,1.363-1.019c0-0.564-0.61-1.02-1.363-1.02h-2.619H21.04z"/>
		<path id="path-3_60_" style="fill:#2476FF;" d="M91.175,181.256H77.157c-2.703,0-4.894,1.162-4.894,2.598
			c0,1.434,2.191,2.597,4.894,2.597h0.652c2.703,0,4.894,1.162,4.894,2.597c0,1.434-2.191,2.597-4.894,2.597H47.673
			c-2.703,0-4.894,1.163-4.894,2.598c0,1.434,2.191,2.597,4.894,2.597h36.216h74.025c2.703,0,4.894-1.163,4.894-2.597
			c0-1.435-2.191-2.598-4.894-2.598h-8.364c-2.703,0-4.894-1.163-4.894-2.597c0-1.435,2.191-2.597,4.894-2.597h39.805
			c2.703,0,4.894-1.163,4.894-2.597c0-1.436-2.191-2.598-4.894-2.598h-9.407H91.175z"/>
		<path id="path-4_60_" style="fill:#2476FF;" d="M135.302,62.426c-3.511,0-6.356-0.954-6.356-2.132c0-1.175,2.845-2.13,6.356-2.13
			h19.478c3.511,0,6.356,0.955,6.356,2.13c0,1.178-2.845,2.132-6.356,2.132H135.302z"/>
		<path id="path-5_60_" style="fill:#986B10;" d="M139.518,156.415l-49.787,33.232v-45.445L139.518,156.415z"/>
		<path id="path-6_59_" style="fill:#FBB713;" d="M93.245,146.463l94.653,25.24l30.434-150.211l-38.916,24.096L0,156.665
			L93.245,146.463z"/>
		<path id="path-7_59_" style="opacity:0.2;enable-background:new    ;" d="M93.245,146.463L218.332,21.492l-38.916,24.096
			L0,156.665L93.245,146.463z"/>
	</g>
</g>
<g>
</g>
<g>
</g>
<g>
</g>
<g>
</g>
<g>
</g>
<g>
</g>
<g>
</g>
<g>
</g>
<g>
</g>
<g>
</g>
<g>
</g>
<g>
</g>
<g>
</g>
<g>
</g>
<g>
</g>
</svg>
