<?xml version="1.0" encoding="iso-8859-1"?>
<!-- Generator: Adobe Illustrator 19.1.0, SVG Export Plug-In . SVG Version: 6.00 Build 0)  -->
<svg version="1.1" id="Capa_1" xmlns="http://www.w3.org/2000/svg" xmlns:xlink="http://www.w3.org/1999/xlink" x="0px" y="0px"
	 viewBox="0 0 217.229 217.229" style="enable-background:new 0 0 217.229 217.229;" xml:space="preserve">
<g>
	<g id="group-21svg">
		<path id="path-1_74_" style="fill:#0CB04A;" d="M119.154,170.04H71.808c-1.862,0-3.382-1.509-3.382-3.382V24.624
			c0-1.869,1.52-3.381,3.382-3.381h47.346c1.876,0,3.382,1.512,3.382,3.381v142.034C122.536,168.531,121.03,170.04,119.154,170.04z"
			/>
		<path id="path-2_74_" style="fill:#0CB04A;" d="M213.847,170.04h-47.346c-1.863,0-3.382-1.509-3.382-3.382V24.624
			c0-1.869,1.519-3.381,3.382-3.381h47.346c1.876,0,3.382,1.512,3.382,3.381v142.034C217.229,168.531,215.723,170.04,213.847,170.04
			z"/>
		<path id="path-3_74_" style="opacity:0.35;fill:#090908;enable-background:new    ;" d="M119.154,21.242h-8.522v139.464
			c0,1.873-1.506,3.382-3.382,3.382H68.426v2.57c0,1.873,1.519,3.382,3.382,3.382h47.346c1.876,0,3.382-1.509,3.382-3.382V24.624
			C122.536,22.755,121.03,21.242,119.154,21.242z"/>
		<path id="path-4_74_" style="opacity:0.35;fill:#090908;enable-background:new    ;" d="M213.847,21.242h-8.523v139.464
			c0,1.873-1.505,3.382-3.381,3.382h-38.824v2.57c0,1.873,1.518,3.382,3.381,3.382h47.347c1.876,0,3.382-1.509,3.382-3.382V24.624
			C217.229,22.755,215.723,21.242,213.847,21.242z"/>
		<path id="path-5_73_" style="fill:#FF3A2F;" d="M69.275,164.263H49.208c-3.868,0-7.005,2.332-7.005,5.209
			c0,2.878,3.137,5.21,7.005,5.21h0.935c3.869,0,7.005,2.332,7.005,5.21c0,2.876-3.136,5.209-7.005,5.209H7.006
			c-3.87,0-7.006,2.331-7.006,5.208s3.136,5.21,7.006,5.21h51.84h105.96c3.869,0,7.005-2.333,7.005-5.21s-3.136-5.208-7.005-5.208
			h-11.973c-3.869,0-7.005-2.333-7.005-5.209c0-2.878,3.136-5.21,7.005-5.21h47.021c3.868,0,7.005-2.332,7.005-5.21
			c0-2.877-3.137-5.209-7.005-5.209h-3.51H69.275z"/>
		<path id="path-6_70_" style="fill:#FF3A2F;" d="M192.626,195.987c-2.725,0-4.934-1.649-4.934-3.684
			c0-2.036,2.209-3.685,4.934-3.685h15.123c2.726,0,4.935,1.649,4.935,3.685c0,2.035-2.209,3.684-4.935,3.684H192.626z"/>
		<path id="path-7_69_" style="fill:#FF3A2F;" d="M165.936,141.923h5.382c1.037,0,1.878,0.633,1.878,1.415s-0.841,1.415-1.878,1.415
			h-0.251c-1.038,0-1.879,0.633-1.879,1.415c0,0.78,0.841,1.413,1.879,1.413h11.569c1.038,0,1.879,0.634,1.879,1.416
			c0,0.781-0.841,1.414-1.879,1.414h-13.903h-28.418c-1.037,0-1.879-0.633-1.879-1.414c0-0.782,0.842-1.416,1.879-1.416h3.211
			c1.038,0,1.879-0.633,1.879-1.413c0-0.782-0.841-1.415-1.879-1.415h-15.281c-1.037,0-1.879-0.633-1.879-1.415
			s0.842-1.415,1.879-1.415h3.612H165.936z"/>
	</g>
</g>
<g>
</g>
<g>
</g>
<g>
</g>
<g>
</g>
<g>
</g>
<g>
</g>
<g>
</g>
<g>
</g>
<g>
</g>
<g>
</g>
<g>
</g>
<g>
</g>
<g>
</g>
<g>
</g>
<g>
</g>
</svg>
