<?xml version="1.0" encoding="iso-8859-1"?>
<!-- Generator: Adobe Illustrator 19.1.0, SVG Export Plug-In . SVG Version: 6.00 Build 0)  -->
<svg version="1.1" id="Capa_1" xmlns="http://www.w3.org/2000/svg" xmlns:xlink="http://www.w3.org/1999/xlink" x="0px" y="0px"
	 viewBox="0 0 217.229 217.229" style="enable-background:new 0 0 217.229 217.229;" xml:space="preserve">
<g>
	<g id="group-40svg">
		<path id="path-1_95_" style="fill:#142A3B;" d="M96.599,184.033H79.005c-3.392,0-6.142,1.534-6.142,3.424
			c0,1.891,2.75,3.424,6.142,3.424h0.819c3.392,0,6.142,1.533,6.142,3.424c0,1.891-2.75,3.424-6.142,3.424H42.002
			c-3.392,0-6.141,1.532-6.141,3.424c0,1.891,2.749,3.424,6.141,3.424h45.452h92.903c3.392,0,6.142-1.533,6.142-3.424
			c0-1.892-2.75-3.424-6.142-3.424H169.86c-3.392,0-6.142-1.533-6.142-3.424c0-1.891,2.75-3.424,6.142-3.424h41.227
			c3.392,0,6.142-1.533,6.142-3.424c0-1.89-2.75-3.424-6.142-3.424h-3.078H96.599z"/>
		<path id="path-2_95_" style="fill:#142A3B;" d="M6.077,208.671c-2.479,0-4.488-1.472-4.488-3.287c0-1.813,2.009-3.284,4.488-3.284
			h13.755c2.479,0,4.489,1.471,4.489,3.284c0,1.815-2.01,3.287-4.489,3.287H6.077z"/>
		<path id="path-3_95_" style="fill:#FBB713;" d="M95.645,78.208c-40.922,0-71.51,42.196-71.51,79.92
			c0,12.036,3.056,20.309,9.317,25.304c6.621,5.291,15.881,5.964,23.201,5.964c5.275,0,11.017-0.402,17.105-0.829
			c14.032-0.978,29.758-0.978,43.782,0c6.087,0.427,11.839,0.829,17.097,0.829c16.086,0,32.517-3.714,32.517-31.268
			C167.154,120.404,136.575,78.208,95.645,78.208z"/>
		<path id="path-4_95_" style="opacity:0.35;fill:#060606;enable-background:new    ;" d="M126.228,86.595
			c14.624,15.628,23.535,37.268,23.535,57.622c0,27.554-16.431,31.267-32.517,31.267c-5.258,0-11.009-0.402-17.096-0.829
			c-14.025-0.978-29.749-0.978-43.783,0c-6.088,0.427-11.83,0.829-17.104,0.829c-3.827,0-8.178-0.203-12.41-1.134
			c1.539,3.744,3.712,6.779,6.599,9.082c6.621,5.291,15.881,5.965,23.201,5.965c5.275,0,11.017-0.403,17.105-0.83
			c14.032-0.978,29.758-0.978,43.782,0c6.088,0.427,11.839,0.83,17.097,0.83c16.086,0,32.517-3.715,32.517-31.269
			C167.154,130.627,150.893,100.77,126.228,86.595z"/>
		<path id="path-5_94_" style="fill:#FBB713;" d="M37.075,101.556c4.855-1.987,8.561-5.931,10.426-11.09
			c2.464-6.811,1.594-15.034-2.391-22.56C38.184,54.827,22.92,47.533,11.812,52.1c-4.864,1.988-8.561,5.94-10.435,11.107
			c-2.464,6.802-1.593,15.026,2.392,22.559c5.463,10.319,15.824,17.253,25.772,17.253C32.187,103.019,34.726,102.526,37.075,101.556
			z"/>
		<path id="path-6_91_" style="fill:#FBB713;" d="M76.486,76.869c1.068,0,2.136-0.106,3.204-0.32
			c12.529-2.563,20.079-19.355,17.203-38.226C94.026,19.484,81.505,6.315,68.944,8.877c-12.538,2.556-20.079,19.341-17.204,38.22
			C54.369,64.349,64.77,76.869,76.486,76.869z"/>
		<path id="path-7_90_" style="fill:#FBB713;" d="M189.92,63.207c-1.865-5.158-5.578-9.119-10.434-11.107
			c-11.132-4.584-26.372,2.727-33.298,15.806c-3.985,7.534-4.855,15.758-2.391,22.56c1.864,5.159,5.571,9.095,10.426,11.09
			c2.349,0.962,4.888,1.455,7.541,1.455h0.009c9.941,0,20.284-6.933,25.748-17.245C191.505,78.242,192.384,70.017,189.92,63.207z"/>
		<path id="path-8_69_" style="fill:#FBB713;" d="M120.029,76.549c1.068,0.214,2.136,0.32,3.196,0.32h0.008
			c11.699,0,22.108-12.52,24.746-29.772c2.875-18.879-4.683-35.664-17.204-38.22c-12.578-2.562-25.09,10.607-27.95,29.446
			C99.934,57.194,107.492,73.986,120.029,76.549z"/>
		<path id="path-9_60_" style="opacity:0.35;fill:#060606;enable-background:new    ;" d="M45.11,67.906
			c-5.054-9.545-14.547-15.982-23.627-17.004c5.319,2.991,10.093,7.673,13.193,13.526c3.984,7.526,4.855,15.749,2.391,22.56
			c-1.865,5.16-5.571,9.103-10.427,11.091c-2.349,0.969-4.888,1.462-7.533,1.462c-0.752,0-1.506-0.114-2.259-0.192
			c4.028,2.309,8.388,3.67,12.693,3.67c2.646,0,5.185-0.493,7.534-1.463c4.855-1.987,8.561-5.931,10.426-11.09
			C49.965,83.655,49.095,75.431,45.11,67.906z"/>
		<path id="path-10_54_" style="opacity:0.35;fill:#060606;enable-background:new    ;" d="M96.893,38.323
			c-2.271-14.924-10.606-26.255-20.215-29.06c4.777,5.318,8.402,13.042,9.781,22.104c2.875,18.87-4.674,35.663-17.203,38.227
			c-1.068,0.214-2.137,0.32-3.204,0.32c-1.577,0-3.126-0.244-4.639-0.679c4.275,4.797,9.52,7.634,15.073,7.634
			c1.068,0,2.136-0.105,3.204-0.32C92.219,73.986,99.769,57.193,96.893,38.323z"/>
		<path id="path-11_45_" style="opacity:0.35;fill:#060606;enable-background:new    ;" d="M189.92,63.207
			c-1.59-4.396-4.578-7.838-8.417-10.016c0.55,0.974,1.068,1.973,1.461,3.059c2.464,6.812,1.585,15.035-2.399,22.561
			c-5.463,10.31-15.807,17.245-25.748,17.245h-0.008c-2.654,0-5.193-0.493-7.543-1.456c-0.716-0.294-1.352-0.714-2.016-1.092
			c2.06,3.648,5.135,6.471,8.973,8.048c2.349,0.962,4.888,1.455,7.541,1.455h0.009c9.941,0,20.284-6.933,25.748-17.245
			C191.505,78.241,192.384,70.018,189.92,63.207z"/>
		<path id="path-12_39_" style="opacity:0.35;fill:#060606;enable-background:new    ;" d="M138.826,13.009
			c2.6,6.639,3.528,14.912,2.196,23.654c-2.637,17.253-13.046,29.772-24.745,29.772h-0.009c-1.058,0-2.127-0.106-3.196-0.319
			c-3-0.615-5.706-2.062-8.061-4.138c3.014,7.695,8.287,13.195,15.018,14.571c1.068,0.215,2.136,0.32,3.196,0.32h0.008
			c11.699,0,22.108-12.519,24.746-29.772C150.166,32.736,146.305,19.606,138.826,13.009z"/>
	</g>
</g>
<g>
</g>
<g>
</g>
<g>
</g>
<g>
</g>
<g>
</g>
<g>
</g>
<g>
</g>
<g>
</g>
<g>
</g>
<g>
</g>
<g>
</g>
<g>
</g>
<g>
</g>
<g>
</g>
<g>
</g>
</svg>
