<?xml version="1.0" encoding="iso-8859-1"?>
<!-- Generator: Adobe Illustrator 19.1.0, SVG Export Plug-In . SVG Version: 6.00 Build 0)  -->
<svg version="1.1" id="Capa_1" xmlns="http://www.w3.org/2000/svg" xmlns:xlink="http://www.w3.org/1999/xlink" x="0px" y="0px"
	 viewBox="0 0 216.291 216.291" style="enable-background:new 0 0 216.291 216.291;" xml:space="preserve">
<g>
	<g id="group-141svg">
		<path id="path-1_47_" style="fill:#0CB04A;" d="M134.721,90.913c19.538,10.768,28.169,32.586,28.169,52.823
			c0,32.08-32.511,60.718-74.111,53.95c-39.205,6.765-74.1-21.87-74.1-53.95c0-19.547,10.015-41.839,28.488-53.177
			c4.47-26.53,21.465-53.208,45.612-46.07C117.193,36.302,131.293,64.019,134.721,90.913L134.721,90.913z"/>
		<path id="path-2_47_" style="opacity:0.3;fill:#010101;enable-background:new    ;" d="M134.721,90.913
			c-3.249-25.486-16.088-51.687-41.602-47.4c18.566,3.489,28.281,25.705,31.046,47.4c19.539,10.768,28.169,32.586,28.169,52.823
			c0,27.438-23.791,52.337-56.701,54.74c38.259,2.762,67.257-24.445,67.257-54.74C162.89,123.499,154.259,101.681,134.721,90.913z"
			/>
		<path id="path-3_47_" style="fill:#FFFFFF;" d="M57.054,96.459c-0.198,0-0.398-0.016-0.604-0.048
			c-1.979-0.328-3.318-2.187-2.989-4.15c2.669-15.838,9.624-29.392,18.149-35.373c1.649-1.151,3.913-0.761,5.075,0.861
			c1.162,1.624,0.771,3.874-0.867,5.024c-6.894,4.834-12.854,16.876-15.177,30.674C60.342,95.211,58.803,96.459,57.054,96.459z"/>
		<path id="path-4_47_" style="fill:#142A3B;" d="M89.24,54.947c-0.228,0-0.459-0.022-0.694-0.065
			c-1.971-0.376-3.265-2.268-2.882-4.223c2.822-14.505,0.05-26.308,0.022-26.427c-0.466-1.935,0.738-3.88,2.693-4.341
			c1.951-0.458,3.92,0.732,4.385,2.67c0.133,0.54,3.16,13.449,0.043,29.464C92.473,53.747,90.948,54.947,89.24,54.947z"/>
		<path id="path-5_47_" style="fill:#2476FF;" d="M60.869,5.096c1.12-1.126,13.196-0.175,21.345,7.781
			c2.059,2.004,4.665,4.678,7.156,7.447c3.527-6.305,9.163-12.352,16.287-15.979c14.48-7.364,31.27-3.57,32.308-1.581
			c-6.852,24.918-32.201,30.715-44.687,31.681c-8.138,3.347-18.098-2.347-24.232-8.325C60.896,18.168,59.75,6.222,60.869,5.096z"/>
		<path id="path-6_47_" style="opacity:0.3;fill:#010101;enable-background:new    ;" d="M132.724,0.731
			c-8.638,20.746-31.353,25.846-42.966,26.743c-8.136,3.347-18.096-2.348-24.231-8.326c-1.314-1.283-2.428-2.673-3.398-4.101
			c1.301,3.663,3.48,7.72,6.917,11.073c6.134,5.977,16.095,11.672,24.232,8.325c12.486-0.966,37.835-6.763,44.687-31.681
			C137.634,2.13,135.683,1.312,132.724,0.731z"/>
		<path id="path-7_47_" style="fill:#FF3A2F;" d="M79.069,200.013h15.269c2.943,0,5.33,1.063,5.33,2.372
			c0,1.309-2.387,2.371-5.33,2.371h-0.711c-2.943,0-5.33,1.062-5.33,2.371c0,1.31,2.387,2.372,5.33,2.372h32.822
			c2.945,0,5.33,1.06,5.33,2.37c0,1.309-2.385,2.37-5.33,2.37H87.005H43.652c-2.944,0-5.33-1.061-5.33-2.37
			c0-1.31,2.386-2.37,5.33-2.37h9.11c2.943,0,5.33-1.062,5.33-2.372c0-1.309-2.387-2.371-5.33-2.371H9.408
			c-2.944,0-5.33-1.062-5.33-2.371c0-1.309,2.386-2.372,5.33-2.372h10.247H79.069z"/>
		<path id="path-8_47_" style="fill:#FF3A2F;" d="M173.571,216.291c3.361,0,6.085-1.213,6.085-2.707
			c0-1.496-2.724-2.708-6.085-2.708H154.92c-3.361,0-6.086,1.212-6.086,2.708c0,1.494,2.725,2.707,6.086,2.707H173.571z"/>
		<path id="path-9_44_" style="fill:#FF3A2F;" d="M188.009,178.717h7.011c1.352,0,2.448,0.602,2.448,1.343
			c0,0.742-1.096,1.346-2.448,1.346h-0.326c-1.352,0-2.448,0.602-2.448,1.344c0,0.744,1.096,1.346,2.448,1.346h15.071
			c1.351,0,2.447,0.602,2.447,1.345c0,0.743-1.096,1.344-2.447,1.344h-18.111h-37.022c-1.351,0-2.447-0.601-2.447-1.344
			c0-0.743,1.096-1.345,2.447-1.345h4.183c1.352,0,2.447-0.602,2.447-1.346c0-0.742-1.095-1.344-2.447-1.344h-19.906
			c-1.353,0-2.448-0.604-2.448-1.346c0-0.741,1.095-1.343,2.448-1.343h4.705H188.009z"/>
		<path id="path-10_40_" style="fill:#FF3A2F;" d="M134.838,188.241c2.521,0,4.566-0.499,4.566-1.112
			c0-0.616-2.045-1.115-4.566-1.115h-13.994c-2.521,0-4.566,0.499-4.566,1.115c0,0.613,2.045,1.112,4.566,1.112H134.838z"/>
	</g>
</g>
<g>
</g>
<g>
</g>
<g>
</g>
<g>
</g>
<g>
</g>
<g>
</g>
<g>
</g>
<g>
</g>
<g>
</g>
<g>
</g>
<g>
</g>
<g>
</g>
<g>
</g>
<g>
</g>
<g>
</g>
</svg>
