<?xml version="1.0" encoding="iso-8859-1"?>
<!-- Generator: Adobe Illustrator 19.1.0, SVG Export Plug-In . SVG Version: 6.00 Build 0)  -->
<svg version="1.1" id="Capa_1" xmlns="http://www.w3.org/2000/svg" xmlns:xlink="http://www.w3.org/1999/xlink" x="0px" y="0px"
	 viewBox="0 0 218.332 218.332" style="enable-background:new 0 0 218.332 218.332;" xml:space="preserve">
<g>
	<g id="group-105svg">
		<path id="path-1_7_" style="fill:#142A3B;" d="M180.555,174.197c3.286,0,5.95-1.184,5.95-2.646c0-1.463-2.664-2.647-5.95-2.647
			h-18.234c-3.285,0-5.95,1.184-5.95,2.647c0,1.462,2.665,2.646,5.95,2.646H180.555z"/>
		<path id="path-2_7_" style="fill:#142A3B;" d="M194.67,137.463h6.853c1.322,0,2.394,0.587,2.394,1.314
			c0,0.727-1.072,1.315-2.394,1.315h-0.318c-1.321,0-2.393,0.588-2.393,1.315c0,0.726,1.072,1.315,2.393,1.315h14.734
			c1.322,0,2.393,0.589,2.393,1.315c0,0.727-1.071,1.315-2.393,1.315h-17.706H162.04c-1.322,0-2.393-0.588-2.393-1.315
			c0-0.726,1.071-1.315,2.393-1.315h4.089c1.322,0,2.392-0.589,2.392-1.315c0-0.727-1.07-1.315-2.392-1.315h-19.462
			c-1.321,0-2.392-0.588-2.392-1.315c0-0.727,1.071-1.314,2.392-1.314h4.599H194.67z"/>
		<path id="path-3_7_" style="fill:#142A3B;" d="M190.29,215.092c-2.965-0.17-5.267-2.049-5.142-4.198
			c0.125-2.151,2.63-3.756,5.593-3.587l16.45,0.937c2.965,0.169,5.266,2.048,5.142,4.198c-0.125,2.149-2.629,3.755-5.594,3.587
			L190.29,215.092z"/>
		<path id="path-4_7_" style="fill:#142A3B;" d="M76.764,192.765H58.393c-3.541,0-6.413,1.628-6.413,3.638
			c0,2.008,2.872,3.638,6.413,3.638h0.855c3.542,0,6.414,1.629,6.414,3.637c0,2.009-2.872,3.638-6.414,3.638H19.759
			c-3.542,0-6.413,1.629-6.413,3.638s2.871,3.638,6.413,3.638h47.457h97c3.542,0,6.413-1.629,6.413-3.638s-2.871-3.638-6.413-3.638
			h-10.96c-3.542,0-6.413-1.629-6.413-3.638c0-2.008,2.871-3.637,6.413-3.637h43.045c3.542,0,6.414-1.63,6.414-3.638
			c0-2.01-2.872-3.638-6.414-3.638h-3.213H76.764z"/>
		<path id="path-5_7_" style="fill:#FBB713;" d="M216.716,43.379L46.205,212.295L16.03,182.403L186.542,13.485L216.716,43.379z"/>
		<path id="path-6_7_" style="fill:#142A3B;" d="M79.479,155.864c-0.931,0-1.863-0.351-2.574-1.056l-12.809-12.693
			c-1.422-1.408-1.422-3.691,0-5.096c1.421-1.408,3.723-1.408,5.145,0l12.811,12.692c1.421,1.408,1.421,3.69,0,5.097
			C81.341,155.513,80.409,155.864,79.479,155.864z"/>
		<path id="path-7_7_" style="fill:#142A3B;" d="M57.446,177.453c-0.93,0-1.861-0.352-2.573-1.057l-12.93-12.81
			c-1.422-1.407-1.422-3.691,0-5.097c1.421-1.409,3.723-1.409,5.145,0l12.932,12.81c1.421,1.408,1.421,3.69,0,5.097
			C59.309,177.101,58.377,177.453,57.446,177.453z"/>
		<path id="path-8_7_" style="fill:#142A3B;" d="M41.654,181.473c-0.931,0-1.861-0.353-2.573-1.056l-6.705-6.643
			c-1.421-1.407-1.421-3.69,0-5.097c1.421-1.408,3.724-1.408,5.145,0l6.706,6.642c1.421,1.408,1.421,3.691,0,5.098
			C43.517,181.12,42.585,181.473,41.654,181.473z"/>
		<path id="path-9_6_" style="fill:#142A3B;" d="M61.785,162.006c-0.93,0-1.862-0.351-2.572-1.055l-6.707-6.644
			c-1.42-1.406-1.42-3.69,0-5.097c1.422-1.409,3.725-1.409,5.147,0l6.705,6.644c1.421,1.406,1.421,3.689,0,5.097
			C63.647,161.655,62.717,162.006,61.785,162.006z"/>
		<path id="path-10_5_" style="fill:#142A3B;" d="M83.1,140.891c-0.931,0-1.863-0.351-2.574-1.055l-6.704-6.643
			c-1.422-1.407-1.422-3.689,0-5.098c1.421-1.408,3.724-1.408,5.145,0l6.706,6.645c1.421,1.406,1.421,3.689,0,5.096
			C84.962,140.54,84.031,140.891,83.1,140.891z"/>
		<path id="path-11_5_" style="fill:#142A3B;" d="M100.314,134.751c-0.931,0-1.863-0.354-2.574-1.057l-12.81-12.695
			c-1.422-1.406-1.422-3.689,0-5.097c1.421-1.408,3.724-1.408,5.146,0l12.81,12.693c1.422,1.41,1.422,3.691,0,5.099
			C102.175,134.397,101.244,134.751,100.314,134.751z"/>
		<path id="path-12_5_" style="fill:#142A3B;" d="M104.89,118.828c-0.93,0-1.862-0.351-2.572-1.056l-6.707-6.641
			c-1.42-1.409-1.42-3.69,0-5.098c1.422-1.408,3.725-1.408,5.146,0l6.706,6.641c1.421,1.408,1.421,3.69,0,5.098
			C106.753,118.477,105.822,118.828,104.89,118.828z"/>
		<path id="path-13_4_" style="fill:#142A3B;" d="M122.907,112.211c-0.931,0-1.862-0.351-2.572-1.055l-12.623-12.49
			c-1.422-1.408-1.422-3.69,0-5.099c1.421-1.408,3.724-1.409,5.146-0.003l12.622,12.493c1.421,1.407,1.421,3.687,0,5.097
			C124.769,111.859,123.839,112.211,122.907,112.211z"/>
		<path id="path-14_3_" style="fill:#142A3B;" d="M127.121,96.725c-0.93,0-1.861-0.351-2.572-1.055l-6.702-6.643
			c-1.422-1.407-1.422-3.692,0-5.098c1.421-1.406,3.724-1.408,5.145,0.001l6.703,6.642c1.42,1.408,1.42,3.691,0,5.099
			C128.984,96.374,128.053,96.725,127.121,96.725z"/>
		<path id="path-15_3_" style="fill:#142A3B;" d="M145.156,90.445c-0.931,0-1.862-0.352-2.573-1.056l-12.491-12.376
			c-1.421-1.408-1.421-3.691,0-5.098c1.422-1.406,3.724-1.407,5.146,0.001l12.49,12.375c1.423,1.408,1.423,3.691,0,5.098
			C147.019,90.093,146.087,90.445,145.156,90.445z"/>
		<path id="path-16_3_" style="fill:#142A3B;" d="M149.313,75.058c-0.931,0-1.861-0.352-2.572-1.056l-6.706-6.644
			c-1.421-1.407-1.421-3.69,0-5.097c1.422-1.408,3.724-1.408,5.146,0l6.705,6.643c1.422,1.408,1.422,3.69,0,5.098
			C151.176,74.706,150.245,75.058,149.313,75.058z"/>
		<path id="path-17_2_" style="fill:#142A3B;" d="M175.166,49.922c-0.931,0-1.862-0.352-2.573-1.055l-6.705-6.643
			c-1.421-1.408-1.421-3.691,0-5.098c1.421-1.409,3.723-1.409,5.145,0l6.705,6.644c1.422,1.406,1.422,3.69,0,5.097
			C177.029,49.57,176.097,49.922,175.166,49.922z"/>
		<path id="path-18_1_" style="fill:#142A3B;" d="M167.668,68.145c-0.931,0-1.862-0.353-2.573-1.057l-12.491-12.376
			c-1.422-1.408-1.422-3.691,0-5.099c1.422-1.406,3.725-1.406,5.146,0.002l12.491,12.375c1.421,1.409,1.421,3.691,0,5.098
			C169.53,67.792,168.599,68.145,167.668,68.145z"/>
		<path id="path-19_1_" style="fill:#FF3A2F;" d="M134.785,35.365l-10.537,10.44l-26.62-26.372l10.537-10.438
			c8.314-8.238,20.985-8.972,28.311-1.713c3.683,3.648,5.337,8.63,5.007,13.692C141.198,26.084,138.923,31.265,134.785,35.365z"/>
		<path id="path-20_1_" style="fill:#FFFFFF;" d="M110.409,19.394c-0.533,0-1.077-0.119-1.592-0.366
			c-1.806-0.872-2.555-3.031-1.673-4.819c3.674-7.468,12.248-10.853,19.153-7.524c1.805,0.873,2.555,3.032,1.674,4.821
			c-0.878,1.787-3.042,2.534-4.865,1.661c-3.269-1.581-7.501,0.3-9.424,4.202C113.053,18.65,111.756,19.394,110.409,19.394z"/>
		<path id="path-21_1_" style="fill:#2476FF;" d="M12.612,103.395l87.628-86.453l26.691,26.442l-88.765,87.46l0,0"/>
		<path id="path-22_1_" style="fill:#142A3B;" d="M15.442,136.549L0,142.519l5.402-15.916L15.442,136.549z"/>
		<path id="path-23_1_" style="fill:#FBB713;" d="M28.017,103.489h-9.879l-5.526-0.094l-7.21,23.208l10.04,9.946l22.724-5.705
			l0.773-7.074l0.004-9.45l-11.148,1.523L28.017,103.489z"/>
		<path id="path-24_1_" style="opacity:0.35;fill:#020403;enable-background:new    ;" d="M126.084,2.429
			c1.163,0.689,2.256,1.512,3.247,2.494c3.682,3.647,5.335,8.63,5.007,13.694c-0.284,5.107-2.561,10.288-6.699,14.389l-5.773,5.72
			l4.763,4.719l8.156-8.08c4.138-4.1,6.413-9.281,6.698-14.391c0.33-5.061-1.325-10.044-5.007-13.692
			C133.631,4.461,129.975,2.864,126.084,2.429z"/>
		<path id="path-25_1_" style="opacity:0.35;fill:#020403;enable-background:new    ;" d="M98.469,18.34l14.448,18.361
			c2.574,3.27,2.289,7.926-0.663,10.864l-73.296,72.948l-0.792,10.331l88.765-87.46L100.24,16.942L98.469,18.34z"/>
		<path id="path-26" style="opacity:0.35;fill:#020403;enable-background:new    ;" d="M25.703,103.489l1.028,12.003l1.064,0.351
			l0.222-12.354H25.703z"/>
		<path id="path-27" style="opacity:0.35;fill:#020403;enable-background:new    ;" d="M32.502,127.817l-20.442,5.382l3.382,3.35
			l22.724-5.705l0.773-7.074l0.004-9.45l-2.407,0.328L32.502,127.817z"/>
		<path id="path-28" style="fill:#FFFFFF;" d="M40.219,91.093c-0.932,0-1.862-0.351-2.573-1.055c-1.422-1.407-1.422-3.691,0-5.097
			l52.799-52.303c1.422-1.409,3.724-1.409,5.146,0c1.421,1.407,1.421,3.69,0,5.098l-52.8,52.302
			C42.081,90.742,41.15,91.093,40.219,91.093z"/>
	</g>
</g>
<g>
</g>
<g>
</g>
<g>
</g>
<g>
</g>
<g>
</g>
<g>
</g>
<g>
</g>
<g>
</g>
<g>
</g>
<g>
</g>
<g>
</g>
<g>
</g>
<g>
</g>
<g>
</g>
<g>
</g>
</svg>
