<?xml version="1.0" encoding="iso-8859-1"?>
<!-- Generator: Adobe Illustrator 19.1.0, SVG Export Plug-In . SVG Version: 6.00 Build 0)  -->
<svg version="1.1" id="Capa_1" xmlns="http://www.w3.org/2000/svg" xmlns:xlink="http://www.w3.org/1999/xlink" x="0px" y="0px"
	 viewBox="0 0 216.292 216.292" style="enable-background:new 0 0 216.292 216.292;" xml:space="preserve">
<g>
	<g id="group-128svg">
		<path id="path-1_32_" style="fill:#FF3A2F;" d="M156.11,35.973l-11.459,11.353l-28.954-28.682l11.461-11.353
			c9.043-8.96,22.823-9.758,30.792-1.863c4.004,3.968,5.804,9.387,5.445,14.893C163.086,25.877,160.612,31.514,156.11,35.973z"/>
		<path id="path-2_32_" style="fill:#FFFFFF;" d="M129.598,18.286c-0.532,0-1.076-0.118-1.592-0.365
			c-1.804-0.873-2.553-3.031-1.673-4.821c1.866-3.793,4.965-6.729,8.724-8.27c3.909-1.599,8.057-1.517,11.681,0.234
			c1.806,0.872,2.555,3.032,1.674,4.821c-0.874,1.788-3.042,2.537-4.865,1.658c-1.72-0.832-3.75-0.848-5.711-0.049
			c-2.114,0.867-3.877,2.559-4.964,4.766C132.243,17.541,130.95,18.286,129.598,18.286z"/>
		<path id="path-3_32_" style="fill:#142A3B;" d="M23.232,109.965l95.306-94.03l29.03,28.758l-96.545,95.126l0,0"/>
		<path id="path-4_32_" style="fill:#142A3B;" d="M26.309,146.022l-16.796,6.495l5.876-17.311L26.309,146.022z"/>
		<path id="path-5_32_" style="fill:#FBB713;" d="M39.984,110.067H29.241l-6.009-0.102l-7.843,25.241l10.919,10.816l24.715-6.203
			l0.841-7.695l0.004-10.277l-12.124,1.656L39.984,110.067z"/>
		<path id="path-6_32_" style="opacity:0.35;fill:#020403;enable-background:new    ;" d="M146.646,0.149
			c1.264,0.75,2.455,1.645,3.532,2.712c4.005,3.968,5.803,9.387,5.445,14.894c-0.309,5.556-2.784,11.191-7.286,15.652l-6.278,6.22
			l5.181,5.134l8.87-8.789c4.5-4.459,6.976-10.095,7.285-15.651c0.359-5.506-1.441-10.926-5.445-14.893
			C154.855,2.36,150.879,0.623,146.646,0.149z"/>
		<path id="path-7_32_" style="opacity:0.35;fill:#020403;enable-background:new    ;" d="M116.613,17.455l15.714,19.969
			c2.799,3.557,2.489,8.622-0.723,11.817l-79.719,79.341l-0.862,11.237l96.545-95.126l-29.03-28.758L116.613,17.455z"/>
		<path id="path-8_32_" style="opacity:0.35;fill:#020403;enable-background:new    ;" d="M44.863,136.527l-22.234,5.852
			l3.679,3.643l24.715-6.203l0.841-7.695l0.004-10.277l-2.616,0.358L44.863,136.527z"/>
		<path id="path-9_29_" style="fill:#FFFFFF;" d="M53.257,96.269c-0.931,0-1.861-0.351-2.572-1.055
			c-1.422-1.407-1.422-3.691,0-5.099l57.422-56.886c1.422-1.409,3.725-1.409,5.145,0c1.422,1.407,1.422,3.69,0,5.097L55.83,95.214
			C55.119,95.918,54.188,96.269,53.257,96.269z"/>
		<path id="path-10_27_" style="fill:#FF3A2F;" d="M186.046,156.018c3.5,0,6.337-1.263,6.337-2.819c0-1.557-2.837-2.818-6.337-2.818
			h-19.419c-3.5,0-6.337,1.261-6.337,2.818c0,1.556,2.837,2.819,6.337,2.819H186.046z"/>
		<path id="path-11_24_" style="fill:#FF3A2F;" d="M183.658,123.896h7.3c1.408,0,2.549,0.627,2.549,1.401
			c0,0.773-1.141,1.399-2.549,1.399h-0.34c-1.408,0-2.549,0.627-2.549,1.401c0,0.774,1.141,1.401,2.549,1.401h15.693
			c1.408,0,2.548,0.627,2.548,1.401c0,0.773-1.14,1.4-2.548,1.4h-18.859h-38.546c-1.408,0-2.549-0.627-2.549-1.4
			c0-0.774,1.141-1.401,2.549-1.401h4.355c1.407,0,2.549-0.627,2.549-1.401c0-0.774-1.142-1.401-2.549-1.401h-20.727
			c-1.408,0-2.549-0.626-2.549-1.399c0-0.774,1.141-1.401,2.549-1.401h4.898H183.658z"/>
		<path id="path-12_20_" style="fill:#FF3A2F;" d="M186.046,156.018c3.5,0,6.337-1.263,6.337-2.819c0-1.557-2.837-2.818-6.337-2.818
			h-19.419c-3.5,0-6.337,1.261-6.337,2.818c0,1.556,2.837,2.819,6.337,2.819H186.046z"/>
		<path id="path-13_16_" style="fill:#FF3A2F;" d="M183.658,123.896h7.3c1.408,0,2.549,0.627,2.549,1.401
			c0,0.773-1.141,1.399-2.549,1.399h-0.34c-1.408,0-2.549,0.627-2.549,1.401c0,0.774,1.141,1.401,2.549,1.401h15.693
			c1.408,0,2.548,0.627,2.548,1.401c0,0.773-1.14,1.4-2.548,1.4h-18.859h-38.546c-1.408,0-2.549-0.627-2.549-1.4
			c0-0.774,1.141-1.401,2.549-1.401h4.355c1.407,0,2.549-0.627,2.549-1.401c0-0.774-1.142-1.401-2.549-1.401h-20.727
			c-1.408,0-2.549-0.626-2.549-1.399c0-0.774,1.141-1.401,2.549-1.401h4.898H183.658z"/>
		<path id="path-14_13_" style="opacity:0.35;fill:#020403;enable-background:new    ;" d="M37.468,110.067l1.118,13.053
			l1.158,0.383l0.24-13.436H37.468z"/>
		<path id="path-15_11_" style="fill:#FF3A2F;" d="M186.046,156.018c3.5,0,6.337-1.263,6.337-2.819c0-1.557-2.837-2.818-6.337-2.818
			h-19.419c-3.5,0-6.337,1.261-6.337,2.818c0,1.556,2.837,2.819,6.337,2.819H186.046z"/>
		<path id="path-16_10_" style="fill:#FF3A2F;" d="M183.658,123.896h7.3c1.408,0,2.549,0.627,2.549,1.401
			c0,0.773-1.141,1.399-2.549,1.399h-0.34c-1.408,0-2.549,0.627-2.549,1.401c0,0.774,1.141,1.401,2.549,1.401h15.693
			c1.408,0,2.548,0.627,2.548,1.401c0,0.773-1.14,1.4-2.548,1.4h-18.859h-38.546c-1.408,0-2.549-0.627-2.549-1.4
			c0-0.774,1.141-1.401,2.549-1.401h4.355c1.407,0,2.549-0.627,2.549-1.401c0-0.774-1.142-1.401-2.549-1.401h-20.727
			c-1.408,0-2.549-0.626-2.549-1.399c0-0.774,1.141-1.401,2.549-1.401h4.898H183.658z"/>
		<path id="path-17_8_" style="fill:#FF3A2F;" d="M186.046,156.018c3.5,0,6.337-1.263,6.337-2.819c0-1.557-2.837-2.818-6.337-2.818
			h-19.419c-3.5,0-6.337,1.261-6.337,2.818c0,1.556,2.837,2.819,6.337,2.819H186.046z"/>
		<path id="path-18_6_" style="fill:#FF3A2F;" d="M183.658,123.896h7.3c1.408,0,2.549,0.627,2.549,1.401
			c0,0.773-1.141,1.399-2.549,1.399h-0.34c-1.408,0-2.549,0.627-2.549,1.401c0,0.774,1.141,1.401,2.549,1.401h15.693
			c1.408,0,2.548,0.627,2.548,1.401c0,0.773-1.14,1.4-2.548,1.4h-18.859h-38.546c-1.408,0-2.549-0.627-2.549-1.4
			c0-0.774,1.141-1.401,2.549-1.401h4.355c1.407,0,2.549-0.627,2.549-1.401c0-0.774-1.142-1.401-2.549-1.401h-20.727
			c-1.408,0-2.549-0.626-2.549-1.399c0-0.774,1.141-1.401,2.549-1.401h4.898H183.658z"/>
		<path id="path-19_5_" style="fill:#FF3A2F;" d="M148.404,197.333h17.783c3.429,0,6.209,1.236,6.209,2.76
			c0,1.525-2.78,2.762-6.209,2.762h-0.827c-3.43,0-6.208,1.236-6.208,2.762c0,1.525,2.778,2.761,6.208,2.761h38.23
			c3.428,0,6.208,1.237,6.208,2.761c0,1.527-2.78,2.764-6.208,2.764h-45.943h-50.496c-3.428,0-6.209-1.237-6.209-2.764
			c0-1.524,2.781-2.761,6.209-2.761h10.611c3.429,0,6.208-1.236,6.208-2.761c0-1.526-2.779-2.762-6.208-2.762H67.266
			c-3.43,0-6.209-1.237-6.209-2.762c0-1.524,2.779-2.76,6.209-2.76h11.933H148.404z"/>
		<path id="path-20_5_" style="fill:#FF3A2F;" d="M53.558,216.292c3.915,0,7.089-1.412,7.089-3.154c0-1.741-3.174-3.153-7.089-3.153
			H31.834c-3.915,0-7.089,1.412-7.089,3.153c0,1.742,3.174,3.154,7.089,3.154H53.558z"/>
		<path id="path-21_4_" style="fill:#FF3A2F;" d="M60.167,153.757h7.3c1.407,0,2.549,0.628,2.549,1.401s-1.142,1.4-2.549,1.4h-0.339
			c-1.409,0-2.549,0.627-2.549,1.4c0,0.773,1.14,1.4,2.549,1.4H82.82c1.408,0,2.549,0.629,2.549,1.401
			c0,0.775-1.141,1.402-2.549,1.402H63.961H25.415c-1.408,0-2.549-0.627-2.549-1.402c0-0.772,1.141-1.401,2.549-1.401h4.355
			c1.407,0,2.549-0.627,2.549-1.4c0-0.773-1.142-1.4-2.549-1.4H9.043c-1.408,0-2.549-0.627-2.549-1.4s1.141-1.401,2.549-1.401h4.898
			H60.167z"/>
	</g>
</g>
<g>
</g>
<g>
</g>
<g>
</g>
<g>
</g>
<g>
</g>
<g>
</g>
<g>
</g>
<g>
</g>
<g>
</g>
<g>
</g>
<g>
</g>
<g>
</g>
<g>
</g>
<g>
</g>
<g>
</g>
</svg>
