<?xml version="1.0" encoding="iso-8859-1"?>
<!-- Generator: Adobe Illustrator 19.1.0, SVG Export Plug-In . SVG Version: 6.00 Build 0)  -->
<svg version="1.1" id="Capa_1" xmlns="http://www.w3.org/2000/svg" xmlns:xlink="http://www.w3.org/1999/xlink" x="0px" y="0px"
	 viewBox="0 0 216.291 216.291" style="enable-background:new 0 0 216.291 216.291;" xml:space="preserve">
<g>
	<g id="group-111svg">
		<path id="path-1_14_" style="fill:#FF3A2F;" d="M23.488,34.872l1.165,2.674c0.225,0.516,1.046,0.662,1.836,0.324
			c0.788-0.337,1.246-1.029,1.021-1.545L27.456,36.2c-0.225-0.515,0.233-1.207,1.022-1.544c0.789-0.337,1.61-0.192,1.835,0.324
			l2.506,5.753c0.224,0.515,1.047,0.659,1.835,0.322c0.789-0.337,1.247-1.028,1.022-1.545l-3.012-6.912l-6.155-14.13
			c-0.224-0.516-1.046-0.661-1.835-0.324c-0.789,0.338-1.246,1.029-1.021,1.545l0.695,1.596c0.224,0.516-0.232,1.208-1.022,1.546
			c-0.789,0.336-1.611,0.192-1.835-0.324l-3.31-7.598c-0.225-0.516-1.046-0.662-1.836-0.325c-0.788,0.338-1.245,1.03-1.021,1.545
			l0.782,1.796L23.488,34.872z"/>
		<path id="path-2_14_" style="fill:#FF3A2F;" d="M40.499,61.531c1.042,2.391,0.629,4.868-0.923,5.531
			c-1.552,0.665-3.655-0.737-4.697-3.128l-5.782-13.275c-1.042-2.393-0.629-4.87,0.922-5.534c1.553-0.663,3.655,0.739,4.698,3.13
			L40.499,61.531z"/>
		<path id="path-3_14_" style="fill:#FF3A2F;" d="M178.734,25.433l-1.416,3.532c-0.273,0.682,0.35,1.565,1.391,1.975
			c1.042,0.41,2.107,0.19,2.38-0.491l0.066-0.164c0.273-0.681,1.338-0.901,2.38-0.492c1.041,0.41,1.664,1.293,1.391,1.975
			l-3.043,7.592c-0.274,0.681,0.349,1.565,1.391,1.975c1.041,0.41,2.106,0.189,2.379-0.492l3.658-9.124l7.476-18.65
			c0.273-0.68-0.35-1.566-1.391-1.974c-1.041-0.411-2.107-0.19-2.379,0.49l-0.846,2.108c-0.272,0.68-1.338,0.9-2.379,0.492
			c-1.041-0.41-1.664-1.294-1.391-1.976l4.02-10.028c0.272-0.681-0.35-1.565-1.392-1.975c-1.041-0.409-2.107-0.19-2.379,0.492
			l-0.95,2.37L178.734,25.433z"/>
		<path id="path-4_14_" style="fill:#FF3A2F;" d="M169.607,65.551c-1.266,3.157-3.953,5.064-6.001,4.258
			c-2.049-0.805-2.683-4.018-1.417-7.175l7.023-17.521c1.266-3.158,3.953-5.065,6.001-4.259c2.048,0.805,2.683,4.019,1.417,7.178
			L169.607,65.551z"/>
		<path id="path-5_14_" style="fill:#FF3A2F;" d="M93.94,216.291c2.606,0,4.719-0.9,4.719-2.009c0-1.11-2.113-2.008-4.719-2.008
			H79.48c-2.606,0-4.718,0.898-4.718,2.008c0,1.109,2.112,2.009,4.718,2.009H93.94z"/>
		<path id="path-6_14_" style="fill:#FF3A2F;" d="M177.876,193.653H188.8c2.106,0,3.813,1.289,3.813,2.881
			c0,1.591-1.707,2.881-3.813,2.881h-0.509c-2.106,0-3.813,1.29-3.813,2.881c0,1.592,1.707,2.881,3.813,2.881h23.483
			c2.106,0,3.813,1.291,3.813,2.881c0,1.592-1.707,2.882-3.813,2.882h-28.221h-57.681c-2.106,0-3.814-1.29-3.814-2.882
			c0-1.59,1.708-2.881,3.814-2.881h6.517c2.106,0,3.813-1.289,3.813-2.881c0-1.591-1.707-2.881-3.813-2.881h-31.017
			c-2.106,0-3.814-1.29-3.814-2.881c0-1.592,1.708-2.881,3.814-2.881h7.331H177.876z"/>
		<path id="path-7_14_" style="fill:#0CB04A;" d="M166.339,195.953H2.329c-0.897,0-1.625-0.728-1.625-1.625V98.677
			c0-0.897,0.728-1.625,1.625-1.625h164.01c0.898,0,1.625,0.728,1.625,1.625v95.651
			C167.964,195.225,167.237,195.953,166.339,195.953z"/>
		<path id="path-8_14_" style="opacity:0.35;fill:#020403;enable-background:new    ;" d="M162.309,97.052h-4.785v86.402
			c0,3.096-2.532,5.604-5.655,5.604H0.704v1.292c0,3.095,2.532,5.603,5.655,5.603h155.95c3.123,0,5.655-2.508,5.655-5.603v-87.696
			C167.964,99.56,165.432,97.052,162.309,97.052z"/>
		<path id="path-9_13_" style="fill:#EDEDED;" d="M142.299,145.532c0-22.252-18.21-40.292-40.674-40.292
			c-22.463,0-40.673,18.04-40.673,40.292c0,22.255,18.21,40.294,40.673,40.294C124.089,185.826,142.299,167.787,142.299,145.532z"/>
		<path id="path-10_11_" style="opacity:0.35;fill:#020403;enable-background:new    ;" d="M101.625,105.025
			c-1.174,0-2.33,0.077-3.479,0.174c20.83,1.752,37.193,19.028,37.193,40.12c0,21.089-16.363,38.364-37.193,40.117
			c1.149,0.097,2.305,0.174,3.479,0.174c22.464,0,40.674-18.038,40.674-40.291C142.299,123.064,124.089,105.025,101.625,105.025z"/>
		<path id="path-11_11_" style="fill:#142A3B;" d="M73.785,145.691c-2.009,0-3.639-1.614-3.639-3.605
			c0-14.331,11.77-25.99,26.234-25.99c2.01,0,3.64,1.614,3.64,3.605c0,1.992-1.63,3.605-3.64,3.605
			c-10.452,0-18.956,8.425-18.956,18.78C77.424,144.077,75.795,145.691,73.785,145.691z"/>
		<path id="path-12_11_" style="opacity:0.35;fill:#020403;enable-background:new    ;" d="M51.284,125.697
			c0,1.991-2.136,3.602-4.145,3.602H28.944c-2.01,0-2.658-1.611-2.658-3.602v-7.208c0-1.991,0.648-3.189,2.658-3.189h18.195
			c2.009,0,4.145,1.198,4.145,3.189V125.697z"/>
		<path id="path-13_9_" style="fill:#FF3A2F;" d="M47.285,122.093c0,1.991-1.775,4.206-3.785,4.206H25.305
			c-2.01,0-4.019-2.215-4.019-4.206v-7.209c0-1.992,2.009-4.584,4.019-4.584H43.5c2.01,0,3.785,2.592,3.785,4.584V122.093z"/>
		<path id="path-14_7_" style="fill:#142A3B;" d="M139.906,96.3H63.345l3.48-21.998h69.601L139.906,96.3z"/>
		<path id="path-15_6_" style="opacity:0.35;fill:#020403;enable-background:new    ;" d="M136.426,75.229h-9.28l0.508,4.159
			c0.948,5.638-3.44,10.769-9.21,10.769l-54.64,4.171l-0.459,2.724h76.561L136.426,75.229z"/>
		<path id="path-16_6_" style="fill:#142A3B;" d="M47.285,96.3H26.286v-5.998h20.999V96.3z"/>
	</g>
</g>
<g>
</g>
<g>
</g>
<g>
</g>
<g>
</g>
<g>
</g>
<g>
</g>
<g>
</g>
<g>
</g>
<g>
</g>
<g>
</g>
<g>
</g>
<g>
</g>
<g>
</g>
<g>
</g>
<g>
</g>
</svg>
