<?xml version="1.0" encoding="iso-8859-1"?>
<!-- Generator: Adobe Illustrator 19.1.0, SVG Export Plug-In . SVG Version: 6.00 Build 0)  -->
<svg version="1.1" id="Capa_1" xmlns="http://www.w3.org/2000/svg" xmlns:xlink="http://www.w3.org/1999/xlink" x="0px" y="0px"
	 viewBox="0 0 219.069 219.069" style="enable-background:new 0 0 219.069 219.069;" xml:space="preserve">
<g>
	<g id="group-143svg">
		<path id="path-1_49_" style="fill:#FBB713;" d="M126.322,219.069h16.965c3.271,0,5.923-2.007,5.923-4.481
			c0-2.476-2.652-4.482-5.923-4.482h-0.79c-3.27,0-5.923-2.008-5.923-4.484s2.653-4.482,5.923-4.482h36.471
			c3.271,0,5.923-2.008,5.923-4.484c0-2.476-2.652-4.483-5.923-4.483H135.14H45.555c-3.271,0-5.923,2.007-5.923,4.483
			c0,2.476,2.652,4.484,5.923,4.484h10.122c3.271,0,5.922,2.006,5.922,4.482s-2.651,4.484-5.922,4.484H15.923
			c-3.271,0-5.923,2.006-5.923,4.482c0,2.474,2.652,4.481,5.923,4.481h2.967H126.322z"/>
		<path id="path-2_49_" style="fill:#FBB713;" d="M21.103,190.974c2.742,0,4.965,2.15,4.965,4.803s-2.223,4.804-4.965,4.804H5.886
			c-2.743,0-4.966-2.151-4.966-4.804s2.223-4.803,4.966-4.803H21.103z"/>
		<path id="path-3_49_" style="fill:#0CB04A;" d="M174.451,122.349c0,43.44-35.214,78.653-78.655,78.653
			c-43.442,0-78.656-35.213-78.656-78.653s35.214-78.653,78.656-78.653v78.653H174.451z"/>
		<path id="path-4_49_" style="fill:#FF3A2F;" d="M218.148,104.87C218.148,46.948,171.199,0,113.275,0v104.87H218.148z"/>
		<path id="path-5_49_" style="opacity:0.35;enable-background:new    ;" d="M87.755,122.349h8.041V43.696
			c-2.715,0-5.397,0.152-8.041,0.452V122.349z"/>
		<path id="path-6_48_" style="opacity:0.35;enable-background:new    ;" d="M166.005,122.349
			c-4.027,39.661-37.523,70.612-78.25,70.612c-19.673,0-37.613-7.27-51.406-19.207c14.423,16.661,35.678,27.248,59.447,27.248
			c43.441,0,78.655-35.214,78.655-78.653H166.005z"/>
		<path id="path-7_47_" style="opacity:0.35;enable-background:new    ;" d="M183.295,26.812
			c16.665,18.567,26.813,43.103,26.813,70.019h-96.833v8.039h104.874C218.149,73.864,204.685,46.011,183.295,26.812z"/>
	</g>
</g>
<g>
</g>
<g>
</g>
<g>
</g>
<g>
</g>
<g>
</g>
<g>
</g>
<g>
</g>
<g>
</g>
<g>
</g>
<g>
</g>
<g>
</g>
<g>
</g>
<g>
</g>
<g>
</g>
<g>
</g>
</svg>
