<?xml version="1.0" encoding="iso-8859-1"?>
<!-- Generator: Adobe Illustrator 19.1.0, SVG Export Plug-In . SVG Version: 6.00 Build 0)  -->
<svg version="1.1" id="Capa_1" xmlns="http://www.w3.org/2000/svg" xmlns:xlink="http://www.w3.org/1999/xlink" x="0px" y="0px"
	 viewBox="0 0 217.228 217.228" style="enable-background:new 0 0 217.228 217.228;" xml:space="preserve">
<g>
	<g id="group-101svg">
		<path id="path-1_3_" style="fill:#0CB04A;" d="M89.022,135.561H71.083c-3.46,0-6.263,2.044-6.263,4.566
			c0,2.52,2.803,4.564,6.263,4.564h0.834c3.459,0,6.263,2.045,6.263,4.566s-2.804,4.566-6.263,4.566H33.353
			c-3.459,0-6.262,2.042-6.262,4.564c0,2.522,2.803,4.566,6.262,4.566h46.345h94.727c3.459,0,6.263-2.044,6.263-4.566
			c0-2.522-2.804-4.564-6.263-4.564h-10.703c-3.459,0-6.263-2.045-6.263-4.566s2.804-4.566,6.263-4.566h42.036
			c3.459,0,6.263-2.044,6.263-4.564c0-2.522-2.804-4.566-6.263-4.566h-3.138H89.022z"/>
		<path id="path-2_3_" style="fill:#0CB04A;" d="M199.297,163.364c-2.436,0-4.412-1.447-4.412-3.23c0-1.784,1.976-3.23,4.412-3.23
			h13.519c2.437,0,4.412,1.446,4.412,3.23c0,1.783-1.975,3.23-4.412,3.23H199.297z"/>
		<path id="path-3_3_" style="fill:#FBB713;" d="M177.274,98.125c0-24.445-36.805-44.261-82.206-44.261S12.863,73.68,12.863,98.125
			H177.274z"/>
		<path id="path-4_3_" style="opacity:0.25;enable-background:new    ;" d="M143.068,62.204c2.4,2.039,4.501,4.189,6.268,6.436
			c5.491,6.98,0.552,17.218-8.329,17.218H16.086c-2.084,3.897-3.223,8.008-3.223,12.267h164.412
			C177.275,83.329,163.779,70.24,143.068,62.204z"/>
		<path id="path-5_3_" style="fill:#142A3B;" d="M153.805,139.317H36.331L0,96.38h190.137L153.805,139.317z"/>
		<path id="path-6_3_" style="opacity:0.35;enable-background:new    ;" d="M162.537,96.38l-36.332,42.937h27.6l36.332-42.937
			H162.537z"/>
		<path id="path-7_3_" style="fill:#142A3B;" d="M91.665,88.348c-2.002,0-3.621-1.621-3.621-3.621V70.62
			c0-2.001,1.619-3.621,3.621-3.621c2,0,3.62,1.62,3.62,3.621v14.107C95.285,86.727,93.665,88.348,91.665,88.348z"/>
		<path id="path-8_3_" style="fill:#142A3B;" d="M132.921,86.282c-0.933,0-1.867-0.359-2.577-1.077l-9.85-9.975
			c-1.403-1.423-1.39-3.716,0.035-5.12c1.421-1.404,3.709-1.393,5.12,0.032l9.85,9.976c1.404,1.422,1.39,3.716-0.036,5.119
			C134.76,85.933,133.84,86.282,132.921,86.282z"/>
		<path id="path-9_2_" style="fill:#142A3B;" d="M50.407,86.282c-0.919,0-1.839-0.349-2.542-1.045
			c-1.425-1.403-1.439-3.697-0.035-5.119l9.849-9.976c1.412-1.425,3.702-1.436,5.12-0.032c1.426,1.404,1.44,3.697,0.036,5.12
			l-9.85,9.975C52.274,85.923,51.341,86.282,50.407,86.282z"/>
		<path id="path-10_2_" style="fill:#FFFFFF;" d="M40.281,77.972c-0.979,0-1.958-0.395-2.669-1.174
			c-1.351-1.473-1.256-3.756,0.215-5.109c0.403-0.37,10.031-9.111,24.788-12.987c1.934-0.511,3.915,0.647,4.42,2.582
			c0.509,1.934-0.647,3.912-2.581,4.421c-12.951,3.401-21.645,11.241-21.73,11.319C42.028,77.659,41.155,77.972,40.281,77.972z"/>
	</g>
</g>
<g>
</g>
<g>
</g>
<g>
</g>
<g>
</g>
<g>
</g>
<g>
</g>
<g>
</g>
<g>
</g>
<g>
</g>
<g>
</g>
<g>
</g>
<g>
</g>
<g>
</g>
<g>
</g>
<g>
</g>
</svg>
