<?xml version="1.0" encoding="iso-8859-1"?>
<!-- Generator: Adobe Illustrator 19.1.0, SVG Export Plug-In . SVG Version: 6.00 Build 0)  -->
<svg version="1.1" id="Capa_1" xmlns="http://www.w3.org/2000/svg" xmlns:xlink="http://www.w3.org/1999/xlink" x="0px" y="0px"
	 viewBox="0 0 217.229 217.229" style="enable-background:new 0 0 217.229 217.229;" xml:space="preserve">
<g>
	<g id="group-154svg">
		<path id="path-1_61_" style="fill:#0CB04A;" d="M113.601,192.54h-6.684c-1.289,0-2.334,0.792-2.334,1.767
			c0,0.975,1.045,1.766,2.334,1.766h0.311c1.289,0,2.334,0.791,2.334,1.767c0,0.975-1.045,1.765-2.334,1.765h-14.37
			c-1.288,0-2.333,0.791-2.333,1.767c0,0.975,1.045,1.765,2.333,1.765h17.269h35.297c1.289,0,2.334-0.79,2.334-1.765
			c0-0.976-1.045-1.767-2.334-1.767h-3.988c-1.289,0-2.334-0.79-2.334-1.765c0-0.976,1.045-1.767,2.334-1.767h15.663
			c1.289,0,2.334-0.791,2.334-1.766c0-0.975-1.045-1.767-2.334-1.767h-1.169H113.601z"/>
		<path id="path-2_61_" style="fill:#0CB04A;" d="M155.058,203.611c-1.08,0-1.956-0.847-1.956-1.892
			c0-1.046,0.876-1.894,1.956-1.894h5.995c1.081,0,1.957,0.848,1.957,1.894c0,1.045-0.876,1.892-1.957,1.892H155.058z"/>
		<path id="path-3_61_" style="fill:#0CB04A;" d="M29.602,192.414h-8.575c-1.653,0-2.994,1.599-2.994,3.571
			c0,1.974,1.341,3.575,2.994,3.575h0.4c1.652,0,2.993,1.6,2.993,3.573c0,1.973-1.341,3.573-2.993,3.573H2.994
			c-1.653,0-2.994,1.6-2.994,3.573c0,1.973,1.341,3.573,2.994,3.573h22.151h45.276c1.654,0,2.994-1.6,2.994-3.573
			c0-1.973-1.34-3.573-2.994-3.573h-5.115c-1.654,0-2.994-1.6-2.994-3.573c0-1.973,1.34-3.573,2.994-3.573h20.092
			c1.653,0,2.993-1.601,2.993-3.575c0-1.972-1.34-3.571-2.993-3.571h-1.5H29.602z"/>
		<path id="path-4_61_" style="fill:#0CB04A;" d="M82.78,214.81c-1.386,0-2.51-1.715-2.51-3.829c0-2.115,1.124-3.83,2.51-3.83h7.69
			c1.386,0,2.51,1.715,2.51,3.83c0,2.114-1.124,3.829-2.51,3.829H82.78z"/>
		<path id="path-5_60_" style="fill:#FBB713;" d="M134.53,16.61c18.923-18.921,49.592-18.921,68.507,0
			c18.922,18.915,18.922,49.583,0,68.505l-74.526,74.523c-18.914,18.915-49.591,18.915-68.506,0
			c-18.915-18.922-18.915-49.59,0-68.505L134.53,16.61z"/>
		<path id="path-6_58_" style="fill:#EDEDED;" d="M137.657,30.767c-0.926,0-1.852-0.353-2.56-1.059c-1.414-1.416-1.414-3.706,0-5.12
			c8.01-8.01,18.658-12.422,29.984-12.422c11.325,0,21.972,4.412,29.979,12.422c1.414,1.414,1.414,3.707,0,5.12
			c-1.415,1.414-3.706,1.414-5.12,0c-6.64-6.642-15.468-10.302-24.859-10.302c-9.39,0-18.221,3.66-24.864,10.302
			C139.51,30.414,138.583,30.767,137.657,30.767z"/>
		<path id="path-7_57_" style="fill:#FF3A2F;" d="M162.062,126.089l-33.551,33.549c-18.914,18.915-49.591,18.915-68.506,0
			c-18.915-18.922-18.915-49.59,0-68.505l27.254-27.252l10.73-9.296l67.072,67.072L162.062,126.089z"/>
		<path id="path-8_43_" style="opacity:0.25;enable-background:new    ;" d="M213.305,31.824
			c1.17,13.735-3.481,27.873-13.994,38.387l-74.526,74.523c-18.915,18.914-49.591,18.914-68.507,0
			c-4.504-4.508-7.902-9.693-10.262-15.214c0.936,10.983,5.585,21.712,13.989,30.118c18.915,18.915,49.592,18.915,68.506,0
			l74.526-74.523C217.451,70.701,220.851,49.483,213.305,31.824z"/>
	</g>
</g>
<g>
</g>
<g>
</g>
<g>
</g>
<g>
</g>
<g>
</g>
<g>
</g>
<g>
</g>
<g>
</g>
<g>
</g>
<g>
</g>
<g>
</g>
<g>
</g>
<g>
</g>
<g>
</g>
<g>
</g>
</svg>
