<?xml version="1.0" encoding="iso-8859-1"?>
<!-- Generator: Adobe Illustrator 19.1.0, SVG Export Plug-In . SVG Version: 6.00 Build 0)  -->
<svg version="1.1" id="Capa_1" xmlns="http://www.w3.org/2000/svg" xmlns:xlink="http://www.w3.org/1999/xlink" x="0px" y="0px"
	 viewBox="0 0 218.395 218.395" style="enable-background:new 0 0 218.395 218.395;" xml:space="preserve">
<g>
	<g id="group-114svg">
		<path id="path-1_17_" style="fill:#FF3A2F;" d="M74.773,199.539h15.224c2.935,0,5.314,1.059,5.314,2.365
			c0,1.305-2.379,2.364-5.314,2.364h-0.708c-2.937,0-5.316,1.057-5.316,2.363s2.379,2.364,5.316,2.364h32.726
			c2.936,0,5.315,1.059,5.315,2.365c0,1.305-2.379,2.363-5.315,2.363h-39.33H39.458c-2.934,0-5.314-1.058-5.314-2.363
			c0-1.306,2.38-2.365,5.314-2.365h9.083c2.936,0,5.315-1.058,5.315-2.364s-2.379-2.363-5.315-2.363H5.315
			c-2.936,0-5.315-1.059-5.315-2.364c0-1.306,2.379-2.365,5.315-2.365h10.216H74.773z"/>
		<path id="path-2_17_" style="fill:#FF3A2F;" d="M168.999,215.768c3.352,0,6.068-1.208,6.068-2.697c0-1.492-2.716-2.7-6.068-2.7
			h-18.596c-3.351,0-6.068,1.208-6.068,2.7c0,1.489,2.717,2.697,6.068,2.697H168.999z"/>
		<path id="path-3_17_" style="fill:#FF3A2F;" d="M183.396,178.303h6.99c1.348,0,2.44,0.601,2.44,1.342
			c0,0.74-1.092,1.341-2.44,1.341h-0.325c-1.348,0-2.441,0.6-2.441,1.34c0,0.742,1.093,1.342,2.441,1.342h15.027
			c1.348,0,2.441,0.6,2.441,1.34c0,0.74-1.093,1.341-2.441,1.341h-18.059h-36.913c-1.347,0-2.44-0.601-2.44-1.341
			c0-0.74,1.093-1.34,2.44-1.34h4.171c1.348,0,2.441-0.6,2.441-1.342c0-0.74-1.093-1.34-2.441-1.34h-19.85
			c-1.347,0-2.44-0.601-2.44-1.341c0-0.741,1.093-1.342,2.44-1.342h4.692H183.396z"/>
		<path id="path-4_17_" style="fill:#FF3A2F;" d="M130.379,187.8c2.514,0,4.553-0.496,4.553-1.11c0-0.612-2.039-1.11-4.553-1.11
			h-13.952c-2.516,0-4.554,0.498-4.554,1.11c0,0.614,2.038,1.11,4.554,1.11H130.379z"/>
		<path id="path-5_17_" style="fill:#FBB713;" d="M100.239,162.031c35.312,21.223,64.895,5.886,94.475-29.002
			c29.688-35.011,32.324-79.816,2.566-109.295c-24.242-24.016-58.711-27.201-89.797-11.275L64.218,49.075
			c-17.743,22.139-22.367,44.865-6.523,70.8L100.239,162.031z"/>
		<path id="path-6_17_" style="opacity:0.35;fill:#020403;enable-background:new    ;" d="M115.64,60.519
			c-10.96,10.857-28.732,10.857-39.692,0c-10.961-10.859-10.961-28.464,0-39.322c10.96-10.859,28.732-10.859,39.692,0
			C126.601,32.055,126.601,49.66,115.64,60.519z"/>
		<path id="path-7_17_" style="fill:#EDEDED;" d="M105.115,50.093c-10.96,10.857-28.732,10.857-39.693,0
			c-10.96-10.861-10.96-28.465,0-39.323c10.961-10.858,28.733-10.858,39.693,0C116.076,21.628,116.076,39.232,105.115,50.093z"/>
		<path id="path-8_17_" style="opacity:0.25;fill:#020403;enable-background:new    ;" d="M105.116,10.77
			c-2.917-2.89-6.322-4.984-9.946-6.336c10.35,10.898,10.174,28.032-0.58,38.685c-8.045,7.97-19.751,10.066-29.748,6.337
			c0.199,0.209,0.374,0.432,0.58,0.635c10.961,10.859,28.733,10.859,39.694,0C116.076,39.232,116.076,21.628,105.116,10.77z"/>
		<path id="path-9_16_" style="fill:#4F4F6F;" d="M70.982,35.046c-1.891,0-3.489-1.451-3.626-3.349
			c-0.369-5.152,1.531-10.197,5.215-13.846c3.099-3.068,7.21-4.908,11.581-5.175c2.008-0.14,3.731,1.388,3.856,3.373
			c0.124,1.988-1.4,3.698-3.408,3.822c-2.594,0.16-5.039,1.253-6.883,3.079c-2.19,2.17-3.319,5.171-3.103,8.235
			c0.146,1.986-1.364,3.709-3.37,3.852C71.157,35.043,71.07,35.046,70.982,35.046z"/>
		<path id="path-10_14_" style="fill:#142A3B;" d="M47.424,80.535c-2.294,12.612,0.232,25.749,8.838,39.836
			c5.367,8.784,3.09,20.191-5.126,26.453l-33.568,25.579c-4.781,3.642-5.238,10.621-0.973,14.847l14.693,14.556
			c4.266,4.226,11.309,3.773,14.987-0.964l25.815-33.245c6.324-8.145,17.849-10.399,26.717-5.069
			c14.253,8.566,27.564,11.089,40.327,8.86L47.424,80.535z"/>
		<path id="path-11_13_" style="opacity:0.35;fill:#020403;enable-background:new    ;" d="M193.281,112.652
			c-29.58,34.886-59.162,50.223-94.474,29.002c-8.868-5.329-20.393-3.075-26.717,5.07l-25.815,33.244
			c-3.678,4.736-10.721,5.189-14.987,0.964l-10.83-10.731l-2.89,2.203c-4.781,3.643-5.238,10.62-0.973,14.846l14.693,14.557
			c4.266,4.225,11.309,3.771,14.987-0.965l25.815-33.245c6.324-8.144,17.849-10.399,26.717-5.069
			c35.312,21.223,66.327,5.387,95.907-29.499c18.159-21.416,26.264-45.988,22.959-68.983
			C215.336,80.727,206.049,97.593,193.281,112.652z"/>
		<path id="path-12_13_" style="opacity:0.35;fill:#020403;enable-background:new    ;" d="M56.233,101.218
			c-4.35-7.121-7.105-13.992-8.522-20.683c-2.853,13.115,0.534,26.779,9.49,41.477C60.99,115.768,60.234,107.766,56.233,101.218z"/>
	</g>
</g>
<g>
</g>
<g>
</g>
<g>
</g>
<g>
</g>
<g>
</g>
<g>
</g>
<g>
</g>
<g>
</g>
<g>
</g>
<g>
</g>
<g>
</g>
<g>
</g>
<g>
</g>
<g>
</g>
<g>
</g>
</svg>
