<?xml version="1.0" encoding="iso-8859-1"?>
<!-- Generator: Adobe Illustrator 19.1.0, SVG Export Plug-In . SVG Version: 6.00 Build 0)  -->
<svg version="1.1" id="Capa_1" xmlns="http://www.w3.org/2000/svg" xmlns:xlink="http://www.w3.org/1999/xlink" x="0px" y="0px"
	 viewBox="0 0 216.291 216.291" style="enable-background:new 0 0 216.291 216.291;" xml:space="preserve">
<g>
	<g id="group-162svg">
		<path id="path-1_70_" style="fill:#FBB713;" d="M93.052,0c24.909,7.556,49.708,21.578,71.104,41.635
			c21.391,20.048,36.345,43.284,44.408,66.626L7.98,188.022L93.052,0z"/>
		<path id="path-2_70_" style="opacity:0.25;fill:#010101;enable-background:new    ;" d="M164.156,41.635
			c-7.368-6.908-15.162-13.046-23.203-18.504c0.412,0.377,0.841,0.723,1.251,1.106c21.392,20.048,49.516,56.333,57.581,79.675
			L18.055,165.756L7.98,188.023l200.584-79.762C200.502,84.919,185.548,61.682,164.156,41.635z"/>
		<path id="path-3_70_" style="opacity:0.35;fill:#142A3B;enable-background:new    ;" d="M176.73,108.939
			c-1.389,0-2.719-0.792-3.322-2.129c-7.004-15.443-18.092-30.529-32.064-43.624c-13.984-13.103-30.095-23.506-46.588-30.083
			c-1.866-0.743-2.768-2.843-2.018-4.69c0.753-1.85,2.889-2.738,4.733-1.999c17.335,6.912,34.235,17.816,48.876,31.534
			c14.655,13.738,26.311,29.613,33.699,45.909c0.824,1.815,0.003,3.948-1.827,4.764C177.732,108.837,177.228,108.939,176.73,108.939
			z"/>
		<path id="path-4_70_" style="opacity:0.35;fill:#010101;enable-background:new    ;" d="M114.785,76.832
			c0,7.813-6.394,14.147-14.281,14.147s-14.281-6.334-14.281-14.147c0-7.814,6.394-14.147,14.281-14.147
			S114.785,69.018,114.785,76.832z"/>
		<path id="path-5_70_" style="opacity:0.35;fill:#010101;enable-background:new    ;" d="M84.677,131.599
			c0,7.815-6.395,14.148-14.282,14.148s-14.281-6.333-14.281-14.148c0-7.812,6.394-14.147,14.281-14.147
			S84.677,123.787,84.677,131.599z"/>
		<path id="path-6_69_" style="fill:#FF3A2F;" d="M110.395,81.181c0,7.813-6.393,14.148-14.281,14.148s-14.281-6.335-14.281-14.148
			s6.393-14.147,14.281-14.147S110.395,73.368,110.395,81.181z"/>
		<path id="path-7_69_" style="fill:#FF3A2F;" d="M80.285,131.599c0,7.815-6.393,14.148-14.28,14.148
			c-7.887,0-14.281-6.333-14.281-14.148c0-7.812,6.394-14.147,14.281-14.147C73.892,117.452,80.285,123.787,80.285,131.599z"/>
		<path id="path-8_66_" style="fill:#FF3A2F;" d="M134.812,124.999c-6.799,2.409-10.55,9.4-9.105,16.211l26.037-10.354
			C148.271,125.312,141.265,122.711,134.812,124.999z"/>
		<path id="path-9_63_" style="fill:#FF3A2F;" d="M79.629,200.327h14.974c2.888,0,5.228,1.04,5.228,2.324
			c0,1.285-2.34,2.325-5.228,2.325h-0.697c-2.887,0-5.228,1.043-5.228,2.327c0,1.284,2.341,2.325,5.228,2.325h32.19
			c2.887,0,5.228,1.041,5.228,2.325c0,1.285-2.341,2.326-5.228,2.326H87.412H44.894c-2.888,0-5.228-1.041-5.228-2.326
			c0-1.284,2.34-2.325,5.228-2.325h8.933c2.887,0,5.228-1.041,5.228-2.325c0-1.284-2.341-2.327-5.228-2.327H11.309
			c-2.887,0-5.228-1.04-5.228-2.325c0-1.284,2.341-2.324,5.228-2.324h10.049H79.629z"/>
		<path id="path-10_58_" style="fill:#FF3A2F;" d="M172.311,216.291c3.297,0,5.97-1.189,5.97-2.655s-2.673-2.655-5.97-2.655H154.02
			c-3.297,0-5.969,1.189-5.969,2.655s2.672,2.655,5.969,2.655H172.311z"/>
		<path id="path-11_50_" style="fill:#FF3A2F;" d="M186.471,179.439h6.878c1.324,0,2.399,0.591,2.399,1.319
			c0,0.728-1.075,1.319-2.399,1.319h-0.321c-1.326,0-2.401,0.591-2.401,1.319c0,0.73,1.075,1.319,2.401,1.319h14.78
			c1.327,0,2.402,0.591,2.402,1.32s-1.075,1.318-2.402,1.318h-17.762h-36.309c-1.325,0-2.4-0.589-2.4-1.318s1.075-1.32,2.4-1.32
			h4.104c1.325,0,2.4-0.589,2.4-1.319c0-0.728-1.075-1.319-2.4-1.319h-19.525c-1.326,0-2.4-0.591-2.4-1.319
			c0-0.728,1.074-1.319,2.4-1.319h4.615H186.471z"/>
		<path id="path-12_41_" style="fill:#FF3A2F;" d="M134.325,188.781c2.473,0,4.478-0.489,4.478-1.093
			c0-0.602-2.005-1.091-4.478-1.091h-13.725c-2.473,0-4.478,0.489-4.478,1.091c0,0.604,2.005,1.093,4.478,1.093H134.325z"/>
		<path id="path-13_34_" style="fill:#FF3A2F;" d="M87.887,164.629v3.422c0,0.661-0.705,1.196-1.577,1.196
			c-0.87,0-1.575-0.535-1.575-1.196v-0.159c0-0.659-0.707-1.195-1.578-1.195c-0.871,0-1.577,0.536-1.577,1.195v7.358
			c0,0.661-0.705,1.196-1.576,1.196c-0.871,0-1.576-0.535-1.576-1.196v-8.844v-18.074c0-0.659,0.705-1.195,1.576-1.195
			c0.871,0,1.576,0.536,1.576,1.195v2.043c0,0.659,0.706,1.194,1.577,1.194c0.871,0,1.578-0.535,1.578-1.194v-9.72
			c0-0.66,0.705-1.196,1.575-1.196c0.872,0,1.577,0.536,1.577,1.196v2.297V164.629z"/>
	</g>
</g>
<g>
</g>
<g>
</g>
<g>
</g>
<g>
</g>
<g>
</g>
<g>
</g>
<g>
</g>
<g>
</g>
<g>
</g>
<g>
</g>
<g>
</g>
<g>
</g>
<g>
</g>
<g>
</g>
<g>
</g>
</svg>
