<?xml version="1.0" encoding="iso-8859-1"?>
<!-- Generator: Adobe Illustrator 19.1.0, SVG Export Plug-In . SVG Version: 6.00 Build 0)  -->
<svg version="1.1" id="Capa_1" xmlns="http://www.w3.org/2000/svg" xmlns:xlink="http://www.w3.org/1999/xlink" x="0px" y="0px"
	 viewBox="0 0 218.332 218.332" style="enable-background:new 0 0 218.332 218.332;" xml:space="preserve">
<g>
	<g id="group-148svg">
		<path id="path-1_54_" style="fill:#FF3A2F;" d="M66.145,179.591h-19.16c-3.694,0-6.689,1.699-6.689,3.794
			c0,2.096,2.995,3.794,6.689,3.794h0.892c3.694,0,6.689,1.699,6.689,3.795c0,2.095-2.995,3.794-6.689,3.794H6.688
			c-3.694,0-6.688,1.699-6.688,3.795c0,2.095,2.994,3.795,6.688,3.795h49.499h101.172c3.694,0,6.689-1.7,6.689-3.795
			c0-2.096-2.995-3.795-6.689-3.795h-11.431c-3.694,0-6.689-1.699-6.689-3.794c0-2.096,2.995-3.795,6.689-3.795h44.896
			c3.694,0,6.689-1.698,6.689-3.794c0-2.095-2.995-3.794-6.689-3.794h-3.351H66.145z"/>
		<path id="path-2_54_" style="fill:#FF3A2F;" d="M195.539,203.374c-3.097,0-5.608-1.821-5.608-4.067
			c0-2.246,2.511-4.067,5.608-4.067h17.185c3.097,0,5.608,1.821,5.608,4.067c0,2.246-2.511,4.067-5.608,4.067H195.539z"/>
		<path id="path-3_54_" style="fill:#2476FF;" d="M44.814,138.279v0.006l1.215,1.274c0.305,0.319,0.596,0.64,0.912,0.953h0.013
			l52.522,54.804l52.496-54.804l0,0c0.065-0.062,0.127-0.131,0.191-0.195l0.937-0.985l1.001-1.047v-0.006l0.038-0.045
			c12.629-13.635,19.585-31.285,19.585-49.702c0-40.567-33.317-73.574-74.26-73.574c-40.957,0-74.273,33.007-74.273,73.574
			c0,18.403,6.954,36.056,19.583,49.702L44.814,138.279z"/>
		<path id="path-4_54_" style="fill:#184EA7;" d="M110.228,133.973c21.383,0,38.726-17.174,38.726-38.365
			c0-21.184-17.343-38.364-38.726-38.364c-21.398,0-38.74,17.18-38.74,38.364C71.488,116.799,88.83,133.973,110.228,133.973z"/>
		<path id="path-5_54_" style="fill:#EDEDED;" d="M99.464,126.863c21.383,0,38.725-17.172,38.725-38.362
			c0-21.185-17.342-38.364-38.725-38.364c-21.398,0-38.74,17.179-38.74,38.364C60.724,109.691,78.066,126.863,99.464,126.863z"/>
	</g>
</g>
<g>
</g>
<g>
</g>
<g>
</g>
<g>
</g>
<g>
</g>
<g>
</g>
<g>
</g>
<g>
</g>
<g>
</g>
<g>
</g>
<g>
</g>
<g>
</g>
<g>
</g>
<g>
</g>
<g>
</g>
</svg>
