<?xml version="1.0" encoding="iso-8859-1"?>
<!-- Generator: Adobe Illustrator 19.1.0, SVG Export Plug-In . SVG Version: 6.00 Build 0)  -->
<svg version="1.1" id="Capa_1" xmlns="http://www.w3.org/2000/svg" xmlns:xlink="http://www.w3.org/1999/xlink" x="0px" y="0px"
	 viewBox="0 0 217.221 217.221" style="enable-background:new 0 0 217.221 217.221;" xml:space="preserve">
<g>
	<g id="group-81svg">
		<path id="path-1_140_" style="fill:#0CB04A;" d="M72.029,185.507h-19.15c-3.692,0-6.685,2.266-6.685,5.06
			c0,2.795,2.993,5.061,6.685,5.061h0.892c3.692,0,6.685,2.264,6.685,5.059c0,2.794-2.993,5.059-6.685,5.059H12.604
			c-3.692,0-6.685,2.266-6.685,5.061c0,2.794,2.993,5.059,6.685,5.059h49.472h101.116c3.693,0,6.686-2.265,6.686-5.059
			c0-2.795-2.993-5.061-6.686-5.061h-11.424c-3.692,0-6.685-2.265-6.685-5.059c0-2.795,2.993-5.059,6.685-5.059h44.872
			c3.692,0,6.685-2.266,6.685-5.061c0-2.794-2.993-5.06-6.685-5.06h-3.349H72.029z"/>
		<path id="path-2_140_" style="fill:#0CB04A;" d="M190.795,217.221c-3.096,0-5.605-2.429-5.605-5.422
			c0-2.995,2.509-5.422,5.605-5.422h17.175c3.096,0,5.605,2.427,5.605,5.422c0,2.993-2.509,5.422-5.605,5.422H190.795z"/>
		<path id="path-3_140_" style="fill:#0CB04A;" d="M43.802,169.823h5.462c1.053,0,1.907-0.937,1.907-2.091
			c0-1.155-0.854-2.091-1.907-2.091h-0.255c-1.052,0-1.906-0.936-1.906-2.09c0-1.155,0.854-2.091,1.906-2.091h11.742
			c1.053,0,1.906-0.937,1.906-2.091c0-1.156-0.853-2.091-1.906-2.091h-14.11H17.802c-1.053,0-1.907,0.935-1.907,2.091
			c0,1.154,0.854,2.091,1.907,2.091h3.258c1.054,0,1.907,0.936,1.907,2.091c0,1.154-0.853,2.09-1.907,2.09H5.553
			c-1.053,0-1.907,0.936-1.907,2.091c0,1.154,0.854,2.091,1.907,2.091h3.665H43.802z"/>
		<path id="path-4_140_" style="fill:#FBB713;" d="M49.597,52.63c9.451,9.451,54.313,20.088,54.313,20.088
			S93.271,27.857,83.821,18.407C74.37,8.956,31.188,0,31.188,0S40.146,43.18,49.597,52.63z"/>
		<path id="path-5_139_" style="fill:#FBB713;" d="M155.51,52.63c-9.451,9.451-54.313,20.088-54.313,20.088
			s10.638-44.861,20.089-54.311C130.738,8.956,173.919,0,173.919,0S164.962,43.18,155.51,52.63z"/>
		<path id="path-6_136_" style="fill:#FBB713;" d="M49.597,122.638c9.451,9.45,54.313,20.087,54.313,20.087
			S93.271,97.864,83.821,88.414c-9.45-9.45-52.632-18.408-52.632-18.408S40.146,113.188,49.597,122.638z"/>
		<path id="path-7_133_" style="opacity:0.25;enable-background:new    ;" d="M56.406,49.225C48.981,41.8,41.864,13.57,39.153,1.801
			C34.36,0.659,31.188,0,31.188,0s8.958,43.18,18.408,52.63c9.451,9.451,54.313,20.088,54.313,20.088s-0.499-2.103-1.374-5.486
			C89.141,63.675,63.316,56.136,56.406,49.225z"/>
		<path id="path-8_109_" style="opacity:0.25;enable-background:new    ;" d="M56.406,119.233
			c-7.425-7.424-14.542-35.657-17.254-47.425c-4.793-1.143-7.964-1.802-7.964-1.802s8.958,43.182,18.408,52.632
			c9.451,9.45,54.313,20.087,54.313,20.087s-0.499-2.103-1.374-5.487C89.141,133.683,63.316,126.141,56.406,119.233z"/>
		<path id="path-9_94_" style="fill:#FBB713;" d="M155.51,122.638c-9.451,9.45-54.313,20.087-54.313,20.087
			s10.638-44.861,20.089-54.311s52.632-18.408,52.632-18.408S164.962,113.188,155.51,122.638z"/>
		<path id="path-10_85_" style="opacity:0.25;enable-background:new    ;" d="M162.346,2.681
			c-2.85,12.232-9.802,39.297-17.05,46.544c-6.323,6.323-28.481,13.172-42.466,17.017c-1.033,3.952-1.633,6.476-1.633,6.476
			S146.06,62.081,155.51,52.63C164.962,43.18,173.919,0,173.919,0S169.103,1.001,162.346,2.681z"/>
		<path id="path-11_74_" style="opacity:0.25;enable-background:new    ;" d="M162.346,72.686
			c-2.85,12.234-9.802,39.299-17.05,46.547c-6.323,6.321-28.481,13.171-42.466,17.016c-1.033,3.951-1.633,6.476-1.633,6.476
			s44.862-10.637,54.313-20.087c9.451-9.45,18.408-52.632,18.408-52.632S169.103,71.008,162.346,72.686z"/>
		<path id="path-12_64_" style="fill:#FBB713;" d="M106.633,187.249h-6.292V15.437h6.292V187.249z"/>
	</g>
</g>
<g>
</g>
<g>
</g>
<g>
</g>
<g>
</g>
<g>
</g>
<g>
</g>
<g>
</g>
<g>
</g>
<g>
</g>
<g>
</g>
<g>
</g>
<g>
</g>
<g>
</g>
<g>
</g>
<g>
</g>
</svg>
