<?xml version="1.0" encoding="iso-8859-1"?>
<!-- Generator: Adobe Illustrator 19.1.0, SVG Export Plug-In . SVG Version: 6.00 Build 0)  -->
<svg version="1.1" id="Capa_1" xmlns="http://www.w3.org/2000/svg" xmlns:xlink="http://www.w3.org/1999/xlink" x="0px" y="0px"
	 viewBox="0 0 217.228 217.228" style="enable-background:new 0 0 217.228 217.228;" xml:space="preserve">
<g>
	<g id="group-16svg">
		<path id="path-1_67_" style="fill:#142A3B;" d="M54.724,183.437H38.873c-3.057,0-5.535,1.419-5.535,3.169s2.478,3.168,5.535,3.168
			h0.738c3.055,0,5.533,1.419,5.533,3.169s-2.478,3.17-5.533,3.17H5.534c-3.057,0-5.534,1.417-5.534,3.168
			c0,1.75,2.477,3.168,5.534,3.168h40.951h83.704c3.056,0,5.534-1.418,5.534-3.168c0-1.751-2.478-3.168-5.534-3.168h-9.457
			c-3.057,0-5.535-1.42-5.535-3.17s2.478-3.169,5.535-3.169h37.144c3.056,0,5.534-1.418,5.534-3.168s-2.478-3.169-5.534-3.169
			h-2.772H54.724z"/>
		<path id="path-2_67_" style="fill:#142A3B;" d="M152.082,203.298c-2.562,0-4.64-1.52-4.64-3.396c0-1.875,2.078-3.396,4.64-3.396
			H166.3c2.562,0,4.64,1.521,4.64,3.396c0,1.876-2.078,3.396-4.64,3.396H152.082z"/>
		<path id="path-3_67_" style="fill:#142A3B;" d="M46.192,112.731c-2.562,0-4.639-1.521-4.639-3.397
			c0-1.875,2.077-3.395,4.639-3.395H60.41c2.563,0,4.639,1.52,4.639,3.395c0,1.876-2.076,3.397-4.639,3.397H46.192z"/>
		<path id="path-4_67_" style="fill:#0CB04A;" d="M72.404,191.669c-0.621,0-1.25-0.159-1.815-0.476
			c-1.164-0.659-1.887-1.896-1.887-3.227V17.632c0-1.331,0.723-2.568,1.887-3.225c1.164-0.651,2.597-0.638,3.732,0.058
			l141.113,85.156c1.114,0.661,1.794,1.866,1.794,3.164c0,1.302-0.68,2.506-1.794,3.167L74.321,191.145
			C73.735,191.496,73.07,191.669,72.404,191.669z"/>
		<path id="path-5_66_" style="opacity:0.3;fill:#020403;enable-background:new    ;" d="M215.434,99.621L74.321,14.465
			c-0.624-0.383-1.338-0.539-2.048-0.512l120.539,72.741c1.115,0.662,1.794,1.866,1.794,3.164c0,1.302-0.679,2.506-1.794,3.168
			l-124.11,74.927v20.013c0,1.331,0.723,2.568,1.887,3.226c0.565,0.317,1.194,0.478,1.815,0.478c0.666,0,1.331-0.174,1.917-0.526
			l141.113-85.191c1.114-0.662,1.794-1.866,1.794-3.168C217.228,101.487,216.548,100.282,215.434,99.621z"/>
	</g>
</g>
<g>
</g>
<g>
</g>
<g>
</g>
<g>
</g>
<g>
</g>
<g>
</g>
<g>
</g>
<g>
</g>
<g>
</g>
<g>
</g>
<g>
</g>
<g>
</g>
<g>
</g>
<g>
</g>
<g>
</g>
</svg>
