<?xml version="1.0" encoding="iso-8859-1"?>
<!-- Generator: Adobe Illustrator 19.1.0, SVG Export Plug-In . SVG Version: 6.00 Build 0)  -->
<svg version="1.1" id="Capa_1" xmlns="http://www.w3.org/2000/svg" xmlns:xlink="http://www.w3.org/1999/xlink" x="0px" y="0px"
	 viewBox="0 0 218.332 218.332" style="enable-background:new 0 0 218.332 218.332;" xml:space="preserve">
<g>
	<g id="group-101svg">
		<path id="path-1_3_" style="fill:#FF3A2F;" d="M66.186,177.52H47.031c-3.695,0-6.688,1.698-6.688,3.794
			c0,2.095,2.993,3.792,6.688,3.792h0.891c3.693,0,6.687,1.699,6.687,3.794c0,2.096-2.994,3.794-6.687,3.794H6.745
			c-3.693,0-6.687,1.698-6.687,3.794c0,2.094,2.994,3.793,6.687,3.793h49.484h101.146c3.693,0,6.687-1.699,6.687-3.793
			c0-2.096-2.994-3.794-6.687-3.794h-11.427c-3.695,0-6.688-1.698-6.688-3.794c0-2.095,2.993-3.794,6.688-3.794h44.884
			c3.693,0,6.687-1.697,6.687-3.792c0-2.096-2.994-3.794-6.687-3.794h-3.351H66.186z"/>
		<path id="path-2_3_" style="fill:#FF3A2F;" d="M195.546,201.296c-3.097,0-5.607-1.82-5.607-4.065c0-2.244,2.51-4.065,5.607-4.065
			h17.18c3.097,0,5.606,1.821,5.606,4.065c0,2.245-2.509,4.065-5.606,4.065H195.546z"/>
		<path id="path-3_3_" style="fill:#FF3A2F;" d="M176.286,128.501c1.056,0,1.913-0.624,1.913-1.394c0-0.771-0.857-1.396-1.913-1.396
			h-5.862c-1.057,0-1.913,0.625-1.913,1.396c0,0.77,0.856,1.394,1.913,1.394H176.286z"/>
		<path id="path-4_3_" style="fill:#FF3A2F;" d="M203.697,118.922h2.558c0.493,0,0.892,0.517,0.892,1.155
			c0,0.639-0.399,1.157-0.892,1.157h-0.12c-0.493,0-0.892,0.518-0.892,1.155c0,0.639,0.399,1.156,0.892,1.156h5.498
			c0.493,0,0.894,0.517,0.894,1.157c0,0.638-0.401,1.155-0.894,1.155h-6.607h-13.504c-0.493,0-0.893-0.517-0.893-1.155
			c0-0.64,0.4-1.157,0.893-1.157h1.527c0.492,0,0.892-0.517,0.892-1.156c0-0.637-0.4-1.155-0.892-1.155h-7.263
			c-0.493,0-0.894-0.518-0.894-1.157c0-0.638,0.401-1.155,0.894-1.155h1.716H203.697z"/>
		<path id="path-5_3_" style="fill:#2476FF;" d="M118.839,181.906H14.908C6.674,181.906,0,175.232,0,166.999V80.424
			c0-8.234,6.674-14.908,14.908-14.908h103.931c8.233,0,14.908,6.674,14.908,14.908v86.576
			C133.747,175.232,127.072,181.906,118.839,181.906z"/>
		<path id="path-6_3_" style="opacity:0.35;fill:#020403;enable-background:new    ;" d="M108.575,168.932H28.728
			c-1.621,0-2.935-1.315-2.935-2.935v-35.124c0-1.621,1.314-2.936,2.935-2.936h79.847c1.621,0,2.934,1.315,2.934,2.936v35.124
			C111.509,167.617,110.196,168.932,108.575,168.932z"/>
		<path id="path-7_3_" style="fill:#FBB713;" d="M106.798,164.704H26.949c-1.62,0-2.934-1.314-2.934-2.935v-35.124
			c0-1.621,1.314-2.934,2.934-2.934h79.849c1.619,0,2.933,1.313,2.933,2.934v35.124
			C109.731,163.391,108.417,164.704,106.798,164.704z"/>
		<path id="path-8_3_" style="fill:#FF3A2F;" d="M113.057,65.98H20.69V38.164h92.367V65.98z"/>
		<path id="path-9_3_" style="opacity:0.35;fill:#020403;enable-background:new    ;" d="M93.988,78.195
			c10.177,0,18.427,12.4,18.427,22.481v79.882c0,0.463-0.102,0.896-0.137,1.349h3.042c10.177,0,18.427-4.619,18.427-14.701V83.77
			c0-10.081-4.664-18.254-14.841-18.254H18.427l0,0"/>
		<path id="path-10_3_" style="opacity:0.35;fill:#020403;enable-background:new    ;" d="M100.258,38.164v3.855
			c0,8.566-7.009,15.51-15.656,15.51H20.69v8.451h92.367V38.164H100.258z"/>
		<path id="path-11_3_" style="fill:#FBB713;" d="M198.719,51.441c0-19.001-11.921-34.405-26.205-34.405
			c-14.283,0-25.459,15.404-25.459,34.405c0,15.583,4.878,28.73,18.878,32.961v97.117h14.999V84.402
			C191.931,80.171,198.719,67.024,198.719,51.441z"/>
		<path id="path-12_3_" style="opacity:0.35;fill:#020403;enable-background:new    ;" d="M176.065,86.611v93.725h4.266V84.723
			C178.994,85.463,177.582,86.11,176.065,86.611z"/>
		<path id="path-13_3_" style="opacity:0.35;fill:#020403;enable-background:new    ;" d="M173.169,17.036
			c-6.662,0-12.624,3.38-17.11,8.884c3.75-2.944,8.118-4.658,12.843-4.658c14.284,0,25.486,15.405,25.486,34.406
			c0,9.637-2.472,18.328-7.375,24.569c7.719-6.13,11.642-16.7,11.642-28.796C198.655,32.44,187.452,17.036,173.169,17.036z"/>
		<path id="path-14_2_" style="fill:#FFFFFF;" d="M13.272,134.874c-2.012,0-3.64-1.614-3.64-3.605V88.477
			c0-1.991,1.628-3.605,3.64-3.605c2.011,0,3.638,1.614,3.638,3.605v42.793C16.91,133.26,15.283,134.874,13.272,134.874z"/>
		<path id="path-15_2_" style="fill:#142A3B;" d="M87.041,139.805H45.446c-2.012,0-3.639-1.614-3.639-3.605
			c0-1.99,1.627-3.604,3.639-3.604h41.595c2.011,0,3.638,1.614,3.638,3.604C90.679,138.191,89.052,139.805,87.041,139.805z"/>
		<path id="path-16_2_" style="fill:#142A3B;" d="M87.041,156.71H45.446c-2.012,0-3.639-1.614-3.639-3.606
			c0-1.989,1.627-3.603,3.639-3.603h41.595c2.011,0,3.638,1.614,3.638,3.603C90.679,155.096,89.052,156.71,87.041,156.71z"/>
		<path id="path-17_1_" style="fill:#FFFFFF;" d="M164.946,38.164c0,2.806-2.297,5.082-5.13,5.082c-2.833,0-5.13-2.276-5.13-5.082
			c0-2.808,2.297-5.081,5.13-5.081C162.649,33.083,164.946,35.356,164.946,38.164z"/>
	</g>
</g>
<g>
</g>
<g>
</g>
<g>
</g>
<g>
</g>
<g>
</g>
<g>
</g>
<g>
</g>
<g>
</g>
<g>
</g>
<g>
</g>
<g>
</g>
<g>
</g>
<g>
</g>
<g>
</g>
<g>
</g>
</svg>
