<?xml version="1.0" encoding="iso-8859-1"?>
<!-- Generator: Adobe Illustrator 19.1.0, SVG Export Plug-In . SVG Version: 6.00 Build 0)  -->
<svg version="1.1" id="Capa_1" xmlns="http://www.w3.org/2000/svg" xmlns:xlink="http://www.w3.org/1999/xlink" x="0px" y="0px"
	 viewBox="0 0 218.332 218.332" style="enable-background:new 0 0 218.332 218.332;" xml:space="preserve">
<g>
	<g id="group-31svg">
		<path id="path-1_93_" style="fill:#2476FF;" d="M165.141,178.072h15.407c2.971,0,5.379,1.511,5.379,3.375
			c0,1.865-2.408,3.376-5.379,3.376h-0.717c-2.971,0-5.379,1.511-5.379,3.376c0,1.865,2.408,3.376,5.379,3.376h33.122
			c2.971,0,5.379,1.513,5.379,3.377s-2.408,3.376-5.379,3.376h-39.804H129.4c-2.97,0-5.378-1.512-5.378-3.376
			s2.408-3.377,5.378-3.377h9.193c2.97,0,5.379-1.511,5.379-3.376c0-1.865-2.409-3.376-5.379-3.376H94.844
			c-2.971,0-5.379-1.511-5.379-3.376c0-1.864,2.408-3.375,5.379-3.375h10.34H165.141z"/>
		<path id="path-2_93_" style="fill:#2476FF;" d="M33.774,180.438c4.02,0,7.28-2.045,7.28-4.569c0-2.524-3.26-4.57-7.28-4.57H11.467
			c-4.02,0-7.279,2.046-7.279,4.57c0,2.524,3.259,4.569,7.279,4.569H33.774z"/>
		<path id="path-3_93_" style="fill:#142A3B;" d="M170.074,104.247c0,46.526-38.072,84.243-85.037,84.243S0,150.773,0,104.247
			s38.072-84.242,85.037-84.242S170.074,57.721,170.074,104.247z"/>
		<path id="path-4_92_" style="fill:#EDEDED;" d="M143.191,104.247c0,31.817-26.037,57.61-58.154,57.61
			c-32.118,0-58.154-25.793-58.154-57.61s26.036-57.61,58.154-57.61C117.154,46.637,143.191,72.43,143.191,104.247z"/>
		<path id="path-5_92_" style="fill:#FBB713;" d="M86.148,33.672c0,2.599-2.127,4.705-4.75,4.705c-2.624,0-4.749-2.106-4.749-4.705
			s2.125-4.705,4.749-4.705C84.021,28.967,86.148,31.073,86.148,33.672z"/>
		<path id="path-6_91_" style="fill:#FBB713;" d="M86.148,176.839c0,2.598-2.127,4.705-4.75,4.705c-2.624,0-4.749-2.107-4.749-4.705
			c0-2.598,2.125-4.705,4.749-4.705C84.021,172.133,86.148,174.241,86.148,176.839z"/>
		<path id="path-7_91_" style="fill:#FBB713;" d="M162.487,110.579c-2.907,0-5.263-2.334-5.263-5.214
			c0-2.881,2.356-5.215,5.263-5.215c2.908,0,5.265,2.334,5.265,5.215C167.752,108.245,165.395,110.579,162.487,110.579z"/>
		<circle id="circle-1_2_" style="fill:#FBB713;" cx="8.993" cy="105.01" r="5"/>
		<path id="path-8_88_" style="fill:#FBB713;" d="M135.308,165.155c-2.057-2.037-2.057-5.338,0-7.374
			c2.055-2.037,5.388-2.037,7.444,0c2.056,2.036,2.056,5.337,0,7.374S137.363,167.192,135.308,165.155z"/>
		<path id="path-9_84_" style="fill:#FBB713;" d="M26.945,57.965c-1.855-1.837-1.855-4.816,0-6.654c1.855-1.837,4.861-1.837,6.716,0
			c1.855,1.838,1.855,4.817,0,6.654C31.806,59.803,28.8,59.803,26.945,57.965z"/>
		<path id="path-10_77_" style="fill:#FBB713;" d="M142.752,52.949c-2.056,2.037-5.389,2.037-7.444,0
			c-2.057-2.036-2.057-5.339,0-7.375c2.055-2.036,5.388-2.036,7.444,0S144.808,50.913,142.752,52.949z"/>
		<path id="path-11_68_" style="fill:#FBB713;" d="M33.661,159.199c-1.855,1.838-4.861,1.838-6.716,0
			c-1.855-1.837-1.855-4.817,0-6.654c1.855-1.836,4.861-1.836,6.716,0C35.516,154.382,35.516,157.362,33.661,159.199z"/>
		<path id="path-12_58_" style="fill:#2476FF;" d="M30.873,99.416l12.185-11.55c2.279-2.16,5.857-2.204,8.19-0.1l10.015,9.035
			c2.268,2.047,5.729,2.069,8.024,0.051l10.474-9.208c2.327-2.045,5.847-1.989,8.107,0.129l9.709,9.099
			c2.162,2.026,5.496,2.177,7.835,0.354l13.015-10.145c2.27-1.77,5.49-1.686,7.664,0.199l13.992,12.136l3.108,4.831
			c0,31.817-26.037,57.61-58.154,57.61c-32.118,0-58.154-25.793-58.154-57.61L30.873,99.416z"/>
		<path id="path-13_47_" style="opacity:0.25;enable-background:new    ;" d="M57.942,154.896
			c-10.041-10.354-16.245-24.387-16.245-39.878c0-31.817,26.037-57.611,58.154-57.611c9.685,0,18.797,2.38,26.829,6.528
			c-10.582-10.911-25.429-17.732-41.909-17.732c-32.118,0-58.154,25.793-58.154,57.61C26.617,126.037,39.339,145.286,57.942,154.896
			z"/>
	</g>
</g>
<g>
</g>
<g>
</g>
<g>
</g>
<g>
</g>
<g>
</g>
<g>
</g>
<g>
</g>
<g>
</g>
<g>
</g>
<g>
</g>
<g>
</g>
<g>
</g>
<g>
</g>
<g>
</g>
<g>
</g>
</svg>
