<?xml version="1.0" encoding="iso-8859-1"?>
<!-- Generator: Adobe Illustrator 19.1.0, SVG Export Plug-In . SVG Version: 6.00 Build 0)  -->
<svg version="1.1" id="Capa_1" xmlns="http://www.w3.org/2000/svg" xmlns:xlink="http://www.w3.org/1999/xlink" x="0px" y="0px"
	 viewBox="0 0 218.332 218.332" style="enable-background:new 0 0 218.332 218.332;" xml:space="preserve">
<g>
	<g id="group-56svg">
		<path id="path-1_120_" style="fill:#FF3A2F;" d="M153.869,60.483v88.559c0,13.331-10.763,22.181-24.217,22.181h-81.3
			c-13.454,0-26.404-8.85-26.404-22.181V60.483H153.869z"/>
		<path id="path-2_120_" style="opacity:0.25;fill:#020403;enable-background:new    ;" d="M21.947,67.745v7.262l117.264,10.891
			v77.668c0,2.242-0.328,4.344-0.899,6.312c9.123-2.936,15.557-10.54,15.557-20.836V67.745H21.947z"/>
		<path id="path-3_120_" style="fill:#142A3B;" d="M166.695,71.337H5.459C2.443,71.337,0,68.916,0,65.93
			c0-2.987,2.443-5.407,5.459-5.407h161.236c3.015,0,5.459,2.42,5.459,5.407C172.154,68.916,169.71,71.337,166.695,71.337z"/>
		<path id="path-4_119_" style="fill:#FF3A2F;" d="M153.869,60.483c0,0-3.24-23.599-15.383-23.599H43.21
			c-12.143,0-21.262,8.508-21.262,20.539v3.06H153.869z"/>
		<path id="path-5_119_" style="opacity:0.25;fill:#020403;enable-background:new    ;" d="M120.164,40.514
			c9.135,0,13.229,13.354,14.699,19.969h19.006c0,0-3.24-23.599-15.383-23.599H43.21c-4.756,0-9.035,1.319-12.497,3.63H120.164z"/>
		<path id="path-6_118_" style="fill:#142A3B;" d="M111.727,36.858H64.089c-2.009,0-3.639-1.614-3.639-3.605s1.63-3.605,3.639-3.605
			h47.638c2.009,0,3.639,1.614,3.639,3.605S113.736,36.858,111.727,36.858z"/>
		<path id="path-7_118_" style="fill:#FFFFFF;" d="M59.345,163.935c-14.767,0-30.042-9.644-30.042-25.786v-23.204
			c0-1.99,1.629-3.605,3.639-3.605c2.009,0,3.639,1.615,3.639,3.605v23.204c0,11.474,11.815,18.576,22.764,18.576
			c2.01,0,3.639,1.615,3.639,3.606S61.355,163.935,59.345,163.935z"/>
		<path id="path-8_115_" style="opacity:0.35;fill:#020403;enable-background:new    ;" d="M56.633,91.322V95.9
			c0,0.883-0.728,1.6-1.624,1.6c-0.898,0-1.625-0.717-1.625-1.6v-0.212c0-0.884-0.727-1.599-1.624-1.599s-1.625,0.715-1.625,1.599
			v9.844c0,0.883-0.727,1.598-1.624,1.598c-0.898,0-1.625-0.715-1.625-1.598v-11.83V80.699c0-0.883,0.727-1.599,1.625-1.599
			c0.897,0,1.624,0.716,1.624,1.599v2.732c0,0.883,0.728,1.598,1.625,1.598s1.624-0.715,1.624-1.598V70.428
			c0-0.883,0.727-1.599,1.625-1.599c0.896,0,1.624,0.716,1.624,1.599V73.5V91.322z"/>
		<path id="path-9_109_" style="opacity:0.35;fill:#020403;enable-background:new    ;" d="M93.278,134.89v4.581
			c0,0.882-0.727,1.598-1.625,1.598c-0.897,0-1.624-0.716-1.624-1.598v-0.213c0-0.883-0.728-1.599-1.625-1.599
			c-0.897,0-1.624,0.716-1.624,1.599v9.844c0,0.883-0.728,1.598-1.625,1.598c-0.897,0-1.624-0.715-1.624-1.598v-11.831v-13.003
			c0-0.883,0.727-1.598,1.624-1.598c0.897,0,1.625,0.715,1.625,1.598v2.733c0,0.882,0.727,1.598,1.624,1.598
			c0.897,0,1.625-0.716,1.625-1.598v-13.004c0-0.882,0.727-1.598,1.624-1.598c0.898,0,1.625,0.716,1.625,1.598v3.074V134.89z"/>
		<path id="path-10_101_" style="fill:#FBB713;" d="M156.041,179.027h14.042c2.707,0,4.903,0.721,4.903,1.61
			c0,0.889-2.196,1.609-4.903,1.609h-0.653c-2.708,0-4.903,0.721-4.903,1.609c0,0.89,2.195,1.61,4.903,1.61h30.186
			c2.707,0,4.902,0.721,4.902,1.611c0,0.888-2.195,1.608-4.902,1.608H163.34h-39.872c-2.708,0-4.902-0.72-4.902-1.608
			c0-0.89,2.194-1.611,4.902-1.611h8.378c2.707,0,4.902-0.72,4.902-1.61c0-0.888-2.195-1.609-4.902-1.609H91.974
			c-2.707,0-4.902-0.72-4.902-1.609c0-0.889,2.195-1.61,4.902-1.61h9.424H156.041z"/>
		<path id="path-11_89_" style="fill:#FBB713;" d="M67.6,180.769c3.105,0,5.622-1.221,5.622-2.728c0-1.508-2.517-2.731-5.622-2.731
			H50.372c-3.105,0-5.622,1.223-5.622,2.731c0,1.507,2.517,2.728,5.622,2.728H67.6z"/>
		<path id="path-12_77_" style="fill:#FBB713;" d="M202.376,153.763h4.622c0.891,0,1.613,0.72,1.613,1.609
			c0,0.889-0.722,1.609-1.613,1.609h-0.215c-0.891,0-1.614,0.721-1.614,1.609c0,0.889,0.723,1.611,1.614,1.611h9.935
			c0.892,0,1.614,0.72,1.614,1.608c0,0.89-0.722,1.61-1.614,1.61h-11.94h-13.123c-0.891,0-1.614-0.72-1.614-1.61
			c0-0.888,0.723-1.608,1.614-1.608h2.757c0.891,0,1.613-0.722,1.613-1.611c0-0.888-0.722-1.609-1.613-1.609h-13.123
			c-0.892,0-1.614-0.72-1.614-1.609c0-0.889,0.722-1.609,1.614-1.609h3.101H202.376z"/>
		<path id="path-13_65_" style="fill:#FBB713;" d="M52.969,87.691v4.579c0,0.882-0.728,1.599-1.625,1.599s-1.624-0.717-1.624-1.599
			v-0.213c0-0.883-0.728-1.599-1.625-1.599s-1.624,0.716-1.624,1.599v9.844c0,0.883-0.728,1.599-1.625,1.599
			s-1.624-0.716-1.624-1.599v-11.83V77.067c0-0.881,0.727-1.598,1.624-1.598s1.625,0.717,1.625,1.598V79.8
			c0,0.883,0.727,1.598,1.624,1.598s1.625-0.715,1.625-1.598V66.797c0-0.883,0.727-1.598,1.624-1.598s1.625,0.715,1.625,1.598v3.073
			V87.691z"/>
		<path id="path-14_53_" style="fill:#FBB713;" d="M89.613,127.629v4.58c0,0.883-0.727,1.598-1.624,1.598
			c-0.897,0-1.625-0.715-1.625-1.598v-0.213c0-0.884-0.727-1.599-1.624-1.599c-0.898,0-1.625,0.715-1.625,1.599v9.844
			c0,0.883-0.727,1.599-1.624,1.599c-0.897,0-1.625-0.716-1.625-1.599v-11.831v-13.003c0-0.882,0.728-1.598,1.625-1.598
			c0.897,0,1.624,0.716,1.624,1.598v2.733c0,0.883,0.727,1.599,1.625,1.599c0.897,0,1.624-0.716,1.624-1.599v-13.003
			c0-0.883,0.728-1.598,1.625-1.598c0.897,0,1.624,0.715,1.624,1.598v3.073V127.629z"/>
	</g>
</g>
<g>
</g>
<g>
</g>
<g>
</g>
<g>
</g>
<g>
</g>
<g>
</g>
<g>
</g>
<g>
</g>
<g>
</g>
<g>
</g>
<g>
</g>
<g>
</g>
<g>
</g>
<g>
</g>
<g>
</g>
</svg>
