<?xml version="1.0" encoding="iso-8859-1"?>
<!-- Generator: Adobe Illustrator 19.1.0, SVG Export Plug-In . SVG Version: 6.00 Build 0)  -->
<svg version="1.1" id="Capa_1" xmlns="http://www.w3.org/2000/svg" xmlns:xlink="http://www.w3.org/1999/xlink" x="0px" y="0px"
	 viewBox="0 0 218.583 218.583" style="enable-background:new 0 0 218.583 218.583;" xml:space="preserve">
<g>
	<g id="group-106svg">
		<path id="path-1_8_" style="fill:#142A3B;" d="M169.246,117.784H53.253V3.788h115.993V117.784z"/>
		<path id="path-2_8_" style="opacity:0.35;fill:#020403;enable-background:new    ;" d="M151.667,2.981v69.272
			c0,14.64-11.981,26.511-26.761,26.511l-71.892,6.842v13.682l116.444-0.28V2.703L151.667,2.981z"/>
		<path id="path-3_8_" style="fill:#FBB713;" d="M140.363,60.856c0-16.147-13.214-29.234-29.51-29.234
			c-16.297,0-29.51,13.087-29.51,29.234c0,16.148,13.213,29.234,29.51,29.234C127.149,90.09,140.363,77.004,140.363,60.856z"/>
		<path id="path-4_8_" style="fill:#FFFFFF;" d="M113.87,83.864c-2.012,0-3.639-1.614-3.639-3.605c0-1.99,1.627-3.604,3.639-3.604
			c7.132,0,12.931-5.747,12.931-12.811c0-1.99,1.627-3.605,3.639-3.605c2.011,0,3.638,1.615,3.638,3.605
			C134.078,74.884,125.013,83.864,113.87,83.864z"/>
		<path id="path-5_8_" style="opacity:0.35;fill:#020403;enable-background:new    ;" d="M84.796,67.21
			c0-16.148,13.213-29.235,29.51-29.235c10.139,0,19.081,5.07,24.393,12.787c-4.016-11.421-14.951-19.629-27.846-19.629
			c-16.297,0-29.511,13.087-29.511,29.235c0,6.1,1.892,11.761,5.117,16.447C85.4,73.802,84.796,70.579,84.796,67.21z"/>
		<path id="path-6_8_" style="fill:#142A3B;" d="M213.125,125.784H9.348c-3.013,0-5.458-2.514-5.458-5.5s2.445-5.5,5.458-5.5
			h203.777c3.013,0,5.458,2.514,5.458,5.5S216.138,125.784,213.125,125.784z"/>
		<path id="path-7_8_" style="fill:#142A3B;" d="M111.249,215.669c-2.011,0-2.999-1.615-2.999-3.606v-90.122
			c0-1.99,0.988-3.605,2.999-3.605c2.012,0,3,1.615,3,3.605v90.122C114.249,214.054,113.261,215.669,111.249,215.669z"/>
		<path id="path-8_8_" style="fill:#142A3B;" d="M59.862,175.782H34.82c-2.011,0-3.639-1.51-3.639-3.5c0-1.99,1.628-3.5,3.639-3.5
			h20.784l28.813-50.772c0.984-1.736,3.202-2.346,4.958-1.371c1.752,0.977,2.374,3.061,1.389,4.797L59.862,175.782z"/>
		<path id="path-9_7_" style="fill:#142A3B;" d="M187.653,175.782h-25.825l-30.51-54.361c-0.978-1.741-0.341-3.877,1.413-4.843
			c1.763-0.966,3.97-0.32,4.948,1.42l28.435,50.784h21.539c2.011,0,3.639,1.51,3.639,3.5
			C191.292,174.272,189.664,175.782,187.653,175.782z"/>
		<path id="path-10_6_" style="fill:#FBB713;" d="M74.822,199.639h15.233c2.938,0,5.318,1.059,5.318,2.366
			c0,1.307-2.38,2.366-5.318,2.366h-0.708c-2.938,0-5.32,1.058-5.32,2.365c0,1.306,2.382,2.365,5.32,2.365h32.747
			c2.937,0,5.318,1.059,5.318,2.365c0,1.307-2.381,2.366-5.318,2.366H82.739H39.485c-2.937,0-5.318-1.059-5.318-2.366
			c0-1.306,2.381-2.365,5.318-2.365h9.088c2.937,0,5.319-1.059,5.319-2.365c0-1.307-2.382-2.365-5.319-2.365H5.319
			c-2.937,0-5.319-1.059-5.319-2.366c0-1.307,2.382-2.366,5.319-2.366h10.223H74.822z"/>
		<path id="path-11_6_" style="fill:#FBB713;" d="M169.108,215.88c3.354,0,6.072-1.21,6.072-2.701c0-1.493-2.718-2.701-6.072-2.701
			h-18.609c-3.353,0-6.072,1.208-6.072,2.701c0,1.491,2.719,2.701,6.072,2.701H169.108z"/>
		<path id="path-12_6_" style="fill:#FBB713;" d="M183.513,178.39h6.996c1.348,0,2.441,0.6,2.441,1.341s-1.093,1.342-2.441,1.342
			h-0.327c-1.348,0-2.441,0.601-2.441,1.342c0,0.741,1.093,1.343,2.441,1.343h15.037c1.349,0,2.443,0.6,2.443,1.341
			c0,0.742-1.094,1.342-2.443,1.342h-18.07h-36.937c-1.348,0-2.441-0.6-2.441-1.342c0-0.741,1.093-1.341,2.441-1.341h4.174
			c1.349,0,2.442-0.602,2.442-1.343c0-0.741-1.093-1.342-2.442-1.342h-19.862c-1.348,0-2.442-0.601-2.442-1.342
			s1.094-1.341,2.442-1.341h4.695H183.513z"/>
		<path id="path-13_5_" style="fill:#FBB713;" d="M130.463,187.893c2.515,0,4.556-0.496,4.556-1.11s-2.041-1.111-4.556-1.111
			h-13.962c-2.515,0-4.555,0.497-4.555,1.111s2.04,1.11,4.555,1.11H130.463z"/>
	</g>
</g>
<g>
</g>
<g>
</g>
<g>
</g>
<g>
</g>
<g>
</g>
<g>
</g>
<g>
</g>
<g>
</g>
<g>
</g>
<g>
</g>
<g>
</g>
<g>
</g>
<g>
</g>
<g>
</g>
<g>
</g>
</svg>
