<?xml version="1.0" encoding="iso-8859-1"?>
<!-- Generator: Adobe Illustrator 19.1.0, SVG Export Plug-In . SVG Version: 6.00 Build 0)  -->
<svg version="1.1" id="Capa_1" xmlns="http://www.w3.org/2000/svg" xmlns:xlink="http://www.w3.org/1999/xlink" x="0px" y="0px"
	 viewBox="0 0 217.22 217.22" style="enable-background:new 0 0 217.22 217.22;" xml:space="preserve">
<g>
	<g id="group-112svg">
		<path id="path-1_15_" style="fill:#FF3A2F;" d="M58.911,189.885H42.406c-3.183,0-5.762,1.954-5.762,4.362
			c0,2.409,2.579,4.361,5.762,4.361h0.768c3.182,0,5.762,1.953,5.762,4.361c0,2.409-2.58,4.362-5.762,4.362H7.692
			c-3.182,0-5.762,1.952-5.762,4.361c0,2.407,2.58,4.361,5.762,4.361h42.64h87.156c3.183,0,5.763-1.954,5.763-4.361
			c0-2.409-2.58-4.361-5.763-4.361h-9.847c-3.182,0-5.762-1.953-5.762-4.362c0-2.408,2.58-4.361,5.762-4.361h38.676
			c3.182,0,5.763-1.952,5.763-4.361c0-2.408-2.581-4.362-5.763-4.362h-2.887H58.911z"/>
		<path id="path-2_15_" style="fill:#FF3A2F;" d="M161.278,217.22c-2.668,0-4.831-2.092-4.831-4.673
			c0-2.581,2.163-4.674,4.831-4.674h14.804c2.668,0,4.832,2.093,4.832,4.674c0,2.581-2.164,4.673-4.832,4.673H161.278z"/>
		<path id="path-3_15_" style="fill:#142A3B;" d="M173.002,193.415H112.03L127.721,55.33l28.48,14.162L173.002,193.415z
			 M120.141,185.416h44.573L149.539,73.814l-15.786-7.91L120.141,185.416z"/>
		<path id="path-4_15_" style="fill:#142A3B;" d="M166.575,191.081c-0.747,0-1.496-0.23-2.143-0.706l-47.091-34.664l33.885-42.483
			l-23.702-21.087c-1.493-1.33-1.627-3.617-0.298-5.111c1.33-1.497,3.624-1.625,5.113-0.298l28.83,25.647l-33.476,41.963
			l41.031,30.202c1.612,1.184,1.955,3.451,0.771,5.062C168.784,190.569,167.688,191.081,166.575,191.081z"/>
		<path id="path-5_15_" style="fill:#FF3A2F;" d="M180.872,86.824l-89.865-41.44l3.61-8.412l89.864,41.441L180.872,86.824z"/>
		<path id="path-6_15_" style="fill:#142A3B;" d="M77.79,196.692c-2.002,0-3.5-1.621-3.5-3.62V77.222c0-2,1.498-3.621,3.5-3.621
			c2,0,3.5,1.621,3.5,3.621v115.85C81.29,195.071,79.79,196.692,77.79,196.692z"/>
		<path id="path-7_15_" style="fill:#142A3B;" d="M80.333,82.659c-8.598-1.245-16.881-5.177-23.496-11.796
			c-16.293-16.303-16.293-42.739,0-59.044C63.495,5.156,71.845,1.217,80.504,0l18.667,41.33L80.333,82.659z"/>
		<path id="path-8_11_" style="opacity:0.35;enable-background:new    ;" d="M96.237,35.46L77.399,76.79
			c-8.598-1.245-16.882-5.177-23.496-11.797c-2.509-2.509-4.584-5.28-6.32-8.197c2.036,5.121,5.113,9.923,9.254,14.067
			c6.615,6.619,14.898,10.551,23.496,11.796L99.171,41.33L96.237,35.46z"/>
		<path id="path-9_10_" style="fill:#142A3B;" d="M215.29,196.415h-145v-10.999h145V196.415z"/>
	</g>
</g>
<g>
</g>
<g>
</g>
<g>
</g>
<g>
</g>
<g>
</g>
<g>
</g>
<g>
</g>
<g>
</g>
<g>
</g>
<g>
</g>
<g>
</g>
<g>
</g>
<g>
</g>
<g>
</g>
<g>
</g>
</svg>
