<?xml version="1.0" encoding="iso-8859-1"?>
<!-- Generator: Adobe Illustrator 19.1.0, SVG Export Plug-In . SVG Version: 6.00 Build 0)  -->
<svg version="1.1" id="Capa_1" xmlns="http://www.w3.org/2000/svg" xmlns:xlink="http://www.w3.org/1999/xlink" x="0px" y="0px"
	 viewBox="0 0 217.228 217.228" style="enable-background:new 0 0 217.228 217.228;" xml:space="preserve">
<g>
	<g id="group-9svg">
		<path id="path-1_149_" style="fill:#FF3A2F;" d="M75.116,191.421H54.907c-3.896,0-7.055,1.761-7.055,3.932
			c0,2.173,3.159,3.933,7.055,3.933h0.941c3.896,0,7.055,1.761,7.055,3.933s-3.159,3.933-7.055,3.933H12.405
			c-3.896,0-7.055,1.761-7.055,3.933c0,2.171,3.159,3.933,7.055,3.933h52.208h106.711c3.897,0,7.055-1.762,7.055-3.933
			c0-2.172-3.158-3.933-7.055-3.933h-12.057c-3.896,0-7.055-1.761-7.055-3.933s3.159-3.933,7.055-3.933h47.354
			c3.897,0,7.056-1.76,7.056-3.933c0-2.171-3.159-3.932-7.056-3.932h-3.534H75.116z"/>
		<path id="path-2_149_" style="fill:#FF3A2F;" d="M204.838,159.073h3.589c0.692,0,1.253,0.974,1.253,2.175
			c0,1.201-0.561,2.175-1.253,2.175h-0.167c-0.692,0-1.253,0.973-1.253,2.174c0,1.202,0.561,2.176,1.253,2.176h7.715
			c0.692,0,1.253,0.973,1.253,2.175c0,1.2-0.561,2.174-1.253,2.174h-9.271h-18.951c-0.692,0-1.253-0.974-1.253-2.174
			c0-1.202,0.561-2.175,1.253-2.175h2.141c0.692,0,1.253-0.974,1.253-2.176c0-1.201-0.561-2.174-1.253-2.174h-10.19
			c-0.692,0-1.253-0.974-1.253-2.175c0-1.201,0.561-2.175,1.253-2.175h2.408H204.838z"/>
		<path id="path-3_149_" style="fill:#FF3A2F;" d="M9.681,195.195c-2.848,0-5.156-1.69-5.156-3.774s2.308-3.774,5.156-3.774H25.48
			c2.847,0,5.156,1.69,5.156,3.774s-2.309,3.774-5.156,3.774H9.681z"/>
		<path id="path-4_149_" style="fill:#2476FF;" d="M74.901,98.133c0,16.079,13.085,29.163,29.164,29.163
			c16.08,0,29.165-13.084,29.165-29.163c0-16.08-13.085-29.164-29.165-29.164C87.986,68.969,74.901,82.053,74.901,98.133z"/>
		<path id="path-5_148_" style="opacity:0.35;fill:#090908;enable-background:new    ;" d="M107.353,69.167
			c8.669,5.062,14.523,14.441,14.523,25.182c0,16.079-13.084,29.163-29.164,29.163c-1.113,0-2.207-0.076-3.288-0.198
			c4.309,2.515,9.302,3.982,14.641,3.982c16.08,0,29.165-13.084,29.165-29.163C133.23,83.167,121.889,70.808,107.353,69.167z"/>
		<path id="path-6_145_" style="fill:#142A3B;" d="M145.216,2.554c-2.059-0.888-4.46,0-5.411,2.034l-21.272,45.218
			c-0.488,1.05-0.521,2.188-0.097,3.263c0.431,1.075,1.285,1.806,2.36,2.229c19.237,7.519,31.068,26.885,28.773,47.408
			c-0.122,1.146,0.229,1.855,0.977,2.733c0.749,0.88,1.831,0.513,2.979,0.57l49.947,0.457c0.065,0,0.13,0,0.195,0
			c2.156,0,3.971,0.096,4.15-2.075C211.292,59.994,186.139,20.13,145.216,2.554z"/>
		<path id="path-7_141_" style="fill:#142A3B;" d="M58.064,108.71c0.709-0.91,1.001-2.074,0.814-3.213
			c-3.345-20.384,7.462-40.556,26.276-49.059c1.057-0.48,1.855-1.368,2.23-2.457c0.374-1.091,0.276-2.295-0.27-3.304L63.549,6.598
			c-1.058-1.985-3.507-2.767-5.509-1.782C18.069,24.483-4.895,67.358,0.883,111.511c0.276,2.099,2.059,3.628,4.126,3.628
			c0.138,0,0.268-0.009,0.398-0.016l49.752-4.801C56.315,110.208,57.364,109.623,58.064,108.71z"/>
		<path id="path-8_117_" style="fill:#142A3B;" d="M137.901,135.482c-0.636-0.96-1.644-1.611-2.783-1.799
			c-1.132-0.187-2.304,0.098-3.222,0.806c-15.844,12.158-39.81,12.165-55.661,0c-0.911-0.708-2.1-0.993-3.214-0.806
			c-1.139,0.188-2.149,0.839-2.791,1.799L42.497,177.07c-1.237,1.872-0.78,4.386,1.041,5.697
			c17.724,12.702,38.653,19.415,60.527,19.415c21.873,0,42.802-6.713,60.526-19.415c1.823-1.311,2.278-3.825,1.042-5.697
			L137.901,135.482z"/>
		<path id="path-9_102_" style="opacity:0.35;fill:#090908;enable-background:new    ;" d="M147.135,3.465
			c35.242,19.348,56.31,56.302,53.113,97.141c-0.179,2.172-1.993,2.075-4.15,2.075c-0.065,0-0.13,0-0.195,0l-46.303-0.422
			c-0.015,0.149-0.014,0.296-0.031,0.446c-0.122,1.147,0.229,1.856,0.977,2.734c0.749,0.88,1.831,0.513,2.979,0.57l49.947,0.457
			c0.064,0,0.13,0,0.195,0c2.156,0,3.971,0.096,4.15-2.075C211.237,60.705,186.901,21.458,147.135,3.465z"/>
		<path id="path-10_92_" style="opacity:0.35;fill:#090908;enable-background:new    ;" d="M87.114,50.677L63.549,6.597
			c-1.058-1.984-3.507-2.766-5.509-1.781c-0.262,0.129-0.505,0.284-0.767,0.416l22.273,41.661c0.546,1.009,0.643,2.212,0.27,3.304
			c-0.376,1.09-1.173,1.977-2.23,2.457c-18.814,8.502-29.621,28.675-26.276,49.059c0.186,1.139-0.106,2.304-0.814,3.213
			c-0.7,0.912-1.75,1.497-2.905,1.612l-46.75,4.511c0.02,0.155,0.021,0.307,0.042,0.462c0.276,2.099,2.059,3.629,4.125,3.629
			c0.139,0,0.269-0.01,0.399-0.017l49.752-4.8c1.155-0.115,2.205-0.7,2.905-1.613c0.709-0.91,1.001-2.074,0.814-3.213
			c-3.345-20.383,7.462-40.556,26.276-49.058c1.057-0.481,1.854-1.368,2.23-2.458C87.758,52.89,87.66,51.686,87.114,50.677z"/>
		<path id="path-11_79_" style="fill:#3E66A5;" d="M79.274,136.611c-1.042-0.661-2.056-1.368-3.039-2.122
			c-0.86-0.669-1.968-0.925-3.028-0.798C75.155,134.817,77.179,135.795,79.274,136.611z"/>
		<path id="path-12_69_" style="opacity:0.35;fill:#090908;enable-background:new    ;" d="M165.633,177.07L137.9,135.482
			c-0.635-0.96-1.643-1.611-2.782-1.799c-1.049-0.174-2.112,0.1-2.997,0.697l25.944,38.906c1.236,1.872,0.78,4.387-1.042,5.697
			c-17.724,12.701-38.653,19.415-60.527,19.415c-14.857,0-29.25-3.169-42.528-9.137c15.287,8.438,32.365,12.921,50.097,12.921
			c21.873,0,42.802-6.713,60.526-19.414C166.414,181.457,166.87,178.942,165.633,177.07z"/>
	</g>
</g>
<g>
</g>
<g>
</g>
<g>
</g>
<g>
</g>
<g>
</g>
<g>
</g>
<g>
</g>
<g>
</g>
<g>
</g>
<g>
</g>
<g>
</g>
<g>
</g>
<g>
</g>
<g>
</g>
<g>
</g>
</svg>
