<?xml version="1.0" encoding="iso-8859-1"?>
<!-- Generator: Adobe Illustrator 19.1.0, SVG Export Plug-In . SVG Version: 6.00 Build 0)  -->
<svg version="1.1" id="Capa_1" xmlns="http://www.w3.org/2000/svg" xmlns:xlink="http://www.w3.org/1999/xlink" x="0px" y="0px"
	 viewBox="0 0 217.228 217.228" style="enable-background:new 0 0 217.228 217.228;" xml:space="preserve">
<g>
	<g id="group-55svg">
		<path id="path-1_111_" style="fill:#2476FF;" d="M69.698,181.818H49.509c-3.893,0-7.049,2.3-7.049,5.137
			c0,2.838,3.156,5.138,7.049,5.138h0.939c3.893,0,7.049,2.301,7.049,5.138c0,2.837-3.156,5.137-7.049,5.137h-43.4
			c-3.893,0-7.048,2.301-7.048,5.139c0,2.837,3.155,5.137,7.048,5.137h52.156h106.608c3.893,0,7.048-2.3,7.048-5.137
			c0-2.838-3.155-5.139-7.048-5.139h-12.045c-3.893,0-7.049-2.3-7.049-5.137c0-2.837,3.156-5.138,7.049-5.138h47.308
			c3.892,0,7.048-2.3,7.048-5.138c0-2.837-3.156-5.137-7.048-5.137h-3.531H69.698z"/>
		<path id="path-2_111_" style="fill:#2476FF;" d="M193.803,213.106c-2.742,0-4.965-1.627-4.965-3.634
			c0-2.007,2.223-3.633,4.965-3.633h15.215c2.742,0,4.965,1.626,4.965,3.633c0,2.007-2.223,3.634-4.965,3.634H193.803z"/>
		<path id="path-3_111_" style="fill:#142A3B;" d="M170.994,10.62L40.797,55.631c-0.652,0.225-0.999,0.937-0.773,1.59l2.629,7.604
			c0.225,0.653,0.937,0.999,1.59,0.773L174.44,20.587c0.653-0.225,0.999-0.937,0.773-1.589l-2.629-7.605
			C172.359,10.741,171.647,10.394,170.994,10.62z"/>
		<path id="path-4_111_" style="fill:#142A3B;" d="M181.177,190.69h-8.046c-0.69,0-1.25-0.56-1.25-1.249v-22.81
			c0-0.69,0.56-1.25,1.25-1.25h8.046c0.691,0,1.25,0.56,1.25,1.25v22.81C182.427,190.13,181.868,190.69,181.177,190.69z"/>
		<path id="path-5_110_" style="fill:#142A3B;" d="M71.501,190.69h-8.046c-0.69,0-1.25-0.56-1.25-1.249v-22.81
			c0-0.69,0.56-1.25,1.25-1.25h8.046c0.69,0,1.25,0.56,1.25,1.25v22.81C72.751,190.13,72.191,190.69,71.501,190.69z"/>
		<path id="path-6_107_" style="fill:#0CB04A;" d="M209.103,172.762H35.529c-4.487,0-8.125-3.637-8.125-8.124V56.452
			c0-4.488,3.638-8.125,8.125-8.125h173.574c4.487,0,8.125,3.637,8.125,8.125v108.186
			C217.228,169.125,213.59,172.762,209.103,172.762z"/>
		<path id="path-7_104_" style="opacity:0.35;enable-background:new    ;" d="M196.664,49.446c5.83,6.144,7.909,15.579,7.909,24.717
			v55.891c0,18.928-15.345,34.272-34.274,34.272L49.023,167.83c-4.3,0-9.552-2.025-13.345-3.471c6.246,6.583,11.883,8.403,26,8.403
			h124.78c18.929,0,30.77-11.841,30.77-30.769V79.096C217.228,64.467,209.566,54.364,196.664,49.446z"/>
		<path id="path-8_81_" style="fill:#142A3B;" d="M183.79,14.91c0,5.957-4.83,10.786-10.788,10.786
			c-5.958,0-10.788-4.829-10.788-10.786c0-5.958,4.83-10.788,10.788-10.788C178.96,4.122,183.79,8.952,183.79,14.91z"/>
		<path id="path-9_69_" style="fill:#142A3B;" d="M196.664,110.545c0,20.967-16.998,37.963-37.965,37.963
			s-37.965-16.996-37.965-37.963s16.998-37.964,37.965-37.964S196.664,89.578,196.664,110.545z"/>
		<path id="path-10_63_" style="fill:#FBB713;" d="M177.681,110.545c0,10.483-8.498,18.981-18.982,18.981
			c-10.484,0-18.982-8.498-18.982-18.981s8.498-18.982,18.982-18.982C169.183,91.563,177.681,100.062,177.681,110.545z"/>
		<path id="path-11_53_" style="opacity:0.35;enable-background:new    ;" d="M174.029,99.434c2.272,3.129,3.652,6.947,3.652,11.111
			c0,10.483-8.498,18.981-18.982,18.981c-4.164,0-7.981-1.38-11.111-3.652c3.45,4.749,9.009,7.87,15.329,7.87
			c10.484,0,18.983-8.497,18.983-18.982C181.9,108.443,178.779,102.883,174.029,99.434z"/>
		<path id="path-12_46_" style="fill:#142A3B;" d="M111.173,101.054h-62.08c-0.621,0-1.124-0.504-1.124-1.126v-7.24
			c0-0.621,0.503-1.125,1.124-1.125h62.08c0.621,0,1.125,0.504,1.125,1.125v7.24C112.298,100.55,111.794,101.054,111.173,101.054z"
			/>
		<path id="path-13_36_" style="fill:#142A3B;" d="M111.173,143.236h-62.08c-0.621,0-1.124-0.504-1.124-1.126v-7.24
			c0-0.622,0.503-1.126,1.124-1.126h62.08c0.621,0,1.125,0.504,1.125,1.126v7.24C112.298,142.732,111.794,143.236,111.173,143.236z"
			/>
		<path id="path-14_31_" style="fill:#142A3B;" d="M111.173,122.145h-62.08c-0.621,0-1.124-0.504-1.124-1.125v-7.241
			c0-0.622,0.503-1.124,1.124-1.124h62.08c0.621,0,1.125,0.502,1.125,1.124v7.241C112.298,121.641,111.794,122.145,111.173,122.145z
			"/>
	</g>
</g>
<g>
</g>
<g>
</g>
<g>
</g>
<g>
</g>
<g>
</g>
<g>
</g>
<g>
</g>
<g>
</g>
<g>
</g>
<g>
</g>
<g>
</g>
<g>
</g>
<g>
</g>
<g>
</g>
<g>
</g>
</svg>
