<?xml version="1.0" encoding="iso-8859-1"?>
<!-- Generator: Adobe Illustrator 19.1.0, SVG Export Plug-In . SVG Version: 6.00 Build 0)  -->
<svg version="1.1" id="Capa_1" xmlns="http://www.w3.org/2000/svg" xmlns:xlink="http://www.w3.org/1999/xlink" x="0px" y="0px"
	 viewBox="0 0 217.222 217.222" style="enable-background:new 0 0 217.222 217.222;" xml:space="preserve">
<g>
	<g id="group-74svg">
		<path id="path-1_132_" style="fill:#0CB04A;" d="M85.762,196.135H72.631c-2.531,0-4.583,1.554-4.583,3.469
			c0,1.917,2.052,3.47,4.583,3.47h0.612c2.531,0,4.584,1.554,4.584,3.469c0,1.917-2.053,3.47-4.584,3.47H45.016
			c-2.532,0-4.584,1.553-4.584,3.469c0,1.918,2.052,3.47,4.584,3.47h33.921h69.336c2.531,0,4.583-1.552,4.583-3.47
			c0-1.916-2.052-3.469-4.583-3.469h-7.835c-2.531,0-4.583-1.553-4.583-3.47c0-1.915,2.052-3.469,4.583-3.469h30.768
			c2.532,0,4.584-1.553,4.584-3.47c0-1.915-2.052-3.469-4.584-3.469h-2.296H85.762z"/>
		<path id="path-2_132_" style="fill:#0CB04A;" d="M162.329,217.222c-1.925,0-3.486-1.063-3.486-2.374s1.561-2.374,3.486-2.374
			h10.682c1.926,0,3.487,1.063,3.487,2.374s-1.561,2.374-3.487,2.374H162.329z"/>
		<path id="path-3_132_" style="fill:#0CB04A;" d="M66.408,185.381h3.745c0.722,0,1.307-0.642,1.307-1.434
			c0-0.792-0.585-1.434-1.307-1.434h-0.174c-0.722,0-1.308-0.642-1.308-1.433c0-0.792,0.586-1.434,1.308-1.434h8.051
			c0.721,0,1.307-0.642,1.307-1.433c0-0.793-0.586-1.435-1.307-1.435h-9.676H48.58c-0.722,0-1.307,0.642-1.307,1.435
			c0,0.791,0.585,1.433,1.307,1.433h2.234c0.722,0,1.307,0.642,1.307,1.434c0,0.791-0.585,1.433-1.307,1.433H40.181
			c-0.722,0-1.308,0.642-1.308,1.434c0,0.792,0.586,1.434,1.308,1.434h2.513H66.408z"/>
		<path id="path-4_132_" style="fill:#0CB04A;" d="M104.166,194.536c-2.123,0-3.843-1.664-3.843-3.718
			c0-2.052,1.72-3.717,3.843-3.717h11.777c2.122,0,3.843,1.665,3.843,3.717c0,2.054-1.721,3.718-3.843,3.718H104.166z"/>
		<path id="path-5_131_" style="fill:#142A3B;" d="M113.602,211.172L113.602,211.172c-13.174,0-23.514-11.293-22.355-24.416
			l11.85-81.247h21.011l11.849,81.247C137.117,199.879,126.776,211.172,113.602,211.172z"/>
		<path id="path-6_128_" style="opacity:0.35;enable-background:new    ;" d="M124.108,105.509h-21.011l-4.156,28.498
			c3.412,4.349,8.704,7.155,14.661,7.155c5.958,0,11.25-2.806,14.662-7.155L124.108,105.509z"/>
		<path id="path-7_125_" style="fill:#FF3A2F;" d="M178.349,64.745c0-10.295-8.346-18.64-18.64-18.64
			c-0.425,0-0.842,0.036-1.26,0.064c0.315-0.275,0.635-0.546,0.936-0.846c7.279-7.279,7.279-19.081,0-26.36
			c-7.28-7.28-19.081-7.28-26.361,0c-0.3,0.302-0.57,0.622-0.846,0.936c0.029-0.419,0.064-0.835,0.064-1.26
			C132.242,8.345,123.897,0,113.602,0c-10.294,0-18.64,8.345-18.64,18.639c0,0.425,0.036,0.841,0.064,1.26
			c-0.276-0.314-0.545-0.634-0.846-0.936c-7.279-7.28-19.081-7.28-26.361,0c-7.279,7.279-7.279,19.081,0,26.36
			c0.301,0.3,0.621,0.571,0.937,0.846c-0.419-0.028-0.835-0.064-1.26-0.064c-10.295,0-18.64,8.345-18.64,18.64
			c0,10.294,8.345,18.639,18.64,18.639c0.425,0,0.841-0.036,1.26-0.064c-0.316,0.276-0.636,0.545-0.937,0.845
			c-7.279,7.28-7.279,19.082,0,26.361c7.28,7.278,19.082,7.278,26.361,0c0.301-0.301,0.57-0.622,0.846-0.936
			c-0.028,0.417-0.064,0.834-0.064,1.26c0,10.294,8.346,18.639,18.64,18.639c10.295,0,18.64-8.345,18.64-18.639
			c0-0.426-0.035-0.843-0.064-1.26c0.276,0.314,0.546,0.635,0.846,0.936c7.28,7.278,19.081,7.278,26.361,0
			c7.279-7.279,7.279-19.081,0-26.361c-0.301-0.3-0.621-0.569-0.936-0.845c0.418,0.028,0.835,0.064,1.26,0.064
			C170.003,83.384,178.349,75.039,178.349,64.745z"/>
		<path id="path-8_102_" style="opacity:0.35;enable-background:new    ;" d="M152.381,40.655c-0.3,0.3-0.62,0.569-0.936,0.846
			c0.419-0.029,0.835-0.065,1.26-0.065c2.995,0,5.815,0.724,8.322,1.979c5.568-7.306,5.034-17.776-1.642-24.452
			c-1.944-1.945-4.215-3.351-6.632-4.257C159.641,22.011,159.529,33.507,152.381,40.655z"/>
		<path id="path-9_88_" style="opacity:0.35;enable-background:new    ;" d="M125.238,13.97c0,0.425-0.035,0.842-0.063,1.261
			c0.276-0.315,0.546-0.636,0.846-0.937c1.374-1.375,2.911-2.487,4.547-3.343c-2.032-4.478-5.78-7.999-10.409-9.741
			C123.301,4.545,125.238,9.028,125.238,13.97z"/>
		<path id="path-10_80_" style="opacity:0.35;enable-background:new    ;" d="M178.349,64.745c0-7.983-5.028-14.775-12.082-17.43
			c3.14,3.336,5.078,7.817,5.078,12.761c0,10.294-8.345,18.639-18.64,18.639c-0.425,0-0.841-0.036-1.26-0.064
			c0.316,0.275,0.636,0.545,0.936,0.845c7.28,7.281,7.28,19.082,0,26.361c-5.335,5.334-13.096,6.742-19.728,4.256
			c0.123,0.139,0.239,0.281,0.371,0.413c7.28,7.278,19.081,7.278,26.361,0c7.279-7.279,7.279-19.081,0-26.361
			c-0.301-0.3-0.621-0.569-0.936-0.845c0.418,0.028,0.834,0.064,1.26,0.064C170.003,83.384,178.349,75.039,178.349,64.745z"/>
		<path id="path-11_69_" style="opacity:0.35;enable-background:new    ;" d="M87.959,106.181c0-0.426,0.036-0.843,0.064-1.26
			c-0.277,0.316-0.545,0.636-0.847,0.936c-5.335,5.334-13.096,6.742-19.729,4.256c0.127,0.136,0.24,0.28,0.372,0.413
			c5.905,5.904,14.785,7.016,21.813,3.343C88.567,111.523,87.959,108.925,87.959,106.181z"/>
		<path id="path-12_59_" style="opacity:0.35;enable-background:new    ;" d="M126.021,105.857c-0.3-0.3-0.57-0.62-0.846-0.936
			c0.028,0.417,0.063,0.834,0.063,1.26c0,10.294-8.345,18.639-18.639,18.639c-2.312,0-4.515-0.44-6.558-1.209
			c3.4,3.611,8.21,5.878,13.561,5.878c10.295,0,18.64-8.345,18.64-18.639c0-0.302-0.025-0.598-0.045-0.895
			C129.949,109.045,127.843,107.68,126.021,105.857z"/>
		<path id="path-13_46_" style="fill:#FBB713;" d="M147.416,64.745c0,18.674-15.139,33.813-33.814,33.813
			S79.788,83.419,79.788,64.745c0-18.675,15.139-33.812,33.814-33.812S147.416,46.07,147.416,64.745z"/>
		<path id="path-14_38_" style="fill:#EDEDED;" d="M89.451,68.366c-2.002,0-3.621-1.621-3.621-3.621
			c0-15.314,12.46-27.773,27.772-27.773c2.002,0,3.621,1.621,3.621,3.621c0,1.999-1.619,3.62-3.621,3.62
			c-11.321,0-20.531,9.21-20.531,20.532C93.071,66.745,91.452,68.366,89.451,68.366z"/>
		<path id="path-15_32_" style="opacity:0.25;enable-background:new    ;" d="M123.788,32.499
			c8.636,6.126,14.29,16.181,14.29,27.577c0,18.674-15.139,33.813-33.814,33.813c-3.55,0-6.97-0.554-10.186-1.567
			c5.518,3.912,12.244,6.236,19.524,6.236c18.675,0,33.814-15.139,33.814-33.813C147.416,49.62,137.484,36.822,123.788,32.499z"/>
		<path id="path-16_24_" style="fill:#FFFFFF;" d="M120.606,187.534c0,3.868-3.136,7.003-7.004,7.003
			c-3.868,0-7.003-3.135-7.003-7.003c0-3.868,3.135-7.003,7.003-7.003C117.47,180.531,120.606,183.666,120.606,187.534z"/>
		<path id="path-17_21_" style="opacity:0.35;enable-background:new    ;" d="M114.166,180.588c1.089,1.234,1.77,2.836,1.77,4.612
			c0,3.868-3.135,7.003-7.003,7.003c-0.193,0-0.374-0.041-0.564-0.057c1.284,1.455,3.141,2.391,5.233,2.391
			c3.868,0,7.004-3.135,7.004-7.003C120.606,183.859,117.766,180.88,114.166,180.588z"/>
	</g>
</g>
<g>
</g>
<g>
</g>
<g>
</g>
<g>
</g>
<g>
</g>
<g>
</g>
<g>
</g>
<g>
</g>
<g>
</g>
<g>
</g>
<g>
</g>
<g>
</g>
<g>
</g>
<g>
</g>
<g>
</g>
</svg>
