<?xml version="1.0" encoding="iso-8859-1"?>
<!-- Generator: Adobe Illustrator 19.1.0, SVG Export Plug-In . SVG Version: 6.00 Build 0)  -->
<svg version="1.1" id="Capa_1" xmlns="http://www.w3.org/2000/svg" xmlns:xlink="http://www.w3.org/1999/xlink" x="0px" y="0px"
	 viewBox="0 0 217.228 217.228" style="enable-background:new 0 0 217.228 217.228;" xml:space="preserve">
<g>
	<g id="group-36svg">
		<path id="path-1_90_" style="fill:#142A3B;" d="M61.915,191.023H43.98c-3.458,0-6.261,1.563-6.261,3.491
			c0,1.927,2.803,3.491,6.261,3.491h0.836c3.457,0,6.261,1.562,6.261,3.489c0,1.928-2.804,3.49-6.261,3.49H6.262
			c-3.458,0-6.262,1.563-6.262,3.491c0,1.928,2.804,3.49,6.262,3.49h46.332h94.701c3.458,0,6.261-1.562,6.261-3.49
			c0-1.928-2.803-3.491-6.261-3.491h-10.7c-3.458,0-6.261-1.562-6.261-3.49c0-1.927,2.803-3.489,6.261-3.489h42.025
			c3.458,0,6.261-1.564,6.261-3.491c0-1.928-2.803-3.491-6.261-3.491h-3.137H61.915z"/>
		<path id="path-2_90_" style="fill:#142A3B;" d="M174.32,211.776c-2.527,0-4.576-1.499-4.576-3.349
			c0-1.849,2.049-3.349,4.576-3.349h14.021c2.527,0,4.576,1.5,4.576,3.349c0,1.85-2.049,3.349-4.576,3.349H174.32z"/>
		<path id="path-3_90_" style="fill:#FBB713;" d="M159.633,5.263l-9.534,9.533l-8.059-8.059L23.705,125.068l8.059,8.059
			l-9.534,9.535l57.596,57.592l9.533-9.532l8.06,8.058L215.754,80.449l-8.059-8.059l9.533-9.534L159.633,5.263z"/>
		<path id="path-4_90_" style="opacity:0.35;fill:#060606;enable-background:new    ;" d="M154.916,9.981l50.518,50.516
			l-9.534,9.534l8.059,8.058L90.342,191.703l7.076,7.076l118.335-118.33l-8.058-8.059l9.533-9.534L159.634,5.263L154.916,9.981z"/>
		<path id="path-5_89_" style="fill:#A3770C;" d="M156.315,49.409c-1.564,1.564-1.565,4.101,0,5.664l7.199,7.201l-6.752,6.75
			c-3.741-1.401-8.114-0.619-11.123,2.39c-3.009,3.009-3.79,7.382-2.389,11.123l-5.622,5.621l-7.199-7.199
			c-1.565-1.564-4.101-1.564-5.666,0c-1.564,1.566-1.565,4.101,0,5.665l7.2,7.199l-3.932,3.933
			c-5.049-2.483-11.303-1.68-15.503,2.519c-4.2,4.2-5.001,10.453-2.52,15.502l-3.932,3.932l-7.2-7.198
			c-1.564-1.566-4.1-1.566-5.665,0c-1.564,1.563-1.564,4.099,0,5.664l7.2,7.199l-5.965,5.964c-3.741-1.4-8.114-0.619-11.123,2.39
			c-3.009,3.008-3.79,7.382-2.389,11.123l-6.409,6.409l-7.2-7.199c-1.564-1.565-4.1-1.564-5.665,0c-1.564,1.563-1.565,4.099,0,5.665
			l20.536,20.534c1.565,1.565,4.101,1.565,5.665,0c1.565-1.563,1.565-4.1,0-5.664l-7.199-7.199l6.408-6.409
			c3.741,1.4,8.115,0.619,11.124-2.39c3.009-3.008,3.79-7.382,2.389-11.122l5.966-5.965l7.199,7.199
			c1.564,1.564,4.101,1.564,5.664,0c1.566-1.564,1.565-4.1,0-5.664l-7.199-7.2l3.933-3.931c5.048,2.481,11.302,1.679,15.502-2.52
			c4.2-4.2,5.002-10.454,2.52-15.503l3.932-3.932l7.2,7.199c1.564,1.565,4.1,1.565,5.665,0c1.564-1.564,1.564-4.101,0-5.664
			l-7.2-7.199l5.622-5.622c3.741,1.4,8.114,0.619,11.123-2.389c3.01-3.009,3.79-7.383,2.39-11.124l6.752-6.75l7.199,7.199
			c1.564,1.564,4.101,1.564,5.665,0c1.564-1.565,1.564-4.101,0-5.666L161.98,49.409C160.415,47.845,157.879,47.845,156.315,49.409z
			 M94.4,144.805c-2.011,2.01-5.272,2.01-7.283,0c-2.011-2.012-2.011-5.272,0-7.283s5.271-2.011,7.283,0
			C96.411,139.533,96.411,142.794,94.4,144.805z M126.202,113.949c-2.273,2.271-5.955,2.27-8.227,0
			c-2.272-2.273-2.272-5.956-0.001-8.228c2.273-2.271,5.955-2.271,8.228,0C128.473,107.993,128.473,111.676,126.202,113.949z
			 M156.716,82.491c-2.011,2.01-5.271,2.01-7.282,0c-2.012-2.012-2.012-5.273-0.001-7.283c2.011-2.011,5.272-2.011,7.283,0
			C158.727,77.218,158.727,80.479,156.716,82.491z"/>
		<path id="path-6_86_" style="fill:#142A3B;" d="M153.956,42.333c-1.564,1.563-1.565,4.1,0,5.664l7.199,7.199l-6.751,6.752
			c-3.742-1.401-8.114-0.619-11.124,2.389c-3.008,3.01-3.79,7.382-2.389,11.124l-5.622,5.621l-7.2-7.199
			c-1.564-1.564-4.1-1.564-5.664,0c-1.565,1.565-1.565,4.1,0,5.665l7.199,7.199l-3.932,3.932c-5.049-2.483-11.303-1.679-15.502,2.52
			c-4.201,4.199-5.003,10.453-2.52,15.502l-3.933,3.932l-7.199-7.2c-1.565-1.564-4.101-1.564-5.665,0
			c-1.565,1.565-1.565,4.102,0,5.665l7.199,7.2l-5.965,5.964c-3.741-1.4-8.114-0.62-11.122,2.39
			c-3.01,3.009-3.791,7.381-2.39,11.123l-6.409,6.408l-7.2-7.199c-1.564-1.565-4.101-1.565-5.664,0c-1.565,1.564-1.565,4.1,0,5.665
			l20.536,20.536c1.564,1.563,4.1,1.563,5.665,0c1.564-1.564,1.564-4.101,0-5.665l-7.2-7.2l6.409-6.408
			c3.741,1.4,8.114,0.619,11.123-2.39c3.01-3.009,3.79-7.382,2.39-11.123l5.964-5.964l7.2,7.199c1.564,1.564,4.1,1.564,5.665,0
			c1.564-1.565,1.564-4.101,0-5.665l-7.199-7.199l3.932-3.933c5.048,2.483,11.302,1.68,15.502-2.519
			c4.2-4.2,5.002-10.453,2.52-15.502l3.932-3.932l7.199,7.199c1.565,1.565,4.101,1.565,5.665,0c1.565-1.564,1.565-4.1,0-5.665
			l-7.199-7.199l5.622-5.621c3.741,1.4,8.115,0.619,11.124-2.389c3.008-3.01,3.789-7.383,2.389-11.124l6.752-6.752l7.199,7.2
			c1.564,1.564,4.101,1.564,5.665,0c1.565-1.564,1.565-4.101,0-5.665l-20.536-20.535C158.057,40.768,155.52,40.769,153.956,42.333z
			 M92.041,137.728c-2.011,2.012-5.272,2.012-7.282,0c-2.012-2.011-2.012-5.271-0.001-7.283c2.011-2.011,5.271-2.011,7.283,0
			C94.052,132.457,94.052,135.717,92.041,137.728z M123.843,106.872c-2.273,2.271-5.955,2.271-8.227,0
			c-2.272-2.272-2.273-5.955-0.001-8.227c2.273-2.272,5.955-2.272,8.228,0C126.114,100.917,126.115,104.6,123.843,106.872z
			 M154.357,75.414c-2.011,2.011-5.271,2.011-7.282,0c-2.012-2.011-2.012-5.271,0-7.283c2.01-2.011,5.271-2.011,7.283,0
			C156.368,70.143,156.368,73.403,154.357,75.414z"/>
		<path id="path-7_85_" style="fill:#EDEDED;" d="M49.843,118.67c-0.926,0-1.853-0.354-2.559-1.06c-1.415-1.415-1.415-3.706,0-5.12
			l84.918-84.917c1.414-1.414,3.705-1.414,5.119,0c1.415,1.415,1.415,3.706,0,5.121L52.403,117.61
			C51.696,118.316,50.769,118.67,49.843,118.67z"/>
	</g>
</g>
<g>
</g>
<g>
</g>
<g>
</g>
<g>
</g>
<g>
</g>
<g>
</g>
<g>
</g>
<g>
</g>
<g>
</g>
<g>
</g>
<g>
</g>
<g>
</g>
<g>
</g>
<g>
</g>
<g>
</g>
</svg>
