<?xml version="1.0" encoding="iso-8859-1"?>
<!-- Generator: Adobe Illustrator 19.1.0, SVG Export Plug-In . SVG Version: 6.00 Build 0)  -->
<svg version="1.1" id="Capa_1" xmlns="http://www.w3.org/2000/svg" xmlns:xlink="http://www.w3.org/1999/xlink" x="0px" y="0px"
	 viewBox="0 0 217.22 217.22" style="enable-background:new 0 0 217.22 217.22;" xml:space="preserve">
<g>
	<g id="group-63svg">
		<path id="path-1_120_" style="fill:#2476FF;" d="M69.868,194.296H50.199c-3.792,0-6.866,1.638-6.866,3.657
			c0,2.02,3.074,3.658,6.866,3.658h0.916c3.792,0,6.866,1.638,6.866,3.658c0,2.02-3.074,3.657-6.866,3.657H8.832
			c-3.793,0-6.866,1.638-6.866,3.658s3.073,3.657,6.866,3.657h50.813h103.861c3.792,0,6.866-1.637,6.866-3.657
			s-3.074-3.658-6.866-3.658h-11.735c-3.792,0-6.867-1.637-6.867-3.657c0-2.02,3.075-3.658,6.867-3.658h46.089
			c3.793,0,6.867-1.638,6.867-3.658c0-2.019-3.074-3.657-6.867-3.657h-3.44H69.868z"/>
		<path id="path-2_120_" style="fill:#2476FF;" d="M191.856,217.22c-3.18,0-5.757-1.754-5.757-3.919c0-2.165,2.577-3.92,5.757-3.92
			h17.641c3.18,0,5.757,1.755,5.757,3.92c0,2.165-2.577,3.919-5.757,3.919H191.856z"/>
		<path id="path-3_120_" style="fill:#EDEDED;" d="M164.719,55.891H41.689V0h123.03V55.891z"/>
		<path id="path-4_120_" style="fill:#142A3B;" d="M148.029,198.661h-89.65v-11.067h89.65V198.661z"/>
		<path id="path-5_119_" d="M148.029,195.156l-89.65-3.321v-4.241h89.65V195.156z"/>
		<path id="path-6_116_" style="fill:#EDEDED;" d="M41.689,187.594h123.029V56.443H41.689V187.594z"/>
		<path id="path-7_113_" style="opacity:0.25;enable-background:new    ;" d="M151.437,0v56.444h13.281V0H151.437z"/>
		<path id="path-8_90_" style="opacity:0.25;enable-background:new    ;" d="M41.689,56.444v3.32l109.748,6.641v121.189h13.281
			V56.444H41.689z"/>
		<path id="path-9_78_" style="opacity:0.35;enable-background:new    ;" d="M141.897,114.549h-7.748V43.717h7.748V114.549z"/>
		<path id="path-10_72_" style="fill:#FF3A2F;" d="M138.577,111.228h-7.748V40.397h7.748V111.228z"/>
		<path id="path-11_61_" style="fill:#142A3B;" d="M148.029,198.661h-89.65v-11.067h89.65V198.661z"/>
	</g>
</g>
<g>
</g>
<g>
</g>
<g>
</g>
<g>
</g>
<g>
</g>
<g>
</g>
<g>
</g>
<g>
</g>
<g>
</g>
<g>
</g>
<g>
</g>
<g>
</g>
<g>
</g>
<g>
</g>
<g>
</g>
</svg>
