<?xml version="1.0" encoding="iso-8859-1"?>
<!-- Generator: Adobe Illustrator 19.1.0, SVG Export Plug-In . SVG Version: 6.00 Build 0)  -->
<svg version="1.1" id="Capa_1" xmlns="http://www.w3.org/2000/svg" xmlns:xlink="http://www.w3.org/1999/xlink" x="0px" y="0px"
	 viewBox="0 0 217.229 217.229" style="enable-background:new 0 0 217.229 217.229;" xml:space="preserve">
<g>
	<g id="group-11svg">
		<path id="path-1_12_" style="fill:#2476FF;" d="M195.355,155.014h6.336c1.222,0,2.212,0.745,2.212,1.666
			c0,0.919-0.99,1.665-2.212,1.665h-0.295c-1.222,0-2.212,0.746-2.212,1.666c0,0.919,0.99,1.665,2.212,1.665h13.621
			c1.221,0,2.212,0.746,2.212,1.665c0,0.92-0.991,1.667-2.212,1.667h-16.368h-33.456c-1.222,0-2.213-0.747-2.213-1.667
			c0-0.919,0.991-1.665,2.213-1.665h3.78c1.221,0,2.212-0.746,2.212-1.665c0-0.92-0.991-1.666-2.212-1.666h-17.991
			c-1.221,0-2.211-0.746-2.211-1.665c0-0.921,0.99-1.666,2.211-1.666h4.252H195.355z"/>
		<path id="path-2_12_" style="fill:#2476FF;" d="M67.009,181.315h-19.41c-3.742,0-6.776,2.211-6.776,4.939
			c0,2.729,3.034,4.94,6.776,4.94h0.904c3.742,0,6.776,2.211,6.776,4.94c0,2.728-3.034,4.939-6.776,4.939H6.776
			c-3.742,0-6.776,2.212-6.776,4.94c0,2.727,3.034,4.939,6.776,4.939h50.145h102.494c3.742,0,6.776-2.212,6.776-4.939
			c0-2.728-3.034-4.94-6.776-4.94h-11.58c-3.743,0-6.777-2.211-6.777-4.939c0-2.729,3.034-4.94,6.777-4.94h45.482
			c3.743,0,6.776-2.211,6.776-4.94c0-2.728-3.033-4.939-6.776-4.939h-3.394H67.009z"/>
		<path id="path-3_12_" style="fill:#2476FF;" d="M186.326,211.396c-2.636,0-4.773-1.564-4.773-3.494
			c0-1.929,2.137-3.494,4.773-3.494h14.628c2.637,0,4.774,1.565,4.774,3.494c0,1.93-2.137,3.494-4.774,3.494H186.326z"/>
		<path id="path-4_12_" style="fill:#2476FF;" d="M14.949,192.479c-2.636,0-4.774-1.564-4.774-3.494
			c0-1.929,2.138-3.493,4.774-3.493h14.627c2.637,0,4.774,1.564,4.774,3.493c0,1.93-2.137,3.494-4.774,3.494H14.949z"/>
		<path id="path-5_12_" style="fill:#FF3A2F;" d="M80.885,25.051h23.013c47.649,0,87.916,38.433,87.916,83.927
			c0,45.989-37.795,83.399-84.248,83.399c-48.954,0-87.295-40.298-87.295-91.736c0-2.2,1.787-3.978,3.979-3.978h23.56
			c2.207,0,3.978,1.778,3.978,3.978c0,45.549,28.814,61.781,55.778,61.781c28.09,0,52.731-25.65,52.731-54.881
			c0-27.46-25.829-50.663-56.399-50.663l-22.185-0.671L80.885,25.051z"/>
		<path id="path-6_12_" style="fill:#FF3A2F;" d="M84.365,56.878v16.088c0,1.446-0.776,2.763-2.035,3.47
			c-1.252,0.708-2.789,0.669-4.017-0.078L26.156,44.353c-1.188-0.731-1.904-2.013-1.904-3.411c0.016-1.391,0.747-2.681,1.943-3.396
			L78.351,6.402c1.227-0.738,2.767-0.762,4.002-0.046c1.251,0.7,2.012,2.02,2.012,3.458v15.237V56.878z"/>
		<path id="path-7_12_" style="opacity:0.35;fill:#090908;enable-background:new    ;" d="M90.993,56.489l8.479-31.438H84.365
			v31.237L90.993,56.489z"/>
	</g>
</g>
<g>
</g>
<g>
</g>
<g>
</g>
<g>
</g>
<g>
</g>
<g>
</g>
<g>
</g>
<g>
</g>
<g>
</g>
<g>
</g>
<g>
</g>
<g>
</g>
<g>
</g>
<g>
</g>
<g>
</g>
</svg>
