<?xml version="1.0" encoding="iso-8859-1"?>
<!-- Generator: Adobe Illustrator 19.1.0, SVG Export Plug-In . SVG Version: 6.00 Build 0)  -->
<svg version="1.1" id="Capa_1" xmlns="http://www.w3.org/2000/svg" xmlns:xlink="http://www.w3.org/1999/xlink" x="0px" y="0px"
	 viewBox="0 0 217.229 217.229" style="enable-background:new 0 0 217.229 217.229;" xml:space="preserve">
<g>
	<g id="group-19svg">
		<path id="path-1_71_" style="fill:#142A3B;" d="M152.355,187.33h14.035c2.707,0,4.9-1.504,4.9-3.36c0-1.854-2.193-3.359-4.9-3.359
			h-0.653c-2.706,0-4.9-1.504-4.9-3.36c0-1.855,2.194-3.358,4.9-3.358h30.173c2.707,0,4.9-1.505,4.9-3.36
			c0-1.855-2.193-3.359-4.9-3.359h-36.26H85.535c-2.706,0-4.9,1.504-4.9,3.359c0,1.855,2.194,3.36,4.9,3.36h8.374
			c2.706,0,4.9,1.503,4.9,3.358c0,1.856-2.194,3.36-4.9,3.36H54.055c-2.705,0-4.899,1.505-4.899,3.359
			c0,1.856,2.194,3.36,4.899,3.36h9.42H152.355z"/>
		<path id="path-2_71_" style="fill:#142A3B;" d="M66.894,149.287h5.778c1.113,0,2.016-0.688,2.016-1.536
			c0-0.848-0.903-1.536-2.016-1.536h-0.269c-1.114,0-2.018-0.688-2.018-1.535c0-0.848,0.904-1.536,2.018-1.536h12.419
			c1.115,0,2.017-0.687,2.017-1.535c0-0.849-0.902-1.536-2.017-1.536H69.897H39.389c-1.113,0-2.017,0.687-2.017,1.536
			c0,0.848,0.904,1.535,2.017,1.535h3.448c1.113,0,2.016,0.688,2.016,1.536c0,0.847-0.903,1.535-2.016,1.535H26.431
			c-1.114,0-2.016,0.688-2.016,1.536c0,0.848,0.902,1.536,2.016,1.536h3.878H66.894z"/>
		<path id="path-3_71_" style="fill:#142A3B;" d="M57.932,166.766c2.373,0,4.297,1.543,4.297,3.447c0,1.903-1.924,3.446-4.297,3.446
			h-13.17c-2.374,0-4.298-1.543-4.298-3.446c0-1.904,1.924-3.447,4.298-3.447H57.932z"/>
		<path id="path-4_71_" style="fill:#142A3B;" d="M211.488,181.684c3.17,0,5.741,1.725,5.741,3.852c0,2.126-2.571,3.851-5.741,3.851
			h-17.593c-3.17,0-5.74-1.725-5.74-3.851c0-2.127,2.57-3.852,5.74-3.852H211.488z"/>
		<path id="path-5_70_" style="fill:#2476FF;" d="M177.565,172.619L67.783,100.231l109.782-72.389V172.619z"/>
		<path id="path-6_67_" style="fill:#FF3A2F;" d="M109.782,172.619L0,100.231l109.782-72.389V172.619z"/>
		<path id="path-7_66_" style="opacity:0.35;fill:#090908;enable-background:new    ;" d="M109.782,127.925l2.964,1.954
			l8.152-64.671l-11.116,7.329V127.925z"/>
	</g>
</g>
<g>
</g>
<g>
</g>
<g>
</g>
<g>
</g>
<g>
</g>
<g>
</g>
<g>
</g>
<g>
</g>
<g>
</g>
<g>
</g>
<g>
</g>
<g>
</g>
<g>
</g>
<g>
</g>
<g>
</g>
</svg>
