<?xml version="1.0" encoding="iso-8859-1"?>
<!-- Generator: Adobe Illustrator 19.1.0, SVG Export Plug-In . SVG Version: 6.00 Build 0)  -->
<svg version="1.1" id="Capa_1" xmlns="http://www.w3.org/2000/svg" xmlns:xlink="http://www.w3.org/1999/xlink" x="0px" y="0px"
	 viewBox="0 0 232.888 232.888" style="enable-background:new 0 0 232.888 232.888;" xml:space="preserve">
<g>
	<g id="group-85svg">
		<path id="path-1_152_" style="fill:#FBB713;" d="M150.676,132.728h20.144c3.884,0,7.033,2.647,7.033,5.913
			c0,3.265-3.149,5.913-7.033,5.913h-0.938c-3.883,0-7.032,2.646-7.032,5.912c0,3.266,3.149,5.914,7.032,5.914h43.305
			c3.884,0,7.033,2.647,7.033,5.912s-3.149,5.913-7.033,5.913h-52.041H67.559c-3.884,0-7.032-2.648-7.032-5.913
			s3.148-5.912,7.032-5.912h12.019c3.883,0,7.032-2.648,7.032-5.914c0-3.266-3.149-5.912-7.032-5.912H22.379
			c-3.884,0-7.032-2.648-7.032-5.913c0-3.266,3.148-5.913,7.032-5.913h49.907H150.676z"/>
		<path id="path-2_152_" style="fill:#FBB713;" d="M47.905,64.527h5.084c0.98,0,1.775,0.851,1.775,1.901
			c0,1.049-0.795,1.901-1.775,1.901h-0.237c-0.98,0-1.774,0.85-1.774,1.9c0,1.05,0.794,1.9,1.774,1.9h10.929
			c0.98,0,1.775,0.851,1.775,1.9c0,1.05-0.795,1.901-1.775,1.901H50.548H36.113c-0.981,0-1.775-0.851-1.775-1.901
			c0-1.049,0.794-1.9,1.775-1.9h3.033c0.98,0,1.775-0.85,1.775-1.9c0-1.05-0.795-1.9-1.775-1.9H24.711
			c-0.981,0-1.775-0.852-1.775-1.901c0-1.05,0.794-1.901,1.775-1.901h3.411H47.905z"/>
		<path id="path-3_152_" style="fill:#FBB713;" d="M38.25,168.361c3.476,0,6.294-1.769,6.294-3.952c0-2.181-2.818-3.95-6.294-3.95
			H18.962c-3.476,0-6.294,1.769-6.294,3.95c0,2.183,2.818,3.952,6.294,3.952H38.25z"/>
		<path id="path-4_151_" style="fill:#142A3B;" d="M194.255,116.153c2.532,0,4.937-0.525,7.126-1.454
			c2.284-6.153,8.252-10.542,15.256-10.542c8.975,0,16.251,7.208,16.251,16.098c0,8.893-7.276,16.101-16.251,16.101
			c-6.667,0-12.393-3.98-14.9-9.668c-2.526-1.328-5.406-2.084-8.466-2.084c-7.129,0-13.294,4.082-16.251,10.013v-30.875
			C179.376,110.944,186.2,116.153,194.255,116.153z"/>
		<path id="path-5_151_" style="fill:#142A3B;" d="M41.458,112.264c-2.718,0-5.298-0.564-7.646-1.562
			C31.36,104.1,24.955,99.39,17.439,99.39C7.808,99.39,0,107.124,0,116.666s7.808,17.277,17.439,17.277
			c7.155,0,13.299-4.269,15.989-10.375c2.712-1.425,5.801-2.236,9.085-2.236c7.651,0,14.267,4.381,17.439,10.744V98.945
			C57.424,106.674,50.102,112.264,41.458,112.264z"/>
		<path id="path-6_149_" style="opacity:0.55;fill:#020403;enable-background:new    ;" d="M232.579,117.224
			c-0.128-0.642-0.334-1.252-0.538-1.861c-0.093-0.289-0.163-0.587-0.272-0.869c-0.32-0.801-0.705-1.572-1.146-2.306
			c-0.027-0.046-0.048-0.093-0.076-0.14c-0.481-0.783-1.024-1.529-1.626-2.224c0.213,1.042,0.328,2.118,0.328,3.222
			c0,8.891-7.276,16.099-16.251,16.099c-6.667,0-12.393-3.978-14.9-9.668c-2.526-1.328-5.406-2.083-8.466-2.083
			c-1.75,0-3.404,0.327-4.999,0.791v-4.835c-3.548-2.218-6.295-5.579-7.613-9.608v18.777v7.065v5.033
			c0.456-0.914,1.01-1.765,1.61-2.583c0.067-0.089,0.138-0.173,0.207-0.261c0.597-0.783,1.255-1.511,1.971-2.187l0.001-0.002l0,0
			c1.144-1.079,2.425-2.006,3.824-2.762v-0.001l0.002-0.001c0.626-0.338,1.267-0.641,1.934-0.905
			c0.066-0.027,0.134-0.048,0.201-0.074c0.605-0.231,1.218-0.444,1.853-0.611c0.253-0.069,0.516-0.111,0.774-0.168
			c0.481-0.104,0.957-0.219,1.452-0.285c0.792-0.11,1.599-0.173,2.422-0.173c0.765,0,1.519,0.047,2.258,0.139
			c1.48,0.183,2.904,0.543,4.25,1.058c0.673,0.257,1.327,0.555,1.958,0.887c0.627,1.421,1.455,2.738,2.448,3.911
			c1.491,1.758,3.353,3.197,5.468,4.198c2.116,0.998,4.484,1.558,6.984,1.558c6.731,0,12.506-4.055,14.974-9.832
			c0.822-1.927,1.277-4.044,1.277-6.268C232.888,119.217,232.769,118.208,232.579,117.224z"/>
		<path id="path-7_149_" style="fill:#FFFFFF;" d="M18.448,113.915c-2.271,2.251-5.954,2.251-8.226,0
			c-2.272-2.25-2.272-5.899,0-8.149c2.272-2.251,5.955-2.251,8.226,0C20.719,108.016,20.719,111.665,18.448,113.915z"/>
		<path id="path-8_146_" style="opacity:0.55;fill:#020403;enable-background:new    ;" d="M7.278,113.061
			c0-5.343,2.5-10.058,6.345-13.227C5.832,101.561,0,108.427,0,116.666c0,9.542,7.808,17.277,17.439,17.277
			c4.288,0,8.195-1.557,11.231-4.1c-1.275,0.295-2.587,0.494-3.953,0.494C15.086,130.337,7.278,122.603,7.278,113.061z"/>
		<path id="path-9_140_" style="opacity:0.55;fill:#020403;enable-background:new    ;" d="M52.117,109.049v8.842
			c-0.764-0.092-1.536-0.164-2.326-0.164c-3.284,0-6.374,0.811-9.085,2.235c-0.238,0.542-0.535,1.048-0.826,1.558h0.001
			c0.862-0.116,1.738-0.188,2.632-0.188c0.902,0,1.787,0.067,2.653,0.189c0.61,0.083,1.197,0.226,1.788,0.363
			c0.223,0.054,0.454,0.086,0.675,0.147c0.762,0.206,1.497,0.468,2.219,0.761c0.026,0.01,0.053,0.018,0.079,0.029
			c0.757,0.311,1.484,0.671,2.19,1.07l0,0l0,0c2.21,1.252,4.135,2.913,5.693,4.89l0,0l0.002,0.003
			c0.378,0.478,0.743,0.966,1.074,1.48c0.39,0.582,0.752,1.182,1.067,1.812v-11.491c-0.673-0.41-1.38-0.769-2.104-1.098v-13.19
			c0.717-0.373,1.445-0.736,2.104-1.199v-6.153c-0.263,0.804-0.595,1.575-0.97,2.32C57.452,104.448,55.065,107.123,52.117,109.049z"
			/>
		<path id="path-10_127_" style="fill:#0CB04A;" d="M177.535,141.797H57.849V91.091h119.686V141.797z"/>
		<path id="path-11_111_" style="opacity:0.25;fill:#020403;enable-background:new    ;" d="M166.617,91.091v27.238
			c0,6.988-5.718,12.653-12.772,12.653H57.849v10.815h119.685V91.091H166.617z"/>
		<path id="path-12_94_" style="fill:#FFFFFF;" d="M147.072,105.629H85.817c-2.01,0-3.639-1.614-3.639-3.605
			c0-1.99,1.629-3.604,3.639-3.604h61.255c2.009,0,3.638,1.614,3.638,3.604C150.71,104.015,149.081,105.629,147.072,105.629z"/>
	</g>
</g>
<g>
</g>
<g>
</g>
<g>
</g>
<g>
</g>
<g>
</g>
<g>
</g>
<g>
</g>
<g>
</g>
<g>
</g>
<g>
</g>
<g>
</g>
<g>
</g>
<g>
</g>
<g>
</g>
<g>
</g>
</svg>
