<?xml version="1.0" encoding="UTF-8" standalone="no"?>
<!-- Generator: Adobe Illustrator 19.1.0, SVG Export Plug-In . SVG Version: 6.00 Build 0)  -->

<svg
   xmlns:dc="http://purl.org/dc/elements/1.1/"
   xmlns:cc="http://creativecommons.org/ns#"
   xmlns:rdf="http://www.w3.org/1999/02/22-rdf-syntax-ns#"
   xmlns:svg="http://www.w3.org/2000/svg"
   xmlns="http://www.w3.org/2000/svg"
   xmlns:sodipodi="http://sodipodi.sourceforge.net/DTD/sodipodi-0.dtd"
   xmlns:inkscape="http://www.inkscape.org/namespaces/inkscape"
   version="1.1"
   id="Capa_1"
   x="0px"
   y="0px"
   viewBox="0 0 217.221 217.221"
   style="enable-background:new 0 0 217.221 217.221;"
   xml:space="preserve"
   inkscape:version="0.91 r13725"
   sodipodi:docname="roofing.svg"><metadata
     id="metadata3405"><rdf:RDF><cc:Work
         rdf:about=""><dc:format>image/svg+xml</dc:format><dc:type
           rdf:resource="http://purl.org/dc/dcmitype/StillImage" /><dc:title></dc:title></cc:Work></rdf:RDF></metadata><defs
     id="defs3403" /><sodipodi:namedview
     pagecolor="#ffffff"
     bordercolor="#666666"
     borderopacity="1"
     objecttolerance="10"
     gridtolerance="10"
     guidetolerance="10"
     inkscape:pageopacity="0"
     inkscape:pageshadow="2"
     inkscape:window-width="1600"
     inkscape:window-height="837"
     id="namedview3401"
     showgrid="false"
     inkscape:zoom="3.0752092"
     inkscape:cx="51.541209"
     inkscape:cy="108.6105"
     inkscape:window-x="-8"
     inkscape:window-y="-8"
     inkscape:window-maximized="1"
     inkscape:current-layer="Capa_1" /><g
     id="g3356"><g
       id="group-18svg"><path
         id="path-1_70_"
         style="fill:#0CB04A;"
         d="M71.078,193.586H52.214c-3.637,0-6.585,1.689-6.585,3.771    c0,2.083,2.948,3.771,6.585,3.771h0.878c3.637,0,6.586,1.689,6.586,3.771c0,2.083-2.949,3.77-6.586,3.77h-40.55    c-3.638,0-6.586,1.689-6.586,3.772c0,2.082,2.948,3.77,6.586,3.77h48.731h99.607c3.638,0,6.585-1.688,6.585-3.77    c0-2.083-2.947-3.772-6.585-3.772h-11.254c-3.637,0-6.586-1.687-6.586-3.77c0-2.082,2.949-3.771,6.586-3.771h44.201    c3.637,0,6.586-1.688,6.586-3.771c0-2.082-2.949-3.771-6.586-3.771h-3.299H71.078z" /><path
         id="path-2_70_"
         style="fill:#0CB04A;"
         d="M188.069,217.221c-3.05,0-5.521-1.809-5.521-4.041    c0-2.232,2.471-4.041,5.521-4.041h16.919c3.049,0,5.521,1.809,5.521,4.041c0,2.232-2.472,4.041-5.521,4.041H188.069z" /><path
         id="path-3_70_"
         style="fill:#142A3B;"
         d="M170.1,56.364h-26.99V19.718h26.99V56.364z" /><path
         id="path-4_70_"
         style="opacity:0.35;fill:#090908;enable-background:new    ;"
         d="M143.11,56.365h26.989V38.673    L143.11,20.981V56.365z" /><path
         id="path-9_43_"
         style="fill:#2476FF;"
         d="M16.651,84.268L113.958,0l97.307,84.268H16.651z" /><path
         id="path-10_39_"
         style="opacity:0.35;fill:#090908;enable-background:new    ;"
         d="M113.958,0l-6.803,5.892l67.51,58.463    c6.527,5.653,2.53,16.374-6.105,16.374H20.737l-4.086,3.539h194.614L113.958,0z" /><path
         id="path-12_28_"
         style="fill:#EDEDED;"
         d="M49.852,72.001c-1.015,0-2.025-0.425-2.741-1.251    c-1.308-1.514-1.142-3.8,0.37-5.108l48.064-41.566c1.518-1.309,3.8-1.145,5.108,0.369c1.308,1.512,1.142,3.798-0.37,5.106    L52.219,71.119C51.532,71.711,50.691,72.001,49.852,72.001z" /></g></g><g
     id="g3371" /><g
     id="g3373" /><g
     id="g3375" /><g
     id="g3377" /><g
     id="g3379" /><g
     id="g3381" /><g
     id="g3383" /><g
     id="g3385" /><g
     id="g3387" /><g
     id="g3389" /><g
     id="g3391" /><g
     id="g3393" /><g
     id="g3395" /><g
     id="g3397" /><g
     id="g3399" /></svg>