<?xml version="1.0" encoding="iso-8859-1"?>
<!-- Generator: Adobe Illustrator 19.1.0, SVG Export Plug-In . SVG Version: 6.00 Build 0)  -->
<svg version="1.1" id="Capa_1" xmlns="http://www.w3.org/2000/svg" xmlns:xlink="http://www.w3.org/1999/xlink" x="0px" y="0px"
	 viewBox="0 0 217.228 217.228" style="enable-background:new 0 0 217.228 217.228;" xml:space="preserve">
<g>
	<g id="group-29svg">
		<path id="path-1_82_" style="fill:#FF3A2F;" d="M81.874,186.281h10.048c1.938,0,3.508-1.286,3.508-2.875
			c0-1.587-1.57-2.874-3.508-2.874h-0.467c-1.938,0-3.509-1.287-3.509-2.874c0-1.589,1.571-2.876,3.509-2.876h21.601
			c1.938,0,3.508-1.287,3.508-2.875c0-1.587-1.57-2.875-3.508-2.875h-25.96H34.035c-1.937,0-3.508,1.288-3.508,2.875
			c0,1.588,1.571,2.875,3.508,2.875h5.995c1.938,0,3.509,1.287,3.509,2.876c0,1.587-1.571,2.874-3.509,2.874H11.498
			c-1.937,0-3.508,1.287-3.508,2.874c0,1.589,1.571,2.875,3.508,2.875h6.743H81.874z"/>
		<path id="path-2_82_" style="fill:#FF3A2F;" d="M188.262,188.906h5.311c1.024,0,1.854-0.632,1.854-1.412
			c0-0.779-0.83-1.411-1.854-1.411h-0.247c-1.024,0-1.854-0.632-1.854-1.412c0-0.779,0.83-1.411,1.854-1.411h11.417
			c1.024,0,1.854-0.632,1.854-1.411c0-0.78-0.83-1.412-1.854-1.412h-13.72h-28.044c-1.024,0-1.854,0.632-1.854,1.412
			c0,0.779,0.83,1.411,1.854,1.411h3.168c1.025,0,1.855,0.632,1.855,1.411c0,0.78-0.83,1.412-1.855,1.412h-15.079
			c-1.024,0-1.854,0.632-1.854,1.411c0,0.78,0.83,1.412,1.854,1.412h3.564H188.262z"/>
		<path id="path-3_82_" style="fill:#FF3A2F;" d="M16.056,168.833c2.182,0,3.951,1.418,3.951,3.169c0,1.749-1.769,3.168-3.951,3.168
			H3.95c-2.182,0-3.95-1.419-3.95-3.168c0-1.751,1.768-3.169,3.95-3.169H16.056z"/>
		<path id="path-4_82_" style="fill:#FF3A2F;" d="M129.596,183.112c2.182,0,3.951,1.42,3.951,3.169c0,1.75-1.769,3.169-3.951,3.169
			H117.49c-2.182,0-3.95-1.419-3.95-3.169c0-1.749,1.768-3.169,3.95-3.169H129.596z"/>
		<path id="path-5_81_" style="fill:#0CB04A;" d="M212.809,172.456H58.422c-2.441,0-4.419-1.979-4.419-4.42v-51.595
			c0-2.44,1.978-4.418,4.419-4.418h154.387c2.441,0,4.419,1.978,4.419,4.418v51.596C217.228,170.477,215.25,172.456,212.809,172.456
			z"/>
		<path id="path-6_78_" style="opacity:0.35;fill:#090908;enable-background:new    ;" d="M204.62,112.073
			c0.442,1.315,0.737,2.696,0.737,4.159v34.209c0,7.24-5.871,13.111-13.113,13.111H55.245c-0.173,0-0.334-0.044-0.505-0.051
			c1.746,5.19,6.597,8.955,12.376,8.955h136.999c7.242,0,13.113-5.872,13.113-13.113v-34.209
			C217.228,118.067,211.622,112.345,204.62,112.073z"/>
		<path id="path-7_77_" style="opacity:0.35;fill:#090908;enable-background:new    ;" d="M99.822,145.206
			c0,5.52-4.475,9.993-9.994,9.993c-5.519,0-9.994-4.473-9.994-9.993c0-5.519,4.475-9.993,9.994-9.993
			C95.347,135.213,99.822,139.687,99.822,145.206z"/>
		<path id="path-8_58_" style="fill:#142A3B;" d="M96.854,142.239c0,5.519-4.475,9.993-9.994,9.993
			c-5.519,0-9.994-4.474-9.994-9.993s4.475-9.993,9.994-9.993C92.379,132.246,96.854,136.72,96.854,142.239z"/>
		<path id="path-9_51_" style="fill:#EDEDED;" d="M111.238,147.998L111.238,147.998c-1.659,0-3.003-1.345-3.003-3.004v-6.273
			c0-1.658,1.344-3.002,3.003-3.002l0,0c1.658,0,3.003,1.344,3.003,3.002v6.273C114.241,146.653,112.896,147.998,111.238,147.998z"
			/>
		<path id="path-10_47_" style="fill:#EDEDED;" d="M145.154,147.998L145.154,147.998c-1.658,0-3.002-1.345-3.002-3.004v-6.273
			c0-1.658,1.344-3.002,3.002-3.002l0,0c1.659,0,3.004,1.344,3.004,3.002v6.273C148.158,146.653,146.813,147.998,145.154,147.998z"
			/>
		<path id="path-11_39_" style="fill:#EDEDED;" d="M128.196,147.998L128.196,147.998c-1.658,0-3.003-1.345-3.003-3.004v-6.273
			c0-1.658,1.345-3.002,3.003-3.002l0,0c1.659,0,3.004,1.344,3.004,3.002v6.273C131.2,146.653,129.855,147.998,128.196,147.998z"/>
		<path id="path-12_34_" style="fill:#0CB04A;" d="M181.368,84.305h-6.36V27.778h6.36V84.305z"/>
		<path id="path-13_28_" style="fill:#142A3B;" d="M187.374,112.023h-18.372v-36.55h18.372V112.023z"/>
		<path id="path-14_24_" style="opacity:0.35;fill:#090908;enable-background:new    ;" d="M187.374,112.023h-18.372V108.2
			l18.372-5.935V112.023z"/>
		<path id="path-15_22_" style="opacity:0.35;fill:#090908;enable-background:new    ;" d="M181.368,75.473h-6.36V73.44l6.36-2.032
			V75.473z"/>
	</g>
</g>
<g>
</g>
<g>
</g>
<g>
</g>
<g>
</g>
<g>
</g>
<g>
</g>
<g>
</g>
<g>
</g>
<g>
</g>
<g>
</g>
<g>
</g>
<g>
</g>
<g>
</g>
<g>
</g>
<g>
</g>
</svg>
