<?xml version="1.0" encoding="iso-8859-1"?>
<!-- Generator: Adobe Illustrator 19.1.0, SVG Export Plug-In . SVG Version: 6.00 Build 0)  -->
<svg version="1.1" id="Capa_1" xmlns="http://www.w3.org/2000/svg" xmlns:xlink="http://www.w3.org/1999/xlink" x="0px" y="0px"
	 viewBox="0 0 217.229 217.229" style="enable-background:new 0 0 217.229 217.229;" xml:space="preserve">
<g>
	<g id="group-87svg">
		<path id="path-1_146_" style="fill:#0CB04A;" d="M116.215,132.76H102.08c-2.725,0-4.934,2.257-4.934,5.041
			c0,2.786,2.209,5.043,4.934,5.043h0.658c2.726,0,4.935,2.258,4.935,5.042c0,2.785-2.209,5.042-4.935,5.042H72.353
			c-2.725,0-4.934,2.257-4.934,5.043c0,2.784,2.209,5.041,4.934,5.041h36.515h74.636c2.725,0,4.935-2.257,4.935-5.041
			c0-2.786-2.21-5.043-4.935-5.043h-8.433c-2.725,0-4.934-2.257-4.934-5.042c0-2.784,2.209-5.042,4.934-5.042h33.121
			c2.724,0,4.934-2.257,4.934-5.043c0-2.784-2.21-5.041-4.934-5.041h-2.472H116.215z"/>
		<path id="path-2_146_" style="fill:#0CB04A;" d="M203.101,163.465c-1.92,0-3.476-1.596-3.476-3.567
			c0-1.968,1.556-3.565,3.476-3.565h10.651c1.921,0,3.477,1.597,3.477,3.565c0,1.971-1.556,3.567-3.477,3.567H203.101z"/>
		<path id="path-3_146_" style="fill:#FBB713;" d="M30.254,109.73V53.765H0v83.193h196.645V109.73H30.254z"/>
		<path id="path-4_146_" style="opacity:0.2;enable-background:new    ;" d="M6.051,130.906V53.765H0v83.193h196.645v-6.052H6.051z"
			/>
		<path id="path-5_145_" style="fill:#142A3B;" d="M47.397,136.958h-5.295v-13.109h5.295V136.958z"/>
		<path id="path-6_142_" style="fill:#142A3B;" d="M77.649,136.958h-5.294v-13.109h5.294V136.958z"/>
		<path id="path-7_138_" style="fill:#142A3B;" d="M107.903,136.958h-5.295v-13.109h5.295V136.958z"/>
		<path id="path-8_114_" style="fill:#142A3B;" d="M0,64.731v-5.294h13.11v5.294H0z"/>
		<path id="path-9_99_" style="fill:#142A3B;" d="M0,94.982v-5.293h13.11v5.293H0z"/>
		<path id="path-10_90_" style="fill:#142A3B;" d="M0,125.235v-5.295h13.11v5.295H0z"/>
		<path id="path-11_78_" style="fill:#142A3B;" d="M138.155,136.958h-5.293v-13.109h5.293V136.958z"/>
		<path id="path-12_68_" style="fill:#142A3B;" d="M168.408,136.958h-5.294v-13.109h5.294V136.958z"/>
	</g>
</g>
<g>
</g>
<g>
</g>
<g>
</g>
<g>
</g>
<g>
</g>
<g>
</g>
<g>
</g>
<g>
</g>
<g>
</g>
<g>
</g>
<g>
</g>
<g>
</g>
<g>
</g>
<g>
</g>
<g>
</g>
</svg>
