<?xml version="1.0" encoding="iso-8859-1"?>
<!-- Generator: Adobe Illustrator 19.1.0, SVG Export Plug-In . SVG Version: 6.00 Build 0)  -->
<svg version="1.1" id="Capa_1" xmlns="http://www.w3.org/2000/svg" xmlns:xlink="http://www.w3.org/1999/xlink" x="0px" y="0px"
	 viewBox="0 0 218.333 218.333" style="enable-background:new 0 0 218.333 218.333;" xml:space="preserve">
<g>
	<g id="group-164svg">
		<path id="path-1_72_" style="fill:#142A3B;" d="M23.496,151.369l53.839-136.05L33.8,154.94c-0.89,2.855-3.949,4.456-6.832,3.574
			c-2.881-0.884-4.496-3.913-3.606-6.768C23.401,151.623,23.449,151.487,23.496,151.369z"/>
		<path id="path-2_72_" style="fill:#142A3B;" d="M82.709,192.329c-0.92,0-1.843-0.345-2.551-1.036
			c-1.431-1.397-1.453-3.678-0.043-5.098l79.229-79.772c1.403-1.419,3.712-1.439,5.143-0.041c1.434,1.397,1.455,3.68,0.043,5.098
			l-79.226,79.771C84.594,191.969,83.652,192.329,82.709,192.329z"/>
		<path id="path-3_72_" style="fill:#FF3A2F;" d="M57.994,128.708c-15.294,0-28.548,8.647-35.055,21.274
			c-2.735,5.308-4.276,11.321-4.276,17.69c0,21.519,17.608,38.965,39.331,38.965c21.722,0,39.331-17.446,39.331-38.965
			C97.325,146.152,79.716,128.708,57.994,128.708z M57.994,183.463c-8.803,0-15.939-7.07-15.939-15.791
			c0-2.581,0.625-5.018,1.733-7.169c2.636-5.117,8.008-8.621,14.206-8.621c8.802,0,15.939,7.069,15.939,15.79
			C73.933,176.393,66.796,183.463,57.994,183.463z"/>
		<path id="path-4_72_" style="opacity:0.35;fill:#020403;enable-background:new    ;" d="M44.603,176.184
			c-1.596-2.46-2.548-5.37-2.548-8.512c0-2.581,0.625-5.018,1.733-7.169c2.636-5.117,8.008-8.621,14.206-8.621
			c3.171,0,6.109,0.942,8.591,2.525c-2.834-4.368-7.757-7.278-13.39-7.278c-6.197,0-11.569,3.503-14.206,8.621
			c-1.109,2.151-1.733,4.587-1.733,7.168C37.256,168.497,40.194,173.374,44.603,176.184z"/>
		<path id="path-5_72_" style="opacity:0.35;fill:#020403;enable-background:new    ;" d="M83.291,137.857
			c5.756,6.775,9.236,15.513,9.236,25.061c0,21.52-17.609,38.965-39.332,38.965c-9.639,0-18.459-3.448-25.3-9.151
			c7.216,8.495,18.016,13.905,30.099,13.905c21.722,0,39.331-17.446,39.331-38.965C97.325,155.702,91.866,145.005,83.291,137.857z"
			/>
		<path id="path-6_71_" style="fill:#0CB04A;" d="M156.445,4.497c-26.251,1.352-60.03,29.147-58.666,55.152
			c0.703,13.379,23.985,8.719,36.729,18.765c12.026,9.478,13.17,34.076,25.913,33.42c26.252-1.351,47.39-36.692,46.025-62.698
			C205.083,23.132,182.697,3.146,156.445,4.497z M159.894,70.221c-10.391,0.536-19.252-7.375-19.791-17.669
			c-0.542-10.294,7.444-19.072,17.835-19.607c10.391-0.535,19.252,7.376,19.792,17.671C178.27,60.908,170.284,69.686,159.894,70.221
			z"/>
		<path id="path-7_71_" style="opacity:0.35;fill:#020403;enable-background:new    ;" d="M153.977,33.589
			c-1.805-0.46-3.676-0.744-5.636-0.644c-10.391,0.535-18.377,9.313-17.836,19.607c0.539,10.294,9.401,18.205,19.792,17.669
			c1.37-0.069,2.69-0.301,3.961-0.643c-7.767-1.975-13.718-8.673-14.155-17.026C139.634,43.615,145.599,35.838,153.977,33.589z"/>
		<path id="path-8_68_" style="opacity:0.35;fill:#020403;enable-background:new    ;" d="M156.445,4.497
			c-0.719,0.037-1.461,0.167-2.189,0.243c22.924,2.348,41.361,20.882,42.593,44.396c1.269,24.176-16.92,56.382-40.575,61.885
			c1.242,0.587,2.607,0.892,4.147,0.813c26.252-1.351,47.39-36.692,46.025-62.698C205.083,23.132,182.697,3.146,156.445,4.497z"/>
		<path id="path-9_65_" style="fill:#FBB713;" d="M178.116,188.541h11.649c2.247,0,4.067,1.863,4.067,4.164
			c0,2.299-1.82,4.163-4.067,4.163h-0.541c-2.246,0-4.068,1.866-4.068,4.165c0,2.3,1.822,4.164,4.068,4.164h25.042
			c2.246,0,4.067,1.864,4.067,4.165c0,2.299-1.821,4.164-4.067,4.164h-30.095h-61.512c-2.246,0-4.066-1.865-4.066-4.164
			c0-2.301,1.82-4.165,4.066-4.165h6.95c2.246,0,4.067-1.864,4.067-4.164c0-2.299-1.821-4.165-4.067-4.165H96.533
			c-2.246,0-4.067-1.864-4.067-4.163c0-2.301,1.821-4.164,4.067-4.164h7.817H178.116z"/>
		<path id="path-10_60_" style="fill:#FBB713;" d="M77.857,213.9c2.779,0,5.032-0.959,5.032-2.142c0-1.182-2.253-2.143-5.032-2.143
			h-15.42c-2.779,0-5.032,0.961-5.032,2.143c0,1.183,2.253,2.142,5.032,2.142H77.857z"/>
		<path id="path-11_52_" style="fill:#FBB713;" d="M195.625,146.881h4.581c0.883,0,1.6,0.928,1.6,2.072s-0.717,2.071-1.6,2.071
			h-0.213c-0.884,0-1.599,0.927-1.599,2.071s0.715,2.07,1.599,2.07h9.85c0.882,0,1.599,0.929,1.599,2.072
			c0,1.143-0.717,2.07-1.599,2.07h-11.837h-24.195c-0.883,0-1.599-0.927-1.599-2.07c0-1.143,0.716-2.072,1.599-2.072h2.735
			c0.883,0,1.599-0.926,1.599-2.07s-0.716-2.071-1.599-2.071h-13.009c-0.884,0-1.599-0.927-1.599-2.071s0.715-2.072,1.599-2.072
			h3.074H195.625z"/>
		<path id="path-12_43_" style="fill:#FBB713;" d="M27.323,88.061h3.715c0.717,0,1.298,0.752,1.298,1.68
			c0,0.927-0.581,1.68-1.298,1.68h-0.173c-0.715,0-1.297,0.752-1.297,1.679s0.582,1.68,1.297,1.68h7.989
			c0.717,0,1.297,0.752,1.297,1.68s-0.58,1.679-1.297,1.679h-9.6H9.632c-0.717,0-1.297-0.751-1.297-1.679s0.58-1.68,1.297-1.68
			h2.216c0.717,0,1.298-0.753,1.298-1.68s-0.581-1.679-1.298-1.679H1.298C0.581,91.421,0,90.668,0,89.741
			c0-0.928,0.581-1.68,1.298-1.68h2.493H27.323z"/>
	</g>
</g>
<g>
</g>
<g>
</g>
<g>
</g>
<g>
</g>
<g>
</g>
<g>
</g>
<g>
</g>
<g>
</g>
<g>
</g>
<g>
</g>
<g>
</g>
<g>
</g>
<g>
</g>
<g>
</g>
<g>
</g>
</svg>
