<?xml version="1.0" encoding="iso-8859-1"?>
<!-- Generator: Adobe Illustrator 19.1.0, SVG Export Plug-In . SVG Version: 6.00 Build 0)  -->
<svg version="1.1" id="Capa_1" xmlns="http://www.w3.org/2000/svg" xmlns:xlink="http://www.w3.org/1999/xlink" x="0px" y="0px"
	 viewBox="0 0 218.333 218.333" style="enable-background:new 0 0 218.333 218.333;" xml:space="preserve">
<g>
	<g id="group-136svg">
		<path id="path-1_41_" style="fill:#0CB04A;" d="M158.093,194.004h17.449c3.365,0,6.091,1.603,6.091,3.581
			s-2.726,3.581-6.091,3.581h-0.812c-3.365,0-6.092,1.604-6.092,3.581c0,1.979,2.727,3.583,6.092,3.583h37.511
			c3.364,0,6.092,1.603,6.092,3.581s-2.728,3.58-6.092,3.58h-45.079h-49.546c-3.364,0-6.092-1.602-6.092-3.58
			s2.728-3.581,6.092-3.581h10.41c3.365,0,6.092-1.604,6.092-3.583c0-1.977-2.727-3.581-6.092-3.581H78.481
			c-3.365,0-6.092-1.603-6.092-3.581s2.727-3.581,6.092-3.581h11.71H158.093z"/>
		<path id="path-2_41_" style="fill:#0CB04A;" d="M27.68,189.248h5.636c1.087,0,1.968,1.604,1.968,3.581
			c0,1.978-0.881,3.582-1.968,3.582h-0.262c-1.087,0-1.968,1.601-1.968,3.581c0,1.977,0.881,3.58,1.968,3.58h12.115
			c1.087,0,1.967,1.604,1.967,3.582c0,1.977-0.88,3.582-1.967,3.582h-14.56H14.608c-1.087,0-1.968-1.605-1.968-3.582
			c0-1.978,0.881-3.582,1.968-3.582h3.362c1.087,0,1.968-1.603,1.968-3.58c0-1.98-0.881-3.581-1.968-3.581H1.968
			c-1.087,0-1.968-1.604-1.968-3.582c0-1.977,0.881-3.581,1.968-3.581H5.75H27.68z"/>
		<path id="path-3_41_" style="fill:#0CB04A;" d="M81.315,217.668c3.454,0,6.254-1.711,6.254-3.821s-2.8-3.822-6.254-3.822H62.144
			c-3.455,0-6.255,1.712-6.255,3.822s2.8,3.821,6.255,3.821H81.315z"/>
		<path id="path-4_41_" style="fill:#FBB713;" d="M79.694,153.45l53.33-14.935L104.162,16.711l-27.031,0.425
			C77.131,17.136,62.06,79.02,79.694,153.45z"/>
		<path id="path-5_41_" style="opacity:0.25;fill:#020403;enable-background:new    ;" d="M89.25,119.976
			c-7.349-46.388-2.961-85.244-0.026-102.975l-8.571,0.135c0,0-15.07,61.884,2.563,136.314l49.808-14.935l-1.669-7.041
			l-15.776,4.831C103.618,139.968,91.19,132.228,89.25,119.976z"/>
		<path id="path-6_41_" style="fill:#142A3B;" d="M104.774,132.797c-23.072,0-39.97-8.669-41.025-9.224
			c-1.774-0.932-2.448-3.109-1.511-4.867c0.941-1.758,3.131-2.431,4.919-1.505c0.358,0.188,36.325,18.518,73.58-0.034
			c1.809-0.892,3.984-0.172,4.887,1.603c0.902,1.779,0.177,3.946-1.617,4.84C130.175,130.498,116.655,132.797,104.774,132.797z"/>
		<path id="path-7_41_" style="fill:#FF3A2F;" d="M1.554,142.772c0,0,4.85,31.013,101.558,37.905h60.184v15.506h-60.184
			C6.404,189.293,1.554,158.279,1.554,158.279V142.772z"/>
		<path id="path-8_41_" style="opacity:0.35;fill:#020403;enable-background:new    ;" d="M159.773,180.677v5.039H99.589
			c-68.177-4.859-90.68-21.697-98.035-31.213v3.776c0,0,4.85,31.014,101.558,37.904h60.184v-15.506H159.773z"/>
		<path id="path-9_38_" style="fill:#142A3B;" d="M82.423,173.083c-1.714,0-3.241-1.205-3.572-2.932
			C77.867,165.028,55.053,44.196,79.27,2.474c1.003-1.725,3.234-2.324,4.968-1.328c1.745,0.993,2.346,3.195,1.344,4.922
			c-22.893,39.43,0.184,161.51,0.419,162.738c0.376,1.956-0.921,3.843-2.896,4.214C82.877,173.064,82.647,173.083,82.423,173.083z"
			/>
	</g>
</g>
<g>
</g>
<g>
</g>
<g>
</g>
<g>
</g>
<g>
</g>
<g>
</g>
<g>
</g>
<g>
</g>
<g>
</g>
<g>
</g>
<g>
</g>
<g>
</g>
<g>
</g>
<g>
</g>
<g>
</g>
</svg>
