<?xml version="1.0" encoding="iso-8859-1"?>
<!-- Generator: Adobe Illustrator 19.1.0, SVG Export Plug-In . SVG Version: 6.00 Build 0)  -->
<svg version="1.1" id="Capa_1" xmlns="http://www.w3.org/2000/svg" xmlns:xlink="http://www.w3.org/1999/xlink" x="0px" y="0px"
	 viewBox="0 0 216.29 216.29" style="enable-background:new 0 0 216.29 216.29;" xml:space="preserve">
<g>
	<g id="group-142svg">
		<path id="path-1_48_" style="fill:#EDEDED;" d="M100.739,166.851c0,6.198-4.993,11.214-11.149,11.214H33.837
			c-6.161,0-11.151-5.016-11.151-11.214V87.42c0-6.197,4.99-11.213,11.151-11.213H89.59c6.156,0,11.149,5.016,11.149,11.213V166.851
			z"/>
		<path id="path-2_48_" style="opacity:0.25;fill:#010101;enable-background:new    ;" d="M89.591,76.207H33.837
			c-5.841,0-10.574,4.524-11.058,10.271h52.986c6.155,0,11.148,5.018,11.148,11.215v79.431c0,0.323-0.069,0.625-0.095,0.941h2.773
			c6.155,0,11.148-5.017,11.148-11.214V87.42C100.739,81.223,95.746,76.207,89.591,76.207z"/>
		<path id="path-3_48_" style="fill:#FF3A2F;" d="M61.71,44.088c-19.516,0-35.34,15.908-35.34,35.542h70.682
			C97.052,59.996,81.23,44.088,61.71,44.088z"/>
		<path id="path-4_48_" style="fill:#FFFFFF;" d="M35.256,69.705c-0.618,0-1.247-0.156-1.822-0.487
			c-1.738-0.999-2.331-3.206-1.322-4.927c2.37-4.044,5.764-7.428,9.808-9.784c1.737-1.007,3.962-0.434,4.982,1.283
			c1.016,1.717,0.437,3.926-1.293,4.935c-2.971,1.726-5.459,4.213-7.2,7.185C37.734,69.063,36.511,69.705,35.256,69.705z"/>
		<path id="path-5_48_" style="opacity:0.35;fill:#010101;enable-background:new    ;" d="M61.772,44.09
			c3.882,2.852,7.17,6.475,9.631,10.649c4.713,7.989-1.315,18.042-10.656,18.042H27.041C26.61,75,26.37,77.286,26.37,79.629h70.683
			C97.053,60.017,81.264,44.123,61.772,44.09z"/>
		<path id="path-6_48_" style="opacity:0.35;fill:#090909;enable-background:new    ;" d="M48.557,159.164
			c-1.63,0-2.956-1.31-2.956-2.929V94.673c0-1.617,1.326-2.926,2.956-2.926c1.632,0,2.957,1.309,2.957,2.926v61.562
			C51.514,157.854,50.189,159.164,48.557,159.164z"/>
		<path id="path-7_48_" style="opacity:0.35;fill:#090909;enable-background:new    ;" d="M76.663,159.164
			c-1.63,0-2.957-1.31-2.957-2.929V94.673c0-1.617,1.327-2.926,2.957-2.926c1.631,0,2.957,1.309,2.957,2.926v61.562
			C79.62,157.854,78.294,159.164,76.663,159.164z"/>
		<path id="path-8_48_" style="fill:#A72720;" d="M53.53,60.429c-2.666,0-4.837-2.161-4.837-4.819c0-2.656,2.171-4.818,4.837-4.818
			c2.665,0,4.833,2.162,4.833,4.818C58.363,58.268,56.195,60.429,53.53,60.429z M53.53,54.575c-0.594,0-1.081,0.464-1.081,1.035
			s0.487,1.037,1.081,1.037c0.593,0,1.076-0.466,1.076-1.037S54.123,54.575,53.53,54.575z"/>
		<path id="path-9_45_" style="fill:#A72720;" d="M69.808,60.429c-2.664,0-4.833-2.161-4.833-4.819c0-2.656,2.169-4.818,4.833-4.818
			c2.666,0,4.837,2.162,4.837,4.818C74.645,58.268,72.474,60.429,69.808,60.429z M69.808,54.575c-0.594,0-1.076,0.464-1.076,1.035
			s0.482,1.037,1.076,1.037s1.08-0.466,1.08-1.037S70.402,54.575,69.808,54.575z"/>
		<path id="path-10_41_" style="fill:#FBB713;" d="M131.29,11.219C131.29,5.023,136.283,0,142.439,0h55.752
			c6.162,0,11.155,5.023,11.155,11.219v79.433c0,6.195-4.993,11.213-11.155,11.213h-55.752c-6.156,0-11.149-5.018-11.149-11.213
			V11.219z"/>
		<path id="path-11_35_" style="fill:#FF3A2F;" d="M170.32,137.408c19.515,0,35.339-15.908,35.339-35.543h-70.682
			C134.977,121.5,150.8,137.408,170.32,137.408z"/>
		<path id="path-12_30_" style="opacity:0.25;fill:#010101;enable-background:new    ;" d="M198.191,0h-6.224
			c0.027,0.316,0.096,0.621,0.096,0.947v79.431c0,6.196-4.993,11.213-11.155,11.213h-49.523c0.482,5.748,5.218,10.274,11.054,10.274
			h55.752c6.162,0,11.155-5.018,11.155-11.214V11.22C209.346,5.023,204.353,0,198.191,0z"/>
		<path id="path-13_24_" style="opacity:0.35;fill:#010101;enable-background:new    ;" d="M191.161,101.865
			c-3.175,16.353-17.483,28.696-34.668,28.696c-2.884,0-5.671-0.386-8.353-1.041c6.064,4.927,13.774,7.888,22.18,7.888
			c19.515,0,35.338-15.908,35.338-35.543H191.161z"/>
		<path id="path-14_19_" style="fill:#FFFFFF;" d="M151.623,124.027c-0.622,0-1.247-0.155-1.823-0.487
			c-4.087-2.35-7.502-5.709-9.876-9.714c-1.016-1.716-0.436-3.925,1.294-4.934c1.737-1.008,3.962-0.435,4.982,1.283
			c1.742,2.936,4.25,5.403,7.253,7.131c1.737,0.999,2.331,3.205,1.321,4.929C154.096,123.385,152.878,124.027,151.623,124.027z"/>
		<path id="path-15_17_" style="opacity:0.35;fill:#090909;enable-background:new    ;" d="M183.47,86.325
			c-1.631,0-2.957-1.31-2.957-2.927V21.835c0-1.618,1.326-2.928,2.957-2.928c1.63,0,2.956,1.31,2.956,2.928v61.563
			C186.426,85.015,185.1,86.325,183.47,86.325z"/>
		<path id="path-16_14_" style="opacity:0.35;fill:#090909;enable-background:new    ;" d="M155.365,86.325
			c-1.632,0-2.957-1.31-2.957-2.927V21.835c0-1.618,1.325-2.928,2.957-2.928c1.631,0,2.957,1.31,2.957,2.928v61.563
			C158.322,85.015,156.996,86.325,155.365,86.325z"/>
		<path id="path-17_12_" style="fill:#FBB713;" d="M101.517,194.943h7.727c1.49,0,2.698-1.56,2.698-3.482
			c0-1.924-1.208-3.483-2.698-3.483h-0.359c-1.49,0-2.698-1.559-2.698-3.482c0-1.922,1.208-3.483,2.698-3.483h16.611
			c1.489,0,2.696-1.558,2.696-3.48c0-1.923-1.207-3.482-2.696-3.482h-19.962H64.732c-1.489,0-2.697,1.559-2.697,3.482
			c0,1.922,1.208,3.48,2.697,3.48h4.61c1.49,0,2.698,1.561,2.698,3.483c0,1.923-1.208,3.482-2.698,3.482h-21.94
			c-1.489,0-2.697,1.559-2.697,3.483c0,1.922,1.208,3.482,2.697,3.482h5.187H101.517z"/>
		<path id="path-18_10_" style="fill:#FBB713;" d="M181.67,157.801v-4.928c0-0.951-1.178-1.721-2.632-1.721
			c-1.453,0-2.632,0.77-2.632,1.721v0.229c0,0.95-1.177,1.721-2.631,1.721c-1.453,0-2.632-0.771-2.632-1.721v-10.598
			c0-0.951-1.179-1.72-2.632-1.72c-1.453,0-2.631,0.769-2.631,1.72v12.737v26.031c0,0.95,1.178,1.721,2.631,1.721
			c1.453,0,2.632-0.771,2.632-1.721v-2.942c0-0.95,1.179-1.721,2.632-1.721c1.454,0,2.631,0.771,2.631,1.721v13.999
			c0,0.95,1.179,1.72,2.632,1.72c1.454,0,2.632-0.77,2.632-1.72v-3.309V157.801z"/>
		<path id="path-19_8_" style="fill:#FBB713;" d="M155.472,159.892v-2.419c0-0.468-0.579-0.846-1.292-0.846
			c-0.714,0-1.293,0.378-1.293,0.846v0.112c0,0.466-0.577,0.845-1.291,0.845s-1.293-0.379-1.293-0.845v-5.204
			c0-0.467-0.579-0.845-1.292-0.845c-0.713,0-1.291,0.378-1.291,0.845v6.253v12.781c0,0.467,0.578,0.845,1.291,0.845
			c0.713,0,1.292-0.378,1.292-0.845v-1.444c0-0.467,0.579-0.845,1.293-0.845s1.291,0.378,1.291,0.845v6.873
			c0,0.467,0.579,0.845,1.293,0.845c0.713,0,1.292-0.378,1.292-0.845v-1.624V159.892z"/>
		<path id="path-20_7_" style="fill:#FBB713;" d="M165.88,197.383c0-2.569,1.35-4.65,3.017-4.65c1.667,0,3.018,2.081,3.018,4.65
			v14.256c0,2.57-1.351,4.651-3.018,4.651c-1.667,0-3.017-2.081-3.017-4.651V197.383z"/>
		<path id="path-21_6_" style="fill:#FBB713;" d="M30.543,188.74c3.206,0,5.805,1.788,5.805,3.993c0,2.204-2.599,3.991-5.805,3.991
			H12.751c-3.207,0-5.807-1.787-5.807-3.991c0-2.205,2.6-3.993,5.807-3.993H30.543z"/>
		<path id="path-22_3_" style="fill:#FBB713;" d="M194.867,160.288c0-2.568,1.351-4.651,3.018-4.651
			c1.666,0,3.016,2.083,3.016,4.651v14.256c0,2.569-1.35,4.652-3.016,4.652c-1.667,0-3.018-2.083-3.018-4.652V160.288z"/>
	</g>
</g>
<g>
</g>
<g>
</g>
<g>
</g>
<g>
</g>
<g>
</g>
<g>
</g>
<g>
</g>
<g>
</g>
<g>
</g>
<g>
</g>
<g>
</g>
<g>
</g>
<g>
</g>
<g>
</g>
<g>
</g>
</svg>
