<?xml version="1.0" encoding="iso-8859-1"?>
<!-- Generator: Adobe Illustrator 19.1.0, SVG Export Plug-In . SVG Version: 6.00 Build 0)  -->
<svg version="1.1" id="Capa_1" xmlns="http://www.w3.org/2000/svg" xmlns:xlink="http://www.w3.org/1999/xlink" x="0px" y="0px"
	 viewBox="0 0 217.228 217.228" style="enable-background:new 0 0 217.228 217.228;" xml:space="preserve">
<g>
	<g id="group-92svg">
		<path id="path-1_152_" style="fill:#FF3A2F;" d="M59.423,172.96H42.782c-3.208,0-5.809,1.969-5.809,4.398
			c0,2.428,2.601,4.396,5.809,4.396h0.775c3.209,0,5.81,1.969,5.81,4.398c0,2.428-2.601,4.397-5.81,4.397H7.784
			c-3.209,0-5.81,1.968-5.81,4.397c0,2.428,2.601,4.397,5.81,4.397h42.99h87.872c3.209,0,5.81-1.969,5.81-4.397
			c0-2.429-2.601-4.397-5.81-4.397h-9.928c-3.209,0-5.81-1.969-5.81-4.397c0-2.429,2.601-4.398,5.81-4.398h38.994
			c3.208,0,5.81-1.968,5.81-4.396c0-2.429-2.602-4.398-5.81-4.398h-2.91H59.423z"/>
		<path id="path-2_152_" style="fill:#FF3A2F;" d="M162.632,200.52c-2.69,0-4.871-2.109-4.871-4.713
			c0-2.602,2.181-4.712,4.871-4.712h14.926c2.69,0,4.87,2.11,4.87,4.712c0,2.604-2.18,4.713-4.87,4.713H162.632z"/>
		<path id="path-3_152_" style="fill:#FF3A2F;" d="M34.895,159.331h4.747c0.915,0,1.657-0.813,1.657-1.816
			c0-1.005-0.742-1.818-1.657-1.818h-0.221c-0.916,0-1.657-0.813-1.657-1.817c0-1.003,0.741-1.817,1.657-1.817h10.202
			c0.915,0,1.657-0.813,1.657-1.817c0-1.004-0.742-1.817-1.657-1.817H37.362H12.301c-0.915,0-1.657,0.813-1.657,1.817
			c0,1.004,0.742,1.817,1.657,1.817h2.831c0.916,0,1.657,0.814,1.657,1.817c0,1.004-0.741,1.817-1.657,1.817H1.656
			c-0.914,0-1.656,0.813-1.656,1.818c0,1.003,0.742,1.816,1.656,1.816h3.185H34.895z"/>
		<path id="path-4_152_" style="fill:#FBB713;" d="M217.228,145.344c0,4.607-3.678,8.343-8.212,8.343h-41.07
			c-4.538,0-8.216-3.736-8.216-8.343V86.283c0-4.607,3.678-8.338,8.216-8.338h41.07c4.534,0,8.212,3.731,8.212,8.338V145.344z"/>
		<path id="path-5_151_" style="fill:#FF3A2F;" d="M188.478,51.516c-14.375,0-26.032,11.83-26.032,26.429h52.066
			C214.512,63.346,202.857,51.516,188.478,51.516z"/>
		<path id="path-6_148_" style="opacity:0.25;fill:#010101;enable-background:new    ;" d="M167.946,153.688h4.586
			c-0.021-0.237-0.071-0.462-0.071-0.706v-59.06c0-4.608,3.678-8.338,8.217-8.338h36.481c-0.356-4.273-3.845-7.639-8.143-7.639
			h-41.07c-4.538,0-8.217,3.732-8.217,8.338v59.062C159.729,149.951,163.408,153.688,167.946,153.688z"/>
		<path id="path-7_144_" style="opacity:0.35;fill:#010101;enable-background:new    ;" d="M173.125,77.945
			c2.339-12.16,12.88-21.336,25.538-21.336c2.124,0,4.177,0.286,6.153,0.773c-4.468-3.662-10.147-5.866-16.338-5.866
			c-14.375,0-26.032,11.83-26.032,26.429H173.125z"/>
		<path id="path-8_120_" style="fill:#FFFFFF;" d="M208.558,74.028c-1.241,0-2.45-0.638-3.126-1.787
			c-1.202-2.044-2.93-3.762-5.002-4.964c-1.729-1.002-2.318-3.219-1.314-4.948c1.007-1.729,3.219-2.318,4.948-1.313
			c3.147,1.826,5.779,4.439,7.612,7.56c1.013,1.722,0.437,3.941-1.288,4.954C209.813,73.867,209.181,74.028,208.558,74.028z"/>
		<path id="path-9_105_" style="opacity:0.35;fill:#010101;enable-background:new    ;" d="M178.791,140.391
			c-1.624,0-2.939-1.315-2.939-2.939V91.676c0-1.625,1.315-2.94,2.939-2.94c1.625,0,2.941,1.315,2.941,2.94v45.776
			C181.732,139.076,180.416,140.391,178.791,140.391z"/>
		<path id="path-10_94_" style="opacity:0.35;fill:#010101;enable-background:new    ;" d="M199.494,140.391
			c-1.624,0-2.939-1.315-2.939-2.939V91.676c0-1.625,1.315-2.94,2.939-2.94c1.625,0,2.94,1.315,2.94,2.94v45.776
			C202.434,139.076,201.119,140.391,199.494,140.391z"/>
		<path id="path-11_81_" style="fill:#142A3B;" d="M215.764,178.734H54.501v-14.437h161.263V178.734z"/>
		<path id="path-12_71_" style="fill:#142A3B;" d="M139.8,177.757h-9.335V27.446h9.335V177.757z"/>
		<path id="path-13_55_" style="fill:#142A3B;" d="M151.05,32.626c0,8.791-7.127,15.918-15.917,15.918
			c-8.792,0-15.919-7.127-15.919-15.918c0-8.79,7.127-15.918,15.919-15.918C143.923,16.708,151.05,23.836,151.05,32.626z"/>
		<path id="path-14_45_" style="opacity:0.35;fill:#010101;enable-background:new    ;" d="M135.133,16.708
			c-1.014,0-1.998,0.118-2.959,0.298c7.374,1.39,12.959,7.842,12.959,15.62s-5.585,14.231-12.959,15.62
			c0.961,0.181,1.945,0.298,2.959,0.298c8.791,0,15.917-7.126,15.917-15.918C151.05,23.836,143.924,16.708,135.133,16.708z"/>
		<path id="path-15_38_" style="fill:#FF3A2F;" d="M99.431,52.931V29.439H84.154v23.492c0,2.066-0.576,4.089-1.662,5.846
			l-16.091,26.03c-1.086,1.757-1.661,3.78-1.661,5.845v51.919c0,6.139,4.978,11.117,11.118,11.117h31.868
			c6.14,0,11.118-4.978,11.118-11.117V90.652c0-2.065-0.575-4.088-1.661-5.845l-16.092-26.03
			C100.006,57.02,99.431,54.997,99.431,52.931z"/>
		<path id="path-16_29_" style="opacity:0.35;fill:#010101;enable-background:new    ;" d="M117.183,84.807l-16.092-26.03
			c-1.085-1.757-1.66-3.78-1.66-5.846V29.439h-5.918v20.534c0,2.065,0.575,4.09,1.661,5.847l16.091,26.028
			c1.087,1.757,1.661,3.781,1.661,5.846v51.918c0,6.139-4.977,11.117-11.117,11.117H69.94c-0.618,0-1.213-0.085-1.803-0.182
			c2.001,1.936,4.717,3.141,7.721,3.141h31.868c6.14,0,11.118-4.978,11.118-11.117V90.652
			C118.844,88.588,118.269,86.564,117.183,84.807z"/>
		<path id="path-17_26_" style="fill:#142A3B;" d="M104.205,30.712H79.379V17.561h24.826V30.712z"/>
		<path id="path-18_17_" style="opacity:0.35;fill:#010101;enable-background:new    ;" d="M93.416,17.561v13.151h9.165V17.561
			H93.416z"/>
		<path id="path-19_15_" style="fill:#FFFFFF;" d="M118.844,130.865H80.07v-28.263h38.774V130.865z"/>
	</g>
</g>
<g>
</g>
<g>
</g>
<g>
</g>
<g>
</g>
<g>
</g>
<g>
</g>
<g>
</g>
<g>
</g>
<g>
</g>
<g>
</g>
<g>
</g>
<g>
</g>
<g>
</g>
<g>
</g>
<g>
</g>
</svg>
