<?xml version="1.0" encoding="iso-8859-1"?>
<!-- Generator: Adobe Illustrator 19.1.0, SVG Export Plug-In . SVG Version: 6.00 Build 0)  -->
<svg version="1.1" id="Capa_1" xmlns="http://www.w3.org/2000/svg" xmlns:xlink="http://www.w3.org/1999/xlink" x="0px" y="0px"
	 viewBox="0 0 220.875 220.875" style="enable-background:new 0 0 220.875 220.875;" xml:space="preserve">
<g>
	<g id="group-98svg">
		<path id="path-1_166_" style="fill:#FF3A2F;" d="M17.554,142.744c0,0,4.789,31.687,36.375,26.962
			c31.583-4.731,118.203-27.434,138.78-97.433c7.179-33.587-33.016-39.262-45.46-26.726c-12.441,12.531-25.094,36.915-44.03,47.534
			C82.339,104.79,11.096,109.163,17.554,142.744z"/>
		<path id="path-2_166_" style="fill:#FFFFFF;" d="M25.912,149.109c-1.713,0-3.24-1.204-3.571-2.93
			c-4.299-22.345,25.148-30.229,48.81-36.563c8.898-2.383,17.302-4.631,21.835-7.175c1.752-0.979,3.973-0.37,4.959,1.363
			c0.989,1.732,0.375,3.931-1.374,4.913c-5.333,2.989-13.761,5.246-23.521,7.859c-20.76,5.558-46.596,12.475-43.56,28.252
			c0.377,1.955-0.92,3.843-2.894,4.216C26.367,149.088,26.138,149.109,25.912,149.109z"/>
		<path id="path-3_166_" style="opacity:0.35;fill:#020403;enable-background:new    ;" d="M165.523,39.441
			c8.861,4.773,14.961,14.16,11.785,29.017c-20.577,70-107.196,92.702-138.779,97.433c-1.965,0.295-3.825,0.446-5.587,0.475
			c5.165,3.013,11.95,4.692,20.987,3.34c31.583-4.731,118.203-27.434,138.78-97.433C197.563,49.563,180.763,39.629,165.523,39.441z"
			/>
		<path id="path-4_165_" style="fill:#FF3A2F;" d="M176.318,41.251l-7.002-16.67l11.256,5.561l12.988-1.893l6.579,6.317
			l-22.831,7.036L176.318,41.251z"/>
		<path id="path-5_165_" style="opacity:0.35;fill:#020403;enable-background:new    ;" d="M172.872,30.142l5.946-0.867
			l-9.502-4.694l2.017,4.8L172.872,30.142z"/>
		<path id="path-6_163_" style="opacity:0.35;fill:#020403;enable-background:new    ;" d="M193.56,28.249l-6.685,0.974l5.563,5.343
			L175.68,39.73l0.638,1.521l0.99,0.351l22.831-7.036L193.56,28.249z"/>
		<path id="path-7_162_" style="fill:#FF3A2F;" d="M20.147,153.544L9.282,168.049l-0.959-12.405L0,145.613l2.105-8.828
			l17.843,15.737L20.147,153.544z"/>
		<path id="path-8_158_" style="opacity:0.35;fill:#020403;enable-background:new    ;" d="M18.809,151.517l-9.527,12.718
			L8.323,151.83l-7.616-9.181L0,145.613l8.323,10.031l0.959,12.405l10.865-14.505l-0.199-1.022L18.809,151.517z"/>
		<path id="path-9_152_" style="fill:#FBB713;" d="M83.181,179.46h15.791c3.044,0,5.512,1.098,5.512,2.453
			c0,1.353-2.468,2.45-5.512,2.45h-0.735c-3.045,0-5.513,1.098-5.513,2.453c0,1.354,2.468,2.452,5.513,2.452h33.944
			c3.044,0,5.512,1.097,5.512,2.452c0,1.355-2.468,2.452-5.512,2.452H91.389H46.553c-3.044,0-5.512-1.097-5.512-2.452
			c0-1.355,2.468-2.452,5.512-2.452h9.422c3.044,0,5.512-1.098,5.512-2.452c0-1.355-2.468-2.453-5.512-2.453H11.139
			c-3.044,0-5.512-1.097-5.512-2.45c0-1.355,2.468-2.453,5.512-2.453h10.597H83.181z"/>
		<path id="path-10_137_" style="fill:#FBB713;" d="M180.912,196.294c3.477,0,6.295-1.254,6.295-2.8s-2.818-2.799-6.295-2.799
			h-19.287c-3.477,0-6.294,1.253-6.294,2.799s2.817,2.8,6.294,2.8H180.912z"/>
		<path id="path-11_121_" style="fill:#FBB713;" d="M195.844,157.433h7.251c1.398,0,2.531,0.624,2.531,1.393
			c0,0.767-1.133,1.39-2.531,1.39h-0.338c-1.397,0-2.531,0.623-2.531,1.391c0,0.768,1.134,1.392,2.531,1.392h15.587
			c1.398,0,2.531,0.621,2.531,1.391c0,0.767-1.133,1.39-2.531,1.39h-18.731h-38.286c-1.398,0-2.532-0.623-2.532-1.39
			c0-0.77,1.134-1.391,2.532-1.391h4.326c1.398,0,2.531-0.624,2.531-1.392c0-0.768-1.133-1.391-2.531-1.391h-20.588
			c-1.398,0-2.531-0.623-2.531-1.39c0-0.769,1.133-1.393,2.531-1.393h4.866H195.844z"/>
		<path id="path-12_104_" style="fill:#FBB713;" d="M140.856,167.285c2.608,0,4.722-0.515,4.722-1.151s-2.114-1.152-4.722-1.152
			h-14.472c-2.608,0-4.722,0.516-4.722,1.152s2.114,1.151,4.722,1.151H140.856z"/>
	</g>
</g>
<g>
</g>
<g>
</g>
<g>
</g>
<g>
</g>
<g>
</g>
<g>
</g>
<g>
</g>
<g>
</g>
<g>
</g>
<g>
</g>
<g>
</g>
<g>
</g>
<g>
</g>
<g>
</g>
<g>
</g>
</svg>
