<?xml version="1.0" encoding="iso-8859-1"?>
<!-- Generator: Adobe Illustrator 19.1.0, SVG Export Plug-In . SVG Version: 6.00 Build 0)  -->
<svg version="1.1" id="Capa_1" xmlns="http://www.w3.org/2000/svg" xmlns:xlink="http://www.w3.org/1999/xlink" x="0px" y="0px"
	 viewBox="0 0 216.29 216.29" style="enable-background:new 0 0 216.29 216.29;" xml:space="preserve">
<g>
	<g id="group-88svg">
		<path id="path-1_155_" style="fill:#FBB713;" d="M162.115,191.229h14.198c2.737,0,4.956,1.871,4.956,4.178
			c0,2.306-2.219,4.175-4.956,4.175h-0.661c-2.737,0-4.956,1.871-4.956,4.178c0,2.306,2.219,4.177,4.956,4.177h30.521
			c2.737,0,4.956,1.87,4.956,4.176c0,2.308-2.219,4.177-4.956,4.177h-36.679h-40.312c-2.737,0-4.956-1.869-4.956-4.177
			c0-2.306,2.219-4.176,4.956-4.176h8.471c2.736,0,4.956-1.871,4.956-4.177c0-2.307-2.22-4.178-4.956-4.178H97.34
			c-2.738,0-4.957-1.869-4.957-4.175c0-2.307,2.219-4.178,4.957-4.178h9.527H162.115z"/>
		<path id="path-2_155_" style="fill:#FBB713;" d="M191.144,140.877h4.571c0.881,0,1.595,0.765,1.595,1.708
			c0,0.945-0.714,1.709-1.595,1.709h-0.213c-0.881,0-1.596,0.766-1.596,1.709c0,0.945,0.715,1.71,1.596,1.71h9.826
			c0.882,0,1.596,0.765,1.596,1.708c0,0.945-0.714,1.709-1.596,1.709H193.52h-12.979c-0.882,0-1.596-0.764-1.596-1.709
			c0-0.943,0.714-1.708,1.596-1.708h2.726c0.882,0,1.596-0.765,1.596-1.71c0-0.943-0.714-1.709-1.596-1.709h-12.979
			c-0.881,0-1.595-0.764-1.595-1.709c0-0.943,0.714-1.708,1.595-1.708h3.068H191.144z"/>
		<path id="path-3_155_" style="fill:#FBB713;" d="M28.164,132.778c3.125,0,5.658-1.59,5.658-3.552c0-1.961-2.533-3.551-5.658-3.551
			H10.821c-3.126,0-5.66,1.59-5.66,3.551c0,1.962,2.534,3.552,5.66,3.552H28.164z"/>
		<path id="path-4_154_" style="fill:#020403;" d="M58.037,191.451v-3.412h-11.38v3.412H58.037z"/>
		<path id="path-5_154_" style="fill:#142A3B;" d="M108.641,62.579H80.477v-14.24h28.164V62.579z"/>
		<path id="path-6_152_" style="opacity:0.45;fill:#020403;enable-background:new    ;" d="M80.477,48.339v3.411l28.164,6.825
			V48.339H80.477z"/>
		<path id="path-7_152_" style="fill:#142A3B;" d="M108.641,185.405H80.477v-14.24h28.164V185.405z"/>
		<path id="path-8_149_" style="fill:#FF3A2F;" d="M153.829,117.065c0,32.427-26.536,58.716-59.27,58.716
			c-32.733,0-59.269-26.289-59.269-58.716c0-32.428,26.536-58.715,59.269-58.715C127.293,58.35,153.829,84.637,153.829,117.065z"/>
		<path id="path-9_143_" style="fill:#FFFFFF;" d="M116.394,168.763c-1.373,0-2.688-0.774-3.305-2.091
			c-0.844-1.807-0.049-3.95,1.775-4.785c14.296-6.557,24.476-19.655,27.229-35.036c0.352-1.958,2.232-3.271,4.22-2.92
			c1.978,0.348,3.298,2.219,2.948,4.181c-3.171,17.699-14.886,32.771-31.341,40.317
			C117.426,168.655,116.906,168.763,116.394,168.763z"/>
		<path id="path-10_129_" style="fill:#FBB713;" d="M139.215,117.065c0,24.431-19.993,44.237-44.656,44.237
			c-24.662,0-44.654-19.806-44.654-44.237s19.992-44.237,44.654-44.237C119.222,72.828,139.215,92.634,139.215,117.065z"/>
		<path id="path-11_113_" style="opacity:0.35;fill:#020403;enable-background:new    ;" d="M101.448,157.891
			c-24.663,0-44.655-19.808-44.655-44.238c0-15.988,8.59-29.952,21.418-37.724c-16.565,6.468-28.306,22.428-28.306,41.136
			c0,24.431,19.992,44.237,44.654,44.237c8.524,0,16.462-2.408,23.238-6.514C112.729,156.767,107.225,157.891,101.448,157.891z"/>
		<path id="path-12_96_" style="opacity:0.35;fill:#020403;enable-background:new    ;" d="M103.266,123.91
			c0,4.764-3.898,8.625-8.707,8.625c-4.808,0-8.706-3.861-8.706-8.625c0-4.763,3.898-8.625,8.706-8.625
			C99.368,115.285,103.266,119.147,103.266,123.91z"/>
		<path id="path-13_81_" style="opacity:0.35;fill:#020403;enable-background:new    ;" d="M128.489,127.536H94.386V90.151
			c0-1.991,1.63-3.606,3.639-3.606c2.01,0,3.639,1.615,3.639,3.606v30.176h26.825c2.009,0,3.639,1.614,3.639,3.604
			C132.128,125.922,130.498,127.536,128.489,127.536z"/>
		<path id="path-14_64_" style="fill:#FF3A2F;" d="M103.266,120.477c0,4.763-3.898,8.625-8.707,8.625
			c-4.808,0-8.706-3.862-8.706-8.625s3.898-8.625,8.706-8.625C99.368,111.852,103.266,115.714,103.266,120.477z"/>
		<path id="path-15_54_" style="fill:#FBB713;" d="M63.383,27.435L94.559,0l31.177,27.435H63.383z"/>
		<path id="path-16_43_" style="opacity:0.25;fill:#020403;enable-background:new    ;" d="M94.559,0L89.61,4.354l22.35,19.669
			h-44.7l-3.877,3.412h62.353L94.559,0z"/>
		<path id="path-17_37_" style="fill:#FF3A2F;" d="M53.885,27.19c7.451,14.779,22.864,24.932,40.674,24.932
			c17.812,0,33.224-10.153,40.675-24.932H53.885z"/>
		<path id="path-18_28_" style="fill:#FFFFFF;" d="M80.477,45.529c-0.422,0-0.853-0.073-1.271-0.227
			c-5.441-2.012-10.342-5.382-14.169-9.75c-1.318-1.504-1.156-3.78,0.361-5.085c1.519-1.306,3.815-1.144,5.134,0.357
			c3.033,3.461,6.911,6.131,11.218,7.721c1.882,0.697,2.839,2.773,2.137,4.637C83.342,44.633,81.953,45.529,80.477,45.529z"/>
		<path id="path-19_22_" style="opacity:0.35;fill:#020403;enable-background:new    ;" d="M121.458,27.19
			c-6.471,12.835-18.95,22.172-33.786,24.409c2.247,0.338,4.544,0.523,6.887,0.523c17.812,0,33.224-10.153,40.675-24.932H121.458z"
			/>
		<path id="path-20_17_" style="fill:#142A3B;" d="M124.194,188.039v-8.847H64.925v8.847H46.657v6.436h95.805v-6.436H124.194z"/>
		<path id="path-21_13_" style="opacity:0.35;fill:#020403;enable-background:new    ;" d="M124.194,188.039v-8.847H64.925v3.412
			h52.381v8.847h18.268v3.024h6.888v-6.436H124.194z"/>
		<path id="path-22_7_" style="fill:#FF3A2F;" d="M131.953,124.102H90.92V86.717c0-1.99,1.629-3.604,3.639-3.604
			c2.009,0,3.639,1.614,3.639,3.604v30.176h33.755c2.01,0,3.639,1.614,3.639,3.606C135.592,122.49,133.963,124.102,131.953,124.102z
			"/>
	</g>
</g>
<g>
</g>
<g>
</g>
<g>
</g>
<g>
</g>
<g>
</g>
<g>
</g>
<g>
</g>
<g>
</g>
<g>
</g>
<g>
</g>
<g>
</g>
<g>
</g>
<g>
</g>
<g>
</g>
<g>
</g>
</svg>
