<?xml version="1.0" encoding="iso-8859-1"?>
<!-- Generator: Adobe Illustrator 19.1.0, SVG Export Plug-In . SVG Version: 6.00 Build 0)  -->
<svg version="1.1" id="Capa_1" xmlns="http://www.w3.org/2000/svg" xmlns:xlink="http://www.w3.org/1999/xlink" x="0px" y="0px"
	 viewBox="0 0 217.22 217.22" style="enable-background:new 0 0 217.22 217.22;" xml:space="preserve">
<g>
	<g id="group-66svg">
		<path id="path-1_123_" style="fill:#142A3B;" d="M94.817,183.445H79.064c-3.037,0-5.5,2.483-5.5,5.546
			c0,3.064,2.463,5.547,5.5,5.547h0.733c3.037,0,5.5,2.483,5.5,5.546s-2.463,5.546-5.5,5.546H45.933c-3.038,0-5.5,2.483-5.5,5.546
			c0,3.062,2.462,5.546,5.5,5.546h40.696h83.183c3.037,0,5.499-2.484,5.499-5.546c0-3.063-2.462-5.546-5.499-5.546h-9.399
			c-3.037,0-5.5-2.483-5.5-5.546s2.463-5.546,5.5-5.546h36.914c3.037,0,5.499-2.483,5.499-5.547c0-3.063-2.462-5.546-5.499-5.546
			h-2.756H94.817z"/>
		<path id="path-2_123_" style="fill:#142A3B;" d="M194.211,217.22c-1.65,0-2.987-1.755-2.987-3.923
			c0-2.165,1.337-3.922,2.987-3.922h9.155c1.649,0,2.987,1.757,2.987,3.922c0,2.168-1.338,3.923-2.987,3.923H194.211z"/>
		<path id="path-3_123_" style="fill:#FBB713;" d="M101.129,143.547l14.474-14.476L41.002,54.473l-2.205-2.205
			c-7.713-7.712-20.217-7.712-27.93,0L101.129,143.547z"/>
		<path id="path-4_123_" style="opacity:0.35;enable-background:new    ;" d="M101.129,143.547l14.474-14.476L41.002,54.473
			l-2.205-2.205c-7.713-7.712-20.217-7.712-27.93,0L101.129,143.547z"/>
		<path id="path-5_122_" style="fill:#FBB713;" d="M101.064,57.865l14.475,14.475l-74.028,74.024l-2.204,2.205
			c-7.713,7.712-20.218,7.712-27.93,0L101.064,57.865z"/>
		<path id="path-6_119_" style="fill:#142A3B;" d="M76.174,101.264c0,3.452-2.797,6.249-6.248,6.249
			c-3.452,0-6.249-2.797-6.249-6.249c0-3.451,2.797-6.25,6.249-6.25C73.376,95.014,76.174,97.813,76.174,101.264z"/>
		<path id="path-7_116_" style="fill:#FBB713;" d="M130.982,0c-21.156,0-38.305,17.149-38.305,38.304
			c0,21.154,17.149,38.303,38.305,38.303c21.155,0,38.304-17.149,38.304-38.303C169.286,17.149,152.137,0,130.982,0z
			 M130.982,59.691c-11.812,0-21.388-9.576-21.388-21.387s9.576-21.388,21.388-21.388c11.812,0,21.387,9.577,21.387,21.388
			S142.794,59.691,130.982,59.691z"/>
		<path id="path-8_93_" style="fill:#FBB713;" d="M130.38,120.15c-21.155,0-38.305,17.149-38.305,38.301
			c0,21.156,17.15,38.306,38.305,38.306s38.305-17.15,38.305-38.306C168.685,137.299,151.535,120.15,130.38,120.15z M130.38,179.84
			c-11.813,0-21.388-9.576-21.388-21.389c0-11.812,9.575-21.386,21.388-21.386c11.812,0,21.388,9.574,21.388,21.386
			C151.768,170.264,142.191,179.84,130.38,179.84z"/>
		<path id="path-9_80_" style="opacity:0.35;enable-background:new    ;" d="M113.68,50.789c-2.545-3.52-4.087-7.81-4.087-12.485
			c0-11.811,9.576-21.388,21.388-21.388c4.674,0,8.965,1.542,12.484,4.087c-3.886-5.371-10.162-8.9-17.298-8.9
			c-11.812,0-21.387,9.577-21.387,21.388C104.78,40.627,108.309,46.904,113.68,50.789z"/>
		<path id="path-10_73_" style="opacity:0.35;enable-background:new    ;" d="M155.544,8.925c5.569,6.652,8.93,15.213,8.93,24.566
			c0,21.154-17.15,38.302-38.306,38.302c-9.352,0-17.914-3.36-24.565-8.928c7.027,8.394,17.574,13.742,29.379,13.742
			c21.155,0,38.304-17.149,38.304-38.303C169.286,26.5,163.939,15.952,155.544,8.925z"/>
		<path id="path-11_62_" style="opacity:0.35;enable-background:new    ;" d="M113.081,170.938c-2.547-3.519-4.09-7.809-4.09-12.487
			c0-11.812,9.575-21.386,21.388-21.386c4.676,0,8.967,1.542,12.487,4.088c-3.886-5.371-10.164-8.9-17.3-8.9
			c-11.812,0-21.388,9.574-21.388,21.385C104.178,160.775,107.708,167.054,113.081,170.938z"/>
		<path id="path-12_53_" style="opacity:0.35;enable-background:new    ;" d="M154.946,129.079
			c5.566,6.648,8.926,15.208,8.926,24.559c0,21.156-17.15,38.304-38.305,38.304c-9.351,0-17.913-3.358-24.563-8.925
			c7.027,8.392,17.573,13.74,29.376,13.74c21.155,0,38.305-17.15,38.305-38.306C168.685,146.65,163.339,136.103,154.946,129.079z"/>
	</g>
</g>
<g>
</g>
<g>
</g>
<g>
</g>
<g>
</g>
<g>
</g>
<g>
</g>
<g>
</g>
<g>
</g>
<g>
</g>
<g>
</g>
<g>
</g>
<g>
</g>
<g>
</g>
<g>
</g>
<g>
</g>
</svg>
