<?xml version="1.0" encoding="iso-8859-1"?>
<!-- Generator: Adobe Illustrator 19.1.0, SVG Export Plug-In . SVG Version: 6.00 Build 0)  -->
<svg version="1.1" id="Capa_1" xmlns="http://www.w3.org/2000/svg" xmlns:xlink="http://www.w3.org/1999/xlink" x="0px" y="0px"
	 viewBox="0 0 217.229 217.229" style="enable-background:new 0 0 217.229 217.229;" xml:space="preserve">
<g>
	<g id="group-5svg">
		<path id="path-1_105_" style="fill:#FF3A2F;" d="M70.006,181.737H84.26c2.748,0,4.976,1,4.976,2.234
			c0,1.235-2.228,2.234-4.976,2.234h-0.663c-2.749,0-4.977,1-4.977,2.235c0,1.234,2.228,2.234,4.977,2.234h30.64
			c2.748,0,4.976,1,4.976,2.233c0,1.235-2.228,2.235-4.976,2.235H77.415H36.943c-2.748,0-4.976-1-4.976-2.235
			c0-1.233,2.228-2.233,4.976-2.233h8.504c2.748,0,4.976-1,4.976-2.234c0-1.235-2.228-2.235-4.976-2.235H4.976
			c-2.748,0-4.976-0.999-4.976-2.234c0-1.234,2.228-2.234,4.976-2.234h9.565H70.006z"/>
		<path id="path-2_105_" style="fill:#FF3A2F;" d="M158.226,197.076c3.138,0,5.681-1.143,5.681-2.552
			c0-1.408-2.543-2.551-5.681-2.551h-17.411c-3.138,0-5.682,1.143-5.682,2.551c0,1.409,2.544,2.552,5.682,2.552H158.226z"/>
		<path id="path-3_105_" style="fill:#FF3A2F;" d="M171.704,161.668h6.545c1.262,0,2.285,0.567,2.285,1.267
			c0,0.7-1.023,1.268-2.285,1.268h-0.304c-1.262,0-2.285,0.568-2.285,1.267c0,0.7,1.023,1.268,2.285,1.268h14.07
			c1.261,0,2.284,0.567,2.284,1.267s-1.023,1.267-2.284,1.267h-16.909h-34.559c-1.262,0-2.285-0.567-2.285-1.267
			s1.023-1.267,2.285-1.267h3.904c1.262,0,2.285-0.568,2.285-1.268c0-0.699-1.023-1.267-2.285-1.267h-18.583
			c-1.262,0-2.285-0.568-2.285-1.268c0-0.7,1.023-1.267,2.285-1.267h4.392H171.704z"/>
		<path id="path-4_105_" style="fill:#142A3B;" d="M111.585,125.793c-1.592-1.591-3.018-3.28-4.365-5.011l-54.228,54.226
			l9.376,9.376l54.228-54.225C114.865,128.812,113.176,127.385,111.585,125.793z"/>
		<path id="path-5_104_" style="opacity:0.35;fill:#040404;enable-background:new    ;" d="M111.761,125.618
			c-1.592-1.591-3.089-3.21-4.541-4.836l-16.13,16.129l3.081,15.672l22.425-22.424C114.969,128.707,113.352,127.208,111.761,125.618
			z"/>
		<path id="path-6_101_" style="fill:#2476FF;" d="M197.294,136.339c-26.581,26.579-69.676,26.579-96.256,0
			c-26.58-26.58-26.58-69.672,0-96.252c26.58-26.579,69.675-26.579,96.256,0C223.874,66.667,223.874,109.759,197.294,136.339z"/>
		<path id="path-7_98_" style="fill:#EDEDED;" d="M186.88,125.926c-20.829,20.828-54.599,20.828-75.428,0
			c-20.828-20.828-20.828-54.597,0-75.425c20.829-20.828,54.599-20.828,75.428,0S207.709,105.098,186.88,125.926z"/>
		<path id="path-8_77_" style="opacity:0.25;fill:#010101;enable-background:new    ;" d="M114.167,58.645
			c20.829-20.827,54.599-20.827,75.428,0c4.944,4.944,8.675,10.631,11.272,16.687c-2.257-9.095-6.878-17.722-13.987-24.831
			c-20.829-20.828-54.599-20.828-75.428,0c-15.884,15.883-19.616,39.28-11.272,58.738C95.825,91.687,100.447,72.365,114.167,58.645z
			"/>
	</g>
</g>
<g>
</g>
<g>
</g>
<g>
</g>
<g>
</g>
<g>
</g>
<g>
</g>
<g>
</g>
<g>
</g>
<g>
</g>
<g>
</g>
<g>
</g>
<g>
</g>
<g>
</g>
<g>
</g>
<g>
</g>
</svg>
