<?xml version="1.0" encoding="iso-8859-1"?>
<!-- Generator: Adobe Illustrator 19.1.0, SVG Export Plug-In . SVG Version: 6.00 Build 0)  -->
<svg version="1.1" id="Capa_1" xmlns="http://www.w3.org/2000/svg" xmlns:xlink="http://www.w3.org/1999/xlink" x="0px" y="0px"
	 viewBox="0 0 216.292 216.292" style="enable-background:new 0 0 216.292 216.292;" xml:space="preserve">
<g>
	<g id="group-48svg">
		<path id="path-1_111_" style="fill:#0CB04A;" d="M131.884,195.443h11.779c2.271,0,4.112,1.156,4.112,2.581
			c0,1.425-1.841,2.581-4.112,2.581h-0.549c-2.271,0-4.111,1.155-4.111,2.581c0,1.425,1.84,2.581,4.111,2.581h25.321
			c2.27,0,4.111,1.155,4.111,2.581c0,1.425-1.841,2.581-4.111,2.581h-30.43h-33.443c-2.271,0-4.112-1.156-4.112-2.581
			c0-1.426,1.841-2.581,4.112-2.581h7.027c2.272,0,4.112-1.156,4.112-2.581c0-1.426-1.84-2.581-4.112-2.581H78.146
			c-2.271,0-4.112-1.156-4.112-2.581c0-1.425,1.841-2.581,4.112-2.581h7.904H131.884z"/>
		<path id="path-2_111_" style="fill:#0CB04A;" d="M25.638,186.769h4.982c0.96,0,1.739,0.832,1.739,1.861
			c0,1.03-0.779,1.863-1.739,1.863h-0.232c-0.961,0-1.739,0.835-1.739,1.863c0,1.029,0.778,1.863,1.739,1.863h10.71
			c0.96,0,1.738,0.833,1.738,1.862c0,1.028-0.778,1.862-1.738,1.862h-12.87H14.081c-0.959,0-1.739-0.834-1.739-1.862
			c0-1.029,0.78-1.862,1.739-1.862h2.973c0.961,0,1.739-0.834,1.739-1.863c0-1.028-0.778-1.863-1.739-1.863H2.909
			c-0.961,0-1.74-0.833-1.74-1.863c0-1.029,0.779-1.861,1.74-1.861h3.343H25.638z"/>
		<path id="path-3_111_" style="fill:#0CB04A;" d="M191.878,67.798h4.983c0.961,0,1.739,0.834,1.739,1.863
			c0,1.028-0.778,1.863-1.739,1.863h-0.233c-0.961,0-1.739,0.834-1.739,1.863c0,1.028,0.778,1.862,1.739,1.862h10.711
			c0.961,0,1.738,0.834,1.738,1.862c0,1.029-0.777,1.862-1.738,1.862h-12.871h-14.145c-0.961,0-1.74-0.833-1.74-1.862
			c0-1.028,0.779-1.862,1.74-1.862h2.972c0.96,0,1.738-0.834,1.738-1.862c0-1.029-0.778-1.863-1.738-1.863H169.15
			c-0.961,0-1.741-0.835-1.741-1.863c0-1.029,0.78-1.863,1.741-1.863h3.342H191.878z"/>
		<path id="path-4_110_" style="fill:#0CB04A;" d="M208.957,216.292c3.405,0,6.167-1.734,6.167-3.872s-2.762-3.871-6.167-3.871
			h-18.903c-3.406,0-6.167,1.733-6.167,3.871s2.761,3.872,6.167,3.872H208.957z"/>
		<circle id="circle-1_3_" style="fill:#2476FF;" cx="44.174" cy="45.997" r="16"/>
		<path id="path-5_110_" style="fill:#FFFFFF;" d="M40.188,33.224c4.566,0,8.266,3.668,8.266,8.19c0,4.523-3.7,8.189-8.266,8.189
			c-4.565,0-8.266-3.666-8.266-8.189C31.923,36.892,35.624,33.224,40.188,33.224z"/>
		<path id="path-6_109_" style="fill:#2476FF;" d="M11.467,0c4.924,0,8.914,3.955,8.914,8.831c0,4.877-3.99,8.83-8.914,8.83
			c-4.923,0-8.915-3.953-8.915-8.83C2.552,3.955,6.544,0,11.467,0z"/>
		<path id="path-7_109_" style="fill:#2476FF;" d="M211.928,170.699c-2.171-3.192-7.747-14.277-10.34-13.776
			c-2.593,0.496-10.276,21.127-9.122,24.518c1.16,3.391,12.852-0.269,16.664-0.353C212.937,181.004,214.1,173.897,211.928,170.699z"
			/>
		<path id="path-8_106_" style="opacity:0.35;fill:#020403;enable-background:new    ;" d="M196.941,177.009
			c-0.811-2.384,2.742-13.267,5.827-19.707c-0.435-0.297-0.835-0.445-1.18-0.379c-2.593,0.496-10.276,21.127-9.122,24.518
			c1.16,3.391,12.852-0.269,16.664-0.354c1.996-0.044,3.242-2.024,3.685-4.352C208.438,177.162,198.036,180.209,196.941,177.009z"/>
		<path id="path-9_101_" style="fill:#2476FF;" d="M192.082,134.168c-2.483-5.229-12.822-24.281-20.167-24.566
			c-7.34-0.278-27.979,66.801-26.37,74.702c5.707,3.265,27.081,1.96,30.803,0.937C179.102,179.825,194.557,139.398,192.082,134.168z
			"/>
		<path id="path-10_93_" style="opacity:0.35;fill:#020403;enable-background:new    ;" d="M176.348,185.241
			c0.594-1.167,1.795-4.019,3.262-7.736c-6.53,0.048-13.308-0.431-16.167-2.067c-1.12-5.501,8.542-39.648,16.995-59.813
			c-1.914-2.252-6.654-4.994-8.523-6.023c-8.38,7.799-23.394,67.344-21.895,74.702c2.413,1.381,7.629,1.939,13.125,2.052
			C169.122,186.242,174.627,185.713,176.348,185.241z"/>
		<path id="path-11_81_" style="fill:#2476FF;" d="M201.155,152.652c-1.066-3.626-6.998-16.981-11.046-18.733
			c-4.056-1.759-25.992,47.431-20.257,49.491c5.736,2.059,19.192,1.266,21.182,0.404
			C193.039,182.935,202.229,156.285,201.155,152.652z"/>
		<path id="path-12_69_" style="opacity:0.35;fill:#020403;enable-background:new    ;" d="M175.306,178.654
			c-4.469-1.605,7.868-31.835,15.45-44.263c-0.215-0.146-0.442-0.382-0.648-0.472c-4.055-1.759-25.991,47.431-20.256,49.491
			c5.736,2.059,19.192,1.266,21.182,0.404c0.465-0.205,1.438-1.883,2.629-4.33C189.389,179.741,179.684,180.225,175.306,178.654z"/>
		<path id="path-13_57_" style="fill:#2476FF;" d="M121.396,135.534c0,25.468-20.84,46.115-46.55,46.115
			c-25.708,0-46.549-20.647-46.549-46.115c0-25.469,20.841-46.114,46.549-46.114C100.556,89.42,121.396,110.065,121.396,135.534z"/>
		<path id="path-14_46_" style="opacity:0.4;fill:#020403;enable-background:new    ;" d="M34.394,112.739
			c13.865-2.899,10.982,0.434,22.451,10.409c19.322,16.8,21.234,32.639,4.274,51.779c-1.219,1.376-2.518,2.636-3.857,3.833
			c9.491-1.984,17.828,5.848,25.342-1.342c21.429-20.511,15.047-48.277-4.273-65.079C60.398,96.745,51.687,97.282,34.394,112.739z"
			/>
		<path id="path-15_39_" style="fill:#FF3A2F;" d="M96.564,155.78c-9.162-1.299-18.434,16.158-42.604,14.115
			c-14.064-1.186-20.046-6.844-19.468-23.187c0.745-21.066,14.998-33.014,15.562-41.182c0.243-3.535-7.551-9.047-10.973-7.337
			c-8.819,4.407-18.073,36.249-16.993,49.516c1.58,19.457,14.967,27.802,27.833,32.378c12.86,4.572,45.871,8.99,58.78,2.642
			C113.916,180.154,102.54,156.63,96.564,155.78z"/>
		<path id="path-16_32_" style="opacity:0.4;fill:#020403;enable-background:new    ;" d="M94.289,155.824
			c-5.189,0.545-20.864,14.069-28.271,12.914c3.917,9.509,2.181,9.165,7.037,16.367c23.92,2.101,32.707-0.934,35.646-2.38
			C113.916,180.154,99.517,152.829,94.289,155.824z"/>
		<path id="path-17_28_" style="opacity:0.4;fill:#020403;enable-background:new    ;" d="M46.84,113.586
			c1.76-3.073,3.055-5.728,3.215-8.06c0.243-3.535-7.551-9.048-10.973-7.337c-2.186,1.092-4.397,3.876-6.474,7.638
			C36.791,107.886,41.694,110.403,46.84,113.586z"/>
		<path id="path-18_20_" style="fill:#FF3A2F;" d="M169.425,102.937c-2.577-4.118-11.841-23.16-41.725-28.71
			c-19.914-3.698-78.119,5.257-97.786,18.163c-7.33,4.809,29.788,10.243,51.881,39.925c18.772,25.226,15.57,48.93,37.676,60.892
			c9.983,5.402,16.385,5.097,22.726,3.314c6.681-1.88,11.629-18.423,18.051-39.326C167.19,134.62,173.364,109.243,169.425,102.937z"
			/>
		<path id="path-19_17_" style="opacity:0.3;fill:#020403;enable-background:new    ;" d="M169.424,102.937
			c-0.723-1.155-2.003-3.505-4.086-6.382c-1.632,10.791-5.455,25.11-9.565,38.475c-6.422,20.904-11.369,37.447-18.052,39.328
			c-6.339,1.782-12.741,2.087-22.726-3.314c-22.105-11.963-18.902-35.667-37.674-60.892C68.48,98.277,57.243,90.29,47.403,84.665
			c-7.097,2.336-13.228,4.93-17.489,7.725c-7.33,4.809,29.788,10.243,51.881,39.925c18.772,25.226,15.57,48.93,37.676,60.892
			c9.983,5.402,16.385,5.097,22.725,3.314c6.683-1.88,11.63-18.423,18.052-39.326C167.19,134.62,173.364,109.243,169.424,102.937z"
			/>
		<path id="path-20_13_" style="fill:#FFFFFF;" d="M149.666,106.231c-0.949,0-1.898-0.367-2.612-1.096l-0.909-0.965
			c-4.13-4.44-16.876-17.954-43.323-17.163c-1.947,0.067-3.684-1.503-3.749-3.496c-0.056-1.99,1.522-3.651,3.529-3.711
			c30.067-0.877,44.211,14.449,48.894,19.487l0.782,0.83c1.4,1.43,1.364,3.711-0.079,5.098
			C151.492,105.893,150.579,106.231,149.666,106.231z"/>
	</g>
</g>
<g>
</g>
<g>
</g>
<g>
</g>
<g>
</g>
<g>
</g>
<g>
</g>
<g>
</g>
<g>
</g>
<g>
</g>
<g>
</g>
<g>
</g>
<g>
</g>
<g>
</g>
<g>
</g>
<g>
</g>
</svg>
