<?xml version="1.0" encoding="iso-8859-1"?>
<!-- Generator: Adobe Illustrator 19.1.0, SVG Export Plug-In . SVG Version: 6.00 Build 0)  -->
<svg version="1.1" id="Capa_1" xmlns="http://www.w3.org/2000/svg" xmlns:xlink="http://www.w3.org/1999/xlink" x="0px" y="0px"
	 viewBox="0 0 217.229 217.229" style="enable-background:new 0 0 217.229 217.229;" xml:space="preserve">
<g>
	<g id="group-103svg">
		<path id="path-1_5_" style="fill:#142A3B;" d="M70.756,156.223H50.261c-3.952,0-7.156,2.335-7.156,5.216s3.204,5.216,7.156,5.216
			h0.953c3.952,0,7.156,2.336,7.156,5.215c0,2.881-3.204,5.217-7.156,5.217H7.155c-3.951,0-7.155,2.335-7.155,5.215
			c0,2.88,3.204,5.215,7.155,5.215h52.948h108.224c3.952,0,7.155-2.335,7.155-5.215c0-2.88-3.203-5.215-7.155-5.215h-12.228
			c-3.951,0-7.155-2.336-7.155-5.217c0-2.879,3.204-5.215,7.155-5.215h48.025c3.952,0,7.156-2.335,7.156-5.216
			s-3.204-5.216-7.156-5.216h-3.584H70.756z"/>
		<path id="path-2_5_" style="fill:#142A3B;" d="M196.743,187.986c-2.784,0-5.04-1.651-5.04-3.689c0-2.037,2.256-3.69,5.04-3.69
			h15.445c2.784,0,5.041,1.653,5.041,3.69c0,2.038-2.257,3.689-5.041,3.689H196.743z"/>
		<path id="path-3_5_" style="fill:#FF3A2F;" d="M175.183,113.331v24.525c0,15.477-29.81,28.028-66.57,28.028
			c-36.761,0-66.57-12.551-66.57-28.028v-24.525C42.043,113.331,104.316,163.549,175.183,113.331z"/>
		<path id="path-4_5_" style="fill:#0CB04A;" d="M175.183,85.301v24.526c0,15.477-29.81,28.028-66.57,28.028
			c-36.761,0-66.57-12.551-66.57-28.028V85.301C42.043,85.301,104.316,135.52,175.183,85.301z"/>
		<path id="path-5_5_" style="fill:#FBB713;" d="M175.183,60.776v24.526c0,15.477-29.81,28.029-66.57,28.029
			c-36.761,0-66.57-12.552-66.57-28.029V60.776C42.043,60.776,104.316,110.995,175.183,60.776z"/>
		<path id="path-6_5_" style="opacity:0.35;enable-background:new    ;" d="M157.664,129.753v11.606
			c0,9.714-11.748,18.269-29.58,23.299c27.26-3.508,47.099-14.178,47.099-26.802v-24.524
			C168.458,123.183,163.426,126.875,157.664,129.753z"/>
		<path id="path-7_5_" style="opacity:0.35;enable-background:new    ;" d="M157.664,104.249v9.083
			c0,9.712-11.748,18.268-29.58,23.299c27.26-3.51,47.099-14.179,47.099-26.803V88.806
			C171.086,97.784,163.426,101.368,157.664,104.249z"/>
		<path id="path-8_5_" style="opacity:0.35;enable-background:new    ;" d="M120.776,82.408
			c-45.511,5.106-78.733-21.632-78.733-21.632v14.053C59.273,83.188,87.742,91.959,120.776,82.408z"/>
		<path id="path-9_4_" style="opacity:0.35;enable-background:new    ;" d="M157.664,71.28v17.526
			c0,9.713-11.748,18.27-29.58,23.299c27.26-3.507,47.099-14.178,47.099-26.803V60.776C169.271,64.966,163.426,68.399,157.664,71.28
			z"/>
		<path id="path-10_4_" style="fill:#FF3A2F;" d="M175.185,57.273c0,15.478-29.81,28.029-66.571,28.029S42.045,72.751,42.045,57.273
			c0-15.48,29.808-28.029,66.569-28.029S175.185,41.793,175.185,57.273z"/>
	</g>
</g>
<g>
</g>
<g>
</g>
<g>
</g>
<g>
</g>
<g>
</g>
<g>
</g>
<g>
</g>
<g>
</g>
<g>
</g>
<g>
</g>
<g>
</g>
<g>
</g>
<g>
</g>
<g>
</g>
<g>
</g>
</svg>
