<?xml version="1.0" encoding="iso-8859-1"?>
<!-- Generator: Adobe Illustrator 19.1.0, SVG Export Plug-In . SVG Version: 6.00 Build 0)  -->
<svg version="1.1" id="Capa_1" xmlns="http://www.w3.org/2000/svg" xmlns:xlink="http://www.w3.org/1999/xlink" x="0px" y="0px"
	 viewBox="0 0 217.221 217.221" style="enable-background:new 0 0 217.221 217.221;" xml:space="preserve">
<g>
	<g id="group-83svg">
		<path id="path-1_142_" style="fill:#0CB04A;" d="M89.606,180.913H72.894c-3.223,0-5.835,2.67-5.835,5.962
			c0,3.294,2.612,5.962,5.835,5.962h0.778c3.222,0,5.834,2.67,5.834,5.962c0,3.293-2.612,5.961-5.834,5.961H37.744
			c-3.223,0-5.835,2.67-5.835,5.964c0,3.292,2.612,5.96,5.835,5.96H80.92h88.252c3.222,0,5.835-2.668,5.835-5.96
			c0-3.294-2.613-5.964-5.835-5.964h-9.971c-3.222,0-5.835-2.668-5.835-5.961c0-3.292,2.613-5.962,5.835-5.962h39.162
			c3.223,0,5.835-2.668,5.835-5.962c0-3.292-2.612-5.962-5.835-5.962h-2.923H89.606z"/>
		<path id="path-2_142_" style="fill:#0CB04A;" d="M192.344,217.221c-2.27,0-4.111-1.888-4.111-4.217
			c0-2.329,1.841-4.217,4.111-4.217h12.595c2.27,0,4.11,1.888,4.11,4.217c0,2.329-1.84,4.217-4.11,4.217H192.344z"/>
		<path id="path-3_142_" style="fill:#142A3B;" d="M136.424,73.343v-18.44h-19.312c-1.299-5.709-3.652-11.014-6.857-15.696
			L124.16,25.3l-13.04-13.04L97,26.381c-4.658-2.976-9.881-5.143-15.483-6.284V0H63.077v20.097
			c-5.6,1.141-10.824,3.308-15.482,6.284L33.474,12.26L20.435,25.3l13.906,13.907c-3.205,4.682-5.558,9.987-6.858,15.696H8.173
			v18.44h18.894c1.078,5.984,3.313,11.564,6.467,16.503l-13.099,13.099l13.039,13.04l12.887-12.886
			c4.96,3.396,10.617,5.849,16.716,7.09v18.057h18.441v-18.057c6.1-1.241,11.757-3.694,16.717-7.09l12.886,12.886l13.04-13.04
			l-13.098-13.099c3.154-4.939,5.387-10.519,6.465-16.503H136.424z M85.624,87.204H58.971L45.644,64.123L58.971,41.04h26.654
			l13.327,23.083L85.624,87.204z"/>
		<path id="path-4_142_" style="opacity:0.35;enable-background:new    ;" d="M40.44,26.381c1.476-0.942,3.027-1.771,4.61-2.546
			L33.474,12.26l-3.577,3.577L40.44,26.381z"/>
		<path id="path-5_141_" style="opacity:0.35;enable-background:new    ;" d="M89.846,26.381l2.545-2.546
			c-3.415-1.667-7.047-2.959-10.874-3.738V0h-7.154v20.097C79.964,21.238,85.188,23.405,89.846,26.381z"/>
		<path id="path-6_138_" style="opacity:0.35;enable-background:new    ;" d="M58.971,41.04h-7.154L38.489,64.123l13.328,23.081
			h7.154L45.644,64.123L58.971,41.04z"/>
		<path id="path-7_135_" style="opacity:0.35;enable-background:new    ;" d="M117.007,25.3L103.1,39.207
			c3.206,4.682,5.559,9.987,6.858,15.695h7.154c-1.299-5.708-3.652-11.013-6.857-15.695L124.161,25.3L111.12,12.26l-3.577,3.577
			L117.007,25.3z"/>
		<path id="path-8_111_" style="opacity:0.35;enable-background:new    ;" d="M129.269,54.902v18.441h7.155V54.902H129.269z"/>
		<path id="path-9_96_" style="opacity:0.35;enable-background:new    ;" d="M39.206,103.098l-9.309,9.309l3.577,3.578
			l10.212-10.213C42.144,104.957,40.638,104.08,39.206,103.098z"/>
		<path id="path-10_87_" style="opacity:0.35;enable-background:new    ;" d="M117.527,73.343h-7.154
			c-1.078,5.984-3.312,11.565-6.466,16.503l13.099,13.099l-9.463,9.463l3.577,3.577l13.041-13.04l-13.099-13.099
			C114.216,84.908,116.45,79.327,117.527,73.343z"/>
		<path id="path-11_76_" style="opacity:0.35;enable-background:new    ;" d="M91.08,103.098c-4.961,3.397-10.617,5.85-16.717,7.091
			v18.057h7.154v-18.057c4.339-0.882,8.438-2.403,12.237-4.416L91.08,103.098z"/>
		<path id="path-12_66_" style="fill:#FF3A2F;" d="M161.066,163.034v-11.321h-11.855c-0.798-3.505-2.242-6.762-4.21-9.636
			l8.537-8.537l-8.005-8.005l-8.669,8.668c-2.86-1.827-6.066-3.158-9.505-3.858v-12.338h-11.321v12.338
			c-3.438,0.7-6.645,2.031-9.505,3.858l-8.669-8.668l-8.005,8.005l8.538,8.537c-1.968,2.874-3.413,6.131-4.21,9.636H82.33v11.321
			h11.6c0.662,3.673,2.033,7.098,3.97,10.131l-8.042,8.041l8.005,8.005l7.911-7.909c3.046,2.084,6.518,3.59,10.263,4.351v11.086
			h11.321v-11.086c3.744-0.761,7.218-2.267,10.263-4.351l7.911,7.909l8.005-8.005l-8.041-8.041
			c1.936-3.033,3.308-6.458,3.969-10.131H161.066z M129.88,171.543h-16.362l-8.182-14.17l8.182-14.171h16.362l8.182,14.171
			L129.88,171.543z"/>
		<path id="path-13_52_" style="opacity:0.35;enable-background:new    ;" d="M99.378,134.202c1.489-0.949,3.074-1.757,4.734-2.421
			l-6.248-6.248l-3.577,3.579L99.378,134.202z"/>
		<path id="path-14_43_" style="opacity:0.35;enable-background:new    ;" d="M129.71,134.202l2.421-2.421
			c-1.53-0.611-3.122-1.099-4.772-1.436v-12.338h-7.154v12.338C123.643,131.045,126.85,132.376,129.71,134.202z"/>
		<path id="path-15_36_" style="opacity:0.35;enable-background:new    ;" d="M146.383,133.54l-8.538,8.537
			c1.968,2.874,3.413,6.131,4.21,9.636h7.155c-0.798-3.505-2.242-6.762-4.21-9.636l8.537-8.537l-8.005-8.007l-3.578,3.579
			L146.383,133.54z"/>
		<path id="path-16_27_" style="opacity:0.35;enable-background:new    ;" d="M113.518,143.202h-7.155l-8.182,14.171l8.182,14.17
			h7.155l-8.182-14.17L113.518,143.202z"/>
		<path id="path-17_24_" style="opacity:0.35;enable-background:new    ;" d="M149.465,163.034h-7.155
			c-0.661,3.673-2.032,7.098-3.969,10.131l8.042,8.041l-4.429,4.429l3.578,3.576l8.005-8.005l-8.041-8.041
			C147.433,170.132,148.804,166.707,149.465,163.034z"/>
		<path id="path-18_15_" style="opacity:0.35;enable-background:new    ;" d="M153.911,151.713v11.321h7.154v-11.321H153.911z"/>
		<path id="path-19_13_" style="opacity:0.35;enable-background:new    ;" d="M98.62,181.302l-4.334,4.333l3.577,3.576l5.366-5.365
			C101.609,183.137,100.063,182.289,98.62,181.302z"/>
		<path id="path-20_10_" style="opacity:0.35;enable-background:new    ;" d="M130.467,181.302
			c-3.046,2.084-6.518,3.59-10.263,4.351v11.087h7.154v-11.087c1.97-0.401,3.858-1.019,5.654-1.807L130.467,181.302z"/>
	</g>
</g>
<g>
</g>
<g>
</g>
<g>
</g>
<g>
</g>
<g>
</g>
<g>
</g>
<g>
</g>
<g>
</g>
<g>
</g>
<g>
</g>
<g>
</g>
<g>
</g>
<g>
</g>
<g>
</g>
<g>
</g>
</svg>
