<?xml version="1.0" encoding="iso-8859-1"?>
<!-- Generator: Adobe Illustrator 19.1.0, SVG Export Plug-In . SVG Version: 6.00 Build 0)  -->
<svg version="1.1" id="Capa_1" xmlns="http://www.w3.org/2000/svg" xmlns:xlink="http://www.w3.org/1999/xlink" x="0px" y="0px"
	 viewBox="0 0 217.228 217.228" style="enable-background:new 0 0 217.228 217.228;" xml:space="preserve">
<g>
	<g id="group-147svg">
		<path id="path-1_53_" style="fill:#FBB713;" d="M52.406,163.475H37.225c-2.927,0-5.299,1.795-5.299,4.01
			c0,2.216,2.372,4.012,5.299,4.012h0.707c2.927,0,5.3,1.796,5.3,4.011c0,2.214-2.373,4.01-5.3,4.01H5.299
			c-2.926,0-5.299,1.797-5.299,4.012c0,2.215,2.373,4.011,5.299,4.011h39.216h80.158c2.926,0,5.299-1.796,5.299-4.011
			c0-2.215-2.373-4.012-5.299-4.012h-9.057c-2.927,0-5.3-1.796-5.3-4.01c0-2.215,2.373-4.011,5.3-4.011h35.57
			c2.927,0,5.3-1.796,5.3-4.012c0-2.215-2.373-4.01-5.3-4.01h-2.654H52.406z"/>
		<path id="path-2_53_" style="fill:#FBB713;" d="M146.552,188.614c-2.454,0-4.443-1.924-4.443-4.299
			c0-2.374,1.989-4.298,4.443-4.298h13.616c2.453,0,4.443,1.924,4.443,4.298c0,2.375-1.99,4.299-4.443,4.299H146.552z"/>
		<path id="path-3_53_" style="fill:#FF3A2F;" d="M174.924,152.044c-0.911,0-1.842-0.174-2.739-0.541l-60.888-24.911
			c-3.698-1.514-5.472-5.742-3.956-9.443c1.513-3.699,5.735-5.477,9.444-3.96l60.887,24.911c3.698,1.515,5.473,5.742,3.956,9.444
			C180.483,150.348,177.778,152.044,174.924,152.044z"/>
		<path id="path-4_53_" style="fill:#FF3A2F;" d="M114.045,92.093c-2.878,0-5.601-1.727-6.732-4.566
			c-1.478-3.713,0.336-7.926,4.048-9.404l53.515-21.308c3.723-1.479,7.923,0.333,9.409,4.049c1.478,3.713-0.336,7.926-4.049,9.404
			l-53.515,21.308C115.841,91.926,114.936,92.093,114.045,92.093z"/>
		<path id="path-5_53_" style="fill:#FF3A2F;" d="M174.928,168.787c9.677,9.676,25.365,9.676,35.042,0
			c9.677-9.676,9.677-25.365,0-35.041c-9.677-9.678-25.365-9.678-35.042,0C165.251,143.421,165.251,159.111,174.928,168.787z"/>
		<path id="path-6_51_" style="fill:#FF3A2F;" d="M167.556,70.913c9.677,9.676,25.366,9.676,35.042,0
			c9.677-9.676,9.678-25.365,0-35.041c-9.677-9.677-25.365-9.677-35.042,0C157.879,45.548,157.879,61.237,167.556,70.913z"/>
		<path id="path-7_50_" style="fill:#FF3A2F;" d="M75.785,126.79c13.487,13.486,35.353,13.486,48.84,0
			c13.487-13.487,13.487-35.352,0-48.84c-13.487-13.486-35.353-13.486-48.84,0C62.298,91.438,62.298,113.303,75.785,126.79z"/>
		<path id="path-8_37_" style="opacity:0.35;enable-background:new    ;" d="M209.97,133.746c-0.623-0.623-1.271-1.203-1.942-1.744
			c7.89,9.73,7.311,24.045-1.743,33.099s-23.37,9.634-33.102,1.744c0.543,0.669,1.122,1.319,1.745,1.942
			c9.677,9.676,25.365,9.676,35.042,0C219.647,159.111,219.647,143.421,209.97,133.746z"/>
		<path id="path-9_31_" style="opacity:0.35;enable-background:new    ;" d="M202.598,35.872c-0.622-0.624-1.271-1.203-1.94-1.745
			c7.888,9.731,7.309,24.046-1.746,33.1c-9.053,9.054-23.369,9.633-33.101,1.745c0.543,0.669,1.122,1.319,1.745,1.941
			c9.677,9.676,25.366,9.676,35.042,0C212.275,61.237,212.275,45.548,202.598,35.872z"/>
		<path id="path-10_28_" style="opacity:0.35;enable-background:new    ;" d="M124.626,77.95c-0.624-0.622-1.281-1.185-1.937-1.749
			c11.678,13.568,11.115,34.038-1.75,46.903c-12.864,12.865-33.336,13.426-46.905,1.75c0.565,0.655,1.129,1.313,1.75,1.935
			c13.488,13.487,35.354,13.487,48.842,0C138.112,113.303,138.112,91.438,124.626,77.95z"/>
	</g>
</g>
<g>
</g>
<g>
</g>
<g>
</g>
<g>
</g>
<g>
</g>
<g>
</g>
<g>
</g>
<g>
</g>
<g>
</g>
<g>
</g>
<g>
</g>
<g>
</g>
<g>
</g>
<g>
</g>
<g>
</g>
</svg>
