<?xml version="1.0" encoding="iso-8859-1"?>
<!-- Generator: Adobe Illustrator 19.1.0, SVG Export Plug-In . SVG Version: 6.00 Build 0)  -->
<svg version="1.1" id="Capa_1" xmlns="http://www.w3.org/2000/svg" xmlns:xlink="http://www.w3.org/1999/xlink" x="0px" y="0px"
	 viewBox="0 0 217.229 217.229" style="enable-background:new 0 0 217.229 217.229;" xml:space="preserve">
<g>
	<g id="group-20svg">
		<path id="path-1_73_" style="fill:#FF3A2F;" d="M152.92,206.478h15.903c3.066,0,5.552-1.443,5.552-3.224
			c0-1.779-2.486-3.223-5.552-3.223h-0.74c-3.067,0-5.553-1.442-5.553-3.222s2.486-3.224,5.553-3.224h34.186
			c3.067,0,5.552-1.443,5.552-3.223s-2.485-3.224-5.552-3.224h-41.084H77.21c-3.066,0-5.551,1.444-5.551,3.224
			s2.485,3.223,5.551,3.223h9.489c3.066,0,5.552,1.444,5.552,3.224s-2.486,3.222-5.552,3.222H41.543
			c-3.066,0-5.551,1.444-5.551,3.223c0,1.781,2.485,3.224,5.551,3.224h10.673H152.92z"/>
		<path id="path-2_73_" style="fill:#FF3A2F;" d="M61.799,163.571h8.405c1.62,0,2.934-1.15,2.934-2.567
			c0-1.419-1.314-2.569-2.934-2.569h-0.392c-1.62,0-2.934-1.149-2.934-2.568c0-1.418,1.314-2.568,2.934-2.568h18.069
			c1.62,0,2.934-1.149,2.934-2.567s-1.314-2.567-2.934-2.567H66.167H21.786c-1.622,0-2.935,1.149-2.935,2.567
			s1.313,2.567,2.935,2.567H26.8c1.62,0,2.934,1.15,2.934,2.568c0,1.419-1.314,2.568-2.934,2.568H2.934
			c-1.62,0-2.934,1.15-2.934,2.569c0,1.417,1.314,2.567,2.934,2.567h5.64H61.799z"/>
		<path id="path-3_73_" style="fill:#FF3A2F;" d="M48.756,186.915c3.454,0,6.252,1.591,6.252,3.552c0,1.963-2.798,3.553-6.252,3.553
			H29.597c-3.453,0-6.252-1.59-6.252-3.553c0-1.961,2.799-3.552,6.252-3.552H48.756z"/>
		<path id="path-4_73_" style="fill:#142A3B;" d="M175.274,26.453c-17.15,0-32.136-5.589-40.24-13.91
			c-2.325-2.389-6.208-2.389-8.533,0c-8.103,8.321-23.089,13.91-40.24,13.91c-12.704,0-24.199-3.074-32.597-8.049
			c-4.134-2.449-9.357,0.34-9.357,5.143v74.614c0,52.792,38.71,95.589,86.461,95.589s86.461-42.797,86.461-95.589
			c0,0-0.084-50.339-0.22-74.509c-0.026-4.77-5.201-7.548-9.317-5.137C199.308,23.426,187.884,26.453,175.274,26.453z"/>
		<path id="path-5_72_" style="opacity:0.35;fill:#090908;enable-background:new    ;" d="M119.759,18.653
			c8.104,8.322,23.089,13.909,40.24,13.909c12.611,0,24.033-3.026,32.418-7.938c0.27-0.157,0.553-0.235,0.832-0.35
			c-5.53,1.401-11.598,2.179-17.975,2.179c-17.15,0-32.136-5.589-40.24-13.91c-2.325-2.389-6.208-2.389-8.532,0
			c-2.021,2.074-4.469,3.978-7.272,5.668C119.408,18.355,119.595,18.484,119.759,18.653z"/>
		<path id="path-6_69_" style="opacity:0.35;fill:#090908;enable-background:new    ;" d="M70.986,32.562
			c12.856,0,24.493-3.14,32.929-8.215c-5.449,1.346-11.401,2.106-17.654,2.106c-12.704,0-24.199-3.074-32.597-8.05
			c-4.134-2.448-9.357,0.341-9.357,5.145v3.908C51.864,30.66,61.043,32.562,70.986,32.562z"/>
		<path id="path-7_68_" style="opacity:0.35;fill:#090908;enable-background:new    ;" d="M217.009,23.652
			c-0.026-4.77-5.201-7.548-9.317-5.138c-3.769,2.208-8.176,4.008-13.004,5.349c3.529-0.541,7.024,1.981,7.046,5.899
			c0.135,24.17,0.219,74.51,0.219,74.51c0,38.214-20.291,71.177-49.604,86.475c37.308-10.599,64.879-48.031,64.879-92.586
			C217.228,98.161,217.145,47.822,217.009,23.652z"/>
		<path id="path-8_52_" style="fill:#FBB713;" d="M130.768,32.136c-1.189,0-2.379,0.457-3.269,1.373
			c-6.21,6.377-17.693,10.659-30.836,10.659c-9.735,0-18.543-2.356-24.979-6.169c-3.167-1.875-7.169,0.262-7.169,3.943v57.175
			c0,0.251,0.015,0.497,0.017,0.747h66.236V32.136z"/>
		<path id="path-9_45_" style="fill:#EDEDED;" d="M130.768,99.864v72.501c36.364,0,65.872-32.394,66.236-72.501H130.768z"/>
		<path id="path-10_41_" style="fill:#EDEDED;" d="M94.722,158.845c-0.721,0-1.45-0.215-2.086-0.662
			c-10.285-7.266-18.424-16.838-23.537-27.682c-0.852-1.808-0.078-3.964,1.729-4.817c1.807-0.853,3.97-0.077,4.819,1.731
			c4.579,9.713,11.901,18.307,21.168,24.853c1.633,1.154,2.022,3.413,0.866,5.046C96.977,158.311,95.857,158.845,94.722,158.845z"/>
	</g>
</g>
<g>
</g>
<g>
</g>
<g>
</g>
<g>
</g>
<g>
</g>
<g>
</g>
<g>
</g>
<g>
</g>
<g>
</g>
<g>
</g>
<g>
</g>
<g>
</g>
<g>
</g>
<g>
</g>
<g>
</g>
</svg>
