<?xml version="1.0" encoding="iso-8859-1"?>
<!-- Generator: Adobe Illustrator 19.1.0, SVG Export Plug-In . SVG Version: 6.00 Build 0)  -->
<svg version="1.1" id="Capa_1" xmlns="http://www.w3.org/2000/svg" xmlns:xlink="http://www.w3.org/1999/xlink" x="0px" y="0px"
	 viewBox="0 0 218.332 218.332" style="enable-background:new 0 0 218.332 218.332;" xml:space="preserve">
<g>
	<g id="group-82svg">
		<path id="path-1_149_" style="fill:#2476FF;" d="M116.012,194.827h15.532c2.994,0,5.422,1.523,5.422,3.403
			s-2.428,3.404-5.422,3.404h-0.724c-2.994,0-5.421,1.523-5.421,3.402c0,1.88,2.427,3.405,5.421,3.405h33.388
			c2.994,0,5.423,1.523,5.423,3.402c0,1.879-2.429,3.403-5.423,3.403h-40.123h-44.1c-2.994,0-5.423-1.524-5.423-3.403
			c0-1.879,2.429-3.402,5.423-3.402h9.267c2.993,0,5.422-1.525,5.422-3.405c0-1.879-2.429-3.402-5.422-3.402H45.151
			c-2.994,0-5.422-1.524-5.422-3.404s2.428-3.403,5.422-3.403h10.423H116.012z"/>
		<path id="path-2_149_" style="fill:#2476FF;" d="M24.56,162.734h5c0.964,0,1.746,0.837,1.746,1.87
			c0,1.032-0.782,1.869-1.746,1.869h-0.233c-0.964,0-1.745,0.837-1.745,1.87c0,1.032,0.781,1.869,1.745,1.869h10.75
			c0.964,0,1.745,0.836,1.745,1.87c0,1.032-0.781,1.87-1.745,1.87H27.159H12.96c-0.964,0-1.745-0.838-1.745-1.87
			c0-1.034,0.781-1.87,1.745-1.87h2.983c0.965,0,1.746-0.837,1.746-1.869c0-1.033-0.781-1.87-1.746-1.87H1.745
			c-0.964,0-1.745-0.837-1.745-1.869c0-1.033,0.781-1.87,1.745-1.87h3.356H24.56z"/>
		<path id="path-3_149_" style="fill:#2476FF;" d="M196.362,170.829h5c0.965,0,1.747,0.837,1.747,1.869
			c0,1.033-0.782,1.871-1.747,1.871h-0.232c-0.964,0-1.746,0.836-1.746,1.869c0,1.032,0.782,1.869,1.746,1.869h10.749
			c0.965,0,1.746,0.837,1.746,1.87c0,1.031-0.781,1.87-1.746,1.87h-12.918h-14.198c-0.965,0-1.746-0.839-1.746-1.87
			c0-1.033,0.781-1.87,1.746-1.87h2.983c0.964,0,1.746-0.837,1.746-1.869c0-1.033-0.782-1.869-1.746-1.869h-14.198
			c-0.964,0-1.746-0.838-1.746-1.871c0-1.032,0.782-1.869,1.746-1.869h3.356H196.362z"/>
		<path id="path-4_148_" style="fill:#2476FF;" d="M212.141,218.191c3.419,0,6.191-1.739,6.191-3.886
			c0-2.146-2.772-3.886-6.191-3.886h-18.972c-3.419,0-6.19,1.74-6.19,3.886c0,2.147,2.771,3.886,6.19,3.886H212.141z"/>
		<path id="path-5_148_" style="fill:#2476FF;" d="M188.658,150.512c6.54-0.113,11.812-1.943,11.774-4.089
			c-0.037-2.145-5.37-3.794-11.91-3.683l-36.293,0.624c-6.541,0.112-11.812,1.942-11.775,4.088c0.038,2.146,5.37,3.794,11.911,3.683
			L188.658,150.512z"/>
		<path id="path-6_146_" style="fill:#0CB04A;" d="M51.591,73.277l0.25-33.002c0-3.608,3.119-6.533,6.974-6.533h98.919
			c3.853,0,6.972,2.925,6.972,6.533l-0.432,30.984l0,0"/>
		<path id="path-7_146_" style="opacity:0.25;fill:#020403;enable-background:new    ;" d="M157.734,33.743h-10.982l-0.374,26.881
			l-38.763-9.944l-55.94,11.638l-0.084,10.96l112.683-2.018l0.432-30.985C164.706,36.668,161.586,33.743,157.734,33.743z"/>
		<path id="path-8_143_" style="fill:#FF3A2F;" d="M108.262,57.438c0,0-42.664,10.601-78.983,20.648
			c-4.838,1.342-6.406,6.604-3.46,11.375c12.538,20.261,48.857,75.841,64.417,96.342c6.601,8.668,18.208,8.2,18.208,8.2
			s10.955,0.247,17.86-8.769c18.201-23.769,50.856-75.178,63.751-97.806c2.468-4.336-0.773-9.076-5.952-10.471
			C148.374,67.34,108.262,57.438,108.262,57.438z"/>
		<path id="path-9_137_" style="fill:#142A3B;" d="M108.082,119.058c-2.011,0-3.639-1.614-3.639-3.605V58.584
			c0-1.991,1.628-3.605,3.639-3.605c2.012,0,3.639,1.614,3.639,3.605v56.869C111.721,117.443,110.094,119.058,108.082,119.058z"/>
		<path id="path-10_125_" style="fill:#142A3B;" d="M77.432,106.23c0,7.22-3.694,13.067-8.253,13.067
			c-4.58,0-8.297-5.847-8.297-13.067c0-7.218,3.717-13.067,8.297-13.067C73.738,93.163,77.432,99.012,77.432,106.23z"/>
		<path id="path-11_109_" style="fill:#142A3B;" d="M153.97,105.215c0,7.199-3.695,13.064-8.268,13.064
			c-4.566,0-8.268-5.865-8.268-13.064c0-7.227,3.702-13.071,8.268-13.071C150.275,92.145,153.97,97.989,153.97,105.215z"/>
		<path id="path-12_93_" style="fill:#FF3A2F;" d="M93.059,35.401V5.414c0-2.907,0.818-5.273,1.802-5.273h25.674
			c1.007,0,1.817,2.366,1.817,5.273v28.089l0,0"/>
		<path id="path-13_79_" style="opacity:0.35;fill:#020403;enable-background:new    ;" d="M120.535,0.141h-8.921l-0.553,29.95
			L93.059,30.68v4.721l29.293-1.898V5.414C122.352,2.507,121.542,0.141,120.535,0.141z"/>
		<path id="path-14_63_" style="fill:#142A3B;" d="M119.916,11.505H95.993c-2.012,0-3.639-1.615-3.639-3.605
			c0-1.992,1.627-3.605,3.639-3.605h23.923c2.011,0,3.638,1.613,3.638,3.605C123.554,9.89,121.927,11.505,119.916,11.505z"/>
		<path id="path-15_53_" style="opacity:0.35;fill:#020403;enable-background:new    ;" d="M184.103,76.956
			c-35.729-9.616-75.841-19.52-75.841-19.52s-0.237,0.058-0.648,0.161v136.399c0.514,0.014,0.83,0.006,0.83,0.006
			s10.955,0.247,17.86-8.769c18.201-23.769,50.856-75.178,63.751-97.806C192.523,83.091,189.282,78.352,184.103,76.956z"/>
		<path id="path-16_42_" style="fill:#FFFFFF;" d="M83.715,166.656c-1.194,0-2.366-0.583-3.06-1.65l-26.938-41.364
			c-1.089-1.673-0.604-3.904,1.086-4.982c1.692-1.079,3.943-0.599,5.03,1.075l26.935,41.363c1.09,1.671,0.604,3.903-1.084,4.982
			C85.072,166.471,84.39,166.656,83.715,166.656z"/>
	</g>
</g>
<g>
</g>
<g>
</g>
<g>
</g>
<g>
</g>
<g>
</g>
<g>
</g>
<g>
</g>
<g>
</g>
<g>
</g>
<g>
</g>
<g>
</g>
<g>
</g>
<g>
</g>
<g>
</g>
<g>
</g>
</svg>
