<?xml version="1.0" encoding="iso-8859-1"?>
<!-- Generator: Adobe Illustrator 19.1.0, SVG Export Plug-In . SVG Version: 6.00 Build 0)  -->
<svg version="1.1" id="Capa_1" xmlns="http://www.w3.org/2000/svg" xmlns:xlink="http://www.w3.org/1999/xlink" x="0px" y="0px"
	 viewBox="0 0 218.333 218.333" style="enable-background:new 0 0 218.333 218.333;" xml:space="preserve">
<g>
	<g id="group-97svg">
		<path id="path-1_165_" style="fill:#2476FF;" d="M180.006,180.904h11.102c2.14,0,3.876,1.777,3.876,3.968
			c0,2.192-1.736,3.969-3.876,3.969h-0.517c-2.141,0-3.876,1.778-3.876,3.97c0,2.191,1.735,3.968,3.876,3.968h23.866
			c2.141,0,3.876,1.777,3.876,3.969s-1.735,3.969-3.876,3.969h-28.681h-58.623c-2.141,0-3.876-1.777-3.876-3.969
			s1.735-3.969,3.876-3.969h6.624c2.14,0,3.876-1.777,3.876-3.968c0-2.192-1.736-3.97-3.876-3.97h-31.523
			c-2.141,0-3.876-1.777-3.876-3.969c0-2.191,1.735-3.968,3.876-3.968h7.45H180.006z"/>
		<path id="path-2_165_" style="fill:#2476FF;" d="M84.455,198.066c2.649,0,4.795-0.915,4.795-2.041
			c0-1.128-2.146-2.041-4.795-2.041H69.759c-2.648,0-4.795,0.913-4.795,2.041c0,1.126,2.147,2.041,4.795,2.041H84.455z"/>
		<path id="path-3_165_" style="fill:#2476FF;" d="M32.106,119.874h4.366c0.842,0,1.525,0.883,1.525,1.973
			c0,1.09-0.683,1.974-1.525,1.974h-0.203c-0.842,0-1.524,0.883-1.524,1.973c0,1.09,0.682,1.973,1.524,1.973h9.387
			c0.842,0,1.525,0.884,1.525,1.975c0,1.089-0.683,1.973-1.525,1.973h-11.28H11.318c-0.842,0-1.524-0.884-1.524-1.973
			c0-1.091,0.682-1.975,1.524-1.975h2.605c0.842,0,1.524-0.883,1.524-1.973c0-1.09-0.682-1.973-1.524-1.973H1.524
			c-0.841,0-1.524-0.884-1.524-1.974c0-1.09,0.683-1.973,1.524-1.973h2.931H32.106z"/>
		<path id="path-4_164_" style="fill:#2476FF;" d="M198.414,135.32h4.367c0.842,0,1.524,0.883,1.524,1.973
			c0,1.09-0.682,1.974-1.524,1.974h-0.204c-0.841,0-1.524,0.883-1.524,1.973c0,1.09,0.683,1.974,1.524,1.974h9.388
			c0.841,0,1.524,0.884,1.524,1.974c0,1.09-0.683,1.974-1.524,1.974h-11.281h-23.057c-0.843,0-1.525-0.884-1.525-1.974
			c0-1.09,0.682-1.974,1.525-1.974h2.605c0.842,0,1.524-0.884,1.524-1.974c0-1.09-0.682-1.973-1.524-1.973h-12.399
			c-0.842,0-1.525-0.884-1.525-1.974c0-1.09,0.683-1.973,1.525-1.973h2.93H198.414z"/>
		<path id="path-5_164_" style="fill:#2476FF;" d="M33.005,165.299h2.522c0.487,0,0.881,0.51,0.881,1.14
			c0,0.629-0.394,1.14-0.881,1.14H35.41c-0.487,0-0.881,0.51-0.881,1.14c0,0.628,0.394,1.139,0.881,1.139h5.421
			c0.486,0,0.88,0.511,0.88,1.14c0,0.63-0.394,1.139-0.88,1.139h-6.515H21.001c-0.487,0-0.881-0.509-0.881-1.139
			c0-0.629,0.394-1.14,0.881-1.14h1.504c0.486,0,0.88-0.511,0.88-1.139c0-0.63-0.394-1.14-0.88-1.14h-7.161
			c-0.486,0-0.88-0.511-0.88-1.14c0-0.63,0.394-1.14,0.88-1.14h1.692H33.005z"/>
		<path id="path-6_162_" style="fill:#FBB713;" d="M155.418,94.336l45.575,4.015V46.128c0-12.932-10.583-23.415-23.636-23.415
			h-26.335L155.418,94.336z"/>
		<path id="path-7_161_" style="fill:#FBB713;" d="M71.438,94.336L24.15,98.351V46.128c0-12.932,10.583-23.415,23.637-23.415h25.847
			L71.438,94.336z"/>
		<path id="path-8_157_" style="opacity:0.25;fill:#010101;enable-background:new    ;" d="M171.545,22.712h-20.523l4.396,71.624
			l8.023,1.42L171.545,22.712z"/>
		<path id="path-9_151_" style="opacity:0.25;fill:#010101;enable-background:new    ;" d="M65.94,95.491l5.498-1.155l2.196-71.624
			H53.786L65.94,95.491z"/>
		<path id="path-10_136_" style="fill:#B17D0A;" d="M155.067,168.395l45.926-70.044l-50.794-12.486L155.067,168.395z"/>
		<path id="path-11_120_" style="fill:#B17D0A;" d="M71.336,170.782L24.15,98.351l56.999-12.486L71.336,170.782z"/>
		<path id="path-12_103_" style="fill:#FBB713;" d="M151.721,180.58H73.422c-2.795,0-5.06-2.267-5.06-5.062V18.679
			c0-2.796,2.265-5.062,5.06-5.062h78.299c2.796,0,5.061,2.266,5.061,5.062v156.839C156.782,178.313,154.516,180.58,151.721,180.58z
			"/>
		<path id="path-13_87_" style="fill:#2476FF;" d="M133.953,65.228c0,11.398-9.326,20.637-20.831,20.637
			s-20.831-9.239-20.831-20.637c0-11.399,9.326-20.637,20.831-20.637S133.953,53.829,133.953,65.228z"/>
	</g>
</g>
<g>
</g>
<g>
</g>
<g>
</g>
<g>
</g>
<g>
</g>
<g>
</g>
<g>
</g>
<g>
</g>
<g>
</g>
<g>
</g>
<g>
</g>
<g>
</g>
<g>
</g>
<g>
</g>
<g>
</g>
</svg>
