<?xml version="1.0" encoding="iso-8859-1"?>
<!-- Generator: Adobe Illustrator 19.1.0, SVG Export Plug-In . SVG Version: 6.00 Build 0)  -->
<svg version="1.1" id="Capa_1" xmlns="http://www.w3.org/2000/svg" xmlns:xlink="http://www.w3.org/1999/xlink" x="0px" y="0px"
	 viewBox="0 0 217.228 217.228" style="enable-background:new 0 0 217.228 217.228;" xml:space="preserve">
<g>
	<g id="group-33svg">
		<path id="path-1_87_" style="fill:#FF3A2F;" d="M163.585,202.33h15.539c2.996,0,5.424-1.41,5.424-3.148
			c0-1.74-2.428-3.151-5.424-3.151H178.4c-2.996,0-5.424-1.409-5.424-3.149c0-1.739,2.428-3.149,5.424-3.149h33.404
			c2.995,0,5.424-1.41,5.424-3.15c0-1.739-2.429-3.149-5.424-3.149h-40.142h-82.05c-2.997,0-5.425,1.41-5.425,3.149
			c0,1.74,2.428,3.15,5.425,3.15h9.27c2.996,0,5.425,1.41,5.425,3.149c0,1.74-2.429,3.149-5.425,3.149H54.761
			c-2.995,0-5.424,1.411-5.424,3.151c0,1.738,2.429,3.148,5.424,3.148h10.428H163.585z"/>
		<path id="path-2_87_" style="fill:#FF3A2F;" d="M60.382,171.814h8.212c1.583,0,2.867-1.123,2.867-2.509
			c0-1.385-1.284-2.508-2.867-2.508h-0.382c-1.583,0-2.867-1.123-2.867-2.509c0-1.385,1.284-2.509,2.867-2.509h17.653
			c1.585,0,2.868-1.123,2.868-2.509c0-1.384-1.283-2.509-2.868-2.509H64.65H21.285c-1.583,0-2.866,1.125-2.866,2.509
			c0,1.386,1.283,2.509,2.866,2.509h4.9c1.583,0,2.867,1.124,2.867,2.509c0,1.386-1.284,2.509-2.867,2.509H2.867
			c-1.584,0-2.867,1.123-2.867,2.508c0,1.386,1.283,2.509,2.867,2.509h5.511H60.382z"/>
		<path id="path-3_87_" style="fill:#FF3A2F;" d="M35.498,196.636c3.373,0,6.109,1.554,6.109,3.47c0,1.917-2.736,3.471-6.109,3.471
			h-18.72c-3.374,0-6.109-1.554-6.109-3.471c0-1.916,2.735-3.47,6.109-3.47H35.498z"/>
		<path id="path-4_87_" style="fill:#142A3B;" d="M107.024,42.906c18.764,0,38.104-10.71,41.95-28.83l0.064,0.03v-0.454H65.09
			C69.003,32.007,88.669,42.906,107.024,42.906z"/>
		<path id="path-5_86_" style="opacity:0.35;fill:#060606;enable-background:new    ;" d="M134.123,13.651
			c-5.268,16.245-23.441,25.751-41.113,25.751c-1.565,0-3.138-0.109-4.711-0.264c5.936,2.446,12.402,3.769,18.725,3.769
			c18.764,0,38.104-10.711,41.95-28.832l0.064,0.031v-0.455H134.123z"/>
		<path id="path-6_83_" style="fill:#FBB713;" d="M190.586,83.85h-25.358c-2.446,0-2.148,0.445-2.148,2.886v101.492H58.699V86.736
			c0-2.441-5.962-2.886-8.405-2.886H23.469l-12.8-43.343L65.09,13.652c3.913,18.355,23.579,29.254,41.934,29.254
			c18.764,0,38.104-10.71,41.95-28.831l54.397,26.518L190.586,83.85z"/>
		<path id="path-7_82_" style="opacity:0.25;fill:#060606;enable-background:new    ;" d="M148.974,14.075
			c-0.329,1.55-0.81,3.024-1.355,4.463l45.242,22.056L180.076,83.85h10.511l12.784-43.256L148.974,14.075z"/>
		<path id="path-8_63_" style="opacity:0.25;fill:#060606;enable-background:new    ;" d="M96.513,42.907
			c1.776,0,3.555-0.127,5.328-0.316C85.12,40.766,68.636,30.286,65.09,13.651l-9.139,4.51
			C61.874,33.766,79.723,42.907,96.513,42.907z"/>
		<path id="path-9_55_" style="opacity:0.25;fill:#060606;enable-background:new    ;" d="M152.569,86.737v101.491h10.511V86.737
			c0-2.443-0.298-2.887,2.148-2.887h-10.511C152.271,83.85,152.569,84.294,152.569,86.737z"/>
	</g>
</g>
<g>
</g>
<g>
</g>
<g>
</g>
<g>
</g>
<g>
</g>
<g>
</g>
<g>
</g>
<g>
</g>
<g>
</g>
<g>
</g>
<g>
</g>
<g>
</g>
<g>
</g>
<g>
</g>
<g>
</g>
</svg>
