<?xml version="1.0" encoding="iso-8859-1"?>
<!-- Generator: Adobe Illustrator 19.1.0, SVG Export Plug-In . SVG Version: 6.00 Build 0)  -->
<svg version="1.1" id="Capa_1" xmlns="http://www.w3.org/2000/svg" xmlns:xlink="http://www.w3.org/1999/xlink" x="0px" y="0px"
	 viewBox="0 0 217.221 217.221" style="enable-background:new 0 0 217.221 217.221;" xml:space="preserve">
<g>
	<g id="group-114svg">
		<path id="path-1_17_" style="fill:#FF3A2F;" d="M43.473,201.596h-6.666c-1.285,0-2.327,1.116-2.327,2.493s1.042,2.492,2.327,2.492
			h0.31c1.286,0,2.328,1.117,2.328,2.494s-1.042,2.493-2.328,2.493H22.785c-1.285,0-2.327,1.115-2.327,2.492
			s1.042,2.493,2.327,2.493h17.223h35.204c1.285,0,2.327-1.116,2.327-2.493s-1.042-2.492-2.327-2.492h-3.978
			c-1.285,0-2.327-1.116-2.327-2.493s1.042-2.494,2.327-2.494h15.622c1.286,0,2.328-1.115,2.328-2.492s-1.042-2.493-2.328-2.493
			H85.69H43.473z"/>
		<path id="path-2_17_" style="fill:#FF3A2F;" d="M84.821,217.221c-1.078,0-1.951-1.196-1.951-2.672c0-1.475,0.873-2.67,1.951-2.67
			H90.8c1.078,0,1.952,1.195,1.952,2.67c0,1.476-0.874,2.672-1.952,2.672H84.821z"/>
		<path id="path-3_17_" style="fill:#FF3A2F;" d="M143.571,202.264h-6.667c-1.285,0-2.327,1.116-2.327,2.493
			s1.042,2.493,2.327,2.493h0.31c1.286,0,2.328,1.116,2.328,2.493s-1.042,2.492-2.328,2.492h-14.331
			c-1.286,0-2.328,1.117-2.328,2.494s1.042,2.492,2.328,2.492h17.223h35.203c1.285,0,2.328-1.115,2.328-2.492
			s-1.043-2.494-2.328-2.494h-3.977c-1.286,0-2.327-1.115-2.327-2.492s1.041-2.493,2.327-2.493h15.622
			c1.285,0,2.327-1.116,2.327-2.493s-1.042-2.493-2.327-2.493h-1.167H143.571z"/>
		<path id="path-4_17_" style="fill:#142A3B;" d="M196.24,44.422H81.16l-28.176,8.053l117.515-0.769L196.24,44.422z"/>
		<path id="path-5_17_" style="fill:#FBB713;" d="M166.763,204.417h-116V51.421h89.174h26.826V204.417z"/>
		<path id="path-6_17_" style="fill:#FBB713;" d="M196.763,187.627l-30,15.482V51.121l30-7.158V187.627z"/>
		<path id="path-7_17_" style="opacity:0.35;enable-background:new    ;" d="M196.763,187.627l-30,15.482V51.121l30-7.158V187.627z"
			/>
		<path id="path-8_13_" style="fill:#0CB04A;" d="M151.249,83.194c0,5.279-4.256,9.558-9.505,9.558
			c-5.249,0-9.504-4.279-9.504-9.558c0-5.278,4.255-9.558,9.504-9.558C146.993,73.636,151.249,77.916,151.249,83.194z"/>
		<path id="path-9_12_" style="fill:#0CB04A;" d="M86.455,83.194c0,5.279-4.255,9.558-9.504,9.558s-9.504-4.279-9.504-9.558
			c0-5.278,4.255-9.558,9.504-9.558S86.455,77.916,86.455,83.194z"/>
		<path id="path-10_11_" style="opacity:0.35;enable-background:new    ;" d="M146.623,75.031c0.876,1.447,1.408,3.128,1.408,4.946
			c0,5.279-4.255,9.558-9.504,9.558c-1.792,0-3.449-0.528-4.879-1.395c1.667,2.756,4.655,4.612,8.096,4.612
			c5.249,0,9.505-4.279,9.505-9.558C151.249,79.718,149.384,76.704,146.623,75.031z"/>
		<path id="path-11_9_" style="opacity:0.35;enable-background:new    ;" d="M81.83,75.031c0.876,1.447,1.408,3.128,1.408,4.946
			c0,5.279-4.255,9.558-9.504,9.558c-1.792,0-3.449-0.527-4.879-1.395c1.668,2.756,4.654,4.612,8.096,4.612
			c5.249,0,9.504-4.279,9.504-9.558C86.455,79.718,84.59,76.704,81.83,75.031z"/>
		<path id="path-12_7_" style="fill:#142A3B;" d="M141.763,84.463c-2.001,0-3-1.621-3-3.621V35.695
			c0-15.422-13.298-28.455-29-28.455s-29,13.033-29,28.455v41.528c0,1.998-1.999,3.619-4,3.619s-4-1.621-4-3.619V35.695
			c0-19.682,16.038-35.695,36-35.695s36,16.013,36,35.695v45.147C144.763,82.842,143.764,84.463,141.763,84.463z"/>
		<path id="path-13_6_" style="fill:#142A3B;" d="M159.763,48.259c-2.001,0-4-1.62-4-3.62v-8.944
			c0-15.158-14.105-28.455-30.5-28.455c-16.394,0-30.5,13.297-30.5,28.455v8.944c0,2-1.499,3.62-3.5,3.62
			c-2.001,0-3.5-1.62-3.5-3.62v-8.944c0-19.016,17.748-35.695,38-35.695s38,16.679,38,35.695v8.944
			C163.763,46.639,161.764,48.259,159.763,48.259z"/>
	</g>
</g>
<g>
</g>
<g>
</g>
<g>
</g>
<g>
</g>
<g>
</g>
<g>
</g>
<g>
</g>
<g>
</g>
<g>
</g>
<g>
</g>
<g>
</g>
<g>
</g>
<g>
</g>
<g>
</g>
<g>
</g>
</svg>
