<?xml version="1.0" encoding="iso-8859-1"?>
<!-- Generator: Adobe Illustrator 19.1.0, SVG Export Plug-In . SVG Version: 6.00 Build 0)  -->
<svg version="1.1" id="Capa_1" xmlns="http://www.w3.org/2000/svg" xmlns:xlink="http://www.w3.org/1999/xlink" x="0px" y="0px"
	 viewBox="0 0 218.333 218.333" style="enable-background:new 0 0 218.333 218.333;" xml:space="preserve">
<g>
	<g id="group-127svg">
		<path id="path-1_31_" style="fill:#FBB713;" d="M18.346,68.321v105.846c0,6.713,5.998,12.162,13.398,12.162H172.39
			c7.4,0,13.398-5.449,13.398-12.162V68.321H18.346z"/>
		<path id="path-2_31_" style="fill:#142A3B;" d="M129.779,116.207H74.355v70.122h55.424V116.207z"/>
		<path id="path-3_31_" style="fill:#FF3A2F;" d="M23.253,10.249L0,54.414c0,7.682,4.04,13.907,9.011,13.907h186.301
			c4.976,0,9.012-6.225,9.012-13.907L181.07,10.249H23.253z"/>
		<path id="path-4_31_" style="opacity:0.35;fill:#010101;enable-background:new    ;" d="M74.355,116.208v8.901h37.455v61.22
			h17.969v-70.121H74.355z"/>
		<path id="path-5_31_" style="fill:#142A3B;" d="M19.74,67.051c-0.459,0-0.923-0.085-1.37-0.267
			c-1.864-0.75-2.759-2.853-1.998-4.697l19.68-47.859c0.752-1.846,2.884-2.73,4.74-1.979c1.862,0.751,2.758,2.855,1.997,4.699
			l-19.68,47.859C22.537,66.204,21.176,67.051,19.74,67.051z"/>
		<path id="path-6_31_" style="fill:#142A3B;" d="M61.769,67.051c-0.264,0-0.533-0.028-0.803-0.087
			c-1.958-0.438-3.192-2.366-2.751-4.308l10.861-47.859c0.439-1.941,2.365-3.166,4.348-2.726c1.959,0.436,3.192,2.365,2.751,4.307
			l-10.86,47.859C64.935,65.914,63.431,67.051,61.769,67.051z"/>
		<path id="path-7_31_" style="fill:#142A3B;" d="M183.984,67.051c-1.382,0-2.701-0.78-3.313-2.102l-22.128-47.86
			c-0.838-1.811-0.035-3.95,1.795-4.779c1.83-0.835,3.984-0.031,4.822,1.776l22.13,47.86c0.833,1.81,0.034,3.95-1.796,4.778
			C185.003,66.946,184.489,67.051,183.984,67.051z"/>
		<path id="path-8_31_" style="fill:#142A3B;" d="M142.485,67.051c-1.641,0-3.135-1.11-3.536-2.762L127.336,16.43
			c-0.469-1.936,0.736-3.882,2.689-4.348c1.949-0.46,3.92,0.727,4.39,2.663l11.613,47.86c0.468,1.934-0.736,3.88-2.69,4.347
			C143.054,67.018,142.765,67.051,142.485,67.051z"/>
		<path id="path-9_28_" style="fill:#142A3B;" d="M102.165,67.051c-2.011,0-3.638-1.614-3.638-3.604V15.588
			c0-1.992,1.627-3.606,3.638-3.606c2.012,0,3.64,1.614,3.64,3.606v47.859C105.805,65.437,104.177,67.051,102.165,67.051z"/>
		<path id="path-10_26_" style="opacity:0.25;fill:#010101;enable-background:new    ;" d="M9.011,68.321h186.301
			c4.977,0,9.012-6.225,9.012-13.907H0C0,62.096,4.04,68.321,9.011,68.321z"/>
		<path id="path-11_23_" style="opacity:0.35;fill:#010101;enable-background:new    ;" d="M185.788,91.538l-167.442-8.9V68.321
			h167.442V91.538z"/>
		<path id="path-12_19_" style="fill:#142A3B;" d="M203.593,168.094c3.253,0,5.89-1.172,5.89-2.62c0-1.447-2.637-2.621-5.89-2.621
			h-18.05c-3.253,0-5.89,1.174-5.89,2.621c0,1.448,2.637,2.62,5.89,2.62H203.593z"/>
		<path id="path-13_15_" style="fill:#142A3B;" d="M212.442,206.387c3.254,0,5.891-1.173,5.891-2.62
			c0-1.447-2.637-2.621-5.891-2.621h-18.05c-3.253,0-5.89,1.174-5.89,2.621c0,1.447,2.637,2.62,5.89,2.62H212.442z"/>
		<path id="path-14_12_" style="fill:#142A3B;" d="M90.63,186.474H72.444c-3.505,0-6.349,1.612-6.349,3.601
			c0,1.99,2.844,3.602,6.349,3.602h0.846c3.507,0,6.349,1.612,6.349,3.601c0,1.989-2.842,3.602-6.349,3.602H34.198
			c-3.507,0-6.349,1.612-6.349,3.601c0,1.99,2.842,3.603,6.349,3.603h46.98h96.026c3.506,0,6.348-1.613,6.348-3.603
			c0-1.989-2.842-3.601-6.348-3.601h-10.85c-3.507,0-6.348-1.613-6.348-3.602c0-1.989,2.841-3.601,6.348-3.601h42.613
			c3.506,0,6.348-1.612,6.348-3.602c0-1.989-2.842-3.601-6.348-3.601h-3.181H90.63z"/>
	</g>
</g>
<g>
</g>
<g>
</g>
<g>
</g>
<g>
</g>
<g>
</g>
<g>
</g>
<g>
</g>
<g>
</g>
<g>
</g>
<g>
</g>
<g>
</g>
<g>
</g>
<g>
</g>
<g>
</g>
<g>
</g>
</svg>
