<?xml version="1.0" encoding="iso-8859-1"?>
<!-- Generator: Adobe Illustrator 19.1.0, SVG Export Plug-In . SVG Version: 6.00 Build 0)  -->
<svg version="1.1" id="Capa_1" xmlns="http://www.w3.org/2000/svg" xmlns:xlink="http://www.w3.org/1999/xlink" x="0px" y="0px"
	 viewBox="0 0 217.229 217.229" style="enable-background:new 0 0 217.229 217.229;" xml:space="preserve">
<g>
	<g id="group-6svg">
		<path id="path-1_116_" style="fill:#0CB04A;" d="M104.351,158.916h12.944c2.496,0,4.519,0.909,4.519,2.03
			c0,1.12-2.023,2.028-4.519,2.028h-0.602c-2.496,0-4.519,0.908-4.519,2.029s2.023,2.029,4.519,2.029h27.826
			c2.496,0,4.519,0.908,4.519,2.029s-2.023,2.03-4.519,2.03h-33.44H74.324c-2.495,0-4.518-0.909-4.518-2.03s2.023-2.029,4.518-2.029
			h7.723c2.496,0,4.519-0.908,4.519-2.029s-2.023-2.029-4.519-2.029H45.293c-2.496,0-4.519-0.908-4.519-2.028
			c0-1.121,2.023-2.03,4.519-2.03h8.687H104.351z"/>
		<path id="path-2_116_" style="fill:#0CB04A;" d="M184.468,172.846c2.85,0,5.16-1.037,5.16-2.316c0-1.28-2.31-2.318-5.16-2.318
			h-15.811c-2.85,0-5.16,1.038-5.16,2.318c0,1.279,2.31,2.316,5.16,2.316H184.468z"/>
		<path id="path-3_116_" style="fill:#0CB04A;" d="M196.709,140.69h5.944c1.146,0,2.075,0.516,2.075,1.151
			c0,0.636-0.929,1.151-2.075,1.151h-0.277c-1.146,0-2.075,0.516-2.075,1.152c0,0.635,0.929,1.15,2.075,1.15h12.778
			c1.146,0,2.075,0.516,2.075,1.152s-0.929,1.15-2.075,1.15h-15.356h-31.385c-1.146,0-2.075-0.514-2.075-1.15
			s0.929-1.152,2.075-1.152h3.546c1.146,0,2.075-0.515,2.075-1.15c0-0.636-0.929-1.152-2.075-1.152h-16.877
			c-1.146,0-2.075-0.515-2.075-1.151c0-0.635,0.929-1.151,2.075-1.151h3.988H196.709z"/>
		<path id="path-4_116_" style="fill:#142A3B;" d="M136.089,77.205h12.431l-31.534-31.534c-1.717-1.718-4.499-1.718-6.216,0
			c-1.717,1.717-1.717,4.498,0,6.216L136.089,77.205z"/>
		<path id="path-5_115_" style="fill:#FBB713;" d="M10.971,85.996L33.7,146.695c2.074,4.271,6.404,6.983,11.153,6.983h84.061
			c5.092,0,9.667-3.114,11.534-7.851l23.586-59.831H10.971z"/>
		<path id="path-6_112_" style="fill:#142A3B;" d="M4.396,77.205C1.975,77.205,0,79.17,0,81.6s1.975,4.396,4.396,4.396h166.213
			c2.438,0,4.395-1.966,4.395-4.396s-1.957-4.395-4.395-4.395H4.396z"/>
		<path id="path-7_109_" style="opacity:0.25;fill:#090908;enable-background:new    ;" d="M10.971,85.996l2.142,5.719
			l112.437,7.306c8.57,0.557,22.97,2.533,16.464,17.831l-15.055,36.826h1.955c5.092,0,9.666-3.114,11.534-7.851l23.586-59.831
			H10.971z"/>
		<path id="path-8_86_" style="opacity:0.3;fill:#010101;enable-background:new    ;" d="M127.554,109.643H47.451
			c-2.001,0-3.621-1.621-3.621-3.62c0-1.999,1.62-3.62,3.621-3.62h80.103c2.001,0,3.621,1.621,3.621,3.62
			C131.175,108.022,129.555,109.643,127.554,109.643z"/>
		<path id="path-9_74_" style="opacity:0.3;fill:#010101;enable-background:new    ;" d="M127.554,129.864H47.451
			c-2.001,0-3.621-1.621-3.621-3.619c0-2,1.62-3.621,3.621-3.621h80.103c2.001,0,3.621,1.621,3.621,3.621
			C131.175,128.243,129.555,129.864,127.554,129.864z"/>
		<path id="path-10_68_" style="opacity:0.35;fill:#090908;enable-background:new    ;" d="M4.396,85.996h166.213
			c2.438,0,4.395-1.966,4.395-4.396H0C0,84.03,1.975,85.996,4.396,85.996z"/>
		<path id="path-11_58_" style="fill:#142A3B;" d="M38.916,77.205l25.319-25.318c1.717-1.718,1.717-4.499,0-6.216
			c-1.717-1.718-4.499-1.718-6.216,0L26.485,77.205H38.916z"/>
		<path id="path-12_50_" style="opacity:0.35;fill:#090908;enable-background:new    ;" d="M31.54,72.149l-5.055,5.056h12.431
			l6.167-6.167L31.54,72.149z"/>
		<path id="path-13_39_" style="opacity:0.35;fill:#090908;enable-background:new    ;" d="M145.491,74.174l3.029,3.031h-12.431
			l-5.341-5.341L145.491,74.174z"/>
	</g>
</g>
<g>
</g>
<g>
</g>
<g>
</g>
<g>
</g>
<g>
</g>
<g>
</g>
<g>
</g>
<g>
</g>
<g>
</g>
<g>
</g>
<g>
</g>
<g>
</g>
<g>
</g>
<g>
</g>
<g>
</g>
</svg>
