<?xml version="1.0" encoding="iso-8859-1"?>
<!-- Generator: Adobe Illustrator 19.1.0, SVG Export Plug-In . SVG Version: 6.00 Build 0)  -->
<svg version="1.1" id="Capa_1" xmlns="http://www.w3.org/2000/svg" xmlns:xlink="http://www.w3.org/1999/xlink" x="0px" y="0px"
	 viewBox="0 0 226.816 226.816" style="enable-background:new 0 0 226.816 226.816;" xml:space="preserve">
<g>
	<g id="group-42svg">
		<path id="path-1_105_" style="fill:#2476FF;" d="M185.322,186.436h12.019c2.318,0,4.196,1.179,4.196,2.634
			s-1.878,2.634-4.196,2.634h-0.558c-2.319,0-4.197,1.179-4.197,2.633c0,1.455,1.878,2.634,4.197,2.634h25.837
			c2.317,0,4.196,1.18,4.196,2.634c0,1.454-1.879,2.634-4.196,2.634h-31.051h-34.128c-2.317,0-4.196-1.18-4.196-2.634
			c0-1.454,1.879-2.634,4.196-2.634h7.172c2.316,0,4.195-1.179,4.195-2.634c0-1.454-1.879-2.633-4.195-2.633h-34.129
			c-2.318,0-4.196-1.179-4.196-2.634s1.878-2.634,4.196-2.634h8.066H185.322z"/>
		<path id="path-2_105_" style="fill:#FBB713;" d="M215.364,176.729c3.476,0,6.294-1.768,6.294-3.951c0-2.181-2.818-3.95-6.294-3.95
			h-19.288c-3.477,0-6.295,1.769-6.295,3.95c0,2.183,2.818,3.951,6.295,3.951H215.364z"/>
		<path id="path-3_105_" style="fill:#2476FF;" d="M47.156,140.262h5.047c0.974,0,1.762,0.787,1.762,1.758
			c0,0.969-0.788,1.756-1.762,1.756h-0.234c-0.974,0-1.763,0.788-1.763,1.759c0,0.97,0.789,1.758,1.763,1.758H62.82
			c0.973,0,1.762,0.786,1.762,1.756c0,0.971-0.789,1.758-1.762,1.758H49.779H35.446c-0.973,0-1.762-0.787-1.762-1.758
			c0-0.97,0.789-1.756,1.762-1.756h3.012c0.973,0,1.761-0.788,1.761-1.758c0-0.971-0.788-1.759-1.761-1.759H24.124
			c-0.973,0-1.762-0.787-1.762-1.756c0-0.971,0.789-1.758,1.762-1.758h3.388H47.156z"/>
		<path id="path-4_104_" style="fill:#FBB713;" d="M182.312,126.532h3.274c0.63,0,1.142,0.427,1.142,0.952
			c0,0.526-0.512,0.951-1.142,0.951h-0.152c-0.632,0-1.143,0.426-1.143,0.951c0,0.525,0.511,0.951,1.143,0.951h7.036
			c0.631,0,1.143,0.426,1.143,0.951c0,0.525-0.512,0.952-1.143,0.952h-8.456h-9.294c-0.632,0-1.144-0.427-1.144-0.952
			c0-0.525,0.512-0.951,1.144-0.951h1.952c0.631,0,1.143-0.426,1.143-0.951c0-0.525-0.512-0.951-1.143-0.951h-9.295
			c-0.632,0-1.142-0.425-1.142-0.951c0-0.525,0.51-0.952,1.142-0.952h2.197H182.312z"/>
		<path id="path-5_104_" style="fill:#FBB713;" d="M173.135,204.921L96.99,162.528c-4.689-2.609-11.393-2.609-16.08-0.001
			L4.759,204.921c-9.352,5.204-3.996,15.598,8.039,15.598h92.851h59.446C177.129,220.519,182.486,210.126,173.135,204.921z"/>
		<path id="path-6_103_" style="fill:#FBB713;" d="M193.909,37.139c-0.517,1.126-1.856,1.623-2.993,1.112l-46.833-21.053
			c-1.136-0.511-1.642-1.838-1.126-2.964l3.034-6.624c0.515-1.125,1.857-1.623,2.993-1.112l46.834,21.053
			c1.135,0.512,1.64,1.84,1.125,2.965L193.909,37.139z"/>
		<path id="path-7_103_" style="opacity:0.25;fill:#020403;enable-background:new    ;" d="M142.957,14.234
			c-0.516,1.126-0.01,2.453,1.126,2.964l46.833,21.053c1.137,0.511,2.476,0.014,2.993-1.112l0.729-1.592l-50.952-22.905
			L142.957,14.234z"/>
		<path id="path-8_100_" style="fill:#9FA869;" d="M172.401,26.625l-7.294-3.279c-1.178-0.53-2.566-0.013-3.1,1.156l-0.287,0.624
			l11.558,5.196l0.287-0.625C174.099,28.53,173.579,27.154,172.401,26.625z"/>
		<path id="path-9_95_" style="fill:#2476FF;" d="M79.659,193.058l0.32,0.145h35.655l10.016-31.948
			c1.666-5.312-0.92-11.021-6.033-13.32l-11.913-5.355c-5.113-2.298-11.154-0.468-14.091,4.272L74.77,177.238
			C71.263,182.893,73.556,190.315,79.659,193.058z"/>
		<path id="path-10_87_" style="opacity:0.35;enable-background:new    ;" d="M119.564,147.911
			c-5.072,11.072-11.826,18.855-15.087,17.388c-3.261-1.466-1.795-11.626,3.277-22.697l0,0"/>
		<path id="path-11_76_" style="fill:#142A3B;" d="M155.083,66.794c0.515-1.126,0.01-2.453-1.126-2.964l-4.972-2.236
			c-1.139-0.512-2.475-0.012-2.991,1.114l-39.99,87.301c-0.003,0.005-0.001,0.012-0.005,0.018c-0.01,0.024-0.023,0.044-0.034,0.068
			c-2.236,4.877-2.013,9.747,0.495,10.875c2.514,1.13,6.359-1.911,8.594-6.79c0.011-0.024,0.017-0.046,0.027-0.07
			c0.003-0.005,0.009-0.009,0.011-0.015L155.083,66.794z"/>
		<path id="path-12_65_" style="fill:#FFFFFF;" d="M111.539,149.886l38.376-83.776l-2.688-1.208l-38.375,83.777l-0.005-0.003
			c-1.378,3.009-1.893,5.715-1.147,6.051c0.747,0.335,2.466-1.829,3.845-4.838L111.539,149.886z"/>
		<path id="path-13_53_" style="fill:#FBB713;" d="M156.421,66.576c-0.515,1.126-1.855,1.625-2.992,1.114l-7.028-3.159
			c-1.136-0.511-1.639-1.839-1.123-2.964l16.766-36.601c0.516-1.127,1.856-1.626,2.991-1.115l7.029,3.16
			c1.136,0.51,1.64,1.837,1.123,2.963L156.421,66.576z"/>
		<path id="path-14_43_" style="fill:#FFFFFF;" d="M149.915,66.11l-2.688-1.208l18.636-40.679l2.687,1.208L149.915,66.11z"/>
		<path id="path-15_36_" style="opacity:0.35;fill:#020403;enable-background:new    ;" d="M115.634,193.203l10.016-31.948
			c1.566-4.993-0.657-10.3-5.172-12.834c0.662,2.08,0.744,4.354,0.049,6.572l-10.678,34.056c-0.503,1.603-1.339,2.999-2.401,4.154
			H115.634z"/>
		<path id="path-16_29_" style="opacity:0.35;fill:#020403;enable-background:new    ;" d="M79.659,193.058l0.32,0.145h8.806
			l-14.251-6.407c-0.332-0.149-0.607-0.362-0.915-0.537C74.52,189.156,76.614,191.69,79.659,193.058z"/>
	</g>
</g>
<g>
</g>
<g>
</g>
<g>
</g>
<g>
</g>
<g>
</g>
<g>
</g>
<g>
</g>
<g>
</g>
<g>
</g>
<g>
</g>
<g>
</g>
<g>
</g>
<g>
</g>
<g>
</g>
<g>
</g>
</svg>
