<?xml version="1.0" encoding="iso-8859-1"?>
<!-- Generator: Adobe Illustrator 19.1.0, SVG Export Plug-In . SVG Version: 6.00 Build 0)  -->
<svg version="1.1" id="Capa_1" xmlns="http://www.w3.org/2000/svg" xmlns:xlink="http://www.w3.org/1999/xlink" x="0px" y="0px"
	 viewBox="0 0 218.332 218.332" style="enable-background:new 0 0 218.332 218.332;" xml:space="preserve">
<g>
	<g id="group-84svg">
		<path id="path-1_151_" style="fill:#0CB04A;" d="M49.183,183.574H34.936c-2.746,0-4.973,2.48-4.973,5.541
			c0,3.06,2.227,5.54,4.973,5.54H35.6c2.746,0,4.973,2.48,4.973,5.541c0,3.06-2.227,5.54-4.973,5.54H4.973
			c-2.747,0-4.973,2.482-4.973,5.541c0,3.06,2.226,5.541,4.973,5.541h36.805h75.228c2.747,0,4.974-2.481,4.974-5.541
			c0-3.059-2.227-5.541-4.974-5.541h-8.499c-2.748,0-4.974-2.48-4.974-5.54c0-3.061,2.226-5.541,4.974-5.541h40.451
			c2.747,0,4.974-2.48,4.974-5.54c0-3.061-2.227-5.541-4.974-5.541h-9.56H49.183z"/>
		<path id="path-2_151_" style="fill:#0CB04A;" d="M149.106,217.116c-3.399,0-6.154-1.729-6.154-3.863
			c0-2.132,2.755-3.862,6.154-3.862h18.858c3.399,0,6.155,1.73,6.155,3.862c0,2.134-2.756,3.863-6.155,3.863H149.106z"/>
		<path id="path-3_151_" style="fill:#142A3B;" d="M158.271,79.977c1.474,1.461,3.648,1.677,4.854,0.482l18.921-19.802
			l35.508-37.174c1.206-1.198,0.986-3.347-0.489-4.81l-16.356-16.2c-1.473-1.461-3.647-1.679-4.853-0.486L141.43,58.965
			c-1.209,1.198-0.989,3.349,0.486,4.811L158.271,79.977z"/>
		<path id="path-4_150_" style="fill:#FBB713;" d="M137.131,95.899l5.237,5.408c10.888,14.4,13.475,29.895-7.399,50.573
			c-26.448,26.2-80.303,50.563-98.353,32.684c-18.049-17.882,6.543-71.234,32.99-97.434c20.718-20.527,36.277-18.153,50.723-7.573
			l5.586,4.457L137.131,95.899z"/>
		<path id="path-5_150_" style="opacity:0.25;fill:#020403;enable-background:new    ;" d="M142.368,101.307l-5.237-5.408
			l-11.216-11.885l-5.586-4.457c-2.216-1.623-4.464-3.022-6.747-4.207l9.638,10.214l5.238,5.407
			c10.888,14.401,13.475,29.897-7.4,50.574c-22.466,22.257-64.699,43.171-87.972,38.008c0.923,1.872,2.074,3.567,3.53,5.011
			c18.05,17.879,71.905-6.484,98.353-32.685C155.844,131.202,153.256,115.707,142.368,101.307z"/>
		<path id="path-6_148_" style="opacity:0.35;fill:#020403;enable-background:new    ;" d="M138.89,97.861l-5.237-5.408
			l-3.457-3.662l-20.163,19.975c-1.066-0.257-2.168-0.433-3.314-0.433c-7.742,0-14.015,6.214-14.015,13.885
			c0,7.668,6.273,13.883,14.015,13.883c7.741,0,14.015-6.215,14.015-13.883c0-1.497-0.299-2.911-0.741-4.259l19.473-19.292
			C139.27,98.398,139.092,98.129,138.89,97.861z"/>
		<path id="path-7_148_" style="fill:#FF3A2F;" d="M156.701,74.701l-9.62-9.527l-37.048,36.703
			c-1.066-0.259-2.168-0.434-3.314-0.434c-7.742,0-14.015,6.214-14.015,13.884c0,7.669,6.273,13.884,14.015,13.884
			c7.741,0,14.015-6.215,14.015-13.884c0-1.496-0.299-2.911-0.741-4.258L156.701,74.701z"/>
		<path id="path-8_145_" style="opacity:0.45;fill:#020403;enable-background:new    ;" d="M217.065,18.673l-7.629-7.557
			l-30.868,32.315l-18.92,19.803c-1.207,1.195-3.38,0.979-4.855-0.483l-8.725-8.642l-4.638,4.856
			c-1.209,1.198-0.989,3.349,0.486,4.811l16.355,16.201c1.474,1.461,3.648,1.677,4.854,0.482l18.921-19.802l35.508-37.174
			C218.76,22.285,218.54,20.135,217.065,18.673z"/>
		<path id="path-9_139_" style="opacity:0.35;fill:#020403;enable-background:new    ;" d="M156.701,74.701l-9.62-9.527
			l-1.738,1.722l4.403,4.361l-36.708,36.367c0.441,1.347,0.741,2.762,0.741,4.258c0,7.669-6.273,13.884-14.015,13.884
			c-0.858,0-1.687-0.104-2.502-0.25c2.496,2.274,5.797,3.695,9.457,3.695c7.741,0,14.015-6.215,14.015-13.883
			c0-1.497-0.299-2.912-0.741-4.259L156.701,74.701z"/>
	</g>
</g>
<g>
</g>
<g>
</g>
<g>
</g>
<g>
</g>
<g>
</g>
<g>
</g>
<g>
</g>
<g>
</g>
<g>
</g>
<g>
</g>
<g>
</g>
<g>
</g>
<g>
</g>
<g>
</g>
<g>
</g>
</svg>
