<?xml version="1.0" encoding="iso-8859-1"?>
<!-- Generator: Adobe Illustrator 19.1.0, SVG Export Plug-In . SVG Version: 6.00 Build 0)  -->
<svg version="1.1" id="Capa_1" xmlns="http://www.w3.org/2000/svg" xmlns:xlink="http://www.w3.org/1999/xlink" x="0px" y="0px"
	 viewBox="0 0 218.333 218.333" style="enable-background:new 0 0 218.333 218.333;" xml:space="preserve">
<g>
	<g id="group-12svg">
		<path id="path-1_23_" style="fill:#2476FF;" d="M185.854,189.024h11.772c2.27,0,4.11,1.013,4.11,2.262
			c0,1.249-1.84,2.261-4.11,2.261h-0.548c-2.269,0-4.109,1.013-4.109,2.262c0,1.249,1.84,2.262,4.109,2.262h17.145
			c2.27,0,4.11,1.012,4.11,2.262c0,1.248-1.84,2.261-4.11,2.261h-22.25h-33.424c-2.271,0-4.11-1.013-4.11-2.261
			c0-1.25,1.839-2.262,4.11-2.262h7.022c2.27,0,4.11-1.013,4.11-2.262c0-1.249-1.84-2.262-4.11-2.262h-33.424
			c-2.271,0-4.11-1.012-4.11-2.261c0-1.249,1.839-2.262,4.11-2.262h7.899H185.854z"/>
		<path id="path-2_23_" style="fill:#2476FF;" d="M48.675,121.526h9.911c1.91,0,3.459,1.012,3.459,2.261s-1.549,2.262-3.459,2.262
			h-0.462c-1.911,0-3.46,1.013-3.46,2.261c0,1.25,1.549,2.263,3.46,2.263h14.434c1.911,0,3.459,1.012,3.459,2.261
			c0,1.249-1.548,2.262-3.459,2.262H53.826h-28.14c-1.91,0-3.459-1.013-3.459-2.262c0-1.249,1.549-2.261,3.459-2.261h5.913
			c1.911,0,3.46-1.013,3.46-2.263c0-1.248-1.549-2.261-3.46-2.261H3.46c-1.911,0-3.46-1.013-3.46-2.262s1.549-2.261,3.46-2.261h6.65
			H48.675z"/>
		<path id="path-3_23_" style="fill:#2476FF;" d="M135.972,204.531c2.269,0,4.109-1.013,4.109-2.262c0-1.249-1.84-2.262-4.109-2.262
			h-12.593c-2.27,0-4.11,1.013-4.11,2.262c0,1.249,1.84,2.262,4.11,2.262H135.972z"/>
		<path id="path-4_23_" style="fill:#142A3B;" d="M123.915,55.453c-2.349-13.437-14.175-23.657-28.409-23.657
			c-15.925,0-28.835,12.789-28.835,28.565l0.598,130.648H51.34l0.725-134.172c0-23.768,19.449-43.034,43.441-43.034
			c23.99,0,43.44,19.266,43.44,43.034l0,0"/>
		<path id="path-5_23_" style="opacity:0.35;fill:#010101;enable-background:new    ;" d="M138.791,53.801
			c-0.253-3.581-0.925-7.043-2.008-10.328c-1.316-0.415-2.69-0.698-4.144-0.698h-3.98c-3.19,0-6.09,1.117-8.425,2.92
			c1.473,2.433,2.584,5.1,3.277,7.935c2.312-0.46,4.688-0.746,7.137-0.746C133.451,52.884,136.173,53.206,138.791,53.801z"/>
		<path id="path-6_23_" style="fill:#FF3A2F;" d="M171.201,110.935H90.096v-7.398h81.105V110.935z"/>
		<path id="path-7_23_" style="fill:#2476FF;" d="M149.925,141.364c0-4.002,7.316-13.054,7.316-13.054s7.316,9.052,7.316,13.054
			s-3.276,7.248-7.316,7.248C153.202,148.612,149.925,145.366,149.925,141.364z"/>
		<path id="path-8_23_" style="fill:#2476FF;" d="M123.887,141.364c0-4.002,7.316-13.054,7.316-13.054s7.315,9.052,7.315,13.054
			s-3.275,7.248-7.315,7.248C127.162,148.612,123.887,145.366,123.887,141.364z"/>
		<path id="path-9_21_" style="fill:#2476FF;" d="M97.847,141.364c0-4.002,7.316-13.054,7.316-13.054s7.316,9.052,7.316,13.054
			s-3.275,7.248-7.316,7.248C101.123,148.612,97.847,145.366,97.847,141.364z"/>
		<path id="path-10_19_" style="fill:#2476FF;" d="M136.365,172.569c0-3.048,5.571-9.94,5.571-9.94s5.57,6.892,5.57,9.94
			c0,3.049-2.493,5.519-5.57,5.519C138.858,178.088,136.365,175.618,136.365,172.569z"/>
		<path id="path-11_16_" style="fill:#2476FF;" d="M107.743,190.29c0-3.048,5.571-9.941,5.571-9.941s5.572,6.893,5.572,9.941
			c0,3.048-2.495,5.518-5.572,5.518C110.238,195.808,107.743,193.338,107.743,190.29z"/>
		<path id="path-12_15_" style="fill:#FF3A2F;" d="M130.648,59.973c5.651,0,10.984,1.293,15.772,3.541l0,0
			c0-7.539-6.17-13.651-13.781-13.651h-3.98c-7.611,0-13.782,6.112-13.782,13.651l0,0C119.666,61.267,124.998,59.973,130.648,59.973
			z"/>
		<path id="path-13_11_" style="opacity:0.25;enable-background:new    ;" d="M114.877,63.514
			c4.789-2.247,10.121-3.541,15.771-3.541c5.651,0,10.984,1.293,15.772,3.541c0-2.499-0.728-4.81-1.911-6.825h-27.72
			C115.606,58.704,114.877,61.015,114.877,63.514z"/>
		<path id="path-14_9_" style="fill:#FBB713;" d="M166.88,103.536c0.443-2.263,0.692-4.595,0.692-6.987
			c0-20.201-16.531-36.577-36.924-36.577c-20.391,0-36.922,16.376-36.922,36.577c0,2.392,0.248,4.724,0.691,6.987H166.88z"/>
		<path id="path-15_8_" style="opacity:0.25;enable-background:new    ;" d="M93.75,100.57c0.031,2.224,0.254,0.855,0.667,2.967
			h72.463c0.414-2.112,0.637-4.288,0.667-6.51L93.75,100.57z"/>
	</g>
</g>
<g>
</g>
<g>
</g>
<g>
</g>
<g>
</g>
<g>
</g>
<g>
</g>
<g>
</g>
<g>
</g>
<g>
</g>
<g>
</g>
<g>
</g>
<g>
</g>
<g>
</g>
<g>
</g>
<g>
</g>
</svg>
