<?xml version="1.0" encoding="iso-8859-1"?>
<!-- Generator: Adobe Illustrator 19.1.0, SVG Export Plug-In . SVG Version: 6.00 Build 0)  -->
<svg version="1.1" id="Capa_1" xmlns="http://www.w3.org/2000/svg" xmlns:xlink="http://www.w3.org/1999/xlink" x="0px" y="0px"
	 viewBox="0 0 217.665 217.665" style="enable-background:new 0 0 217.665 217.665;" xml:space="preserve">
<g>
	<g id="group-144svg">
		<path id="path-1_50_" style="fill:#2476FF;" d="M95.604,187.565h12.78c2.464,0,4.461,1.254,4.461,2.8c0,1.547-1.997,2.8-4.461,2.8
			h-0.594c-2.465,0-4.463,1.253-4.463,2.801c0,1.546,1.998,2.799,4.463,2.799h27.473c2.464,0,4.461,1.254,4.461,2.802
			c0,1.546-1.997,2.8-4.461,2.8h-33.017H65.958c-2.463,0-4.46-1.254-4.46-2.8c0-1.548,1.997-2.802,4.46-2.802h7.626
			c2.464,0,4.462-1.253,4.462-2.799c0-1.548-1.998-2.801-4.462-2.801H37.296c-2.465,0-4.462-1.253-4.462-2.8
			c0-1.546,1.997-2.8,4.462-2.8h8.575H95.604z"/>
		<path id="path-2_50_" style="fill:#2476FF;" d="M173.859,206.453c2.967,0,5.371-1.881,5.371-4.201c0-2.321-2.404-4.2-5.371-4.2
			H157.4c-2.966,0-5.37,1.879-5.37,4.2c0,2.32,2.404,4.201,5.37,4.201H173.859z"/>
		<path id="path-3_50_" style="fill:#2476FF;" d="M44.83,217.665c3.696,0,6.692-1.882,6.692-4.2c0-2.32-2.996-4.202-6.692-4.202
			H24.321c-3.696,0-6.692,1.882-6.692,4.202c0,2.318,2.996,4.2,6.692,4.2H44.83z"/>
		<path id="path-4_50_" style="fill:#2476FF;" d="M31.721,114.112c0,6.113-5.003,11.069-11.173,11.069
			c-6.171,0-11.172-4.956-11.172-11.069s5.001-11.067,11.172-11.067C26.718,103.045,31.721,107.999,31.721,114.112z"/>
		<path id="path-5_50_" style="fill:#FFFFFF;" d="M25.598,110.379c0,2.762-2.261,5.003-5.05,5.003s-5.05-2.241-5.05-5.003
			c0-2.763,2.261-5.003,5.05-5.003S25.598,107.616,25.598,110.379z"/>
		<path id="path-6_50_" style="fill:#2476FF;" d="M27.777,36.39c0,3.954-3.236,7.16-7.229,7.16c-3.992,0-7.228-3.206-7.228-7.16
			c0-3.955,3.236-7.162,7.228-7.162C24.541,29.228,27.777,32.435,27.777,36.39z"/>
		<path id="path-7_50_" style="fill:#2476FF;" d="M70.968,6.525c0,2.847-2.328,5.153-5.2,5.153c-2.872,0-5.201-2.306-5.201-5.153
			c0-2.845,2.329-5.151,5.201-5.151C68.64,1.374,70.968,3.68,70.968,6.525z"/>
		<path id="path-8_50_" style="fill:#FF3A2F;" d="M43.881,82.102h-9.453V53.893h9.453V82.102z"/>
		<path id="path-9_47_" style="fill:#FF3A2F;" d="M204.227,82.102h-13.5V53.893h13.5V82.102z"/>
		<path id="path-10_43_" style="fill:#142A3B;" d="M43.881,52.808v30.379c0,8.39,6.866,15.191,15.335,15.191h32.38
			c5.478,0,10.54-2.894,13.279-7.594l0,0c5.902-10.128,20.656-10.128,26.558,0l0,0c2.739,4.7,7.801,7.594,13.279,7.594h32.381
			c8.468,0,15.334-6.801,15.334-15.191V52.808c0-8.388-6.866-15.189-15.334-15.189H59.216C50.747,37.619,43.881,44.42,43.881,52.808
			z"/>
		<path id="path-11_37_" style="fill:#0CB04A;" d="M56.984,59.342v17.313c0,4.781,3.912,8.657,8.738,8.657h25.992
			c3.122,0,6.006-1.65,7.566-4.329h7.538c3.364-5.771,19.309-5.771,22.673,0h7.535c1.562,2.679,11.983,4.329,15.105,4.329h18.455
			c4.826,0,8.739-3.876,8.739-8.657V59.342c0-4.783-3.913-8.657-8.739-8.657H65.722C60.896,50.685,56.984,54.559,56.984,59.342z"/>
		<path id="path-12_31_" style="opacity:0.35;fill:#020403;enable-background:new    ;" d="M170.586,50.685H65.722
			c-2.977,0-5.598,1.48-7.176,3.733h104.503c4.827,0,8.739,3.875,8.739,8.656v17.313c0,1.833-0.582,3.526-1.562,4.925h0.36
			c4.826,0,8.739-3.876,8.739-8.657V59.342C179.325,54.56,175.412,50.685,170.586,50.685z"/>
		<path id="path-13_25_" style="fill:#142A3B;" d="M160.959,193.862c-26.098,0-47.327-21.035-47.327-46.886
			c0-1.992,1.628-3.606,3.639-3.606c2.012,0,3.639,1.614,3.639,3.606c0,21.878,17.967,39.677,40.049,39.677
			c22.085,0,40.052-17.799,40.052-39.677V3.605c0-1.99,1.628-3.605,3.639-3.605c2.012,0,3.639,1.615,3.639,3.605v143.371
			C208.289,172.827,187.057,193.862,160.959,193.862z"/>
		<path id="path-14_20_" style="fill:#FF3A2F;" d="M119.125,148.241c15.298,0,27.7-12.285,27.7-27.439H91.426
			C91.426,135.956,103.827,148.241,119.125,148.241z"/>
		<path id="path-15_18_" style="opacity:0.35;fill:#020403;enable-background:new    ;" d="M135.234,120.801
			c-1.842,13.385-13.397,23.707-27.414,23.707c-0.956,0-1.902-0.048-2.833-0.142c4.142,2.446,8.966,3.875,14.138,3.875
			c15.298,0,27.7-12.285,27.7-27.44H135.234z"/>
		<path id="path-16_15_" style="fill:#FFFFFF;" d="M104.077,128.297c0,1.889-1.546,3.422-3.453,3.422
			c-1.909,0-3.454-1.533-3.454-3.422c0-1.891,1.545-3.423,3.454-3.423C102.531,124.874,104.077,126.406,104.077,128.297z"/>
		<path id="path-17_13_" style="fill:#FFFFFF;" d="M113.104,135.761c0,2.706-2.213,4.899-4.944,4.899
			c-2.731,0-4.944-2.193-4.944-4.899c0-2.703,2.213-4.895,4.944-4.895C110.891,130.866,113.104,133.058,113.104,135.761z"/>
		<path id="path-18_11_" style="fill:#FFFFFF;" d="M68.907,83.906c-0.579,0-1.148-0.274-1.503-0.785
			c-0.566-0.822-0.352-1.943,0.476-2.505l35.17-23.833c0.824-0.559,1.958-0.351,2.53,0.47c0.566,0.822,0.352,1.943-0.477,2.505
			L69.934,83.59C69.621,83.803,69.263,83.906,68.907,83.906z"/>
		<path id="path-19_9_" style="fill:#FFFFFF;" d="M72.908,69.802c-0.579,0-1.147-0.275-1.503-0.786
			c-0.565-0.821-0.351-1.943,0.477-2.504l14.356-9.729c0.825-0.559,1.957-0.351,2.53,0.47c0.565,0.822,0.352,1.943-0.476,2.505
			l-14.358,9.729C73.622,69.7,73.264,69.802,72.908,69.802z"/>
	</g>
</g>
<g>
</g>
<g>
</g>
<g>
</g>
<g>
</g>
<g>
</g>
<g>
</g>
<g>
</g>
<g>
</g>
<g>
</g>
<g>
</g>
<g>
</g>
<g>
</g>
<g>
</g>
<g>
</g>
<g>
</g>
</svg>
