<?xml version="1.0" encoding="iso-8859-1"?>
<!-- Generator: Adobe Illustrator 19.1.0, SVG Export Plug-In . SVG Version: 6.00 Build 0)  -->
<svg version="1.1" id="Capa_1" xmlns="http://www.w3.org/2000/svg" xmlns:xlink="http://www.w3.org/1999/xlink" x="0px" y="0px"
	 viewBox="0 0 220.756 220.756" style="enable-background:new 0 0 220.756 220.756;" xml:space="preserve">
<g>
	<g id="group-138svg">
		<path id="path-1_43_" style="fill:#2476FF;" d="M135.478,160.964h22.398c4.318,0,7.819,2.342,7.819,5.231
			c0,2.89-3.501,5.231-7.819,5.231h-1.043c-4.318,0-7.818,2.343-7.818,5.232c0,2.89,3.5,5.231,7.818,5.231h22.677
			c4.318,0,7.819,2.343,7.819,5.232c0,2.889-3.501,5.231-7.819,5.231h-57.862H58.052c-4.318,0-7.82-2.342-7.82-5.231
			c0-2.889,3.502-5.232,7.82-5.232h13.363c4.318,0,7.819-2.341,7.819-5.231c0-2.889-3.501-5.232-7.819-5.232H7.819
			C3.5,171.426,0,169.085,0,166.195c0-2.889,3.5-5.231,7.819-5.231h15.03H135.478z"/>
		<path id="path-2_43_" style="fill:#2476FF;" d="M38.386,55.605h5.048c0.973,0,1.762,0.787,1.762,1.758s-0.789,1.756-1.762,1.756
			h-0.235c-0.973,0-1.762,0.788-1.762,1.758s0.789,1.757,1.762,1.757H54.05c0.974,0,1.763,0.787,1.763,1.758
			s-0.789,1.758-1.763,1.758H41.01H26.677c-0.974,0-1.763-0.787-1.763-1.758s0.789-1.758,1.763-1.758h3.011
			c0.973,0,1.762-0.787,1.762-1.757s-0.789-1.758-1.762-1.758H15.356c-0.974,0-1.763-0.785-1.763-1.756s0.789-1.758,1.763-1.758
			h3.387H38.386z"/>
		<path id="path-3_43_" style="fill:#2476FF;" d="M199.511,204.634h6.154c1.187,0,2.149,1.166,2.149,2.604
			c0,1.437-0.962,2.602-2.149,2.602h-0.287c-1.186,0-2.148,1.166-2.148,2.603s0.962,2.603,2.148,2.603h13.229
			c1.188,0,2.149,1.165,2.149,2.602c0,1.44-0.961,2.605-2.149,2.605H202.71h-17.473c-1.187,0-2.148-1.165-2.148-2.605
			c0-1.437,0.961-2.602,2.148-2.602h3.671c1.187,0,2.148-1.166,2.148-2.603s-0.961-2.603-2.148-2.603h-17.473
			c-1.186,0-2.148-1.165-2.148-2.602c0-1.438,0.962-2.604,2.148-2.604h4.13H199.511z"/>
		<path id="path-4_43_" style="fill:#FF3A2F;" d="M37.459,101.182c8.153-16.057,36.744-32.546,82.071-32.546
			s82.07,14.571,82.07,32.546c0,0,8.439,39.511-3.617,48.468c0,0-95.245,44.992-160.524,0
			C37.459,149.65,31.046,113.815,37.459,101.182z"/>
		<path id="path-5_43_" style="fill:#FFFFFF;" d="M48.374,111.996c-0.547,0-1.106-0.122-1.631-0.383
			c-1.795-0.896-2.519-3.063-1.617-4.842c8.728-17.187,38.493-34.532,85.322-34.532c2.011,0,3.639,1.615,3.639,3.605
			c0,1.991-1.628,3.605-3.639,3.605c-43.496,0-71.345,15.843-78.819,30.562C50.99,111.271,49.707,111.996,48.374,111.996z"/>
		<path id="path-6_43_" style="opacity:0.35;fill:#020403;enable-background:new    ;" d="M34.703,115.534
			c65.278,44.991,163.28-1.716,163.28-1.716l4.444-8.177c0,0,7.612,35.052-4.444,44.009c0,0-95.245,44.992-160.524,0L34.703,115.534
			z"/>
		<path id="path-7_43_" style="fill:#2476FF;" d="M185.754,42.155c0,8.482-6.939,15.357-15.5,15.357s-15.501-6.875-15.501-15.357
			c0-8.48,6.94-15.353,15.501-15.353S185.754,33.675,185.754,42.155z"/>
		<path id="path-8_43_" style="fill:#FFFFFF;" d="M182.328,38.552c0,4.614-3.777,8.356-8.435,8.356
			c-4.659,0-8.436-3.742-8.436-8.356c0-4.617,3.777-8.357,8.436-8.357C178.551,30.195,182.328,33.935,182.328,38.552z"/>
		<path id="path-9_40_" style="opacity:0.35;fill:#020403;enable-background:new    ;" d="M149.365,132.277
			c0,8.482-6.939,15.356-15.5,15.356c-8.561,0-15.5-6.874-15.5-15.356c0-8.481,6.939-15.355,15.5-15.355
			C142.426,116.922,149.365,123.796,149.365,132.277z"/>
		<path id="path-10_36_" style="opacity:0.35;fill:#020403;enable-background:new    ;" d="M69.139,144.725
			c0,4.85-3.968,8.78-8.864,8.78c-4.895,0-8.863-3.93-8.863-8.78c0-4.85,3.968-8.782,8.863-8.782
			C65.171,135.943,69.139,139.875,69.139,144.725z"/>
		<path id="path-11_31_" style="opacity:0.35;fill:#020403;enable-background:new    ;" d="M102.528,103.196
			c0,3.006-2.461,5.444-5.495,5.444c-3.035,0-5.496-2.438-5.496-5.444c0-3.006,2.461-5.443,5.496-5.443
			C100.067,97.753,102.528,100.189,102.528,103.196z"/>
		<path id="path-12_27_" style="opacity:0.35;fill:#020403;enable-background:new    ;" d="M198.759,92.032
			c-2.973,4.012-8.666,4.878-12.716,1.933c-4.05-2.946-4.923-8.585-1.951-12.598C190.453,84.436,195.408,87.969,198.759,92.032z"/>
		<path id="path-13_21_" style="fill:#2476FF;" d="M216.553,9.514c0,4.977-4.073,9.012-9.097,9.012s-9.097-4.035-9.097-9.012
			s4.073-9.01,9.097-9.01S216.553,4.537,216.553,9.514z"/>
	</g>
</g>
<g>
</g>
<g>
</g>
<g>
</g>
<g>
</g>
<g>
</g>
<g>
</g>
<g>
</g>
<g>
</g>
<g>
</g>
<g>
</g>
<g>
</g>
<g>
</g>
<g>
</g>
<g>
</g>
<g>
</g>
</svg>
