<?xml version="1.0" encoding="iso-8859-1"?>
<!-- Generator: Adobe Illustrator 19.1.0, SVG Export Plug-In . SVG Version: 6.00 Build 0)  -->
<svg version="1.1" id="Capa_1" xmlns="http://www.w3.org/2000/svg" xmlns:xlink="http://www.w3.org/1999/xlink" x="0px" y="0px"
	 viewBox="0 0 217.346 217.346" style="enable-background:new 0 0 217.346 217.346;" xml:space="preserve">
<g>
	<g id="group-66svg">
		<path id="path-1_131_" style="fill:#2476FF;" d="M117.659,0h-8.987H99.68c0,22.95-4.2,34.528-4.2,34.528h13.192h13.19
			C121.862,34.528,117.659,22.95,117.659,0z"/>
		<path id="path-2_131_" style="fill:#FBB713;" d="M129.445,57.612c-2.437-5.369-7.585-23.084-7.585-23.084h-13.19H95.477
			c0,0-5.146,17.715-7.584,23.084c-2.439,5.367-4.879,15.301-2.709,17.448c0,0-0.304,0.757-0.754,2.201h24.24h24.239
			c-0.45-1.444-0.755-2.201-0.755-2.201C134.323,72.913,131.886,62.981,129.445,57.612z"/>
		<path id="path-3_131_" style="fill:#FBB713;" d="M134.323,167.934c-5.965-10.637-2.266-21.694,0.553-41.963H108.67H82.463
			c2.817,20.269,6.516,31.326,0.551,41.963c-6.772,12.081-0.269,25.77-0.269,25.77s8.225,4.563,25.925,4.563
			c17.697,0.002,25.922-4.563,25.922-4.563S141.098,180.015,134.323,167.934z"/>
		<path id="path-4_130_" style="opacity:0.25;fill:#020403;enable-background:new    ;" d="M117.659,0h-8.987h-5.568
			c0,22.95,4.202,34.529,4.202,34.529h1.366h13.19C121.862,34.529,117.659,22.95,117.659,0z"/>
		<path id="path-5_130_" style="opacity:0.25;fill:#020403;enable-background:new    ;" d="M129.445,57.612
			c-2.437-5.368-7.585-23.083-7.585-23.083h-13.19h-1.366c0,0,5.148,17.715,7.586,23.083c2.44,5.369,4.878,15.301,2.709,17.448
			c0,0,0.305,0.757,0.755,2.201h14.555c-0.45-1.444-0.755-2.201-0.755-2.201C134.323,72.913,131.886,62.981,129.445,57.612z"/>
		<path id="path-6_128_" style="opacity:0.25;fill:#020403;enable-background:new    ;" d="M134.323,167.934
			c-5.966-10.637-2.266-21.694,0.553-41.963h-14.555c-2.819,20.269-6.518,31.326-0.553,41.963c6.774,12.081,0.269,25.77,0.269,25.77
			s-5.975,3.293-18.642,4.279c2.224,0.173,4.632,0.284,7.275,0.284c17.697,0.002,25.922-4.563,25.922-4.563
			S141.098,180.015,134.323,167.934z"/>
		<path id="path-7_128_" style="fill:#FF3A2F;" d="M100.728,100.862c2.597-0.342,5.261-0.971,7.942-1.743
			c9.376-2.695,19.006-7.213,27.107-8.013c-0.822-6.547-2.07-11.285-2.868-13.845H108.67l0,0H84.43
			c-1.045,3.359-2.869,10.469-3.484,20.508C87.44,99.947,94.82,101.637,100.728,100.862z"/>
		<path id="path-8_125_" style="fill:#FF3A2F;" d="M136.465,99.088c-5.772,0.084-16.386,0.565-27.795,2.717l0,0
			c-2.622,0.495-5.286,1.077-7.942,1.765c-7.869,2.034-14.556,0.863-19.963-1.426c-0.099,4.546,0.054,9.574,0.625,15.06
			c0.323,3.106,0.69,6.019,1.073,8.767h26.207l0,0h26.206c0.383-2.748,0.749-5.661,1.073-8.767
			C136.651,110.457,136.727,104.394,136.465,99.088z"/>
		<path id="path-9_119_" style="opacity:0.25;fill:#020403;enable-background:new    ;" d="M132.909,77.261h-14.555
			c0.797,2.56,2.045,7.299,2.868,13.845c-8.102,0.8-17.732,5.318-27.108,8.013c-1.413,0.406-2.818,0.764-4.214,1.071
			c3.794,0.754,7.541,1.103,10.828,0.672c2.597-0.342,5.261-0.971,7.942-1.743c9.376-2.695,19.006-7.213,27.107-8.013
			C134.955,84.56,133.707,79.821,132.909,77.261z"/>
		<path id="path-10_110_" style="opacity:0.25;fill:#020403;enable-background:new    ;" d="M85.491,103.714
			c-1.666-0.415-3.248-0.945-4.726-1.57c-0.015,0.743,0.023,1.579,0.021,2.347C82.301,104.361,83.873,104.099,85.491,103.714z"/>
		<path id="path-11_97_" style="opacity:0.25;fill:#020403;enable-background:new    ;" d="M136.465,99.088
			c-3.416,0.049-8.556,0.249-14.529,0.842c0.215,5.107,0.123,10.871-0.543,17.274c-0.324,3.106-0.689,6.019-1.072,8.767h14.555
			c0.383-2.748,0.749-5.661,1.073-8.767C136.651,110.457,136.727,104.394,136.465,99.088z"/>
		<path id="path-12_85_" style="fill:#FF3A2F;" d="M115.634,193.592h15.79c3.044,0,5.512,1.549,5.512,3.46
			c0,1.91-2.468,3.459-5.512,3.459h-0.736c-3.043,0-5.512,1.55-5.512,3.461c0,1.911,2.469,3.461,5.512,3.461h33.945
			c3.044,0,5.512,1.548,5.512,3.459c0,1.912-2.468,3.46-5.512,3.46H123.84H79.005c-3.044,0-5.512-1.548-5.512-3.46
			c0-1.911,2.468-3.459,5.512-3.459h9.421c3.045,0,5.513-1.55,5.513-3.461c0-1.911-2.468-3.461-5.513-3.461H43.592
			c-3.045,0-5.513-1.549-5.513-3.459c0-1.911,2.468-3.46,5.513-3.46h10.596H115.634z"/>
		<path id="path-13_73_" style="fill:#FF3A2F;" d="M29.935,160.964h5.083c0.98,0,1.774,0.852,1.774,1.901
			c0,1.05-0.794,1.901-1.774,1.901h-0.236c-0.981,0-1.775,0.85-1.775,1.9c0,1.05,0.794,1.9,1.775,1.9H45.71
			c0.981,0,1.775,0.852,1.775,1.902c0,1.049-0.794,1.901-1.775,1.901H32.577H18.141c-0.98,0-1.774-0.852-1.774-1.901
			c0-1.05,0.794-1.902,1.774-1.902h3.034c0.98,0,1.774-0.85,1.774-1.9c0-1.05-0.794-1.9-1.774-1.9H6.739
			c-0.98,0-1.774-0.851-1.774-1.901c0-1.049,0.794-1.901,1.774-1.901h3.412H29.935z"/>
		<path id="path-14_60_" style="fill:#FF3A2F;" d="M186.406,160.964h5.084c0.98,0,1.774,0.852,1.774,1.901
			c0,1.05-0.794,1.901-1.774,1.901h-0.237c-0.98,0-1.775,0.85-1.775,1.9c0,1.05,0.795,1.9,1.775,1.9h10.928
			c0.981,0,1.775,0.852,1.775,1.902c0,1.049-0.794,1.901-1.775,1.901h-13.133h-14.435c-0.98,0-1.775-0.852-1.775-1.901
			c0-1.05,0.795-1.902,1.775-1.902h3.033c0.981,0,1.775-0.85,1.775-1.9c0-1.05-0.794-1.9-1.775-1.9h-14.435
			c-0.981,0-1.774-0.851-1.774-1.901c0-1.049,0.793-1.901,1.774-1.901h3.412H186.406z"/>
		<path id="path-15_50_" style="fill:#FF3A2F;" d="M206.087,217.346c3.476,0,6.294-1.769,6.294-3.951c0-2.181-2.818-3.95-6.294-3.95
			h-19.288c-3.476,0-6.294,1.769-6.294,3.95c0,2.182,2.818,3.951,6.294,3.951H206.087z"/>
	</g>
</g>
<g>
</g>
<g>
</g>
<g>
</g>
<g>
</g>
<g>
</g>
<g>
</g>
<g>
</g>
<g>
</g>
<g>
</g>
<g>
</g>
<g>
</g>
<g>
</g>
<g>
</g>
<g>
</g>
<g>
</g>
</svg>
