<?xml version="1.0" encoding="iso-8859-1"?>
<!-- Generator: Adobe Illustrator 19.1.0, SVG Export Plug-In . SVG Version: 6.00 Build 0)  -->
<svg version="1.1" id="Capa_1" xmlns="http://www.w3.org/2000/svg" xmlns:xlink="http://www.w3.org/1999/xlink" x="0px" y="0px"
	 viewBox="0 0 217.229 217.229" style="enable-background:new 0 0 217.229 217.229;" xml:space="preserve">
<g>
	<g id="group-27svg">
		<path id="path-1_80_" style="fill:#2476FF;" d="M163.586,203.385h15.538c2.996,0,5.425-1.41,5.425-3.149
			c0-1.739-2.429-3.149-5.425-3.149H178.4c-2.995,0-5.424-1.41-5.424-3.149c0-1.74,2.429-3.149,5.424-3.149h33.404
			c2.996,0,5.425-1.41,5.425-3.15c0-1.739-2.429-3.149-5.425-3.149h-40.142h-82.05c-2.996,0-5.425,1.41-5.425,3.149
			c0,1.74,2.429,3.15,5.425,3.15h9.27c2.996,0,5.425,1.409,5.425,3.149c0,1.739-2.429,3.149-5.425,3.149h-44.12
			c-2.996,0-5.425,1.41-5.425,3.149c0,1.739,2.429,3.149,5.425,3.149H65.19H163.586z"/>
		<path id="path-2_80_" style="fill:#2476FF;" d="M60.382,172.87h8.213c1.583,0,2.866-1.124,2.866-2.509
			c0-1.385-1.283-2.508-2.866-2.508h-0.383c-1.583,0-2.867-1.124-2.867-2.509c0-1.386,1.284-2.51,2.867-2.51h17.655
			c1.583,0,2.867-1.122,2.867-2.507c0-1.387-1.284-2.51-2.867-2.51H64.65H21.286c-1.583,0-2.867,1.123-2.867,2.51
			c0,1.385,1.284,2.507,2.867,2.507h4.9c1.583,0,2.867,1.124,2.867,2.51c0,1.385-1.284,2.509-2.867,2.509H2.867
			c-1.583,0-2.867,1.123-2.867,2.508c0,1.385,1.284,2.509,2.867,2.509h5.511H60.382z"/>
		<path id="path-3_80_" style="fill:#2476FF;" d="M61.81,184.271c3.374,0,6.109,1.554,6.109,3.471c0,1.917-2.735,3.471-6.109,3.471
			H43.09c-3.374,0-6.109-1.554-6.109-3.471c0-1.917,2.735-3.471,6.109-3.471H61.81z"/>
		<path id="path-4_80_" style="fill:#FF3A2F;" d="M126.35,45.374v-4.501c0-0.868-1.067-1.571-2.381-1.571
			c-1.315,0-2.381,0.703-2.381,1.571v0.209c0,0.869-1.066,1.573-2.38,1.573c-1.315,0-2.381-0.704-2.381-1.573v-9.677
			c0-0.867-1.066-1.571-2.381-1.571c-1.314,0-2.38,0.704-2.38,1.571v11.63v23.77c0,0.868,1.066,1.571,2.38,1.571
			c1.315,0,2.381-0.703,2.381-1.571v-2.686c0-0.868,1.066-1.572,2.381-1.572c1.314,0,2.38,0.704,2.38,1.572v12.782
			c0,0.868,1.066,1.571,2.381,1.571c1.314,0,2.381-0.703,2.381-1.571v-3.022V45.374z"/>
		<path id="path-5_79_" style="fill:#FF3A2F;" d="M95.91,86.436v-2.655c0-0.512-0.629-0.928-1.404-0.928
			c-0.776,0-1.404,0.416-1.404,0.928v0.123c0,0.512-0.63,0.928-1.405,0.928s-1.404-0.416-1.404-0.928v-5.708
			c0-0.512-0.628-0.927-1.404-0.927s-1.405,0.415-1.405,0.927v6.86v14.02c0,0.513,0.629,0.928,1.405,0.928s1.404-0.415,1.404-0.928
			v-1.583c0-0.512,0.629-0.927,1.404-0.927s1.405,0.415,1.405,0.927v7.539c0,0.512,0.628,0.927,1.404,0.927
			c0.775,0,1.404-0.415,1.404-0.927v-1.782V86.436z"/>
		<path id="path-6_76_" style="fill:#FF3A2F;" d="M131.306,16.9v-0.885c0-0.17-0.21-0.309-0.468-0.309
			c-0.259,0-0.468,0.139-0.468,0.309v0.041c0,0.171-0.21,0.309-0.468,0.309c-0.259,0-0.468-0.138-0.468-0.309v-1.903
			c0-0.17-0.21-0.309-0.468-0.309c-0.259,0-0.468,0.139-0.468,0.309v2.287v4.674c0,0.17,0.209,0.309,0.468,0.309
			c0.258,0,0.468-0.139,0.468-0.309v-0.528c0-0.171,0.209-0.31,0.468-0.31c0.258,0,0.468,0.139,0.468,0.31V23.1
			c0,0.169,0.209,0.308,0.468,0.308c0.258,0,0.468-0.139,0.468-0.308v-0.595V16.9z"/>
		<path id="path-7_75_" style="fill:#FF3A2F;" d="M102.651,47.283v-2.21c0-0.427-0.523-0.773-1.169-0.773
			c-0.646,0-1.169,0.346-1.169,0.773v0.103c0,0.425-0.524,0.771-1.169,0.771c-0.646,0-1.169-0.346-1.169-0.771v-4.753
			c0-0.424-0.523-0.77-1.169-0.77c-0.645,0-1.169,0.346-1.169,0.77v5.71v11.672c0,0.426,0.524,0.771,1.169,0.771
			c0.646,0,1.169-0.345,1.169-0.771v-1.319c0-0.426,0.523-0.771,1.169-0.771c0.645,0,1.169,0.345,1.169,0.771v6.276
			c0,0.427,0.523,0.771,1.169,0.771c0.646,0,1.169-0.344,1.169-0.771v-1.484V47.283z"/>
		<path id="path-8_56_" style="fill:#FF3A2F;" d="M112.066,81.517c0-2.345,1.221-4.248,2.729-4.248c1.507,0,2.73,1.903,2.73,4.248
			v13.017c0,2.345-1.223,4.247-2.73,4.247c-1.508,0-2.729-1.902-2.729-4.247V81.517z"/>
		<path id="path-9_49_" style="fill:#FF3A2F;" d="M138.288,47.644c0-2.345,1.222-4.247,2.729-4.247c1.507,0,2.73,1.902,2.73,4.247
			V60.66c0,2.346-1.223,4.248-2.73,4.248c-1.507,0-2.729-1.902-2.729-4.248V47.644z"/>
		<path id="path-10_45_" style="fill:#FF3A2F;" d="M138.288,81.347c0-2.347,1.222-4.248,2.729-4.248c1.507,0,2.73,1.901,2.73,4.248
			v13.016c0,2.346-1.223,4.247-2.73,4.247c-1.507,0-2.729-1.901-2.729-4.247V81.347z"/>
		<path id="path-11_37_" style="fill:#2476FF;" d="M149.65,133.161l-11.299-11.299l47.367-47.364l4.558,4.557L149.65,133.161z"/>
		<path id="path-12_32_" style="opacity:0.35;fill:#090908;enable-background:new    ;" d="M185.718,74.498l-3.251,3.249
			l1.307,1.308l-37.838,50.393l3.714,3.713l40.626-54.106L185.718,74.498z"/>
		<path id="path-13_26_" style="fill:#FBB713;" d="M129.902,185.991c39.383,0,71.31-31.926,71.31-71.307H58.592
			C58.592,154.064,90.518,185.991,129.902,185.991z"/>
		<path id="path-14_23_" style="fill:#EDEDED;" d="M99.397,170.075c-0.566,0-1.142-0.133-1.679-0.415
			c-14.249-7.491-24.926-19.992-30.069-35.204c-0.64-1.894,0.377-3.949,2.27-4.588c1.9-0.645,3.947,0.376,4.591,2.269
			c4.543,13.444,13.98,24.492,26.574,31.113c1.771,0.93,2.453,3.12,1.52,4.889C101.957,169.372,100.699,170.075,99.397,170.075z"/>
		<path id="path-15_21_" style="opacity:0.25;fill:#090908;enable-background:new    ;" d="M181.397,114.684
			c-3.286,36.332-33.812,64.805-71.002,64.805c-4.294,0-8.492-0.401-12.578-1.128c9.647,4.87,20.54,7.629,32.085,7.629
			c39.383,0,71.31-31.925,71.31-71.306H181.397z"/>
		<path id="path-16_17_" style="fill:#FBB713;" d="M157.468,192.648h-55.132c-3.7,0-6.699-3-6.699-6.7l0,0
			c0-3.699,2.999-6.699,6.699-6.699h55.132c3.699,0,6.698,3,6.698,6.699l0,0C164.166,189.648,161.167,192.648,157.468,192.648z"/>
		<path id="path-17_15_" style="opacity:0.25;fill:#090908;enable-background:new    ;" d="M101.712,192.214h55.606
			c3.569,0,6.461-2.894,6.461-6.462H95.25C95.25,189.32,98.143,192.214,101.712,192.214z"/>
	</g>
</g>
<g>
</g>
<g>
</g>
<g>
</g>
<g>
</g>
<g>
</g>
<g>
</g>
<g>
</g>
<g>
</g>
<g>
</g>
<g>
</g>
<g>
</g>
<g>
</g>
<g>
</g>
<g>
</g>
<g>
</g>
</svg>
