<?xml version="1.0" encoding="iso-8859-1"?>
<!-- Generator: Adobe Illustrator 19.1.0, SVG Export Plug-In . SVG Version: 6.00 Build 0)  -->
<svg version="1.1" id="Capa_1" xmlns="http://www.w3.org/2000/svg" xmlns:xlink="http://www.w3.org/1999/xlink" x="0px" y="0px"
	 viewBox="0 0 218.333 218.333" style="enable-background:new 0 0 218.333 218.333;" xml:space="preserve">
<g>
	<g id="group-113svg">
		<path id="path-1_16_" style="fill:#142A3B;" d="M184.581,21.241l-2.59,1.107c-0.5,0.212-0.64,0.994-0.313,1.743
			c0.326,0.749,0.995,1.183,1.495,0.971l0.121-0.052c0.499-0.213,1.169,0.22,1.495,0.971c0.326,0.748,0.186,1.53-0.313,1.742
			l-5.568,2.381c-0.5,0.214-0.64,0.993-0.313,1.744c0.326,0.749,0.996,1.183,1.495,0.97l6.691-2.861l13.676-5.847
			c0.5-0.213,0.64-0.994,0.314-1.743c-0.327-0.749-0.997-1.184-1.496-0.969l-1.545,0.66c-0.499,0.212-1.169-0.222-1.495-0.971
			c-0.326-0.749-0.186-1.53,0.313-1.744l7.354-3.143c0.5-0.214,0.64-0.994,0.313-1.744c-0.327-0.749-0.996-1.184-1.495-0.97
			l-1.738,0.742L184.581,21.241z"/>
		<path id="path-2_16_" style="fill:#142A3B;" d="M158.778,37.399c-2.316,0.99-4.714,0.597-5.355-0.877
			c-0.643-1.473,0.714-3.471,3.03-4.461l12.848-5.492c2.315-0.99,4.713-0.597,5.355,0.877s-0.715,3.471-3.03,4.462L158.778,37.399z"
			/>
		<path id="path-3_16_" style="fill:#142A3B;" d="M189.575,92.356l-2.804,0.303c-0.54,0.059-0.907,0.764-0.817,1.575
			c0.089,0.812,0.601,1.421,1.141,1.362l0.13-0.013c0.542-0.059,1.052,0.551,1.141,1.362c0.09,0.811-0.276,1.517-0.816,1.576
			l-6.028,0.652c-0.541,0.058-0.907,0.764-0.817,1.575c0.089,0.811,0.599,1.422,1.141,1.363l7.243-0.784l14.808-1.602
			c0.541-0.059,0.907-0.764,0.817-1.575c-0.09-0.811-0.6-1.421-1.141-1.364l-1.673,0.181c-0.541,0.059-1.051-0.551-1.141-1.362
			c-0.089-0.811,0.276-1.516,0.817-1.575l7.962-0.861c0.541-0.058,0.907-0.764,0.817-1.575c-0.089-0.812-0.601-1.422-1.141-1.364
			l-1.882,0.204L189.575,92.356z"/>
		<path id="path-4_16_" style="fill:#142A3B;" d="M160.115,100.279c-2.507,0.272-4.682-0.802-4.857-2.398
			c-0.177-1.596,1.714-3.109,4.22-3.381l13.91-1.505c2.508-0.271,4.683,0.803,4.859,2.398c0.176,1.596-1.714,3.11-4.221,3.381
			L160.115,100.279z"/>
		<path id="path-5_16_" style="fill:#142A3B;" d="M193.716,168.705l-3.419-1.344c-0.659-0.26-1.514,0.331-1.911,1.321
			c-0.397,0.988-0.184,2,0.476,2.26l0.158,0.062c0.659,0.261,0.872,1.273,0.476,2.261c-0.397,0.99-1.252,1.582-1.912,1.322
			l-7.348-2.891c-0.659-0.259-1.515,0.332-1.911,1.321c-0.397,0.99-0.184,2.002,0.475,2.261l8.831,3.474l18.051,7.1
			c0.66,0.26,1.516-0.331,1.912-1.321c0.397-0.989,0.183-2-0.476-2.26l-2.039-0.802c-0.659-0.259-0.872-1.271-0.476-2.259
			c0.397-0.99,1.253-1.583,1.912-1.322l9.706,3.818c0.66,0.26,1.515-0.332,1.912-1.321c0.397-0.99,0.183-2.002-0.476-2.261
			l-2.294-0.903L193.716,168.705z"/>
		<path id="path-6_16_" style="fill:#142A3B;" d="M154.886,160.035c-3.057-1.202-4.902-3.755-4.122-5.699
			c0.78-1.946,3.89-2.548,6.945-1.346l16.959,6.671c3.056,1.201,4.902,3.754,4.121,5.699c-0.779,1.946-3.889,2.548-6.946,1.346
			L154.886,160.035z"/>
		<path id="path-7_16_" style="fill:#142A3B;" d="M38.29,185.56H27.198c-2.138,0-3.871,1.58-3.871,3.528
			c0,1.95,1.733,3.529,3.871,3.529h0.517c2.139,0,3.872,1.581,3.872,3.53c0,1.948-1.733,3.529-3.872,3.529H3.872
			c-2.139,0-3.872,1.58-3.872,3.529c0,1.949,1.733,3.528,3.872,3.528h28.653h58.567c2.138,0,3.872-1.579,3.872-3.528
			c0-1.949-1.734-3.529-3.872-3.529h-6.618c-2.138,0-3.872-1.581-3.872-3.529c0-1.949,1.734-3.53,3.872-3.53h25.99
			c2.139,0,3.872-1.579,3.872-3.529c0-1.948-1.733-3.528-3.872-3.528h-1.94H38.29z"/>
		<path id="path-8_16_" style="fill:#142A3B;" d="M113.194,207.679c-1.793,0-3.247-1.694-3.247-3.782
			c0-2.09,1.454-3.782,3.247-3.782h9.947c1.793,0,3.247,1.692,3.247,3.782c0,2.088-1.454,3.782-3.247,3.782H113.194z"/>
		<path id="path-9_15_" style="fill:#FBB713;" d="M77.979,138.11H40.488V58.406h37.491V138.11z"/>
		<path id="path-10_13_" style="opacity:0.35;fill:#020403;enable-background:new    ;" d="M44.749,58.406h-4.261v79.704h37.491
			V58.406l-6.529,59.382c-1.087,7.684-10.777,10.678-16.008,4.903C52.369,119.297,44.749,58.406,44.749,58.406z"/>
		<path id="path-11_12_" style="fill:#2476FF;" d="M79.5,58.406h-1.521v79.947l62.556,52.508V10.653L79.5,58.406z"/>
		<path id="path-12_12_" style="opacity:0.35;fill:#020403;enable-background:new    ;" d="M127.188,21.096v111.947
			c0,9.513-11.238,14.672-18.564,8.522l-30.645-25.722v22.51l62.556,52.508V10.653L127.188,21.096z"/>
	</g>
</g>
<g>
</g>
<g>
</g>
<g>
</g>
<g>
</g>
<g>
</g>
<g>
</g>
<g>
</g>
<g>
</g>
<g>
</g>
<g>
</g>
<g>
</g>
<g>
</g>
<g>
</g>
<g>
</g>
<g>
</g>
</svg>
