<?xml version="1.0" encoding="iso-8859-1"?>
<!-- Generator: Adobe Illustrator 19.1.0, SVG Export Plug-In . SVG Version: 6.00 Build 0)  -->
<svg version="1.1" id="Capa_1" xmlns="http://www.w3.org/2000/svg" xmlns:xlink="http://www.w3.org/1999/xlink" x="0px" y="0px"
	 viewBox="0 0 219.261 219.261" style="enable-background:new 0 0 219.261 219.261;" xml:space="preserve">
<g>
	<g id="group-110svg">
		<path id="path-1_13_" style="fill:#142A3B;" d="M191.228,198.226c-4.557,0.969-37.848-16.057-42.77-16.057
			c-31.497,0-57.026-21.166-57.026-47.273c0-26.11,25.529-47.275,57.026-47.275c31.491,0,57.029,21.165,57.029,47.275
			c0,14.928-8.35,28.241-21.384,36.904c-1.425,0.941-1.404,2.76-0.612,5.015L191.228,198.226z"/>
		<path id="path-2_13_" style="opacity:0.35;fill:#020403;enable-background:new    ;" d="M148.458,87.621
			c-31.497,0-57.026,21.165-57.026,47.275c0,12.64,6.02,24.094,15.768,32.576c0.716-0.164,1.325-0.262,1.77-0.262
			c42.366,0,78.029-23.706,88.802-55.982C187.901,97.129,169.536,87.621,148.458,87.621z"/>
		<path id="path-3_13_" style="fill:#0CB04A;" d="M25.296,178.741c7.365,1.567,61.164-25.95,69.118-25.95
			c50.9,0,92.156-34.203,92.156-76.393C186.57,34.205,145.314,0,94.414,0C43.523,0,2.254,34.205,2.254,76.398
			c0,24.124,13.493,45.636,34.557,59.638c2.303,1.52,2.268,4.46,0.989,8.102L25.296,178.741z"/>
		<path id="path-4_13_" style="fill:#FFFFFF;" d="M26.927,78.201c-3.016,0-5.459-2.422-5.459-5.408
			c0-29.205,28.185-52.967,62.829-52.967c3.016,0,5.459,2.422,5.459,5.407c0,2.987-2.443,5.407-5.459,5.407
			c-28.624,0-51.912,18.91-51.912,42.153C32.385,75.779,29.942,78.201,26.927,78.201z"/>
		<path id="path-5_13_" style="opacity:0.35;fill:#020403;enable-background:new    ;" d="M159.313,22.165
			c10.295,12.332,16.341,27.285,16.341,43.418c0,42.19-41.258,76.392-92.156,76.392c-5.578,0-33.684,13.523-52.529,21.068
			l-5.673,15.698c7.365,1.567,61.164-25.951,69.118-25.951c50.9,0,92.156-34.202,92.156-76.392
			C186.57,55.191,176.143,36.007,159.313,22.165z"/>
		<path id="path-6_13_" style="fill:#FF3A2F;" d="M82.905,219.261c2.725,0,4.934-0.94,4.934-2.1c0-1.16-2.209-2.1-4.934-2.1h-15.12
			c-2.725,0-4.934,0.94-4.934,2.1c0,1.16,2.209,2.1,4.934,2.1H82.905z"/>
		<path id="path-7_13_" style="fill:#FF3A2F;" d="M43.601,185.676h4.492c0.867,0,1.569,0.909,1.569,2.031
			c0,1.121-0.702,2.03-1.569,2.03h-0.208c-0.867,0-1.569,0.909-1.569,2.03c0,1.122,0.702,2.032,1.569,2.032h9.657
			c0.866,0,1.569,0.908,1.569,2.03c0,1.121-0.703,2.029-1.569,2.029H45.936H22.213c-0.866,0-1.568-0.908-1.568-2.029
			c0-1.122,0.702-2.03,1.568-2.03h2.681c0.866,0,1.568-0.91,1.568-2.032c0-1.121-0.702-2.03-1.568-2.03H12.138
			c-0.867,0-1.569-0.909-1.569-2.03c0-1.122,0.702-2.031,1.569-2.031h3.014H43.601z"/>
		<path id="path-8_13_" style="fill:#FF3A2F;" d="M12.091,197.969c1.071,0,1.941-0.636,1.941-1.415c0-0.783-0.87-1.416-1.941-1.416
			H6.144c-1.072,0-1.941,0.633-1.941,1.416c0,0.779,0.869,1.415,1.941,1.415H12.091z"/>
		<path id="path-9_12_" style="fill:#FF3A2F;" d="M177.574,201.023h11.422c2.202,0,3.987,1.348,3.987,3.011
			c0,1.665-1.785,3.014-3.987,3.014h-0.531c-2.203,0-3.988,1.349-3.988,3.012c0,1.665,1.785,3.013,3.988,3.013h24.554
			c2.202,0,3.988,1.349,3.988,3.013s-1.786,3.012-3.988,3.012H183.51h-60.314c-2.202,0-3.987-1.348-3.987-3.012
			s1.785-3.013,3.987-3.013h6.815c2.203,0,3.988-1.348,3.988-3.013c0-1.663-1.785-3.012-3.988-3.012H97.579
			c-2.202,0-3.988-1.349-3.988-3.014c0-1.663,1.786-3.011,3.988-3.011h7.665H177.574z"/>
	</g>
</g>
<g>
</g>
<g>
</g>
<g>
</g>
<g>
</g>
<g>
</g>
<g>
</g>
<g>
</g>
<g>
</g>
<g>
</g>
<g>
</g>
<g>
</g>
<g>
</g>
<g>
</g>
<g>
</g>
<g>
</g>
</svg>
