<?xml version="1.0" encoding="iso-8859-1"?>
<!-- Generator: Adobe Illustrator 19.1.0, SVG Export Plug-In . SVG Version: 6.00 Build 0)  -->
<svg version="1.1" id="Capa_1" xmlns="http://www.w3.org/2000/svg" xmlns:xlink="http://www.w3.org/1999/xlink" x="0px" y="0px"
	 viewBox="0 0 218.878 218.878" style="enable-background:new 0 0 218.878 218.878;" xml:space="preserve">
<g>
	<g id="group-9svg">
		<path id="path-1_157_" style="fill:#FF3A2F;" d="M211.418,210.765c4.119,0,7.46-2.096,7.46-4.682s-3.341-4.683-7.46-4.683h-22.863
			c-4.12,0-7.461,2.097-7.461,4.683s3.341,4.682,7.461,4.682H211.418z"/>
		<path id="path-2_157_" style="fill:#FF3A2F;" d="M165.338,198.64h-21.111c-3.033,0-5.492-0.717-5.492-3.721
			c0-3.005,2.459-3.722,5.492-3.722h3.263c3.033,0,5.734-2.578,5.734-5.582s-2.216-5.581-5.25-5.581h-18.123
			c-2.49,14.174-10.028,25.492-19.989,29.77h5.747h36.149h13.58c3.033,0,5.492-2.578,5.492-5.582S168.371,198.64,165.338,198.64z"/>
		<path id="path-3_157_" style="opacity:0.35;fill:#020403;enable-background:new    ;" d="M141.12,180.034h-11.269
			c-2.49,14.174-10.028,25.492-19.989,29.77h5.747h5.522C131.093,205.526,138.631,194.208,141.12,180.034z"/>
		<path id="path-4_156_" style="fill:#142A3B;" d="M61.151,48.951c0-23.102-13.057-41.831-29.832-41.831
			C14.545,7.12,0,25.849,0,48.951C0,68.8,11.56,85.408,22.56,89.695v115.729h13.999V89.695C47.558,85.408,61.151,68.8,61.151,48.951
			z"/>
		<path id="path-5_156_" style="opacity:0.25;fill:#020403;enable-background:new    ;" d="M30.796,6.983
			c-1.924,0-3.161-0.099-4.998,0.373c14.101,3.636,24.278,18.488,24.278,38.941c0,19.848-12.065,36.457-23.334,40.744v118.408H36.78
			V89.695c11.269-4.287,24.749-23.55,24.565-43.398C61.165,26.748,47.571,6.983,30.796,6.983z"/>
		<path id="path-6_154_" style="fill:#FBB713;" d="M105.555,129.222V11.43H91.556v117.792
			c-13.999,4.288-22.464,20.895-22.464,40.744c0,23.103,14.12,41.831,30.893,41.831c16.775,0,29.726-18.728,29.726-41.831
			C129.711,150.117,116.555,133.51,105.555,129.222z"/>
		<path id="path-7_154_" style="fill:#FFFFFF;" d="M105.442,203.722c-2.011,0-3.638-1.614-3.638-3.604
			c0-1.992,1.627-3.606,3.638-3.606c5.334,0,9.677-6.766,9.677-15.081c0-1.991,1.627-3.604,3.639-3.604s3.638,1.613,3.638,3.604
			C122.396,193.931,114.947,203.722,105.442,203.722z"/>
		<path id="path-8_150_" style="fill:#FFFFFF;" d="M11.527,43.702c-2.01,0-3.638-1.614-3.638-3.604
			c0-12.5,7.449-22.292,16.958-22.292c2.011,0,3.638,1.615,3.638,3.606c0,1.99-1.627,3.604-3.638,3.604
			c-5.337,0-9.68,6.765-9.68,15.082C15.167,42.088,13.539,43.702,11.527,43.702z"/>
		<path id="path-9_144_" style="opacity:0.2;fill:#020403;enable-background:new    ;" d="M75.633,169.966
			c0-19.849,9.371-36.456,24.396-40.744l-0.009-118.48l-8.32,0.137l0.01,118.206c-14.85,6.042-22.715,21.032-22.715,40.881
			c0,23.103,12.36,37.587,29.053,41.831c1.238,0.315,2.525-0.144,3.756-0.355C86.868,208.883,75.633,191.308,75.633,169.966z"/>
		<path id="path-10_130_" style="fill:#FF3A2F;" d="M55.677,47.174c3.033,0,5.335-2.735,5.335-6.05l0.076-4.466
			C57.283,19.487,45.651,6.983,31.948,6.983c-1.406,0-2.783,0.178-4.145,0.433v38.47v14.84c0,3.316,2.602,6.002,5.635,6.002
			s5.635-2.686,5.635-6.002V37.655c0-3.314,2.602-6.001,5.635-6.001c3.032,0,5.634,2.687,5.634,6.001v3.566
			C50.342,44.536,52.644,47.174,55.677,47.174z"/>
		<path id="path-11_114_" style="opacity:0.25;fill:#020403;enable-background:new    ;" d="M37.194,31.654
			c-3.032,0-5.634,2.687-5.634,6.001v23.071c0,1.756-0.741,3.32-1.88,4.417c1.011,0.976,2.331,1.585,3.758,1.585
			c3.033,0,5.635-2.686,5.635-6.002V37.655c0-1.755,0.741-3.32,1.879-4.417C39.941,32.263,38.622,31.654,37.194,31.654z"/>
		<path id="path-12_97_" style="opacity:0.25;fill:#020403;enable-background:new    ;" d="M31.948,6.983
			c-1.252,0-2.478,0.153-3.692,0.363C40.26,9.425,50.13,21.111,53.574,36.658l-0.075,4.466c0,1.697-0.608,3.234-1.604,4.338
			c0.954,1.06,2.276,1.712,3.782,1.712c3.033,0,5.335-2.735,5.335-6.05l0.076-4.466C57.283,19.487,45.651,6.983,31.948,6.983z"/>
	</g>
</g>
<g>
</g>
<g>
</g>
<g>
</g>
<g>
</g>
<g>
</g>
<g>
</g>
<g>
</g>
<g>
</g>
<g>
</g>
<g>
</g>
<g>
</g>
<g>
</g>
<g>
</g>
<g>
</g>
<g>
</g>
</svg>
