<?xml version="1.0" encoding="iso-8859-1"?>
<!-- Generator: Adobe Illustrator 19.1.0, SVG Export Plug-In . SVG Version: 6.00 Build 0)  -->
<svg version="1.1" id="Capa_1" xmlns="http://www.w3.org/2000/svg" xmlns:xlink="http://www.w3.org/1999/xlink" x="0px" y="0px"
	 viewBox="0 0 216.292 216.292" style="enable-background:new 0 0 216.292 216.292;" xml:space="preserve">
<g>
	<g id="group-5svg">
		<path id="path-1_113_" style="fill:#FBB713;" d="M84.665,216.292H67.734c-2.984,0-5.401-1.576-5.401-3.52
			c0-1.945,2.417-3.521,5.401-3.521h0.744h6.872c2.983,0,5.401-1.577,5.401-3.521c0-1.943-2.418-3.521-5.401-3.521H59.002
			c-2.984,0-5.401-1.575-5.401-3.521c0-1.943,2.417-3.52,5.401-3.52h18.581l3.118,0.129c2.983,0,5.401-1.575,5.401-3.52
			c0-1.944-2.418-3.52-5.401-3.52H64.353c-2.983,0-5.401-1.576-5.401-3.521c0-1.945,2.418-3.52,5.401-3.52l59.445-0.13
			c2.984,0,5.402,1.576,5.402,3.521c0,1.944-2.418,3.52-5.402,3.52H107.45c-2.982,0-5.401,1.577-5.401,3.521s2.419,3.52,5.401,3.52
			h40.626h18.583c2.983,0,5.402,1.577,5.402,3.52c0,1.946-2.419,3.521-5.402,3.521H150.31c-2.982,0-5.4,1.578-5.4,3.521
			c0,1.944,2.418,3.521,5.4,3.521h6.872h18.582c2.984,0,5.402,1.576,5.402,3.521c0,1.944-2.418,3.52-5.402,3.52h-34.769H84.665z"/>
		<path id="path-2_113_" style="fill:#FBB713;" d="M190.082,109.513h5.633c1.088,0,1.967,1.131,1.967,2.527
			c0,1.395-0.879,2.526-1.967,2.526h-0.261c-1.086,0-1.967,1.132-1.967,2.527s0.881,2.527,1.967,2.527h12.11
			c1.086,0,1.967,1.131,1.967,2.526c0,1.395-0.881,2.527-1.967,2.527h-14.553h-15.998c-1.086,0-1.965-1.132-1.965-2.527
			c0-1.395,0.879-2.526,1.965-2.526h3.362c1.087,0,1.967-1.132,1.967-2.527s-0.88-2.527-1.967-2.527h-15.996
			c-1.087,0-1.966-1.131-1.966-2.526c0-1.396,0.879-2.527,1.966-2.527h3.781H190.082z"/>
		<path id="path-3_113_" style="fill:#FBB713;" d="M147.346,144.052c2.526,0,4.575-1.286,4.575-2.872s-2.049-2.871-4.575-2.871
			h-14.018c-2.527,0-4.575,1.285-4.575,2.871s2.048,2.872,4.575,2.872H147.346z"/>
		<path id="path-4_112_" style="fill:#FBB713;" d="M73.335,70.899v19.187c0,2.914,1.132,5.716,3.16,7.826l14.507,15.09
			c2.028,2.11,3.16,4.912,3.16,7.826v63.545c0,6.267-5.129,11.348-11.455,11.348H22.31c-6.325,0-11.454-5.081-11.454-11.348V70.899
			c0-6.267,5.129-11.348,11.454-11.348h39.57C68.207,59.551,73.335,64.632,73.335,70.899z"/>
		<path id="path-5_112_" style="fill:#142A3B;" d="M108.837,19.343H97.282c-0.553,0-1-0.448-1-1V8.738c0-0.553,0.447-1,1-1h11.555
			c0.551,0,0.999,0.447,0.999,1v9.605C109.836,18.895,109.388,19.343,108.837,19.343z"/>
		<path id="path-6_111_" style="fill:#2476FF;" d="M94.162,132.536l-7.373-8.238c-3.008-3.36-8.356-3.195-11.145,0.347l-0.979,1.244
			c-2.746,3.486-7.99,3.712-11.03,0.473l-3.242-3.454c-2.657-2.83-7.098-3.072-10.051-0.545l-6.55,5.603
			c-2.973,2.544-7.45,2.279-10.097-0.595l-3.524-3.826c-2.839-3.084-7.725-3.129-10.622-0.099l-8.693,9.09v11.018v40.819
			c0,6.267,5.129,11.348,11.454,11.348h60.397c6.326,0,11.455-5.081,11.455-11.348V132.536z"/>
		<path id="path-7_111_" style="fill:#142A3B;" d="M30.595,81.727h-14.84c-1.006,0-1.819-0.806-1.819-1.802
			c0-0.995,0.813-1.802,1.819-1.802h14.84c1.006,0,1.819,0.807,1.819,1.802C32.414,80.921,31.601,81.727,30.595,81.727z"/>
		<path id="path-8_108_" style="fill:#142A3B;" d="M30.595,94.494h-14.84c-1.006,0-1.819-0.808-1.819-1.802
			c0-0.996,0.813-1.803,1.819-1.803h14.84c1.006,0,1.819,0.807,1.819,1.803C32.414,93.686,31.601,94.494,30.595,94.494z"/>
		<path id="path-9_103_" style="fill:#142A3B;" d="M30.595,107.259h-14.84c-1.006,0-1.819-0.808-1.819-1.803
			c0-0.994,0.813-1.802,1.819-1.802h14.84c1.006,0,1.819,0.808,1.819,1.802C32.414,106.451,31.601,107.259,30.595,107.259z"/>
		<path id="path-10_95_" style="fill:#FFFFFF;" d="M73.373,180.51c-2.011,0-3.639-1.614-3.639-3.605v-63.702
			c0-1.99,1.628-3.605,3.639-3.605c2.012,0,3.638,1.615,3.638,3.605v63.702C77.011,178.896,75.385,180.51,73.373,180.51z"/>
		<path id="path-11_83_" style="fill:#FF3A2F;" d="M87.254,25.32v13.153l11.163,15.234c0.359,0.492,0.552,1.081,0.552,1.688v4.052
			c0,2.742-3.505,3.924-5.195,1.755L78.939,42.151c-0.686-0.88-1.057-1.96-1.057-3.071V25.32H87.254z"/>
		<path id="path-12_71_" style="fill:#A6261F;" d="M77.882,36.345h9.372v-7.718h-9.372V36.345z"/>
		<path id="path-13_59_" style="fill:#FF3A2F;" d="M8.875,18.295l20.37-16.924C30.309,0.485,31.654,0,33.044,0h61.443
			c3.265,0,5.914,2.624,5.914,5.86v16.908c0,3.236-2.649,5.859-5.914,5.859H76.898c-1.462,0-2.871,0.537-3.957,1.504L60.967,40.808
			c-1.248,1.111-1.958,2.695-1.958,4.355v1.59c0,3.235-2.649,5.858-5.915,5.858H32.381c-3.265,0-5.914-2.623-5.914-5.858l0,0
			c0-2.868-2.096-5.316-4.952-5.781l-9.49-1.55c-2.794-0.456-4.87-2.811-4.95-5.615L6.764,22.951
			C6.712,21.16,7.49,19.445,8.875,18.295z"/>
		<path id="path-14_47_" style="opacity:0.35;fill:#010101;enable-background:new    ;" d="M59.009,46.753v-1.31h-32.78
			c0.102,0.43,0.238,0.85,0.238,1.31c0,3.235,2.648,5.858,5.914,5.858h20.713C56.36,52.611,59.009,49.988,59.009,46.753z"/>
		<path id="path-15_40_" style="fill:#142A3B;" d="M55.112,49.074H28.038c-3.738,0-6.768,4.691-6.768,10.477h40.611
			C61.881,53.765,58.851,49.074,55.112,49.074z"/>
	</g>
</g>
<g>
</g>
<g>
</g>
<g>
</g>
<g>
</g>
<g>
</g>
<g>
</g>
<g>
</g>
<g>
</g>
<g>
</g>
<g>
</g>
<g>
</g>
<g>
</g>
<g>
</g>
<g>
</g>
<g>
</g>
</svg>
