<?xml version="1.0" encoding="iso-8859-1"?>
<!-- Generator: Adobe Illustrator 19.1.0, SVG Export Plug-In . SVG Version: 6.00 Build 0)  -->
<svg version="1.1" id="Capa_1" xmlns="http://www.w3.org/2000/svg" xmlns:xlink="http://www.w3.org/1999/xlink" x="0px" y="0px"
	 viewBox="0 0 218.332 218.332" style="enable-background:new 0 0 218.332 218.332;" xml:space="preserve">
<g>
	<g id="group-52svg">
		<path id="path-1_116_" style="fill:#142A3B;" d="M143.18,171.76c6.451,3.674,13.072,8.585,19.797,15.032
			c0,0-5.176,2.943-14.175,5.933c29.969,4.651,51.533-7.65,51.533-7.65C178.093,163.752,157.426,165.62,143.18,171.76z"/>
		<path id="path-2_116_" style="fill:#142A3B;" d="M56.258,186.792c0,0,6.449-7.096,17.366-13.62
			c-33.63-17.342-60.244,11.903-60.244,11.903c22.117,10.27,42.05,9.78,56.034,6.988C65.1,190.584,60.716,188.863,56.258,186.792z"
			/>
		<path id="path-3_116_" style="opacity:0.45;fill:#020403;enable-background:new    ;" d="M170.657,192.725
			c8.999-2.99,14.174-5.933,14.174-5.933c-6.725-6.447-13.345-11.358-19.796-15.032c2.518-1.085,5.245-2.025,8.137-2.739
			c-11.501-2.877-21.809-0.788-29.992,2.739c6.451,3.674,13.072,8.585,19.797,15.032c0,0-5.176,2.943-14.175,5.933
			c9.132,1.417,17.467,1.25,24.666,0.346C172.531,192.957,171.611,192.873,170.657,192.725z"/>
		<path id="path-4_115_" style="opacity:0.45;fill:#020403;enable-background:new    ;" d="M56.258,186.792
			c0,0,6.449-7.096,17.366-13.62c-5.482-2.828-10.773-4.399-15.798-5.079c-1.633,0.22-3.287,0.506-4.976,0.928
			c2.892,0.714,5.62,1.654,8.138,2.739c-6.45,3.674-13.072,8.585-19.796,15.032c0,0,5.174,2.943,14.174,5.933
			c-0.954,0.148-1.874,0.232-2.811,0.346c1.748,0.22,3.567,0.391,5.443,0.512c4.131-0.281,7.957-0.829,11.416-1.52
			C65.1,190.584,60.716,188.863,56.258,186.792z"/>
		<path id="path-5_115_" style="fill:#FF3A2F;" d="M56.258,186.793c0,0,49.68-54.683,106.719,0
			C162.977,186.793,115.137,214.134,56.258,186.793z"/>
		<path id="path-6_114_" style="opacity:0.25;fill:#020403;enable-background:new    ;" d="M98.951,163.49
			c13.072,2.325,27.368,9.111,42.171,23.302c0,0-16.449,9.382-41.908,11.652c37.52,3.319,63.763-11.652,63.763-11.652
			C139.369,164.16,117.036,160.284,98.951,163.49z"/>
		<path id="path-7_114_" style="fill:#0CB04A;" d="M147.247,67.833c0,22.651-41.399,41.012-41.399,41.012
			S64.449,90.484,64.449,67.833s41.399-64.756,41.399-64.756S147.247,45.182,147.247,67.833z"/>
		<path id="path-8_111_" style="fill:#FFFFFF;" d="M72.23,75.79c-2.01,0-3.639-1.614-3.639-3.605
			c0-19.038,30.658-50.77,34.155-54.325c1.402-1.426,3.709-1.458,5.145-0.068c1.44,1.39,1.47,3.671,0.068,5.098
			c-8.925,9.082-32.09,35.644-32.09,49.295C75.869,74.176,74.239,75.79,72.23,75.79z"/>
		<path id="path-9_105_" style="opacity:0.25;fill:#020403;enable-background:new    ;" d="M105.848,3.077
			c0,0-2.246,2.287-5.669,6.053c12.165,13.792,32.499,39.216,32.499,55.094c0,18.321-27.078,33.832-37.432,39.094
			c6.063,3.508,10.602,5.527,10.602,5.527s41.4-18.361,41.4-41.012S105.848,3.077,105.848,3.077z"/>
		<path id="path-10_97_" style="fill:#142A3B;" d="M106.913,165.407c-2.01,0-3.639-1.615-3.639-3.605l0.052-43.483
			c7.368-43.245-0.916-75.881-1.001-76.206c-0.501-1.927,0.668-3.893,2.612-4.391c1.941-0.497,3.928,0.656,4.433,2.584
			c0.362,1.378,8.736,34.211,1.181,78.913v42.583C110.551,163.792,108.922,165.407,106.913,165.407z"/>
		<path id="path-11_85_" style="fill:#0CB04A;" d="M29.164,155.393c15.787,8.737,44.555-12.498,44.555-12.498
			s3.173-35.401-12.615-44.139C45.317,90.019,0,102.095,0,102.095S13.378,146.655,29.164,155.393z"/>
		<path id="path-12_73_" style="opacity:0.25;fill:#020403;enable-background:new    ;" d="M61.104,113.19
			c9.048,5.007,11.865,18.767,12.624,29.608c0.165-2.007,2.69-35.567-12.624-44.042C45.317,90.019,0,102.094,0,102.094
			s1.699,5.649,4.591,13.307C16.496,112.621,48.382,106.148,61.104,113.19z"/>
		<path id="path-13_61_" style="fill:#142A3B;" d="M106.405,165.547c-0.601,0-1.211-0.147-1.772-0.459L78.82,150.801
			c-34.186-12.128-53.931-30.609-54.757-31.392c-1.452-1.375-1.502-3.654-0.114-5.094c1.388-1.437,3.692-1.491,5.143-0.117
			c0.192,0.181,19.647,18.334,52.459,29.915l0.554,0.248l26.078,14.433c1.754,0.972,2.383,3.168,1.402,4.907
			C108.918,164.881,107.68,165.547,106.405,165.547z"/>
		<path id="path-14_49_" style="fill:#2476FF;" d="M170.147,205.657h13.957c2.691,0,4.873,0.716,4.873,1.599
			c0,0.884-2.182,1.601-4.873,1.601h-0.65c-2.691,0-4.873,0.715-4.873,1.598c0,0.885,2.182,1.599,4.873,1.599h30.005
			c2.691,0,4.873,0.717,4.873,1.601c0,0.883-2.182,1.6-4.873,1.6h-36.058h-39.632c-2.691,0-4.873-0.717-4.873-1.6
			c0-0.884,2.182-1.601,4.873-1.601h8.328c2.691,0,4.872-0.714,4.872-1.599c0-0.883-2.181-1.598-4.872-1.598h-39.633
			c-2.69,0-4.872-0.717-4.872-1.601c0-0.883,2.182-1.599,4.872-1.599h9.367H170.147z"/>
		<path id="path-15_41_" style="fill:#2476FF;" d="M82.237,207.389c3.086,0,5.588-1.215,5.588-2.713s-2.502-2.713-5.588-2.713
			H65.112c-3.086,0-5.587,1.215-5.587,2.713s2.501,2.713,5.587,2.713H82.237z"/>
		<path id="path-16_33_" style="fill:#2476FF;" d="M142.474,139.72c0,3.057,1.226,5.536,2.738,5.536
			c1.513,0,2.739-2.479,2.739-5.536v-16.964c0-3.058-1.226-5.536-2.739-5.536c-1.512,0-2.738,2.478-2.738,5.536V139.72z"/>
		<path id="path-17_29_" style="fill:#2476FF;" d="M195.469,150.56h4.594c0.885,0,1.603,0.715,1.603,1.599s-0.718,1.6-1.603,1.6
			h-0.214c-0.886,0-1.603,0.716-1.603,1.6c0,0.883,0.717,1.599,1.603,1.599h9.876c0.886,0,1.604,0.715,1.604,1.599
			s-0.718,1.6-1.604,1.6h-11.869h-13.045c-0.885,0-1.603-0.716-1.603-1.6s0.718-1.599,1.603-1.599h2.741
			c0.886,0,1.605-0.716,1.605-1.599c0-0.884-0.719-1.6-1.605-1.6h-13.044c-0.886,0-1.604-0.716-1.604-1.6s0.718-1.599,1.604-1.599
			h3.083H195.469z"/>
	</g>
</g>
<g>
</g>
<g>
</g>
<g>
</g>
<g>
</g>
<g>
</g>
<g>
</g>
<g>
</g>
<g>
</g>
<g>
</g>
<g>
</g>
<g>
</g>
<g>
</g>
<g>
</g>
<g>
</g>
<g>
</g>
</svg>
