<?xml version="1.0" encoding="iso-8859-1"?>
<!-- Generator: Adobe Illustrator 19.1.0, SVG Export Plug-In . SVG Version: 6.00 Build 0)  -->
<svg version="1.1" id="Capa_1" xmlns="http://www.w3.org/2000/svg" xmlns:xlink="http://www.w3.org/1999/xlink" x="0px" y="0px"
	 viewBox="0 0 218.331 218.331" style="enable-background:new 0 0 218.331 218.331;" xml:space="preserve">
<g>
	<g id="group-79svg">
		<path id="path-1_145_" style="fill:#FF3A2F;" d="M203.339,47.659c0-6.599-5.401-11.95-12.063-11.95
			c6.662,0,12.063-5.35,12.063-11.95c0-6.599-5.401-11.95-12.063-11.95c-4.66,0-8.696,2.623-10.704,6.455
			c-2.186-3.051-5.773-5.049-9.838-5.049c-3.832,0-7.242,1.777-9.45,4.539c-2.092-3.552-5.969-5.945-10.418-5.945
			c-6.661,0-12.062,5.351-12.062,11.95h-0.072c0-6.599-5.401-11.95-12.062-11.95c-5.242,0-9.69,3.318-11.354,7.944
			c-1.664-4.626-6.111-7.944-11.353-7.944c-6.662,0-12.063,5.351-12.063,11.95h-0.674c0-6.599-5.4-11.95-12.062-11.95
			c-6.662,0-12.062,5.351-12.062,11.95c0-6.599-5.401-11.95-12.064-11.95c-5.24,0-9.689,3.318-11.353,7.944
			c-1.664-4.626-6.112-7.944-11.353-7.944c-6.662,0-12.063,5.351-12.063,11.95c0,6.6,5.401,11.95,12.063,11.95
			c-6.662,0-12.063,5.351-12.063,11.95c0,6.6,5.401,11.95,12.063,11.95v1.478c-6.662,0-12.063,5.35-12.063,11.95
			c0,6.598,5.401,11.95,12.063,11.95c-6.662,0-12.063,5.35-12.063,11.95c0,6.599,5.401,11.95,12.063,11.95v0.666
			c-6.662,0-12.063,5.351-12.063,11.95c0,6.6,5.401,11.951,12.063,11.951c-6.662,0-12.063,5.35-12.063,11.95
			c0,6.599,5.401,11.949,12.063,11.949c-6.662,0-12.063,5.351-12.063,11.95c0,6.6,5.401,11.95,12.063,11.95v0.668
			c-6.662,0-12.063,5.349-12.063,11.949c0,6.6,5.401,11.951,12.063,11.951c5.375,0,9.924-3.485,11.483-8.296
			c1.76,4.442,6.116,7.593,11.223,7.593c6.423,0,11.657-4.977,12.028-11.248h0.071c0.369,6.271,5.605,11.248,12.027,11.248
			c6.423,0,11.658-4.977,12.026-11.248h0.746c0.369,6.271,5.604,11.248,12.027,11.248c5.242,0,9.689-3.318,11.353-7.945
			c1.664,4.627,6.112,7.945,11.354,7.945c6.422,0,11.657-4.977,12.026-11.248h0.144c0.369,6.271,5.605,11.248,12.026,11.248
			c3.834,0,7.242-1.778,9.452-4.538c2.091,3.55,5.968,5.943,10.416,5.943c4.498,0,8.413-2.443,10.487-6.057
			c2.16,3.225,5.855,5.355,10.055,5.355c6.662,0,12.063-5.351,12.063-11.951c0-6.6-5.401-11.949-12.063-11.949v-0.668
			c6.662,0,12.063-5.35,12.063-11.95c0-6.599-5.401-11.95-12.063-11.95c6.662,0,12.063-5.35,12.063-11.949
			c0-6.6-5.401-11.95-12.063-11.95c6.662,0,12.063-5.351,12.063-11.951c0-6.599-5.401-11.95-12.063-11.95v-0.666
			c6.662,0,12.063-5.351,12.063-11.95c0-6.6-5.401-11.95-12.063-11.95c6.662,0,12.063-5.352,12.063-11.95
			c0-6.6-5.401-11.95-12.063-11.95v-1.478C197.938,59.609,203.339,54.259,203.339,47.659z"/>
		<path id="path-2_145_" style="fill:#FFFFFF;" d="M171.882,176.18H51.727V42.153h120.155V176.18z"/>
		<path id="path-3_145_" style="opacity:0.35;fill:#020403;enable-background:new    ;" d="M59.534,168.446V42.153h-7.807v134.026
			h120.155v-7.733H59.534z"/>
		<path id="path-4_144_" style="fill:#142A3B;" d="M90.455,155.995c-6.593-8.966-4.856-37.33,4.551-56.88
			c0,0-19.245,2.137-18.262,28.832c0,0-16.779-36.308,11.354-43.248c0,0-8.884-22.962-30.599-13.885c0,0,17.474-21.22,42.525,3.711
			c2.611-7.806,0.906-18.882,0.906-18.882c10.345,5.456,12.19,15.569,12.098,22.485c9.128-1.855,25.102,2.009,29.735,19.909
			c0,0-17.431-13.143-31.164-5.142c0,0,24.37,7.29,25.358,32.385c0,0-10.158-13.512-20.633-16.821
			c0.85,0.878,1.385,2.102,1.385,3.474c0,2.654-1.99,4.804-4.44,4.804c-0.891,0-1.718-0.288-2.412-0.778
			c0.576,0.809,0.931,1.807,0.931,2.915c0,2.655-1.99,4.807-4.44,4.807c-2.135,0-3.915-1.634-4.342-3.803
			c-1.293,9.931-1.432,25.754,7.189,38.407C110.195,158.285,94.197,161.085,90.455,155.995z"/>
		<path id="path-5_144_" style="fill:#142A3B;" d="M200.014,170.163c-12.854,0-25.878-8.293-26.073-8.419
			c-19.694-15.394-44.839-0.136-45.091,0.02c-0.839,0.526-1.972,0.273-2.506-0.575c-0.533-0.843-0.273-1.955,0.579-2.483
			c0.275-0.169,27.601-16.736,49.139,0.115c0.139,0.08,27.001,17.162,38.966,0.374c0.575-0.815,1.719-1.005,2.533-0.433
			c0.821,0.574,1.017,1.698,0.437,2.512C213.24,167.953,206.648,170.163,200.014,170.163z"/>
		<path id="path-6_142_" style="fill:#142A3B;" d="M200.014,179.918c-12.854,0.002-25.878-8.291-26.073-8.419
			c-19.694-15.393-44.839-0.135-45.091,0.019c-0.839,0.526-1.972,0.273-2.506-0.572c-0.533-0.845-0.273-1.957,0.579-2.485
			c0.275-0.169,27.601-16.734,49.139,0.115c0.139,0.08,27.001,17.163,38.966,0.375c0.579-0.817,1.727-1.002,2.533-0.433
			c0.821,0.573,1.017,1.699,0.437,2.512C213.24,177.709,206.648,179.917,200.014,179.918z"/>
		<path id="path-7_142_" style="fill:#142A3B;" d="M200.014,189.673c-12.854,0.001-25.878-8.291-26.073-8.419
			c-19.694-15.391-44.839-0.135-45.091,0.021c-0.839,0.524-1.972,0.274-2.506-0.575c-0.533-0.844-0.273-1.954,0.579-2.483
			c0.275-0.169,27.601-16.735,49.139,0.114c0.139,0.08,27.001,17.165,38.966,0.375c0.579-0.816,1.727-1.001,2.533-0.434
			c0.821,0.576,1.017,1.699,0.437,2.513C213.24,187.464,206.648,189.671,200.014,189.673z"/>
		<path id="path-8_139_" style="fill:#142A3B;" d="M35.6,185.293c-19.63,0-35.6-15.821-35.6-35.267
			c0-19.447,15.97-35.267,35.6-35.267c19.629,0,35.599,15.82,35.599,35.267C71.199,169.472,55.229,185.293,35.6,185.293z
			 M35.6,118.363c-17.623,0-31.961,14.205-31.961,31.663s14.338,31.662,31.961,31.662c17.621,0,31.96-14.204,31.96-31.662
			S53.221,118.363,35.6,118.363z"/>
		<path id="path-9_133_" style="fill:#142A3B;" d="M35.6,176.799c-14.9,0-27.025-12.01-27.025-26.773S20.7,123.253,35.6,123.253
			s27.024,12.01,27.024,26.773S50.5,176.799,35.6,176.799z M35.6,126.857c-12.896,0-23.387,10.393-23.387,23.169
			c0,12.775,10.491,23.168,23.387,23.168c12.895,0,23.386-10.393,23.386-23.168C58.986,137.25,48.495,126.857,35.6,126.857z"/>
		<path id="path-10_121_" style="fill:#FBB713;" d="M160.325,62.338c0,4.991-4.085,9.037-9.122,9.037
			c-5.04,0-9.123-4.046-9.123-9.037c0-4.992,4.083-9.038,9.123-9.038C156.24,53.3,160.325,57.346,160.325,62.338z"/>
		<path id="path-11_106_" style="fill:#0CB04A;" d="M82.775,129.677h2.971c0.573,0,1.038,0.395,1.038,0.882
			s-0.465,0.882-1.038,0.882h-0.138c-0.574,0-1.038,0.395-1.038,0.882c0,0.488,0.464,0.883,1.038,0.883h6.389
			c0.572,0,1.037,0.395,1.037,0.882c0,0.488-0.465,0.882-1.037,0.882h-7.678H70.513c-0.574,0-1.039-0.394-1.039-0.882
			c0-0.487,0.465-0.882,1.039-0.882h1.772c0.573,0,1.038-0.395,1.038-0.883c0-0.487-0.465-0.882-1.038-0.882h-8.438
			c-0.573,0-1.038-0.395-1.038-0.882s0.465-0.882,1.038-0.882h7.363H82.775z"/>
		<path id="path-12_90_" style="fill:#0CB04A;" d="M153.546,139.899h3.82c0.736,0,1.333,0.508,1.333,1.135
			c0,0.625-0.597,1.133-1.333,1.133h-0.178c-0.737,0-1.334,0.507-1.334,1.134c0,0.626,0.597,1.134,1.334,1.134h8.211
			c0.736,0,1.332,0.508,1.332,1.134c0,0.626-0.596,1.134-1.332,1.134h-9.868h-17.744c-0.736,0-1.333-0.508-1.333-1.134
			c0-0.626,0.597-1.134,1.333-1.134h2.279c0.737,0,1.333-0.508,1.333-1.134c0-0.627-0.596-1.134-1.333-1.134h-10.845
			c-0.736,0-1.332-0.508-1.332-1.133c0-0.627,0.596-1.135,1.332-1.135h9.462H153.546z"/>
		<path id="path-13_77_" style="fill:#2476FF;" d="M96.122,58.469h3.089c0.595,0,1.08,0.284,1.08,0.635
			c0,0.351-0.485,0.635-1.08,0.635h-0.143c-0.596,0-1.079,0.284-1.079,0.636c0,0.35,0.483,0.635,1.079,0.635h6.643
			c0.595,0,1.078,0.284,1.078,0.634c0,0.352-0.483,0.636-1.078,0.636h-7.983H83.372c-0.596,0-1.079-0.284-1.079-0.636
			c0-0.35,0.483-0.634,1.079-0.634h1.844c0.596,0,1.078-0.285,1.078-0.635c0-0.352-0.482-0.636-1.078-0.636h-8.775
			c-0.596,0-1.078-0.284-1.078-0.635c0-0.351,0.482-0.635,1.078-0.635h7.656H96.122z"/>
		<path id="path-14_62_" style="fill:#2476FF;" d="M145.572,60.432h2.14c0.412,0,0.747,0.284,0.747,0.635
			c0,0.35-0.335,0.636-0.747,0.636h-0.099c-0.413,0-0.747,0.283-0.747,0.635c0,0.35,0.334,0.634,0.747,0.634h4.599
			c0.412,0,0.746,0.285,0.746,0.636c0,0.35-0.334,0.636-0.746,0.636h-5.527h-9.94c-0.413,0-0.747-0.286-0.747-0.636
			c0-0.351,0.334-0.636,0.747-0.636h1.276c0.412,0,0.747-0.284,0.747-0.634c0-0.352-0.335-0.635-0.747-0.635h-6.074
			c-0.413,0-0.747-0.286-0.747-0.636c0-0.351,0.334-0.635,0.747-0.635h5.301H145.572z"/>
		<path id="path-15_52_" style="fill:#0CB04A;" d="M109.257,155.739h5.589c1.078,0,1.951,0.742,1.951,1.659
			c0,0.917-0.873,1.66-1.951,1.66h-0.26c-1.078,0-1.951,0.743-1.951,1.659c0,0.917,0.873,1.659,1.951,1.659H126.6
			c1.078,0,1.951,0.743,1.951,1.659c0,0.917-0.873,1.66-1.951,1.66h-14.438H86.197c-1.077,0-1.951-0.743-1.951-1.66
			c0-0.916,0.874-1.659,1.951-1.659h3.335c1.077,0,1.951-0.742,1.951-1.659c0-0.916-0.874-1.659-1.951-1.659H73.663
			c-1.078,0-1.952-0.743-1.952-1.66c0-0.917,0.874-1.659,1.952-1.659h13.846H109.257z"/>
	</g>
</g>
<g>
</g>
<g>
</g>
<g>
</g>
<g>
</g>
<g>
</g>
<g>
</g>
<g>
</g>
<g>
</g>
<g>
</g>
<g>
</g>
<g>
</g>
<g>
</g>
<g>
</g>
<g>
</g>
<g>
</g>
</svg>
