<?xml version="1.0" encoding="iso-8859-1"?>
<!-- Generator: Adobe Illustrator 19.1.0, SVG Export Plug-In . SVG Version: 6.00 Build 0)  -->
<svg version="1.1" id="Capa_1" xmlns="http://www.w3.org/2000/svg" xmlns:xlink="http://www.w3.org/1999/xlink" x="0px" y="0px"
	 viewBox="0 0 218.332 218.332" style="enable-background:new 0 0 218.332 218.332;" xml:space="preserve">
<g>
	<g id="group-102svg">
		<path id="path-1_4_" style="fill:#FF3A2F;" d="M129.332,158.312v21.326H21.696v-21.326H129.332z"/>
		<path id="path-2_4_" style="opacity:0.35;fill:#020403;enable-background:new    ;" d="M21.696,158.312v3.554l86.873,3.31
			c3.581,0.137,6.413,3.051,6.413,6.601v7.861h14.35v-21.326H21.696z"/>
		<path id="path-3_4_" style="fill:#142A3B;" d="M136.507,158.312H14.521V147.65c0-3.923,3.212-7.109,7.175-7.109
			c15.85,0,43.055-12.728,43.055-28.435c0,0,0-17.834,0-21.326c0-7.095-0.463-8.709-9.961-18.118
			c-7.071-5.87-11.567-14.683-11.567-24.534c0-17.668,14.457-31.988,32.291-31.988s32.291,14.32,32.291,31.988
			c0,9.847-4.492,18.657-11.556,24.527c-9.45,9.36-9.936,10.933-9.936,17.119c0,3.256-0.035,22.335-0.035,22.335
			c0,15.704,27.2,28.436,43.054,28.432c3.963,0,7.175,3.186,7.175,7.109V158.312z"/>
		<path id="path-4_4_" style="opacity:0.35;fill:#020403;enable-background:new    ;" d="M54.041,128.943
			c-9.352,7.023-22.863,11.597-32.345,11.597c-3.963,0-7.175,3.186-7.175,7.109C26.916,147.65,46.2,139.85,54.041,128.943z"/>
		<path id="path-5_4_" style="opacity:0.35;fill:#020403;enable-background:new    ;" d="M129.332,140.54
			c-15.854,0.004-43.054-12.728-43.054-28.432c0,0,0.035-19.079,0.035-22.335c0-6.187,0.486-7.759,9.936-17.119
			c7.064-5.87,11.556-14.68,11.556-24.527c0-17.668-14.457-31.988-32.291-31.988c-10.749,0-20.246,5.223-26.115,13.227
			c5.324-3.832,11.855-6.12,18.939-6.12c17.835,0,32.291,14.323,32.291,31.99c0,9.847-4.492,18.656-11.555,24.526
			c-9.45,9.362-9.937,10.935-9.937,17.119c0,3.256-0.035,22.337-0.035,22.337c0,15.703,27.2,28.434,43.055,28.431
			c3.962,0,7.175,3.186,7.175,7.108v3.555h7.175V147.65C136.507,143.727,133.295,140.54,129.332,140.54z"/>
		<path id="path-6_4_" style="fill:#FFFFFF;" d="M61.135,62.354c-1.108,0-2.203-0.5-2.918-1.448
			c-2.8-3.715-4.281-8.134-4.281-12.779c0-10.106,7.249-18.914,17.238-20.942c1.986-0.392,3.895,0.859,4.296,2.809
			c0.405,1.95-0.863,3.854-2.832,4.255c-6.621,1.343-11.425,7.181-11.425,13.878c0,3.079,0.981,6.005,2.833,8.464
			c1.204,1.596,0.874,3.855-0.736,5.046C62.656,62.12,61.892,62.354,61.135,62.354z"/>
		<path id="path-7_4_" style="fill:#142A3B;" d="M66.146,178.411H46.985c-3.694,0-6.689,1.699-6.689,3.794s2.995,3.794,6.689,3.794
			h0.892c3.694,0,6.689,1.698,6.689,3.794c0,2.095-2.995,3.795-6.689,3.795H6.689c-3.694,0-6.689,1.698-6.689,3.795
			c0,2.095,2.995,3.793,6.689,3.793h49.497h101.173c3.694,0,6.689-1.698,6.689-3.793c0-2.097-2.995-3.795-6.689-3.795h-11.431
			c-3.694,0-6.688-1.7-6.688-3.795c0-2.096,2.994-3.794,6.688-3.794h44.896c3.694,0,6.689-1.699,6.689-3.794
			s-2.995-3.794-6.689-3.794h-3.351H66.146z"/>
		<path id="path-8_4_" style="fill:#142A3B;" d="M195.539,202.193c-3.097,0-5.608-1.821-5.608-4.067
			c0-2.245,2.511-4.067,5.608-4.067h17.185c3.097,0,5.608,1.822,5.608,4.067c0,2.246-2.511,4.067-5.608,4.067H195.539z"/>
	</g>
</g>
<g>
</g>
<g>
</g>
<g>
</g>
<g>
</g>
<g>
</g>
<g>
</g>
<g>
</g>
<g>
</g>
<g>
</g>
<g>
</g>
<g>
</g>
<g>
</g>
<g>
</g>
<g>
</g>
<g>
</g>
</svg>
