<?xml version="1.0" encoding="iso-8859-1"?>
<!-- Generator: Adobe Illustrator 19.1.0, SVG Export Plug-In . SVG Version: 6.00 Build 0)  -->
<svg version="1.1" id="Capa_1" xmlns="http://www.w3.org/2000/svg" xmlns:xlink="http://www.w3.org/1999/xlink" x="0px" y="0px"
	 viewBox="0 0 217.228 217.228" style="enable-background:new 0 0 217.228 217.228;" xml:space="preserve">
<g>
	<g id="group-38svg">
		<path id="path-1_92_" style="fill:#0CB04A;" d="M99.857,180.725H82.739c-3.301,0-5.976,1.492-5.976,3.332s2.675,3.331,5.976,3.331
			h0.796c3.301,0,5.977,1.491,5.977,3.331c0,1.84-2.676,3.332-5.977,3.332H46.736c-3.301,0-5.977,1.491-5.977,3.331
			s2.676,3.332,5.977,3.332H90.96h90.392c3.301,0,5.976-1.492,5.976-3.332s-2.675-3.331-5.976-3.331h-10.213
			c-3.3,0-5.976-1.492-5.976-3.332c0-1.84,2.676-3.331,5.976-3.331h40.113c3.3,0,5.976-1.491,5.976-3.331s-2.676-3.332-5.976-3.332
			h-2.994H99.857z"/>
		<path id="path-2_92_" style="fill:#0CB04A;" d="M180.834,154.259h3.04c0.587,0,1.062,0.824,1.062,1.841
			c0,1.018-0.475,1.843-1.062,1.843h-0.141c-0.586,0-1.061,0.824-1.061,1.842c0,1.017,0.475,1.842,1.061,1.842h6.536
			c0.585,0,1.061,0.825,1.061,1.842c0,1.018-0.476,1.843-1.061,1.843h-7.854h-16.053c-0.586,0-1.061-0.825-1.061-1.843
			c0-1.017,0.475-1.842,1.061-1.842h1.814c0.586,0,1.061-0.825,1.061-1.842c0-1.018-0.475-1.842-1.061-1.842h-8.632
			c-0.587,0-1.061-0.825-1.061-1.843c0-1.017,0.474-1.841,1.061-1.841h2.04H180.834z"/>
		<path id="path-3_92_" style="fill:#0CB04A;" d="M11.781,204.696c-2.412,0-4.368-1.431-4.368-3.196s1.956-3.196,4.368-3.196h13.383
			c2.413,0,4.367,1.431,4.367,3.196s-1.954,3.196-4.367,3.196H11.781z"/>
		<path id="path-4_92_" style="fill:#FBB713;" d="M121.906,71.066l64.219,9.935l-46.948,44.927l10.395,64.144l-57.238-30.767
			L34.54,189.014l11.574-63.941L0,79.289l64.39-8.752l29.294-58.004L121.906,71.066z"/>
		<path id="path-5_91_" style="opacity:0.35;fill:#060606;enable-background:new    ;" d="M110.302,68.164l11.029,1.707
			L93.684,12.532l-5.221,10.339L110.302,68.164z"/>
		<path id="path-6_88_" style="opacity:0.35;fill:#060606;enable-background:new    ;" d="M80.729,156.405L36.31,179.238
			l-1.77,9.776l54.621-28.077L80.729,156.405z"/>
		<path id="path-7_87_" style="opacity:0.35;fill:#060606;enable-background:new    ;" d="M186.125,81.001l-12.599-1.949
			l-45.954,43.975l9.803,60.489l12.197,6.556l-10.395-64.144L186.125,81.001z"/>
	</g>
</g>
<g>
</g>
<g>
</g>
<g>
</g>
<g>
</g>
<g>
</g>
<g>
</g>
<g>
</g>
<g>
</g>
<g>
</g>
<g>
</g>
<g>
</g>
<g>
</g>
<g>
</g>
<g>
</g>
<g>
</g>
</svg>
