<?xml version="1.0" encoding="iso-8859-1"?>
<!-- Generator: Adobe Illustrator 19.1.0, SVG Export Plug-In . SVG Version: 6.00 Build 0)  -->
<svg version="1.1" id="Capa_1" xmlns="http://www.w3.org/2000/svg" xmlns:xlink="http://www.w3.org/1999/xlink" x="0px" y="0px"
	 viewBox="0 0 218.333 218.333" style="enable-background:new 0 0 218.333 218.333;" xml:space="preserve">
<g>
	<g id="group-54svg">
		<path id="path-1_118_" style="fill:#2476FF;" d="M150.854,196.089h15.212c2.933,0,5.31,0.782,5.31,1.745
			c0,0.962-2.377,1.742-5.31,1.742h-0.708c-2.933,0-5.311,0.781-5.311,1.744c0,0.962,2.378,1.743,5.311,1.743h32.7
			c2.933,0,5.311,0.78,5.311,1.743s-2.378,1.744-5.311,1.744h-39.297h-43.193c-2.933,0-5.31-0.781-5.31-1.744
			s2.377-1.743,5.31-1.743h9.076c2.932,0,5.31-0.781,5.31-1.743c0-0.963-2.378-1.744-5.31-1.744H81.451
			c-2.933,0-5.31-0.78-5.31-1.742c0-0.963,2.377-1.745,5.31-1.745H91.66H150.854z"/>
		<path id="path-2_118_" style="fill:#2476FF;" d="M55.047,197.976c3.364,0,6.091-1.323,6.091-2.956
			c0-1.632-2.727-2.956-6.091-2.956H36.384c-3.363,0-6.09,1.324-6.09,2.956c0,1.633,2.727,2.956,6.09,2.956H55.047z"/>
		<path id="path-3_118_" style="fill:#2476FF;" d="M201.048,168.725h5.007c0.965,0,1.748,0.78,1.748,1.743s-0.783,1.744-1.748,1.744
			h-0.233c-0.965,0-1.748,0.78-1.748,1.742c0,0.963,0.783,1.744,1.748,1.744h10.763c0.965,0,1.748,0.78,1.748,1.744
			c0,0.963-0.783,1.742-1.748,1.742H203.65h-14.216c-0.966,0-1.748-0.779-1.748-1.742c0-0.964,0.782-1.744,1.748-1.744h2.987
			c0.965,0,1.748-0.781,1.748-1.744c0-0.962-0.783-1.742-1.748-1.742h-14.216c-0.966,0-1.749-0.781-1.749-1.744
			s0.783-1.743,1.749-1.743h3.359H201.048z"/>
		<path id="path-4_117_" style="fill:#2476FF;" d="M37.01,146.958h3.08c0.593,0,1.075,0.48,1.075,1.072
			c0,0.593-0.482,1.073-1.075,1.073h-0.144c-0.593,0-1.074,0.479-1.074,1.072s0.481,1.072,1.074,1.072h6.621
			c0.594,0,1.075,0.48,1.075,1.073c0,0.592-0.481,1.072-1.075,1.072h-7.956h-8.745c-0.594,0-1.075-0.48-1.075-1.072
			c0-0.593,0.481-1.073,1.075-1.073h1.837c0.594,0,1.076-0.479,1.076-1.072s-0.482-1.072-1.076-1.072h-8.745
			c-0.594,0-1.075-0.48-1.075-1.073c0-0.592,0.481-1.072,1.075-1.072h2.067H37.01z"/>
		<path id="path-5_117_" style="fill:#FBB713;" d="M131.187,65.542l49.468,6.399c7.496,0.97,10.615,10.033,5.279,15.337
			l-35.216,35.005c-2.119,2.106-3.057,5.11-2.507,8.033l9.144,48.584c1.385,7.361-6.351,13.101-13.093,9.713L99.774,166.25
			c-2.676-1.345-5.85-1.299-8.486,0.122l-43.817,23.627c-6.639,3.581-14.541-1.935-13.371-9.333l7.722-48.826
			c0.464-2.937-0.56-5.913-2.739-7.958L2.859,89.901c-5.489-5.149-2.635-14.297,4.829-15.482l49.26-7.813
			c2.964-0.47,5.505-2.355,6.794-5.04l21.429-44.63c3.247-6.762,12.912-6.9,16.355-0.234l22.723,43.997
			C125.616,63.347,128.211,65.157,131.187,65.542z"/>
		<path id="path-6_116_" style="opacity:0.35;fill:#020403;enable-background:new    ;" d="M96.369,50.082
			c0,0,0.941,1.127,1.629,2.817c0.722,1.689,1.286,3.942,1.282,6.195c0.039,2.253-1.528,4.505-1.914,6.197
			c-0.434,1.689-0.231,2.815-0.231,2.815c0.112,0.619-0.304,1.21-0.928,1.32s-1.221-0.303-1.333-0.92
			c-0.024-0.134-0.021-0.273,0-0.4c0,0,0.204-1.126-0.231-2.815c-0.385-1.692-1.953-3.944-1.913-6.197
			c-0.004-2.253,0.56-4.506,1.282-6.195c0.688-1.69,1.629-2.817,1.629-2.817c0.166-0.199,0.464-0.227,0.665-0.062
			C96.329,50.038,96.35,50.061,96.369,50.082z"/>
		<path id="path-7_116_" style="opacity:0.35;fill:#020403;enable-background:new    ;" d="M99.3,86.13c0,0-0.407,1.73-1.094,3.46
			c-0.347,0.863-0.788,1.728-1.17,2.377c-0.329,0.648-0.667,1.08-0.667,1.08c-0.156,0.201-0.445,0.235-0.646,0.082
			c-0.031-0.024-0.059-0.053-0.082-0.082c0,0-0.338-0.432-0.666-1.08c-0.383-0.649-0.824-1.514-1.171-2.377
			c-0.688-1.73-1.094-3.46-1.094-3.46c-0.423-1.801,0.709-3.604,2.528-4.023c1.82-0.418,3.638,0.702,4.062,2.505
			C99.42,85.124,99.41,85.65,99.3,86.13z"/>
		<path id="path-8_113_" style="opacity:0.35;fill:#020403;enable-background:new    ;" d="M60.044,157.128
			c0,0,0.139-1.456,0.858-3.133c0.696-1.701,1.905-3.688,3.516-5.279c1.58-1.621,4.297-2.116,5.776-3.042
			c1.513-0.888,2.173-1.828,2.173-1.828c0.364-0.515,1.079-0.642,1.599-0.283c0.52,0.359,0.648,1.067,0.285,1.584
			c-0.079,0.111-0.179,0.207-0.285,0.282c0,0-0.948,0.653-1.846,2.153c-0.934,1.464-1.434,4.156-3.071,5.723
			c-1.605,1.594-3.612,2.793-5.328,3.481c-1.693,0.715-3.162,0.852-3.162,0.852c-0.26,0.023-0.491-0.165-0.515-0.423
			C60.041,157.185,60.041,157.156,60.044,157.128z"/>
		<path id="path-9_107_" style="opacity:0.35;fill:#020403;enable-background:new    ;" d="M83.702,129.585
			c0,0,1.522-0.939,3.242-1.679c0.863-0.369,1.792-0.671,2.525-0.861c0.695-0.23,1.242-0.299,1.242-0.299
			c0.253-0.031,0.484,0.146,0.516,0.396c0.005,0.038,0.005,0.078,0,0.114c0,0-0.07,0.544-0.3,1.232
			c-0.193,0.725-0.498,1.646-0.87,2.5c-0.749,1.705-1.695,3.211-1.695,3.211c-0.988,1.572-3.073,2.053-4.66,1.075
			c-1.585-0.978-2.072-3.044-1.084-4.615C82.899,130.212,83.281,129.846,83.702,129.585z"/>
		<path id="path-10_99_" style="opacity:0.35;fill:#020403;enable-background:new    ;" d="M104.178,126.98
			c0,0,1.464,0.146,3.154,0.86c1.715,0.69,3.72,1.89,5.337,3.475c1.66,1.542,2.199,4.193,3.1,5.692
			c0.873,1.524,1.804,2.193,1.804,2.193c0.505,0.363,0.617,1.061,0.251,1.561c-0.366,0.499-1.071,0.611-1.575,0.249
			c-0.097-0.07-0.183-0.157-0.25-0.249c0,0-0.676-0.924-2.215-1.788c-1.513-0.892-4.189-1.425-5.746-3.072
			c-1.599-1.601-2.81-3.587-3.507-5.287c-0.722-1.674-0.868-3.122-0.868-3.122c-0.025-0.257,0.164-0.486,0.423-0.512
			C104.116,126.978,104.149,126.978,104.178,126.98z"/>
		<path id="path-11_87_" style="opacity:0.35;fill:#020403;enable-background:new    ;" d="M132.04,150.36
			c0,0,1.044,1.565,1.837,3.377c0.411,0.893,0.743,1.863,0.952,2.631c0.247,0.73,0.326,1.301,0.326,1.301
			c0.034,0.247-0.14,0.476-0.39,0.509c-0.041,0.006-0.084,0.006-0.124,0c0,0-0.577-0.078-1.313-0.323
			c-0.775-0.208-1.755-0.536-2.656-0.942c-1.829-0.787-3.408-1.822-3.408-1.822c-1.589-1.039-2.025-3.158-0.975-4.731
			c1.049-1.574,3.188-2.005,4.776-0.965C131.46,149.652,131.792,149.994,132.04,150.36z"/>
		<path id="path-12_75_" style="opacity:0.35;fill:#020403;enable-background:new    ;" d="M117.845,109.011
			c0,0,0.506-1.373,1.63-2.815c1.109-1.471,2.785-3.092,4.751-4.226c1.942-1.173,4.697-0.969,6.364-1.494
			c1.691-0.482,2.57-1.224,2.57-1.224c0.482-0.409,1.207-0.35,1.619,0.126c0.411,0.479,0.353,1.196-0.129,1.603
			c-0.105,0.09-0.226,0.157-0.348,0.203c0,0-1.084,0.396-2.336,1.621c-1.278,1.182-2.449,3.662-4.432,4.765
			c-1.96,1.141-4.208,1.797-6.045,2.033c-1.819,0.265-3.276,0.029-3.276,0.029c-0.258-0.04-0.432-0.281-0.391-0.536
			C117.827,109.068,117.836,109.037,117.845,109.011z"/>
		<path id="path-13_63_" style="opacity:0.35;fill:#020403;enable-background:new    ;" d="M147.769,88.296
			c0,0,1.712-0.527,3.565-0.811c0.929-0.141,1.905-0.201,2.663-0.201c0.731-0.049,1.279,0.022,1.279,0.022
			c0.252,0.033,0.429,0.263,0.396,0.512c-0.005,0.039-0.015,0.076-0.029,0.112c0,0-0.206,0.507-0.604,1.116
			c-0.373,0.654-0.903,1.468-1.481,2.201c-1.159,1.461-2.46,2.682-2.46,2.682c-1.357,1.274-3.498,1.215-4.783-0.13
			c-1.284-1.342-1.226-3.463,0.13-4.735C146.831,88.703,147.295,88.443,147.769,88.296z"/>
		<path id="path-14_51_" style="opacity:0.35;fill:#020403;enable-background:new    ;" d="M32.106,87.144
			c0,0,1.452-0.228,3.27,0.042c1.835,0.236,4.082,0.894,6.052,2.024c1.999,1.075,3.198,3.504,4.452,4.727
			c1.234,1.256,2.307,1.672,2.307,1.672c0.58,0.224,0.867,0.872,0.64,1.445c-0.225,0.576-0.88,0.859-1.459,0.636
			c-0.113-0.044-0.217-0.106-0.306-0.178c0,0-0.89-0.724-2.6-1.174c-1.691-0.484-4.417-0.33-6.343-1.53
			c-1.956-1.149-3.636-2.767-4.744-4.237c-1.126-1.437-1.637-2.803-1.637-2.803c-0.091-0.244,0.034-0.511,0.278-0.6
			C32.045,87.157,32.076,87.149,32.106,87.144z"/>
		<path id="path-15_43_" style="opacity:0.35;fill:#020403;enable-background:new    ;" d="M65.033,102.779
			c0,0,1.409,1.251,2.641,2.805c0.624,0.76,1.193,1.619,1.591,2.308c0.426,0.642,0.648,1.176,0.648,1.176
			c0.097,0.23-0.013,0.494-0.247,0.59c-0.038,0.016-0.08,0.028-0.12,0.031c0,0-0.578,0.068-1.352,0.017
			c-0.803-0.006-1.835-0.079-2.811-0.246c-1.97-0.303-3.763-0.907-3.763-0.907c-1.802-0.609-2.765-2.547-2.152-4.333
			c0.614-1.785,2.572-2.741,4.374-2.132C64.291,102.239,64.699,102.484,65.033,102.779z"/>
		<path id="path-16_34_" style="opacity:0.25;fill:#020403;enable-background:new    ;" d="M155.46,186.255l-59.455-65.199v44.239
			l0.052,0.035c1.276,0.057,2.546,0.331,3.717,0.92l44.489,22.363C148.404,190.694,152.912,189.322,155.46,186.255L155.46,186.255z"
			/>
		<path id="path-17_30_" style="opacity:0.25;fill:#020403;enable-background:new    ;" d="M35.972,187.932l60.033-66.876v44.239
			l-0.631,0.035c-1.275,0.057-2.546,0.331-3.717,0.92l-44.488,24.04C43.027,192.371,38.519,190.999,35.972,187.932L35.972,187.932z"
			/>
		<path id="path-18_21_" style="opacity:0.25;fill:#020403;enable-background:new    ;" d="M94.303,87.617V11.902
			c-3.584-0.343-7.336,1.295-9.132,5.034l-21.429,44.63c-0.542,1.129-1.342,2.072-2.265,2.872L94.303,87.617z"/>
		<path id="path-19_18_" style="opacity:0.25;fill:#020403;enable-background:new    ;" d="M81.092,111.821L0.75,79.808
			c-1.388,3.254-0.899,7.271,2.109,10.093l36.224,33.981c2.072,1.944,3.056,4.731,2.753,7.524L81.092,111.821z"/>
		<path id="path-20_14_" style="opacity:0.25;fill:#020403;enable-background:new    ;" d="M108.63,110.391l79.235-32.866
			c1.388,3.255,0.899,7.272-2.109,10.092l-35.116,34.834c-2.072,1.943-3.057,4.731-2.754,7.525L108.63,110.391z"/>
	</g>
</g>
<g>
</g>
<g>
</g>
<g>
</g>
<g>
</g>
<g>
</g>
<g>
</g>
<g>
</g>
<g>
</g>
<g>
</g>
<g>
</g>
<g>
</g>
<g>
</g>
<g>
</g>
<g>
</g>
<g>
</g>
</svg>
