<?xml version="1.0" encoding="iso-8859-1"?>
<!-- Generator: Adobe Illustrator 19.1.0, SVG Export Plug-In . SVG Version: 6.00 Build 0)  -->
<svg version="1.1" id="Capa_1" xmlns="http://www.w3.org/2000/svg" xmlns:xlink="http://www.w3.org/1999/xlink" x="0px" y="0px"
	 viewBox="0 0 217.228 217.228" style="enable-background:new 0 0 217.228 217.228;" xml:space="preserve">
<g>
	<g id="group-14svg">
		<path id="path-1_45_" style="fill:#0CB04A;" d="M80.362,179.137H61.845c-3.57,0-6.464,1.658-6.464,3.702
			c0,2.044,2.894,3.702,6.464,3.702h0.862c3.57,0,6.464,1.656,6.464,3.701c0,2.044-2.894,3.702-6.464,3.702H22.902
			c-3.57,0-6.464,1.656-6.464,3.701c0,2.044,2.894,3.701,6.464,3.701h47.836h97.774c3.571,0,6.465-1.657,6.465-3.701
			c0-2.045-2.894-3.701-6.465-3.701h-11.047c-3.57,0-6.464-1.658-6.464-3.702c0-2.045,2.894-3.701,6.464-3.701h43.389
			c3.57,0,6.464-1.658,6.464-3.702c0-2.044-2.894-3.702-6.464-3.702h-3.239H80.362z"/>
		<path id="path-2_45_" style="fill:#0CB04A;" d="M195.201,202.338c-2.993,0-5.42-1.776-5.42-3.967c0-2.191,2.427-3.967,5.42-3.967
			h16.608c2.993,0,5.419,1.776,5.419,3.967c0,2.191-2.426,3.967-5.419,3.967H195.201z"/>
		<path id="path-3_45_" style="fill:#0CB04A;" d="M8.788,182.936c-3.019,0-5.467-1.792-5.467-4.002c0-2.21,2.448-4.001,5.467-4.001
			h16.753c3.019,0,5.467,1.791,5.467,4.001c0,2.21-2.448,4.002-5.467,4.002H8.788z"/>
		<path id="path-4_45_" style="fill:#142A3B;" d="M122.906,173.418H61.877v-4.156h61.029V173.418z"/>
		<path id="path-5_45_" style="fill:#142A3B;" d="M99.976,190.636H85.132V14.891h14.844V190.636z"/>
		<path id="path-6_44_" style="fill:#142A3B;" d="M171.297,141.95H17.516V27.953h153.781V141.95z"/>
		<path id="path-7_43_" style="fill:#EDEDED;" d="M159.844,131.863H28.969V38.04h130.875V131.863z"/>
		<path id="path-8_32_" style="opacity:0.35;fill:#090908;enable-background:new    ;" d="M159.844,50.048L28.969,43.182V38.04
			h130.875V50.048z"/>
		<path id="path-9_27_" style="fill:#142A3B;" d="M188.813,34.188H0v-9.797h188.813V34.188z"/>
		<path id="path-10_24_" style="fill:#142A3B;" d="M56.7,110.54c-0.709,0-1.427-0.209-2.054-0.642
			c-1.646-1.136-2.058-3.391-0.921-5.035l20.354-29.448l40.016,22.775l16.539-30.974c0.941-1.762,3.125-2.433,4.9-1.488
			c1.762,0.942,2.429,3.135,1.489,4.9l-20.042,37.536L76.265,84.989l-16.582,23.989C58.979,109.995,57.849,110.54,56.7,110.54z"/>
		<path id="path-11_18_" style="fill:#FBB713;" d="M65.843,106.56c0,5.047-4.092,9.14-9.14,9.14s-9.14-4.093-9.14-9.14
			c0-5.048,4.092-9.139,9.14-9.139S65.843,101.511,65.843,106.56z"/>
		<path id="path-12_14_" style="fill:#FF3A2F;" d="M84.97,77.233c0,6.231-5.051,11.282-11.282,11.282
			c-6.23,0-11.281-5.051-11.281-11.282c0-6.23,5.051-11.281,11.281-11.281C79.919,65.951,84.97,71.003,84.97,77.233z"/>
		<path id="path-13_12_" style="fill:#0CB04A;" d="M126.045,103.177c0,5.802-4.704,10.507-10.508,10.507
			c-5.802,0-10.507-4.705-10.507-10.507c0-5.803,4.705-10.508,10.507-10.508C121.341,92.67,126.045,97.375,126.045,103.177z"/>
		<path id="path-14_10_" style="fill:#2476FF;" d="M141.249,66.25c0,4.099-3.323,7.421-7.422,7.421s-7.422-3.322-7.422-7.421
			s3.323-7.422,7.422-7.422S141.249,62.151,141.249,66.25z"/>
		<path id="path-15_9_" style="fill:#142A3B;" d="M139.113,190.597l21.033,0.039l-56.859-56.856l-10.496,10.496L139.113,190.597z"/>
		<path id="path-16_7_" style="fill:#142A3B;" d="M49.699,190.597l-21.032,0.039l56.858-56.856l10.496,10.496L49.699,190.597z"/>
		<path id="path-17_5_" style="opacity:0.35;fill:#090908;enable-background:new    ;" d="M124.386,154.879l-12.928-12.929H77.354
			l-6.464,6.463l29.086,3.032v0.015L124.386,154.879z"/>
	</g>
</g>
<g>
</g>
<g>
</g>
<g>
</g>
<g>
</g>
<g>
</g>
<g>
</g>
<g>
</g>
<g>
</g>
<g>
</g>
<g>
</g>
<g>
</g>
<g>
</g>
<g>
</g>
<g>
</g>
<g>
</g>
</svg>
