<?xml version="1.0" encoding="iso-8859-1"?>
<!-- Generator: Adobe Illustrator 19.1.0, SVG Export Plug-In . SVG Version: 6.00 Build 0)  -->
<svg version="1.1" id="Capa_1" xmlns="http://www.w3.org/2000/svg" xmlns:xlink="http://www.w3.org/1999/xlink" x="0px" y="0px"
	 viewBox="0 0 217.228 217.228" style="enable-background:new 0 0 217.228 217.228;" xml:space="preserve">
<g>
	<g id="group-115svg">
		<path id="path-1_18_" style="fill:#142A3B;" d="M136.96,178.587h17.735c3.419,0,6.191-1.526,6.191-3.407
			c0-1.882-2.772-3.408-6.191-3.408h-0.826c-3.419,0-6.191-1.527-6.191-3.408c0-1.882,2.772-3.408,6.191-3.408h38.124
			c3.419,0,6.191-1.525,6.191-3.408c0-1.882-2.772-3.407-6.191-3.407h-45.815H52.534c-3.419,0-6.191,1.525-6.191,3.407
			c0,1.883,2.772,3.408,6.191,3.408h10.581c3.418,0,6.191,1.526,6.191,3.408c0,1.881-2.773,3.408-6.191,3.408H21.559
			c-3.419,0-6.192,1.526-6.192,3.408c0,1.881,2.773,3.407,6.192,3.407h3.101H136.96z"/>
		<path id="path-2_18_" style="fill:#142A3B;" d="M27.947,157.835c2.408,0,4.361,1.078,4.361,2.41c0,1.331-1.953,2.41-4.361,2.41
			H14.581c-2.408,0-4.361-1.079-4.361-2.41c0-1.332,1.953-2.41,4.361-2.41H27.947z"/>
		<path id="path-3_18_" style="fill:#2476FF;" d="M108.614,137.069c51.164,0,92.641-41.476,92.641-92.638H15.973
			C15.973,95.593,57.45,137.069,108.614,137.069z"/>
		<path id="path-4_18_" style="fill:#2476FF;" d="M108.614,137.069c-12.946,0-25.267-2.663-36.457-7.459l-6.028,19.894
			c-1.91,6.3,2.806,12.655,9.389,12.655h66.943c6.354,0,11.032-5.948,9.535-12.122l-5.147-21.231
			C135.189,134.098,122.252,137.069,108.614,137.069z"/>
		<path id="path-5_18_" style="opacity:0.35;enable-background:new    ;" d="M69.443,138.565c11.9,5.563,25.168,8.687,39.171,8.687
			c14.507,0,28.231-3.342,40.456-9.286l-2.221-9.159c-11.66,5.291-24.597,8.262-38.235,8.262c-12.946,0-25.267-2.663-36.457-7.459
			L69.443,138.565z"/>
		<path id="path-6_18_" style="fill:#2476FF;" d="M209.297,45.718H7.931c-1.954,0-3.539-1.584-3.539-3.538l0,0
			c0-1.955,1.585-3.54,3.539-3.54h201.366c1.954,0,3.538,1.585,3.538,3.54l0,0C212.835,44.134,211.251,45.718,209.297,45.718z"/>
		<path id="path-7_18_" style="fill:#2476FF;" d="M5.176,63.701h21.593c2.859,0,5.177-2.317,5.177-5.175l0,0
			c0-2.859-2.318-5.176-5.177-5.176H5.176C2.317,53.35,0,55.667,0,58.526l0,0C0,61.384,2.317,63.701,5.176,63.701z"/>
		<path id="path-8_14_" style="fill:#2476FF;" d="M190.458,63.701h21.594c2.858,0,5.176-2.317,5.176-5.175l0,0
			c0-2.859-2.318-5.176-5.176-5.176h-21.594c-2.859,0-5.176,2.317-5.176,5.176l0,0C185.282,61.384,187.599,63.701,190.458,63.701z"
			/>
		<path id="path-9_13_" style="fill:#EDEDED;" d="M66.825,68.219c0,2.496-2.022,4.518-4.517,4.518c-2.496,0-4.518-2.022-4.518-4.518
			s2.022-4.518,4.518-4.518C64.803,63.701,66.825,65.723,66.825,68.219z"/>
		<path id="path-10_12_" style="fill:#EDEDED;" d="M41.092,68.219c0,2.496-2.023,4.518-4.518,4.518
			c-2.495,0-4.518-2.022-4.518-4.518s2.023-4.518,4.518-4.518C39.069,63.701,41.092,65.723,41.092,68.219z"/>
		<path id="path-11_10_" style="fill:#EDEDED;" d="M100.28,68.219c0,2.496-2.023,4.518-4.518,4.518
			c-2.495,0-4.518-2.022-4.518-4.518s2.023-4.518,4.518-4.518C98.257,63.701,100.28,65.723,100.28,68.219z"/>
		<path id="path-12_8_" style="fill:#EDEDED;" d="M169.76,68.219c0,2.496-2.022,4.518-4.518,4.518c-2.495,0-4.517-2.022-4.517-4.518
			s2.022-4.518,4.517-4.518C167.738,63.701,169.76,65.723,169.76,68.219z"/>
		<path id="path-13_7_" style="fill:#EDEDED;" d="M123.44,88.805c0,2.495-2.023,4.519-4.518,4.519c-2.495,0-4.518-2.024-4.518-4.519
			c0-2.494,2.023-4.517,4.518-4.517C121.417,84.288,123.44,86.312,123.44,88.805z"/>
		<path id="path-14_5_" style="fill:#EDEDED;" d="M89.986,88.805c0,2.495-2.023,4.519-4.518,4.519c-2.495,0-4.517-2.024-4.517-4.519
			c0-2.494,2.022-4.517,4.517-4.517C87.963,84.288,89.986,86.312,89.986,88.805z"/>
		<path id="path-15_4_" style="fill:#EDEDED;" d="M164.614,88.805c0,2.495-2.023,4.519-4.518,4.519
			c-2.496,0-4.519-2.024-4.519-4.519c0-2.494,2.023-4.517,4.519-4.517C162.591,84.288,164.614,86.312,164.614,88.805z"/>
		<path id="path-16_4_" style="fill:#EDEDED;" d="M144.027,106.819c0,2.494-2.023,4.518-4.518,4.518
			c-2.495,0-4.518-2.024-4.518-4.518c0-2.497,2.023-4.518,4.518-4.518C142.004,102.301,144.027,104.323,144.027,106.819z"/>
		<path id="path-17_3_" style="fill:#EDEDED;" d="M110.573,109.394c0,2.494-2.023,4.517-4.518,4.517
			c-2.495,0-4.518-2.023-4.518-4.517c0-2.497,2.023-4.519,4.518-4.519C108.55,104.874,110.573,106.896,110.573,109.394z"/>
		<path id="path-18_3_" style="fill:#EDEDED;" d="M59.106,88.805c0,2.495-2.023,4.519-4.518,4.519c-2.495,0-4.518-2.024-4.518-4.519
			c0-2.494,2.023-4.517,4.518-4.517C57.083,84.288,59.106,86.312,59.106,88.805z"/>
		<path id="path-19_2_" style="fill:#EDEDED;" d="M141.453,70.793c0,2.495-2.022,4.517-4.517,4.517
			c-2.496,0-4.519-2.022-4.519-4.517c0-2.495,2.023-4.519,4.519-4.519C139.431,66.274,141.453,68.299,141.453,70.793z"/>
		<path id="path-20_2_" style="opacity:0.35;enable-background:new    ;" d="M62.308,63.701c-0.602,0-1.172,0.13-1.697,0.343
			c1.652,0.672,2.82,2.282,2.82,4.175s-1.168,3.503-2.82,4.175c0.525,0.214,1.095,0.343,1.697,0.343
			c2.495,0,4.517-2.022,4.517-4.518S64.803,63.701,62.308,63.701z"/>
		<path id="path-21" style="opacity:0.35;enable-background:new    ;" d="M36.574,63.701c-0.602,0-1.172,0.13-1.697,0.343
			c1.652,0.672,2.82,2.282,2.82,4.175s-1.168,3.503-2.82,4.175c0.525,0.214,1.095,0.343,1.697,0.343
			c2.495,0,4.518-2.022,4.518-4.518S39.069,63.701,36.574,63.701z"/>
		<path id="path-22" style="opacity:0.35;enable-background:new    ;" d="M95.762,63.701c-0.603,0-1.173,0.13-1.697,0.343
			c1.651,0.672,2.82,2.282,2.82,4.175s-1.169,3.503-2.82,4.175c0.524,0.214,1.094,0.343,1.697,0.343
			c2.495,0,4.518-2.022,4.518-4.518S98.257,63.701,95.762,63.701z"/>
		<path id="path-23" style="opacity:0.35;enable-background:new    ;" d="M165.242,63.701c-0.601,0-1.171,0.13-1.697,0.343
			c1.652,0.672,2.822,2.282,2.822,4.175s-1.17,3.503-2.822,4.175c0.526,0.214,1.096,0.343,1.697,0.343
			c2.496,0,4.518-2.022,4.518-4.518S167.738,63.701,165.242,63.701z"/>
		<path id="path-24" style="opacity:0.35;enable-background:new    ;" d="M118.922,84.288c-0.602,0-1.172,0.129-1.697,0.343
			c1.651,0.672,2.821,2.281,2.821,4.174c0,1.894-1.17,3.504-2.821,4.176c0.525,0.214,1.095,0.343,1.697,0.343
			c2.495,0,4.518-2.022,4.518-4.519C123.44,86.312,121.417,84.288,118.922,84.288z"/>
		<path id="path-25" style="opacity:0.35;enable-background:new    ;" d="M85.468,84.288c-0.602,0-1.172,0.129-1.697,0.343
			c1.652,0.672,2.821,2.281,2.821,4.174c0,1.894-1.169,3.504-2.821,4.176c0.525,0.214,1.095,0.343,1.697,0.343
			c2.495,0,4.518-2.022,4.518-4.519C89.986,86.312,87.963,84.288,85.468,84.288z"/>
		<path id="path-26" style="opacity:0.35;enable-background:new    ;" d="M160.096,84.288c-0.602,0-1.172,0.129-1.697,0.343
			c1.651,0.672,2.821,2.281,2.821,4.174c0,1.894-1.17,3.504-2.821,4.176c0.525,0.214,1.095,0.343,1.697,0.343
			c2.495,0,4.518-2.022,4.518-4.519C164.614,86.312,162.591,84.288,160.096,84.288z"/>
		<path id="path-27" style="opacity:0.35;enable-background:new    ;" d="M139.509,102.301c-0.602,0-1.172,0.128-1.697,0.343
			c1.652,0.671,2.821,2.282,2.821,4.175c0,1.893-1.169,3.503-2.821,4.175c0.525,0.213,1.095,0.343,1.697,0.343
			c2.495,0,4.518-2.024,4.518-4.518C144.027,104.323,142.004,102.301,139.509,102.301z"/>
		<path id="path-28" style="opacity:0.35;enable-background:new    ;" d="M106.055,104.874c-0.602,0-1.172,0.129-1.697,0.342
			c1.652,0.672,2.821,2.283,2.821,4.177c0,1.892-1.169,3.502-2.821,4.175c0.525,0.213,1.095,0.342,1.697,0.342
			c2.496,0,4.518-2.023,4.518-4.517C110.573,106.896,108.551,104.874,106.055,104.874z"/>
		<path id="path-29" style="opacity:0.35;enable-background:new    ;" d="M54.588,84.288c-0.602,0-1.172,0.129-1.698,0.343
			c1.652,0.672,2.822,2.281,2.822,4.174c0,1.894-1.17,3.504-2.822,4.176c0.526,0.214,1.096,0.343,1.698,0.343
			c2.495,0,4.518-2.022,4.518-4.519C59.106,86.312,57.083,84.288,54.588,84.288z"/>
		<path id="path-30" style="opacity:0.35;enable-background:new    ;" d="M136.936,66.274c-0.603,0-1.172,0.129-1.698,0.343
			c1.652,0.671,2.821,2.282,2.821,4.176c0,1.892-1.169,3.503-2.821,4.176c0.526,0.213,1.095,0.341,1.698,0.341
			c2.495,0,4.517-2.022,4.517-4.517C141.453,68.298,139.431,66.274,136.936,66.274z"/>
		<path id="path-31" style="opacity:0.35;enable-background:new    ;" d="M200.189,58.526c0.639-4.183,0.974-8.462,1.034-12.808
			H16.005c0.059,4.346-0.342,2.222,0.296,6.404L200.189,58.526z"/>
	</g>
</g>
<g>
</g>
<g>
</g>
<g>
</g>
<g>
</g>
<g>
</g>
<g>
</g>
<g>
</g>
<g>
</g>
<g>
</g>
<g>
</g>
<g>
</g>
<g>
</g>
<g>
</g>
<g>
</g>
<g>
</g>
</svg>
