<?xml version="1.0" encoding="iso-8859-1"?>
<!-- Generator: Adobe Illustrator 19.1.0, SVG Export Plug-In . SVG Version: 6.00 Build 0)  -->
<svg version="1.1" id="Capa_1" xmlns="http://www.w3.org/2000/svg" xmlns:xlink="http://www.w3.org/1999/xlink" x="0px" y="0px"
	 viewBox="0 0 217.229 217.229" style="enable-background:new 0 0 217.229 217.229;" xml:space="preserve">
<g>
	<g id="group-86svg">
		<path id="path-1_145_" style="fill:#FF3A2F;" d="M66.854,174.662H47.489c-3.734,0-6.761,2.203-6.761,4.921
			c0,2.717,3.027,4.92,6.761,4.92h0.901c3.734,0,6.761,2.202,6.761,4.92c0,2.717-3.027,4.92-6.761,4.92H6.76
			c-3.734,0-6.76,2.202-6.76,4.92c0,2.716,3.026,4.92,6.76,4.92h50.029h102.257c3.734,0,6.761-2.204,6.761-4.92
			c0-2.718-3.027-4.92-6.761-4.92h-11.553c-3.734,0-6.761-2.203-6.761-4.92c0-2.718,3.027-4.92,6.761-4.92h45.378
			c3.733,0,6.76-2.203,6.76-4.92c0-2.718-3.027-4.921-6.76-4.921h-3.388H66.854z"/>
		<path id="path-2_145_" style="fill:#FF3A2F;" d="M185.895,204.624c-2.63,0-4.762-1.557-4.762-3.478
			c0-1.923,2.132-3.481,4.762-3.481h14.595c2.63,0,4.762,1.558,4.762,3.481c0,1.921-2.132,3.478-4.762,3.478H185.895z"/>
		<path id="path-3_145_" style="fill:#142A3B;" d="M76.896,145.604c-1.644,0-3.136-1.13-3.521-2.801l-24.29-104.54L10.416,19.482
			c-1.8-0.874-2.55-3.039-1.676-4.839c0.873-1.797,3.041-2.547,4.837-1.674l41.78,20.292l25.068,107.904
			c0.453,1.946-0.757,3.893-2.705,4.344C77.444,145.574,77.168,145.604,76.896,145.604z"/>
		<path id="path-4_145_" style="fill:#142A3B;" d="M107.182,158.947c-1.647,0-3.136-1.13-3.525-2.803
			c-0.449-1.949,0.764-3.893,2.712-4.344l106.422-24.642c1.948-0.442,3.893,0.759,4.345,2.709c0.449,1.949-0.763,3.892-2.712,4.344
			l-106.422,24.643C107.727,158.917,107.454,158.947,107.182,158.947z"/>
		<path id="path-5_144_" style="fill:#2476FF;" d="M111.089,158.551c3.169,13.642-5.339,27.267-19.005,30.432
			c-13.665,3.164-27.312-5.331-30.482-18.973c-3.169-13.643,5.339-27.266,19.004-30.431
			C94.272,136.414,107.919,144.91,111.089,158.551z"/>
		<path id="path-6_141_" style="opacity:0.35;enable-background:new    ;" d="M98.705,185.678
			c-13.665,3.163-27.312-5.331-30.482-18.973c-2.412-10.384,1.952-20.744,10.195-26.502c-12.366,4.043-19.812,16.911-16.816,29.806
			c3.17,13.643,16.817,22.138,30.482,18.974c3.264-0.757,6.223-2.122,8.809-3.93C100.178,185.287,99.453,185.505,98.705,185.678z"/>
		<path id="path-7_137_" style="fill:#FF3A2F;" d="M172.15,113.141l-64.499,14.936L92.692,63.686l64.497-14.936L172.15,113.141z"/>
		<path id="path-8_113_" style="fill:#FBB713;" d="M118.491,57.712l-25.799,5.974l-8.977-38.634l25.8-5.974L118.491,57.712z"/>
		<path id="path-9_98_" style="opacity:0.35;enable-background:new    ;" d="M114.272,121.466l-13.841-59.573l-7.739,1.793
			l14.959,64.391l64.499-14.936l-1.119-4.818L114.272,121.466z"/>
		<path id="path-10_89_" style="opacity:0.2;enable-background:new    ;" d="M99.312,57.076L91.456,23.26l-7.74,1.792l8.976,38.634
			l25.799-5.974l-1.12-4.817L99.312,57.076z"/>
	</g>
</g>
<g>
</g>
<g>
</g>
<g>
</g>
<g>
</g>
<g>
</g>
<g>
</g>
<g>
</g>
<g>
</g>
<g>
</g>
<g>
</g>
<g>
</g>
<g>
</g>
<g>
</g>
<g>
</g>
<g>
</g>
</svg>
