<?xml version="1.0" encoding="iso-8859-1"?>
<!-- Generator: Adobe Illustrator 19.1.0, SVG Export Plug-In . SVG Version: 6.00 Build 0)  -->
<svg version="1.1" id="Capa_1" xmlns="http://www.w3.org/2000/svg" xmlns:xlink="http://www.w3.org/1999/xlink" x="0px" y="0px"
	 viewBox="0 0 218.333 218.333" style="enable-background:new 0 0 218.333 218.333;" xml:space="preserve">
<g>
	<g id="group-40svg">
		<path id="path-1_103_" style="fill:#0CB04A;" d="M62.294,169.428h12.683c2.446,0,4.428,1.653,4.428,3.692
			c0,2.04-1.982,3.693-4.428,3.693h-0.589c-2.446,0-4.428,1.653-4.428,3.692c0,2.04,1.982,3.693,4.428,3.693h27.264
			c2.445,0,4.428,1.654,4.428,3.693s-1.983,3.692-4.428,3.692H68.886H32.874c-2.446,0-4.428-1.653-4.428-3.692
			s1.982-3.693,4.428-3.693h7.566c2.446,0,4.429-1.653,4.429-3.693c0-2.039-1.983-3.692-4.429-3.692H4.428
			C1.983,176.813,0,175.16,0,173.12c0-2.039,1.983-3.692,4.428-3.692h8.511H62.294z"/>
		<path id="path-2_103_" style="fill:#0CB04A;" d="M197.675,124.213h5.985c1.153,0,2.088,1.703,2.088,3.803
			c0,2.1-0.935,3.802-2.088,3.802h-0.28c-1.154,0-2.089,1.703-2.089,3.803c0,2.099,0.935,3.802,2.089,3.802h12.864
			c1.153,0,2.089,1.703,2.089,3.803c0,2.099-0.936,3.801-2.089,3.801h-15.459h-16.99c-1.153,0-2.09-1.702-2.09-3.801
			c0-2.1,0.937-3.803,2.09-3.803h3.571c1.153,0,2.088-1.703,2.088-3.802c0-2.1-0.935-3.803-2.088-3.803h-16.991
			c-1.153,0-2.089-1.702-2.089-3.802c0-2.1,0.936-3.803,2.089-3.803h4.016H197.675z"/>
		<path id="path-3_103_" style="fill:#0CB04A;" d="M49.739,213.401c3.668,0,6.641-1.816,6.641-4.056
			c0-2.241-2.973-4.058-6.641-4.058H29.386c-3.667,0-6.642,1.817-6.642,4.058c0,2.24,2.975,4.056,6.642,4.056H49.739z"/>
		<path id="path-4_102_" style="fill:#142A3B;" d="M136.9,4.932l-30.346,0.016C100.765,4.95,96.06,9.616,96.063,15.349l0.016,30.845
			l4.803-0.003l4.804-0.003l32.123-0.016l4.805-0.002l4.802-0.003l-0.015-30.843C147.398,9.594,142.684,4.929,136.9,4.932z"/>
		<path id="path-5_102_" style="opacity:0.25;fill:#020403;enable-background:new    ;" d="M147.401,15.324
			c-0.004-5.73-4.717-10.395-10.5-10.392l-11.162,0.006c5.756,0.028,10.439,4.675,10.443,10.386l0.016,30.843l-4.804,0.003
			l-4.802,0.002l-30.513,0.016v0.006l4.803-0.003l4.804-0.003l32.123-0.016l4.805-0.002l4.802-0.003L147.401,15.324z"/>
		<path id="path-6_101_" style="fill:#FF3A2F;" d="M158.829,43.227l-74.153,0.038c-10.323,0.005-18.71,8.332-18.704,18.548
			l0.051,98.717c0.005,10.217,8.411,18.53,18.723,18.524l74.149-0.038c10.322-0.004,18.709-8.332,18.705-18.542l-0.052-98.718
			C177.538,51.54,169.146,43.231,158.829,43.227z"/>
		<path id="path-7_101_" style="fill:#FFFFFF;" d="M77.241,104.859c-2.008,0-3.635-1.61-3.639-3.599l-0.051-28.326
			c-0.002-5.909,2.322-11.467,6.543-15.657c4.226-4.191,9.838-6.5,15.796-6.503h0.004c2.008,0,3.639,1.613,3.639,3.603
			c0,1.991-1.627,3.606-3.636,3.607c-4.018,0.002-7.803,1.56-10.653,4.387c-2.85,2.827-4.417,6.575-4.414,10.553l0.049,28.324
			c0.004,1.991-1.623,3.608-3.631,3.611C77.245,104.859,77.245,104.859,77.241,104.859z"/>
		<path id="path-8_98_" style="opacity:0.25;fill:#020403;enable-background:new    ;" d="M177.548,61.756
			c-0.011-10.216-8.402-18.525-18.718-18.529l-22.325,0.011c10.263,0.068,18.593,8.341,18.604,18.518l0.051,98.718
			c0.006,10.21-8.38,18.537-18.704,18.542l-51.824,0.027c0.039,0,0.076,0.011,0.114,0.011l74.149-0.038
			c10.322-0.005,18.709-8.332,18.705-18.542L177.548,61.756z"/>
		<path id="path-9_93_" style="fill:#FBB713;" d="M138.368,91.559c0.806-1.775,2.222-3.812,3.95-5.546
			c1.743-1.704,3.807-3.104,5.599-3.909c1.763-0.839,3.284-1.059,3.284-1.059s-0.219,1.505-1.059,3.257
			c-0.815,1.774-2.222,3.822-3.945,5.553c-1.743,1.71-3.803,3.115-5.598,3.924c-1.768,0.835-3.286,1.049-3.286,1.049
			S137.528,93.305,138.368,91.559z"/>
		<path id="path-10_85_" style="fill:#FBB713;" d="M120.197,72.031c0.651-1.829,1.568-3.047,1.568-3.047s0.918,1.218,1.572,3.045
			c0.698,1.826,1.161,4.263,1.172,6.694c-0.009,2.427-0.464,4.863-1.159,6.69c-0.653,1.828-1.575,3.043-1.575,3.043
			s-0.921-1.214-1.576-3.041c-0.697-1.831-1.156-4.263-1.171-6.689C119.041,76.294,119.501,73.853,120.197,72.031z"/>
		<path id="path-11_75_" style="fill:#FBB713;" d="M95.619,82.126c1.801,0.799,3.858,2.201,5.607,3.908
			c1.721,1.736,3.138,3.777,3.947,5.551c0.845,1.755,1.068,3.255,1.068,3.255s-1.518-0.218-3.281-1.06
			c-1.798-0.799-3.859-2.201-5.608-3.899c-1.726-1.731-3.143-3.767-3.96-5.546c-0.842-1.751-1.059-3.259-1.059-3.259
			S93.855,81.288,95.619,82.126z"/>
		<path id="path-12_64_" style="fill:#FBB713;" d="M83.233,111.801c-1.846-0.656-3.071-1.56-3.071-1.56s1.224-0.909,3.069-1.562
			c1.844-0.691,4.302-1.14,6.757-1.155c2.455,0.013,4.914,0.464,6.754,1.158c1.849,0.645,3.076,1.549,3.076,1.549
			s-1.231,0.909-3.075,1.553c-1.839,0.687-4.298,1.14-6.752,1.165C87.536,112.931,85.076,112.495,83.233,111.801z"/>
		<path id="path-13_52_" style="fill:#FBB713;" d="M105.206,128.872c-0.81,1.776-2.222,3.831-3.945,5.56
			c-1.752,1.709-3.807,3.114-5.604,3.914c-1.762,0.838-3.284,1.058-3.284,1.058s0.215-1.518,1.055-3.269
			c0.806-1.775,2.222-3.819,3.95-5.55c1.742-1.709,3.807-3.115,5.608-3.915c1.763-0.83,3.28-1.054,3.28-1.054
			S106.045,127.13,105.206,128.872z"/>
		<path id="path-14_42_" style="fill:#FBB713;" d="M123.383,148.415c-0.653,1.822-1.575,3.041-1.575,3.041s-0.921-1.218-1.575-3.039
			c-0.699-1.832-1.156-4.259-1.172-6.69c0.014-2.427,0.472-4.863,1.169-6.686c0.652-1.838,1.569-3.056,1.569-3.056
			s0.918,1.208,1.572,3.049c0.697,1.823,1.16,4.248,1.171,6.69C124.533,144.15,124.078,146.583,123.383,148.415z"/>
		<path id="path-15_35_" style="fill:#FBB713;" d="M147.946,138.319c-1.791-0.808-3.857-2.201-5.612-3.908
			c-1.726-1.722-3.144-3.772-3.951-5.541c-0.847-1.761-1.064-3.269-1.064-3.269s1.524,0.213,3.291,1.049
			c1.802,0.799,3.863,2.202,5.607,3.909c1.726,1.731,3.144,3.781,3.943,5.556c0.846,1.755,1.067,3.259,1.067,3.259
			S149.714,139.146,147.946,138.319z"/>
		<path id="path-16_28_" style="fill:#FBB713;" d="M160.345,111.752c-1.849,0.686-4.304,1.14-6.759,1.164
			c-2.454-0.018-4.909-0.46-6.754-1.149c-1.849-0.655-3.074-1.558-3.074-1.558s1.229-0.909,3.073-1.562
			c1.844-0.691,4.303-1.14,6.753-1.156c2.454,0.014,4.908,0.465,6.758,1.158c1.845,0.646,3.071,1.55,3.071,1.55
			S162.189,111.099,160.345,111.752z"/>
		<path id="path-17_25_" style="fill:#FBB713;" d="M135.785,107.524c0,7.683-6.29,13.912-14.045,13.912
			c-7.756,0-14.044-6.229-14.044-13.912s6.288-13.912,14.044-13.912C129.495,93.612,135.785,99.841,135.785,107.524z"/>
	</g>
</g>
<g>
</g>
<g>
</g>
<g>
</g>
<g>
</g>
<g>
</g>
<g>
</g>
<g>
</g>
<g>
</g>
<g>
</g>
<g>
</g>
<g>
</g>
<g>
</g>
<g>
</g>
<g>
</g>
<g>
</g>
</svg>
