<?xml version="1.0" encoding="iso-8859-1"?>
<!-- Generator: Adobe Illustrator 19.1.0, SVG Export Plug-In . SVG Version: 6.00 Build 0)  -->
<svg version="1.1" id="Capa_1" xmlns="http://www.w3.org/2000/svg" xmlns:xlink="http://www.w3.org/1999/xlink" x="0px" y="0px"
	 viewBox="0 0 217.227 217.227" style="enable-background:new 0 0 217.227 217.227;" xml:space="preserve">
<g>
	<g id="group-153svg">
		<path id="path-1_60_" style="fill:#2476FF;" d="M103.873,195.853h-6.112c-1.178,0-2.134,0.721-2.134,1.613
			s0.956,1.613,2.134,1.613h0.285c1.178,0,2.134,0.723,2.134,1.613c0,0.892-0.956,1.614-2.134,1.614h-13.14
			c-1.178,0-2.133,0.722-2.133,1.614c0,0.891,0.955,1.613,2.133,1.613h15.791h32.274c1.179,0,2.134-0.722,2.134-1.613
			c0-0.892-0.955-1.614-2.134-1.614h-3.646c-1.179,0-2.134-0.722-2.134-1.614c0-0.89,0.955-1.613,2.134-1.613h14.321
			c1.179,0,2.135-0.721,2.135-1.613s-0.956-1.613-2.135-1.613h-1.068H103.873z"/>
		<path id="path-2_60_" style="fill:#2476FF;" d="M141.78,205.966c-0.987,0-1.788-0.775-1.788-1.73s0.801-1.729,1.788-1.729h5.482
			c0.989,0,1.79,0.774,1.79,1.729s-0.801,1.73-1.79,1.73H141.78z"/>
		<path id="path-3_60_" style="fill:#2476FF;" d="M27.066,195.735h-7.841c-1.511,0-2.737,1.462-2.737,3.265
			c0,1.803,1.226,3.264,2.737,3.264h0.366c1.511,0,2.737,1.462,2.737,3.264c0,1.803-1.226,3.264-2.737,3.264H2.736
			c-1.512,0-2.736,1.461-2.736,3.265c0,1.801,1.224,3.264,2.736,3.264h20.255h41.4c1.511,0,2.737-1.463,2.737-3.264
			c0-1.804-1.226-3.265-2.737-3.265h-4.678c-1.512,0-2.737-1.461-2.737-3.264c0-1.802,1.225-3.264,2.737-3.264h18.371
			c1.512,0,2.737-1.461,2.737-3.264c0-1.803-1.225-3.265-2.737-3.265h-1.371H27.066z"/>
		<path id="path-4_60_" style="fill:#2476FF;" d="M75.691,216.195c-1.268,0-2.295-1.567-2.295-3.499
			c0-1.931,1.027-3.497,2.295-3.497h7.032c1.267,0,2.295,1.566,2.295,3.497c0,1.932-1.028,3.499-2.295,3.499H75.691z"/>
		<path id="path-5_59_" style="fill:#2476FF;" d="M160.298,85.037l-68.169,67.714c-3.077,3.056-11.775-0.609-19.421-8.2
			c-7.642-7.594-11.336-16.234-8.255-19.29l68.215-67.659l0,0"/>
		<path id="path-6_57_" style="fill:#142A3B;" d="M31.987,188.667c-0.931,0-1.865-0.356-2.572-1.073
			c-1.407-1.421-1.396-3.712,0.025-5.119l29.485-29.198c1.42-1.406,3.714-1.399,5.12,0.024c1.407,1.422,1.396,3.712-0.025,5.121
			l-29.485,29.197C33.83,188.32,32.908,188.667,31.987,188.667z"/>
		<path id="path-7_56_" style="opacity:0.35;enable-background:new    ;" d="M152.4,77.195l-64.219,63.79
			c-3.077,3.056-11.776-0.609-19.421-8.199c-2.018-2.005-3.738-4.079-5.153-6.109c-1.233,3.812,2.426,11.24,9.101,17.874
			c7.646,7.591,16.344,11.256,19.421,8.2l68.169-67.714L152.4,77.195z"/>
		<path id="path-8_42_" style="fill:#2476FF;" d="M67.599,138.427l-11.921,11.509l11.316,11.58l12.091-11.672l0,0"/>
		<path id="path-9_36_" style="fill:#142A3B;" d="M174.125,102.39c-0.923,0-1.846-0.35-2.551-1.051l-55.276-54.904
			c-1.42-1.408-1.427-3.701-0.018-5.119c1.411-1.417,3.706-1.424,5.12-0.018l55.275,54.903c1.421,1.409,1.427,3.703,0.018,5.12
			C175.986,102.034,175.054,102.39,174.125,102.39z"/>
		<path id="path-10_33_" style="fill:#142A3B;" d="M140.656,69.15c-0.935,0-1.868-0.358-2.577-1.078
			c-1.404-1.424-1.388-3.716,0.035-5.12l50.063-49.383c1.425-1.408,3.716-1.39,5.12,0.035c1.403,1.423,1.387,3.714-0.036,5.119
			l-50.062,49.383C142.493,68.803,141.574,69.15,140.656,69.15z"/>
		<path id="path-11_26_" style="fill:#142A3B;" d="M213.607,39.646c-0.922,0-1.846-0.35-2.551-1.052L179.47,7.22
			c-1.419-1.408-1.426-3.701-0.017-5.119c1.41-1.418,3.705-1.425,5.12-0.018l31.584,31.374c1.42,1.408,1.428,3.701,0.018,5.119
			C215.468,39.289,214.537,39.646,213.607,39.646z"/>
		<path id="path-12_22_" style="fill:#142A3B;" d="M126.746,94.547c-0.923,0-1.846-0.35-2.551-1.052L112.35,81.731
			c-1.419-1.41-1.426-3.703-0.017-5.121c1.41-1.417,3.705-1.423,5.119-0.017l11.844,11.764c1.42,1.41,1.427,3.703,0.018,5.121
			C128.607,94.19,127.675,94.547,126.746,94.547z"/>
		<path id="path-13_17_" style="fill:#142A3B;" d="M110.953,110.234c-0.922,0-1.845-0.351-2.55-1.053L96.557,97.418
			c-1.42-1.409-1.427-3.702-0.018-5.121c1.411-1.417,3.705-1.424,5.12-0.017l11.845,11.765c1.42,1.408,1.427,3.702,0.018,5.118
			C112.815,109.876,111.883,110.234,110.953,110.234z"/>
		<path id="path-14_14_" style="fill:#142A3B;" d="M95.16,125.921c-0.923,0-1.845-0.35-2.551-1.051l-11.844-11.766
			c-1.42-1.409-1.427-3.701-0.018-5.12c1.409-1.417,3.704-1.424,5.119-0.018l11.845,11.766c1.42,1.409,1.427,3.701,0.018,5.12
			C97.022,125.563,96.09,125.921,95.16,125.921z"/>
		<path id="path-15_13_" style="fill:#142A3B;" d="M152.147,80.562c-0.935,0-1.868-0.358-2.577-1.079
			c-1.404-1.423-1.389-3.713,0.035-5.118l50.059-49.388c1.423-1.405,3.715-1.392,5.119,0.035c1.404,1.422,1.39,3.714-0.035,5.12
			l-50.059,49.387C153.984,80.215,153.067,80.562,152.147,80.562z"/>
	</g>
</g>
<g>
</g>
<g>
</g>
<g>
</g>
<g>
</g>
<g>
</g>
<g>
</g>
<g>
</g>
<g>
</g>
<g>
</g>
<g>
</g>
<g>
</g>
<g>
</g>
<g>
</g>
<g>
</g>
<g>
</g>
</svg>
