<?xml version="1.0" encoding="iso-8859-1"?>
<!-- Generator: Adobe Illustrator 19.1.0, SVG Export Plug-In . SVG Version: 6.00 Build 0)  -->
<svg version="1.1" id="Capa_1" xmlns="http://www.w3.org/2000/svg" xmlns:xlink="http://www.w3.org/1999/xlink" x="0px" y="0px"
	 viewBox="0 0 217.228 217.228" style="enable-background:new 0 0 217.228 217.228;" xml:space="preserve">
<g>
	<g id="group-64svg">
		<path id="path-1_121_" style="fill:#142A3B;" d="M71.564,152.49H51.858c-3.799,0-6.88,2.331-6.88,5.207s3.081,5.207,6.88,5.207
			h0.917c3.8,0,6.88,2.331,6.88,5.206c0,2.877-3.08,5.207-6.88,5.207H10.412c-3.8,0-6.879,2.332-6.879,5.208
			c0,2.875,3.079,5.206,6.879,5.206h50.91h104.059c3.799,0,6.879-2.331,6.879-5.206c0-2.876-3.08-5.208-6.879-5.208h-11.758
			c-3.799,0-6.879-2.33-6.879-5.207c0-2.875,3.08-5.206,6.879-5.206H199.8c3.8,0,6.88-2.331,6.88-5.207s-3.08-5.207-6.88-5.207
			h-3.446H71.564z"/>
		<path id="path-2_121_" style="fill:#142A3B;" d="M193.785,185.125c-3.186,0-5.769-2.497-5.769-5.579
			c0-3.083,2.583-5.581,5.769-5.581h17.675c3.185,0,5.768,2.498,5.768,5.581c0,3.082-2.583,5.579-5.768,5.579H193.785z"/>
		<path id="path-3_121_" style="fill:#142A3B;" d="M77.115,129.93c-2.889,0-5.232-1.594-5.232-3.563
			c0-1.967,2.343-3.561,5.232-3.561h16.032c2.89,0,5.232,1.594,5.232,3.561c0,1.969-2.342,3.563-5.232,3.563H77.115z"/>
		<path id="path-4_121_" style="fill:#142A3B;" d="M42.518,136.35h5.62c1.084,0,1.962-0.964,1.962-2.153
			c0-1.188-0.878-2.151-1.962-2.151h-0.262c-1.083,0-1.961-0.964-1.961-2.152c0-1.188,0.878-2.151,1.961-2.151h12.083
			c1.083,0,1.962-0.964,1.962-2.153c0-1.188-0.879-2.151-1.962-2.151h-14.52H15.761c-1.084,0-1.962,0.963-1.962,2.151
			c0,1.189,0.878,2.153,1.962,2.153h3.353c1.084,0,1.962,0.963,1.962,2.151c0,1.188-0.878,2.152-1.962,2.152H3.155
			c-1.083,0-1.962,0.963-1.962,2.151c0,1.189,0.879,2.153,1.962,2.153h3.772H42.518z"/>
		<path id="path-5_120_" style="fill:#FF3A2F;" d="M189.041,157.844l-6.141,2.162l-39.206-111.35l6.141-2.162L189.041,157.844z"/>
		<path id="path-6_117_" style="fill:#FF3A2F;" d="M13.488,157.844l6.141,2.162l39.206-111.35l-6.141-2.162L13.488,157.844z"/>
		<path id="path-7_114_" style="fill:#FF3A2F;" d="M199.046,50.439H0V32.104h199.046V50.439z"/>
		<path id="path-8_91_" style="opacity:0.35;enable-background:new    ;" d="M199.046,50.439H0v-9.443h199.046V50.439z"/>
	</g>
</g>
<g>
</g>
<g>
</g>
<g>
</g>
<g>
</g>
<g>
</g>
<g>
</g>
<g>
</g>
<g>
</g>
<g>
</g>
<g>
</g>
<g>
</g>
<g>
</g>
<g>
</g>
<g>
</g>
<g>
</g>
</svg>
