<?xml version="1.0" encoding="iso-8859-1"?>
<!-- Generator: Adobe Illustrator 19.1.0, SVG Export Plug-In . SVG Version: 6.00 Build 0)  -->
<svg version="1.1" id="Capa_1" xmlns="http://www.w3.org/2000/svg" xmlns:xlink="http://www.w3.org/1999/xlink" x="0px" y="0px"
	 viewBox="0 0 217.229 217.229" style="enable-background:new 0 0 217.229 217.229;" xml:space="preserve">
<g>
	<g id="group-41svg">
		<path id="path-1_96_" style="fill:#2476FF;" d="M70.756,182.566H50.26c-3.952,0-7.155,2.335-7.155,5.216
			c0,2.88,3.203,5.215,7.155,5.215h0.954c3.952,0,7.156,2.335,7.156,5.216c0,2.88-3.204,5.216-7.156,5.216H7.155
			c-3.952,0-7.155,2.335-7.155,5.215s3.203,5.216,7.155,5.216h52.948h108.223c3.953,0,7.156-2.336,7.156-5.216
			s-3.203-5.215-7.156-5.215h-12.227c-3.952,0-7.155-2.336-7.155-5.216c0-2.881,3.203-5.216,7.155-5.216h48.026
			c3.951,0,7.154-2.335,7.154-5.215c0-2.881-3.203-5.216-7.154-5.216h-3.585H70.756z"/>
		<path id="path-2_96_" style="fill:#2476FF;" d="M196.742,214.329c-2.783,0-5.04-1.652-5.04-3.689c0-2.039,2.257-3.689,5.04-3.689
			h15.446c2.784,0,5.041,1.65,5.041,3.689c0,2.037-2.257,3.689-5.041,3.689H196.742z"/>
		<path id="path-3_96_" style="fill:#FF3A2F;" d="M43.621,2.9L4.933,41.586v37.873l115.523,115.519l77.179-77.176L82.729,2.9H43.621
			z"/>
		<path id="path-4_96_" style="opacity:0.35;fill:#060606;enable-background:new    ;" d="M82.729,13.378l109.667,109.664
			l5.239-5.24L82.729,2.9H43.621L4.933,41.587v10.478l38.688-38.687H82.729z"/>
		<path id="path-5_95_" style="fill:#EDEDED;" d="M67.666,35.378c8.184,8.184,8.184,21.452,0,29.635
			c-8.184,8.184-21.453,8.184-29.637,0c-8.184-8.183-8.184-21.451,0-29.635S59.482,27.194,67.666,35.378z"/>
		<path id="path-6_92_" style="opacity:0.35;fill:#060606;enable-background:new    ;" d="M45.014,42.363
			c6.976-6.976,17.62-7.949,25.686-3.035c-0.851-1.398-1.825-2.741-3.034-3.95c-8.184-8.184-21.453-8.184-29.637,0
			s-8.184,21.452,0,29.636c1.209,1.209,2.553,2.183,3.951,3.034C37.066,59.982,38.039,49.336,45.014,42.363z"/>
	</g>
</g>
<g>
</g>
<g>
</g>
<g>
</g>
<g>
</g>
<g>
</g>
<g>
</g>
<g>
</g>
<g>
</g>
<g>
</g>
<g>
</g>
<g>
</g>
<g>
</g>
<g>
</g>
<g>
</g>
<g>
</g>
</svg>
