<?xml version="1.0" encoding="iso-8859-1"?>
<!-- Generator: Adobe Illustrator 19.1.0, SVG Export Plug-In . SVG Version: 6.00 Build 0)  -->
<svg version="1.1" id="Capa_1" xmlns="http://www.w3.org/2000/svg" xmlns:xlink="http://www.w3.org/1999/xlink" x="0px" y="0px"
	 viewBox="0 0 216.29 216.29" style="enable-background:new 0 0 216.29 216.29;" xml:space="preserve">
<g>
	<g id="group-15svg">
		<path id="path-1_56_" style="fill:#2476FF;" d="M84.85,185.87h15.554c3,0,5.432,1.526,5.432,3.409
			c0,1.882-2.432,3.408-5.432,3.408H99.68c-2.998,0-5.43,1.526-5.43,3.408s2.432,3.409,5.43,3.409h33.439
			c2.999,0,5.431,1.526,5.431,3.408c0,1.883-2.432,3.408-5.431,3.408H92.934H48.768c-2.999,0-5.431-1.525-5.431-3.408
			c0-1.882,2.432-3.408,5.431-3.408h9.28c2.999,0,5.431-1.527,5.431-3.409s-2.432-3.408-5.431-3.408H13.881
			c-2.999,0-5.431-1.526-5.431-3.408c0-1.883,2.432-3.409,5.431-3.409H24.32H84.85z"/>
		<path id="path-2_56_" style="fill:#2476FF;" d="M208.077,216.29c4.498,0,8.145-2.289,8.145-5.112c0-2.824-3.647-5.113-8.145-5.113
			h-24.962c-4.498,0-8.145,2.289-8.145,5.113c0,2.823,3.647,5.112,8.145,5.112H208.077z"/>
		<path id="path-3_56_" style="fill:#2476FF;" d="M154.708,177.386c0-6.496,11.871-21.182,11.871-21.182
			s11.871,14.686,11.871,21.182c0,6.494-5.315,11.759-11.871,11.759S154.708,183.88,154.708,177.386z"/>
		<path id="path-4_56_" style="fill:#142A3B;" d="M154.334,75.09v-0.435h-36.701v0.161c-2.272-4.213-5.357-7.929-9.036-10.959
			c-1.25,0.776-2.717,1.245-4.301,1.245H63.399c-1.006,0-1.959-0.205-2.847-0.536c-3.431,3-6.31,6.604-8.435,10.666H0.068v33.658
			h52.049c6.159,11.775,18.549,19.836,32.859,19.836c14.541,0,27.089-8.327,33.14-20.413h25.96v28.847h33.347v-34.892
			C177.423,88.637,167.443,77.341,154.334,75.09z"/>
		<path id="path-5_56_" style="fill:#FF3A2F;" d="M110.769,65.102H57.888c-1.179,0-2.135-0.956-2.135-2.135v-11.83
			c0-1.18,0.956-2.136,2.135-2.136h52.881c1.179,0,2.134,0.956,2.134,2.136v11.83C112.903,64.146,111.948,65.102,110.769,65.102z"/>
		<path id="path-6_55_" style="fill:#FBB713;" d="M103.085,49.214H65.571v-8.05h37.514V49.214z"/>
		<path id="path-7_55_" style="fill:#142A3B;" d="M93.844,41.164h-19.03v-20.2h19.03V41.164z"/>
		<path id="path-8_55_" style="fill:#142A3B;" d="M135.068,0c-7.16,0-22.151,3.432-35.442,6.892
			c2.397,1.969,3.835,4.406,3.835,7.054c0,2.649-1.438,5.086-3.835,7.056c13.291,3.458,28.282,6.891,35.442,6.891
			c14.433,0,26.133-6.244,26.133-13.947S149.501,0,135.068,0z"/>
		<path id="path-9_52_" style="fill:#142A3B;" d="M33.164,0c7.16,0,22.151,3.432,35.443,6.892c-2.397,1.969-3.835,4.406-3.835,7.054
			c0,2.649,1.438,5.086,3.835,7.056c-13.292,3.458-28.283,6.891-35.443,6.891c-14.433,0-26.134-6.244-26.134-13.947
			S18.731,0,33.164,0z"/>
		<path id="path-10_47_" style="fill:#142A3B;" d="M103.461,13.946c0,6.513-8.584,11.794-19.173,11.794s-19.172-5.281-19.172-11.794
			S73.699,2.153,84.288,2.153S103.461,7.433,103.461,13.946z"/>
	</g>
</g>
<g>
</g>
<g>
</g>
<g>
</g>
<g>
</g>
<g>
</g>
<g>
</g>
<g>
</g>
<g>
</g>
<g>
</g>
<g>
</g>
<g>
</g>
<g>
</g>
<g>
</g>
<g>
</g>
<g>
</g>
</svg>
