<?xml version="1.0" encoding="iso-8859-1"?>
<!-- Generator: Adobe Illustrator 19.1.0, SVG Export Plug-In . SVG Version: 6.00 Build 0)  -->
<svg version="1.1" id="Capa_1" xmlns="http://www.w3.org/2000/svg" xmlns:xlink="http://www.w3.org/1999/xlink" x="0px" y="0px"
	 viewBox="0 0 216.292 216.292" style="enable-background:new 0 0 216.292 216.292;" xml:space="preserve">
<g>
	<g id="group-122svg">
		<path id="path-1_26_" style="fill:#FF3A2F;" d="M75.492,200.066H90.71c2.934,0,5.312,1.058,5.312,2.364
			c0,1.305-2.378,2.363-5.312,2.363h-0.709c-2.935,0-5.313,1.058-5.313,2.363c0,1.305,2.378,2.364,5.313,2.364h32.716
			c2.934,0,5.313,1.059,5.313,2.363c0,1.306-2.379,2.364-5.313,2.364H83.401H40.188c-2.934,0-5.313-1.058-5.313-2.364
			c0-1.304,2.379-2.363,5.313-2.363h9.08c2.934,0,5.314-1.059,5.314-2.364c0-1.305-2.38-2.363-5.314-2.363H6.056
			c-2.935,0-5.314-1.058-5.314-2.363c0-1.306,2.379-2.364,5.314-2.364h10.213H75.492z"/>
		<path id="path-2_26_" style="fill:#FF3A2F;" d="M169.687,216.292c3.35,0,6.066-1.208,6.066-2.699s-2.716-2.698-6.066-2.698h-18.59
			c-3.351,0-6.067,1.207-6.067,2.698s2.716,2.699,6.067,2.699H169.687z"/>
		<path id="path-3_26_" style="fill:#FF3A2F;" d="M184.079,182.311h6.988c1.347,0,2.44,0.602,2.44,1.341
			c0,0.741-1.093,1.342-2.44,1.342h-0.325c-1.347,0-2.44,0.599-2.44,1.34c0,0.74,1.093,1.342,2.44,1.342h15.023
			c1.346,0,2.439,0.599,2.439,1.34c0,0.74-1.093,1.34-2.439,1.34h-18.054H150.81c-1.347,0-2.439-0.6-2.439-1.34
			c0-0.741,1.092-1.34,2.439-1.34h4.17c1.347,0,2.439-0.602,2.439-1.342c0-0.741-1.092-1.34-2.439-1.34h-19.843
			c-1.348,0-2.44-0.601-2.44-1.342c0-0.739,1.092-1.341,2.44-1.341h4.689H184.079z"/>
		<path id="path-4_26_" style="fill:#FF3A2F;" d="M131.079,191.807c2.514,0,4.552-0.497,4.552-1.109
			c0-0.614-2.038-1.111-4.552-1.111h-13.948c-2.513,0-4.551,0.497-4.551,1.111c0,0.612,2.038,1.109,4.551,1.109H131.079z"/>
		<path id="path-5_26_" style="fill:#142A3B;" d="M177.958,191.286c-1.38,0-2.7-0.783-3.311-2.107l-9.471-20.553
			c-0.835-1.81-0.028-3.949,1.8-4.775c1.819-0.827,3.985-0.029,4.821,1.782l9.471,20.551c0.834,1.81,0.028,3.949-1.801,4.776
			C178.978,191.182,178.465,191.286,177.958,191.286z"/>
		<path id="path-6_26_" style="fill:#142A3B;" d="M63.268,191.286c-0.506,0-1.019-0.104-1.508-0.326
			c-1.829-0.827-2.635-2.966-1.8-4.776l9.468-20.551c0.834-1.811,2.996-2.61,4.821-1.782c1.828,0.826,2.635,2.965,1.8,4.775
			l-9.469,20.553C65.968,190.503,64.648,191.286,63.268,191.286z"/>
		<path id="path-7_26_" style="fill:#FF3A2F;" d="M215.551,91.087c0,50.306-41.165,91.088-91.946,91.088
			s-91.947-40.782-91.947-91.088C31.658,40.782,72.823,0,123.604,0S215.551,40.782,215.551,91.087z"/>
		<path id="path-8_26_" style="fill:#EDEDED;" d="M192.754,91.087c0,37.835-30.959,68.504-69.149,68.504
			c-38.191,0-69.15-30.669-69.15-68.504c0-37.834,30.959-68.503,69.15-68.503C161.795,22.584,192.754,53.253,192.754,91.087z"/>
		<path id="path-9_24_" style="fill:#FF3A2F;" d="M166.928,91.087c0,23.703-19.396,42.919-43.323,42.919S80.28,114.79,80.28,91.087
			S99.677,48.17,123.604,48.17S166.928,67.384,166.928,91.087z"/>
		<path id="path-10_22_" style="fill:#EDEDED;" d="M142.736,91.087c0,10.468-8.566,18.953-19.131,18.953
			c-10.566,0-19.132-8.485-19.132-18.953c0-10.466,8.566-18.952,19.132-18.952C134.17,72.135,142.736,80.621,142.736,91.087z"/>
		<path id="path-11_19_" style="opacity:0.35;fill:#020403;enable-background:new    ;" d="M151.534,4.293
			c19.846,16.708,32.453,41.6,32.453,69.422c0,50.307-41.167,91.088-91.948,91.088c-9.739,0-19.119-1.513-27.928-4.292
			c16.038,13.501,36.798,21.664,59.494,21.664c50.781,0,91.946-40.782,91.946-91.088C215.551,50.43,188.656,16.006,151.534,4.293z"
			/>
	</g>
</g>
<g>
</g>
<g>
</g>
<g>
</g>
<g>
</g>
<g>
</g>
<g>
</g>
<g>
</g>
<g>
</g>
<g>
</g>
<g>
</g>
<g>
</g>
<g>
</g>
<g>
</g>
<g>
</g>
<g>
</g>
</svg>
