<?xml version="1.0" encoding="iso-8859-1"?>
<!-- Generator: Adobe Illustrator 19.1.0, SVG Export Plug-In . SVG Version: 6.00 Build 0)  -->
<svg version="1.1" id="Capa_1" xmlns="http://www.w3.org/2000/svg" xmlns:xlink="http://www.w3.org/1999/xlink" x="0px" y="0px"
	 viewBox="0 0 216.15 216.15" style="enable-background:new 0 0 216.15 216.15;" xml:space="preserve">
<g>
	<g id="group-2svg">
		<path id="path-1_80_" style="fill:#FBB713;" d="M140.317,215.888c4.445,0,8.049-2.262,8.049-5.052s-3.604-5.052-8.049-5.052
			h-24.663c-4.445,0-8.048,2.262-8.048,5.052s3.603,5.052,8.048,5.052H140.317z"/>
		<path id="path-2_80_" style="fill:#FBB713;" d="M179.936,210.836c0,2.646-2.165,4.791-4.836,4.791
			c-2.671,0-4.836-2.145-4.836-4.791s2.165-4.79,4.836-4.79C177.771,206.046,179.936,208.19,179.936,210.836z"/>
		<path id="path-3_80_" style="fill:#FBB713;" d="M54.024,195.942h10.138c1.955,0,3.539,1.508,3.539,3.369
			c0,1.86-1.584,3.367-3.539,3.367H63.69c-1.955,0-3.539,1.508-3.539,3.368s1.584,3.368,3.539,3.368h21.793
			c1.954,0,3.539,1.507,3.539,3.367s-1.585,3.369-3.539,3.369h-26.19H30.508c-1.955,0-3.539-1.509-3.539-3.369
			s1.584-3.367,3.539-3.367h6.048c1.955,0,3.54-1.508,3.54-3.368s-1.585-3.368-3.54-3.368H7.772c-1.955,0-3.539-1.507-3.539-3.367
			c0-1.861,1.584-3.369,3.539-3.369h6.803H54.024z"/>
		<path id="path-4_80_" style="fill:#FF3A2F;" d="M36.927,0v158.273c0,14.186,13.899,28.721,23.775,28.721h87.899
			c9.876,0,19.319-14.535,19.319-28.721V0H36.927z"/>
		<path id="path-5_80_" style="opacity:0.25;enable-background:new    ;" d="M150.143,0.002v150.54
			c0,14.186-11.259,28.29-21.134,28.29l-82.253,0.324c3.263,3.452,8.97,7.817,13.461,7.817h88.384
			c9.876,0,20.346-14.793,20.346-28.979V0.002H150.143z"/>
		<path id="path-6_79_" style="fill:#142A3B;" d="M128.922,60.998h-7.999V0h7.999V60.998z"/>
		<path id="path-7_79_" style="opacity:0.35;enable-background:new    ;" d="M139.922,78.997h-8V0h8V78.997z"/>
		<path id="path-8_76_" style="fill:#FBB713;" d="M146.921,107.996h-43.997V60.998h43.997V107.996z"/>
		<path id="path-9_73_" style="opacity:0.35;enable-background:new    ;" d="M147.304,71.285v36.616h-33.847v11.816h45.13V71.285
			H147.304z"/>
		<path id="path-10_67_" style="fill:#FF3A2F;" d="M167.92,139.995h12.15h20.995c7.952,0,10.852-6.373,10.852-14.252V36.128
			c0-7.878-2.9-14.129-10.852-14.129H180.07h-12.15v17h11.821h2.382c7.952,0,12.795,10.3,12.795,18.178v47.519
			c0,7.877-4.843,14.3-12.795,14.3h-2.382H167.92V139.995z"/>
		<path id="path-11_58_" style="opacity:0.35;enable-background:new    ;" d="M178.424,118.796l-9.477-0.113v21.566h9.806h7.217
			l0.737-22.345c-1.586,0.675-4.052,0.892-5.902,0.892H178.424z"/>
		<path id="path-12_49_" style="opacity:0.35;enable-background:new    ;" d="M168.947,21.64v17.971h7.119h2.382
			c1.849,0,3.675,0,5.163,0.12V21.64h-7.216H168.947z"/>
		<path id="path-13_40_" style="fill:#FFFFFF;" d="M55.871,151.908c-2.01,0-3.639-1.615-3.639-3.606V32.227
			c0-1.99,1.629-3.604,3.639-3.604c2.009,0,3.638,1.614,3.638,3.604v116.075C59.509,150.293,57.88,151.908,55.871,151.908z"/>
	</g>
</g>
<g>
</g>
<g>
</g>
<g>
</g>
<g>
</g>
<g>
</g>
<g>
</g>
<g>
</g>
<g>
</g>
<g>
</g>
<g>
</g>
<g>
</g>
<g>
</g>
<g>
</g>
<g>
</g>
<g>
</g>
</svg>
