<?xml version="1.0" encoding="iso-8859-1"?>
<!-- Generator: Adobe Illustrator 19.1.0, SVG Export Plug-In . SVG Version: 6.00 Build 0)  -->
<svg version="1.1" id="Capa_1" xmlns="http://www.w3.org/2000/svg" xmlns:xlink="http://www.w3.org/1999/xlink" x="0px" y="0px"
	 viewBox="0 0 220.849 220.849" style="enable-background:new 0 0 220.849 220.849;" xml:space="preserve">
<g>
	<g id="group-100svg">
		<path id="path-1_2_" style="fill:#FF3A2F;" d="M64.848,179.372H46.689c-3.502,0-6.34,2.144-6.34,4.79
			c0,2.643,2.838,4.787,6.34,4.787h0.845c3.501,0,6.34,2.144,6.34,4.789c0,2.645-2.839,4.789-6.34,4.789H8.495
			c-3.501,0-6.34,2.144-6.34,4.788c0,2.646,2.839,4.789,6.34,4.789H55.41h95.891c3.502,0,6.34-2.143,6.34-4.789
			c0-2.644-2.838-4.788-6.34-4.788h-10.834c-3.501,0-6.34-2.144-6.34-4.789c0-2.645,2.839-4.789,6.34-4.789h42.553
			c3.501,0,6.34-2.144,6.34-4.787c0-2.646-2.839-4.79-6.34-4.79h-3.176H64.848z"/>
		<path id="path-2_2_" style="fill:#FF3A2F;" d="M177.476,209.387c-2.935,0-5.315-2.298-5.315-5.132s2.38-5.132,5.315-5.132h16.288
			c2.936,0,5.315,2.298,5.315,5.132s-2.379,5.132-5.315,5.132H177.476z"/>
		<path id="path-3_2_" style="fill:#FF3A2F;" d="M38.082,164.529h5.179c0.998,0,1.808-0.886,1.808-1.98
			c0-1.093-0.81-1.979-1.808-1.979H43.02c-0.999,0-1.808-0.885-1.808-1.978s0.809-1.978,1.808-1.978h11.133
			c0.999,0,1.809-0.887,1.809-1.979c0-1.093-0.81-1.979-1.809-1.979h-13.38H13.424c-0.997,0-1.807,0.886-1.807,1.979
			c0,1.092,0.81,1.979,1.807,1.979h3.091c0.998,0,1.808,0.885,1.808,1.978s-0.81,1.978-1.808,1.978H1.808
			C0.81,160.57,0,161.456,0,162.549c0,1.094,0.81,1.98,1.808,1.98h3.476H38.082z"/>
		<path id="path-4_2_" style="fill:#0CB04A;" d="M220.849,153.635h-44.192v-48.333h44.192V153.635z"/>
		<path id="path-5_2_" style="opacity:0.35;enable-background:new    ;" d="M214.392,105.301v41.889h-37.735v6.444h44.192v-48.333
			H214.392z"/>
		<path id="path-6_2_" style="fill:#FBB713;" d="M119.165,67.517h-40.42L54.886,91.328v99.359h89.308V92.494L119.165,67.517z"/>
		<path id="path-7_2_" style="opacity:0.25;enable-background:new    ;" d="M119.165,67.517h-40.42l-6.457,6.444h33.963
			l25.028,24.978v91.749h12.915V92.494L119.165,67.517z"/>
		<path id="path-8_2_" style="fill:#142A3B;" d="M196.733,112.146c-2.001,0-3.62-1.621-3.62-3.62v-55.18
			c0-19.102-15.575-34.643-34.72-34.643h-36.724c-10.689,0-19.386,8.675-19.386,19.338v29.475c0,2-1.62,3.621-3.621,3.621
			s-3.62-1.621-3.62-3.621V38.04c0-14.654,11.943-26.578,26.627-26.578h36.724c23.137,0,41.961,18.789,41.961,41.883v55.18
			C200.354,110.524,198.735,112.146,196.733,112.146z"/>
	</g>
</g>
<g>
</g>
<g>
</g>
<g>
</g>
<g>
</g>
<g>
</g>
<g>
</g>
<g>
</g>
<g>
</g>
<g>
</g>
<g>
</g>
<g>
</g>
<g>
</g>
<g>
</g>
<g>
</g>
<g>
</g>
</svg>
