<?xml version="1.0" encoding="iso-8859-1"?>
<!-- Generator: Adobe Illustrator 19.1.0, SVG Export Plug-In . SVG Version: 6.00 Build 0)  -->
<svg version="1.1" id="Capa_1" xmlns="http://www.w3.org/2000/svg" xmlns:xlink="http://www.w3.org/1999/xlink" x="0px" y="0px"
	 viewBox="0 0 227.487 227.487" style="enable-background:new 0 0 227.487 227.487;" xml:space="preserve">
<g>
	<g id="group-138svg">
		<path id="path-1_43_" style="fill:#2476FF;" d="M74.286,194.31H54.254c-3.862,0-6.993,2.37-6.993,5.293s3.131,5.294,6.993,5.294
			h0.932c3.863,0,6.994,2.37,6.994,5.292c0,2.925-3.131,5.293-6.994,5.293H12.123c-3.862,0-6.994,2.369-6.994,5.294
			c0,2.922,3.132,5.293,6.994,5.293h51.751h105.78c3.862,0,6.993-2.371,6.993-5.293c0-2.925-3.131-5.294-6.993-5.294h-11.952
			c-3.862,0-6.993-2.368-6.993-5.293c0-2.922,3.131-5.292,6.993-5.292h46.94c3.863,0,6.994-2.371,6.994-5.294
			s-3.131-5.293-6.994-5.293h-3.503H74.286z"/>
		<path id="path-2_43_" style="fill:#2476FF;" d="M198.526,227.487c-3.237,0-5.862-2.54-5.862-5.674
			c0-3.132,2.625-5.672,5.862-5.672h17.969c3.238,0,5.863,2.54,5.863,5.672c0,3.134-2.625,5.674-5.863,5.674H198.526z"/>
		<path id="path-3_43_" style="fill:#FBB713;" d="M137.283,0c-10.539,0-20.355,5.184-26.325,13.858
			c22.071,4.586,38.445,20.69,38.445,39.857c0,2.789-0.355,5.513-1.015,8.148c12.477-4.619,20.841-16.552,20.841-29.916
			C169.229,14.327,154.898,0,137.283,0z"/>
		<path id="path-4_43_" style="fill:#FBB713;" d="M46.949,53.715c0-19.551,17.029-35.93,39.772-40.132
			C80.725,5.081,71.027,0,60.614,0C42.998,0,28.666,14.327,28.666,31.947c0,12.745,7.636,24.132,19.157,29.174
			C47.276,58.715,46.949,56.247,46.949,53.715z"/>
		<path id="path-5_43_" style="opacity:0.2;enable-background:new    ;" d="M137.283,0c-0.631,0-1.248,0.078-1.872,0.115
			c16.558,1.169,29.682,14.976,29.682,31.832c0,11.673-6.382,22.249-16.311,27.817c-0.129,0.701-0.222,1.411-0.394,2.099
			c12.477-4.619,20.841-16.552,20.841-29.916C169.229,14.327,154.898,0,137.283,0z"/>
		<path id="path-6_42_" style="opacity:0.2;enable-background:new    ;" d="M32.802,31.947c0-16.859,13.128-30.667,29.692-31.833
			C61.867,0.077,61.247,0,60.614,0C42.998,0,28.666,14.327,28.666,31.947c0,12.745,7.636,24.132,19.157,29.174
			c-0.187-0.823-0.309-1.663-0.44-2.502C38.473,52.84,32.802,42.907,32.802,31.947z"/>
		<path id="path-7_41_" style="fill:#FBB713;" d="M179.655,104.719c-1.854-6.779-6.016-12.296-11.71-15.544
			c-6.241-3.549-13.882-4.256-22.06-2.004c-2.139,0.574-4.253,1.413-6.346,2.367c8.329,14.2,13.315,31.797,13.315,48.636
			c0,0.028-0.004,0.054-0.004,0.08c2.287-0.247,4.544-0.601,6.708-1.191c8.056-2.216,14.209-6.604,17.788-12.694
			C180.731,118.605,181.552,111.622,179.655,104.719z"/>
		<path id="path-8_30_" style="opacity:0.2;enable-background:new    ;" d="M179.655,104.719c-1.501-5.487-4.57-10.075-8.683-13.374
			c2.043,2.666,3.603,5.781,4.548,9.239c1.897,6.902,1.076,13.885-2.309,19.649c-3.58,6.09-9.733,10.478-17.788,12.694
			c-0.896,0.244-1.815,0.428-2.738,0.6c0.083,1.552,0.169,3.105,0.169,4.647c0,0.028-0.004,0.054-0.004,0.08
			c2.287-0.247,4.544-0.601,6.708-1.191c8.056-2.216,14.209-6.604,17.788-12.694C180.731,118.605,181.552,111.622,179.655,104.719z"
			/>
		<path id="path-9_26_" style="fill:#FBB713;" d="M56.877,89.21c-1.87-0.815-3.755-1.528-5.652-2.039
			c-8.182-2.252-15.823-1.554-22.077,2.004c-5.694,3.248-9.857,8.765-11.706,15.535c-1.902,6.912-1.082,13.895,2.304,19.659
			c3.58,6.09,9.733,10.478,17.792,12.694c1.501,0.409,3.788,0.755,5.84,1.014C43.397,121.133,48.445,103.437,56.877,89.21z"/>
		<path id="path-10_23_" style="opacity:0.35;enable-background:new    ;" d="M51.541,87.272
			c-7.685,13.834-12.281,30.574-12.299,46.669c-2.051-0.259-4.339-0.604-5.839-1.014c-4.585-1.261-8.527-3.246-11.755-5.827
			c3.685,4.671,9.1,8.096,15.89,9.963c1.501,0.409,3.788,0.755,5.84,1.014c0.019-16.944,5.067-34.64,13.499-48.867
			C55.111,88.44,53.331,87.774,51.541,87.272z"/>
		<path id="path-11_17_" style="fill:#FBB713;" d="M134.897,82.383c-9.315,7.719-22.323,12.538-36.721,12.538
			c-14.436,0-27.471-4.845-36.79-12.6c-11.157,15.129-18.013,36.032-18.013,55.853c0,4.587,0.443,9.014,1.164,13.284
			c3.339-4.194,7.491-6.888,12.175-7.712c14.905-2.675,28.831,14.582,31.655,30.577c1.492,8.463-0.132,16.077-4.137,21.814
			c4.45,1.073,9.098,1.64,13.884,1.64c4.937,0,9.729-0.604,14.311-1.75c-0.05-0.073-0.12-0.127-0.17-0.201
			c-3.972-5.843-5.305-13.284-3.849-21.503c2.817-15.995,16.755-33.245,31.657-30.577c4.701,0.829,8.636,3.393,11.735,7.034
			c0.65-4.037,1.056-8.236,1.056-12.606C152.854,118.386,146.016,97.507,134.897,82.383z"/>
		<path id="path-12_13_" style="fill:#FF3A2F;" d="M135.261,143.594c-3.411-21.904-18.161-43.553-37.147-43.553
			c-19.54,0-33.816,21.74-37.162,43.518c13.224,0.857,24.861,16.299,27.415,30.764c1.492,8.463-0.132,16.077-4.137,21.814
			c4.45,1.073,9.098,1.64,13.884,1.64c4.937,0,9.729-0.604,14.311-1.75c-0.05-0.073-0.12-0.127-0.17-0.201
			c-3.972-5.843-5.305-13.284-3.849-21.503C110.917,160.064,122.27,144.85,135.261,143.594z"/>
		<path id="path-13_11_" style="opacity:0.35;enable-background:new    ;" d="M98.114,104.176c17.824,0,31.913,19.082,36.392,39.542
			c0.253-0.035,0.501-0.099,0.755-0.124c-3.411-21.904-18.161-43.553-37.147-43.553c-19.54,0-33.816,21.74-37.162,43.518
			c0.251,0.016,0.496,0.073,0.746,0.1C66.085,123.31,79.783,104.176,98.114,104.176z"/>
		<path id="path-14_9_" style="opacity:0.35;enable-background:new    ;" d="M107.923,182.796
			c-0.289,4.978,0.515,9.584,2.375,13.626c0.704-0.149,1.433-0.221,2.127-0.395c-0.05-0.073-0.12-0.127-0.17-0.201
			C109.703,192.071,108.256,187.652,107.923,182.796z"/>
		<path id="path-15_8_" style="opacity:0.35;enable-background:new    ;" d="M88.818,182.432c-0.333,5.196-1.915,9.875-4.588,13.705
			c0.691,0.167,1.418,0.239,2.119,0.38C88.261,192.407,89.146,187.628,88.818,182.432z"/>
		<path id="path-16_6_" style="opacity:0.35;enable-background:new    ;" d="M52.577,135.475c-3.351,0.59-6.416,2.172-9.119,4.542
			c0.102,3.924,0.456,7.754,1.079,11.441c3.339-4.194,7.491-6.888,12.175-7.712c9.896-1.777,19.339,5.249,25.409,14.842
			C77.027,145.18,65.165,133.216,52.577,135.475z"/>
		<path id="path-17_4_" style="opacity:0.35;enable-background:new    ;" d="M140.267,90.853c5.343,12.154,8.452,25.827,8.452,39.05
			c0,4.37-0.406,8.57-1.056,12.607c-3.099-3.641-7.034-6.206-11.735-7.035c-14.902-2.667-28.84,14.582-31.657,30.576
			c-1.456,8.22-0.123,15.663,3.849,21.505c0.05,0.072,0.119,0.128,0.17,0.2c-4.583,1.147-9.374,1.75-14.311,1.75
			c-2.151,0-4.263-0.152-6.354-0.375c-0.792,2.552-1.93,4.908-3.395,7.006c4.45,1.073,9.098,1.64,13.884,1.64
			c4.937,0,9.729-0.604,14.311-1.75c-0.05-0.073-0.12-0.127-0.17-0.201c-3.972-5.843-5.305-13.284-3.849-21.503
			c2.817-15.995,16.755-33.245,31.657-30.577c4.701,0.829,8.636,3.393,11.735,7.034c0.65-4.037,1.056-8.236,1.056-12.606
			C152.854,121.843,148.143,104.821,140.267,90.853z"/>
		<path id="path-18_4_" style="opacity:0.25;enable-background:new    ;" d="M37.133,53.46c2.959,3.207,6.56,5.855,10.69,7.661
			c-0.547-2.406-0.874-4.874-0.874-7.406c0-19.551,17.029-35.93,39.772-40.132c-1.85-2.623-4.084-4.875-6.552-6.797
			C55.361,12.957,37.275,31.531,37.133,53.46z"/>
		<path id="path-19_3_" style="fill:#FBB713;" d="M62.861,206.763L62.861,206.763c-12.942,0-22.931-9.206-25.437-23.453
			c-1.439-8.14-0.424-17.081,2.771-24.524c3.637-8.464,9.504-13.805,16.517-15.04c14.905-2.675,28.831,14.582,31.655,30.577
			c2.856,16.207-5.627,29.368-20.621,32.008C66.101,206.623,64.467,206.763,62.861,206.763z"/>
		<path id="path-20_3_" style="fill:#FBB713;" d="M133.914,206.763L133.914,206.763c-1.606,0-3.24-0.14-4.886-0.432
			c-7.057-1.245-13.012-4.969-16.773-10.505c-3.972-5.843-5.305-13.284-3.849-21.503c2.817-15.995,16.755-33.245,31.657-30.577
			c15.011,2.647,22.215,22.977,19.288,39.564C156.844,197.557,146.855,206.763,133.914,206.763z"/>
		<path id="path-21_1_" style="opacity:0.35;enable-background:new    ;" d="M88.367,174.323
			c-2.824-15.995-16.75-33.252-31.655-30.577c-0.344,0.06-0.672,0.176-1.01,0.256c11.939,2.785,22.037,16.97,24.394,30.321
			c2.857,16.207-5.627,29.368-20.62,32.008c-0.242,0.043-0.474,0.027-0.714,0.063c1.333,0.213,2.69,0.369,4.099,0.369
			c1.606,0,3.24-0.14,4.885-0.432C82.74,203.691,91.223,190.53,88.367,174.323z"/>
		<path id="path-22_1_" style="opacity:0.35;enable-background:new    ;" d="M140.063,143.746c-2.464-0.442-4.895-0.294-7.26,0.258
			c14.307,3.377,21.136,23.104,18.277,39.306c-2.234,12.696-10.426,21.342-21.337,23.084c1.402,0.212,2.8,0.369,4.171,0.369
			c12.941,0,22.93-9.206,25.437-23.453C162.278,166.723,155.074,146.393,140.063,143.746z"/>
		<path id="path-23_1_" style="fill:#FBB713;" d="M98.176,94.921c-28.249,0-51.227-18.483-51.227-41.206
			c0-22.722,22.978-41.207,51.227-41.207c28.248,0,51.226,18.485,51.226,41.207C149.402,76.438,126.424,94.921,98.176,94.921z"/>
		<path id="path-24_1_" style="opacity:0.2;enable-background:new    ;" d="M120.859,16.823
			c12.292,7.535,20.272,19.395,20.272,32.757c0,22.721-22.978,41.206-51.226,41.206c-8.152,0-15.835-1.579-22.683-4.315
			c8.61,5.277,19.317,8.45,30.954,8.45c28.248,0,51.226-18.485,51.226-41.206C149.402,37.549,137.744,23.57,120.859,16.823z"/>
		<path id="path-25_1_" style="fill:#0CB04A;" d="M80.662,59.082c-7.478,0-13.56-6.083-13.56-13.559
			c0-7.478,6.082-13.56,13.56-13.56c7.476,0,13.558,6.082,13.558,13.56C94.22,52.999,88.138,59.082,80.662,59.082z"/>
		<circle id="circle-1_3_" style="fill:#142A3B;" cx="98.132" cy="67.002" r="7"/>
		<path id="path-26_1_" style="opacity:0.35;enable-background:new    ;" d="M102.311,60.508c-0.729,0-1.419,0.15-2.068,0.386
			c2.325,0.852,3.999,3.065,3.999,5.681c0,2.614-1.674,4.828-3.999,5.678c0.649,0.237,1.339,0.386,2.068,0.386
			c3.345,0,6.066-2.72,6.066-6.064C108.377,63.229,105.656,60.508,102.311,60.508z"/>
		<path id="path-27_1_" style="fill:#0CB04A;" d="M116.82,59.082c-7.478,0-13.56-6.083-13.56-13.559
			c0-7.478,6.082-13.56,13.56-13.56c7.476,0,13.559,6.082,13.559,13.56C130.379,52.999,124.296,59.082,116.82,59.082z"/>
		<path id="path-28_1_" style="opacity:0.35;enable-background:new    ;" d="M80.662,31.963c-0.709,0-1.389,0.104-2.068,0.211
			c6.491,1.003,11.492,6.58,11.492,13.349s-5.001,12.345-11.492,13.349c0.679,0.106,1.359,0.21,2.068,0.21
			c7.476,0,13.559-6.083,13.559-13.559C94.221,38.045,88.138,31.963,80.662,31.963z"/>
		<path id="path-29_1_" style="opacity:0.35;enable-background:new    ;" d="M116.82,31.963c-0.708,0-1.389,0.104-2.068,0.211
			c6.492,1.003,11.491,6.58,11.491,13.349s-4.999,12.345-11.491,13.349c0.679,0.106,1.36,0.21,2.068,0.21
			c7.476,0,13.559-6.083,13.559-13.559C130.379,38.045,124.296,31.963,116.82,31.963z"/>
	</g>
</g>
<g>
</g>
<g>
</g>
<g>
</g>
<g>
</g>
<g>
</g>
<g>
</g>
<g>
</g>
<g>
</g>
<g>
</g>
<g>
</g>
<g>
</g>
<g>
</g>
<g>
</g>
<g>
</g>
<g>
</g>
</svg>
