<?xml version="1.0" encoding="iso-8859-1"?>
<!-- Generator: Adobe Illustrator 19.1.0, SVG Export Plug-In . SVG Version: 6.00 Build 0)  -->
<svg version="1.1" id="Capa_1" xmlns="http://www.w3.org/2000/svg" xmlns:xlink="http://www.w3.org/1999/xlink" x="0px" y="0px"
	 viewBox="0 0 217.229 217.229" style="enable-background:new 0 0 217.229 217.229;" xml:space="preserve">
<g>
	<g id="group-126svg">
		<path id="path-1_30_" style="fill:#FF3A2F;" d="M52.134,146.942H37.033c-2.912,0-5.272,1.786-5.272,3.99
			c0,2.204,2.36,3.99,5.272,3.99h0.703c2.912,0,5.272,1.787,5.272,3.991c0,2.204-2.36,3.989-5.272,3.989H5.272
			c-2.911,0-5.272,1.786-5.272,3.99s2.361,3.99,5.272,3.99h39.013h79.742c2.911,0,5.272-1.786,5.272-3.99s-2.361-3.99-5.272-3.99
			h-9.01c-2.912,0-5.272-1.785-5.272-3.989c0-2.204,2.36-3.991,5.272-3.991h35.386c2.912,0,5.272-1.786,5.272-3.99
			c0-2.204-2.36-3.99-5.272-3.99h-2.64H52.134z"/>
		<path id="path-2_30_" style="fill:#FF3A2F;" d="M145.793,171.951c-2.441,0-4.42-1.914-4.42-4.276c0-2.361,1.979-4.277,4.42-4.277
			h13.545c2.441,0,4.42,1.916,4.42,4.277c0,2.362-1.979,4.276-4.42,4.276H145.793z"/>
		<path id="path-3_30_" style="fill:#0CB04A;" d="M127.767,45.278c-43.025,0-89.462,13.233-89.462,34.601v8.97
			c0,7.135,5.575,7.69,7.281,7.69h21.845l15.366-22.202c3.191-4.964,8.281-7.734,14.291-7.734h58.145
			c6.539,0,12.949,3.138,15.954,7.804l16.347,22.132h19.083c4.909,0,10.612-3.359,10.612-7.69v-8.97
			C217.229,58.511,170.791,45.278,127.767,45.278z"/>
		<path id="path-4_30_" style="opacity:0.35;enable-background:new    ;" d="M157.693,66.603h-2.46
			c6.539,0,12.949,3.138,15.954,7.804l16.347,22.132h2.461l-16.348-22.132C170.643,69.741,164.232,66.603,157.693,66.603z"/>
		<path id="path-5_30_" style="opacity:0.35;enable-background:new    ;" d="M171.53,49.81
			c20.848,5.952,35.856,15.465,35.856,27.609v8.97c0,4.331-5.702,7.689-10.612,7.689h-11.057l1.817,2.461h19.083
			c4.909,0,10.612-3.359,10.612-7.69v-8.97C217.229,65.895,197.336,55.396,171.53,49.81z"/>
		<path id="path-6_30_" style="opacity:0.35;enable-background:new    ;" d="M161.465,67.548c-2.92-1.544-12.582-3.406-16.074-3.406
			H87.246c-6.01,0-11.1,2.771-14.291,7.735L57.589,94.078H39.883c1.781,2.207,4.579,2.461,5.703,2.461h21.845l15.366-22.202
			c3.191-4.964,8.281-7.734,14.291-7.734l0,0"/>
		<path id="path-7_29_" style="fill:#0CB04A;" d="M183.883,148.618H68.428c-5.943,0-9.934-4.12-9.934-10.251v-28.194
			c0-0.473,0.147-0.938,0.429-1.341l23.874-34.495c3.191-4.964,8.281-7.734,14.291-7.734h58.145c6.539,0,12.949,3.138,15.954,7.804
			l25.38,34.361c0.309,0.417,0.473,0.904,0.473,1.405v28.194C197.04,144.234,190.095,148.618,183.883,148.618z"/>
		<path id="path-8_21_" style="fill:#087330;" d="M197.04,110.173v28.194c0,5.867-6.945,10.251-13.157,10.251H68.428
			c-5.943,0-9.934-4.12-9.934-10.251v-28.194H197.04z"/>
		<path id="path-9_19_" style="fill:#EDEDED;" d="M127.767,103.971c-16.145,0-28.795-7.227-28.795-16.455
			c0-9.227,12.65-16.453,28.795-16.453s28.795,7.226,28.795,16.453C156.562,96.744,143.912,103.971,127.767,103.971z"/>
		<path id="path-10_17_" style="fill:#087330;" d="M127.767,99.973c-12.221,0-21.797-5.47-21.797-12.457
			c0-6.984,9.576-12.455,21.797-12.455c12.222,0,21.798,5.471,21.798,12.455C149.565,94.503,139.989,99.973,127.767,99.973z"/>
	</g>
</g>
<g>
</g>
<g>
</g>
<g>
</g>
<g>
</g>
<g>
</g>
<g>
</g>
<g>
</g>
<g>
</g>
<g>
</g>
<g>
</g>
<g>
</g>
<g>
</g>
<g>
</g>
<g>
</g>
<g>
</g>
</svg>
