<?xml version="1.0" encoding="iso-8859-1"?>
<!-- Generator: Adobe Illustrator 19.1.0, SVG Export Plug-In . SVG Version: 6.00 Build 0)  -->
<svg version="1.1" id="Capa_1" xmlns="http://www.w3.org/2000/svg" xmlns:xlink="http://www.w3.org/1999/xlink" x="0px" y="0px"
	 viewBox="0 0 218.332 218.332" style="enable-background:new 0 0 218.332 218.332;" xml:space="preserve">
<g>
	<g id="group-163svg">
		<path id="path-1_71_" style="fill:#FBB713;" d="M71.729,44.967c2.887,0,5.228-0.997,5.228-2.226s-2.341-2.226-5.228-2.226H55.708
			c-2.889,0-5.23,0.997-5.23,2.226s2.341,2.226,5.23,2.226H71.729z"/>
		<path id="path-2_71_" style="fill:#FBB713;" d="M34.966,14.033h2.522c0.486,0,0.88,0.509,0.88,1.139s-0.394,1.139-0.88,1.139
			h-0.117c-0.487,0-0.881,0.512-0.881,1.14c0,0.629,0.394,1.14,0.881,1.14h5.418c0.487,0,0.88,0.511,0.88,1.138
			c0,0.631-0.393,1.141-0.88,1.141h-6.512H22.966c-0.486,0-0.88-0.51-0.88-1.141c0-0.627,0.394-1.138,0.88-1.138h1.504
			c0.485,0,0.88-0.511,0.88-1.14c0-0.628-0.395-1.14-0.88-1.14h-7.158c-0.486,0-0.88-0.509-0.88-1.139s0.394-1.139,0.88-1.139h1.692
			H34.966z"/>
		<path id="path-3_71_" style="fill:#FBB713;" d="M185.61,198.51h2.791c0.538,0,0.975,0.565,0.975,1.262
			c0,0.697-0.437,1.262-0.975,1.262h-0.13c-0.538,0-0.974,0.564-0.974,1.26c0,0.697,0.436,1.261,0.974,1.261h6
			c0.538,0,0.974,0.566,0.974,1.262c0,0.697-0.436,1.263-0.974,1.263h-7.21h-14.737c-0.538,0-0.975-0.566-0.975-1.263
			c0-0.696,0.437-1.262,0.975-1.262h1.665c0.538,0,0.974-0.564,0.974-1.261c0-0.696-0.436-1.26-0.974-1.26h-7.925
			c-0.539,0-0.974-0.565-0.974-1.262c0-0.697,0.435-1.262,0.974-1.262h1.873H185.61z"/>
		<path id="path-4_71_" style="fill:#FBB713;" d="M7.948,23.476c1.041,0,1.885-0.615,1.885-1.374c0-0.76-0.844-1.377-1.885-1.377
			H2.17c-1.041,0-1.885,0.617-1.885,1.377c0,0.759,0.844,1.374,1.885,1.374H7.948z"/>
		<path id="path-5_71_" style="fill:#FBB713;" d="M17.146,110.855H12.18c-0.958,0-1.734,1.216-1.734,2.715
			c0,1.497,0.776,2.712,1.734,2.712h0.231c0.957,0,1.733,1.217,1.733,2.716c0,1.498-0.776,2.713-1.733,2.713H1.734
			c-0.958,0-1.734,1.215-1.734,2.715c0,1.498,0.776,2.713,1.734,2.713h12.831h26.227c0.957,0,1.734-1.215,1.734-2.713
			c0-1.5-0.777-2.715-1.734-2.715h-2.963c-0.958,0-1.734-1.215-1.734-2.713c0-1.499,0.776-2.716,1.734-2.716h14.102
			c0.959,0,1.735-1.215,1.735-2.712c0-1.499-0.776-2.715-1.735-2.715h-3.332H17.146z"/>
		<path id="path-6_70_" style="fill:#FBB713;" d="M51.983,127.285c-1.185,0-2.145-0.847-2.145-1.892c0-1.045,0.96-1.891,2.145-1.891
			h6.575c1.185,0,2.145,0.846,2.145,1.891c0,1.045-0.96,1.892-2.145,1.892H51.983z"/>
		<path id="path-7_70_" style="fill:#FBB713;" d="M184.681,68.121h9.747c1.88,0,3.403,1.43,3.403,3.193
			c0,1.762-1.523,3.192-3.403,3.192h-0.454c-1.88,0-3.403,1.429-3.403,3.193c0,1.763,1.523,3.192,3.403,3.192h20.955
			c1.88,0,3.403,1.43,3.403,3.192c0,1.764-1.523,3.192-3.403,3.192h-25.182h-51.473c-1.879,0-3.402-1.428-3.402-3.192
			c0-1.762,1.523-3.192,3.402-3.192h5.816c1.88,0,3.403-1.429,3.403-3.192c0-1.764-1.523-3.193-3.403-3.193h-27.677
			c-1.88,0-3.404-1.43-3.404-3.192c0-1.763,1.524-3.193,3.404-3.193h6.541H184.681z"/>
		<path id="path-8_67_" style="fill:#FF3A2F;" d="M149.061,55.957l-7.239-29.843l-0.5-5.598c-3.122-6.593-9.85-8.263-17.119-8.263
			c-7.268,0-13.792,1.735-17.125,8.263l-0.969,5.356l-7.241,30.324L149.061,55.957z"/>
		<path id="path-9_64_" style="opacity:0.35;fill:#020403;enable-background:new    ;" d="M141.822,26.113l-0.5-5.597
			c-2.084-4.4-5.788-6.578-10.172-7.56l0.253,2.838l3.441,14.179c1.941,8-4.156,15.701-12.461,15.741l-22.001,4.144l-1.514,6.338
			l50.194-0.239L141.822,26.113z"/>
		<path id="path-10_59_" style="fill:#142A3B;" d="M124.49,97.494c22.18,0,40.085,9.462,50.226,31.474l-13.704-56.889l-0.161-2.918
			c-6.709-15.239-21.153-19.091-36.763-19.091c-15.611,0-29.617,4.015-36.765,19.091v2.918l-15.578,63.008
			C79.155,113.246,99.946,97.494,124.49,97.494z"/>
		<path id="path-11_51_" style="opacity:0.35;fill:#020403;enable-background:new    ;" d="M161.012,72.079l-0.161-2.918
			c-2.794-6.347-6.944-10.699-11.948-13.639l7.5,31.133c0.903,3.753-3.164,6.837-6.523,4.885
			c-18.561-10.795-55.281-1.219-70.311,11.897l-7.824,31.65c7.41-21.841,28.201-37.593,52.745-37.593
			c22.18,0,40.085,9.462,50.226,31.474L161.012,72.079z"/>
		<path id="path-12_42_" style="fill:#2476FF;" d="M180.168,149.73c0,30.463-24.928,55.157-55.678,55.157
			c-30.749,0-55.678-24.694-55.678-55.157c0-30.462,24.929-55.156,55.678-55.156C155.24,94.575,180.168,119.269,180.168,149.73z"/>
		<path id="path-13_35_" style="fill:#EDEDED;" d="M160.26,149.73c0,19.572-16.015,35.436-35.77,35.436s-35.77-15.864-35.77-35.436
			c0-19.57,16.015-35.435,35.77-35.435S160.26,130.161,160.26,149.73z"/>
		<path id="path-14_29_" style="opacity:0.25;fill:#020403;enable-background:new    ;" d="M91.667,155.569
			c0-19.57,16.014-35.435,35.769-35.435c12.841,0,24.067,6.726,30.377,16.79c-5.187-13.231-18.133-22.628-33.323-22.628
			c-19.755,0-35.77,15.865-35.77,35.435c0,6.851,1.995,13.225,5.394,18.646C92.555,164.401,91.667,160.092,91.667,155.569z"/>
	</g>
</g>
<g>
</g>
<g>
</g>
<g>
</g>
<g>
</g>
<g>
</g>
<g>
</g>
<g>
</g>
<g>
</g>
<g>
</g>
<g>
</g>
<g>
</g>
<g>
</g>
<g>
</g>
<g>
</g>
<g>
</g>
</svg>
