<?xml version="1.0" encoding="iso-8859-1"?>
<!-- Generator: Adobe Illustrator 19.1.0, SVG Export Plug-In . SVG Version: 6.00 Build 0)  -->
<svg version="1.1" id="Capa_1" xmlns="http://www.w3.org/2000/svg" xmlns:xlink="http://www.w3.org/1999/xlink" x="0px" y="0px"
	 viewBox="0 0 226.489 226.489" style="enable-background:new 0 0 226.489 226.489;" xml:space="preserve">
<g>
	<g id="group-128svg">
		<path id="path-1_32_" style="fill:#142A3B;" d="M72.472,192.208h-20.7c-3.991,0-7.226,2.449-7.226,5.469
			c0,3.021,3.235,5.47,7.226,5.47h0.963c3.991,0,7.227,2.449,7.227,5.469c0,3.021-3.236,5.47-7.227,5.47H8.236
			c-3.991,0-7.226,2.448-7.226,5.469s3.235,5.471,7.226,5.471h53.477h109.305c3.991,0,7.226-2.45,7.226-5.471
			s-3.235-5.469-7.226-5.469h-12.35c-3.991,0-7.227-2.449-7.227-5.47c0-3.02,3.236-5.469,7.227-5.469h48.505
			c3.991,0,7.226-2.449,7.226-5.47c0-3.02-3.235-5.469-7.226-5.469h-3.62H72.472z"/>
		<path id="path-2_32_" style="fill:#142A3B;" d="M200.854,226.489c-3.346,0-6.059-2.624-6.059-5.861
			c0-3.238,2.713-5.861,6.059-5.861h18.567c3.345,0,6.058,2.623,6.058,5.861c0,3.237-2.713,5.861-6.058,5.861H200.854z"/>
		<path id="path-3_32_" style="fill:#EDEDED;" d="M41.847,28.733c-38.31,38.31-38.31,100.43,0,138.74
			c38.311,38.308,100.434,38.308,138.745,0c38.31-38.31,38.31-100.43,0-138.74C142.281-9.578,80.158-9.578,41.847,28.733
			L41.847,28.733z"/>
		<path id="path-4_32_" style="fill:#FBB713;" d="M41.847,28.733c-21.893,21.893-31.219,51.565-28.092,80.119
			c28.555,3.126,58.228-6.199,80.122-28.092c21.893-21.892,31.219-51.565,28.092-80.119C93.414-2.487,63.741,6.84,41.847,28.733
			L41.847,28.733z"/>
		<path id="path-5_32_" style="opacity:0.35;enable-background:new    ;" d="M121.969,0.64c-4.893-0.536-9.816-0.677-14.729-0.482
			c2.297,0.091,4.593,0.233,6.88,0.482c3.128,28.554-6.199,58.227-28.092,80.119c-18.142,18.142-41.629,27.626-65.393,28.574
			c26.38,1.041,53.102-8.435,73.242-28.574C115.769,58.868,125.096,29.194,121.969,0.64z"/>
		<path id="path-6_32_" style="fill:#FBB713;" d="M128.562,115.445c-21.892,21.893-31.219,51.565-28.091,80.118
			c28.554,3.128,58.227-6.197,80.121-28.09c21.893-21.893,31.219-51.565,28.092-80.118
			C180.129,84.227,150.456,93.553,128.562,115.445L128.562,115.445z"/>
		<path id="path-7_31_" style="opacity:0.35;enable-background:new    ;" d="M108.318,195.562
			c-3.127-28.553,6.199-58.225,28.093-80.118c18.143-18.141,41.629-27.626,65.393-28.573c-26.38-1.041-53.102,8.435-73.242,28.573
			c-21.893,21.893-31.219,51.565-28.092,80.118c4.892,0.537,9.816,0.678,14.728,0.482
			C112.901,195.954,110.606,195.814,108.318,195.562z"/>
		<path id="path-8_23_" style="opacity:0.2;enable-background:new    ;" d="M180.592,28.733
			c-8.676-8.676-18.58-15.365-29.145-20.112c3.302,2.55,6.495,5.312,9.524,8.339c38.31,38.31,38.31,100.43,0,138.74
			c-29.636,29.634-73.512,36.324-109.601,20.111c38.476,29.704,93.94,26.942,129.222-8.338
			C218.902,129.163,218.902,67.043,180.592,28.733z"/>
	</g>
</g>
<g>
</g>
<g>
</g>
<g>
</g>
<g>
</g>
<g>
</g>
<g>
</g>
<g>
</g>
<g>
</g>
<g>
</g>
<g>
</g>
<g>
</g>
<g>
</g>
<g>
</g>
<g>
</g>
<g>
</g>
</svg>
