<?xml version="1.0" encoding="iso-8859-1"?>
<!-- Generator: Adobe Illustrator 19.1.0, SVG Export Plug-In . SVG Version: 6.00 Build 0)  -->
<svg version="1.1" id="Capa_1" xmlns="http://www.w3.org/2000/svg" xmlns:xlink="http://www.w3.org/1999/xlink" x="0px" y="0px"
	 viewBox="0 0 218.332 218.332" style="enable-background:new 0 0 218.332 218.332;" xml:space="preserve">
<g>
	<g id="group-109svg">
		<path id="path-1_11_" style="fill:#FF3A2F;" d="M138.77,207.992c1.617,0,2.927-0.886,2.927-1.977c0-1.093-1.31-1.978-2.927-1.978
			h-8.97c-1.617,0-2.928,0.885-2.928,1.978c0,1.091,1.311,1.977,2.928,1.977H138.77z"/>
		<path id="path-2_11_" style="fill:#FF3A2F;" d="M41.956,99.71h2.443c0.471,0,0.853,0.494,0.853,1.104s-0.382,1.104-0.853,1.104
			h-0.113c-0.471,0-0.853,0.494-0.853,1.104c0,0.609,0.382,1.105,0.853,1.105h5.251c0.471,0,0.852,0.495,0.852,1.104
			c0,0.61-0.381,1.104-0.852,1.104h-6.31H30.328c-0.471,0-0.853-0.494-0.853-1.104c0-0.609,0.382-1.104,0.853-1.104h1.458
			c0.47,0,0.853-0.496,0.853-1.105c0-0.61-0.383-1.104-0.853-1.104H24.85c-0.471,0-0.853-0.494-0.853-1.104s0.382-1.104,0.853-1.104
			h1.639H41.956z"/>
		<path id="path-3_11_" style="fill:#FF3A2F;" d="M185.978,136.33h3.325c0.641,0,1.16,0.673,1.16,1.502
			c0,0.83-0.519,1.502-1.16,1.502h-0.155c-0.641,0-1.161,0.673-1.161,1.504c0,0.829,0.52,1.502,1.161,1.502h7.147
			c0.641,0,1.161,0.672,1.161,1.503c0,0.829-0.52,1.503-1.161,1.503h-8.589h-17.555c-0.641,0-1.16-0.674-1.16-1.503
			c0-0.831,0.519-1.503,1.16-1.503h1.984c0.641,0,1.16-0.673,1.16-1.502c0-0.831-0.519-1.504-1.16-1.504h-9.44
			c-0.641,0-1.161-0.672-1.161-1.502c0-0.829,0.52-1.502,1.161-1.502h2.231H185.978z"/>
		<path id="path-4_11_" style="fill:#FF3A2F;" d="M24.443,170.312h3.325c0.641,0,1.16,0.673,1.16,1.503s-0.519,1.503-1.16,1.503
			h-0.155c-0.641,0-1.161,0.672-1.161,1.503c0,0.829,0.52,1.503,1.161,1.503h7.147c0.641,0,1.161,0.672,1.161,1.501
			c0,0.831-0.52,1.503-1.161,1.503h-8.589H8.617c-0.642,0-1.161-0.672-1.161-1.503c0-0.829,0.519-1.501,1.161-1.501H10.6
			c0.641,0,1.16-0.674,1.16-1.503c0-0.831-0.519-1.503-1.16-1.503H1.16c-0.641,0-1.16-0.673-1.16-1.503s0.519-1.503,1.16-1.503
			h2.231H24.443z"/>
		<path id="path-5_11_" style="fill:#FF3A2F;" d="M15.776,108.86c1.009,0,1.827-0.597,1.827-1.332s-0.818-1.333-1.827-1.333h-5.599
			c-1.009,0-1.827,0.598-1.827,1.333s0.818,1.332,1.827,1.332H15.776z"/>
		<path id="path-6_11_" style="fill:#FF3A2F;" d="M194.937,190.821h6.777c1.306,0,2.365,1.269,2.365,2.836
			c0,1.566-1.059,2.836-2.365,2.836h-0.316c-1.307,0-2.366,1.269-2.366,2.835c0,1.568,1.059,2.837,2.366,2.837h14.568
			c1.307,0,2.366,1.271,2.366,2.837c0,1.566-1.059,2.836-2.366,2.836h-17.507h-35.784c-1.307,0-2.366-1.27-2.366-2.836
			c0-1.566,1.059-2.837,2.366-2.837h4.043c1.306,0,2.365-1.269,2.365-2.837c0-1.566-1.059-2.835-2.365-2.835h-19.242
			c-1.307,0-2.366-1.27-2.366-2.836c0-1.567,1.059-2.836,2.366-2.836h4.548H194.937z"/>
		<path id="path-7_11_" style="fill:#FBB713;" d="M67.992,51.471v79.651c-12.713,7.789-20.562,21.62-20.562,37.436
			c0,24.366,19.973,44.12,44.751,44.12c24.77,0,44.321-19.754,44.321-44.12c0-15.609-8.263-29.296-20.703-37.136V29.733
			c0-13.297-10.705-24.078-23.906-24.078c-13.202,0-23.901,10.781-23.901,24.078v3.637V51.471z"/>
		<path id="path-8_11_" style="opacity:0.35;fill:#010101;enable-background:new    ;" d="M115.799,131.421V29.733
			c0-13.296-10.705-24.078-23.906-24.078c-1.766,0-3.482,0.208-5.139,0.573c10.73,2.37,18.769,11.987,18.769,23.505v101.689
			c12.438,7.84,20.702,21.527,20.702,37.136c0,22.653-16.907,41.295-39.187,43.809c1.689,0.188,3.4,0.311,5.143,0.311
			c24.77,0,44.322-19.754,44.322-44.12C136.503,152.949,128.239,139.261,115.799,131.421z"/>
		<path id="path-9_10_" style="fill:#FF3A2F;" d="M101.726,140.696v-37.751c0-5.531-4.299-6.79-9.582-6.79
			c-5.287,0-9.937,1.61-9.937,7.142v37.399c-10.236,3.893-17.514,13.695-17.514,25.206c0,14.922,12.211,27.019,27.273,27.019
			c15.063,0,27.274-12.097,27.274-27.019C119.24,154.391,111.961,144.589,101.726,140.696z"/>
		<path id="path-10_9_" style="opacity:0.35;fill:#020403;enable-background:new    ;" d="M101.725,140.696v-37.751
			c0-5.531-4.298-6.79-9.581-6.79c-1.137,0-2.231,0.094-3.269,0.267c3.51,0.591,5.998,2.321,5.998,6.523v37.751
			c10.236,3.893,17.515,13.695,17.515,25.207c0,13.768-10.406,25.109-23.848,26.783c1.125,0.139,2.263,0.235,3.426,0.235
			c15.063,0,27.274-12.097,27.274-27.018C119.24,154.391,111.961,144.589,101.725,140.696z"/>
		<path id="path-11_9_" style="fill:#FFFFFF;" d="M87.539,173.123c0,3.282-2.684,5.939-5.996,5.939
			c-3.311,0-5.995-2.657-5.995-5.939c0-3.281,2.684-5.939,5.995-5.939C84.855,167.184,87.539,169.842,87.539,173.123z"/>
		<path id="path-12_9_" style="fill:#FFFFFF;" d="M91.868,136.427c-2.009,0-3.639-1.614-3.639-3.604V32.281
			c0-1.991,1.63-3.606,3.639-3.606c2.01,0,3.639,1.615,3.639,3.606v100.543C95.507,134.813,93.878,136.427,91.868,136.427z"/>
	</g>
</g>
<g>
</g>
<g>
</g>
<g>
</g>
<g>
</g>
<g>
</g>
<g>
</g>
<g>
</g>
<g>
</g>
<g>
</g>
<g>
</g>
<g>
</g>
<g>
</g>
<g>
</g>
<g>
</g>
<g>
</g>
</svg>
