<?xml version="1.0" encoding="iso-8859-1"?>
<!-- Generator: Adobe Illustrator 19.1.0, SVG Export Plug-In . SVG Version: 6.00 Build 0)  -->
<svg version="1.1" id="Capa_1" xmlns="http://www.w3.org/2000/svg" xmlns:xlink="http://www.w3.org/1999/xlink" x="0px" y="0px"
	 viewBox="0 0 218.332 218.332" style="enable-background:new 0 0 218.332 218.332;" xml:space="preserve">
<g>
	<g id="group-59svg">
		<path id="path-1_123_" style="fill:#FF3A2F;" d="M69.847,172.14h9.687c1.866,0,3.381,1.273,3.381,2.843
			c0,1.571-1.515,2.843-3.381,2.843h-0.452c-1.867,0-3.381,1.274-3.381,2.844c0,1.57,1.514,2.843,3.381,2.843h20.825
			c1.867,0,3.382,1.273,3.382,2.844c0,1.57-1.515,2.842-3.382,2.842H74.881H29.877c-1.868,0-3.382-1.272-3.382-2.842
			c0-1.571,1.514-2.844,3.382-2.844h5.779c1.868,0,3.382-1.273,3.382-2.843c0-1.57-1.514-2.844-3.382-2.844H8.15
			c-1.866,0-3.381-1.272-3.381-2.843c0-1.57,1.515-2.843,3.381-2.843h24H69.847z"/>
		<path id="path-2_123_" style="fill:#FF3A2F;" d="M188.062,199.496h5.56c1.072,0,1.94,0.731,1.94,1.632
			c0,0.902-0.868,1.632-1.94,1.632h-0.259c-1.072,0-1.941,0.731-1.941,1.632s0.869,1.632,1.941,1.632h11.952
			c1.071,0,1.941,0.731,1.941,1.631c0,0.902-0.87,1.633-1.941,1.633h-14.363h-25.831c-1.072,0-1.94-0.731-1.94-1.633
			c0-0.9,0.868-1.631,1.94-1.631h3.318c1.072,0,1.941-0.731,1.941-1.632s-0.869-1.632-1.941-1.632h-15.787
			c-1.072,0-1.941-0.73-1.941-1.632c0-0.901,0.869-1.632,1.941-1.632h13.774H188.062z"/>
		<path id="path-3_123_" style="fill:#FF3A2F;" d="M48.717,118.036h2.718c0.524,0,0.948,0.357,0.948,0.798
			c0,0.441-0.424,0.797-0.948,0.797h-0.126c-0.525,0-0.95,0.358-0.95,0.798c0,0.441,0.425,0.798,0.95,0.798h5.841
			c0.524,0,0.949,0.357,0.949,0.798c0,0.44-0.425,0.798-0.949,0.798h-7.021H37.504c-0.524,0-0.949-0.358-0.949-0.798
			c0-0.441,0.425-0.798,0.949-0.798h1.621c0.524,0,0.949-0.357,0.949-0.798c0-0.44-0.425-0.798-0.949-0.798h-7.717
			c-0.524,0-0.948-0.356-0.948-0.797c0-0.441,0.424-0.798,0.948-0.798h6.733H48.717z"/>
		<path id="path-4_122_" style="fill:#FF3A2F;" d="M12.302,189.275c1.672,0,3.026-0.85,3.026-1.899c0-1.05-1.354-1.9-3.026-1.9
			H3.027c-1.672,0-3.027,0.85-3.027,1.9c0,1.049,1.355,1.899,3.027,1.899H12.302z"/>
		<path id="path-5_122_" style="fill:#FBB713;" d="M198.339,155.84H64.272L87.792,9.044h87.027L198.339,155.84z"/>
		<path id="path-6_121_" style="opacity:0.25;fill:#010101;enable-background:new    ;" d="M174.819,9.044h-16.978l16.868,105.274
			c2.437,15.213-9.429,28.981-24.978,28.981H66.282l-2.01,12.541h134.067L174.819,9.044z"/>
		<path id="path-7_121_" style="fill:#142A3B;" d="M218.332,181.47H44.28v-25.63h174.052V181.47z"/>
		<path id="path-8_118_" style="opacity:0.35;fill:#010101;enable-background:new    ;" d="M205.674,155.84v5.247
			c0,7.795-6.378,14.113-14.247,14.113H44.28v6.27h174.052v-25.63H205.674z"/>
		<path id="path-9_112_" style="opacity:0.35;fill:#020200;enable-background:new    ;" d="M161.37,57.03
			c-2.01,0-3.639-1.613-3.639-3.605v-8.508c0-1.992,1.629-3.606,3.639-3.606c2.009,0,3.638,1.614,3.638,3.606v8.508
			C165.008,55.417,163.379,57.03,161.37,57.03z"/>
		<path id="path-10_104_" style="opacity:0.35;fill:#020200;enable-background:new    ;" d="M129.723,57.03
			c-2.01,0-3.639-1.613-3.639-3.605v-8.508c0-1.992,1.629-3.606,3.639-3.606c2.01,0,3.639,1.614,3.639,3.606v8.508
			C133.362,55.417,131.733,57.03,129.723,57.03z"/>
		<path id="path-11_92_" style="opacity:0.35;fill:#020200;enable-background:new    ;" d="M98.078,57.03
			c-2.009,0-3.638-1.613-3.638-3.605v-8.508c0-1.992,1.629-3.606,3.638-3.606c2.01,0,3.639,1.614,3.639,3.606v8.508
			C101.717,55.417,100.088,57.03,98.078,57.03z"/>
		<path id="path-12_80_" style="opacity:0.35;fill:#020200;enable-background:new    ;" d="M98.078,97.784
			c-2.009,0-3.638-1.613-3.638-3.605v-8.508c0-1.989,1.629-3.604,3.638-3.604c2.01,0,3.639,1.615,3.639,3.604v8.508
			C101.717,96.171,100.088,97.784,98.078,97.784z"/>
		<path id="path-13_68_" style="opacity:0.35;fill:#020200;enable-background:new    ;" d="M148.712,119.729
			c-2.01,0-3.639-1.614-3.639-3.604v-8.508c0-1.991,1.629-3.605,3.639-3.605c2.009,0,3.639,1.614,3.639,3.605v8.508
			C152.351,118.115,150.721,119.729,148.712,119.729z"/>
		<path id="path-14_56_" style="opacity:0.35;fill:#020200;enable-background:new    ;" d="M113.901,138.54
			c-2.01,0-3.639-1.615-3.639-3.606v-8.507c0-1.991,1.629-3.605,3.639-3.605c2.009,0,3.638,1.614,3.638,3.605v8.507
			C117.539,136.925,115.91,138.54,113.901,138.54z"/>
		<path id="path-15_47_" style="opacity:0.35;fill:#020200;enable-background:new    ;" d="M164.534,91.514
			c-2.01,0-3.639-1.614-3.639-3.604v-8.508c0-1.991,1.629-3.605,3.639-3.605c2.01,0,3.639,1.614,3.639,3.605v8.508
			C168.173,89.9,166.544,91.514,164.534,91.514z"/>
		<path id="path-16_38_" style="opacity:0.35;fill:#020200;enable-background:new    ;" d="M164.534,144.809
			c-2.01,0-3.639-1.614-3.639-3.604v-8.508c0-1.992,1.629-3.605,3.639-3.605c2.01,0,3.639,1.613,3.639,3.605v8.508
			C168.173,143.195,166.544,144.809,164.534,144.809z"/>
		<path id="path-17_33_" style="opacity:0.35;fill:#020200;enable-background:new    ;" d="M85.419,138.54
			c-2.01,0-3.639-1.615-3.639-3.606v-8.507c0-1.991,1.629-3.605,3.639-3.605s3.639,1.614,3.639,3.605v8.507
			C89.058,136.925,87.429,138.54,85.419,138.54z"/>
		<path id="path-18_24_" style="opacity:0.35;fill:#020200;enable-background:new    ;" d="M132.888,88.38
			c-2.01,0-3.639-1.615-3.639-3.604v-8.509c0-1.991,1.629-3.605,3.639-3.605c2.009,0,3.638,1.614,3.638,3.605v8.509
			C136.526,86.765,134.897,88.38,132.888,88.38z"/>
	</g>
</g>
<g>
</g>
<g>
</g>
<g>
</g>
<g>
</g>
<g>
</g>
<g>
</g>
<g>
</g>
<g>
</g>
<g>
</g>
<g>
</g>
<g>
</g>
<g>
</g>
<g>
</g>
<g>
</g>
<g>
</g>
</svg>
