<?xml version="1.0" encoding="iso-8859-1"?>
<!-- Generator: Adobe Illustrator 19.1.0, SVG Export Plug-In . SVG Version: 6.00 Build 0)  -->
<svg version="1.1" id="Capa_1" xmlns="http://www.w3.org/2000/svg" xmlns:xlink="http://www.w3.org/1999/xlink" x="0px" y="0px"
	 viewBox="0 0 218.333 218.333" style="enable-background:new 0 0 218.333 218.333;" xml:space="preserve">
<g>
	<g id="group-129svg">
		<path id="path-1_33_" style="fill:#2476FF;" d="M74.784,45.586h12.327c2.377,0,4.303,1.655,4.303,3.696
			c0,2.04-1.926,3.696-4.303,3.696h-0.574c-2.377,0-4.303,1.654-4.303,3.695s1.926,3.695,4.303,3.695h26.499
			c2.376,0,4.303,1.655,4.303,3.696s-1.927,3.695-4.303,3.695H81.192H46.19c-2.376,0-4.302-1.654-4.302-3.695
			s1.926-3.696,4.302-3.696h7.355c2.377,0,4.303-1.654,4.303-3.695s-1.926-3.695-4.303-3.695h-35c-2.377,0-4.304-1.656-4.304-3.696
			c0-2.041,1.927-3.696,4.304-3.696h8.271H74.784z"/>
		<path id="path-2_33_" style="fill:#2476FF;" d="M175.777,118.905h12.326c2.377,0,4.305,1.653,4.305,3.695
			c0,2.04-1.928,3.695-4.305,3.695h-0.573c-2.376,0-4.303,1.656-4.303,3.695c0,2.042,1.927,3.697,4.303,3.697h26.499
			c2.378,0,4.304,1.653,4.304,3.693c0,2.042-1.926,3.696-4.304,3.696h-31.845h-35c-2.376,0-4.303-1.654-4.303-3.696
			c0-2.04,1.927-3.693,4.303-3.693h7.354c2.376,0,4.304-1.655,4.304-3.697c0-2.039-1.928-3.695-4.304-3.695h-35.001
			c-2.377,0-4.302-1.655-4.302-3.695c0-2.042,1.925-3.695,4.302-3.695h8.273H175.777z"/>
		<path id="path-3_33_" style="fill:#FBB713;" d="M180.917,59.989h5.816c1.122,0,2.03,1.654,2.03,3.695
			c0,2.041-0.908,3.696-2.03,3.696h-0.27c-1.122,0-2.031,1.654-2.031,3.696c0,2.04,0.909,3.694,2.031,3.694h12.501
			c1.121,0,2.03,1.654,2.03,3.695c0,2.042-0.909,3.696-2.03,3.696H183.94h-16.512c-1.122,0-2.03-1.654-2.03-3.696
			c0-2.041,0.908-3.695,2.03-3.695h3.47c1.121,0,2.029-1.654,2.029-3.694c0-2.042-0.908-3.696-2.029-3.696h-16.513
			c-1.121,0-2.03-1.655-2.03-3.696c0-2.041,0.909-3.695,2.03-3.695h3.902H180.917z"/>
		<path id="path-4_33_" style="fill:#2476FF;" d="M26.236,92.661c3.565,0,6.455-1.766,6.455-3.943c0-2.178-2.89-3.944-6.455-3.944
			H6.455C2.89,84.774,0,86.54,0,88.718c0,2.177,2.89,3.943,6.455,3.943H26.236z"/>
		<path id="path-5_33_" style="fill:#FBB713;" d="M35.018,209.986L108.432,39.47l73.416,170.516H35.018z"/>
		<path id="path-6_33_" style="opacity:0.25;fill:#020403;enable-background:new    ;" d="M108.432,39.47l-8.311,19.304
			L152.358,180.1c5.362,12.454-3.862,26.286-17.529,26.286H36.567l-1.549,3.6h146.83L108.432,39.47z"/>
		<path id="path-7_33_" style="fill:#142A3B;" d="M79.245,209.867l29.187-67.793l29.188,67.793H79.245z"/>
		<path id="path-8_33_" style="opacity:0.35;fill:#020403;enable-background:new    ;" d="M108.432,142.074l-7.268,16.885
			l21.918,50.908h14.538L108.432,142.074z"/>
		<path id="path-9_30_" style="fill:#FF3A2F;" d="M94.685,92.268c-4.636,0-8.091-2.586-9.441-4.193
			c-1.291-1.529-1.081-3.804,0.461-5.077c1.535-1.268,3.806-1.072,5.096,0.424c0.829,0.913,3.878,3.54,8.931-0.471
			c2.764-2.499,10.224-5.925,17.458,0.047l0.349,0.33c0.565,0.568,3.851,3.422,9.211-0.276c1.648-1.138,3.911-0.735,5.064,0.899
			c1.15,1.633,0.742,3.879-0.906,5.018c-8.484,5.847-15.697,2.306-18.526-0.554c-3.926-3.102-7.313-0.512-7.959,0.043
			C100.869,91.279,97.55,92.268,94.685,92.268z"/>
		<path id="path-10_28_" style="fill:#FF3A2F;" d="M127.877,110.656c-0.121,0-0.246,0-0.367-0.005
			c-5.597-0.162-9.556-4.09-10.657-5.319c-6.727-5.336-12.659-0.483-13.323,0.095c-11.79,9.353-21.574,3.834-25.113-0.378
			c-1.285-1.53-1.076-3.803,0.469-5.079c1.532-1.264,3.814-1.069,5.103,0.441c0.988,1.119,6.282,6.301,14.84-0.484
			c3.66-3.308,13.421-7.779,22.899,0.043l0.49,0.492c0.679,0.798,3.025,2.93,5.538,2.984c0.035,0.001,0.067,0.001,0.099,0.001
			c1.673,0,3.396-0.939,5.117-2.795c1.364-1.466,3.664-1.556,5.142-0.214c1.479,1.348,1.578,3.627,0.217,5.091
			C135.171,108.934,131.658,110.656,127.877,110.656z"/>
		<path id="path-11_25_" style="fill:#142A3B;" d="M108.424,46.681L89.305,13.749c-1.002-1.725-0.401-3.929,1.343-4.922
			c1.735-0.993,3.967-0.395,4.968,1.328l12.829,22.103l12.832-21.943c1.006-1.723,3.234-2.313,4.971-1.312
			c1.742,0.998,2.336,3.204,1.326,4.926L108.424,46.681z"/>
		<path id="path-12_21_" style="fill:#FFFFFF;" d="M58.915,192.287c-0.547,0-1.102-0.121-1.624-0.382
			c-1.798-0.89-2.526-3.058-1.627-4.837l29.118-57.609c0.903-1.78,3.087-2.504,4.882-1.609c1.799,0.891,2.527,3.058,1.628,4.837
			l-29.119,57.609C61.535,191.558,60.252,192.287,58.915,192.287z"/>
	</g>
</g>
<g>
</g>
<g>
</g>
<g>
</g>
<g>
</g>
<g>
</g>
<g>
</g>
<g>
</g>
<g>
</g>
<g>
</g>
<g>
</g>
<g>
</g>
<g>
</g>
<g>
</g>
<g>
</g>
<g>
</g>
</svg>
