<?xml version="1.0" encoding="iso-8859-1"?>
<!-- Generator: Adobe Illustrator 19.1.0, SVG Export Plug-In . SVG Version: 6.00 Build 0)  -->
<svg version="1.1" id="Capa_1" xmlns="http://www.w3.org/2000/svg" xmlns:xlink="http://www.w3.org/1999/xlink" x="0px" y="0px"
	 viewBox="0 0 218.332 218.332" style="enable-background:new 0 0 218.332 218.332;" xml:space="preserve">
<g>
	<g id="group-58svg">
		<path id="path-1_122_" style="fill:#FBB713;" d="M55.037,191.471H39.095c-3.074,0-5.566,1.445-5.566,3.227
			c0,1.783,2.492,3.228,5.566,3.228h0.741c3.075,0,5.566,1.444,5.566,3.226c0,1.783-2.491,3.228-5.566,3.228H5.565
			c-3.074,0-5.565,1.443-5.565,3.226c0,1.782,2.491,3.227,5.565,3.227h41.186h84.182c3.074,0,5.566-1.445,5.566-3.227
			c0-1.783-2.492-3.226-5.566-3.226h-9.511c-3.074,0-5.566-1.445-5.566-3.228c0-1.782,2.492-3.226,5.566-3.226h37.356
			c3.074,0,5.566-1.445,5.566-3.228c0-1.782-2.492-3.227-5.566-3.227h-2.788H55.037z"/>
		<path id="path-2_122_" style="fill:#FBB713;" d="M185.234,210.287c-4.497,0-8.143-1.215-8.143-2.713
			c0-1.499,3.646-2.714,8.143-2.714h24.955c4.497,0,8.143,1.215,8.143,2.714c0,1.498-3.646,2.713-8.143,2.713H185.234z"/>
		<path id="path-3_122_" style="fill:#FF3A2F;" d="M208.23,96.527h-12.146c-2.01,0-3.639-1.614-3.639-3.606
			c0-1.991,1.629-3.604,3.639-3.604h12.146c2.01,0,3.639,1.613,3.639,3.604C211.869,94.913,210.24,96.527,208.23,96.527z"/>
		<path id="path-4_121_" style="fill:#FF3A2F;" d="M80.305,195.574c-2.01,0-3.639-1.614-3.639-3.604v-16.043
			c0-1.991,1.629-3.604,3.639-3.604c2.009,0,3.638,1.613,3.638,3.604v16.043C83.943,193.96,82.314,195.574,80.305,195.574z"/>
		<path id="path-5_121_" style="fill:#FF3A2F;" d="M161.275,195.574c-2.01,0-3.639-1.614-3.639-3.604v-16.043
			c0-1.991,1.629-3.604,3.639-3.604c2.01,0,3.639,1.613,3.639,3.604v16.043C164.914,193.96,163.285,195.574,161.275,195.574z"/>
		<path id="path-6_120_" style="fill:#0CB04A;" d="M197.711,181.156v-97.95c0-14.727-15.108-26.38-29.972-26.38H77.92
			c-14.863,0-25.954,11.653-25.954,26.38v97.95H197.711z"/>
		<path id="path-7_120_" style="opacity:0.25;fill:#010101;enable-background:new    ;" d="M168.655,56.87
			c2.186,3.557,3.498,7.575,3.498,11.866v63.236c0,19.172-15.69,34.715-35.044,34.715H51.966v14.469h145.745v-97.95
			C197.711,68.782,183.217,57.334,168.655,56.87z"/>
		<path id="path-8_117_" style="opacity:0.35;fill:#010101;enable-background:new    ;" d="M172.218,106.864
			c0,10.244-8.383,18.549-18.724,18.549s-18.724-8.305-18.724-18.549s8.383-18.549,18.724-18.549S172.218,96.62,172.218,106.864z"/>
		<path id="path-9_111_" style="fill:#FF3A2F;" d="M168.567,99.63c0,10.244-8.383,18.549-18.724,18.549s-18.725-8.305-18.725-18.549
			c0-10.245,8.384-18.549,18.725-18.549S168.567,89.385,168.567,99.63z"/>
		<path id="path-10_103_" style="opacity:0.35;fill:#010101;enable-background:new    ;" d="M154.264,81.656
			c4.236,3.401,7.001,8.534,7.001,14.357c0,10.244-8.383,18.55-18.724,18.55c-1.531,0-2.997-0.234-4.421-0.577
			c3.217,2.582,7.26,4.193,11.723,4.193c10.341,0,18.724-8.305,18.724-18.549C168.567,90.902,162.46,83.632,154.264,81.656z"/>
		<path id="path-11_91_" style="fill:#FBB713;" d="M173.42,58.044V22.549c0-8.388-6.343-15.05-14.81-15.05
			c-8.466,0-14.81,0.413-14.81,8.434h-38.869c0-8.021-5.871-8.434-14.337-8.434c-8.467,0-14.337,6.662-14.337,15.05v35.495H173.42z"
			/>
		<path id="path-12_79_" style="opacity:0.25;fill:#010101;enable-background:new    ;" d="M83.291,14.733
			c8.466,0,14.337,0.412,14.337,8.434h38.869c0-4.025,1.6-6.132,4.262-7.234H104.93c0-8.021-5.87-8.434-14.336-8.434
			c-6.008,0-10.658,3.388-12.882,8.332C79.397,15.135,81.264,14.733,83.291,14.733z"/>
		<path id="path-13_67_" style="opacity:0.25;fill:#010101;enable-background:new    ;" d="M158.61,7.499
			c-8.153,0-14.278,0.453-14.725,7.645c2.164-0.337,4.661-0.411,7.423-0.411c8.466,0,14.81,6.663,14.81,15.05v28.261h7.302V22.549
			C173.42,14.161,167.077,7.499,158.61,7.499z"/>
		<path id="path-14_55_" style="opacity:0.35;fill:#090909;enable-background:new    ;" d="M127.853,38.244
			c0,1.099-0.889,1.997-1.982,1.997c-1.094,0-1.986-0.898-1.986-1.997c0-1.105,0.892-1.998,1.986-1.998
			C126.964,36.246,127.853,37.139,127.853,38.244z"/>
		<path id="path-15_46_" style="opacity:0.35;fill:#090909;enable-background:new    ;" d="M91.34,34.627
			c0,1.098-0.888,1.997-1.981,1.997c-1.095,0-1.986-0.899-1.986-1.997c0-1.105,0.891-1.997,1.986-1.997
			C90.452,32.63,91.34,33.522,91.34,34.627z"/>
		<path id="path-16_37_" style="opacity:0.35;fill:#090909;enable-background:new    ;" d="M94.992,52.712
			c0,1.099-0.888,1.997-1.982,1.997s-1.986-0.898-1.986-1.997c0-1.105,0.892-1.997,1.986-1.997S94.992,51.607,94.992,52.712z"/>
		<path id="path-17_32_" style="opacity:0.35;fill:#090909;enable-background:new    ;" d="M153.412,52.712
			c0,1.099-0.889,1.997-1.982,1.997c-1.095,0-1.986-0.898-1.986-1.997c0-1.105,0.891-1.997,1.986-1.997
			C152.523,50.715,153.412,51.607,153.412,52.712z"/>
		<path id="path-18_23_" style="opacity:0.35;fill:#090909;enable-background:new    ;" d="M120.551,56.329
			c0,1.098-0.889,1.997-1.983,1.997c-1.094,0-1.986-0.899-1.986-1.997c0-1.105,0.892-1.997,1.986-1.997
			C119.662,54.332,120.551,55.224,120.551,56.329z"/>
		<path id="path-19_19_" style="opacity:0.35;fill:#090909;enable-background:new    ;" d="M152.355,31.01
			c0,1.098-0.889,1.997-1.985,1.997c-1.094,0-1.983-0.899-1.983-1.997c0-1.105,0.889-1.998,1.983-1.998
			C151.466,29.012,152.355,29.905,152.355,31.01z"/>
	</g>
</g>
<g>
</g>
<g>
</g>
<g>
</g>
<g>
</g>
<g>
</g>
<g>
</g>
<g>
</g>
<g>
</g>
<g>
</g>
<g>
</g>
<g>
</g>
<g>
</g>
<g>
</g>
<g>
</g>
<g>
</g>
</svg>
