<?xml version="1.0" encoding="iso-8859-1"?>
<!-- Generator: Adobe Illustrator 19.1.0, SVG Export Plug-In . SVG Version: 6.00 Build 0)  -->
<svg version="1.1" id="Capa_1" xmlns="http://www.w3.org/2000/svg" xmlns:xlink="http://www.w3.org/1999/xlink" x="0px" y="0px"
	 viewBox="0 0 216.291 216.291" style="enable-background:new 0 0 216.291 216.291;" xml:space="preserve">
<g>
	<g id="group-26svg">
		<path id="path-1_87_" style="fill:#FBB713;" d="M72.387,79.779L27.304,35.117L53.958,8.715l45.082,44.661L72.387,79.779z"/>
		<path id="path-2_87_" style="fill:#142A3B;" d="M53.978,59.296l-5.145-5.099L73.499,29.76l5.145,5.098L53.978,59.296z"/>
		<path id="path-3_87_" style="fill:#142A3B;" d="M66.737,71.935l-5.146-5.098L86.258,42.4l5.146,5.098L66.737,71.935z"/>
		<path id="path-4_86_" style="fill:#142A3B;" d="M41.218,46.655l-5.145-5.098L60.741,17.12l5.146,5.098L41.218,46.655z"/>
		<path id="path-5_86_" style="fill:#FF3A2F;" d="M104.498,43.58L63.348,2.815c-1.088-1.077-0.189-2.909,1.338-2.728l15.978,1.9
			c0.36,0.042,0.696,0.204,0.952,0.458l39.872,39.5c1.045,1.035,0.26,2.8-1.215,2.737l-14.699-0.634
			C105.17,44.031,104.785,43.864,104.498,43.58z"/>
		<path id="path-6_85_" style="fill:#2476FF;" d="M159.663,85.95c0,5.901-4.829,10.684-10.786,10.684
			c-5.956,0-10.786-4.783-10.786-10.684c0-5.902,4.83-10.685,10.786-10.685C154.833,75.265,159.663,80.048,159.663,85.95z"/>
		<path id="path-7_85_" style="fill:#FFFFFF;" d="M153.751,82.346c0,2.667-2.182,4.829-4.874,4.829s-4.875-2.162-4.875-4.829
			c0-2.668,2.183-4.829,4.875-4.829S153.751,79.678,153.751,82.346z"/>
		<path id="path-8_82_" style="fill:#2476FF;" d="M204.988,6.913c0,3.817-3.124,6.912-6.978,6.912c-3.854,0-6.977-3.095-6.977-6.912
			c0-3.819,3.123-6.913,6.977-6.913C201.863,0,204.988,3.094,204.988,6.913z"/>
		<path id="path-9_78_" style="fill:#2476FF;" d="M24.663,145.081c0-6.207,11.346-20.243,11.346-20.243s11.345,14.036,11.345,20.243
			s-5.08,11.24-11.345,11.24C29.743,156.321,24.663,151.288,24.663,145.081z"/>
		<path id="path-10_71_" style="fill:#FFFFFF;" d="M105.562,36.233c-0.465,0-0.931-0.176-1.286-0.528L78.044,9.717
			c-0.712-0.703-0.712-1.845,0-2.549c0.71-0.704,1.861-0.704,2.572,0l26.232,25.989c0.711,0.703,0.711,1.845,0,2.548
			C106.493,36.057,106.027,36.233,105.562,36.233z"/>
		<path id="path-11_62_" style="fill:#FF3A2F;" d="M77.491,133.149l83.928,83.142l13.61-13.482l-80.526-79.773L75.788,83.15
			L25.886,33.714l-9.64,9.549l44.799,44.382L77.491,133.149z"/>
		<path id="path-12_52_" style="opacity:0.35;fill:#010101;enable-background:new    ;" d="M47.354,74.081v-19.1L37.227,44.949l0,0
			v19.1L47.354,74.081z"/>
		<path id="path-13_43_" style="fill:#2476FF;" d="M47.938,197.566c4.299,0,7.785-2.187,7.785-4.886
			c0-2.699-3.486-4.886-7.785-4.886H24.081c-4.3,0-7.785,2.187-7.785,4.886c0,2.699,3.485,4.886,7.785,4.886H47.938z"/>
		<path id="path-14_36_" style="fill:#2476FF;" d="M38.023,50.277V43.47c0-1.956-1.994-3.542-4.453-3.542
			c-2.46,0-4.454,1.586-4.454,3.542v28.8c0,1.956-1.993,3.541-4.453,3.541c-2.459,0-4.453-1.585-4.453-3.541v-6.051
			c0-1.956-1.994-3.542-4.453-3.542c-2.46,0-4.454,1.586-4.454,3.542v28.8v26.204c0,1.955,1.994,3.54,4.454,3.54
			c2.459,0,4.453-1.585,4.453-3.54V99.418c0-1.956,1.994-3.541,4.453-3.541c2.46,0,4.453,1.585,4.453,3.541v0.472
			c0,1.956,1.994,3.541,4.454,3.541c2.459,0,4.453-1.585,4.453-3.541V89.747V50.277z"/>
	</g>
</g>
<g>
</g>
<g>
</g>
<g>
</g>
<g>
</g>
<g>
</g>
<g>
</g>
<g>
</g>
<g>
</g>
<g>
</g>
<g>
</g>
<g>
</g>
<g>
</g>
<g>
</g>
<g>
</g>
<g>
</g>
</svg>
