<?xml version="1.0" encoding="iso-8859-1"?>
<!-- Generator: Adobe Illustrator 19.1.0, SVG Export Plug-In . SVG Version: 6.00 Build 0)  -->
<svg version="1.1" id="Capa_1" xmlns="http://www.w3.org/2000/svg" xmlns:xlink="http://www.w3.org/1999/xlink" x="0px" y="0px"
	 viewBox="0 0 217.229 217.229" style="enable-background:new 0 0 217.229 217.229;" xml:space="preserve">
<g>
	<g id="group-90svg">
		<path id="path-1_150_" style="fill:#FF3A2F;" d="M98.85,177.839H82.835c-3.088,0-5.591,1.895-5.591,4.231
			c0,2.338,2.503,4.233,5.591,4.233h0.745c3.088,0,5.592,1.894,5.592,4.23c0,2.337-2.504,4.232-5.592,4.232H49.153
			c-3.089,0-5.592,1.894-5.592,4.232c0,2.337,2.503,4.232,5.592,4.232h41.373h84.567c3.089,0,5.592-1.895,5.592-4.232
			c0-2.338-2.503-4.232-5.592-4.232h-9.555c-3.088,0-5.591-1.895-5.591-4.232c0-2.336,2.503-4.23,5.591-4.23h37.528
			c3.088,0,5.591-1.895,5.591-4.233c0-2.336-2.503-4.231-5.591-4.231h-2.801H98.85z"/>
		<path id="path-2_150_" style="fill:#FF3A2F;" d="M198.177,204.362c-2.589,0-4.688-2.03-4.688-4.535s2.099-4.535,4.688-4.535
			h14.364c2.589,0,4.688,2.03,4.688,4.535s-2.099,4.535-4.688,4.535H198.177z"/>
		<path id="path-3_150_" style="fill:#0CB04A;" d="M132.886,196.082l-57.383-73.488L0,63.2l16.107-16.105L153.02,184.002
			L132.886,196.082z"/>
		<path id="path-4_150_" style="opacity:0.35;enable-background:new    ;" d="M147.986,178.968l-15.1,9.061l-57.383-73.488
			L4.508,58.693L0,63.2l75.503,59.394l57.383,73.487l20.134-12.079L147.986,178.968z"/>
		<path id="path-5_149_" style="fill:#FBB713;" d="M81.544,112.528L22.148,53.134l12.08-40.267l85.57,85.567L81.544,112.528z"/>
		<path id="path-6_146_" style="opacity:0.35;fill:#010101;enable-background:new    ;" d="M106.943,85.579l-19.716,7.264
			c-5.919,2.182-12.567,0.722-17.027-3.739l-46.915-39.76l-1.137,3.79l59.396,59.394l38.255-14.094L106.943,85.579z"/>
		<path id="path-7_142_" style="fill:#142A3B;" d="M74.609,96.715c-1.414,0-2.758-0.835-3.34-2.222
			c-0.772-1.843,0.096-3.965,1.94-4.739l24.944-10.457c1.842-0.772,3.966,0.096,4.738,1.938c0.774,1.844-0.096,3.965-1.938,4.74
			L76.009,96.433C75.553,96.624,75.076,96.715,74.609,96.715z"/>
		<path id="path-8_118_" style="fill:#142A3B;" d="M41.581,63.693c-0.467,0-0.94-0.092-1.398-0.284
			c-1.844-0.774-2.712-2.895-1.94-4.739l10.458-24.945c0.773-1.843,2.891-2.707,4.74-1.939c1.844,0.774,2.712,2.896,1.94,4.74
			L44.922,61.47C44.341,62.856,42.997,63.693,41.581,63.693z"/>
		<path id="path-9_103_" style="fill:#142A3B;" d="M61.484,76.963c-0.913,0-1.829-0.344-2.534-1.035
			c-1.427-1.399-1.45-3.693-0.051-5.121l14.948-15.25c1.402-1.431,3.689-1.447,5.122-0.051c1.427,1.4,1.449,3.693,0.049,5.121
			l-14.947,15.25C63.363,76.6,62.423,76.963,61.484,76.963z"/>
	</g>
</g>
<g>
</g>
<g>
</g>
<g>
</g>
<g>
</g>
<g>
</g>
<g>
</g>
<g>
</g>
<g>
</g>
<g>
</g>
<g>
</g>
<g>
</g>
<g>
</g>
<g>
</g>
<g>
</g>
<g>
</g>
</svg>
