<?xml version="1.0" encoding="iso-8859-1"?>
<!-- Generator: Adobe Illustrator 19.1.0, SVG Export Plug-In . SVG Version: 6.00 Build 0)  -->
<svg version="1.1" id="Capa_1" xmlns="http://www.w3.org/2000/svg" xmlns:xlink="http://www.w3.org/1999/xlink" x="0px" y="0px"
	 viewBox="0 0 216.292 216.292" style="enable-background:new 0 0 216.292 216.292;" xml:space="preserve">
<g>
	<g id="group-20svg">
		<path id="path-1_81_" style="fill:#098136;" d="M179.068,46.861v110.407c0,11.705-9.578,21.194-21.394,21.194h11.748
			c11.816,0,21.394-9.489,21.394-21.194V46.861H179.068z"/>
		<path id="path-2_81_" style="fill:#098136;" d="M190.816,42.336v-4.59c0-11.705-9.578-21.193-21.394-21.193h-11.748
			c11.816,0,21.394,9.488,21.394,21.193v5.073l0,0"/>
		<path id="path-3_81_" style="fill:#142A3B;" d="M200.333,47.369H31.342c-2.009,0-3.639-1.615-3.639-3.605V0h7.278v40.159h161.713
			V0h7.278v43.764C203.972,45.754,202.343,47.369,200.333,47.369z"/>
		<path id="path-4_81_" style="fill:#0CB04A;" d="M173.605,178.462H58.07c-3.017,0-5.462-2.446-5.462-5.462V22.015
			c0-3.017,2.445-5.462,5.462-5.462h115.535c3.017,0,5.463,2.445,5.463,5.462V173C179.068,176.016,176.622,178.462,173.605,178.462z
			"/>
		<path id="path-5_81_" style="fill:#FFE56D;" d="M173.555,128.529H58.121c-2.01,0-3.64-1.614-3.64-3.605s1.63-3.604,3.64-3.604
			h115.434c2.01,0,3.638,1.613,3.638,3.604S175.565,128.529,173.555,128.529z"/>
		<path id="path-6_80_" style="fill:#FFE56D;" d="M173.555,155.686H58.121c-2.01,0-3.64-1.614-3.64-3.605s1.63-3.604,3.64-3.604
			h115.434c2.01,0,3.638,1.613,3.638,3.604S175.565,155.686,173.555,155.686z"/>
		<path id="path-7_80_" style="fill:#FF3A2F;" d="M67.443,195.249h11.223c2.164,0,3.918,1.571,3.918,3.508
			c0,1.936-1.754,3.507-3.918,3.507h-0.522c-2.164,0-3.919,1.569-3.919,3.506c0,1.937,1.755,3.507,3.919,3.507h24.126
			c2.163,0,3.917,1.571,3.917,3.507c0,1.937-1.754,3.508-3.917,3.508H73.276H41.409c-2.163,0-3.918-1.571-3.918-3.508
			c0-1.936,1.755-3.507,3.918-3.507h6.696c2.164,0,3.919-1.57,3.919-3.507c0-1.937-1.755-3.506-3.919-3.506H16.238
			c-2.163,0-3.918-1.571-3.918-3.507c0-1.937,1.755-3.508,3.918-3.508h7.532H67.443z"/>
		<path id="path-8_77_" style="fill:#FF3A2F;" d="M173.135,202.097c4.628,0,8.381-2.355,8.381-5.26s-3.753-5.261-8.381-5.261
			h-25.683c-4.629,0-8.381,2.356-8.381,5.261s3.752,5.26,8.381,5.26H173.135z"/>
	</g>
</g>
<g>
</g>
<g>
</g>
<g>
</g>
<g>
</g>
<g>
</g>
<g>
</g>
<g>
</g>
<g>
</g>
<g>
</g>
<g>
</g>
<g>
</g>
<g>
</g>
<g>
</g>
<g>
</g>
<g>
</g>
</svg>
