<?xml version="1.0" encoding="iso-8859-1"?>
<!-- Generator: Adobe Illustrator 18.0.0, SVG Export Plug-In . SVG Version: 6.00 Build 0)  -->
<!DOCTYPE svg PUBLIC "-//W3C//DTD SVG 1.1//EN" "http://www.w3.org/Graphics/SVG/1.1/DTD/svg11.dtd">
<svg version="1.1" id="Capa_1" xmlns="http://www.w3.org/2000/svg" xmlns:xlink="http://www.w3.org/1999/xlink" x="0px" y="0px"
	 viewBox="0 0 454.597 454.597" style="enable-background:new 0 0 454.597 454.597;" xml:space="preserve">
<g>
	<path style="fill:#496A72;" d="M295.39,283.901h14.076v62.413H295.39c-17.235,0-31.206-13.971-31.206-31.206v0
		C264.183,297.872,278.155,283.901,295.39,283.901z"/>
	<circle style="fill:#738B93;" cx="309.42" cy="315.107" r="31.206"/>
	<path style="fill:#B3B3B3;" d="M328.074,315.108c0,10.3-8.36,18.648-18.66,18.648c-1.154,0-2.283-0.11-3.376-0.319
		c-8.692-1.571-15.272-9.183-15.272-18.329s6.58-16.77,15.272-18.341c1.093-0.209,2.222-0.319,3.376-0.319
		C319.714,296.448,328.074,304.808,328.074,315.108z"/>
	<path style="fill:#496A72;" d="M78.204,283.901H92.28v62.413H78.204c-17.235,0-31.206-13.971-31.206-31.206v0
		C46.998,297.872,60.969,283.901,78.204,283.901z"/>
	<circle style="fill:#738B93;" cx="92.234" cy="315.107" r="31.206"/>
	<path style="fill:#B3B3B3;" d="M110.888,315.108c0,10.3-8.36,18.648-18.66,18.648c-1.154,0-2.283-0.11-3.376-0.319
		c-8.692-1.571-15.272-9.183-15.272-18.329s6.58-16.77,15.272-18.341c1.093-0.209,2.222-0.319,3.376-0.319
		C102.528,296.448,110.888,304.808,110.888,315.108z"/>
	<rect x="99.483" y="108.284" style="fill:#D3674A;" width="336.381" height="209.669"/>
	<path style="fill:#496A72;" d="M163.363,283.901h14.076v62.413h-14.076c-17.235,0-31.206-13.971-31.206-31.206v0
		C132.157,297.872,146.128,283.901,163.363,283.901z"/>
	<path style="fill:#496A72;" d="M380.549,283.901h14.076v62.413h-14.076c-17.235,0-31.206-13.971-31.206-31.206v0
		C349.343,297.872,363.314,283.901,380.549,283.901z"/>
	<circle style="fill:#738B93;" cx="394.579" cy="315.107" r="31.206"/>
	<path style="fill:#B3B3B3;" d="M413.237,315.108c0,10.3-8.36,18.648-18.66,18.648c-1.154,0-2.283-0.11-3.376-0.319
		c-8.692-1.571-15.272-9.183-15.272-18.329s6.58-16.77,15.272-18.341c1.093-0.209,2.222-0.319,3.376-0.319
		C404.876,296.448,413.237,304.808,413.237,315.108z"/>
	<path style="fill:#CCCCCC;" d="M406.484,315.108c0,9.146-6.592,16.758-15.284,18.329c-8.692-1.571-15.272-9.183-15.272-18.329
		s6.58-16.77,15.272-18.341C399.892,298.338,406.484,305.962,406.484,315.108z"/>
	<polygon style="fill:#B3B3B3;" points="119.125,173.35 99.483,243.941 99.483,317.957 4.952,317.957 4.952,243.941 24.595,173.35 	
		"/>
	<circle style="fill:#999999;" cx="394.579" cy="315.107" r="7.165"/>
	<g>
		<rect x="26.436" y="251.92" style="fill:#999999;" width="5.729" height="44.9"/>
		<rect x="37.895" y="251.92" style="fill:#999999;" width="5.729" height="44.9"/>
		<rect x="49.353" y="251.92" style="fill:#999999;" width="5.729" height="44.9"/>
		<rect x="60.811" y="251.92" style="fill:#999999;" width="5.729" height="44.9"/>
		<rect x="72.269" y="251.92" style="fill:#999999;" width="5.729" height="44.9"/>
	</g>
	<g>
		<path style="fill:#DDD06F;" d="M80.601,284.453c0-4.751,3.855-8.594,8.594-8.594c0.528,0,1.043,0.049,1.547,0.147
			c4.014,0.724,7.047,4.223,7.047,8.446s-3.033,7.722-7.047,8.446c-0.503,0.098-1.019,0.147-1.547,0.147
			C84.456,293.047,80.601,289.205,80.601,284.453z"/>
		<path style="fill:#DDD06F;" d="M6.646,284.453c0-4.751,3.843-8.594,8.594-8.594c0.528,0,1.044,0.049,1.535,0.147
			c4.014,0.712,7.059,4.223,7.059,8.446s-3.045,7.734-7.059,8.446c-0.491,0.098-1.006,0.147-1.535,0.147
			C10.489,293.047,6.646,289.205,6.646,284.453z"/>
	</g>
	<g>
		<path style="fill:#F9ED82;" d="M83.682,284.453c0-4.223,3.045-7.734,7.059-8.446c4.014,0.724,7.047,4.223,7.047,8.446
			s-3.033,7.722-7.047,8.446C86.727,292.188,83.682,288.677,83.682,284.453z"/>
		<path style="fill:#F9ED82;" d="M9.715,284.453c0-4.223,3.045-7.734,7.059-8.446c4.014,0.712,7.059,4.223,7.059,8.446
			s-3.045,7.734-7.059,8.446C12.76,292.188,9.715,288.677,9.715,284.453z"/>
	</g>
	<path style="fill:#CCCCCC;" d="M138.762,315.107c0-21.335,17.296-38.631,38.631-38.631c7.45,0,14.403,2.114,20.303,5.767V173.35
		h-78.571l-19.643,70.591v74.016h39.395C138.809,317.015,138.762,316.067,138.762,315.107z"/>
	<polygon style="fill:#B5E4F4;" points="107.814,181.942 100.334,208.842 92.274,237.802 15.584,237.802 17.174,232.092 
		31.124,181.942 	"/>
	<polygon style="fill:#B5E4F4;" points="166.394,181.942 166.394,237.802 110.114,237.802 125.654,181.942 	"/>
	<rect x="106.849" y="279.543" style="fill:#EF7954;" width="5.524" height="10.435"/>
	<circle style="fill:#738B93;" cx="177.393" cy="315.107" r="31.206"/>
	<path style="fill:#EF7954;" d="M215.497,108.283c0,0,0.064,208.489,0,209.669h139.638c-0.069-0.941-0.116-1.887-0.116-2.845
		c0-21.287,17.257-38.544,38.544-38.544s38.544,17.257,38.544,38.544c0,0.958-0.047,1.905-0.116,2.845h15.577V108.283H215.497z"/>
	<path style="fill:#B3B3B3;" d="M196.051,315.108c0,10.3-8.36,18.648-18.66,18.648c-1.154,0-2.283-0.11-3.376-0.319
		c-8.692-1.571-15.272-9.183-15.272-18.329s6.58-16.77,15.272-18.341c1.093-0.209,2.222-0.319,3.376-0.319
		C187.69,296.448,196.051,304.808,196.051,315.108z"/>
	<path style="fill:#CCCCCC;" d="M189.298,315.108c0,9.146-6.592,16.758-15.284,18.329c-8.692-1.571-15.272-9.183-15.272-18.329
		s6.58-16.77,15.272-18.341C182.706,298.338,189.298,305.962,189.298,315.108z"/>
	<circle style="fill:#999999;" cx="177.393" cy="315.107" r="7.165"/>
	<rect x="0" y="301.487" style="fill:#999999;" width="125.264" height="21.132"/>
	<rect x="433.367" y="301.487" style="fill:#B3B3B3;" width="21.23" height="21.132"/>
	<rect x="106.235" y="301.487" style="fill:#B3B3B3;" width="19.029" height="21.132"/>
	<polygon style="opacity:0.49;fill:#F2F2F2;" points="67.324,181.942 17.174,232.092 31.124,181.942 	"/>
	<polygon style="opacity:0.49;fill:#F2F2F2;" points="100.334,208.842 92.274,237.802 71.374,237.802 	"/>
	<polygon style="opacity:0.49;fill:#F2F2F2;" points="166.394,181.942 166.394,237.802 135.264,237.802 164.744,181.942 	"/>
	<polygon style="fill:#D3674A;" points="323.914,173.921 323.914,153.171 244.306,199.133 323.914,245.095 323.914,224.345 
		418.76,224.345 418.76,173.921 	"/>
</g>
<g>
</g>
<g>
</g>
<g>
</g>
<g>
</g>
<g>
</g>
<g>
</g>
<g>
</g>
<g>
</g>
<g>
</g>
<g>
</g>
<g>
</g>
<g>
</g>
<g>
</g>
<g>
</g>
<g>
</g>
</svg>
