<?xml version="1.0" encoding="iso-8859-1"?>
<!-- Generator: Adobe Illustrator 19.1.0, SVG Export Plug-In . SVG Version: 6.00 Build 0)  -->
<svg version="1.1" id="Capa_1" xmlns="http://www.w3.org/2000/svg" xmlns:xlink="http://www.w3.org/1999/xlink" x="0px" y="0px"
	 viewBox="0 0 217.22 217.22" style="enable-background:new 0 0 217.22 217.22;" xml:space="preserve">
<g>
	<g id="group-111svg">
		<path id="path-1_14_" style="fill:#FBB713;" d="M68.362,26.075l-4.024-4.023c-0.775-0.777-2.569-0.239-4.007,1.198
			c-1.438,1.437-1.975,3.233-1.199,4.008l0.187,0.188c0.776,0.775,0.239,2.57-1.199,4.007c-1.437,1.438-3.232,1.975-4.008,1.2
			l-8.649-8.649c-0.775-0.776-2.569-0.239-4.008,1.198c-1.438,1.439-1.974,3.234-1.198,4.008L50.65,39.602l21.245,21.245
			c0.776,0.776,2.57,0.24,4.008-1.198c1.437-1.438,1.974-3.233,1.198-4.009l-2.399-2.4c-0.776-0.775-0.24-2.569,1.199-4.008
			c1.437-1.437,3.232-1.974,4.007-1.198l9.427,9.427c0.776,0.777,2.571,0.239,4.009-1.198c1.437-1.439,1.974-3.232,1.198-4.009
			l-0.703-0.704L68.362,26.075z"/>
		<path id="path-2_14_" style="fill:#FBB713;" d="M27.139,17.487c-0.651-0.652,0.071-2.427,1.612-3.968
			c1.541-1.54,3.317-2.262,3.968-1.613l3.609,3.61c0.65,0.649-0.072,2.426-1.613,3.967c-1.541,1.541-3.317,2.263-3.968,1.612
			L27.139,17.487z"/>
		<path id="path-3_14_" style="fill:#FBB713;" d="M173.695,41.46l4.023-4.022c0.776-0.777,0.239-2.571-1.199-4.009
			c-1.438-1.437-3.232-1.974-4.008-1.198l-0.187,0.188c-0.776,0.774-2.57,0.238-4.008-1.199c-1.438-1.439-1.975-3.233-1.199-4.008
			l8.649-8.648c0.776-0.777,0.239-2.571-1.199-4.009c-1.438-1.438-3.232-1.975-4.008-1.199L160.165,23.75l-21.244,21.243
			c-0.776,0.776-0.24,2.571,1.199,4.008c1.438,1.438,3.232,1.974,4.008,1.2l2.4-2.401c0.776-0.776,2.57-0.239,4.008,1.198
			c1.438,1.438,1.975,3.233,1.199,4.009l-9.428,9.427c-0.775,0.776-0.239,2.569,1.199,4.007c1.438,1.438,3.233,1.975,4.008,1.198
			l0.704-0.703L173.695,41.46z"/>
		<path id="path-4_14_" style="fill:#FBB713;" d="M182.283,0.24c0.65-0.651,2.426,0.07,3.967,1.611s2.263,3.315,1.613,3.967
			l-3.609,3.609c-0.65,0.65-2.426-0.072-3.967-1.613s-2.263-3.316-1.613-3.966L182.283,0.24z"/>
		<path id="path-5_14_" style="fill:#142A3B;" d="M190.32,217.22H31.77V77.228h158.55V217.22z"/>
		<path id="path-6_14_" style="opacity:0.35;enable-background:new    ;" d="M180.412,77.228v132.561H31.77v7.431h158.551V77.228
			H180.412z"/>
		<path id="path-7_14_" style="fill:#EDEDED;" d="M151.527,147.225c0,27.944-22.655,50.599-50.601,50.599
			c-27.947,0-50.602-22.655-50.602-50.599c0-27.946,22.655-50.6,50.602-50.6C128.872,96.625,151.527,119.279,151.527,147.225z"/>
		<path id="path-8_10_" style="opacity:0.35;enable-background:new    ;" d="M132.411,107.654
			c11.636,9.272,19.116,23.536,19.116,39.571c0,27.944-22.655,50.599-50.602,50.599c-8.706,0-16.899-2.202-24.053-6.075
			c8.644,6.886,19.574,11.03,31.485,11.03c27.947,0,50.602-22.654,50.602-50.6C158.959,132.94,148.22,116.213,132.411,107.654z"/>
		<path id="path-9_9_" style="fill:#142A3B;" d="M109.57,147.225c0,4.774-3.871,8.643-8.644,8.643c-4.775,0-8.645-3.869-8.645-8.643
			c0-4.775,3.87-8.645,8.645-8.645C105.699,138.58,109.57,142.45,109.57,147.225z"/>
		<path id="path-10_9_" d="M100.925,138.58c-0.424,0-0.83,0.066-1.238,0.125c4.182,0.605,7.405,4.17,7.405,8.52
			c0,4.35-3.223,7.914-7.405,8.519c0.408,0.059,0.814,0.124,1.238,0.124c4.774,0,8.645-3.869,8.645-8.643
			C109.57,142.45,105.699,138.58,100.925,138.58z"/>
		<path id="path-11_7_" style="fill:#EDEDED;" d="M179.044,105.059c0,5.882-4.768,10.649-10.65,10.649
			c-5.882,0-10.65-4.767-10.65-10.649c0-5.883,4.768-10.65,10.65-10.65C174.276,94.409,179.044,99.176,179.044,105.059z"/>
		<path id="path-12_5_" style="opacity:0.35;enable-background:new    ;" d="M175.397,97.092c2.218,1.951,3.647,4.779,3.647,7.967
			c0,5.882-4.768,10.649-10.65,10.649c-0.702,0-1.385-0.077-2.048-0.206c1.876,1.65,4.307,2.684,7.003,2.684
			c5.882,0,10.65-4.769,10.65-10.65C183.999,102.355,180.297,98.048,175.397,97.092z"/>
		<path id="path-13_4_" style="fill:#EDEDED;" d="M55.707,197.824c0,2.973-2.41,5.382-5.383,5.382s-5.382-2.409-5.382-5.382
			c0-2.972,2.409-5.382,5.382-5.382S55.707,194.852,55.707,197.824z"/>
		<path id="path-14_4_" style="opacity:0.35;enable-background:new    ;" d="M55.147,195.478c0.347,0.711,0.56,1.501,0.56,2.346
			c0,2.973-2.41,5.382-5.383,5.382c-0.845,0-1.634-0.212-2.346-0.558c0.874,1.792,2.696,3.035,4.824,3.035
			c2.972,0,5.381-2.408,5.381-5.382C58.183,198.174,56.939,196.352,55.147,195.478z"/>
		<path id="path-15_3_" style="opacity:0.35;enable-background:new    ;" d="M136.801,161.467c-0.933,0-1.865-0.36-2.574-1.074
			c-1.405-1.42-1.395-3.713,0.027-5.121l4.325-4.28c0.65-0.647,0.65-1.722-0.012-2.383c-1.75-1.751-2.703-4.172-2.61-6.646
			c0.084-2.365,1.118-4.613,2.847-6.221l26.206-31.008c1.292-1.526,3.573-1.718,5.102-0.427c1.528,1.291,1.718,3.574,0.428,5.101
			l-26.763,31.6c-0.486,0.42-0.576,0.945-0.585,1.221c-0.011,0.274,0.04,0.805,0.495,1.26c3.484,3.485,3.484,9.152,0,12.635
			l-4.339,4.296C138.644,161.118,137.722,161.467,136.801,161.467z"/>
		<path id="path-16_3_" style="fill:#2476FF;" d="M126.016,159.912c-0.927,0-1.853-0.354-2.56-1.061
			c-1.415-1.413-1.415-3.707,0-5.121l10.156-10.157c0.662-0.662,0.662-1.735,0-2.396c-1.75-1.749-2.701-4.171-2.611-6.642
			c0.09-2.473,1.215-4.82,3.087-6.437l29.829-25.781c1.512-1.305,3.796-1.141,5.108,0.373c1.306,1.514,1.14,3.799-0.373,5.107
			l-29.83,25.78c-0.486,0.419-0.575,0.943-0.585,1.22c-0.011,0.275,0.04,0.805,0.495,1.261c3.484,3.483,3.484,9.151,0,12.635
			l-10.156,10.158C127.869,159.558,126.941,159.912,126.016,159.912z"/>
		<path id="path-17_2_" style="opacity:0.35;enable-background:new    ;" d="M116.965,177.812L116.965,177.812
			c-1.976-1.977-1.976-5.181,0-7.156l10.734-10.736c1.976-1.976,5.18-1.976,7.156,0l0,0c1.976,1.976,1.976,5.18,0,7.157
			l-10.734,10.735C122.145,179.788,118.941,179.788,116.965,177.812z"/>
		<path id="path-18_2_" style="fill:#FF3A2F;" d="M112.01,170.38L112.01,170.38c-1.976-1.977-1.976-5.181,0-7.158l10.734-10.733
			c1.976-1.975,5.18-1.975,7.156,0l0,0c1.977,1.976,1.977,5.18,0,7.156l-10.734,10.735
			C117.19,172.356,113.986,172.356,112.01,170.38z"/>
		<path id="path-19_1_" style="fill:#FBB713;" d="M176.617,203.306h-13.283v-29.095h13.283V203.306z"/>
		<path id="path-20_1_" style="opacity:0.35;enable-background:new    ;" d="M176.617,176.688v26.618h-10.806v2.477h13.282v-29.095
			H176.617z"/>
	</g>
</g>
<g>
</g>
<g>
</g>
<g>
</g>
<g>
</g>
<g>
</g>
<g>
</g>
<g>
</g>
<g>
</g>
<g>
</g>
<g>
</g>
<g>
</g>
<g>
</g>
<g>
</g>
<g>
</g>
<g>
</g>
</svg>
