<?xml version="1.0" encoding="iso-8859-1"?>
<!-- Generator: Adobe Illustrator 19.1.0, SVG Export Plug-In . SVG Version: 6.00 Build 0)  -->
<svg version="1.1" id="Capa_1" xmlns="http://www.w3.org/2000/svg" xmlns:xlink="http://www.w3.org/1999/xlink" x="0px" y="0px"
	 viewBox="0 0 216.292 216.292" style="enable-background:new 0 0 216.292 216.292;" xml:space="preserve">
<g>
	<g id="group-4svg">
		<path id="path-1_102_" style="fill:#2476FF;" d="M192.232,177.214h5.332c1.028,0,1.861,1.07,1.861,2.391s-0.833,2.391-1.861,2.391
			h-0.248c-1.028,0-1.862,1.071-1.862,2.392c0,1.32,0.834,2.391,1.862,2.391h11.461c1.028,0,1.861,1.071,1.861,2.391
			c0,1.321-0.833,2.392-1.861,2.392h-13.774h-15.138c-1.029,0-1.862-1.071-1.862-2.392c0-1.32,0.833-2.391,1.862-2.391h3.18
			c1.028,0,1.862-1.071,1.862-2.391c0-1.321-0.834-2.392-1.862-2.392h-15.138c-1.028,0-1.861-1.07-1.861-2.391
			s0.833-2.391,1.861-2.391h3.578H192.232z"/>
		<path id="path-2_102_" style="fill:#2476FF;" d="M151.787,192.617c2.391,0,4.33-1.217,4.33-2.717c0-1.501-1.939-2.717-4.33-2.717
			h-13.266c-2.391,0-4.33,1.216-4.33,2.717c0,1.5,1.939,2.717,4.33,2.717H151.787z"/>
		<path id="path-3_102_" style="fill:#2476FF;" d="M50.428,201.036h8.927c1.721,0,3.116,1.138,3.116,2.543
			c0,1.404-1.395,2.542-3.116,2.542h-0.416c-1.721,0-3.116,1.138-3.116,2.543c0,1.404,1.395,2.542,3.116,2.542h19.189
			c1.721,0,3.116,1.139,3.116,2.543c0,1.404-1.395,2.543-3.116,2.543h-23.06H29.722c-1.72,0-3.116-1.139-3.116-2.543
			c0-1.404,1.396-2.543,3.116-2.543h5.326c1.721,0,3.116-1.138,3.116-2.542c0-1.405-1.395-2.543-3.116-2.543H9.702
			c-1.72,0-3.116-1.138-3.116-2.542c0-1.405,1.396-2.543,3.116-2.543h5.991H50.428z"/>
		<path id="path-4_101_" style="fill:#0CB04A;" d="M130.796,115.955c0-4.686-3.835-8.485-8.566-8.485h-8.564H66.431H49.727
			c-9.962,0-19.466,4.149-26.189,11.432l-8.585,9.301c-5.981,6.48-9.299,14.943-9.299,23.724v26.878
			c0,4.687,3.835,8.486,8.565,8.486H105.1c4.731,0,8.566-3.799,8.566-8.486v-41.104c0-4.686,3.834-8.485,8.564-8.485l0,0
			c4.731,0,8.566-3.799,8.566-8.485V115.955z"/>
		<path id="path-5_101_" style="fill:#FFFFFF;" d="M13.452,163.255c-2.009,0-3.639-1.614-3.639-3.605
			c0-9.704,3.641-18.993,10.252-26.156l8.586-9.301c7.393-8.01,17.917-12.604,28.873-12.604c2.009,0,3.639,1.615,3.639,3.606
			c0,1.991-1.63,3.605-3.639,3.605c-8.918,0-17.484,3.739-23.504,10.259l-8.585,9.3c-5.38,5.831-8.344,13.393-8.344,21.291
			C17.091,161.641,15.462,163.255,13.452,163.255z"/>
		<path id="path-6_100_" style="fill:#142A3B;" d="M87.351,94.721V34.388c0-12.777,10.455-23.134,23.351-23.134
			s23.352,10.357,23.352,23.134l27.033,136.506h10.975L145.413,34.388C145.413,15.396,129.872,0,110.702,0
			C91.531,0,75.991,15.396,75.991,34.388v60.333H87.351z"/>
		<path id="path-7_100_" style="opacity:0.4;enable-background:new    ;" d="M75.991,94.721h11.36v-8.92h-11.36V94.721z"/>
		<path id="path-8_97_" d="M160.546,167.068l0.541,3.826h10.975l-0.516-3.826H160.546z"/>
		<path id="path-9_92_" style="opacity:0.35;fill:#010101;enable-background:new    ;" d="M82.432,152.616
			c-14.517,0-26.286,11.658-26.286,26.04c0,3.031,0.55,5.928,1.511,8.635H105.1c0.776,0,1.512-0.136,2.227-0.326
			c0.889-2.613,1.391-5.4,1.391-8.309C108.718,164.274,96.949,152.616,82.432,152.616z"/>
		<path id="path-10_84_" style="fill:#FF3A2F;" d="M103.593,107.47H58.961V93.88h44.632V107.47z"/>
		<path id="path-11_74_" style="fill:#142A3B;" d="M104.82,186.38c0,14.382-11.769,26.041-26.287,26.041
			c-14.517,0-26.286-11.659-26.286-26.041c0-14.381,11.769-26.04,26.286-26.04C93.051,160.34,104.82,171.999,104.82,186.38z"/>
		<path id="path-12_63_" style="fill:#FF3A2F;" d="M87.825,186.38c0,5.084-4.16,9.206-9.292,9.206c-5.131,0-9.291-4.122-9.291-9.206
			s4.16-9.204,9.291-9.204C83.665,177.176,87.825,181.296,87.825,186.38z"/>
		<path id="path-13_51_" style="fill:#142A3B;" d="M112.656,141.004H84.469c-1.006,0-1.82-0.807-1.82-1.802s0.814-1.802,1.82-1.802
			h28.187c1.006,0,1.819,0.807,1.819,1.802S113.662,141.004,112.656,141.004z"/>
		<path id="path-14_41_" style="fill:#FF3A2F;" d="M198.942,179.299h-68.146v-8.405h68.146V179.299z"/>
	</g>
</g>
<g>
</g>
<g>
</g>
<g>
</g>
<g>
</g>
<g>
</g>
<g>
</g>
<g>
</g>
<g>
</g>
<g>
</g>
<g>
</g>
<g>
</g>
<g>
</g>
<g>
</g>
<g>
</g>
<g>
</g>
</svg>
