<?xml version="1.0" encoding="iso-8859-1"?>
<!-- Generator: Adobe Illustrator 19.1.0, SVG Export Plug-In . SVG Version: 6.00 Build 0)  -->
<svg version="1.1" id="Capa_1" xmlns="http://www.w3.org/2000/svg" xmlns:xlink="http://www.w3.org/1999/xlink" x="0px" y="0px"
	 viewBox="0 0 217.21 217.21" style="enable-background:new 0 0 217.21 217.21;" xml:space="preserve">
<g>
	<g id="group-116svg">
		<path id="path-1_19_" style="fill:#FF3A2F;" d="M116.89,197.756h-10.745c-2.072,0-3.752,1.39-3.752,3.103
			c0,1.715,1.68,3.105,3.752,3.105h0.501c2.071,0,3.75,1.389,3.75,3.104c0,1.713-1.679,3.103-3.75,3.103h-23.1
			c-2.072,0-3.751,1.389-3.751,3.104c0,1.715,1.679,3.104,3.751,3.104h27.759h56.739c2.072,0,3.752-1.389,3.752-3.104
			c0-1.715-1.68-3.104-3.752-3.104h-6.41c-2.072,0-3.752-1.39-3.752-3.103c0-1.715,1.68-3.104,3.752-3.104h25.178
			c2.072,0,3.751-1.39,3.751-3.105c0-1.713-1.679-3.103-3.751-3.103h-1.879H116.89z"/>
		<path id="path-2_19_" style="fill:#FF3A2F;" d="M183.532,217.21c-1.737,0-3.145-1.489-3.145-3.326
			c0-1.837,1.408-3.327,3.145-3.327h9.638c1.736,0,3.144,1.49,3.144,3.327c0,1.837-1.408,3.326-3.144,3.326H183.532z"/>
		<path id="path-3_19_" style="fill:#142A3B;" d="M40.676,181.884c-2.001,0-3.62-1.621-3.62-3.62V122.03c0-2,1.619-3.621,3.62-3.621
			s3.62,1.621,3.62,3.621v56.234C44.296,180.263,42.677,181.884,40.676,181.884z"/>
		<path id="path-4_19_" style="fill:#142A3B;" d="M40.676,78.788c-2.001,0-3.62-1.621-3.62-3.62V18.933
			c0-1.998,1.619-3.619,3.62-3.619s3.62,1.621,3.62,3.619v56.235C44.296,77.167,42.677,78.788,40.676,78.788z"/>
		<circle id="circle-1" style="fill:#142A3B;" cx="41.887" cy="15" r="15"/>
		<circle id="circle-2" style="fill:#142A3B;" cx="41.887" cy="184" r="15"/>
		<path id="path-5_19_" style="fill:#142A3B;" d="M43.059,82.286c-0.307,0-0.619-0.039-0.926-0.121
			c-1.934-0.51-3.087-2.489-2.578-4.423c9.429-35.76,41.873-60.736,78.894-60.736c2.001,0,3.62,1.621,3.62,3.621
			s-1.619,3.622-3.62,3.622c-33.737,0-63.302,22.755-71.893,55.338C46.128,81.212,44.66,82.286,43.059,82.286z"/>
		<path id="path-6_19_" style="fill:#142A3B;" d="M118.449,180.19c-37.035,0-69.485-24.99-78.911-60.771
			c-0.51-1.935,0.643-3.914,2.577-4.424c1.937-0.507,3.914,0.642,4.423,2.579c8.588,32.604,38.16,55.376,71.911,55.376
			c2.001,0,3.62,1.621,3.62,3.62C122.069,178.569,120.45,180.19,118.449,180.19z"/>
		<path id="path-7_19_" style="fill:#FF3A2F;" d="M63.074,122.03H25.583c-2.591,0-4.686-2.095-4.686-4.686V79.853
			c0-2.59,2.095-4.685,4.686-4.685h37.491c2.591,0,4.686,2.095,4.686,4.685v37.491C67.76,119.935,65.665,122.03,63.074,122.03z"/>
		<path id="path-8_15_" style="fill:#FBB713;" d="M156.799,47.051h-37.49c-2.591,0-4.687-2.095-4.687-4.686V4.876
			c0-2.59,2.096-4.687,4.687-4.687h37.49c2.591,0,4.686,2.097,4.686,4.687v37.489C161.486,44.956,159.391,47.051,156.799,47.051z"/>
		<path id="path-9_14_" style="fill:#FBB713;" d="M156.799,197.008h-37.49c-2.591,0-4.687-2.096-4.687-4.687v-37.488
			c0-2.591,2.096-4.686,4.687-4.686h37.49c2.591,0,4.686,2.095,4.686,4.686v37.488C161.486,194.912,159.391,197.008,156.799,197.008
			z"/>
	</g>
</g>
<g>
</g>
<g>
</g>
<g>
</g>
<g>
</g>
<g>
</g>
<g>
</g>
<g>
</g>
<g>
</g>
<g>
</g>
<g>
</g>
<g>
</g>
<g>
</g>
<g>
</g>
<g>
</g>
<g>
</g>
</svg>
