<?xml version="1.0" encoding="iso-8859-1"?>
<!-- Generator: Adobe Illustrator 18.0.0, SVG Export Plug-In . SVG Version: 6.00 Build 0)  -->
<!DOCTYPE svg PUBLIC "-//W3C//DTD SVG 1.1//EN" "http://www.w3.org/Graphics/SVG/1.1/DTD/svg11.dtd">
<svg version="1.1" id="Capa_1" xmlns="http://www.w3.org/2000/svg" xmlns:xlink="http://www.w3.org/1999/xlink" x="0px" y="0px"
	 viewBox="0 0 60 60" style="enable-background:new 0 0 60 60;" xml:space="preserve">
<g>
	<g>
		<path style="fill:#7383BF;" d="M15.265,18.877c-0.578,0.377-1.148,0.781-1.694,1.201c-0.438,0.336-0.521,0.964-0.184,1.402
			c0.197,0.257,0.494,0.391,0.793,0.391c0.213,0,0.427-0.067,0.608-0.207c0.506-0.388,1.034-0.762,1.569-1.112
			c0.462-0.302,0.593-0.921,0.291-1.384C16.348,18.706,15.727,18.575,15.265,18.877z"/>
		<path style="fill:#7383BF;" d="M10.483,22.847c-0.479,0.5-0.941,1.023-1.376,1.554c-0.35,0.427-0.288,1.057,0.14,1.407
			c0.186,0.152,0.41,0.227,0.633,0.227c0.289,0,0.576-0.125,0.774-0.366c0.403-0.492,0.832-0.976,1.275-1.439
			c0.382-0.399,0.368-1.032-0.031-1.414C11.498,22.434,10.865,22.449,10.483,22.847z"/>
		<path style="fill:#7383BF;" d="M4.134,38.665c-0.553-0.033-1.029,0.376-1.067,0.928C3.022,40.222,3,40.858,3,41.5
			c0,0.552,0.448,1,1,1s1-0.448,1-1c0-0.595,0.021-1.184,0.062-1.768C5.1,39.181,4.685,38.703,4.134,38.665z"/>
		<path style="fill:#7383BF;" d="M8.1,27.448c-0.476-0.281-1.089-0.123-1.37,0.353c-0.35,0.594-0.682,1.208-0.985,1.827
			c-0.243,0.496-0.039,1.095,0.458,1.338c0.142,0.069,0.292,0.102,0.439,0.102c0.37,0,0.725-0.206,0.899-0.56
			c0.281-0.573,0.588-1.142,0.912-1.691C8.734,28.341,8.576,27.729,8.1,27.448z"/>
		<path style="fill:#7383BF;" d="M27,14.694V14.5H7v2h12.853c-0.316,0.128-0.636,0.244-0.947,0.384
			c-0.503,0.227-0.728,0.819-0.5,1.323c0.167,0.37,0.531,0.589,0.912,0.589c0.138,0,0.277-0.029,0.411-0.089
			c0.585-0.264,1.185-0.507,1.782-0.723c0.52-0.187,0.789-0.76,0.601-1.28c-0.028-0.078-0.08-0.138-0.124-0.205h2.181
			c0.179,0.295,0.502,0.482,0.855,0.482c0.063,0,0.127-0.006,0.191-0.018c0.628-0.122,1.268-0.22,1.9-0.293
			c0.549-0.063,0.942-0.559,0.879-1.108C27.934,15.054,27.495,14.696,27,14.694z"/>
		<path style="fill:#7383BF;" d="M5.463,32.825c-0.528-0.163-1.087,0.13-1.252,0.658c-0.205,0.66-0.386,1.334-0.539,2.006
			c-0.123,0.539,0.215,1.075,0.753,1.197C4.5,36.703,4.575,36.71,4.648,36.71c0.457,0,0.869-0.314,0.974-0.778
			c0.141-0.621,0.309-1.246,0.499-1.855C6.285,33.549,5.99,32.989,5.463,32.825z"/>
		<path style="fill:#7383BF;" d="M56.921,39.427c-0.042-0.551-0.516-0.96-1.073-0.921c-0.551,0.042-0.963,0.522-0.921,1.073
			C54.976,40.212,55,40.858,55,41.5c0,0.552,0.448,1,1,1s1-0.448,1-1C57,40.808,56.974,40.11,56.921,39.427z"/>
		<path style="fill:#7383BF;" d="M54.181,29.477c-0.31-0.62-0.646-1.233-0.999-1.822c-0.284-0.473-0.898-0.628-1.372-0.343
			c-0.474,0.284-0.627,0.898-0.343,1.372c0.326,0.544,0.637,1.112,0.923,1.686c0.175,0.351,0.529,0.554,0.896,0.554
			c0.15,0,0.302-0.034,0.445-0.105C54.226,30.571,54.427,29.971,54.181,29.477z"/>
		<path style="fill:#7383BF;" d="M55.545,36.528c0.538-0.126,0.872-0.664,0.746-1.202c-0.157-0.671-0.343-1.345-0.551-2.002
			c-0.168-0.527-0.732-0.817-1.256-0.65c-0.526,0.167-0.817,0.729-0.65,1.256c0.193,0.608,0.365,1.231,0.51,1.853
			c0.108,0.461,0.519,0.772,0.973,0.772C55.392,36.555,55.468,36.546,55.545,36.528z"/>
		<path style="fill:#7383BF;" d="M40.941,16.816c-0.258-0.115-0.529-0.209-0.793-0.316H53v-2H33v0.194
			c-0.496,0-0.934,0.36-0.993,0.869c-0.064,0.548,0.329,1.045,0.878,1.108c0.591,0.069,1.176,0.157,1.753,0.266
			c0.063,0.012,0.125,0.017,0.186,0.017c0.339,0,0.647-0.178,0.829-0.454h2.179c-0.031,0.053-0.073,0.096-0.094,0.156
			c-0.185,0.521,0.087,1.092,0.608,1.277c0.604,0.214,1.204,0.454,1.785,0.711c0.132,0.059,0.27,0.086,0.405,0.086
			c0.383,0,0.75-0.222,0.915-0.595C41.674,17.63,41.446,17.04,40.941,16.816z"/>
		<path style="fill:#7383BF;" d="M44.592,18.785c-0.464-0.299-1.083-0.165-1.382,0.299c-0.299,0.464-0.165,1.083,0.299,1.382
			c0.539,0.347,1.069,0.718,1.577,1.102c0.181,0.137,0.393,0.203,0.603,0.203c0.303,0,0.602-0.137,0.798-0.396
			c0.333-0.44,0.247-1.067-0.194-1.401C45.746,19.559,45.173,19.159,44.592,18.785z"/>
		<path style="fill:#7383BF;" d="M49.397,22.724c-0.384-0.397-1.018-0.407-1.414-0.022c-0.397,0.384-0.407,1.017-0.022,1.414
			c0.442,0.457,0.874,0.938,1.284,1.432c0.198,0.238,0.482,0.361,0.77,0.361c0.225,0,0.452-0.076,0.639-0.231
			c0.425-0.353,0.483-0.983,0.13-1.408C50.342,23.737,49.875,23.217,49.397,22.724z"/>
	</g>
	<g>
		<rect x="1" y="41.5" style="fill:#434C6D;" width="6" height="6"/>
		<path style="fill:#434C6D;" d="M8,48.5H0v-8h8V48.5z M2,46.5h4v-4H2V46.5z"/>
	</g>
	<g>
		<rect x="53" y="41.5" style="fill:#434C6D;" width="6" height="6"/>
		<path style="fill:#434C6D;" d="M60,48.5h-8v-8h8V48.5z M54,46.5h4v-4h-4V46.5z"/>
	</g>
	<g>
		<rect x="27" y="12.5" style="fill:#434C6D;" width="6" height="6"/>
		<path style="fill:#434C6D;" d="M34,19.5h-8v-8h8V19.5z M28,17.5h4v-4h-4V17.5z"/>
	</g>
	<g>
		<circle style="fill:#26B99A;" cx="4" cy="15.5" r="3"/>
		<path style="fill:#26B99A;" d="M4,19.5c-2.206,0-4-1.794-4-4s1.794-4,4-4s4,1.794,4,4S6.206,19.5,4,19.5z M4,13.5
			c-1.103,0-2,0.897-2,2s0.897,2,2,2s2-0.897,2-2S5.103,13.5,4,13.5z"/>
	</g>
	<g>
		<circle style="fill:#26B99A;" cx="56" cy="15.5" r="3"/>
		<path style="fill:#26B99A;" d="M56,19.5c-2.206,0-4-1.794-4-4s1.794-4,4-4s4,1.794,4,4S58.206,19.5,56,19.5z M56,13.5
			c-1.103,0-2,0.897-2,2s0.897,2,2,2s2-0.897,2-2S57.103,13.5,56,13.5z"/>
	</g>
</g>
<g>
</g>
<g>
</g>
<g>
</g>
<g>
</g>
<g>
</g>
<g>
</g>
<g>
</g>
<g>
</g>
<g>
</g>
<g>
</g>
<g>
</g>
<g>
</g>
<g>
</g>
<g>
</g>
<g>
</g>
</svg>
