<?xml version="1.0" encoding="iso-8859-1"?>
<!-- Generator: Adobe Illustrator 19.1.0, SVG Export Plug-In . SVG Version: 6.00 Build 0)  -->
<svg version="1.1" id="Capa_1" xmlns="http://www.w3.org/2000/svg" xmlns:xlink="http://www.w3.org/1999/xlink" x="0px" y="0px"
	 viewBox="0 0 217.345 217.345" style="enable-background:new 0 0 217.345 217.345;" xml:space="preserve">
<g>
	<g id="group-124svg">
		<path id="path-1_28_" style="fill:#FF3A2F;" d="M60.473,186.189H43.457c-3.282,0-5.941,2.014-5.941,4.498
			c0,2.482,2.659,4.495,5.941,4.495h0.791c3.281,0,5.941,2.013,5.941,4.496s-2.66,4.497-5.941,4.497H7.667
			c-3.28,0-5.94,2.012-5.94,4.495c0,2.484,2.66,4.497,5.94,4.497h43.961h89.857c3.28,0,5.94-2.013,5.94-4.497
			c0-2.483-2.66-4.495-5.94-4.495h-10.153c-3.281,0-5.941-2.014-5.941-4.497s2.66-4.496,5.941-4.496h39.874
			c3.281,0,5.941-2.013,5.941-4.495c0-2.484-2.66-4.498-5.941-4.498h-2.976H60.473z"/>
		<path id="path-2_28_" style="fill:#FF3A2F;" d="M166.011,214.372c-2.751,0-4.981-2.158-4.981-4.819c0-2.661,2.23-4.82,4.981-4.82
			h15.263c2.751,0,4.981,2.159,4.981,4.82c0,2.661-2.23,4.819-4.981,4.819H166.011z"/>
		<path id="path-3_28_" style="fill:#142A3B;" d="M86.09,26.921H25.103c-1.999,0-3.62-1.621-3.62-3.62c0-2,1.621-3.621,3.62-3.621
			H86.09c2,0,3.62,1.621,3.62,3.621C89.71,25.3,88.09,26.921,86.09,26.921z"/>
		<path id="path-4_28_" style="fill:#142A3B;" d="M197.903,26.921h-60.99c-1.999,0-3.62-1.621-3.62-3.62c0-2,1.621-3.621,3.62-3.621
			h60.99c2,0,3.621,1.621,3.621,3.621C201.524,25.3,199.903,26.921,197.903,26.921z"/>
		<path id="path-5_28_" style="fill:#FBB713;" d="M200.364,39.361c-8.409,0-15.247-6.84-15.247-15.247
			c0-8.408,6.838-15.245,15.247-15.245c8.407,0,15.247,6.837,15.247,15.245C215.611,32.521,208.771,39.361,200.364,39.361z"/>
		<path id="path-6_28_" style="fill:#FBB713;" d="M17.4,39.361c-8.409,0-15.247-6.84-15.247-15.247
			c0-8.408,6.838-15.245,15.247-15.245c8.407,0,15.247,6.837,15.247,15.245C32.647,32.521,25.807,39.361,17.4,39.361z"/>
		<path id="path-7_27_" style="fill:#142A3B;" d="M213.725,120.307c-2,0-3.621-1.622-3.621-3.622
			c0-44.421-31.711-82.22-75.404-89.878c-1.969-0.345-3.284-2.221-2.939-4.192c0.342-1.969,2.202-3.281,4.191-2.94
			c47.161,8.264,81.393,49.065,81.393,97.01C217.345,118.685,215.724,120.307,213.725,120.307z"/>
		<path id="path-8_20_" style="fill:#142A3B;" d="M3.62,120.307c-1.999,0-3.62-1.622-3.62-3.622
			c0-47.944,34.223-88.744,81.375-97.01c1.986-0.343,3.846,0.971,4.192,2.94c0.347,1.969-0.97,3.847-2.939,4.192
			C38.944,34.465,7.241,72.264,7.241,116.685C7.241,118.685,5.62,120.307,3.62,120.307z"/>
		<path id="path-9_18_" style="fill:#FBB713;" d="M70.704,185.277l-12.705-50.189c-0.358-1.378-0.11-2.838,0.675-4.027l45.74-69.88
			c1.867-2.871,6.632-2.871,8.499,0l45.74,69.88c0.784,1.189,1.032,2.649,0.675,4.027l-12.706,50.189l0,0"/>
		<path id="path-10_16_" style="opacity:0.35;enable-background:new    ;" d="M158.653,131.061l-45.74-69.881
			c-1.867-2.87-6.632-2.87-8.499,0l-2.892,4.419l40.054,61.193c0.784,1.189,1.032,2.649,0.676,4.029l-12.706,50.186H69.623
			l1.081,4.27h75.918l12.706-50.189C159.685,133.71,159.437,132.25,158.653,131.061z"/>
		<path id="path-11_13_" style="fill:#142A3B;" d="M108.663,148.918c-1.999,0-3.62-1.621-3.62-3.619V63.984
			c0-2,1.621-3.621,3.62-3.621c2,0,3.621,1.621,3.621,3.621v81.315C112.284,147.297,110.663,148.918,108.663,148.918z"/>
		<path id="path-12_10_" style="fill:#FF3A2F;" d="M108.663,164.966c-8.407,0-15.247-6.839-15.247-15.245
			c0-8.408,6.84-15.248,15.247-15.248c8.408,0,15.247,6.84,15.247,15.248C123.91,158.127,117.071,164.966,108.663,164.966z"/>
		<path id="path-13_9_" style="opacity:0.35;enable-background:new    ;" d="M117.087,137.029c1.608,2.416,2.554,5.309,2.554,8.422
			c0,8.408-6.839,15.248-15.247,15.248c-3.114,0-6.007-0.947-8.423-2.556c2.735,4.107,7.399,6.823,12.692,6.823
			c8.408,0,15.247-6.839,15.247-15.245C123.91,144.427,121.193,139.763,117.087,137.029z"/>
		<path id="path-14_7_" style="fill:#142A3B;" d="M152.974,189.553H61.491c-1.999,0-3.62-1.621-3.62-3.621
			c0-1.999,1.621-3.62,3.62-3.62h91.483c1.999,0,3.62,1.621,3.62,3.62C156.594,187.932,154.973,189.553,152.974,189.553z"/>
		<path id="path-15_6_" style="fill:#FF3A2F;" d="M131.832,53.795H91.173c-2.81,0-5.083-2.274-5.083-5.083V8.055
			c0-2.81,2.273-5.082,5.083-5.082h40.659c2.809,0,5.082,2.272,5.082,5.082v40.657C136.914,51.521,134.641,53.795,131.832,53.795z"
			/>
	</g>
</g>
<g>
</g>
<g>
</g>
<g>
</g>
<g>
</g>
<g>
</g>
<g>
</g>
<g>
</g>
<g>
</g>
<g>
</g>
<g>
</g>
<g>
</g>
<g>
</g>
<g>
</g>
<g>
</g>
<g>
</g>
</svg>
