<?xml version="1.0" encoding="iso-8859-1"?>
<!-- Generator: Adobe Illustrator 19.1.0, SVG Export Plug-In . SVG Version: 6.00 Build 0)  -->
<svg version="1.1" id="Capa_1" xmlns="http://www.w3.org/2000/svg" xmlns:xlink="http://www.w3.org/1999/xlink" x="0px" y="0px"
	 viewBox="0 0 217.222 217.222" style="enable-background:new 0 0 217.222 217.222;" xml:space="preserve">
<g>
	<g id="group-13svg">
		<path id="path-1_34_" style="fill:#142A3B;" d="M119.982,19.083v-5.528c0-1.066-1.633-1.929-3.648-1.929s-3.649,0.863-3.649,1.929
			v0.258c0,1.066-1.634,1.929-3.649,1.929c-2.014,0-3.648-0.863-3.648-1.929V1.93c0-1.066-1.634-1.93-3.649-1.93
			c-2.016,0-3.649,0.864-3.649,1.93v14.28V45.4c0,1.065,1.633,1.929,3.649,1.929c2.015,0,3.649-0.864,3.649-1.929v-3.299
			c0-1.066,1.634-1.929,3.648-1.929c2.015,0,3.649,0.863,3.649,1.929v15.696c0,1.066,1.634,1.93,3.649,1.93s3.648-0.864,3.648-1.93
			v-3.709V19.083z"/>
		<path id="path-2_34_" style="fill:#142A3B;" d="M83.661,21.427v-2.714c0-0.524-0.803-0.947-1.792-0.947s-1.792,0.423-1.792,0.947
			v0.126c0,0.523-0.802,0.948-1.791,0.948s-1.792-0.425-1.792-0.948v-5.834c0-0.524-0.802-0.948-1.791-0.948
			s-1.792,0.424-1.792,0.948v7.011v14.332c0,0.523,0.803,0.948,1.792,0.948s1.791-0.425,1.791-0.948v-1.619
			c0-0.524,0.803-0.948,1.792-0.948s1.791,0.424,1.791,0.948v7.706c0,0.523,0.803,0.948,1.792,0.948s1.792-0.425,1.792-0.948v-1.821
			V21.427z"/>
		<path id="path-3_34_" style="fill:#142A3B;" d="M98.325,66.549c0-2.769,1.8-5.013,4.022-5.013c2.22,0,4.021,2.244,4.021,5.013
			v15.364c0,2.769-1.801,5.014-4.021,5.014c-2.222,0-4.022-2.245-4.022-5.014V66.549z"/>
		<path id="path-4_34_" style="fill:#142A3B;" d="M138.279,21.871c0-2.88,1.873-5.216,4.183-5.216c2.311,0,4.184,2.336,4.184,5.216
			v15.984c0,2.881-1.873,5.217-4.184,5.217c-2.31,0-4.183-2.336-4.183-5.217V21.871z"/>
		<path id="path-5_34_" style="fill:#142A3B;" d="M205.587,211.005c-29.151-36.449-24.25-80.859-24.198-81.299
			c0.128-1.083-0.217-2.178-0.934-2.996c-0.732-0.815-1.771-1.289-2.869-1.289h-5.588h-29.077
			c2.152,21.194,9.429,52.392,32.155,80.811c2.481,3.104,3.048,7.284,1.733,10.99h25.79c1.464,0,2.809-0.845,3.444-2.163
			C206.678,213.729,206.499,212.155,205.587,211.005z"/>
		<path id="path-6_33_" style="opacity:0.35;fill:#090908;enable-background:new    ;" d="M189.674,211.005
			c-29.151-36.449-24.25-80.858-24.197-81.298c0.127-1.085-0.218-2.179-0.934-2.997c-0.732-0.815-1.771-1.289-2.869-1.289h-5.588
			h-14.303c1.098,0,2.137,0.474,2.869,1.289c0.717,0.818,1.061,1.912,0.934,2.997c-0.052,0.44-4.953,44.849,24.198,81.298
			c0.912,1.151,1.091,2.724,0.456,4.054c-0.634,1.318-1.98,2.163-3.444,2.163h19.891c1.464,0,2.809-0.845,3.444-2.163
			C190.766,213.729,190.587,212.156,189.674,211.005z"/>
		<path id="path-7_32_" style="fill:#142A3B;" d="M73.928,125.421H60.13h-20.5c-1.091,0-2.13,0.474-2.854,1.289
			c-0.732,0.818-1.069,1.913-0.942,2.996c0.053,0.44,4.954,44.85-24.191,81.299c-0.927,1.15-1.098,2.724-0.462,4.054
			c0.642,1.318,1.971,2.163,3.45,2.163h25.395c-1.308-3.721-0.74-7.897,1.74-10.994C64.508,177.779,71.784,146.604,73.928,125.421z"
			/>
		<path id="path-8_24_" style="opacity:0.35;fill:#090908;enable-background:new    ;" d="M46.984,215.059
			c-0.635-1.33-0.464-2.903,0.463-4.054c29.144-36.449,24.243-80.858,24.19-81.298c-0.127-1.085,0.21-2.179,0.942-2.997
			c0.724-0.815,1.763-1.289,2.853-1.289H59.52c-1.091,0-2.129,0.474-2.854,1.289c-0.732,0.818-1.068,1.912-0.941,2.997
			c0.053,0.44,4.953,44.849-24.191,81.298c-0.926,1.151-1.097,2.724-0.463,4.054c0.643,1.318,1.972,2.163,3.451,2.163h15.913
			C48.956,217.222,47.626,216.377,46.984,215.059z"/>
		<path id="path-9_21_" style="fill:#FF3A2F;" d="M149.646,99.125c0.134-1.088-0.209-2.185-0.926-3.008
			c-0.732-0.821-1.779-1.296-2.869-1.296H74.683c-1.106,0-2.152,0.475-2.869,1.296c-0.733,0.825-1.068,1.924-0.927,3.011
			c0.075,0.594,7.098,60.195-34.217,111.877c-0.926,1.15-1.098,2.724-0.463,4.054c0.643,1.318,1.972,2.163,3.452,2.163h141.216
			c1.464,0,2.809-0.845,3.444-2.163c0.635-1.33,0.455-2.904-0.456-4.054C142.624,159.425,149.572,99.722,149.646,99.125z"/>
		<path id="path-10_19_" style="fill:#EDEDED;" d="M67.433,183.339c-0.53,0-1.069-0.116-1.578-0.363
			c-1.8-0.873-2.549-3.038-1.678-4.838c11.85-24.422,13.409-48.144,12.628-63.743c-0.099-1.997,1.438-3.695,3.436-3.796
			c1.959-0.153,3.695,1.438,3.797,3.436c0.821,16.443-0.827,41.462-13.345,67.265C70.067,182.59,68.777,183.339,67.433,183.339z"/>
		<path id="path-11_15_" style="opacity:0.25;fill:#090908;enable-background:new    ;" d="M183.863,211.005
			c-41.24-51.581-34.291-111.283-34.217-111.88c0.134-1.088-0.209-2.185-0.926-3.008c-0.732-0.821-1.779-1.296-2.869-1.296h-15.912
			c1.09,0,2.136,0.475,2.868,1.296c0.717,0.823,1.061,1.92,0.926,3.008c-0.074,0.597-7.022,60.299,34.217,111.88
			c0.911,1.151,1.091,2.724,0.456,4.054c-0.635,1.318-1.979,2.163-3.444,2.163h15.913c1.464,0,2.809-0.845,3.444-2.163
			C184.954,213.729,184.774,212.156,183.863,211.005z"/>
	</g>
</g>
<g>
</g>
<g>
</g>
<g>
</g>
<g>
</g>
<g>
</g>
<g>
</g>
<g>
</g>
<g>
</g>
<g>
</g>
<g>
</g>
<g>
</g>
<g>
</g>
<g>
</g>
<g>
</g>
<g>
</g>
</svg>
