<?xml version="1.0" encoding="iso-8859-1"?>
<!-- Generator: Adobe Illustrator 19.1.0, SVG Export Plug-In . SVG Version: 6.00 Build 0)  -->
<svg version="1.1" id="Capa_1" xmlns="http://www.w3.org/2000/svg" xmlns:xlink="http://www.w3.org/1999/xlink" x="0px" y="0px"
	 viewBox="0 0 217.229 217.229" style="enable-background:new 0 0 217.229 217.229;" xml:space="preserve">
<g>
	<g id="group-133svg">
		<path id="path-1_38_" style="fill:#FBB713;" d="M69.157,149.056H49.125c-3.863,0-6.994,2.369-6.994,5.291
			c0,2.924,3.131,5.293,6.994,5.293h0.933c3.862,0,6.993,2.371,6.993,5.294c0,2.923-3.131,5.294-6.993,5.294H6.994
			c-3.863,0-6.994,2.37-6.994,5.292c0,2.924,3.131,5.293,6.994,5.293h51.751h105.78c3.862,0,6.993-2.369,6.993-5.293
			c0-2.922-3.131-5.292-6.993-5.292h-11.952c-3.863,0-6.994-2.371-6.994-5.294c0-2.923,3.131-5.294,6.994-5.294h46.94
			c3.862,0,6.994-2.369,6.994-5.293c0-2.922-3.132-5.291-6.994-5.291h-3.503H69.157z"/>
		<path id="path-2_38_" style="fill:#FBB713;" d="M193.398,182.231c-3.238,0-5.864-2.539-5.864-5.673
			c0-3.132,2.626-5.672,5.864-5.672h17.967c3.239,0,5.864,2.54,5.864,5.672c0,3.134-2.625,5.673-5.864,5.673H193.398z"/>
		<path id="path-3_38_" style="fill:#142A3B;" d="M64.889,141.439H51.337c-1.786,0-3.333-1.238-3.72-2.984L32.384,69.908
			c-0.245-1.128,0.023-2.306,0.752-3.214c0.721-0.896,1.814-1.421,2.967-1.421h159.951c1.153,0,2.246,0.525,2.968,1.421
			c0.729,0.908,0.997,2.086,0.751,3.214l-15.233,68.547c-0.387,1.746-1.934,2.984-3.719,2.984h-9.298l0,0"/>
		<path id="path-4_38_" style="opacity:0.35;enable-background:new    ;" d="M199.022,66.694c-0.722-0.896-1.815-1.421-2.968-1.421
			h-15.59c-1.764,0-3.291,1.226-3.674,2.948l-12.617,56.776c-0.77,3.466-3.844,5.931-7.394,5.931h-6.278H50.636
			c-2.408,0-4.196,2.229-3.674,4.58l0,0c0.77,3.465,3.844,5.931,7.394,5.931h10.533h106.634h6.279c3.549,0,6.623-2.466,7.393-5.931
			l14.578-65.6C200.019,68.78,199.751,67.602,199.022,66.694z"/>
		<circle id="circle-1_2_" style="fill:#FF3A2F;" cx="78.992" cy="138.03" r="16"/>
		<circle id="circle-2_2_" style="fill:#FF3A2F;" cx="154.992" cy="138.03" r="16"/>
		<path id="path-5_38_" style="opacity:0.35;enable-background:new    ;" d="M80.949,122.696c3.203,2.794,5.272,6.856,5.272,11.431
			c0,8.398-6.836,15.234-15.233,15.234c-1.011,0-1.996-0.11-2.953-0.299c2.679,2.335,6.137,3.801,9.96,3.801
			c8.397,0,15.233-6.835,15.233-15.232C93.228,130.241,87.937,124.077,80.949,122.696z"/>
		<path id="path-6_37_" style="opacity:0.35;enable-background:new    ;" d="M157.116,122.696c3.203,2.794,5.272,6.856,5.272,11.431
			c0,8.398-6.836,15.234-15.233,15.234c-1.011,0-1.996-0.11-2.953-0.299c2.679,2.335,6.137,3.801,9.96,3.801
			c8.398,0,15.234-6.835,15.234-15.232C169.396,130.241,164.104,124.077,157.116,122.696z"/>
		<path id="path-7_36_" style="fill:#FBB713;" d="M54.688,60.443l59.344-25.042c1.271-0.537,2.822-0.537,4.094,0l59.343,25.042
			c3.768,1.589,2.271,5.918-2.048,5.918H56.736C52.418,66.361,50.921,62.032,54.688,60.443z"/>
		<path id="path-8_27_" style="opacity:0.25;enable-background:new    ;" d="M177.469,60.443l-59.343-25.042
			c-1.272-0.537-2.823-0.537-4.094,0l-4.96,2.093l54.382,22.949c3.768,1.589,2.271,5.918-2.047,5.918h14.014
			C179.74,66.361,181.237,62.032,177.469,60.443z"/>
		<path id="path-9_24_" style="fill:#EDEDED;" d="M74.435,62.852c-1.418,0-2.762-0.839-3.342-2.227
			c-0.77-1.846,0.103-3.966,1.949-4.735l34.635-14.43c1.845-0.771,3.963,0.1,4.734,1.948c0.77,1.846-0.103,3.965-1.948,4.733
			l-34.635,14.43C75.372,62.763,74.902,62.852,74.435,62.852z"/>
	</g>
</g>
<g>
</g>
<g>
</g>
<g>
</g>
<g>
</g>
<g>
</g>
<g>
</g>
<g>
</g>
<g>
</g>
<g>
</g>
<g>
</g>
<g>
</g>
<g>
</g>
<g>
</g>
<g>
</g>
<g>
</g>
</svg>
