<?xml version="1.0" encoding="iso-8859-1"?>
<!-- Generator: Adobe Illustrator 19.1.0, SVG Export Plug-In . SVG Version: 6.00 Build 0)  -->
<svg version="1.1" id="Capa_1" xmlns="http://www.w3.org/2000/svg" xmlns:xlink="http://www.w3.org/1999/xlink" x="0px" y="0px"
	 viewBox="0 0 218.332 218.332" style="enable-background:new 0 0 218.332 218.332;" xml:space="preserve">
<g>
	<g id="group-3svg">
		<path id="path-1_91_" style="fill:#2476FF;" d="M134.323,144.578h24.334c4.693,0,8.495,2.386,8.495,5.332
			c0,2.945-3.802,5.332-8.495,5.332h-1.132c-4.692,0-8.495,2.387-8.495,5.333c0,2.944,3.803,5.332,8.495,5.332h52.312
			c4.692,0,8.495,2.387,8.495,5.332s-3.803,5.333-8.495,5.333h-62.866H77.876c-4.693,0-8.496-2.388-8.496-5.333
			s3.803-5.332,8.496-5.332h14.518c4.691,0,8.495-2.388,8.495-5.332c0-2.946-3.804-5.333-8.495-5.333H23.297
			c-4.692,0-8.495-2.387-8.495-5.332c0-2.946,3.803-5.332,8.495-5.332h16.33H134.323z"/>
		<path id="path-2_91_" style="fill:#FF3A2F;" d="M46.25,172.638c4.691,0,8.495-2.387,8.495-5.332s-3.804-5.332-8.495-5.332H20.216
			c-4.692,0-8.495,2.387-8.495,5.332s3.803,5.332,8.495,5.332H46.25z"/>
		<path id="path-3_91_" style="fill:#FF3A2F;" d="M175.425,147.512H41.82V95.395h133.605V147.512z"/>
		<path id="path-4_90_" style="opacity:0.35;enable-background:new    ;" d="M175.425,114.339L41.82,103.307v-7.912h133.605V114.339
			z"/>
		<path id="path-5_90_" style="fill:#142A3B;" d="M178.263,78.093H60.068c0.001-0.035,0.011-0.067,0.011-0.101v-5.089
			c0-11.467,9.383-20.762,20.958-20.762h48.652c2.894,0,5.24-2.325,5.24-5.191c0-2.866-2.346-5.19-5.24-5.19H71.545
			c-13.021,0-23.577,10.457-23.577,23.357v12.875c0,0.034,0.009,0.066,0.01,0.101h-8.996c-4.822,0-8.732,3.873-8.732,8.65
			c0,4.778,3.91,8.652,8.732,8.652h139.281c4.822,0,8.732-3.874,8.732-8.652C186.995,81.966,183.085,78.093,178.263,78.093z"/>
		<path id="path-6_89_" style="fill:#142A3B;" d="M154.527,147.167c-2.01,0-3.639-1.615-3.639-3.606v-24.44
			c0-1.99,1.629-3.605,3.639-3.605s3.639,1.615,3.639,3.605v24.44C158.166,145.552,156.537,147.167,154.527,147.167z"/>
		<path id="path-7_89_" style="fill:#142A3B;" d="M135.75,147.167c-2.01,0-3.639-1.615-3.639-3.606v-24.44
			c0-1.99,1.629-3.605,3.639-3.605c2.01,0,3.639,1.615,3.639,3.605v24.44C139.389,145.552,137.76,147.167,135.75,147.167z"/>
		<path id="path-8_86_" style="fill:#142A3B;" d="M87.062,147.167c-2.009,0-3.639-1.615-3.639-3.606v-24.44
			c0-1.99,1.63-3.605,3.639-3.605c2.01,0,3.639,1.615,3.639,3.605v24.44C90.701,145.552,89.072,147.167,87.062,147.167z"/>
		<path id="path-9_82_" style="fill:#142A3B;" d="M111.406,147.167c-2.01,0-3.639-1.615-3.639-3.606v-24.44
			c0-1.99,1.629-3.605,3.639-3.605s3.639,1.615,3.639,3.605v24.44C115.045,145.552,113.416,147.167,111.406,147.167z"/>
		<path id="path-10_75_" style="fill:#142A3B;" d="M62.719,147.167c-2.01,0-3.639-1.615-3.639-3.606v-24.44
			c0-1.99,1.629-3.605,3.639-3.605c2.009,0,3.639,1.615,3.639,3.605v24.44C66.358,145.552,64.728,147.167,62.719,147.167z"/>
		<path id="path-11_66_" style="fill:#2476FF;" d="M27.231,122.49c0,6.022-4.928,10.903-11.007,10.903
			c-6.078,0-11.006-4.881-11.006-10.903c0-6.022,4.928-10.903,11.006-10.903C22.303,111.587,27.231,116.468,27.231,122.49z"/>
		<path id="path-12_56_" style="fill:#2476FF;" d="M10.437,96.224c0,2.855-2.336,5.169-5.219,5.169C2.336,101.393,0,99.079,0,96.224
			c0-2.856,2.336-5.17,5.218-5.17C8.101,91.054,10.437,93.368,10.437,96.224z"/>
		<path id="path-13_45_" style="fill:#FFFFFF;" d="M19,118.32c0,2.298-1.879,4.16-4.198,4.16c-2.318,0-4.198-1.862-4.198-4.16
			c0-2.297,1.88-4.159,4.198-4.159C17.121,114.161,19,116.023,19,118.32z"/>
	</g>
</g>
<g>
</g>
<g>
</g>
<g>
</g>
<g>
</g>
<g>
</g>
<g>
</g>
<g>
</g>
<g>
</g>
<g>
</g>
<g>
</g>
<g>
</g>
<g>
</g>
<g>
</g>
<g>
</g>
<g>
</g>
</svg>
