<?xml version="1.0" encoding="iso-8859-1"?>
<!-- Generator: Adobe Illustrator 19.1.0, SVG Export Plug-In . SVG Version: 6.00 Build 0)  -->
<svg version="1.1" id="Capa_1" xmlns="http://www.w3.org/2000/svg" xmlns:xlink="http://www.w3.org/1999/xlink" x="0px" y="0px"
	 viewBox="0 0 216.785 216.785" style="enable-background:new 0 0 216.785 216.785;" xml:space="preserve">
<g>
	<g id="group-87svg">
		<path id="path-1_154_" style="fill:#2476FF;" d="M164.387,184h13.925c2.685,0,4.861,2.426,4.861,5.416
			c0,2.991-2.176,5.416-4.861,5.416h-0.648c-2.685,0-4.861,2.424-4.861,5.415s2.176,5.416,4.861,5.416h29.934
			c2.685,0,4.861,2.425,4.861,5.416c0,2.99-2.176,5.415-4.861,5.415h-35.973H98.096c-2.685,0-4.861-2.425-4.861-5.415
			c0-2.991,2.176-5.416,4.861-5.416h8.308c2.684,0,4.861-2.425,4.861-5.416s-2.177-5.415-4.861-5.415H66.866
			c-2.685,0-4.861-2.425-4.861-5.416c0-2.99,2.176-5.416,4.861-5.416h9.344H164.387z"/>
		<path id="path-2_154_" style="fill:#2476FF;" d="M189.459,127.41h4.483c0.865,0,1.566,0.75,1.566,1.676
			c0,0.925-0.701,1.676-1.566,1.676h-0.208c-0.865,0-1.565,0.751-1.565,1.676c0,0.926,0.7,1.676,1.565,1.676h9.637
			c0.865,0,1.565,0.751,1.565,1.677c0,0.925-0.7,1.676-1.565,1.676h-11.582H179.06c-0.865,0-1.565-0.751-1.565-1.676
			c0-0.926,0.7-1.677,1.565-1.677h2.674c0.865,0,1.565-0.75,1.565-1.676c0-0.925-0.7-1.676-1.565-1.676h-12.73
			c-0.864,0-1.565-0.751-1.565-1.676c0-0.926,0.701-1.676,1.565-1.676h3.009H189.459z"/>
		<path id="path-3_154_" style="fill:#2476FF;" d="M66.722,216.785c3.322,0,6.014-1.689,6.014-3.775s-2.692-3.775-6.014-3.775
			H48.289c-3.322,0-6.015,1.689-6.015,3.775s2.693,3.775,6.015,3.775H66.722z"/>
		<path id="path-4_153_" style="fill:#EDEDED;" d="M4.326,175.828v8.634c0,1.652,2.038-0.469,3.705-0.469h150.766
			c1.666,0,1.52,2.121,1.52,0.469V5.237c0-1.651,0.146-5.237-1.52-5.237H8.031C6.364,0,4.326,3.586,4.326,5.237V175.828z"/>
		<path id="path-5_153_" style="opacity:0.25;fill:#020403;enable-background:new    ;" d="M157.333,1.579h-20.101v141.425
			c0,13.018-10.653,23.571-23.793,23.571H4.67v9.253v8.634c0,1.279,1.047,2.317,2.338,2.317h151.679
			c1.291,0,2.338-1.038,2.338-2.317V5.237C161.025,3.225,159.364,1.579,157.333,1.579z"/>
		<path id="path-6_151_" style="fill:#142A3B;" d="M149.066,46.999h-131c-2.009,0-3.639-2.01-3.639-4c0-1.992,1.63-4,3.639-4h131
			c2.009,0,3.638,2.008,3.638,4C152.704,44.989,151.075,46.999,149.066,46.999z"/>
		<path id="path-7_151_" style="fill:#2476FF;" d="M123.744,84.317c6.828,8.791,11.16,19.658,11.16,31.613
			c0,28.01-22.922,50.72-51.199,50.72s-51.198-22.71-51.198-50.72s22.921-50.72,51.198-50.72c6.544,0,12.801,1.217,18.548,3.434
			C102.253,68.644,113.413,71.019,123.744,84.317z"/>
		<path id="path-8_148_" style="fill:#F4FAFF;" d="M96.24,155.854c-1.347,0-2.643-0.745-3.273-2.026
			c-0.881-1.789-0.13-3.947,1.677-4.819c9.202-4.444,16.109-12.173,19.444-21.763c3.335-9.589,2.7-19.892-1.786-29.007
			c-0.881-1.791-0.13-3.949,1.677-4.821c1.797-0.869,3.982-0.132,4.865,1.661c5.338,10.849,6.093,23.106,2.124,34.516
			c-3.968,11.41-12.184,20.607-23.136,25.894C97.319,155.737,96.776,155.854,96.24,155.854z"/>
		<path id="path-9_142_" style="opacity:0.35;fill:#020403;enable-background:new    ;" d="M46.103,115.93
			c0-25.723,19.347-46.922,44.404-50.222c-2.23-0.295-4.49-0.498-6.802-0.498c-28.277,0-51.198,22.71-51.198,50.72
			s22.921,50.72,51.198,50.72c2.311,0,4.569-0.205,6.798-0.497C65.448,162.85,46.103,141.651,46.103,115.93z"/>
		<path id="path-10_128_" style="opacity:0.35;fill:#020403;enable-background:new    ;" d="M108.142,119.297
			c0,9.174,8.247,16.869,21.684,19.104c3.252-5.9,5.078-12.341,5.078-19.104c0-6.777-1.918-13.185-5.202-19.084
			C116.339,102.474,108.142,110.149,108.142,119.297z"/>
		<path id="path-11_112_" style="fill:#EDEDED;" d="M118.339,115.93c0,9.173,6.152,16.869,16.176,19.104
			c2.426-5.9,3.788-12.341,3.788-19.104c0-6.777-1.431-13.186-3.881-19.084C124.454,99.106,118.339,106.782,118.339,115.93z"/>
		<path id="path-12_95_" style="fill:#FF3A2F;" d="M29.324,32.998H18.325v-7.999h10.999V32.998z"/>
		<path id="path-13_80_" style="fill:#FF3A2F;" d="M47.323,32.998H36.324v-7.999h10.999V32.998z"/>
	</g>
</g>
<g>
</g>
<g>
</g>
<g>
</g>
<g>
</g>
<g>
</g>
<g>
</g>
<g>
</g>
<g>
</g>
<g>
</g>
<g>
</g>
<g>
</g>
<g>
</g>
<g>
</g>
<g>
</g>
<g>
</g>
</svg>
