<?xml version="1.0" encoding="iso-8859-1"?>
<!-- Generator: Adobe Illustrator 19.1.0, SVG Export Plug-In . SVG Version: 6.00 Build 0)  -->
<svg version="1.1" id="Capa_1" xmlns="http://www.w3.org/2000/svg" xmlns:xlink="http://www.w3.org/1999/xlink" x="0px" y="0px"
	 viewBox="0 0 218.332 218.332" style="enable-background:new 0 0 218.332 218.332;" xml:space="preserve">
<g>
	<g id="group-51svg">
		<path id="path-1_115_" style="fill:#FF3A2F;" d="M141.851,164.785h16.731c3.225,0,5.84,0.858,5.84,1.918
			c0,1.059-2.615,1.917-5.84,1.917h-0.779c-3.226,0-5.841,0.859-5.841,1.917c0,1.059,2.615,1.917,5.841,1.917h35.966
			c3.227,0,5.841,0.859,5.841,1.918c0,1.058-2.614,1.917-5.841,1.917h-43.222h-47.506c-3.225,0-5.841-0.859-5.841-1.917
			c0-1.059,2.616-1.918,5.841-1.918h9.982c3.226,0,5.841-0.858,5.841-1.917c0-1.058-2.615-1.917-5.841-1.917H65.517
			c-3.226,0-5.841-0.858-5.841-1.917c0-1.06,2.615-1.918,5.841-1.918h11.228H141.851z"/>
		<path id="path-2_115_" style="fill:#FF3A2F;" d="M36.476,166.861c3.699,0,6.698-1.456,6.698-3.252s-2.999-3.251-6.698-3.251
			H15.949c-3.7,0-6.698,1.455-6.698,3.251s2.998,3.252,6.698,3.252H36.476z"/>
		<path id="path-3_115_" style="fill:#FF3A2F;" d="M197.057,134.688h5.508c1.061,0,1.921,0.859,1.921,1.917
			c0,1.06-0.86,1.917-1.921,1.917h-0.257c-1.062,0-1.923,0.86-1.923,1.918c0,1.059,0.861,1.918,1.923,1.918h11.838
			c1.062,0,1.923,0.858,1.923,1.917c0,1.059-0.861,1.918-1.923,1.918h-14.227h-15.635c-1.062,0-1.923-0.859-1.923-1.918
			c0-1.059,0.861-1.917,1.923-1.917h3.285c1.062,0,1.923-0.859,1.923-1.918c0-1.058-0.861-1.918-1.923-1.918h-15.637
			c-1.061,0-1.922-0.857-1.922-1.917c0-1.058,0.861-1.917,1.922-1.917h3.697H197.057z"/>
		<path id="path-4_114_" style="fill:#FF3A2F;" d="M16.637,110.746h3.388c0.653,0,1.182,0.529,1.182,1.18
			c0,0.65-0.529,1.179-1.182,1.179h-0.158c-0.653,0-1.183,0.528-1.183,1.179c0,0.652,0.53,1.18,1.183,1.18h7.282
			c0.653,0,1.182,0.528,1.182,1.18c0,0.651-0.529,1.179-1.182,1.179h-8.751H8.78c-0.654,0-1.183-0.528-1.183-1.179
			c0-0.652,0.529-1.18,1.183-1.18h2.021c0.652,0,1.182-0.528,1.182-1.18c0-0.651-0.53-1.179-1.182-1.179H1.182
			c-0.653,0-1.182-0.529-1.182-1.179c0-0.651,0.529-1.18,1.182-1.18h2.274H16.637z"/>
		<path id="path-5_114_" style="fill:#0CB04A;" d="M114.612,144.794c57.283,0,103.72-46.003,103.72-102.751H10.892
			C10.892,98.79,57.329,144.794,114.612,144.794z"/>
		<path id="path-6_113_" style="fill:#FF3A2F;" d="M114.612,130.624c48.777,0,88.317-39.171,88.317-87.491H26.295
			C26.295,91.453,65.836,130.624,114.612,130.624z"/>
		<path id="path-7_113_" style="opacity:0.25;fill:#020403;enable-background:new    ;" d="M183.325,43.133
			c-5.559,43.022-42.631,76.282-87.571,76.282c-12.662,0-24.691-2.66-35.578-7.413c15.003,11.654,33.892,18.621,54.436,18.621
			c48.777,0,88.317-39.17,88.317-87.49H183.325z"/>
		<path id="path-8_110_" style="fill:#142A3B;" d="M142.63,76.403c0-3.471,4.9-8.978,4.9-8.978s4.899,5.507,4.899,8.978
			c0,3.47-2.193,6.284-4.899,6.284C144.823,82.687,142.63,79.873,142.63,76.403z"/>
		<path id="path-9_104_" style="fill:#142A3B;" d="M172.803,76.403c0-3.471,4.9-8.978,4.9-8.978s4.899,5.507,4.899,8.978
			c0,3.47-2.193,6.284-4.899,6.284C174.997,82.687,172.803,79.873,172.803,76.403z"/>
		<path id="path-10_96_" style="fill:#142A3B;" d="M52.111,76.403c0-3.471,4.899-8.978,4.899-8.978s4.9,5.507,4.9,8.978
			c0,3.47-2.194,6.284-4.9,6.284S52.111,79.873,52.111,76.403z"/>
		<path id="path-11_84_" style="fill:#142A3B;" d="M76.618,76.403c0-3.471,4.9-8.978,4.9-8.978s4.9,5.507,4.9,8.978
			c0,3.47-2.194,6.284-4.9,6.284S76.618,79.873,76.618,76.403z"/>
		<path id="path-12_72_" style="fill:#142A3B;" d="M109.624,76.403c0-3.471,4.9-8.978,4.9-8.978s4.899,5.507,4.899,8.978
			c0,3.47-2.193,6.284-4.899,6.284C111.818,82.687,109.624,79.873,109.624,76.403z"/>
		<path id="path-13_60_" style="fill:#142A3B;" d="M96.422,99.29c0-3.471,4.899-8.978,4.899-8.978s4.9,5.507,4.9,8.978
			c0,3.472-2.194,6.285-4.9,6.285S96.422,102.762,96.422,99.29z"/>
		<path id="path-14_48_" style="fill:#142A3B;" d="M129.428,99.29c0-3.471,4.9-8.978,4.9-8.978s4.899,5.507,4.899,8.978
			c0,3.472-2.194,6.285-4.899,6.285C131.621,105.575,129.428,102.762,129.428,99.29z"/>
	</g>
</g>
<g>
</g>
<g>
</g>
<g>
</g>
<g>
</g>
<g>
</g>
<g>
</g>
<g>
</g>
<g>
</g>
<g>
</g>
<g>
</g>
<g>
</g>
<g>
</g>
<g>
</g>
<g>
</g>
<g>
</g>
</svg>
