<?xml version="1.0" encoding="iso-8859-1"?>
<!-- Generator: Adobe Illustrator 19.1.0, SVG Export Plug-In . SVG Version: 6.00 Build 0)  -->
<svg version="1.1" id="Capa_1" xmlns="http://www.w3.org/2000/svg" xmlns:xlink="http://www.w3.org/1999/xlink" x="0px" y="0px"
	 viewBox="0 0 217.229 217.229" style="enable-background:new 0 0 217.229 217.229;" xml:space="preserve">
<g>
	<g id="group-145svg">
		<path id="path-1_51_" style="fill:#142A3B;" d="M69.158,181.115H49.125c-3.862,0-6.993,2.37-6.993,5.293s3.131,5.293,6.993,5.293
			h0.933c3.862,0,6.993,2.37,6.993,5.293c0,2.924-3.131,5.293-6.993,5.293H6.994c-3.863,0-6.994,2.37-6.994,5.294
			c0,2.923,3.131,5.293,6.994,5.293h51.751h105.78c3.862,0,6.994-2.37,6.994-5.293c0-2.924-3.132-5.294-6.994-5.294h-11.952
			c-3.863,0-6.993-2.369-6.993-5.293c0-2.923,3.13-5.293,6.993-5.293h46.94c3.863,0,6.994-2.37,6.994-5.293
			s-3.131-5.293-6.994-5.293h-3.503H69.158z"/>
		<path id="path-2_51_" style="fill:#142A3B;" d="M193.398,214.291c-3.238,0-5.863-2.54-5.863-5.673
			c0-3.131,2.625-5.672,5.863-5.672h17.968c3.238,0,5.863,2.541,5.863,5.672c0,3.133-2.625,5.673-5.863,5.673H193.398z"/>
		<path id="path-3_51_" style="fill:#2476FF;" d="M123.35,155.923l27.821,27.82l-0.104,0.525c0,5.116-20.735,9.273-46.319,9.273
			c-25.576,0-46.314-4.157-46.314-9.273v-0.525l27.821-27.82l0,0"/>
		<path id="path-4_51_" style="opacity:0.35;enable-background:new    ;" d="M123.35,155.923H86.255l-27.821,27.82v0.525
			c0,0.715,0.443,1.409,1.21,2.078l18.986-18.987h37.096l23.16,23.158c7.542-1.649,12.181-3.839,12.181-6.249l0.104-0.525
			L123.35,155.923z"/>
		<path id="path-5_51_" style="fill:#FBB713;" d="M183.629,81.762c0,43.533-35.293,78.824-78.827,78.824
			s-78.827-35.291-78.827-78.824S61.268,2.938,104.802,2.938S183.629,38.229,183.629,81.762z"/>
		<path id="path-6_49_" style="fill:#EDEDED;" d="M137.26,81.762c0,17.921-14.531,32.457-32.458,32.457
			c-17.922,0-32.458-14.536-32.458-32.457c0-17.922,14.536-32.458,32.458-32.458C122.729,49.304,137.26,63.84,137.26,81.762z"/>
		<path id="path-7_48_" style="opacity:0.35;enable-background:new    ;" d="M135.857,9.31c23.95,13.527,40.148,39.174,40.148,68.64
			c0,43.533-35.293,78.825-78.827,78.825c-11.031,0-21.524-2.283-31.056-6.375c11.433,6.457,24.612,10.186,38.68,10.186
			c43.534,0,78.827-35.291,78.827-78.824C183.629,49.259,163.947,21.367,135.857,9.31z"/>
		<path id="path-8_36_" style="opacity:0.35;enable-background:new    ;" d="M115.448,51.127
			c8.563,5.845,14.188,15.677,14.188,26.823c0,17.924-14.531,32.457-32.458,32.457c-3.734,0-7.305-0.663-10.644-1.823
			c5.205,3.552,11.493,5.636,18.268,5.636c17.927,0,32.458-14.537,32.458-32.458C137.26,67.574,128.138,55.539,115.448,51.127z"/>
	</g>
</g>
<g>
</g>
<g>
</g>
<g>
</g>
<g>
</g>
<g>
</g>
<g>
</g>
<g>
</g>
<g>
</g>
<g>
</g>
<g>
</g>
<g>
</g>
<g>
</g>
<g>
</g>
<g>
</g>
<g>
</g>
</svg>
