<?xml version="1.0" encoding="iso-8859-1"?>
<!-- Generator: Adobe Illustrator 19.1.0, SVG Export Plug-In . SVG Version: 6.00 Build 0)  -->
<svg version="1.1" id="Capa_1" xmlns="http://www.w3.org/2000/svg" xmlns:xlink="http://www.w3.org/1999/xlink" x="0px" y="0px"
	 viewBox="0 0 218.332 218.332" style="enable-background:new 0 0 218.332 218.332;" xml:space="preserve">
<g>
	<g id="group-68svg">
		<path id="path-1_133_" style="fill:#142A3B;" d="M25.364,123.448c0-16.053,13.185-29.117,29.39-29.117
			c16.204,0,29.391,13.064,29.391,29.117s-13.187,29.116-29.391,29.116C38.549,152.564,25.364,139.501,25.364,123.448z"/>
		<path id="path-2_133_" style="fill:#FBB713;" d="M42.157,123.448c0-6.881,5.651-12.478,12.597-12.478s12.596,5.597,12.596,12.478
			c0,6.88-5.65,12.479-12.596,12.479S42.157,130.328,42.157,123.448z"/>
		<path id="path-3_133_" style="opacity:0.35;fill:#020403;enable-background:new    ;" d="M58.83,94.646
			c9.017,4.977,15.137,14.511,15.137,25.441c0,16.053-13.186,29.116-29.39,29.116c-1.387,0-2.742-0.128-4.077-0.313
			c4.226,2.334,9.083,3.674,14.254,3.674c16.204,0,29.391-13.063,29.391-29.116C84.145,108.769,73.108,96.622,58.83,94.646z"/>
		<path id="path-4_132_" style="opacity:0.25;fill:#020403;enable-background:new    ;" d="M61.799,113.108
			c1.361,1.994,2.159,4.396,2.159,6.979c0,6.881-5.651,12.478-12.597,12.478c-2.607,0-5.032-0.789-7.043-2.139
			c2.266,3.317,6.098,5.501,10.436,5.501c6.946,0,12.596-5.599,12.596-12.479C67.35,119.15,65.146,115.354,61.799,113.108z"/>
		<path id="path-5_132_" style="fill:#142A3B;" d="M181.52,136.171c-0.632,0-1.276-0.078-1.911-0.231l-42.623-10.954l32.902-52.731
			l19.027,53.574c0.959,2.711,0.341,5.708-1.617,7.827C185.812,135.256,183.709,136.171,181.52,136.171z M148.365,120.462
			l33.155,8.499c0.16,0,0.313-0.066,0.415-0.18c0.139-0.15,0.185-0.363,0.115-0.561l-13.973-39.347L148.365,120.462z"/>
		<path id="path-6_130_" style="fill:#142A3B;" d="M211.735,59.703h-24.878c-2.01,0-3.639-1.613-3.639-3.604
			c0-1.992,1.629-3.605,3.639-3.605h24.878c2.012,0,3.64,1.613,3.64,3.605C215.375,58.09,213.747,59.703,211.735,59.703z"/>
		<path id="path-7_130_" style="fill:#FF3A2F;" d="M142.927,127.607c1.411,0,2.723-0.699,3.502-1.86l48.793-73.01h-12.654H60.806
			c-2.321,0-4.198,1.86-4.198,4.159v12.479c0,0.845,0.254,1.657,0.737,2.355l37.395,54.073c0.812,1.171,2.123,1.804,3.461,1.804
			H142.927z"/>
		<path id="path-8_127_" style="fill:#FFFFFF;" d="M94.325,109.182c-1.161,0-2.298-0.548-3.006-1.568L67.912,73.769
			c-0.896-1.299-1.371-2.818-1.371-4.394v-9.117c0-1.991,1.627-3.605,3.638-3.605s3.639,1.614,3.639,3.605v9.117l23.506,34.164
			c1.134,1.643,0.711,3.886-0.945,5.012C95.751,108.977,95.033,109.182,94.325,109.182z"/>
		<path id="path-9_121_" style="opacity:0.25;fill:#020403;enable-background:new    ;" d="M122.571,120.885
			c1.411,0,2.722-0.698,3.501-1.859l44.302-66.289h12.195h12.653l-48.793,73.011c-0.779,1.16-2.091,1.859-3.502,1.859H98.201
			c-1.338,0-2.649-0.634-3.461-1.803l-3.401-4.919H122.571z"/>
		<path id="path-10_112_" style="fill:#FBB713;" d="M68.304,146.142h13.092c2.525,0,4.572,1.285,4.572,2.869
			s-2.047,2.869-4.572,2.869h-0.609c-2.524,0-4.571,1.284-4.571,2.869c0,1.584,2.047,2.868,4.571,2.868h28.146
			c2.524,0,4.571,1.285,4.571,2.871c0,1.584-2.047,2.868-4.571,2.868H75.109H37.932c-2.524,0-4.571-1.284-4.571-2.868
			c0-1.586,2.047-2.871,4.571-2.871h7.811c2.525,0,4.571-1.284,4.571-2.868c0-1.585-2.046-2.869-4.571-2.869H8.568
			c-2.525,0-4.571-1.285-4.571-2.869s2.046-2.869,4.571-2.869h8.785H68.304z"/>
		<path id="path-11_98_" style="fill:#FBB713;" d="M34.838,71.62h7.093c1.367,0,2.477,1.285,2.477,2.87
			c0,1.584-1.11,2.869-2.477,2.869h-0.33c-1.368,0-2.477,1.284-2.477,2.869c0,1.584,1.109,2.869,2.477,2.869h15.247
			c1.367,0,2.477,1.285,2.477,2.868c0,1.585-1.11,2.869-2.477,2.869H38.524H18.383c-1.367,0-2.475-1.284-2.475-2.869
			c0-1.583,1.108-2.868,2.475-2.868h4.233c1.368,0,2.476-1.285,2.476-2.869c0-1.585-1.108-2.869-2.476-2.869H2.476
			C1.109,77.359,0,76.074,0,74.49c0-1.585,1.109-2.87,2.476-2.87h4.76H34.838z"/>
		<path id="path-12_86_" style="fill:#FBB713;" d="M193.846,130.671h7.092c1.368,0,2.477,1.284,2.477,2.869
			c0,1.585-1.109,2.869-2.477,2.869h-0.33c-1.368,0-2.476,1.285-2.476,2.869c0,1.585,1.108,2.869,2.476,2.869h15.248
			c1.368,0,2.476,1.285,2.476,2.869s-1.108,2.869-2.476,2.869h-18.325h-20.139c-1.367,0-2.477-1.285-2.477-2.869
			s1.11-2.869,2.477-2.869h4.232c1.367,0,2.476-1.284,2.476-2.869c0-1.584-1.109-2.869-2.476-2.869h-20.141
			c-1.367,0-2.475-1.284-2.475-2.869c0-1.585,1.108-2.869,2.475-2.869h4.761H193.846z"/>
		<path id="path-13_74_" style="fill:#FBB713;" d="M149.341,165.838c2.882,0,5.218-1.466,5.218-3.275s-2.336-3.277-5.218-3.277
			h-15.993c-2.883,0-5.22,1.468-5.22,3.277s2.337,3.275,5.22,3.275H149.341z"/>
	</g>
</g>
<g>
</g>
<g>
</g>
<g>
</g>
<g>
</g>
<g>
</g>
<g>
</g>
<g>
</g>
<g>
</g>
<g>
</g>
<g>
</g>
<g>
</g>
<g>
</g>
<g>
</g>
<g>
</g>
<g>
</g>
</svg>
