<?xml version="1.0" encoding="iso-8859-1"?>
<!-- Generator: Adobe Illustrator 19.1.0, SVG Export Plug-In . SVG Version: 6.00 Build 0)  -->
<svg version="1.1" id="Capa_1" xmlns="http://www.w3.org/2000/svg" xmlns:xlink="http://www.w3.org/1999/xlink" x="0px" y="0px"
	 viewBox="0 0 217.221 217.221" style="enable-background:new 0 0 217.221 217.221;" xml:space="preserve">
<g>
	<g id="group-39svg">
		<path id="path-1_93_" style="fill:#FF3A2F;" d="M130.227,214.916h15.731c3.032,0,5.492-1.687,5.492-3.766s-2.46-3.766-5.492-3.766
			h-0.732c-3.033,0-5.492-1.685-5.492-3.764c0-2.08,2.459-3.764,5.492-3.764h33.815c3.033,0,5.492-1.686,5.492-3.766
			c0-2.079-2.459-3.765-5.492-3.765h-40.638H55.341c-3.032,0-5.49,1.686-5.49,3.765c0,2.08,2.458,3.766,5.49,3.766h9.386
			c3.033,0,5.491,1.684,5.491,3.764c0,2.079-2.458,3.764-5.491,3.764H20.062c-3.033,0-5.492,1.687-5.492,3.766
			s2.459,3.766,5.492,3.766h10.556H130.227z"/>
		<path id="path-2_93_" style="fill:#FF3A2F;" d="M196.499,208.587c3.554,0,6.434,1.933,6.434,4.317s-2.88,4.317-6.434,4.317
			h-19.716c-3.553,0-6.433-1.933-6.433-4.317s2.88-4.317,6.433-4.317H196.499z"/>
		<path id="path-3_93_" style="fill:#FF3A2F;" d="M77.402,58.477c6.969,0,12.624-5.662,12.624-12.622s-5.655-12.622-12.624-12.622
			c-6.952,0-12.622,5.662-12.622,12.622S70.45,58.477,77.402,58.477z M77.402,41.648c2.327,0,4.208,1.89,4.208,4.207
			c0,2.317-1.881,4.208-4.208,4.208c-2.317,0-4.207-1.891-4.207-4.208C73.195,43.538,75.085,41.648,77.402,41.648z"/>
		<path id="path-4_93_" style="fill:#FF3A2F;" d="M56.578,66.679c0.822,0.822,1.907,1.233,2.975,1.233
			c1.085,0,2.153-0.411,2.974-1.233c1.644-1.644,1.644-4.305,0-5.949c-3.976-3.978-6.163-9.254-6.163-14.875
			s2.187-10.896,6.163-14.874c1.644-1.644,1.644-4.307,0-5.95c-1.643-1.643-4.305-1.643-5.949,0
			c-5.564,5.564-8.629,12.96-8.629,20.824C47.949,53.72,51.022,61.116,56.578,66.679z"/>
		<path id="path-5_92_" style="fill:#FF3A2F;" d="M92.277,66.679c0.821,0.822,1.908,1.233,2.975,1.233
			c1.085,0,2.153-0.411,2.975-1.233c5.572-5.563,8.637-12.959,8.637-20.824c-0.008-7.864-3.065-15.26-8.637-20.824
			c-1.644-1.643-4.306-1.643-5.95,0c-1.643,1.643-1.643,4.306,0,5.95c3.977,3.978,6.172,9.253,6.172,14.874
			s-2.195,10.897-6.172,14.875C90.634,62.374,90.634,65.035,92.277,66.679z"/>
		<path id="path-6_89_" style="fill:#FF3A2F;" d="M44.678,78.579c0.822,0.821,1.907,1.232,2.976,1.232
			c1.084,0,2.152-0.411,2.974-1.232c1.644-1.644,1.644-4.307,0-5.951c-7.15-7.149-11.095-16.657-11.095-26.773
			c0-10.107,3.937-19.616,11.095-26.773c1.644-1.644,1.644-4.307,0-5.951c-1.643-1.643-4.306-1.643-5.95,0
			c-8.743,8.745-13.56,20.364-13.56,32.724C31.118,58.214,35.935,69.835,44.678,78.579z"/>
		<path id="path-7_88_" style="fill:#FF3A2F;" d="M115.28,45.855c0,10.116-3.937,19.624-11.103,26.773
			c-1.644,1.644-1.644,4.307,0,5.951c0.822,0.821,1.906,1.232,2.975,1.232c1.085,0,2.153-0.411,2.975-1.232
			c8.752-8.744,13.568-20.365,13.568-32.724c-0.009-12.36-4.825-23.979-13.568-32.724c-1.644-1.643-4.306-1.643-5.95,0
			c-1.644,1.644-1.644,4.307,0,5.951C111.335,26.239,115.28,35.739,115.28,45.855z"/>
		<path id="path-8_67_" style="fill:#FF3A2F;" d="M35.754,91.711c1.067,0,2.153-0.411,2.974-1.233c1.644-1.644,1.644-4.307,0-5.949
			c-10.337-10.33-16.025-24.063-16.025-38.666S28.391,17.52,38.728,7.182c1.644-1.643,1.644-4.306,0-5.949
			c-1.643-1.644-4.306-1.644-5.949,0c-11.933,11.924-18.5,27.775-18.491,44.63c0,16.855,6.566,32.699,18.491,44.615
			C33.6,91.3,34.669,91.711,35.754,91.711z"/>
		<path id="path-9_58_" style="fill:#FF3A2F;" d="M132.118,45.847c0,14.611-5.695,28.343-16.024,38.682
			c-1.644,1.642-1.644,4.305,0,5.949c0.821,0.822,1.889,1.233,2.974,1.233c1.068,0,2.153-0.411,2.975-1.233
			c11.916-11.924,18.491-27.777,18.491-44.631c-0.008-16.855-6.575-32.698-18.491-44.614c-1.644-1.644-4.306-1.644-5.949,0
			c-1.644,1.643-1.644,4.306,0,5.949C126.415,17.512,132.118,31.244,132.118,45.847z"/>
		<path id="path-10_52_" style="fill:#2476FF;" d="M81.084,64.56c-1.57-2.35-5.621-2.334-7.182,0
			c-0.461,0.705-0.699,1.51-0.707,2.316C20.829,192.642,20.977,192.854,22.703,195.452c0.789,1.167,2.104,1.874,3.518,1.874h103.07
			c1.406,0,2.728-0.707,3.51-1.882c1.733-2.605,1.882-2.819-50.92-128.765C81.791,65.94,81.512,65.199,81.084,64.56z"/>
		<path id="path-11_43_" style="opacity:0.35;fill:#060606;enable-background:new    ;" d="M81.881,66.679
			c-0.09-0.739-0.369-1.48-0.797-2.12c-1.57-2.35-5.621-2.334-7.183,0c-0.46,0.707-0.698,1.512-0.706,2.316
			c-2.224,5.342-4.319,10.375-6.358,15.273c46.269,110.417,46.096,110.803,44.436,113.296c-0.781,1.175-2.103,1.882-3.51,1.882
			h21.528c1.406,0,2.728-0.707,3.51-1.882C134.534,192.839,134.683,192.626,81.881,66.679z"/>
	</g>
</g>
<g>
</g>
<g>
</g>
<g>
</g>
<g>
</g>
<g>
</g>
<g>
</g>
<g>
</g>
<g>
</g>
<g>
</g>
<g>
</g>
<g>
</g>
<g>
</g>
<g>
</g>
<g>
</g>
<g>
</g>
</svg>
