<?xml version="1.0" encoding="iso-8859-1"?>
<!-- Generator: Adobe Illustrator 19.1.0, SVG Export Plug-In . SVG Version: 6.00 Build 0)  -->
<svg version="1.1" id="Capa_1" xmlns="http://www.w3.org/2000/svg" xmlns:xlink="http://www.w3.org/1999/xlink" x="0px" y="0px"
	 viewBox="0 0 217.222 217.222" style="enable-background:new 0 0 217.222 217.222;" xml:space="preserve">
<g>
	<g id="group-94svg">
		<path id="path-1_154_" style="fill:#0CB04A;" d="M85.306,185.437H70.675c-2.821,0-5.108,2.337-5.108,5.221
			c0,2.881,2.287,5.219,5.108,5.219h0.681c2.821,0,5.108,2.336,5.108,5.219c0,2.881-2.287,5.218-5.108,5.218H39.904
			c-2.821,0-5.107,2.336-5.107,5.22c0,2.881,2.286,5.218,5.107,5.218h37.797h77.257c2.821,0,5.108-2.337,5.108-5.218
			c0-2.884-2.287-5.22-5.108-5.22h-8.729c-2.821,0-5.108-2.337-5.108-5.218c0-2.883,2.287-5.219,5.108-5.219h34.283
			c2.821,0,5.108-2.338,5.108-5.219c0-2.884-2.287-5.221-5.108-5.221h-2.559H85.306z"/>
		<path id="path-2_154_" style="fill:#0CB04A;" d="M175.243,217.222c-1.987,0-3.598-1.654-3.598-3.692
			c0-2.039,1.611-3.692,3.598-3.692h11.025c1.988,0,3.599,1.653,3.599,3.692c0,2.038-1.611,3.692-3.599,3.692H175.243z"/>
		<path id="path-3_154_" style="fill:#FF3A2F;" d="M128.095,94.432c0,7.845-6.36,14.205-14.206,14.205s-14.205-6.36-14.205-14.205
			s6.359-14.205,14.205-14.205S128.095,86.587,128.095,94.432z"/>
		<path id="path-4_154_" style="opacity:0.35;fill:#010101;enable-background:new    ;" d="M122.22,82.971
			c1.706,2.345,2.744,5.207,2.744,8.329c0,7.845-6.36,14.207-14.206,14.207c-3.122,0-5.985-1.039-8.329-2.747
			c2.582,3.547,6.737,5.877,11.46,5.877c7.846,0,14.206-6.36,14.206-14.205C128.095,89.709,125.766,85.554,122.22,82.971z"/>
		<path id="path-5_153_" style="fill:#142A3B;" d="M117.436,181.164h-7.999v-74.998h7.999V181.164z"/>
		<path id="path-6_150_" style="fill:#2476FF;" d="M100.238,99.118l-72.883,32.67C27.355,131.788,115.2,152.383,100.238,99.118z"/>
		<path id="path-7_146_" style="opacity:0.35;fill:#010101;enable-background:new    ;" d="M100.238,99.118l-5.674,2.544
			c6.071,26.614-15.096,33.453-36.287,33.993C81.924,136.295,109.096,130.651,100.238,99.118z"/>
		<path id="path-8_122_" style="fill:#2476FF;" d="M128.718,102.024l56.477,56.476C185.195,158.5,173.167,69.081,128.718,102.024z"
			/>
		<path id="path-9_107_" style="opacity:0.35;fill:#010101;enable-background:new    ;" d="M132.457,99.501
			c-1.221,0.747-2.465,1.579-3.739,2.523l56.477,56.476c0,0-0.399-2.952-1.312-7.575L132.457,99.501z"/>
		<path id="path-10_96_" style="fill:#2476FF;" d="M112.436,79.868V0C112.436,0,54.437,71.733,112.436,79.868z"/>
		<path id="path-11_83_" style="opacity:0.35;fill:#010101;enable-background:new    ;" d="M87.461,52.311
			c-1.167,13.249,4.399,24.603,24.87,27.557v-6.263C95.179,71.13,88.5,62.752,87.461,52.311z"/>
		<path id="path-12_73_" style="fill:#FF3A2F;" d="M138.436,200.163h-51v-22h51V200.163z"/>
		<path id="path-13_57_" style="opacity:0.35;fill:#010101;enable-background:new    ;" d="M125.898,178.968v21.021h12.526v-21.021
			H125.898z"/>
	</g>
</g>
<g>
</g>
<g>
</g>
<g>
</g>
<g>
</g>
<g>
</g>
<g>
</g>
<g>
</g>
<g>
</g>
<g>
</g>
<g>
</g>
<g>
</g>
<g>
</g>
<g>
</g>
<g>
</g>
<g>
</g>
</svg>
