<?xml version="1.0" encoding="iso-8859-1"?>
<!-- Generator: Adobe Illustrator 19.1.0, SVG Export Plug-In . SVG Version: 6.00 Build 0)  -->
<svg version="1.1" id="Capa_1" xmlns="http://www.w3.org/2000/svg" xmlns:xlink="http://www.w3.org/1999/xlink" x="0px" y="0px"
	 viewBox="0 0 217.229 217.229" style="enable-background:new 0 0 217.229 217.229;" xml:space="preserve">
<g>
	<g id="group-2svg">
		<path id="path-1_72_" style="fill:#142A3B;" d="M142.055,187.98H27.672L64.524,34.068c4.28-6.874,11.879-11.302,20.334-11.302
			h0.011c8.504,0,16.14,4.482,20.405,11.425L142.055,187.98z"/>
		<path id="path-2_72_" style="fill:#FBB713;" d="M142.055,187.98H27.672l6.716-28.045H135.23L142.055,187.98z"/>
		<path id="path-3_72_" style="opacity:0.3;fill:#020403;enable-background:new    ;" d="M105.274,34.191
			c-4.266-6.943-11.901-11.425-20.405-11.425h-0.01l27.222,113.817c3.944,16.49-8.558,32.334-25.514,32.334H32.236l-4.564,19.063
			h114.383L105.274,34.191z"/>
		<path id="path-4_72_" style="opacity:0.3;fill:#020403;enable-background:new    ;" d="M105.27,85.542
			c-4.182-3.421-10.276-3.117-14.097,0.703l-0.02,0.021c-3.82,3.82-4.125,9.914-0.703,14.095l27.055,33.065
			c3.94,4.816,11.176,5.177,15.576,0.778l6.032-6.033c4.4-4.4,4.039-11.635-0.776-15.575L105.27,85.542z"/>
		<path id="path-5_71_" style="opacity:0.3;fill:#020403;enable-background:new    ;" d="M78.725,86.245
			c-3.821-3.82-9.915-4.124-14.097-0.703l-33.066,27.054c-4.816,3.94-5.177,11.175-0.777,15.575l6.032,6.033
			c4.399,4.399,11.637,4.038,15.576-0.778l27.055-33.065c3.422-4.181,3.117-10.275-0.703-14.095L78.725,86.245z"/>
		<path id="path-6_68_" style="fill:#EDEDED;" d="M78.126,67.307c-0.926,0-1.853-0.354-2.559-1.06l-8.924-8.924
			c-1.414-1.413-1.414-3.705,0-5.118c1.414-1.415,3.705-1.415,5.119,0l8.924,8.922c1.414,1.415,1.414,3.706,0,5.12
			C79.979,66.953,79.053,67.307,78.126,67.307z"/>
		<path id="path-7_67_" style="fill:#EDEDED;" d="M100.696,89.875c-0.926,0-1.853-0.353-2.56-1.061l-9.095-9.093
			c-1.415-1.412-1.415-3.706,0-5.12c1.414-1.414,3.705-1.414,5.12,0l9.095,9.093c1.414,1.413,1.414,3.706,0,5.12
			C102.549,89.522,101.622,89.875,100.696,89.875z"/>
		<path id="path-8_51_" style="fill:#EDEDED;" d="M91.599,67.309c-0.926,0-1.853-0.353-2.559-1.06c-1.415-1.415-1.415-3.705,0-5.12
			l9.017-9.017c1.414-1.415,3.705-1.415,5.12,0c1.413,1.415,1.413,3.706,0,5.119l-9.018,9.018
			C93.452,66.956,92.525,67.309,91.599,67.309z"/>
		<path id="path-9_44_" style="fill:#EDEDED;" d="M69.098,89.81c-0.926,0-1.852-0.354-2.56-1.062c-1.414-1.412-1.414-3.704,0-5.119
			l9.029-9.029c1.414-1.415,3.705-1.415,5.119,0c1.414,1.412,1.414,3.705,0,5.119l-9.028,9.029
			C70.951,89.456,70.024,89.81,69.098,89.81z"/>
		<path id="path-10_40_" style="fill:#FBB713;" d="M94.395,70.424c0,5.264-4.267,9.531-9.532,9.531
			c-5.264,0-9.531-4.267-9.531-9.531c0-5.264,4.267-9.532,9.531-9.532C90.128,60.892,94.395,65.16,94.395,70.424z"/>
		<path id="path-11_33_" style="fill:#FBB713;" d="M42.861,7.592c-3.94-4.815-11.176-5.176-15.576-0.776l-6.032,6.031
			c-4.4,4.401-4.039,11.637,0.777,15.576l33.066,27.054c4.182,3.421,10.276,3.117,14.096-0.703l0.021-0.021
			c3.82-3.82,4.124-9.914,0.703-14.096L42.861,7.592z"/>
		<path id="path-12_29_" style="opacity:0.3;fill:#020403;enable-background:new    ;" d="M21.253,19.202l6.032-6.032
			c4.4-4.4,11.637-4.039,15.576,0.776l27.055,33.067c0.852,1.04,1.471,2.201,1.865,3.415c1.014-3.275,0.441-6.953-1.865-9.771
			L42.861,7.592c-3.939-4.816-11.176-5.176-15.576-0.776l-6.032,6.031c-2.895,2.895-3.687,7.006-2.547,10.61
			C19.197,21.907,20.016,20.438,21.253,19.202z"/>
		<path id="path-13_23_" style="fill:#FBB713;" d="M100.706,54.774c3.82,3.82,9.914,4.124,14.095,0.703l33.067-27.054
			c4.816-3.939,5.177-11.175,0.777-15.576l-6.032-6.031c-4.4-4.4-11.636-4.039-15.576,0.776L99.982,40.657
			c-3.421,4.182-3.117,10.276,0.703,14.096L100.706,54.774z"/>
		<path id="path-14_20_" style="opacity:0.3;fill:#020403;enable-background:new    ;" d="M148.646,12.847l-6.033-6.031
			c-2.44-2.441-5.745-3.363-8.883-2.928c2.081,0.345,4.087,1.308,5.706,2.928l6.032,6.031c4.399,4.401,4.038,11.637-0.777,15.576
			l-33.067,27.054c-1.487,1.217-3.22,1.94-5.004,2.223c2.836,0.415,5.813-0.285,8.181-2.223l33.067-27.054
			C152.684,24.484,153.045,17.248,148.646,12.847z"/>
		<path id="path-15_19_" style="fill:#FBB713;" d="M69.192,86.245c-3.82-3.82-9.914-4.124-14.096-0.703L22.03,112.596
			c-4.816,3.94-5.177,11.175-0.777,15.575l6.032,6.033c4.4,4.399,11.636,4.038,15.576-0.778l27.055-33.065
			c3.421-4.181,3.117-10.275-0.703-14.095L69.192,86.245z"/>
		<path id="path-16_15_" style="opacity:0.3;fill:#020403;enable-background:new    ;" d="M69.213,86.266l-0.021-0.02
			c-2.869-2.87-7.019-3.755-10.681-2.568c1.585,0.49,3.081,1.322,4.327,2.568l0.02,0.02c3.821,3.82,4.125,9.914,0.703,14.096
			l-27.054,33.065c-1.348,1.647-3.093,2.731-4.967,3.324c3.961,1.256,8.488,0.136,11.321-3.324l27.055-33.065
			C73.337,96.18,73.033,90.086,69.213,86.266z"/>
		<path id="path-17_13_" style="fill:#FBB713;" d="M114.801,85.542c-4.181-3.421-10.275-3.117-14.095,0.703l-0.021,0.021
			c-3.82,3.82-4.124,9.914-0.703,14.095l27.055,33.065c3.94,4.816,11.176,5.177,15.576,0.778l6.032-6.033
			c4.4-4.4,4.039-11.635-0.777-15.575L114.801,85.542z"/>
		<path id="path-18_11_" style="opacity:0.3;fill:#020403;enable-background:new    ;" d="M147.868,112.595l-33.067-27.052
			c-4.181-3.422-10.275-3.119-14.095,0.703l-0.021,0.02c-0.542,0.541-0.995,1.14-1.395,1.761c3.76-2.416,8.747-2.243,12.334,0.692
			l33.067,27.053c4.815,3.941,5.176,11.177,0.777,15.577l3.178-3.178C153.045,123.771,152.684,116.536,147.868,112.595z"/>
		<path id="path-19_9_" style="fill:#142A3B;" d="M164.296,193.411H5.431C2.43,193.411,0,190.979,0,187.98
			c0-3,2.43-5.431,5.431-5.431h158.865c3.001,0,5.431,2.431,5.431,5.431C169.727,190.979,167.297,193.411,164.296,193.411z"/>
		<path id="path-20_8_" style="fill:#2476FF;" d="M179.496,105.52c3.201,0,5.795-1.165,5.795-2.602c0-1.437-2.594-2.602-5.795-2.602
			H161.74c-3.201,0-5.795,1.165-5.795,2.602c0,1.437,2.594,2.602,5.795,2.602H179.496z"/>
		<path id="path-21_6_" style="fill:#2476FF;" d="M177.313,75.872h6.675c1.287,0,2.33,0.578,2.33,1.292
			c0,0.714-1.043,1.293-2.33,1.293h-0.31c-1.288,0-2.331,0.578-2.331,1.293c0,0.713,1.043,1.292,2.331,1.292h14.349
			c1.287,0,2.33,0.579,2.33,1.292c0,0.715-1.043,1.293-2.33,1.293h-17.245h-35.246c-1.287,0-2.33-0.578-2.33-1.293
			c0-0.713,1.043-1.292,2.33-1.292h3.982c1.287,0,2.33-0.579,2.33-1.292c0-0.715-1.043-1.293-2.33-1.293h-18.953
			c-1.287,0-2.33-0.579-2.33-1.293c0-0.714,1.043-1.292,2.33-1.292h4.479H177.313z"/>
		<path id="path-22_6_" style="fill:#2476FF;" d="M87.155,190.289H70.78c-3.158,0-5.717,1.658-5.717,3.703
			c0,2.044,2.559,3.702,5.717,3.702h0.762c3.157,0,5.717,1.657,5.717,3.702s-2.56,3.702-5.717,3.702H45.224
			c-3.157,0-5.717,1.658-5.717,3.703s2.56,3.702,5.717,3.702h33.42h86.471c3.157,0,5.717-1.657,5.717-3.702s-2.56-3.703-5.717-3.703
			h-9.77c-3.157,0-5.717-1.657-5.717-3.702s2.56-3.702,5.717-3.702h38.373c3.157,0,5.717-1.658,5.717-3.702
			c0-2.045-2.56-3.703-5.717-3.703h-2.864H87.155z"/>
		<path id="path-23_6_" style="fill:#2476FF;" d="M197.748,213.494c-2.647,0-4.793-1.776-4.793-3.968
			c0-2.19,2.146-3.967,4.793-3.967h14.687c2.648,0,4.794,1.777,4.794,3.967c0,2.192-2.146,3.968-4.794,3.968H197.748z"/>
	</g>
</g>
<g>
</g>
<g>
</g>
<g>
</g>
<g>
</g>
<g>
</g>
<g>
</g>
<g>
</g>
<g>
</g>
<g>
</g>
<g>
</g>
<g>
</g>
<g>
</g>
<g>
</g>
<g>
</g>
<g>
</g>
</svg>
