<?xml version="1.0" encoding="iso-8859-1"?>
<!-- Generator: Adobe Illustrator 19.1.0, SVG Export Plug-In . SVG Version: 6.00 Build 0)  -->
<svg version="1.1" id="Capa_1" xmlns="http://www.w3.org/2000/svg" xmlns:xlink="http://www.w3.org/1999/xlink" x="0px" y="0px"
	 viewBox="0 0 217.229 217.229" style="enable-background:new 0 0 217.229 217.229;" xml:space="preserve">
<g>
	<g id="group-84svg">
		<path id="path-1_143_" style="fill:#142A3B;" d="M70.756,182.628H50.261c-3.952,0-7.156,2.335-7.156,5.215
			c0,2.881,3.204,5.216,7.156,5.216h0.953c3.952,0,7.156,2.336,7.156,5.216c0,2.88-3.204,5.215-7.156,5.215H7.155
			c-3.951,0-7.155,2.336-7.155,5.216c0,2.881,3.204,5.215,7.155,5.215h52.948h108.224c3.952,0,7.155-2.334,7.155-5.215
			c0-2.88-3.203-5.216-7.155-5.216h-12.228c-3.951,0-7.155-2.335-7.155-5.215c0-2.88,3.204-5.216,7.155-5.216h48.025
			c3.952,0,7.156-2.335,7.156-5.216c0-2.88-3.204-5.215-7.156-5.215h-3.584H70.756z"/>
		<path id="path-2_143_" style="fill:#142A3B;" d="M196.743,214.39c-2.784,0-5.04-1.651-5.04-3.689c0-2.037,2.256-3.689,5.04-3.689
			h15.445c2.784,0,5.041,1.652,5.041,3.689c0,2.038-2.257,3.689-5.041,3.689H196.743z"/>
		<path id="path-3_143_" style="fill:#2476FF;" d="M215.139,97.855c0,52.477-43.138,95.015-96.352,95.015
			c-53.213,0-96.351-42.538-96.351-95.015c0-52.476,43.138-95.016,96.351-95.016C172.001,2.839,215.139,45.379,215.139,97.855z"/>
		<path id="path-4_143_" style="fill:#FFFFFF;" d="M176.805,22.002c-2.039-1.519-4.15-2.945-6.31-4.304
			c0.975,6.147,3.794,13.557,3.794,13.557s-2.22,9.323-1.332,13.764c0.887,4.441,11.988-4.885,1.332,3.108
			c-10.656,7.992-16.872,0.445-8.88,8.437c7.992,7.991,8.88-8.437,7.104,12.875s-4.441,24.865-9.769,30.192
			c-5.327,5.328-8.88,17.76-4.44,26.64c4.44,8.881,14.209,17.761,14.209,17.761s-4.852,31.563,0.9,32.083
			c1.276-0.869,2.53-1.766,3.761-2.692c7.211-9.376,17.316-39.936,21.98-42.268c1.413-0.707,4.786,0.394,8.945,2.352
			c4.525-11.011,7.039-23.039,7.039-35.653c0-5.65-0.529-11.175-1.487-16.555l-0.511,0.572
			C203.74,75.906,191.554,55.572,176.805,22.002z"/>
		<path id="path-5_142_" style="fill:#FFFFFF;" d="M34.855,51.209c4.753,0.669,9.337,0.803,9.337,0.803
			c-3.33,0.666,3.33,22.644,3.33,22.644c-6.056,7.228-7.403,14.332-3.995,21.312c-6.439,5.883,7.992,10.324,7.992,10.324
			c0.665,0.999-3.997,17.648-3.997,17.648c-3.33,9.657,23.644,41.292,23.644,41.292c-0.666-25.308,12.655-55.611,12.655-55.611
			c3.33-0.999,4.662-18.315,4.662-18.315c0-4.662-14.652-2.33-14.652-2.33c1.665-1.998,0-2.665,0-2.665
			c-6.994-6.66-18.316-8.658-18.316-8.658c-5.661-11.655-2.997-19.98-2.997-19.98c0.998-6.994,8.658,7.325,8.658,7.325
			c0,9.658,19.315,9.992,19.315,9.992c-9.325-12.988,2.664-25.309,2.664-25.309c0.332-2.663,7.992-0.666,7.992-0.666
			c-0.333-7.659-9.991-5.994-9.991-5.994c-1.331-2.664-13.985,5.994-13.985,5.994c-3.331-3.33,12.987-10.989,12.987-10.989
			C91.48,20.044,57.846,27.704,57.846,27.704c-1.749,0.273-3.377,0.563-4.949,0.857C45.783,35.142,39.686,42.774,34.855,51.209z"/>
		<path id="path-6_139_" style="opacity:0.35;enable-background:new    ;" d="M118.787,2.839c-2.36,0-4.691,0.113-7.008,0.278
			c49.938,3.544,89.345,44.59,89.345,94.737c0,50.15-39.407,91.196-89.345,94.74c2.317,0.165,4.648,0.276,7.008,0.276
			c53.214,0,96.351-42.538,96.351-95.016C215.138,45.379,172.001,2.839,118.787,2.839z"/>
	</g>
</g>
<g>
</g>
<g>
</g>
<g>
</g>
<g>
</g>
<g>
</g>
<g>
</g>
<g>
</g>
<g>
</g>
<g>
</g>
<g>
</g>
<g>
</g>
<g>
</g>
<g>
</g>
<g>
</g>
<g>
</g>
</svg>
