<?xml version="1.0" encoding="iso-8859-1"?>
<!-- Generator: Adobe Illustrator 19.1.0, SVG Export Plug-In . SVG Version: 6.00 Build 0)  -->
<svg version="1.1" id="Capa_1" xmlns="http://www.w3.org/2000/svg" xmlns:xlink="http://www.w3.org/1999/xlink" x="0px" y="0px"
	 viewBox="0 0 218.332 218.332" style="enable-background:new 0 0 218.332 218.332;" xml:space="preserve">
<g>
	<g id="group-100svg">
		<path id="path-1_2_" style="fill:#142A3B;" d="M52.625,140.097H16.496L0,171.146l16.496,31.046h36.129l16.493-31.046
			L52.625,140.097z M34.647,188.259c-9.605,0-17.396-7.677-17.396-17.15c0-9.462,7.791-17.15,17.396-17.15
			c9.604,0,17.397,7.688,17.397,17.15C52.044,180.574,44.255,188.259,34.647,188.259z"/>
		<path id="path-2_2_" style="opacity:0.35;fill:#020403;enable-background:new    ;" d="M29.449,187.393
			c-7.049-2.189-12.198-8.608-12.198-16.284c0-7.666,5.149-14.092,12.199-16.283c-1.651-0.514-3.374-0.867-5.196-0.867
			c-9.605,0-17.397,7.688-17.397,17.15c0,9.473,7.792,17.15,17.397,17.15C26.076,188.259,27.798,187.906,29.449,187.393z"/>
		<path id="path-3_2_" style="opacity:0.35;fill:#020403;enable-background:new    ;" d="M52.625,140.097H42.232l16.493,31.049
			l-16.493,31.046h10.393l16.493-31.046L52.625,140.097z"/>
		<path id="path-4_2_" style="fill:#FBB713;" d="M173.084,15.392c2.411-2.389,17.121-6.24,29.923,6.446l5.468,5.414
			c15.207,15.063,8.91,27.253,6.502,29.64l-86.664,71.292c10.515,22.662,16.886,41.031-1.792,59.532
			c-16.183,16.033-39.209,21.135-59.959,15.456l35.166-34.836c2.277-2.256,1.935-6.243-0.751-8.904l-34.075-33.753
			c-2.686-2.658-6.705-2.999-8.979-0.746l-5.004,4.955H22.234c2.458-10.767,7.865-20.976,16.303-29.335
			c18.675-18.501,37.257-12.149,60.13-1.734L173.084,15.392z"/>
		<path id="path-5_2_" style="fill:#2476FF;" d="M190.896,39.255c4.749,4.707,7.503,9.607,0.105,16.942
			c-7.403,7.33-14.802,7.026-19.552,2.322c-4.747-4.707-5.054-12.036,2.348-19.368C181.199,31.819,186.145,34.549,190.896,39.255z"
			/>
		<path id="path-6_2_" style="opacity:0.35;fill:#020403;enable-background:new    ;" d="M190.896,39.256
			c-0.595-0.589-1.192-1.145-1.797-1.656c3.611,4.19,4.913,8.746-1.563,15.165c-6.477,6.413-12.95,6.983-17.65,3.873
			c0.447,0.665,0.97,1.294,1.563,1.88c4.75,4.706,12.149,5.011,19.552-2.321C198.399,48.862,195.645,43.962,190.896,39.256z"/>
		<path id="path-7_2_" style="opacity:0.35;fill:#020403;enable-background:new    ;" d="M213.79,33.631
			c2.814,8.564-0.633,14.768-2.278,16.396l-86.663,71.293c10.515,22.662,16.885,41.031-1.793,59.532
			c-13.957,13.828-33.004,19.505-51.292,17.166l-5.202,5.153c20.75,5.68,43.777,0.578,59.959-15.455
			c18.678-18.501,12.307-36.872,1.792-59.532l86.664-71.293C217.034,54.853,221.881,45.654,213.79,33.631z"/>
		<path id="path-8_2_" style="opacity:0.35;fill:#020403;enable-background:new    ;" d="M99.737,158.203
			c0.162-1.911-0.591-4.017-2.224-5.635l-34.076-33.752c-2.686-2.659-6.705-3-8.979-0.748l-5.003,4.956H24.263
			c-0.805,2.257-1.499,4.543-2.029,6.864h30.685l5.004-4.955c2.274-2.253,6.293-1.912,8.979,0.746L99.737,158.203z"/>
		<path id="path-9_2_" style="fill:#FF3A2F;" d="M133.822,198.88c1.635,0,2.96-0.895,2.96-1.999c0-1.104-1.325-1.999-2.96-1.999
			h-9.071c-1.635,0-2.96,0.895-2.96,1.999c0,1.104,1.325,1.999,2.96,1.999H133.822z"/>
		<path id="path-10_2_" style="fill:#FF3A2F;" d="M53.242,55.059h2.47c0.476,0,0.862,0.501,0.862,1.118
			c0,0.616-0.386,1.116-0.862,1.116h-0.115c-0.476,0-0.863,0.5-0.863,1.117s0.387,1.117,0.863,1.117h5.31
			c0.476,0,0.863,0.5,0.863,1.116c0,0.616-0.387,1.116-0.863,1.116h-6.382H41.482c-0.477,0-0.862-0.5-0.862-1.116
			c0-0.616,0.385-1.116,0.862-1.116h1.474c0.476,0,0.863-0.5,0.863-1.117s-0.387-1.117-0.863-1.117h-7.014
			c-0.476,0-0.862-0.5-0.862-1.116c0-0.617,0.386-1.118,0.862-1.118H37.6H53.242z"/>
		<path id="path-11_2_" style="fill:#FF3A2F;" d="M181.561,126.413h3.362c0.649,0,1.174,0.681,1.174,1.519
			c0,0.84-0.525,1.52-1.174,1.52h-0.156c-0.648,0-1.174,0.68-1.174,1.52s0.526,1.521,1.174,1.521h7.227
			c0.648,0,1.173,0.679,1.173,1.518s-0.525,1.52-1.173,1.52h-8.686h-17.752c-0.648,0-1.173-0.681-1.173-1.52
			s0.525-1.518,1.173-1.518h2.006c0.648,0,1.174-0.681,1.174-1.521s-0.526-1.52-1.174-1.52h-9.546c-0.648,0-1.174-0.68-1.174-1.52
			c0-0.838,0.526-1.519,1.174-1.519h2.256H181.561z"/>
		<path id="path-12_2_" style="fill:#FF3A2F;" d="M26.767,64.314c1.02,0,1.847-0.604,1.847-1.347c0-0.745-0.827-1.349-1.847-1.349
			h-5.662c-1.021,0-1.848,0.604-1.848,1.349c0,0.743,0.827,1.347,1.848,1.347H26.767z"/>
		<path id="path-13_2_" style="fill:#FF3A2F;" d="M190.621,181.517h6.853c1.321,0,2.392,1.284,2.392,2.867
			c0,1.585-1.071,2.869-2.392,2.869h-0.32c-1.321,0-2.392,1.284-2.392,2.869c0,1.584,1.071,2.868,2.392,2.868h14.732
			c1.321,0,2.393,1.284,2.393,2.868c0,1.583-1.072,2.868-2.393,2.868h-17.704h-36.186c-1.321,0-2.393-1.285-2.393-2.868
			c0-1.584,1.072-2.868,2.393-2.868h4.088c1.322,0,2.392-1.284,2.392-2.868c0-1.585-1.07-2.869-2.392-2.869h-19.458
			c-1.321,0-2.393-1.284-2.393-2.869c0-1.583,1.072-2.867,2.393-2.867h4.599H190.621z"/>
	</g>
</g>
<g>
</g>
<g>
</g>
<g>
</g>
<g>
</g>
<g>
</g>
<g>
</g>
<g>
</g>
<g>
</g>
<g>
</g>
<g>
</g>
<g>
</g>
<g>
</g>
<g>
</g>
<g>
</g>
<g>
</g>
</svg>
