<?xml version="1.0" encoding="iso-8859-1"?>
<!-- Generator: Adobe Illustrator 19.1.0, SVG Export Plug-In . SVG Version: 6.00 Build 0)  -->
<svg version="1.1" id="Capa_1" xmlns="http://www.w3.org/2000/svg" xmlns:xlink="http://www.w3.org/1999/xlink" x="0px" y="0px"
	 viewBox="0 0 217.221 217.221" style="enable-background:new 0 0 217.221 217.221;" xml:space="preserve">
<g>
	<g id="group-107svg">
		<path id="path-1_9_" style="fill:#FF3A2F;" d="M73.029,190.725H56.374c-3.211,0-5.815,1.977-5.815,4.417
			c0,2.438,2.604,4.415,5.815,4.415h0.775c3.211,0,5.815,1.978,5.815,4.416c0,2.44-2.604,4.416-5.815,4.416H21.345
			c-3.211,0-5.814,1.979-5.814,4.417s2.603,4.415,5.814,4.415h43.027h87.947c3.211,0,5.814-1.977,5.814-4.415
			s-2.603-4.417-5.814-4.417h-9.937c-3.211,0-5.814-1.976-5.814-4.416c0-2.438,2.603-4.416,5.814-4.416h39.027
			c3.212,0,5.814-1.977,5.814-4.415c0-2.44-2.602-4.417-5.814-4.417h-2.913H73.029z"/>
		<path id="path-2_9_" style="fill:#FF3A2F;" d="M48.48,174.064h4.75c0.916,0,1.658-0.816,1.658-1.824
			c0-1.008-0.742-1.824-1.658-1.824h-0.221c-0.916,0-1.658-0.817-1.658-1.826c0-1.008,0.742-1.825,1.658-1.825h10.212
			c0.916,0,1.658-0.816,1.658-1.824c0-1.009-0.742-1.826-1.658-1.826H50.949H25.866c-0.916,0-1.658,0.817-1.658,1.826
			c0,1.008,0.742,1.824,1.658,1.824H28.7c0.916,0,1.658,0.817,1.658,1.825c0,1.009-0.742,1.826-1.658,1.826H15.213
			c-0.916,0-1.659,0.816-1.659,1.824c0,1.008,0.743,1.824,1.659,1.824H18.4H48.48z"/>
		<path id="path-3_9_" style="fill:#142A3B;" d="M203.667,158.205h-30.603V92.926h30.603V158.205z M180.305,150.965h16.121v-50.798
			h-16.121V150.965z"/>
		<path id="path-4_9_" style="fill:#142A3B;" d="M179.647,173.585c0,9.156-7.46,16.583-16.662,16.583H88.009
			c-9.201,0-16.661-7.427-16.661-16.583V82.382h108.299V173.585z"/>
		<path id="path-5_9_" style="opacity:0.35;enable-background:new    ;" d="M161.88,82.382v79.319
			c0,9.155-7.461,16.582-16.662,16.582H72.037c2.037,6.867,8.412,11.885,15.972,11.885h74.976c9.202,0,16.662-7.427,16.662-16.583
			V82.382H161.88z"/>
		<path id="path-6_9_" style="fill:#FBB713;" d="M161.997,0c8.599,13.048-4.14,20.207-7.107,27.209
			c-3.142,7.417-0.084,14.524,7.372,17.65C186.425,54.998,193.615,7.616,161.997,0z"/>
		<path id="path-7_9_" style="fill:#142A3B;" d="M154.654,82.382l13.668-36.016l-8.591-2.849l-21.738,38.865H154.654z"/>
		<path id="path-8_8_" style="fill:#FF3A2F;" d="M113.001,82.382H88.009L75.513,57.509l-4.165-24.874l20.826,12.437L113.001,82.382z
			"/>
		<path id="path-9_7_" style="fill:#142A3B;" d="M78.694,58.759c-1.105,0-2.194-0.503-2.905-1.455
			c-1.197-1.602-0.868-3.869,0.735-5.066l9.914-7.402c1.604-1.198,3.873-0.865,5.066,0.736c1.198,1.601,0.869,3.869-0.735,5.066
			l-9.914,7.401C80.207,58.526,79.446,58.759,78.694,58.759z"/>
		<path id="path-10_7_" style="fill:#2476FF;" d="M136.293,82.382V46.967l-11.022-21.54L115.54,48.71v33.672H136.293z"/>
		<path id="path-11_5_" style="fill:#221E1F;" d="M133.628,54.132h-14.579c-1.999,0-3.621-1.619-3.621-3.62
			c0-1.999,1.622-3.62,3.621-3.62h14.579c1.999,0,3.621,1.621,3.621,3.62C137.249,52.513,135.627,54.132,133.628,54.132z"/>
	</g>
</g>
<g>
</g>
<g>
</g>
<g>
</g>
<g>
</g>
<g>
</g>
<g>
</g>
<g>
</g>
<g>
</g>
<g>
</g>
<g>
</g>
<g>
</g>
<g>
</g>
<g>
</g>
<g>
</g>
<g>
</g>
</svg>
